<svg fill="none" height="75" viewBox="0 0 120 75" width="120" xmlns="http://www.w3.org/2000/svg"><path d="m41.6249 54.1285c-1.8854 2.6106-4.235 4.6991-7.0196 6.3235-3.0457 1.7694-6.3234 2.8136-9.8332 3.0457-5.0762.348-9.7753-.7832-14.0682-3.5098-4.08997-2.5816-7.04864-6.1494-8.93407-10.5874-.986221-2.3206-1.537346-4.7281-1.711386-7.2227-.290066-4.2639.493112-8.3249 2.494566-12.1247 2.81364-5.3953 7.07761-9.1371 12.82089-11.1966 3.1327-1.1312 6.3815-1.5083 9.6882-1.2183 4.409.3771 8.3539 1.9435 11.8927 4.5831.087.058.1451.145.2611.145.058-.116.029-.232.029-.3481 0-7.2516 0-14.50325 0-21.754897 0-.08702 0-.1740398 0-.232053h8.76v.493112 21.987038c-.4931.4641-1.0443.8702-1.5374 1.3633-.8122.8121-1.6243 1.5953-2.3205 2.4945s-1.3343 1.8274-1.8854 2.8137c-.3191.5801-.6962 1.1602-.9282 1.7694-.2611.6381-.5222 1.2473-.7542 1.8854-.2321.7252-.4931 1.4213-.6672 2.1755-.145.6671-.319 1.3343-.377 2.0015-.0291.4931-.1741.9572-.2031 1.4213-.029.4061.029.8122-.116 1.1892-.116-1.0732-.2901-2.1464-.6092-3.1907-2.1174-6.8455-8.963-11.1095-16.0406-9.8622-3.7709.6671-6.8165 2.5526-9.0791 5.6273-2.23347 3.0456-3.10366 6.4684-2.61055 10.2393.49311 3.7708 2.23355 6.8455 5.19215 9.2531 2.7266 2.2045 5.8884 3.2487 9.3982 3.1327 1.9724-.058 3.8578-.4641 5.5982-1.3633 4.9021-2.4656 7.5998-6.4685 8.1219-11.9217.174-.4641 0-.9282.116-1.3923.029.058.029.145.029.203 0 .6091-.087 1.2473-.029 1.8564.058 1.0733.203 2.1465.4351 3.1908.2321 1.0152.4931 2.0304.8702 3.0456.3771 1.0733.8702 2.0885 1.3923 3.0747.3191.6092.6672 1.2183 1.0733 1.7985.174.261.261.6091.6091.7251-.029 0-.058.058-.058.087z" fill="#1a8da4"/><path d="m46.0059 22.4801c0-7.3387 0-14.64832 0-21.986988 0-.17404 0-.319072 0-.493112h.058v22.3931c4.1479-3.1617 8.789-4.8151 13.9521-4.8731 5.1632-.058 9.8333 1.4793 14.0102 4.525.1741.145.3481.2611.5221.4061.9863.8122 1.9145 1.6824 2.7847 2.6396 1.0732 1.1893 2.0304 2.4656 2.8426 3.8289.9572 1.6243 1.7114 3.3357 2.2045 5.1341.2611.9282.4931 1.8565.6092 2.7847-.2031.348-.5512.261-.8412.261-2.4656 0-4.9602 0-7.4257 0-.2321 0-.4351 0-.6092-.145-.348-1.0442-.6961-2.0885-1.2182-3.0457-1.5954-2.9877-3.9739-5.1922-7.0776-6.5265-2.0015-.8702-4.09-1.2473-6.2655-1.1022-3.1037.203-5.8883 1.2472-8.2959 3.2197-2.2915 1.8854-3.8288 4.264-4.67 7.1066-.2321.8122-.4061 1.6534-.4641 2.5236 0 .058-.029.145-.058.203 0-.087 0-.174 0-.29 0-5.3953 0-10.7905 0-16.1857 0-.087.058-.2321-.058-.3771z" fill="#39b9cc"/><path d="m83.0158 36.8952c-.1161-.9572-.3481-1.8854-.6092-2.7846-.5221-1.7984-1.2763-3.5098-2.2045-5.1342-.8122-1.3633-1.7404-2.6396-2.8426-3.8288-.8702-.9572-1.7984-1.8274-2.7846-2.6396-.1741-.1451-.3481-.2611-.5222-.4061.2031-.087.1451-.3191.1161-.4351-.0871-.5511.029-1.1023.029-1.6534-.029-.7252.029-1.4503-.029-2.1755-.029-.174.058-.261.232-.261h.2031 7.9768c.319 0 .4061.087.4061.406-.029 1.3053 0 2.6106 0 3.9159v.4061c.3771-.261.7251-.5221 1.0442-.7541 2.3495-1.5954 4.9311-2.7267 7.6868-3.3938 1.1892-.2901 2.4075-.4351 3.6258-.5511 1.6824-.1161 3.3357-.029 5.0184.203 2.117.3191 4.119.8992 6.062 1.7694 2.031.8992 3.887 2.0885 5.569 3.5388 1.103.9282 2.089 2.0015 2.988 3.1327 1.305 1.6244 2.35 3.4228 3.191 5.3372.783 1.8274 1.305 3.7419 1.595 5.7143.174 1.1603.232 2.3496.232 3.5388v22.2771c0 .4641 0 .4641-.493.4641-2.64 0-5.25 0-7.89 0-.319 0-.406-.087-.406-.4061 0-7.5417.029-15.1124 0-22.6541 0-3.3938-1.131-6.4395-3.307-9.0501-1.74-2.0885-3.886-3.5388-6.439-4.409-1.7694-.5801-3.5969-.8412-5.4243-.6962-2.2915.1741-4.438.8412-6.4104 2.0305-1.7404 1.0442-3.1908 2.4076-4.351 4.0609-.8992 1.2473-1.5374 2.6396-1.9435 4.119-.029.116-.087.232-.145.348-.116-.029-.145-.029-.174-.029z" fill="#87d0dc"/><path d="m41.625 54.128c.029-.058.058-.087.058-.145.2611-.3481.5511-.6962.7542-1.0733.8122-1.3053 1.4793-2.6396 2.0595-4.0609.8992-2.2915 1.3343-4.6991 1.5663-7.1066.058.4061.116.8122.2031 1.2183.4351 2.5525 1.4793 4.7861 3.1617 6.7585 1.6243 1.9144 3.6258 3.3358 6.0043 4.1769 1.3343.4932 2.6977.7542 4.119.8412 2.4075.1451 4.728-.348 6.9035-1.3633 1.3343-.6381 2.5526-1.4793 3.6259-2.5235.203-.2031.348-.2031.5511 0 1.5954 1.5953 3.1907 3.1907 4.7861 4.786.3191.3191.6381.6382.9572.9573.174.174.174.261 0 .4351-1.3923 1.3343-2.9297 2.5235-4.6121 3.4808-1.8564 1.0732-3.8578 1.8564-5.9463 2.3785-1.9144.4641-3.8579.6961-5.8013.6671-2.2335-.029-4.438-.377-6.5845-1.0442-2.4946-.7832-4.7861-1.9724-6.9036-3.5098-1.7694-1.3343-3.3067-2.8716-4.67-4.641-.0871-.0871-.1161-.1741-.2321-.2321z" fill="#39b9cc"/><path d="m46.0635 41.7408c-.261 2.4366-.6671 4.8151-1.5663 7.1067-.5512 1.4213-1.2473 2.7846-2.0595 4.0609-.2321.3771-.5221.6961-.7542 1.0732-.3481-.116-.4351-.4641-.6091-.7251-.3771-.5802-.7252-1.1893-1.0733-1.7984-.5221-.9863-1.0152-2.0305-1.3923-3.0747-.3481-.9863-.6091-2.0015-.8702-3.0457-.261-1.0443-.3771-2.1175-.4351-3.1908-.029-.6091.029-1.2472.029-1.8564 0-.058 0-.145-.029-.203-.116.4641.058.9282-.116 1.3923 0-.6382 0-1.2473 0-1.8854.145-.3771.087-.7832.116-1.1893.058-.4931.1741-.9572.2031-1.4213.058-.6962.232-1.3633.3771-2.0015.174-.7252.406-1.4503.6671-2.1755.2321-.6381.4931-1.2473.7542-1.8854.261-.6092.6091-1.1893.9282-1.7694.5511-.9862 1.1893-1.9145 1.8854-2.8137.6962-.8992 1.5084-1.7113 2.3205-2.4945.4932-.4931 1.0443-.8702 1.5374-1.3633.116.145.058.29.058.4351v16.1856.2901c.029.7832.029 1.5664.029 2.3495z" fill="#0ba3bb"/><g fill="#303030"><path d="m96.5941 70.1669v1.9435c0 .7251 0 1.4503.029 2.1755 0 .174-.058.232-.2031.203-.319 0-.6381-.029-.9282 0-.203 0-.232-.058-.232-.2321 0-2.0304 0-4.0609 0-6.0913 0-.1741.029-.2611.232-.2321.116 0 .2031.029.3191 0 .6381-.174 1.0152.116 1.3633.6382.7832 1.1602 1.6534 2.2915 2.4946 3.4227.058.058.116.1451.203.2611 0-.4351 0-.7542 0-1.1023 0-1.0152 0-2.0014 0-3.0166 0-.1741.058-.2321.2322-.2321h.899c.174 0 .232.029.232.2321v6.0913c0 .2031-.087.2611-.261.2611-.319 0-.638 0-.9862.029-.174.029-.232-.087-.319-.203-.9282-1.2763-1.8855-2.5526-2.8137-3.8289-.058-.087-.116-.1741-.261-.3191z"/><path d="m80.0588 70.1692v3.9449c0 .3191-.087.4351-.4061.3771-.319-.029-.7541.145-.9282-.058-.145-.1741-.058-.5802-.058-.8992 0-1.7404 0-3.5098 0-5.2502 0-.2321.029-.2901.2901-.3481.8412-.174 1.3343.145 1.7694.8412.6961 1.0732 1.5083 2.0885 2.2625 3.1037.087.116.174.203.2901.3771 0-.5511 0-1.0152 0-1.4503 0-.8702 0-1.7404-.029-2.6106 0-.2031.029-.3191.29-.2901.3481.029.8412-.145 1.0443.087.174.2031.058.6672.058 1.0152v5.1052c0 .3191-.1161.3481-.3771.3771-.7832.145-1.2473-.174-1.6534-.8122-.7252-1.1022-1.5373-2.1465-2.3205-3.1907-.029-.087-.116-.145-.2321-.3191z"/><path d="m60.7416 70.1973v3.9449c0 .3191-.087.4351-.4061.4061-.261-.029-.5221 0-.8121 0-.1451 0-.2031-.058-.2031-.203 0-2.0595 0-4.09 0-6.1494 0-.1741.058-.2321.2321-.2031.116 0 .261.029.3771 0 .6091-.174.9572.1451 1.2762.6092.8122 1.1602 1.6534 2.2915 2.4946 3.4227.058.0871.116.1741.2031.2611.087-.2321.029-.4351.029-.6091 0-1.1313 0-2.2626-.029-3.3938 0-.2321.058-.3191.319-.3191.3481.029.8412-.145 1.0443.058.174.2031.058.6672.058 1.0153v5.1341c0 .2901-.087.3191-.3481.3481-.7832.145-1.2763-.145-1.7114-.8122-.7252-1.1312-1.5663-2.1755-2.3785-3.2487 0-.087-.058-.1451-.1451-.2611z"/><path d="m4.38086 71.213c0-.9862 0-1.9724 0-2.9587 0-.261.02901-.3481.31907-.3481.92821.0291 1.82742.0001 2.75563.0291 2.2045.087 3.19074 1.8564 3.04564 3.5388-.145 1.7114-1.13121 2.7266-2.8716 2.9586-1.01523.1161-2.03046.058-3.04569.058-.20305 0-.17404-.116-.17404-.261-.02901-.9862-.02901-2.0015-.02901-3.0167zm1.53735 0v1.7694c0 .203.05801.2611.26106.2611.4641-.029.8992-.029 1.3343-.1451.95722-.232 1.45033-.9572 1.42132-2.0594-.029-.8702-.66715-1.6244-1.56635-1.7694-.40609-.0871-.81219-.029-1.21828-.0581-.17404 0-.23205.0581-.23205.2321z"/><path d="m54.9992 67.8203c2.0015 0 3.4518 1.4213 3.4518 3.4228 0 2.0014-1.4213 3.3938-3.4228 3.3938-1.9724 0-3.4227-1.4214-3.4227-3.3938 0-2.0595 1.3633-3.4228 3.3937-3.4228zm1.8565 3.4228c.029-.2901-.029-.6382-.1741-.9572-.29-.7252-.9282-1.1603-1.7114-1.1313-.7831 0-1.4213.4351-1.6533 1.1313-.2321.6381-.2031 1.2763.058 1.8854.145.3481.4061.6381.7541.8412 1.3053.7542 2.7267-.145 2.7267-1.7694z"/><path d="m20.5372 72.6904v1.2763c0 .087.029.203-.116.232-1.0153.2901-2.0305.5512-3.0747.3191-1.3924-.2901-2.3496-1.4503-2.4366-2.9587-.174-2.4365 1.6534-4.0609 4.1769-3.7418.3191.058.6672.116.9863.174.174.029.203.087.145.2611-.116.29-.116.6671-.3191.8702-.203.203-.5511-.058-.8412-.029-.203.029-.4061 0-.6381 0-.8702.116-1.5374.4931-1.7984 1.3633-.2901.8412-.1741 1.6824.4931 2.3495.5221.5221 1.1603.5221 1.8274.4351.1741-.029.1741-.145.1741-.2901 0-.4931 0-.9862 0-1.5083 0-.2611.029-.3771.348-.3481.3771.029.8412-.145 1.0733.087.174.2031.058.6962.058 1.0443-.058.203-.058.3191-.058.4641z"/><path d="m36.9552 74.5208c-.5221 0-.9862 0-1.4503 0-.174 0-.174-.116-.232-.232-.1451-.3771-.2901-.7542-.4351-1.1313-.058-.145-.1451-.203-.2901-.203-.7542 0-1.5083 0-2.2625 0-.2031 0-.2611.087-.3191.232-.145.3771-.29.7252-.4061 1.1023-.058.174-.116.232-.319.232-.3191-.029-.6382-.029-.9283-.029-.261 0-.319-.058-.232-.319.8122-1.9435 1.6534-3.8579 2.4365-5.8304.1451-.319.2901-.4641.6382-.4351.3191.0291.7542-.087.9862.0581.2321.145.2901.5801.4351.8702.7542 1.7984 1.5084 3.5678 2.2625 5.3662.029.116.058.174.116.319zm-3.5097-5.1051c-.3191.8412-.6092 1.5953-.8993 2.3495-.058.1741 0 .1741.1451.1741h1.5373c.1451 0 .2031-.029.1451-.1741-.3481-.7542-.6382-1.5373-.9282-2.3495z"/><path d="m73.0681 71.2442c0-1.0152 0-2.0014 0-3.0166 0-.2031.058-.2901.261-.2901h3.6839c.203 0 .29.058.261.2611-.029.319.1451.7251-.058.9282-.203.203-.6091.058-.9282.058-.5221 0-1.0152 0-1.5373 0-.1741 0-.2901.029-.2611.232.029.3481-.145.8122.087 1.0153.1741.174.6382.058.9572.058h1.1603c.174 0 .261.029.261.232.0291.9282.0291.9282-.8991.9282-.4351 0-.8703 0-1.2763 0-.2031 0-.2901.029-.2901.2611.029.3481.029.6672 0 1.0152 0 .2321.087.2611.2901.2611h2.2625c.203 0 .319.029.29.2901-.029.319.0871.7541-.058.9282-.174.203-.6091.058-.9282.058-.9862 0-2.0014 0-2.9877 0-.232 0-.319-.058-.319-.3191.029-.9282.029-1.9144.029-2.9007z"/><path d="m102.916 71.2152c0-.9862 0-2.0014 0-2.9876 0-.2321.058-.2901.29-.2901h3.655c.232 0 .261.087.261.2901-.029.319.087.7541-.058.9282-.174.203-.609.058-.928.058-.522 0-1.015 0-1.538 0-.174 0-.232.029-.232.232.029.2901.029.5802 0 .8702 0 .1741.058.2321.232.2321h1.944c.203 0 .29.029.29.2611 0 .8992 0 .8992-.87.8992-.435 0-.87 0-1.335 0-.174 0-.261.029-.261.232.029.3481.029.6672 0 1.0152-.029.2611.087.2901.29.2901h2.234c.232 0 .29.058.29.2901-.029.319.087.7541-.058.9282-.174.203-.609.058-.928.058-.986 0-1.973 0-2.959 0-.261 0-.319-.087-.319-.3191 0-.9862 0-2.0014 0-2.9877z"/><path d="m108.021 67.9933c.522-.029 1.015-.058 1.479-.0871.174 0 .261.0871.349.2321.377.6672.754 1.3633 1.16 2.0885.377-.6672.754-1.2763 1.073-1.8855.174-.319.348-.4641.725-.406.348.058.696 0 1.015 0 .058.145-.029.232-.087.29-.58.8992-1.189 1.7984-1.798 2.6976-.116.1741-.116.3191 0 .4931.609.8993 1.218 1.8275 1.827 2.7557.058.087.116.203.232.3771-.609 0-1.131 0-1.653 0-.145 0-.174-.1451-.232-.2321-.377-.6962-.783-1.3923-1.16-2.1175-.145.1161-.203.2901-.29.4061-.319.5511-.638 1.0733-.929 1.6244-.116.232-.232.3191-.522.29-.319-.029-.638-.029-.928-.029-.087 0-.232.0581-.29-.058-.029-.087.058-.174.116-.232.609-.8992 1.218-1.8274 1.857-2.7266.145-.2031.116-.3191 0-.5222-.639-.9572-1.277-1.9434-1.944-2.9586z"/><path d="m49.1374 67.8203c.6962 0 1.1313.087 1.5954.1741.174.029.2901.087.2031.319-.1161.2611-.1451.6382-.3191.8412-.2031.2031-.5511-.029-.8122-.029-.8412 0-1.5374.2901-1.9144 1.0733-.4061.7831-.3771 1.5953.087 2.3495.4061.6671 1.1893.8702 2.1465.6961.4931-.087.4931-.087.6671.3481v.029c.2611.6962.2611.6962-.4641.8702-.9572.2321-1.9144.2901-2.7846-.261-1.1893-.7542-1.5664-1.9145-1.4794-3.2198.0581-1.8854 1.4504-3.1907 3.0747-3.1907z"/><path d="m27.5847 67.9347h2.4365c.2321 0 .2901.058.2901.29-.029.2611 0 .5221 0 .7542 0 .174-.058.2321-.2321.2321-.4641 0-.8992 0-1.3633 0-.29-.0291-.3771.058-.3771.348.0291 1.5374 0 3.0747 0 4.6121 0 .261-.029.3771-.319.3481-.2901-.0291-.6092-.0291-.8992 0-.2321.029-.3191-.0581-.3191-.2901 0-1.5664 0-3.1327 0-4.6991 0-.261-.029-.3481-.3191-.319-.4641.029-.9282 0-1.3923 0-.203 0-.2901-.0291-.2611-.2611.0291-.3191-.145-.7542.0581-.9862.174-.2031.6091-.058.9282-.058.6091.029 1.1892.029 1.7694.029z"/><path d="m88.5283 67.9363h2.4366c.203 0 .3191.029.29.2901-.029.3191.1161.7252-.058.9282-.203.203-.6091.058-.9282.058-.319.029-.7251-.116-.8992.058-.203.1741-.058.5802-.058.8992v4.061c0 .203-.029.319-.2901.29-.29-.029-.6091-.029-.8992 0-.261.029-.348-.058-.348-.3481 0-1.5373 0-3.1037 0-4.641 0-.2611-.0291-.3481-.3191-.3191-.4641.029-.9572 0-1.4213 0-.1741 0-.2611-.029-.2321-.232.029-.3481-.145-.7832.058-.9863.1741-.174.6092-.058.9282-.058z"/><path d="m69.2113 67.9347h2.4076c.232 0 .3481.029.3191.29-.029.3191.145.7542-.0871.9282-.174.1451-.6091.0581-.8992.0581-.319 0-.7251-.0871-.8992.058-.203.174-.058.5801-.058.8992v4.0609c0 .203-.029.3191-.29.2901-.3481-.0291-.6672-.0291-1.0153 0-.232.029-.261-.0871-.261-.2901 0-1.5664 0-3.1327 0-4.6991 0-.29-.0871-.3771-.3771-.3481-.4641.029-.9282 0-1.3923 0-.1741 0-.2321-.058-.2321-.203v-.029c.029-.3191-.145-.7542.058-.9862.1741-.2031.6092-.058.9282-.058.6382.029 1.2183.029 1.7984.029z"/><path d="m117.245 67.9352h2.437c.232 0 .319.0581.29.2901-.029.2611-.029.5221 0 .7542 0 .174-.058.232-.232.232-.464 0-.958 0-1.422 0-.232 0-.29.058-.29.2901v4.6991c0 .261-.058.377-.348.348s-.58-.029-.87 0c-.261.029-.319-.058-.319-.319 0-1.5374 0-3.0747.029-4.6121 0-.3191-.058-.4061-.377-.3771-.435.029-.87 0-1.334 0-.203 0-.32-.029-.291-.261.03-.3191-.145-.7542.059-.9572.203-.2031.609-.0581.928-.0581.609-.029 1.16-.029 1.74-.029z"/><path d="m38 71.2408c0-1.0152 0-2.0014 0-3.0167 0-.232.058-.29.2901-.29.319.029.6381.029.9282 0 .261-.029.29.087.29.319v4.6411c0 .2611.0581.3481.3481.3481.6962-.029 1.3923 0 2.0885 0 .2321 0 .3481.029.3191.29-.029.3191.116.7542-.058.9283-.1741.174-.6092.058-.9283.058-.9862 0-1.9434 0-2.9296 0-.2611 0-.3481-.058-.3481-.3481.029-.9572 0-1.9435 0-2.9297z"/><path d="m13.4592 71.2442v3.0167c0 .2321-.058.2901-.261.2611-.3481-.029-.6672-.029-1.0153 0-.232 0-.261-.058-.261-.2611 0-2.0014 0-4.0029 0-6.0043 0-.2321.058-.3191.319-.3191.3191.029.6382.029.9283 0 .232 0 .29.058.29.2901z"/><path d="m23.6691 71.2396v3.0167c0 .203-.058.29-.261.261-.3191-.029-.6382-.029-.9862 0-.2611.029-.3191-.058-.2901-.3191 0-1.9144 0-3.8288 0-5.7433 0-.5511 0-.5511.5511-.5511.2321 0 .4931.029.7252 0 .232-.029.261.058.261.2901z"/></g><path d="m83.0158 36.8945h.116c0 .058 0 .1161-.029.1741 0 .029 0 .058-.029.087-.029.174-.1741.116-.2901.116-2.8136 0-5.6273 0-8.4409 0-.2031 0-.2901-.058-.2901-.29.1741.145.4061.145.6092.145h7.4257c.377.029.7251.116.9282-.2321z" fill="#0ba3bb"/><path d="m83.0762 37.1612c0-.029 0-.058.029-.087.029.058 0 .087-.029.087z" fill="#87d0dc"/></svg>