<svg fill="none" height="71" viewBox="0 0 150 71" width="150" xmlns="http://www.w3.org/2000/svg"><g fill="#48a57f"><path d="m21.7779 53.7339h-4.492v16.2054h4.492z"/><path d="m29.7953 58.2259c0-1.3647 1.9902-1.9901 4.3215.1137l1.5352-3.5254c-1.4784-1.2509-2.9568-1.4784-4.7195-1.4784-2.8999 0-5.4018 1.8196-5.4018 4.947 0 5.1744 6.0842 4.9469 6.0842 7.1645 0 1.2509-1.7059 1.3078-3.0137.5686l-1.4215-.8529-2.047 3.4685c1.7058 1.251 3.7528 1.8764 5.8567 1.7627 3.1274 0 5.1744-1.8195 5.1744-4.9469-.1137-5.6293-6.3685-5.4018-6.3685-7.2214z"/><path d="m46.9674 66.3002c-2.2745 0-4.0372-1.8195-4.0372-4.492s1.8196-4.4921 4.0372-4.4921c1.3078 0 2.2744.4549 3.3548 1.8196l2.2744-3.8097c-1.5352-1.3647-3.5254-2.1039-5.6292-2.047-.2275 0-.398 0-.6255 0-4.5489.1706-8.0743 3.9803-7.9037 8.5292v.6255c.1706 4.5489 3.9803 8.0743 8.5292 7.9037 2.5019 0 4.7195-.9098 5.8567-2.4451l-2.445-3.5822c-.7392 1.1941-1.9902 1.9901-3.4117 1.9901z"/><path d="m62.3768 52.9947c-4.7195.1706-8.4155 4.1509-8.188 8.8703v.2843c.1137 4.6627 3.9234 8.3018 8.5292 8.2449h.2274c4.6626-.0568 8.3586-3.8665 8.2449-8.5292 0-.2274 0-.398 0-.6254-.1706-4.7764-4.1509-8.4155-8.8135-8.2449zm.3412 13.3055c-2.2745 0-4.0372-1.8195-4.0372-4.492s1.8196-4.4921 4.0372-4.4921 4.0371 1.8196 4.0371 4.4921-1.7627 4.492-4.0371 4.492z"/><path d="m83.0174 61.3533h-.0568l-5.1175-7.6194h-4.0372v16.2054h4.492v-7.6762h.0569l5.1175 7.6762h4.0372v-16.2054h-4.4921z"/><path d="m101.099 61.3533-5.174-7.6194h-4.0372v16.2054h4.4921v-7.6762h.0568l5.1173 7.6762h4.037v-16.2054h-4.492z"/><path d="m120.091 57.771-.455-4.0371h-9.666v16.2054h9.666l.455-4.0371h-5.629v-2.2745h4.947v-3.8097h-4.947v-2.047z"/><path d="m131.577 66.3002c-2.274 0-4.037-1.8195-4.037-4.492s1.819-4.4921 4.037-4.4921c1.251 0 2.274.4549 3.355 1.8196l2.217-3.8097c-1.535-1.3647-3.525-2.1039-5.629-2.047-.227 0-.398 0-.625 0-4.549.1706-8.075 3.9803-7.961 8.5292v.6255c.171 4.5489 3.98 8.0743 8.529 7.9037 2.502 0 4.72-.9098 5.857-2.4451l-2.445-3.5822c-.626 1.1941-1.933 1.9901-3.298 1.9901z"/><path d="m149.545 53.7339h-10.349l-.455 4.0371h3.412v12.1683h4.492v-12.1683h3.355z"/><path d="m6.3116 53.7339h-6.3116v12.1114h4.49204v-8.0743c2.44503 0 5.17437.6824 5.17437 4.0372s-2.67248 4.0371-5.17437 4.0371v4.0372h1.81956c2.7862-.1137 5.345-1.649 6.7665-4.0372.6823-1.1372 1.0235-2.445 1.0804-3.7528v-.5118c0-4.2646-3.5254-7.79-7.8469-7.8468z"/><path d="m60.4435 11.1448c6.7665 0 14.1585 1.8764 14.1585 11.088 0 9.2115-7.392 11.0879-14.1585 11.0879v11.0879h4.8901c7.6763-.2843 14.7271-4.4351 18.5936-11.0879 1.8196-3.1274 2.8431-6.6528 2.8431-10.2919v-1.3647c.1137-11.94083-9.439-21.6072387-21.323-21.6641-.0568 0-.1137 0-.1137 0h-17.1721v33.2638h12.282z"/><path d="m101.839 33.3207h-12.2825v11.088h12.2825z"/></g></svg>