<svg fill="none" height="254" viewBox="0 0 301 254" width="301" xmlns="http://www.w3.org/2000/svg"><path d="m266.032 211.789c-34.879 35.565-69.471 48.602-103.721 39.167-34.25-9.434-70.6155-16.524-109.0965-21.098-38.481-4.575-56.09194-27.56-52.832776-68.958 3.259166-41.397 18.926076-80.7354 46.943376-117.9585 28.0174-37.22305 67.0699-50.20253 116.9299-39.10993 49.859 11.09263 88.054 39.62463 114.471 85.65313 26.416 46.0283 22.242 86.7393-12.694 122.3043z" fill="#eee"/><path d="m84.5479 76.0479 15.9531 102.0061 13.608-.172c.057 0-18.3542-99.8329-29.5611-101.8341z" fill="#68c8a5"/><path d="m100.501 178.054s-5.6039-95.4882-15.9531-102.0065c0 0 36.0221-2.8589 41.4541.1143 5.432 3.0305 19.384 101.7202 19.384 101.7202s-34.365 3.659-44.885.172z" fill="#83f2ca"/><path d="m167.573 90.7428c-2.402-1.8297-16.525-8.5767-26.931-7.7763-9.263.6862-20.756 5.7179-27.217 13.8944-4.574 5.8321.915 4.6311 2.115 12.2361l4.003 49.288 52.432 1.143 2.345-44.37c-1.716-11.264 1.143-18.3543-6.747-24.4152z" fill="#058a5e"/><path clip-rule="evenodd" d="m156.129 116.882c-10.824 3.251-20.082 3.684-33.381.033-.664-.202-.166 1.458-.467 2.018 14.142 4.001 23.424 2.756 32.539.287s17.024-7.391 19.262-9.538c.271-.216.265-.683.031-1.016-.234-.331-.64-.344-.849-.147-2.134 2.049-8.124 5.993-17.135 8.363z" fill="#0d6e4e" fill-rule="evenodd"/><path d="m264.944 155.354 22.871 19.727h-266.8511l22.8713-19.727z" fill="#fff"/><path d="m210.969 161.015c-.286 0-.571 0-.857-.057-.229 0-5.718-.572-11.379-1.43-9.777-1.429-18.468-4.974-21.385-8.234l-13.036-39.167c-1.944-3.945 7.033-17.2676 7.033-17.2676s5.089 8.5766 7.033 12.5216l15.895 35.165c3.717.801 11.264 1.887 17.497 2.516 4.403.457 3.259 15.953-.801 15.953z" fill="#058a5e"/><path d="m214.459 149.807s.4 7.548-1.658 9.606c0 0 2.001.972 4.231 1.659 2.23.686 20.241 2.287 20.241 2.287s.686-6.519-5.317-7.776c-6.004-1.316-12.637-6.404-17.497-5.776z" fill="#a27b4c"/><path d="m55.9039 143.747c-2.8589-3.545-7.0901-3.717-8.6339-2.059-1.4867 1.544-.1716 5.146.2287 6.29 1.7153 4.574 5.4319 7.033 7.4332 8.062" fill="#83f2ca"/><path d="m62.133 166.275c9.8347 0 17.7825-1.315 17.7825-2.973s-7.9478-2.973-17.7825-2.973c-9.8346 0-17.7824 1.315-17.7824 2.973s7.9478 2.973 17.7824 2.973z" fill="#15523e"/><path d="m62.133 165.246c9.8347 0 17.7825-1.315 17.7825-2.973 0-1.659-7.9478-2.974-17.7825-2.974-9.8346 0-17.7824 1.315-17.7824 2.974 0 1.658 7.9478 2.973 17.7824 2.973z" fill="#136c4f"/><path d="m53.1588 161.3c.0572.057.1143.115.1143.229.2288 2.287 17.0964 1.944 17.6682 0 2.1156-8.119.8004-24.587-.629-25.044-2.0584.4-5.3748.629-9.1485.629-2.8018 0-5.3748-.172-7.3761-.4l-.5717 2.401c-1.3723 7.605-1.4867 14.981-.0572 22.185z" fill="#83f2ca"/><path d="m256.426 169.82h-41.683l-.172-4.288h35.337z" fill="#bdbdbd"/><path d="m146.245 92.8588h-1.944c-2.516 0-4.517-2.0013-4.517-4.5171v-10.8067c0-1.1436.915-2.0584 2.059-2.0584h6.861c1.144 0 2.058.9148 2.058 2.0584v10.8067c-.057 2.4587-2.058 4.5171-4.517 4.5171z" fill="#a37b4c"/><path d="m139.723 77.9346 10.006.1143s-8.463 6.6327-10.006 5.5463z" fill="#231f20"/><path d="m121.426 44.6658s5.317 8.4624 4.917 12.5792c-.4 4.0597 3.488 2.23 3.488 2.23-.114-1.5439 1.429-3.9453 2.687-3.6595.915.1716 4.117-10.6351-.343-11.4356-4.402-.9149-10.749.2859-10.749.2859z" fill="#231f20"/><path d="m144.472 78.8014h-5.832c-6.69 0-10.407-5.432-10.407-12.0646v-15.5525c0-6.6899 3.717-12.0647 10.407-12.0647h7.89c6.69 0 12.065 5.432 12.065 12.0647v13.4369c0 7.8334-6.29 14.1802-14.123 14.1802z" fill="#ad8556"/><path d="m161.048 65.0212c2.288 0 4.117-2.0584 4.117-4.6315 0-2.573-1.829-4.6314-4.117-4.6314-2.287 0-4.116 2.0584-4.116 4.6314.057 2.5159 1.887 4.6315 4.116 4.6315z" fill="#ad8556"/><path d="m128.174 62.9621c2.288 0 4.117-2.0584 4.117-4.6314 0-2.5731-1.829-4.6315-4.117-4.6315-2.287 0-4.116 2.0584-4.116 4.6315.057 2.5158 1.887 4.6314 4.116 4.6314z" fill="#ad8556"/><g fill="#231f20"><path d="m118.625 37.6898c-.286-2.4586-.686-6.2896 1.887-8.0049 2.401-1.6582 6.175-.8005 7.719 1.2007 1.372 1.7726.8 4.2312 1.201 4.2884.629.0572.228-6.1181 3.716-8.6911 2.173-1.601 5.832-1.7725 7.319-.1144 2.516 2.6874.4 5.4892.972 5.7179.629.2287 1.315-5.3176 7.262-6.9186 3.774-1.0292 8.577 1.3723 8.805 3.7166.343 3.4879-9.491 7.6619-9.606 7.4903-.114-.1715 6.004-5.775 11.322-4.4027 2.23.5718 4.231 2.2871 4.917 4.5171 1.144 3.5451-.972 7.6619-3.717 8.8055-1.658.6861-2.23-.1716-6.232-.4003-3.374-.1715-6.004.2859-8.806.8005-4.231.7433-4.574 1.3723-7.661 2.0013-3.603.7433-11.207 2.2299-15.724-2.0013-2.802-2.6302-3.202-6.4611-3.374-8.005z"/><path d="m150.305 44.9426s5.317 8.4624 4.917 12.5793c-.4 4.0596 3.488 2.2299 3.488 2.2299-.114-1.5438 1.429-3.9453 2.687-3.6594.915.1715 4.117-10.6352-.343-11.4357-4.46-.9148-10.749.2859-10.749.2859z"/><path clip-rule="evenodd" d="m135.266 56.0352c-.572-.1144-1.544-.2287-3.031-.1715-1.086.0571-1.772.343-2.173.5717-.228.1144-.343.2288-.4.2859-.057.0572-.057.0572-.057.0572-.4.4003-1.029.4574-1.487.1144-.457-.4003-.514-1.0292-.114-1.4867l.8.6862c-.8-.6862-.8-.6862-.8-.6862l.057-.0571c.057-.0572.115-.1144.229-.1716.171-.1715.457-.343.743-.5146.686-.4002 1.716-.7433 3.088-.8005 1.601-.1143 2.744.0572 3.545.1716.4.0571.686.1715.858.2287.114.0571.171.0571.228.1143.057 0 .057 0 .057.0572 0 0 0 0-.514.9149l.514-.9149c.515.2859.687.9149.401 1.4295s-.915.6861-1.43.4002c0 0-.057 0-.114-.0572.057-.0571-.114-.1143-.4-.1715z" fill-rule="evenodd"/><path clip-rule="evenodd" d="m144.87 53.9764c.743-.1716 1.944-.2859 3.545-.1716 1.372.0572 2.401.4574 3.087.8005.343.1716.572.4003.744.5146.114.0572.171.1144.228.1716l.058.0571s0 0-.801.6862l.801-.6862c.4.4575.343 1.0864-.115 1.4867-.457.343-1.086.343-1.486-.1144l-.058-.0572c-.057-.0571-.228-.1715-.4-.2859-.4-.2287-1.143-.5146-2.173-.5717-1.486-.0572-2.458.0571-3.03.1715-.286.0572-.457.1144-.572.1715-.057 0-.057.0572-.114.0572-.515.2859-1.144.1144-1.43-.4002s-.114-1.1436.401-1.4295l.514.9149c-.514-.9149-.514-.9149-.514-.9149h.057s.057 0 .057-.0572c.057-.0572.171-.0571.229-.1143.343-.0572.629-.1716.972-.2287z" fill-rule="evenodd"/><path clip-rule="evenodd" d="m139.439 55.6347c.172.0572.286.2859.172.4574-1.43 3.6595-1.944 6.2325-2.116 7.7763-.057.3431-.057.7433-.057 1.0864.057.3431.114.5718.343.7433l-.229.2859.229-.2859c.172.1715.4.2287.686.2287s.629 0 .915-.1143c.629-.1716 1.201-.4003 1.258-.4575.171-.1143.4 0 .457.1716.115.1715 0 .4002-.171.4574-.115.0572-.744.3431-1.43.5146-.343.1144-.743.1715-1.143.1144-.4 0-.801-.1716-1.087-.4575-.343-.343-.514-.8005-.571-1.2007-.058-.4003 0-.8577.057-1.2008.171-1.6009.686-4.2312 2.173-7.9477.114-.1716.343-.2288.514-.1716z" fill-rule="evenodd"/></g><path d="m139.722 70.7875c.114.1144.8 2.5159 3.259 2.23 1.258-.1144 2.23-1.2008 1.887-3.2592z" fill="#fff"/><path d="m132.577 59.9802c.514 0 .972-.4574.972-.972s-.458-.9721-.972-.9721c-.515 0-.973.4575-.973.9721s.458.972.973.972z" fill="#231f20"/><path d="m147.159 59.9802c.514 0 .972-.4574.972-.972s-.458-.9721-.972-.9721c-.515 0-.972.4575-.972.9721s.4.972.972.972z" fill="#231f20"/><path clip-rule="evenodd" d="m154.307 87.941c.515.1715.8.8005.629 1.3151l-.972-.3431c.972.3431.972.3431.972.3431s0 .0572-.057.0572c0 .0571-.057.1143-.115.2287-.114.1715-.228.4574-.4.7433-.4.629-1.029 1.3723-1.944 2.1156-1.944 1.4866-5.032 2.6302-9.892 1.8297-3.145-.5146-5.26-1.4866-6.69-2.6302-.457-.3431-.514-.972-.171-1.4295.343-.4574.972-.5146 1.429-.1715 1.087.8577 2.859 1.7153 5.775 2.1728 4.346.7433 6.862-.3431 8.291-1.4295.743-.5718 1.201-1.1436 1.487-1.601.171-.2287.229-.4002.286-.5146.057-.0572.057-.1143.057-.1143zm0 0c-.515-.1716-1.086.1143-1.315.6289z" fill="#0d6e4e" fill-rule="evenodd"/><path d="m273.236 148.322h-103.95l14.752-66.4416h103.95z" fill="#bdbdbd"/><path d="m240.245 165.646h-12.35l-4.803-38.138h12.35z" fill="#939393"/><path d="m223.15 127.508-3.888 20.813 6.518-.057z" fill="#5b5b5b"/><path d="m206.965 163.474h-79.992v1.772h79.992z" fill="#68c8a5"/><path d="m200.104 157.527 6.861 5.946h-79.992l6.861-5.946z" fill="#83f2ca"/><path d="m121.658 154.325 8.52 1.144 11.321-3.145 5.775 1.43s1.429 3.087.515 4.517l-.858-.057s.858 2.744-.229 3.087c-1.086.343-.857 1.087-.857 1.087s.571 1.486-2.345 2.573c0 0 .629 2.916-1.143 2.63-1.773-.286-9.949-.057-13.666-1.944l-7.376-.972c-.057.114.057-7.891.343-10.35z" fill="#a27b4c"/><path d="m127.944 167.075c-1.258 0-39.9103-3.488-38.7668-8.348 3.1448-13.38 22.8138-59.637 22.8138-59.637 2.059-3.8881 5.833-2.8589 9.721-.8005 3.888 2.0585 5.374 6.8615 3.316 10.8065l-15.896 41.169 19.956 4.803c.057-.058-.744 8.119-1.144 12.007z" fill="#058a5e"/><path d="m287.815 175.138h-266.8511v43.57c8.2908 5.889 19.0404 9.606 32.2485 11.149 38.4811 4.575 74.8466 11.608 109.0966 21.042s68.842-3.602 103.721-39.167c9.549-9.72 16.811-19.841 21.728-30.362v-6.232z" fill="#fff"/><path clip-rule="evenodd" d="m11.7588 175.138c0-.286.2287-.515.5146-.515h255.6446c.286 0 .514.229.514.515s-.228.514-.514.514h-255.6446c-.2859 0-.5146-.228-.5146-.514z" fill="#83f2ca" fill-rule="evenodd"/><path clip-rule="evenodd" d="m59.9092 202.927c0-.286.2287-.515.5146-.515h239.0622c.286 0 .515.229.515.515s-.229.514-.515.514h-239.0622c-.2859 0-.5146-.228-.5146-.514z" fill="#83f2ca" fill-rule="evenodd"/><path d="m227 46h10v16h-10z" fill="#69bd9f"/><path clip-rule="evenodd" d="m238.69 39.2424h-15.396v-6.9671c0-.3318 0-.6635.056-.9953.172-1.4754.725-2.8344 1.552-3.9839 1.438-1.0368 3.198-1.6467 5.07-1.6467 4.423 0 8.118 3.2624 8.622 7.5753.056.3318.056.6635.056.9953zm-5.262 16.3202v-.3955c.098-.0359.194-.0757.289-.1193.238-.5027.379-1.059.398-1.6407 0-2.2118-1.848-3.9812-4.087-3.9812-.622 0-1.213.1363-1.743.3806-.221.4889-.344 1.03-.344 1.6006 0 1.7141 1.12 3.207 2.687 3.76v3.1517c0 .5608.324 1.0346.8 1.2531v-2.4048c.358-.1311.694-.315 1-.5421v-.4579c.325-.1192.633-.2819.915-.4811.029-.0406.057-.0818.085-.1234zm10.973-16.3202h3.304c1.287 0 2.295 1.0505 2.295 2.3223v23.1682c0 .8573-.5 1.6322-1.247 2.0151-.218.4247-.567.7781-1 1-.375.7319-1.142 1.252-2.048 1.252h-31.41c-1.231 0-2.295-.9953-2.295-2.2671v-23.1682c0-.9011.506-1.6912 1.259-2.0752.221-.4291.57-.7807 1-.9999.38-.7383 1.14-1.2472 2.036-1.2472h1.304v-4.9671c0-.4424 0-.94.056-1.3824.36-3.0911 1.844-5.7898 4.017-7.7277.314-.3523.648-.6861 1-1 2.294-2.5734 5.652-4.1652 9.356-4.1652 6.271 0 11.589 4.6447 12.317 10.8376 0 .2489.014.4839.028.7189s.028.47.028.7188z" fill="#68c8a5" fill-rule="evenodd"/><path d="m241.706 38.2424h-17.412v-6.9671c0-.3318 0-.6635.056-.9953.504-4.3129 4.255-7.6306 8.622-7.6306 4.423 0 8.118 3.2624 8.622 7.5753.056.3318.056.6635.056.9953zm-7.278 15.9247v3.1517c0 .7741-.616 1.3824-1.4 1.3824s-1.4-.6083-1.4-1.3824v-3.1517c-1.567-.553-2.687-2.0459-2.687-3.76 0-2.2118 1.847-3.9812 4.087-3.9812 2.239 0 4.087 1.7694 4.087 3.9812-.056 1.7141-1.176 3.207-2.687 3.76zm14.277-15.9247h-3.304v-6.9671c0-.4977-.056-.94-.056-1.4377-.728-6.1929-6.046-10.8376-12.317-10.8376-6.327 0-11.645 4.6447-12.373 10.8929-.056.4424-.056.94-.056 1.3824v6.9671h-3.304c-1.287 0-2.295 1.0505-2.295 2.3223v23.1682c0 1.2718 1.064 2.2671 2.295 2.2671h31.41c1.287 0 2.295-1.0506 2.295-2.2671v-23.1682c0-1.2718-1.008-2.3223-2.295-2.3223z" fill="#83f2ca"/></svg>