<svg fill="none" height="249" viewBox="0 0 300 249" width="300" xmlns="http://www.w3.org/2000/svg"><path d="m272.309 145.858c-3.278 55.156-28.143 87.255-74.653 96.467-46.51 9.155-85.899 7.516-118.1672-5.03-32.2686-12.489-56.6819-40.802-73.12701-84.881-16.44509-44.08-1.01723-77.9873 46.39661-101.8355 47.4136-23.8482 96.6926-27.691 147.7796-11.585s75.049 51.7653 71.771 106.8645z" fill="#eee"/><path d="m166.462 191.181h-114.4945c-3.6167 0-6.5554-2.939-6.5554-6.555v-75.557c0-3.617 2.9387-6.556 6.5554-6.556h114.4945c3.616 0 6.555 2.939 6.555 6.556v75.5c0 3.73-2.939 6.612-6.555 6.612z" fill="#058a5e"/><g fill="#eee"><path d="m160.81 125.062h-102.6833c-1.9779 0-3.5603-1.582-3.5603-3.56s1.5824-3.561 3.5603-3.561h102.6833c1.978 0 3.56 1.583 3.56 3.561 0 1.921-1.639 3.56-3.56 3.56z"/><path d="m57.1658 113.251c-1.4693 0-2.656-1.187-2.656-2.656 0-1.47 1.1867-2.657 2.656-2.657 1.4694 0 2.6561 1.187 2.6561 2.657-.0565 1.469-1.1867 2.656-2.6561 2.656z"/><path d="m65.1903 113.251c-1.4694 0-2.6561-1.187-2.6561-2.656 0-1.47 1.1867-2.657 2.6561-2.657 1.4693 0 2.656 1.187 2.656 2.657-.0565 1.469-1.2432 2.656-2.656 2.656z"/><path d="m73.16 113.251c-1.4693 0-2.6561-1.187-2.6561-2.656 0-1.47 1.1868-2.657 2.6561-2.657s2.6561 1.187 2.6561 2.657c0 1.469-1.1868 2.656-2.6561 2.656z"/></g><path d="m89.8306 167.107h-26.9564c-2.8256 0-5.0861-2.26-5.0861-5.086v-22.266c0-2.826 2.2605-5.086 5.0861-5.086h26.9564c2.8256 0 5.0861 2.26 5.0861 5.086v22.266c0 2.769-2.2605 5.086-5.0861 5.086z" stroke="#eee" stroke-miterlimit="10"/><path d="m99.2681 175.132h-26.9564c-2.8256 0-5.0861-2.261-5.0861-5.086v-22.266c0-2.826 2.2605-5.086 5.0861-5.086h26.9564c2.8259 0 5.0859 2.26 5.0859 5.086v22.266c0 2.769-2.317 5.086-5.0859 5.086z" stroke="#eee" stroke-miterlimit="10"/><path d="m157.42 173.776h-34.586c-.226 0-.396-.17-.396-.396s.17-.396.396-.396h34.586c.226 0 .395.17.395.396-.056.226-.226.396-.395.396z" fill="#eee"/><path d="m157.419 165.016h-24.244c-.226 0-.396-.169-.396-.395s.17-.396.396-.396h24.244c.226 0 .395.17.395.396-.056.226-.226.395-.395.395z" fill="#eee"/><path d="m268.579 147.384-31.647-13.45-10.285 31.252-20.345-26.505-25.543 22.323-3.674-32.551-58.377 27.804 38.881-50.353-33.456-9.6635 28.2-19.1577-23.792-24.0177 34.868-3.2212-7.855-32.0425 31.817 13.4499 10.059-31.2513 20.344 26.5043 25.6-22.32239 3.617 32.55109 33.851-7.3466-14.298 29.8951 33.456 9.6636-28.2 19.1577 23.735 24.0742-34.811 3.165z" fill="#83f2ca"/><path d="m192.231 96.3534c-6.33-9.494-5.256-22.4354 3.108-30.8557 8.364-8.3638 21.305-9.4376 30.856-3.1082zm37.75 3.8426c-8.364 8.364-21.305 9.438-30.856 3.108l33.964-33.9635c6.33 9.5506 5.256 22.4919-3.108 30.8555zm-41.593-41.5928c-13.394 13.3934-13.394 35.0941 0 48.4878 13.393 13.393 35.094 13.393 48.487 0 13.394-13.3937 13.394-35.0944 0-48.4878-13.393-13.3935-35.094-13.3935-48.487 0z" fill="#fff"/></svg>