<svg fill="none" height="20" viewBox="0 0 228 20" width="228" xmlns="http://www.w3.org/2000/svg"><g fill="#fff"><path d="m89.7768 7.10767h-.8414l-.3944 2.43646h.9816c.9641 0 1.5338-.41192 1.5338-1.37599 0-.7099-.4295-1.06047-1.2796-1.06047z"/><path d="m160.715 7.04651c-1.797-.01753-2.699 1.86678-2.699 3.80369 0 1.3146.648 2.2612 2.05 2.2612 1.832 0 2.674-1.8668 2.674-3.74237-.009-1.27958-.588-2.28746-2.025-2.32252z"/><path d="m79.4364 7.06396h-.6924l-.3944 2.57669h.8239c1.0078 0 1.5775-.51709 1.5775-1.51621-.0088-.68361-.4294-1.06048-1.3146-1.06048z"/><path d="m56.0176 11.4023h2.2261l-.4557-4.08418z"/><path d="m114.029 11.4023h2.226l-.455-4.08418z"/><path d="m225.772 0h-221.88403c-.62226 0-1.14811.455741-1.24452 1.06924l-2.6292735 17.48466c-.1139352.7625.4732685 1.4461 1.2445235 1.4461h221.8753c.622 0 1.148-.4557 1.245-1.0692l2.638-17.4847c.105-.762489-.482-1.4461-1.245-1.4461zm-210.9112 15.9246c-3.4268 0-5.70552-1.7178-5.70552-5.0394 0-3.82122 2.68182-6.63454 6.49432-6.61701 2.7169 0 5.0044 1.18317 5.1534 4.25065h-3.5583c-.0789-.92901-.5872-1.43733-1.7353-1.43733-1.7354 0-2.6381 1.79667-2.6381 3.77739 0 1.4724.6661 2.3576 2.1297 2.3576 1.2971 0 1.8668-.631 2.0509-1.4374h-1.8931l.3768-2.35754h5.3901c-.263 4.38214-2.0509 6.50304-6.0649 6.50304zm13.8387-.2015h-7.695l.4821-3.0412c.3067-.9115.4908-1.972.5696-3.19899l.0351-.63979.7011-4.41718h3.5846l-1.3409 8.52766h4.1104zm5.5566.2015c-1.6565 0-3.1727-.5346-4.1981-1.56l.2016-1.2358.2103-1.3058h-1.3234-.333c-.0438-.2717-.0614-.5522-.0614-.8502 0-3.96141 2.6731-6.73091 6.5206-6.73091 3.0938 0 5.6354 1.6915 5.6354 4.99562 0 3.97019-2.6555 6.68709-6.652 6.68709zm12.7344-.2015h-5.6091l1.7879-11.29716h4.8203c2.6731 0 3.6635 1.21823 3.6635 2.77827 0 1.48115-.9466 2.4014-2.2086 2.68186 1.1218.23663 1.9632.99913 1.9632 2.35753-.0175 2.0859-1.7353 3.4795-4.4172 3.4795zm11.7441 0-.2191-1.8756h-3.5583l-.8063 1.8756h-3.3479c.035-.0263.0613-.0439.0964-.0702 1.0429-.8326 1.6213-2.042 1.6213-3.4005 0-.0964 0-.1928-.0087-.2892l3.567-7.52849h4.61l1.7529 11.29709h-3.7073zm12.1209 0h-7.2655l-.0263-.1753-.1841-1.1832 1.5688-9.93866h3.5846l-1.3409 8.52766h4.1104zm8.4663-3.681h-1.3409l-.5872 3.681h-3.5846l1.7879-11.29716h4.2331c2.8133 0 4.2945 1.27958 4.312 3.28659 0 2.81337-1.8668 4.32957-4.8203 4.32957zm14.7327 3.681h-3.6196l-1.674-3.8738h-.5872l-.6048 3.8738h-3.567l1.7879-11.29716h4.4698c2.8922 0 4.2769 1.26205 4.2769 3.26907 0 1.84925-1.0429 3.01489-2.5153 3.42679zm4.1367 0h-2.9009l-.2016-.4558-.3243-.745 1.5951-10.09636h3.6196zm4.2068 0-1.595-9.28138.289-1.83173.026-.17528h3.077l.902 7.56349 3.305-7.56349h3.488l-5.452 11.29709h-4.04zm14.347 0-.219-1.8844h-3.558l-.807 1.8844h-3.426l5.355-11.29716h4.61l1.752 11.29716zm9.536-2.6293c.999 0 1.717-.5522 2.024-1.709h3.558c-.438 3.0324-2.795 4.5311-5.609 4.5311-2.331 0-4.101-.7976-4.978-2.3664l-.561-3.58456c.368-3.38299 2.665-5.71428 6.311-5.71428 3.067 0 4.995 1.47239 5.1 4.45223h-3.602c-.096-1.06047-.552-1.65644-1.595-1.65644-1.691 0-2.515 1.73532-2.524 3.74235-.026 1.2796.482 2.305 1.876 2.305zm11.542-2.0158-.727 4.6451h-3.602l.745-4.8379-1-2.454c-.096-1.45486-.596-2.68186-1.454-3.57581l-.176-.42945h3.716l1.219 3.48817 2.261-3.48817h3.567zm10.544 2.0158c.999 0 1.717-.5522 2.024-1.709h3.558c-.438 3.0324-2.795 4.5311-5.609 4.5311-3.383 0-5.591-1.674-5.591-4.9781 0-3.90011 2.366-6.69591 6.362-6.69591 3.068 0 4.996 1.4724 5.101 4.45224h-3.602c-.096-1.06048-.552-1.65644-1.595-1.65644-1.691 0-2.515 1.73532-2.524 3.74231-.018 1.2884.491 2.3138 1.876 2.3138zm11.446 2.8308c-2.262 0-4.251-.9903-5.092-2.8571.447-1.078.701-2.3225.701-3.6547 0-.71867-.079-1.41981-.219-2.07713 1.095-1.9106 3.102-3.08501 5.617-3.08501 3.094 0 5.636 1.6915 5.636 4.99562.009 3.96142-2.647 6.67832-6.643 6.67832zm16.897-.2015h-3.427l-2.699-6.6784-1.043 6.6784h-3.19l.438-2.7695c.526-1.0868.806-2.3401.806-3.70732 0-.32428-.026-.64856-.061-.95531l.613-3.86503h4.032l2.226 5.88076.929-5.88076h3.173zm6.898 0h-3.603l1.341-8.54519h-2.138l.403-2.57668.026-.17529h7.914l-.438 2.75197h-2.173zm13.347 0h-3.619l-1.674-3.8738h-.587l-.596 3.8738h-3.567l1.788-11.29716h4.469c2.892 0 4.277 1.26205 4.277 3.26907 0 1.84925-1.043 3.01489-2.515 3.42679zm6.346.2015c-2.989 0-5.513-1.7178-5.513-4.943 0-.1841.009-.3681.018-.5522.508-.76244.78-1.69145.78-2.71687 0-.05258 0-.10517 0-.15775 1.06-2.04207 3.128-3.30412 5.731-3.30412 3.094 0 5.636 1.6915 5.636 4.99562 0 3.96142-2.656 6.67832-6.652 6.67832zm14.119-.2015h-7.695l.386-2.4628c.631-1.1656.964-2.5241.964-4.01402 0-.45574-.044-.88519-.123-1.29711l.552-3.51446h3.585l-1.341 8.52759h4.11z"/><path d="m46.587 10.9641h-.9816l-.3769 2.4014h1.2007c.9466 0 1.4987-.5521 1.4987-1.3409.0088-.7012-.4032-1.0605-1.3409-1.0605z"/><path d="m204.194 7.04651c-1.797-.01753-2.7 1.86678-2.7 3.80369 0 1.3146.649 2.2612 2.051 2.2612 1.832 0 2.673-1.8668 2.673-3.74237 0-1.27958-.587-2.28746-2.024-2.32252z"/><path d="m192.679 7.10767h-.841l-.395 2.43646h.982c.964 0 1.534-.41192 1.534-1.37599 0-.7099-.43-1.06047-1.28-1.06047z"/><path d="m35.1584 7.04651c-1.7967-.01753-2.6994 1.86678-2.6994 3.80369 0 1.3146.6485 2.2612 2.0508 2.2612 1.8317 0 2.6731-1.8668 2.6731-3.74237 0-1.27958-.5872-2.28746-2.0245-2.32252z"/><path d="m47.2716 6.76587h-.9991l-.333 2.06836h1.1218c.9027 0 1.3234-.41192 1.3234-1.15688.0087-.64855-.3681-.91148-1.1131-.91148z"/></g></svg>