<svg fill="none" height="412" viewBox="0 0 462 412" width="462" xmlns="http://www.w3.org/2000/svg"><path d="m182.469 204.218-5.636 4.719-35.786-168.0488 8.258-.6555c2.884-.131 5.506 1.8352 6.03 4.588l29.756 151.9253c.524 2.753-.524 5.637-2.622 7.472z" fill="#fff"/><path d="m247.867 213.263s-17.434-14.288-22.677-13.895c-5.244.394-23.595 19.27-21.629 25.168 1.966 5.899 9.045 5.899 9.045 5.899 3.539 0 6.816-1.966 8.52-4.981 1.966-3.67 4.85-7.865 6.816-6.685 3.408 2.097.525 11.666 2.884 11.666 2.36 0 17.041-4.588 17.041-4.588z" fill="#b08667"/><path d="m359.12 157.553-19.793 48.894c-1.835 5.636-9.569 16.778-15.599 15.992l-71.572-6.554" stroke="#d2d2d2" stroke-linecap="round" stroke-miterlimit="5" stroke-width="26.4813"/><path d="m348.501 131.205c.656-5.244.918-9.831.525-11.667-.918-3.932-9.963-3.277-14.551-2.621-1.573.262-2.752.393-2.752.393l1.966-3.277 16.385-28.183 28.314-3.9325-8.651 17.8273c-2.491 12.5842 11.142 32.1152 11.142 32.1152l-35.655 20.711c0-.131 2.229-11.797 3.277-21.366z" fill="#c79775"/><path d="m362.266 107.872s-3.277 21.628-13.764 23.333c.655-5.244.917-9.832.524-11.667-.917-3.932-9.962-3.277-14.55-2.622l-.787-2.883 15.73-8.521z" fill="#7e4a21"/><path d="m317.304 82.5728c-.656 0-1.18-.3933-1.573-.9176-.394-.7865-.131-1.8352.786-2.3595l5.112-2.6217c.787-.3932 1.836-.1311 2.36.7865.393.7865.131 1.8352-.787 2.3595l-5.112 2.6217c-.262.1311-.524.1311-.786.1311z" fill="#383938"/><path d="m321.364 95.0254c-3.277 0-6.161-4.719-6.554-11.011-.131-2.8838.131-5.6365 1.049-7.865.917-2.3595 2.49-3.8014 4.194-3.9325 3.408-.2621 6.292 4.4569 6.686 11.0111.393 6.423-1.836 11.5353-5.375 11.7974.131 0 .131 0 0 0zm-.917-20.449c-.132 0-.132 0 0 0-.918 0-1.705 1.0487-2.36 2.4906-.786 1.8352-1.049 4.1947-.918 6.8164.263 5.2433 2.491 9.0447 4.326 8.9136 1.704-.1311 3.539-4.0636 3.146-9.3069-.393-5.1122-2.49-8.9137-4.194-8.9137z" fill="#7cd40b"/><path d="m328.836 52.4234s-3.146 15.5989 3.015 17.8274c6.161 2.2284 37.097-10.88 37.097-10.88l-31.46-9.569z" fill="#92826d"/><path d="m331.461 64.3525s-13.239 25.168-2.753 52.0405c.656 1.573 2.229 2.621 3.933 2.621 5.899-.131 22.677-3.67 31.46-10.355l2.228-8.652 12.846-19.9245s4.326-17.6963-10.224-20.7112c-14.419-3.0149-33.82-6.292-37.49 4.9812z" fill="#c79775"/><path d="m327.136 106.037c4.719.917 6.554-3.409 6.554-3.409" stroke="#383938" stroke-miterlimit="5" stroke-width=".8275"/><path d="m385.336 84.0148c3.277 9.9624-16.254 22.4152-20.187 12.9773-.262-.5243.394-2.3595 1.18-4.719 1.835-13.1084-9.569-11.6664-9.962-7.4718-.131 1.0487-3.015 9.1759-6.292 7.3407-2.098-1.1798-.918-4.3258-1.442-12.4529-3.408-2.6217-5.243-7.6028-6.292-12.0597-7.21-.9176-14.026-2.3595-16.123-3.8014-3.015-2.0973-9.963-11.7975-2.622-25.0369 6.292-11.4043 55.841 5.3744 56.628 17.9584 11.273-.6554 3.801 22.5463 4.719 26.3477.131.2622.262.5244.393.9176z" fill="#172a24"/><path d="m326.743 81.7866s-9.307 13.8949-8.913 15.8611c.393 1.9663 9.306.6554 9.306.6554" fill="#c79775"/><path d="m356.89 88.603s4.719-7.9961 7.209-1.9663c1.966 4.8501-2.228 13.5013-5.112 12.3219-2.884-1.1798 1.311-6.9475 1.311-6.9475" stroke="#383938" stroke-miterlimit="5" stroke-width=".8275"/><path d="m341.029 84.1459c-.262 0-.524 0-.786-.131l-6.292-3.2771c-.787-.3933-1.18-1.4419-.787-2.3595.393-.7865 1.442-1.1798 2.36-.7865l6.423 3.2771c.786.3932 1.179 1.4419.786 2.3595-.393.6554-1.049.9175-1.704.9175z" fill="#383938"/><path d="m335.13 99.4826c-4.194 0-7.734-4.8501-8.127-11.2732-.131-3.0149.393-6.0298 1.573-8.2582 1.311-2.3595 3.146-3.8014 5.374-3.9325 4.326-.2622 7.997 4.719 8.39 11.2731.393 6.5542-2.622 11.9286-6.948 12.1908-.131 0-.262 0-.262 0zm-.917-21.6288c-.131 0-.131 0-.263 0-1.441.1311-2.752 1.1798-3.801 3.015-1.049 1.9662-1.573 4.5879-1.442 7.2095.393 5.3745 3.277 9.7002 6.423 9.438 3.146-.131 5.506-4.85 5.112-10.2245-.131-5.1122-2.883-9.438-6.029-9.438z" fill="#7cd40b"/><path d="m334.213 89.1274c.917 0 1.704-.7865 1.704-1.7041s-.787-1.7041-1.704-1.7041c-.918 0-1.704.7865-1.704 1.7041s.786 1.7041 1.704 1.7041z" fill="#383938"/><path d="m320.84 86.899c.787 0 1.442-.6554 1.442-1.4419s-.655-1.442-1.442-1.442c-.786 0-1.442.6555-1.442 1.442s.656 1.4419 1.442 1.4419z" fill="#383938"/><path d="m359.116 88.9958s.918-1.1797 1.966-.6554" stroke="#383938" stroke-miterlimit="5" stroke-width=".8275"/><path d="m157.037 229.255h-5.768l-11.273-75.242 19.663-14.026v3.408l-13.895 12.978z" fill="#83f2ca"/><path d="m298.299 368.334 13.764 41.947s-65.149 1.573-66.197-.786c-1.049-2.491 30.018-15.206 48.894-13.895l-7.996-17.959z" fill="#888e8c"/><path clip-rule="evenodd" d="m225.022 268.711c-7.996-18.352 8.782-37.752 28.051-32.378l114.829 31.723c9.176 2.49 14.551 11.928 11.929 21.104-2.491 9.176-11.929 14.55-21.104 11.929l-92.545-25.562 39.98 85.467c4.064 8.651.262 18.876-8.258 22.808-8.652 4.064-18.876.262-22.809-8.258l-49.811-106.702z" fill="#3f524c" fill-rule="evenodd"/><path clip-rule="evenodd" d="m225.022 268.711c-7.996-18.352 8.782-37.752 28.051-32.378l114.829 31.723c9.176 2.49 14.551 11.928 11.929 21.104-2.491 9.176-11.929 14.55-21.104 11.929l-92.545-25.562 39.98 85.467c4.064 8.651.262 18.876-8.258 22.808-8.652 4.064-18.876.262-22.809-8.258l-49.811-106.702z" fill="#010101" fill-opacity=".15" fill-rule="evenodd"/><path d="m180.188 387.342-29.494 20.842s-4.457-5.112-10.618-12.584c-2.49-2.884-5.112-6.03-7.996-9.438-14.812-17.827-33.1637-40.111-32.5082-41.553.7862-2.098 34.0812 19.531 49.5492 33.95 2.622 2.36 4.588 4.588 6.03 6.423l13.502-10.355 4.719-3.671 1.31 3.146 2.229 5.375z" fill="#888e8c"/><path d="m177 378.874s-27.137 10.549-32.033 13.817c-4.896 3.12-4.967 2.809-4.967 2.809-2.658-3.269-5.562-6.137-8.5-10 5.036-4.754 8.485-7.771 14.5-10 2.798 2.674 6.461 5.92 8 8l13.628-11.906 6.434-.594z" fill="#010101" opacity=".2"/><path d="m369.344 252.719 36.31-3.67s11.143-66.328 0-89.006c-11.928-17.303-19.924-25.561-24.774-31.46-1.049-1.311-2.884-1.704-4.326-1.049l-32.115 14.289s-15.73 17.958-13.502 39.98 0 78.912 0 78.912z" fill="#888e8c"/><path d="m331.329 255.865s.131 0 .262-.131c.394-.131 1.049-.262 1.967-.393 1.835-.262 4.325-.525 7.602-.787 4.326-.393 9.832-.786 15.73-1.311 2.753-.262 5.506-.393 8.39-.655 9.044-.655 18.22-1.442 25.823-2.359 3.802-.394 7.079-.918 9.7-1.442 2.229-.394 4.064-.918 5.244-1.442v.131c0 .393.131.786.131 1.442 0 1.311 0 3.146-.263 5.243-.393 4.326-1.179 10.093-2.621 16.123-1.311 6.03-3.277 12.322-5.637 17.697-2.49 5.374-5.505 9.7-9.044 12.059-4.851 1.835-10.88 1.573-17.172.131s-12.978-4.063-18.876-7.078c-6.03-2.884-11.274-6.03-15.206-8.521-1.966-1.179-3.539-2.228-4.588-3.015-.524-.393-.918-.655-1.18-.786-.131 0-.131-.131-.262-.131z" fill="#172a24"/><path clip-rule="evenodd" d="m250.714 276.052c6.423-6.816 15.468-10.749 24.906-10.749h101.721c10.748 0 19.4 8.652 19.4 19.401 0 10.748-8.652 19.4-19.4 19.4h-99.624l-79.829 84.811c-7.341 7.865-19.663 8.258-27.528.786-7.865-7.34-8.258-19.662-.786-27.527z" fill="#1d82e6" fill-rule="evenodd"/><path clip-rule="evenodd" d="m250.714 276.052c6.423-6.816 15.468-10.749 24.906-10.749h101.721c10.748 0 19.4 8.652 19.4 19.401 0 10.748-8.652 19.4-19.4 19.4h-99.624l-79.829 84.811c-7.341 7.865-19.663 8.258-27.528.786-7.865-7.34-8.258-19.662-.786-27.527z" fill="#172b24" fill-rule="evenodd"/><path clip-rule="evenodd" d="m382.713 404.645-1.442 6.947-.524-.131h-49.287c-1.835 0-3.408-1.573-3.408-3.408s1.573-3.408 3.408-3.408h44.175l19.4-92.939h-101.196c-1.835 0-3.408-1.572-3.408-3.408 0-1.835 1.573-3.408 3.408-3.408h102.638l7.341-35.523h-85.86c-3.801 0-6.816-3.015-6.816-6.817 0-3.801 3.015-6.816 6.816-6.816h88.612l23.071-110.897c.393-1.835 2.229-3.014 4.064-2.621s3.015 2.228 2.621 4.063z" fill="#fff" fill-rule="evenodd"/><g fill="#83f2ca"><path d="m197.022 234.105h-67.639v-9.438c0-1.442 1.311-2.49 2.621-2.228l63.183 9.438c1.048.131 1.835 1.179 1.835 2.228z"/><path d="m174.343 210.248c-2.884.525-5.637-1.311-6.161-4.194l-31.198-159.0045c-.525-2.8838 1.311-5.6366 4.194-6.1609 2.884-.5243 5.637 1.3108 6.161 4.1947l31.067 159.0037c.656 2.753-1.311 5.637-4.063 6.161z"/><path d="m242.581 231.435h-48.37v3.277h48.37z"/></g><path d="m262.283 209.461s-17.434-14.288-22.678-13.894c-5.243.393-28.838 26.872-26.872 32.77 1.967 5.899 9.7 2.098 9.7 2.098 3.54 0 9.963-1.704 11.667-4.85 1.966-3.671 11.404 4.85 13.764 4.85 4.719 0 14.419-8.521 14.419-8.521z" fill="#c79775"/><path d="m377.341 167.253-18.089 54.268c-1.836 5.637-9.569 16.779-15.599 15.993l-81.403-19.27" stroke="#b1b1b1" stroke-linecap="round" stroke-miterlimit="5" stroke-width="26.4813"/><path d="m238 409.163c0 1.547-1.305 2.837-2.871 2.837-49.844-.129-86.639-.645-93.685-1.161-3.001-.258-5.48-1.16-7.307-2.708-4.437-3.74-4.698-10.445-4.306-13.412 1.174-8.124 11.091-11.606 21.529-15.217 5.089-1.805 10.439-3.611 15.136-6.061 22.573-11.735 40.188-40.235 36.274-58.547-3.132-14.702-20.355-23.6-37.057-31.982-16.962-8.641-43.45-16.765-41.623-30.95.522-3.74 1.826-7.48 4.175-10.962h25.444c-3.393 3.224-6.785 6.835-7.829 11.477-1.696 7.351 6.785 17.41 22.443 25.534 16.962 8.641 36.274 18.441 40.058 35.851 2.218 10.575-1.044 23.471-9.264 36.367-7.699 12.122-18.659 22.438-30.011 28.371-5.089 2.708-10.569 4.513-15.919 6.448-8.742 3.095-16.963 5.932-17.745 10.703-.261 1.806 0 6.319 2.348 8.382.914.774 2.218 1.161 4.045 1.29 6.916.516 43.45.903 93.164 1.161 1.696-.258 3.001 1.031 3.001 2.579z" fill="#83f2ca"/><path d="m284.532 234.105h-186.532v6.817h186.532z" fill="#fff"/><path clip-rule="evenodd" d="m423.74 91.501-8.389 34.082-13.371-3.277 15.337-62.265c.918-3.6703 4.588-5.8987 8.258-4.9811 3.671.9175 5.899 4.5879 4.982 8.2582l-6.423 25.9545 11.273 1.573-14.157 63.9684c-.131.656-.787 1.049-1.311.918-.656-.131-1.049-.787-.918-1.311l13.633-61.4781z" fill="#fff" fill-rule="evenodd"/><path d="m375.5 322.849h11.405l-13.895 62.657" stroke="#fff" stroke-linecap="round" stroke-miterlimit="5" stroke-width=".672"/><path clip-rule="evenodd" d="m53.2154.774347c-32.6165 4.211543-56.07212 30.359653-52.449974 58.411453 3.622144 28.0518 32.950374 47.3842 65.505274 43.3492 6.6395-.857 14.9414-3.8697 14.9414-3.8697 2.0935-.7766 5.3223-.6029 7.3089.4062l6.6773 3.3565 15.7887 7.918c2.61 1.266 3.975.077 3.113-2.68l-5.404-17.0215s-.589-1.949-1.304-4.2193c-.726-2.3532.235-6.0211 2.052-8.2809 0 0 .579-.7496 2.187-3.3199 5.817-9.1889 8.566-19.9222 7.151-30.8773-3.622-28.0519-33.0331-47.37358-65.5666-43.172753zm-4.8255 38.576253c-6.0981 6.1393-6.881 15.5748-2.2662 22.4969l24.7631-24.763c-6.9634-4.6148-16.3989-3.8319-22.4969 2.2661zm2.7606 27.5649c6.9633 4.6148 16.3988 3.8319 22.4969-2.2661 6.098-6.0981 6.8809-15.5336 2.2662-22.4969zm-7.8286 2.7606c-9.7652-9.7651-9.7652-25.5871 0-35.3522 9.7651-9.7652 25.5871-9.7652 35.3523 0 9.7651 9.7651 9.7651 25.5871 0 35.3522-9.7652 9.7652-25.5872 9.7652-35.3523 0z" fill="#fff" fill-rule="evenodd"/><rect fill="#364641" height="7" opacity=".8" rx="3.5" width="60" x="402" y="405"/><rect fill="#364641" height="7" opacity=".8" rx="3.5" width="105" x="12" y="405"/></svg>