<svg fill="none" height="250" viewBox="0 0 280 250" width="280" xmlns="http://www.w3.org/2000/svg"><path d="m28.1956 200.462c33.0134 33.663 65.7562 46.003 98.1744 37.073 32.418-8.93 66.838-15.641 103.261-19.971 36.423-4.329 53.093-26.086 50.008-65.269s-17.914-76.4177-44.433-111.65c-26.519-35.23238-63.483-47.5177-110.676-37.01835-47.1931 10.49935-83.3455 37.50535-108.3491 81.07225-25.00362 43.5671-21.05285 82.1001 12.0147 115.7631z" fill="#eee"/><circle cx="130.277" cy="87.3697" r="50.8053" stroke="#31765f" stroke-opacity=".2" stroke-width="8"/><circle cx="130.667" cy="87.7603" r="69.4776" stroke="#136b4e" stroke-opacity=".1" stroke-width="4"/><path d="m149.68 99.3723h-100.9243c-8.0294 0-14.453-6.4853-14.453-14.453 0-8.0294 6.4853-14.453 14.453-14.453h100.9243c8.029 0 14.453 6.4853 14.453 14.453.061 7.9059-6.486 14.453-14.453 14.453z" fill="#83f2ca"/><path d="m159.378 84.7957c0 3.2117-1.297 5.9911-3.335 8.0912-2.1 2.1-4.88 3.3353-8.092 3.3353h-39.838c-6.3 0-11.4265-5.0648-11.4265-11.4265 0-3.2118 1.2971-5.9912 3.3355-8.0913 2.1-2.1 4.879-3.3353 8.091-3.3353h39.838c6.239.0618 11.427 5.1883 11.427 11.4266z" fill="#fff"/><path d="m145.727 92.826c0 1.1735-.062 2.347-.37 3.4588h-28.659c-.247-1.1118-.371-2.2853-.371-3.4588 0-8.153 6.609-14.7001 14.7-14.7001 8.153-.0618 14.7 6.6089 14.7 14.7001z" fill="#010101" opacity=".3"/><path d="m268.701 211.291-16.306-32.55 2.1-1.112c6.115-3.088 8.524-10.438 5.559-16.553l-22.668-45.15c-3.088-6.115-10.438-8.524-16.553-5.559l-43.915 21.988-23.841-47.6205c-3.706-7.4736-12.724-10.4383-20.197-6.7324-7.474 3.7059-10.377 12.7236-6.671 20.1971l31.562 62.9998 2.718 5.374-10.747-5.991c-6.733-3.706-15.071-1.297-18.839 5.373l-1.173 2.1c-3.706 6.733-1.297 15.071 5.373 18.839l51.574 28.659c1.359.803 2.903 1.297 4.385 1.544l13.28 26.435c2.717 5.435 9.265 7.659 14.7 4.879l44.903-22.482c5.188-2.656 7.35-9.265 4.756-14.638z" fill="#b78e5d"/><g fill="#825f35"><path d="m228.242 228.585c-.555 0-1.111-.247-1.544-.926-.741-.927-1.112-2.286-.37-3.088l28.659-34.28c0-.185-.186-.556-.371-.741l-42.124 21.123c-.432.186-.988 0-1.173-.37-.186-.433 0-.988.37-1.174l42.371-21.185c.556-.247 1.359-.247 2.1.618.618.802.988 2.1.247 2.903l-28.659 34.341c0 .185.247.741.556.988l43.359-21.741c.432-.186.988 0 1.174.37.185.433 0 .989-.371 1.174l-43.544 21.803c-.247.185-.433.185-.68.185z"/><path d="m144.739 105.117c-.37 0-.617 0-.803-.062-.741-.062-2.717-.433-10.191-16.5532-.556-1.1117-.556-2.2853-.061-3.4588.432-1.1118 1.297-1.9765 2.347-2.4706l8.832-3.7059c2.1-.9265 4.571 0 5.621 1.9765l7.473 14.5765c1.112 2.1618.371 4.8795-1.729 6.1765-3.459 2.038-8.771 3.521-11.489 3.521zm-8.091-20.8152c-.617.2471-1.173.8029-1.359 1.4824-.247.6176-.185 1.3588.062 1.9764 5.435 11.7354 8.153 15.2564 8.894 15.5644 1.73.247 7.536-1.111 10.933-3.088 1.297-.8028 1.729-2.4704 1.111-3.7057l-7.473-14.6383c-.618-1.1736-1.977-1.7294-3.274-1.1736z"/></g></svg>