<svg fill="none" height="520" viewBox="0 0 540 520" width="540" xmlns="http://www.w3.org/2000/svg"><path d="m154.603 315.96c0 5.153 3.865 9.018 9.018 11.595 5.153 1.288 10.307 0 14.172-2.577 24.479-23.19 56.688-34.785 94.05-34.785 30.921 0 57.976 7.73 79.878 23.19 1.289 1.288 5.154 1.288 9.019 1.288s6.441-2.576 9.018-5.153 2.577-6.442 2.577-10.307c-1.288-3.865-2.577-6.442-6.442-9.018-27.055-18.037-59.264-27.056-95.338-27.056-43.804 0-82.455 12.884-112.087 42.516-2.577 2.577-3.865 6.442-3.865 10.307z" fill="#9ce6d1" fill-opacity=".2"/><path d="m81.1659 241.235c-2.5768 2.577-3.8651 6.442-3.8651 10.307 0 5.153 3.8651 9.018 9.0185 11.595 5.1534 1.288 10.3068 0 14.1717-2.577 42.516-42.516 105.646-74.724 170.063-74.724 57.976 0 115.953 25.767 158.468 61.841 2.577 2.576 6.442 3.865 9.019 3.865 3.865 0 6.442-1.289 9.018-5.154 2.577-3.865 3.865-6.441 3.865-9.018 0-3.865-2.576-6.442-5.153-9.019-46.381-39.939-109.51-68.283-175.217-68.283-72.148 0-140.431 34.786-189.3881 81.167z" fill="#9ce6d1" fill-opacity=".2"/><path d="m3.86507 162.645c-2.57671 3.865-3.86507 7.73-3.86507 11.596 0 5.153 3.86507 9.018 7.73014 11.595 3.86506 2.576 10.30686 0 14.17196-2.577 64.4178-59.264 154.6029-100.4919 248.6529-100.4919s184.235 41.2279 248.653 100.4919c5.153 5.153 14.172 3.865 18.037-1.288 3.865-5.154 3.865-14.172-1.288-18.037-68.283-63.13-163.622-106.934-265.402-106.934s-197.1186 43.804-266.68993 105.645z" fill="#9ce6d1" fill-opacity=".2"/><path clip-rule="evenodd" d="m399.873 372.457c-4.898-8.015-16.475-8.015-21.374 0-.034.057-.108.074-.163.04-.057-.034-.075-.108-.04-.164 4.991-8.167 16.789-8.167 21.78 0 4.899 8.015 16.476 8.015 21.374 0 4.992-8.167 16.79-8.167 21.781 0 4.899 8.015 16.476 8.015 21.374 0 4.992-8.167 16.79-8.167 21.781 0 2.417 3.944 6.424 5.916 10.496 5.979.066.002.118.056.117.122s-.055.118-.121.117c-4.148-.065-8.232-2.075-10.696-6.094-4.898-8.015-16.475-8.015-21.374 0-4.991 8.168-16.789 8.168-21.78 0-4.899-8.015-16.476-8.015-21.374 0-4.991 8.168-16.789 8.168-21.781 0z" fill="#f6f6f6" fill-rule="evenodd"/><path d="m414.769 505.742c13.917 13.486-99.432 13.707-163.511 13.707-68.048 0-87.743-13.231-124.547-32.019-36.8043-18.789 44.623-7.476 134.026 1.703 89.401 9.179 140.114 3.122 154.032 16.609z" fill="#000" fill-opacity=".1"/><path d="m181.539 379.186c3.082-1.478 9.054-2.184 13.421-1.478l1.156.193c4.303.642 5.331 2.441 2.248 3.917l-78.989 38.532c-3.082 1.476-9.054 2.183-13.356 1.476l-1.157-.192c-4.302-.642-5.33-2.44-2.247-3.918z" fill="#fff"/><path d="m168.565 369.939c7.064-1.028 15.028-1.22 21.514-.193l260.533 40.201c6.486 1.027 10.146 2.954 10.531 5.137-.835-1.22-3.21-2.312-7.064-2.89l-272.862-42.063c-3.789-.642-8.349-.642-12.652-.192z" fill="#69bd9f"/><path d="m74.1012 422.34 272.8628 42.063c3.853.579 8.348.579 12.651.129-7.064 1.091-15.027 1.22-21.513.192l-260.5331-40.2c-6.486-1.028-10.1465-2.954-10.5318-5.138.8349 1.285 3.211 2.377 7.0641 2.954z" fill="#69bd9f"/><path d="m455.814 407.12-260.598-40.201c-15.604-2.375-37.246.065-48.291 5.459l-83.5483 40.779c-11.0455 5.394-7.3851 11.752 8.22 14.128l260.5333 40.136c15.605 2.376 37.246-.064 48.356-5.458l83.547-40.779c11.046-5.33 7.322-11.688-8.219-14.064zm2.376 12.138-1.67.834-83.548 40.779-1.669.834c-2.89 1.413-7.128 2.377-11.688 2.89-7.064 1.092-15.027 1.22-21.513.193l-260.533-40.201c-6.4861-1.027-10.1465-2.954-10.5318-5.137-.8991-1.349.0642-2.826 2.8898-4.239l8.9264-4.366 69.0346-33.651 8.926-4.367c2.89-1.412 7.193-2.44 11.752-2.889 7.064-1.028 15.027-1.221 21.513-.193l260.533 40.201c6.486 1.027 10.147 2.954 10.532 5.137.835 1.284-.065 2.762-2.954 4.175z" fill="#83f2ca"/><path d="m78.8516 410.845 69.0344-33.65 12.779 1.991c5.331.835 6.551 2.954 2.762 4.816l-55.356 26.972c-3.789 1.862-11.174 2.697-16.5042 1.862zm73.1444-27.549c.899-.45.642-.964-.706-1.156-1.284-.193-3.147 0-4.046.449-.963.45-.642.964.706 1.156 1.284.193 3.083 0 4.046-.449zm-9.826 4.752c.9-.45.643-.963-.706-1.156-1.284-.193-3.146 0-4.045.449-.9.45-.643.963.706 1.157 1.285.192 3.082 0 4.045-.45z" fill="#3b4643" fill-opacity=".8"/><path d="m147.952 383.746c1.285.192 3.147 0 4.046-.45s.642-.963-.706-1.156c-1.285-.193-3.147 0-4.046.45-.964.385-.643.963.706 1.156z" fill="#fff"/><path d="m137.42 387.342c.899-.449 2.761-.642 4.046-.449 1.284.192 1.605.706.706 1.155-.899.45-2.761.643-4.045.45-1.349-.193-1.606-.706-.707-1.156z" fill="#fff"/><path d="m168.566 369.938c4.303-.45 8.863-.45 12.652.128l272.862 42.064c3.853.578 6.229 1.669 7.064 2.889.835 1.349-.064 2.826-2.889 4.238l-1.67.835-83.548 40.779-1.669.835c-2.89 1.413-7.129 2.376-11.688 2.89-4.303.449-8.862.449-12.651-.129l-272.8631-42.063c-3.8531-.578-6.2292-1.669-7.064-2.89-.8991-1.348.0642-2.825 2.8898-4.238l8.9263-4.367 12.7794 1.991c5.3304.835 12.7146 0 16.5046-1.862l55.356-26.972c3.788-1.862 2.504-3.982-2.762-4.816l-12.779-1.991 8.926-4.367c2.761-1.477 7.064-2.505 11.623-2.954zm27.55 7.899-1.156-.193c-4.303-.642-10.339 0-13.421 1.477l-78.989 38.531c-3.082 1.477-2.055 3.275 2.248 3.917l1.156.193c4.303.642 10.339 0 13.357-1.477l78.988-38.531c3.148-1.477 2.12-3.275-2.183-3.917zm221.168 55.356c.77-.385.513-.835-.578-1.028-1.092-.192-2.698 0-3.468.386l-23.89 11.623c-.77.385-.513.835.578 1.028 1.156.192 2.697 0 3.469-.386z" fill="#909090"/><path d="m470.456 416.048c-.064-.514-.064-1.028-.129-1.478.129 1.478-.834 2.697-1.797 3.661-.772.706-1.606 1.349-2.505 1.862-.514.321-9.954 4.945-12.458 6.165-3.661 1.799-7.321 3.532-10.982 5.33-4.367 2.12-8.733 4.239-13.1 6.358-4.56 2.248-9.183 4.495-13.743 6.679-4.367 2.119-8.734 4.238-13.1 6.421-3.725 1.799-7.45 3.661-11.174 5.459-2.633 1.284-5.202 2.569-7.835 3.853-.77.386-1.477.706-2.248 1.092-.192.064-.835.257-.963.449v.065-.065c-.321.193-.706.321-1.028.514-5.201 2.312-10.916 3.596-16.568 4.495-5.522.9-11.11 1.349-16.696 1.349-4.945.064-9.826-.257-14.706-1.027-1.478-.257-2.954-.45-4.432-.707-2.632-.385-5.329-.835-7.962-1.22-3.725-.578-7.385-1.156-11.11-1.734-4.624-.706-9.183-1.413-13.807-2.119-5.33-.835-10.661-1.67-15.99-2.44-5.973-.9-11.881-1.863-17.853-2.762-6.358-.963-12.715-1.991-19.073-2.954-6.679-1.027-13.357-2.055-20.1-3.083-6.807-1.027-13.55-2.119-20.357-3.146s-13.614-2.119-20.421-3.147c-6.615-1.027-13.294-2.055-19.908-3.082-6.294-.964-12.652-1.927-18.944-2.954-5.909-.899-11.817-1.799-17.66-2.697-5.266-.835-10.533-1.606-15.734-2.44-4.495-.707-9.0546-1.413-13.55-2.12-3.5963-.578-7.1925-1.092-10.7887-1.669-2.5687-.386-5.0733-.771-7.6419-1.156-1.3487-.193-7.8989-1.285-9.0548-1.606-2.1192-.513-4.2385-1.156-6.165-2.183-1.6696-.899-3.7246-2.312-3.8531-4.431.1927 2.183.3211 4.366.4496 6.614.1284 1.541.1926 3.082.3211 4.56.0641.77.1284 1.476.4495 2.119.7064 1.284 2.055 2.247 3.2751 2.889 2.1192 1.156 4.4953 1.863 6.8071 2.377 1.4128.321 2.8898.578 4.3669.835 1.2201.192 2.376.385 3.5962.578 2.4403.385 4.9448.77 7.3851 1.155 3.532.578 7.064 1.092 10.6602 1.67 4.495.707 9.0547 1.413 13.5497 2.119 5.266.835 10.532 1.605 15.798 2.44 5.908.9 11.816 1.799 17.789 2.762 6.421.963 12.779 1.991 19.201 2.954 6.678 1.028 13.421 2.055 20.1 3.082 6.871 1.092 13.743 2.119 20.678 3.211 6.872 1.092 13.807 2.119 20.678 3.211 6.743 1.028 13.486 2.055 20.165 3.083 6.486 1.027 12.908 1.991 19.393 3.018 5.973.899 11.946 1.862 17.918 2.761 5.394.835 10.724 1.67 16.118 2.505 4.624.706 9.183 1.412 13.807 2.119 3.661.578 7.321 1.156 10.982 1.67 2.632.385 5.201.835 7.834 1.22 1.349.192 7.963 1.156 8.606 1.22 5.394.514 10.852.514 16.311.193 4.559-.322 10.995-.631 14.513-1.606 11.672-3.233 40.394-17.66 44.311-19.586 4.238-2.056 8.541-4.175 12.779-6.229 4.174-2.056 8.412-4.11 12.587-6.166 3.789-1.862 7.577-3.724 11.366-5.586 3.019-1.478 6.037-2.954 9.055-4.432 1.863-.898 3.725-1.798 5.587-2.697 2.312-1.092 4.688-2.248 6.358-4.174.77-.834 1.348-1.926 1.284-3.082-.128-3.34-.385-6.872-.642-10.339z" fill="#69bd9f"/><path d="m285.847 390.002c.125-1.055-1.436-2.02-4.45-2.468l-57.09-8.798c-4.752-.707-11.366 0-14.77 1.669l-77.897 37.953c-1.361.642-1.981 1.346-1.946 2.004-.006.057-.003.113 0 .17-.006.057-.003.113 0 .17-.006.057-.003.113 0 .169-.006.057-.003.114 0 .17-.006.057-.003.113 0 .17-.006.057-.003.113 0 .17-.006.057-.003.113 0 .169-.006.057-.003.114 0 .17-.006.057-.003.113 0 .169-.006.058-.003.114 0 .17-.006.058-.003.113 0 .17-.006.057-.003.113 0 .17-.006.057-.003.113 0 .169-.006.057-.003.114 0 .17-.006.057-.003.114 0 .17-.006.057-.003.113 0 .17-.006.057-.003.113 0 .17-.006.056-.003.113 0 .169-.006.057-.003.114 0 .17-.006.057-.003.113 0 .17-.125 1.055 1.436 2.02 4.451 2.468l57.09 8.798c4.752.706 11.367 0 14.77-1.67l77.897-37.953c1.361-.642 1.981-1.345 1.945-2.004.007-.056.003-.113 0-.169.007-.057.003-.114 0-.17.007-.057.003-.113 0-.17.007-.057.003-.113 0-.17.007-.057.003-.113 0-.169.007-.057.003-.114 0-.17.007-.057.003-.113 0-.17.007-.057.003-.113 0-.17.007-.057.003-.112 0-.169.007-.057.003-.113 0-.17.007-.057.003-.113 0-.169.007-.057.003-.114 0-.17.007-.057.003-.113 0-.17.007-.057.003-.113 0-.17.007-.057.003-.113 0-.169.007-.057.003-.114 0-.17.007-.057.003-.113 0-.17.007-.057.003-.113 0-.17.007-.057.003-.113 0-.169.007-.057.003-.114 0-.17z" fill="#69bd9f"/><path d="m209.537 380.405c3.403-1.669 10.018-2.376 14.77-1.669l57.09 8.798c4.752.706 5.908 2.697 2.504 4.302l-77.896 37.953c-3.404 1.67-10.018 2.376-14.77 1.67l-57.09-8.798c-4.752-.707-5.908-2.697-2.505-4.303z" fill="#83f2ca"/><path d="m237.215 430.797c.095-.768-1.015-1.453-3.209-1.778l-7.449-1.155c-3.404-.515-8.22 0-10.66 1.22l-5.331 2.569c-.979.489-1.433 1.009-1.411 1.49-.005.042-.002.082 0 .123-.005.041-.002.081 0 .122-.005.041-.002.081 0 .122-.005.041-.002.082 0 .122-.005.041-.002.082 0 .123-.005.041-.002.081 0 .122-.005.041-.002.081 0 .122-.005.041-.002.082 0 .122-.005.041-.002.082 0 .122-.005.042-.002.082 0 .122-.005.042-.002.082 0 .123-.005.041-.002.081 0 .122-.005.041-.002.082 0 .122-.005.042-.002.082 0 .122-.005.042-.002.082 0 .123-.005.041-.002.081 0 .122-.005.041-.002.081 0 .122-.005.041-.002.082 0 .123-.005.04-.002.081 0 .122-.005.041-.002.081 0 .122-.005.041-.002.082 0 .122-.005.041-.002.082 0 .122-.005.042-.002.082 0 .122-.005.042-.002.082 0 .123-.005.041-.002.081 0 .122-.005.041-.002.082 0 .122-.005.042-.002.082 0 .122-.005.042-.002.082 0 .123-.005.041-.002.081 0 .122-.005.041-.002.081 0 .122-.095.768 1.016 1.453 3.21 1.778l7.449 1.156c3.403.514 8.22 0 10.66-1.221l5.33-2.568c.98-.49 1.433-1.01 1.411-1.491.005-.041.002-.082 0-.122.005-.041.002-.082 0-.122.005-.042.002-.082 0-.123.005-.041.002-.081 0-.122.005-.041.002-.081 0-.122.005-.041.002-.082 0-.122.005-.041.002-.082 0-.123.005-.041.002-.081 0-.122.005-.041.002-.082 0-.122.005-.041.002-.082 0-.122.005-.041.002-.082 0-.122.005-.042.002-.082 0-.123.005-.041.002-.081 0-.122.005-.041.002-.082 0-.122.005-.041.002-.082 0-.122.005-.042.002-.082 0-.122.005-.042.002-.082 0-.123.005-.041.002-.081 0-.122.005-.041.002-.081 0-.122.005-.041.002-.082 0-.123.005-.04.002-.081 0-.122.005-.041.002-.081 0-.122.005-.041.002-.082 0-.122.005-.041.002-.082 0-.122.005-.042.002-.082 0-.122.005-.042.002-.082 0-.123.005-.041.002-.082 0-.122.005-.041.002-.082 0-.122.005-.042.002-.082 0-.122.005-.042.002-.082 0-.123z" fill="#69bd9f"/><path d="m215.895 429.084c2.44-1.22 7.256-1.734 10.66-1.22l7.45 1.156c3.467.514 4.238 1.926 1.798 3.146l-5.33 2.569c-2.44 1.22-7.257 1.734-10.66 1.22l-7.45-1.156c-3.468-.513-4.238-1.926-1.798-3.146z" fill="#83f2ca"/><path d="m313.858 393.486c.095-.768-1.015-1.453-3.209-1.778l-7.449-1.156c-3.403-.513-8.22 0-10.66 1.22l-5.33 2.569c-.98.49-1.433 1.01-1.411 1.491-.006.041-.002.082 0 .123-.006.04-.002.081 0 .122-.006.041-.002.081 0 .122-.006.041-.002.082 0 .122-.006.041-.002.082 0 .122-.006.042-.002.082 0 .122-.006.042-.002.082 0 .122-.006.042-.002.082 0 .123-.006.041-.002.081 0 .122-.006.041-.002.082 0 .122-.006.041-.002.082 0 .123-.006.041-.002.081 0 .122-.006.041-.002.081 0 .122-.006.041-.002.082 0 .122-.006.041-.002.082 0 .123-.006.041-.002.081 0 .122-.006.041-.002.081 0 .122-.006.041-.002.082 0 .122-.006.041-.002.082 0 .122-.006.042-.002.082 0 .122-.006.042-.002.082 0 .123-.006.041-.002.081 0 .122-.006.041-.002.082 0 .122-.006.041-.002.082 0 .122-.006.042-.002.082 0 .123-.006.041-.002.081 0 .122-.006.041-.002.081 0 .122-.006.041-.002.082 0 .123-.006.04-.002.081 0 .122-.006.041-.002.081 0 .122-.095.768 1.015 1.453 3.209 1.778l7.449 1.156c3.403.513 8.22 0 10.66-1.22l5.33-2.569c.98-.49 1.433-1.01 1.411-1.491.006-.041.002-.082 0-.122.006-.042.002-.082 0-.123.006-.041.002-.081 0-.122.006-.041.002-.082 0-.122.006-.042.002-.082 0-.122.006-.042.002-.082 0-.122.006-.042.002-.082 0-.123.006-.041.002-.081 0-.122.006-.041.002-.081 0-.122.006-.041.002-.082 0-.123.006-.04.002-.081 0-.122.006-.041.002-.081 0-.122.006-.041.002-.082 0-.122.006-.041.002-.082 0-.122.006-.042.002-.082 0-.123.006-.041.002-.081 0-.122.006-.041.002-.082 0-.122.006-.041.002-.082 0-.122.006-.042.002-.082 0-.122.006-.042.002-.082 0-.123.006-.041.002-.081 0-.122.006-.041.002-.081 0-.122.006-.041.002-.082 0-.122.006-.041.002-.082 0-.123.006-.041.002-.081 0-.122.006-.041.002-.081 0-.122.006-.041.002-.082 0-.122.006-.041.002-.082 0-.123.006-.041.002-.081 0-.122.006-.041.002-.082 0-.122z" fill="#69bd9f"/><path d="m292.538 391.772c2.44-1.22 7.257-1.734 10.66-1.22l7.449 1.156c3.468.514 4.239 1.927 1.798 3.147l-5.33 2.568c-2.44 1.221-7.256 1.735-10.66 1.221l-7.449-1.156c-3.468-.514-4.239-1.927-1.798-3.147z" fill="#83f2ca"/><path d="m295.398 402.605c.095-.768-1.016-1.453-3.21-1.778l-7.448-1.156c-3.404-.514-8.221 0-10.661 1.22l-5.33 2.569c-.98.49-1.433 1.01-1.411 1.491-.005.041-.002.082 0 .122-.005.042-.002.082 0 .122-.005.042-.002.082 0 .123-.005.041-.002.081 0 .122-.005.041-.002.081 0 .122-.005.041-.002.082 0 .122-.005.041-.002.082 0 .123-.005.041-.002.081 0 .122-.005.041-.002.081 0 .122-.005.041-.002.082 0 .122-.005.041-.002.082 0 .122-.005.042-.002.082 0 .123-.005.041-.002.082 0 .122-.005.041-.002.082 0 .122-.005.042-.002.082 0 .122-.005.042-.002.082 0 .122-.005.042-.002.082 0 .123-.005.041-.002.081 0 .122-.005.041-.002.081 0 .122-.005.041-.002.082 0 .123-.005.04-.002.081 0 .122-.005.041-.002.081 0 .122-.005.041-.002.082 0 .122-.005.041-.002.082 0 .123-.005.041-.002.081 0 .122-.005.041-.002.081 0 .122-.005.041-.002.082 0 .122-.005.041-.002.082 0 .122-.005.042-.002.082 0 .122-.005.042-.002.082 0 .122-.095.768 1.016 1.453 3.209 1.779l7.45 1.155c3.403.514 8.219 0 10.659-1.22l5.331-2.569c.979-.489 1.433-1.009 1.411-1.49.005-.041.002-.082 0-.123.005-.041.002-.081 0-.122.005-.041.002-.081 0-.122.005-.041.002-.082 0-.123.005-.04.002-.081 0-.122.005-.041.002-.081 0-.122.005-.041.002-.082 0-.122.005-.041.002-.082 0-.122.005-.042.002-.082 0-.122.005-.042.002-.082 0-.122.005-.042.002-.082 0-.123.005-.041.002-.081 0-.122.005-.041.002-.082 0-.122.005-.041.002-.082 0-.122.005-.042.002-.082 0-.123.005-.041.002-.081 0-.122.005-.041.002-.082 0-.122.005-.041.002-.082 0-.123.005-.04.002-.081 0-.122.005-.041.002-.081 0-.122.005-.041.002-.082 0-.122.005-.041.002-.082 0-.122.005-.042.002-.082 0-.122.005-.042.002-.082 0-.122.005-.042.002-.082 0-.123.005-.041.002-.082 0-.122.005-.041.002-.082 0-.122.005-.042.002-.082 0-.123.005-.041.002-.081 0-.122.005-.041.002-.081 0-.122z" fill="#69bd9f"/><path d="m274.076 400.892c2.44-1.221 7.257-1.735 10.66-1.221l7.45 1.156c3.467.514 4.238 1.927 1.797 3.147l-5.329 2.569c-2.441 1.219-7.257 1.734-10.661 1.219l-7.449-1.155c-3.468-.514-4.239-1.927-1.798-3.147z" fill="#83f2ca"/><path d="m326.562 444.154c.094-.768-1.016-1.453-3.209-1.778l-7.45-1.156c-3.403-.513-8.22 0-10.66 1.22l-5.33 2.569c-.98.49-1.433 1.01-1.411 1.491-.006.041-.002.082 0 .123-.006.04-.002.081 0 .122-.006.041-.002.081 0 .122-.006.041-.002.082 0 .122-.006.041-.002.082 0 .122-.006.042-.002.082 0 .122-.006.042-.002.082 0 .122-.006.042-.002.082 0 .123-.006.041-.002.081 0 .122-.006.041-.002.081 0 .122-.006.041-.002.082 0 .123-.006.04-.002.081 0 .122-.006.041-.002.081 0 .122-.006.041-.002.082 0 .122-.006.041-.002.082 0 .123-.006.041-.002.081 0 .122-.006.041-.002.081 0 .122-.006.041-.002.082 0 .122-.006.041-.002.082 0 .122-.006.042-.002.082 0 .122-.006.042-.002.082 0 .123-.006.041-.002.081 0 .122-.006.041-.002.081 0 .122-.006.041-.002.082 0 .122-.006.041-.002.082 0 .123-.006.041-.002.081 0 .122-.006.041-.002.081 0 .122-.006.041-.002.082 0 .123-.006.04-.002.081 0 .122-.006.041-.002.081 0 .122-.095.768 1.016 1.453 3.209 1.778l7.449 1.156c3.403.513 8.22 0 10.661-1.221l5.329-2.568c.98-.49 1.433-1.01 1.412-1.491.004-.042.001-.082 0-.123.004-.041.001-.081 0-.122.004-.041.001-.082 0-.122.004-.041.001-.082 0-.122.004-.042.001-.082 0-.122.004-.042.001-.082 0-.122.004-.042.001-.082 0-.123.004-.041.001-.081 0-.122.004-.041.001-.082 0-.122.004-.041.001-.082 0-.123.004-.04.001-.081 0-.122.004-.041.001-.081 0-.122.004-.041.001-.082 0-.122.004-.041.001-.082 0-.123.004-.041.001-.081 0-.122.004-.041.001-.082 0-.122.004-.041.001-.082 0-.122.004-.042.001-.082 0-.122.004-.042.001-.082 0-.122.004-.042.001-.082 0-.123.004-.041.001-.081 0-.122.004-.041.001-.081 0-.122.004-.041.001-.082 0-.123.004-.04.001-.081 0-.122.004-.041.001-.081 0-.122.004-.041.001-.082 0-.122.004-.041.001-.082 0-.123.004-.041.001-.081 0-.122.004-.041.001-.081 0-.122.004-.041.001-.082 0-.122z" fill="#69bd9f"/><path d="m305.242 442.44c2.44-1.22 7.257-1.734 10.66-1.22l7.449 1.156c3.468.514 4.239 1.927 1.798 3.147l-5.33 2.568c-2.44 1.221-7.256 1.735-10.66 1.221l-7.449-1.156c-3.468-.514-4.239-1.927-1.798-3.147z" fill="#83f2ca"/><path d="m402.446 407.101c.095-.768-1.016-1.453-3.21-1.778l-7.449-1.156c-3.404-.513-8.22 0-10.66 1.22l-5.33 2.569c-.98.49-1.433 1.01-1.412 1.491-.004.041-.001.082 0 .122-.004.042-.001.082 0 .122-.004.042-.001.082 0 .123-.004.041-.001.081 0 .122-.004.041-.001.081 0 .122-.004.041-.001.082 0 .122-.004.041-.001.082 0 .123-.004.041-.001.081 0 .122-.004.041-.001.081 0 .122-.004.041-.001.082 0 .123-.004.04-.001.081 0 .122-.004.041-.001.081 0 .122-.004.041-.001.082 0 .122-.004.041-.001.082 0 .122-.004.042-.001.082 0 .122-.004.042-.001.082 0 .122-.004.042-.001.082 0 .123-.004.041-.001.081 0 .122-.004.041-.001.081 0 .122-.004.041-.001.082 0 .123-.004.04-.001.081 0 .122-.004.041-.001.081 0 .122-.004.041-.001.082 0 .123-.004.04-.001.081 0 .122-.004.041-.001.081 0 .122-.004.041-.001.081 0 .122-.004.041-.001.082 0 .122-.004.041-.001.082 0 .122-.004.042-.001.082 0 .122-.004.042-.001.082 0 .123-.094.768 1.016 1.452 3.21 1.778l7.449 1.155c3.404.514 8.22 0 10.66-1.219l5.331-2.569c.979-.49 1.433-1.01 1.411-1.491.005-.041.002-.082 0-.123.005-.04.002-.081 0-.122.005-.041.002-.081 0-.122.005-.041.002-.082 0-.122.005-.041.002-.082 0-.123.005-.041.002-.081 0-.122.005-.041.002-.081 0-.122.005-.041.002-.082 0-.122.005-.041.002-.082 0-.122.005-.042.002-.082 0-.122.005-.042.002-.082 0-.123.005-.041.002-.081 0-.122.005-.041.002-.081 0-.122.005-.041.002-.082 0-.122.005-.041.002-.082 0-.123.005-.041.002-.081 0-.122.005-.041.002-.081 0-.122.005-.041.002-.082 0-.123.005-.04.002-.081 0-.122.005-.041.002-.081 0-.122.005-.041.002-.082 0-.122.005-.041.002-.082 0-.122.005-.042.002-.082 0-.122.005-.042.002-.082 0-.122.005-.042.002-.082 0-.123.005-.041.002-.081 0-.122.005-.041.002-.081 0-.122.005-.041.002-.082 0-.123.005-.04.002-.081 0-.122.005-.041.002-.081 0-.122z" fill="#69bd9f"/><path d="m381.127 405.388c2.441-1.221 7.257-1.734 10.661-1.221l7.449 1.156c3.468.514 4.238 1.927 1.798 3.147l-5.33 2.569c-2.441 1.22-7.257 1.734-10.66 1.22l-7.45-1.156c-3.467-.514-4.238-1.927-1.797-3.147z" fill="#83f2ca"/><path d="m384.048 416.379c.095-.768-1.015-1.453-3.209-1.777l-7.449-1.156c-3.404-.514-8.22 0-10.66 1.22l-5.33 2.569c-.98.489-1.434 1.01-1.412 1.491-.005.041-.002.082 0 .122-.005.041-.002.082 0 .122-.005.042-.002.082 0 .122-.005.042-.002.082 0 .122-.005.042-.002.082 0 .123-.005.041-.002.081 0 .122-.005.041-.002.081 0 .122-.005.041-.002.082 0 .123-.005.04-.002.081 0 .122-.005.041-.002.081 0 .122-.005.041-.002.082 0 .122-.005.041-.002.082 0 .123-.005.041-.002.081 0 .122-.005.041-.002.081 0 .122-.005.041-.002.082 0 .122-.005.041-.002.082 0 .122-.005.042-.002.082 0 .122-.005.042-.002.082 0 .122-.005.042-.002.082 0 .123-.005.041-.002.081 0 .122-.005.041-.002.081 0 .122-.005.041-.002.082 0 .123-.005.04-.002.081 0 .122-.005.041-.002.081 0 .122-.005.041-.002.082 0 .123-.005.04-.002.081 0 .122-.005.041-.002.081 0 .122-.005.041-.002.082 0 .122-.005.041-.002.082 0 .122-.005.042-.002.082 0 .122-.095.768 1.016 1.453 3.21 1.778l7.449 1.156c3.403.514 8.22 0 10.66-1.22l5.33-2.569c.98-.49 1.433-1.009 1.411-1.491.005-.041.002-.081 0-.122.005-.041.002-.082 0-.122.005-.041.002-.082 0-.123.005-.041.002-.081 0-.122.005-.041.002-.081 0-.122.005-.041.002-.082 0-.122.005-.041.002-.082 0-.122.005-.042.002-.082 0-.122.005-.042.002-.082 0-.123.005-.041.002-.081 0-.122.005-.041.002-.081 0-.122.005-.041.002-.082 0-.122.005-.041.002-.082 0-.123.005-.04.002-.081 0-.122.005-.041.002-.081 0-.122.005-.041.002-.082 0-.123.005-.04.002-.081 0-.122.005-.041.002-.081 0-.122.005-.041.002-.082 0-.122.005-.041.002-.082 0-.122.005-.042.002-.082 0-.122.005-.042.002-.082 0-.122.005-.042.002-.082 0-.123.005-.041.002-.081 0-.122.005-.041.002-.081 0-.122.005-.041.002-.082 0-.123.005-.04.002-.081 0-.122.005-.041.002-.081 0-.122.005-.041.002-.082 0-.122.005-.041.002-.082 0-.123z" fill="#69bd9f"/><path d="m362.727 414.666c2.44-1.22 7.257-1.734 10.66-1.22l7.45 1.155c3.468.515 4.238 1.927 1.798 3.148l-5.33 2.568c-2.44 1.22-7.257 1.734-10.66 1.22l-7.45-1.156c-3.468-.513-4.238-1.926-1.798-3.146z" fill="#83f2ca"/><path d="m376.187 402.468.254-.125-43.282-6.678c-4.753-.706-11.368 0-14.771 1.67l-77.896 38.017c-1.358.64-1.979 1.342-1.946 1.999-.007.055-.003.109 0 .163-.007.055-.003.109 0 .163-.007.055-.003.109 0 .163-.007.055-.003.109 0 .164-.007.054-.003.109 0 .163-.007.055-.003.109 0 .163-.007.055-.003.109 0 .163-.007.055-.003.11 0 .164-.007.055-.003.109 0 .163-.007.055-.003.109 0 .163-.007.055-.003.109 0 .164-.007.054-.003.108 0 .163-.007.055-.003.109 0 .163-.007.055-.003.109 0 .163-.007.055-.003.109 0 .163-.007.055-.003.109 0 .164-.007.054-.003.108 0 .163-.007.055-.003.109 0 .163-.007.055-.003.109 0 .163-.007.055-.003.109 0 .163-.123 1.055 1.438 2.019 4.45 2.467l43.283 6.679 90.162-43.99-.254-.039.254-.124-.254-.039.254-.124-.254-.039.254-.125-.254-.038.254-.124-.254-.04.254-.124-.254-.039.254-.124-.254-.039.254-.124-.254-.04.254-.124-.254-.038.254-.125-.254-.039.254-.124-.254-.039.254-.124-.254-.039.254-.124-.254-.04.254-.124-.254-.039.254-.124-.254-.039.254-.124-.254-.039.254-.125-.254-.039.254-.123-.254-.04.254-.124-.254-.039.254-.124-.254-.04.254-.123z" fill="#69bd9f"/><path d="m318.387 397.167c3.403-1.67 10.018-2.377 14.77-1.67l43.283 6.679-90.163 43.989-43.283-6.679c-4.752-.706-5.908-2.697-2.504-4.302z" fill="#83f2ca"/><path d="m429.611 412.515-14.193 6.935-19.972-3.082.257 3.66 19.972 3.083 14.128-6.872z" fill="#69bd9f"/><path d="m409.642 409.433 19.972 3.082-14.193 6.936-19.972-3.083z" fill="#83f2ca"/><path d="m406.492 423.817-14.192 6.871-19.972-3.019.257 3.661 19.972 3.083 14.192-6.936z" fill="#69bd9f"/><path d="m386.522 420.734 19.972 3.083-14.192 6.872-19.972-3.019z" fill="#83f2ca"/><path d="m383.438 435.057-14.192 6.935-19.973-3.082.257 3.66 19.972 3.083 14.128-6.936z" fill="#69bd9f"/><path d="m363.469 431.973 19.972 3.083-14.193 6.936-19.972-3.083z" fill="#83f2ca"/><path d="m360.322 446.358-14.192 6.871-19.972-3.082.257 3.66 19.972 3.083 14.192-6.871z" fill="#69bd9f"/><path d="m340.351 443.276 19.971 3.083-14.192 6.871-19.972-3.083z" fill="#83f2ca"/><path d="m302.589 229.622c-.192 1.413-.706 2.632-1.348 3.467-.321.45-.706.835-1.156 1.028-.321.128-.642.193-.899.193-1.413-.257-2.248-2.697-1.798-5.459.256-1.67.899-3.082 1.669-3.917.45-.45.9-.707 1.349-.771h.321c1.541.193 2.312 2.633 1.862 5.459z" fill="#b9963b"/><path clip-rule="evenodd" d="m301.305 233.089c-.321.45-.706.835-1.156 1.028-.623.267-1.256 1.284-1.577.771l-.285-8.22c.064-.321.193-.643.321-.899l.578-.835c.45-.45.899-.707 1.348-.771-.063 1.22.193 2.826.386 4.431.129 1.541.321 3.082.385 4.495z" fill="#021e16" fill-rule="evenodd"/><path d="m205.253 408.305c-5.365-1.927-7.854-2.586-4.063-3.697 2.026-.653 17.258-5.14 23.533-7.336 3.583-1.254 20.69.512 14.564 4.426-7.059 4.51-19.696 11.754-34.034 6.607z" fill="#08b47a" fill-opacity=".6"/><path d="m321.51 417.044c-5.367-1.927-7.855-2.586-4.064-3.697 2.026-.653 17.258-5.14 23.532-7.336 3.583-1.254 20.691.512 14.566 4.425-7.06 4.511-19.698 11.755-34.034 6.608z" fill="#08b47a" fill-opacity=".6"/><path d="m235.029 398.131c-4.624 2.954-8.028 4.302-13.679 6.871s-14.642 2.055-21.513 1.091c-.771-.128-2.825-2.825-2.119-4.43.064.706 1.541 1.284 1.926 1.348 6.679.899 16.184 1.67 21.899-.899s8.926-3.789 13.871-6.743c-.064.642.321.963.257 1.541-.129.578.128.706-.642 1.221z" fill="#021e16"/><path d="m235.352 395.369c-.069-.02-.137-.042-.205-.062.004-.001.009-.002.013-.002-.129-2.312-.322-4.56-.514-7-.231-2.483-.306-5.227-.319-7.856-.002-.499-.382-.914-.878-.961-4.741-.445-9.483-.803-14.224-1.299-.494-.051-.948.28-1.045.767-1.348 6.789-4.867 7.701-11.469 9.798-.177.057-.321.116-.446.176-.887-.118-1.845-.2-2.893-.239-5.716-.193-8.092 13.421-4.753 14.128 10.943 2.303 14.552 1.929 23.218-.489.059-.016.115-.037.169-.063.883-.435 9.169-4.416 13.346-6.898z" fill="#919191"/><path clip-rule="evenodd" d="m222.368 389.813c-2.425-2.546-4.671-3.897-8.039-3.784-.694.023-1.275-.521-1.298-1.215-.023-.693.52-1.274 1.214-1.297 4.338-.145 7.23 1.715 9.942 4.563.479.502.46 1.298-.043 1.777-.502.478-1.298.459-1.776-.044z" fill="#f8f8f8" fill-rule="evenodd"/><path clip-rule="evenodd" d="m215.866 392.814c-2.699-2.944-5.819-4.886-9.641-4.604-.692.051-1.295-.469-1.346-1.161-.051-.693.469-1.296 1.161-1.346 4.912-.361 8.727 2.193 11.68 5.413.468.512.434 1.307-.078 1.776-.511.469-1.307.434-1.776-.078z" fill="#f8f8f8" fill-rule="evenodd"/><path d="m304.815 315.481 3.158 21.496s-23.558 3.999-23.943 3.999c-5.01-.128-41.743-.9-41.743-.9v.065c-.32 1.477-5.201 24.852-6.485 37.824l-.257 2.376c0 .193-.065.45-.065.643l-.063.321c0 .321-.065.642-.065.963-.064.385-.064.707-.129 1.027l-.192 1.991v.129.128l-2.44-.385-17.339-2.954c.192-.45 4.688-64.925 9.761-66.723 5.523-1.926 79.353-.257 79.802 0z" fill="#3b4643"/><path d="m266.047 213.118c0 2.376 1.156 11.238 5.009 15.284 1.541 1.862.706-11.238-.578-16.247-1.285-5.009-4.431-1.413-4.431.963z" fill="#a3d3ec"/><path d="m285.827 337.894c-.578 1.028-1.156 2.055-1.67 3.083-5.008-.129-41.741-.899-41.741-.899v.064c-.321 1.477-5.202 24.852-6.486 37.824l-.257 2.376c0 .193-.064.45-.064.642l-.065.322c0 .321-.064.642-.064.963-.064.385-.064.706-.128 1.028l-.193 1.99v.129.128l-19.926-3.275.216-1.49 17.656 1.49 5.714-42.705-3.339-4.752 5.715 2.761-5.908-10.789 10.725 10.917s38.402-4.559 41.999-6.55c.192-.064.321-.128.385-.128.963-.193-.578 3.211-2.569 6.871z" fill="#021e16"/><path d="m266.047 213.118c0 2.376 1.156 11.238 5.009 15.284 1.541 1.862.706-11.238-.578-16.247-1.285-5.009-4.431-1.413-4.431.963z" fill="#021e16"/><path d="m295.395 209.779c.578 5.137 3.981 17.852 4.752 15.541 2.119-5.202.642-14-.257-16.248-.835-2.183-5.073-4.431-4.495.707z" fill="#021e16"/><path d="m347.349 389.524c-1.477 5.523-.642 15.413-5.972 21.77-5.33 6.358-16.44 9.119-24.66 1.477-.964-.899-2.119-2.376-.835-5.137-.385.642.386 1.348.835 1.734 7.513 6.293 17.788 3.211 22.348-3.147 4.559-6.293 3.082-14.513 6.165-20.679.064.515 2.504 2.634 2.119 3.982z" fill="#021e16"/><path d="m338.231 380.406c-1.798-2.183-2.119 3.917-4.752 2.504-3.725 10.211-5.716 3.404-13.871 5.523 14.256.386 8.99 4.238 6.743 11.624-.03.219-.196.678-.428 1.255-1.828.403-3.479.721-4.774.8-2.569.192-7.321 6.165-4.816 8.348 5.675 5.005 16.848 4.5 22.711-1.005 1.513-1.158 2.691-2.738 3.232-4.775 1.799-6.678 3.211-13.871 3.661-15.926.706-3.66-3.982-6.293-7.706-8.348z" fill="#919191"/><path clip-rule="evenodd" d="m324.516 395.064c.026-.693.609-1.235 1.303-1.209l13.806.514c.694.026 1.235.609 1.21 1.302-.026.694-.609 1.236-1.303 1.21l-13.807-.514c-.693-.026-1.235-.609-1.209-1.303z" fill="#f8f8f8" fill-rule="evenodd"/><path clip-rule="evenodd" d="m322.462 399.567c.058-.692.665-1.206 1.357-1.148l-.105 1.252c.105-1.252.105-1.252.105-1.252l.081.007c.052.004.129.011.228.019.198.018.483.043.836.075.706.065 1.68.158 2.759.271 2.14.224 4.745.534 6.444.867.681.134 1.125.794.992 1.475-.134.681-.795 1.125-1.476.992-1.575-.309-4.076-.609-6.222-.835-1.065-.111-2.029-.203-2.726-.267-.349-.032-.631-.057-.825-.073-.097-.009-.172-.015-.223-.02l-.076-.006s-.001 0 .009-.114l-.009.114c-.692-.058-1.206-.665-1.149-1.357z" fill="#f8f8f8" fill-rule="evenodd"/><path d="m457.595 276.798c-2.914 2.186-25.331 2.263-32.202-.306.735-1.818-.527-13.24 2.519-15.849 3.9-3.284 25.935-5.926 28.74-6.288 2.749-.271-8.042 8.813-8.042 8.813s15.663-3.455 18.794-3.113c1.528.179-3.739 12.078-9.809 16.743z" fill="#ad8657"/><path clip-rule="evenodd" d="m463.35 274.356c-.021-.172-.178-.295-.35-.274-3.325.412-6.871.563-10.983.693-.173.005-.309.15-.304.324.006.173.15.31.324.304 4.112-.129 7.684-.282 11.04-.697.172-.021.295-.178.273-.35z" fill="#f8f8f8" fill-rule="evenodd"/><path clip-rule="evenodd" d="m466.297 270.36c-.024-.172-.183-.292-.354-.269-2.255.31-10.707.861-12.795.971-.173.009-.306.157-.297.33.009.174.157.307.33.298 2.081-.111 10.561-.663 12.847-.976.172-.023.292-.182.269-.354z" fill="#f8f8f8" fill-rule="evenodd"/><path clip-rule="evenodd" d="m469.361 265.229c-.031-.17-.195-.283-.365-.252-2.756.507-11.103 1.501-15.321 1.814-.173.012-.302.163-.289.336.012.173.163.303.336.29 4.231-.313 12.603-1.309 15.387-1.821.171-.032.284-.196.252-.367z" fill="#f8f8f8" fill-rule="evenodd"/><path d="m123.416 264.129c2.964-.121 17.324 2.713 17.324 2.713s-5.575-7.717-3.004-7.192c2.363.539 19.829 2.533 22.96 6.264 2.584 3.038-4.29 17.683-4.29 17.683s-24.217-3.133-26.611-5.66c-5.018-5.195-7.652-13.648-6.379-13.808z" fill="#ad8657"/><path clip-rule="evenodd" d="m123.593 271.055c.005-.174.15-.31.324-.304 2.134.064 9.853.836 11.783 1.094.173.023.293.181.27.353-.023.171-.181.293-.352.27-1.923-.256-9.617-1.026-11.72-1.09-.174-.005-.311-.149-.305-.323z" fill="#f8f8f8" fill-rule="evenodd"/><path clip-rule="evenodd" d="m122.326 268.051c.006-.173.15-.31.324-.304 2.135.064 9.853.836 11.784 1.094.172.023.293.181.27.353s-.181.293-.353.27c-1.923-.256-9.617-1.026-11.72-1.089-.174-.005-.31-.15-.305-.324z" fill="#f8f8f8" fill-rule="evenodd"/><path clip-rule="evenodd" d="m125.731 274.949c2.525-.065 6.04.159 9.96.544.173.017.298.171.281.343-.017.173-.17.3-.343.283-3.914-.386-7.398-.606-9.882-.543-.174.005-.318-.132-.322-.306-.005-.173.132-.317.306-.321z" fill="#f8f8f8" fill-rule="evenodd"/><path clip-rule="evenodd" d="m300.573 251.375c14.57.442 28.966 2.158 37.483 3.961 24.544 5.157 50.589 9.955 91.968.077l6.113 25.609c-46.852 11.185-77.318 5.582-103.504.079l-.011-.002-.01-.003c-6.64-1.406-19.434-2.997-32.839-3.404-13.859-.421-26.044.518-32.653 2.907l-.015.005-.015.005c-3.24 1.163-15.157 5.01-25.991 8.455-5.494 1.747-10.838 3.431-14.857 4.677-2.003.622-3.713 1.146-4.96 1.517-.612.183-1.178.349-1.636.475-.212.059-.512.14-.823.216-.14.033-.435.103-.795.17-.173.031-.512.091-.939.14-.006.001-.013.002-.023.003-.238.028-1.445.17-2.946.003l-.147-.016-59.162-7.919 3.492-26.096 56.31 7.536c1.02-.309 2.314-.706 3.828-1.176 3.938-1.222 9.218-2.885 14.681-4.622 11.064-3.518 22.377-7.178 25.067-8.142 11.692-4.22 28.267-4.885 42.384-4.455z" fill="#058a5e" fill-rule="evenodd"/><path d="m381.254 268.988c-.321.963-1.156 1.541-1.734 1.348-.578-.192-.707-.835-.321-1.734.321-.963.963-2.119 1.541-1.927.578.194.899 1.349.514 2.313z" fill="#0d6e4e"/><path d="m199.323 272.391c-.321.963-1.156 1.541-1.734 1.348-.578-.192-.706-.835-.321-1.733.321-.964.963-2.12 1.541-1.927.578.192.899 1.349.514 2.312z" fill="#0d6e4e"/><path d="m255.837 263.016c0 1.028-.835 1.348-1.862 1.348-1.028 0-1.863-.385-1.863-1.348 0-1.028.835-1.863 1.863-1.863 1.027 0 1.862.9 1.862 1.863z" fill="#0d6e4e"/><path d="m281.652 255.566c1.284-6.294-1.477-9.055-3.596-17.596 4.045-3.211 15.733-8.734 17.724-.386 2.183 9.12 5.009 11.753 4.367 17.725-.706 6.871-20.743 11.303-18.495.257z" fill="#c4b6ff"/><path d="m281.652 255.566c1.284-6.294-1.477-9.055-3.596-17.596 4.045-3.211 15.733-8.734 17.724-.386 2.183 9.12 5.009 11.753 4.367 17.725-.706 6.871-20.743 11.303-18.495.257z" fill="#967043"/><path d="m273.841 237.437c1.335-.576 1.507-3.155.383-5.76-1.123-2.605-3.117-4.25-4.452-3.674-1.335.575-1.507 3.154-.383 5.76 1.123 2.604 3.116 4.25 4.452 3.674z" fill="#b9963b"/><path clip-rule="evenodd" d="m273.496 237.585c-.835-1.413-1.477-3.34-2.119-5.202-.514-1.605-1.092-3.147-1.67-4.303 0 0 .064 0 .064-.064.322-.128.707-.128 1.092-.064l1.349.77c.192.193.45.45.642.707l2.055 5.972c-.065.963-.45 1.734-1.092 1.991-.064.128-.192.128-.321.193z" fill="#021e16" fill-rule="evenodd"/><path clip-rule="evenodd" d="m281.433 248.766c-.193-.642-1.001-2.961-1.257-3.732-.193-.578-.45-1.219-.707-1.926 1.413.193 3.147.963 4.881 1.734 2.504 1.092 10.026-1.599 11.696-2.048-.129.064-1.26 3.792-3.343 5.151-3.433 2.241-6.069 3.325-11.27.821z" fill="#000" fill-opacity=".43" fill-rule="evenodd"/><path d="m283.13 214.53c-6.999.899-15.669-4.88-14.706 2.762 1.67 6.678 5.01 21.127 6.166 22.669 1.155 1.541 5.265 4.11 7.064 5.458 2.311 1.349 5.008 1.863 7.705 1.541 2.248-.256 4.11-1.284 6.101-2.954 2.505-2.119 3.34-5.009 3.982-7.128v-.064c.963-3.339.257-5.972.385-11.174-.513-3.917.257-12.523-2.632-13.614-2.826-1.028-10.596 2.055-14.065 2.504z" fill="#ad8657"/><path d="m285.032 240.024c-.192-.129-.449-.129-.577.063-.129.193-.129.45.064.578zm6.423-.386c.128-.192.128-.449-.065-.578-.192-.128-.449-.128-.578.064zm-6.936 1.027c1.028.9 2.376 1.092 3.66.9 1.285-.257 2.441-.9 3.276-1.927l-.643-.578c-.706.835-1.733 1.413-2.825 1.605-1.028.193-2.12 0-2.955-.706z" fill="#000" fill-opacity=".43"/><g fill="#fff"><path d="m277.542 224.87 2.954-.385-5.587 9.312-1.991-1.799z" fill-opacity=".392"/><path d="m281.974 227.054.899.706-4.753 7.642-1.155-.642z" fill-opacity=".392"/><path d="m293.533 221.98 2.633.45-5.459 8.798-1.862-2.184z" fill-opacity=".392"/><path d="m297.964 224.228.9.706-4.753 7.642-1.156-.642z" fill-opacity=".392"/><path d="m278.658 234.929c2.886-.361 4.933-2.994 4.572-5.879-.362-2.886-2.994-4.933-5.88-4.572-2.886.362-4.933 2.994-4.571 5.88.361 2.885 2.993 4.932 5.879 4.571z" fill-opacity=".28"/></g><path clip-rule="evenodd" d="m277.428 225.102c-2.541.318-4.343 2.637-4.025 5.178.318 2.542 2.636 4.344 5.178 4.026 2.541-.318 4.344-2.636 4.026-5.178-.319-2.541-2.637-4.344-5.179-4.026zm-5.272 5.334c-.405-3.23 1.886-6.176 5.116-6.581 3.231-.404 6.177 1.887 6.582 5.117.404 3.23-1.887 6.177-5.117 6.581s-6.177-1.887-6.581-5.117z" fill="#83f2ca" fill-rule="evenodd"/><path d="m294.583 232.489c2.886-.361 4.932-2.994 4.571-5.88s-2.993-4.932-5.879-4.571-4.932 2.993-4.572 5.879c.362 2.886 2.994 4.933 5.88 4.572z" fill="#fff" fill-opacity=".28"/><path clip-rule="evenodd" d="m293.352 222.662c-2.541.318-4.344 2.636-4.025 5.177.317 2.542 2.635 4.344 5.177 4.026s4.344-2.636 4.026-5.178c-.318-2.541-2.636-4.344-5.178-4.025zm-5.273 5.333c-.404-3.23 1.887-6.176 5.117-6.581 3.23-.404 6.177 1.887 6.581 5.117.404 3.231-1.887 6.177-5.117 6.581-3.23.405-6.176-1.886-6.581-5.117z" fill="#83f2ca" fill-rule="evenodd"/><path d="m289.615 235.016-3.339-6.357-1.285 6.935s1.028.899 2.505.707c1.413-.193 2.119-1.285 2.119-1.285z" fill="#000" fill-opacity=".43"/><path d="m299.699 224.484c-.065.257-2.505-7.32-2.505-7.32s-.578-3.918-.899-5.009l.578-1.542c.707-.064 1.734 2.698 2.312 4.56.514 1.413.706 8.862.514 9.311z" fill="#021e16"/><path d="m270.799 214.981c.579 3.467 1.542 13.164.771 13.55-.129.064-.257.064-.321.064l-.706-.771c-.065 0-2.826-13.036-2.826-13.036.064-3.404 1.22-2.89 3.082.193z" fill="#021e16"/><path d="m266.692 216.072c6.999 6.165 35.063-2.697 33.329-6.036-.578-8.22 3.66-24.596-7.321-34.036-7.77 5.587-17.532 7.321-27.229 9.183-6.1.835-4.11 26.201 1.221 30.889z" fill="#021e16"/><path d="m269.773 224.356c-.129.321.064.706.385.835.321.128.707-.064.835-.385zm8.348-3.018c.386 0 .706-.257.706-.642 0-.386-.257-.707-.642-.707zm-7.128 3.403c.385-1.156 2.376-3.724 7.128-3.403l.064-1.284c-5.33-.322-7.834 2.568-8.412 4.302z" fill="#021e16"/><path d="m300.147 219.925c.257.385.193.899-.193 1.156-.385.257-.898.193-1.155-.193zm-7.449.129c-.386.256-.899.064-1.092-.322-.257-.385-.064-.899.321-1.091zm6.101.834c-.386-.449-1.092-1.156-2.12-1.477-1.027-.321-2.376-.321-3.981.643l-.835-1.413c1.991-1.156 3.789-1.22 5.266-.771 1.413.45 2.44 1.349 3.018 2.055z" fill="#021e16"/><path d="m341.524 385.44c-.033.064-.065.135-.103.199-.026.045-.052.09-.084.135-.064.115-.128.225-.192.334-.155.276-.322.559-.495.828-.103.174-.212.341-.321.508-.09.147-.193.295-.289.443-.218.321-.437.642-.668.957-.289.398-.591.789-.892 1.169-.174.212-.348.417-.521.622-.012.014-.019.02-.032.032-.18.206-.359.411-.546.604-.16.174-.321.334-.481.495-.405.391-.803.751-1.201 1.053-.058.051-.122.096-.18.141-.052.039-.103.077-.154.109-.103.071-.205.142-.302.206-.16.103-.314.193-.469.276-.09.052-.179.096-.269.141-.251.122-.495.218-.739.283-.058.019-.122.032-.18.045-.045.012-.083.019-.128.025-.084.02-.167.032-.251.039-.218.026-.456.038-.7.052-.424.012-.88.018-1.367 0-4.092-.142-9.903-1.33-12.998-2.64-.193-.064-.315-.129-.508-.193-.07-.032-.141-.058-.211-.09-.38-.154-45.461-10.84-57.084-14.436-3.731-1.136-8.406-5.368-8.027-10.679.379-5.305 5.182-10.738 8.091-13.332 7.957-7.07 22.361-16.864 35.879-22.926 9.864-4.399 21.911-5.176 33.046-5.619.065 0 .123-.006.187-.006 1.259-.065 2.46-.065 3.66-.129 1.137 13.903-1.958 22.746-9.029 26.85-4.739 2.781-14.661 5.118-24.891 8.907-2.607.95-5.272 2.01-7.834 3.191-.167.071-.341.148-.508.225.122.026.244.052.373.077 2.363.495 6.055 1.163 10.429 1.94 2.273.443 4.675.886 7.205 1.393 1.207.251 2.421.501 3.628.784.309.077.611.147.918.225 3.783.892 7.662 1.881 11.245 3.05.488.16.976.321 1.452.488 1.207.417 2.388.848 3.525 1.31.379.147.758.302 1.124.463 1.361.577 2.646 1.181 3.84 1.83.521.276 1.022.558 1.503.853.064.039.128.077.193.116.282.173.558.354.822.527.019.012.038.025.051.032.148.103.295.199.437.302.314.218.623.443.912.674.141.109.275.218.41.328.321.263.623.533.912.809.103.096.199.192.296.289.154.154.308.314.449.475.084.09.161.179.238.269.084.097.167.193.238.289 1.284 1.612 1.509 3.821.591 5.658z" fill="#3b4643"/><path d="m342.039 384.458c-.161.328-.334.655-.514.983-.058.116-.122.225-.186.334-.065.116-.129.225-.193.334-.154.276-.321.559-.495.828-.102.173-.212.34-.321.507-.09.149-.193.296-.288.444-.219.321-.438.642-.668.957-.289.398-.591.79-.894 1.168-.173.212-.346.418-.519.623-.013.013-.02.02-.032.033-.18.205-.36.411-.546.603-.161.173-.322.334-.482.494-.405.392-.803.752-1.201 1.054-.058.051-.122.096-.18.141-.051.039-.103.077-.154.109-.102.071-.206.141-.302.206-.16.102-.314.192-.468.275-.09.052-.18.097-.27.142-.251.122-.495.219-.739.283-.057.019-.122.031-.18.045-.044.013-.083.019-.128.025-.083.02-.167.033-.25.039-.218.026-.456.038-.701.051-.423.013-.879.02-1.367 0-4.091-.141-9.902-1.329-12.998-2.639-.192-.065-.314-.128-.508-.193-.07-.032-.14-.057-.211-.09 6.871-1.528 20.286-6.223 20.794-10.229.449-3.34-10.596-7.964-18.495-10.789-.174-.065-.341-.123-.508-.187-.006 0-.006 0-.006 0-5.619-.841-12.369-2.164-20.46-4.186-5.844-1.413-13.807-.386-13.807-.386l2.762-2.761-9.183 3.468 3.275-3.212-5.716-.963 4.881-.578-3.661-1.477s7.302.084 13.704-.083c14.231-3.385 28.468-10.134 32.893-14.995 6.833-7.398 5.478-15.348 5.433-20.614 0-.431.007-.835.025-1.227 1.285-.064 2.505-.064 3.725-.128.033.411.064.816.096 1.22 1.137 13.903-1.958 22.746-9.028 26.85-4.74 2.78-14.662 5.118-24.891 8.907-2.608.95-5.273 2.009-7.835 3.192-.167.07-.341.147-.507.224.122.026.244.051.372.077 2.363.495 6.056 1.163 10.429 1.94 2.274.443 4.675.886 7.205 1.393 1.208.25 2.422.501 3.629.783.308.078.61.148.918.225 3.783.893 7.661 1.882 11.245 3.051.487.16.976.321 1.451.488 1.207.417 2.389.847 3.525 1.31.379.148.758.302 1.124.462 1.362.578 2.646 1.182 3.841 1.83.519.277 1.02.559 1.502.855.064.038.129.077.193.115.282.174.559.353.822.527.019.013.038.025.051.032.148.103.296.199.437.302.315.218.623.443.912.674.141.109.276.218.411.327.321.264.623.533.912.81.102.096.199.192.295.289.154.154.308.314.45.475.083.09.16.18.237.27.084.095.167.192.238.289.443.539.809 1.097 1.111 1.675.482.932.462 2.056-.006 2.999z" fill="#021e16"/><path d="m255.839 268.474 35.622-1.412c.894-.194 1.719-.322 2.613-.45l11.278-11.559c15.473-2.119 28.814 2.247 29.089 15.027-7.014 13.036.688 45.916-.068 49.383-.688 3.276-2.889 5.202-6.464 5.716l-43.806 3.724c-3.577.514-7.496 1.028-9.146-1.926-1.72-3.019-.207-8.156-2.683-13.1-1.719-3.469.551-7.257-1.444-11.046-1.169-2.248-5.226-10.467-6.052-12.908-4.263-11.816-8.939-21.449-8.939-21.449z" fill="#058a5e"/><path clip-rule="evenodd" d="m284.799 293.327c11.238 1.027 20.357-.321 32.494-6.55.578-.321 1.284-.129 1.734.385-12.844 6.742-22.99 8.862-32.43 8.22-9.44-.578-18.238-3.918-20.935-5.587-.321-.193-.386-.642-.257-.964.129-.385.514-.513.835-.321 2.504 1.606 9.247 4.239 18.559 4.817z" fill="#0d6e4e" fill-rule="evenodd"/><path clip-rule="evenodd" d="m284.926 279.969c11.302 0 20.293-2.248 31.98-9.569.578-.385.578 1.349 1.028 1.799-12.394 7.898-21.642 9.375-31.081 9.632-9.44.257-18.431-2.184-21.192-3.596-.322-.129-.45-.578-.322-.963.129-.385.514-.514.771-.385 2.633 1.348 9.504 3.403 18.816 3.082z" fill="#0d6e4e" fill-rule="evenodd"/><path d="m322.944 258.263c1.027 0 3.468-.45 3.468.514 0 1.027-2.184 2.825-3.211 2.825s-3.789.064-3.789-.899c0-1.028 2.504-2.44 3.532-2.44z" fill="#0d6e4e"/><path d="m320.079 316.512c-3.02.402-4.074-.3-4.21-1.318-.135-1.018.887-1.997 3.719-2.374 3.02-.403 5.584.098 5.72 1.116.136 1.019-2.397 2.198-5.229 2.576z" fill="#0d6e4e"/><path d="m258.461 69.231h25.641v41.0256h-25.641z" fill="#69bd9f"/><path d="m296.168 50.3394h-44.646v-17.8643c0-.8507 0-1.7013.144-2.552 1.292-11.0588 10.91-19.5656 22.107-19.5656 11.342 0 20.816 8.365 22.108 19.4238.144.8507.144 1.7014.144 2.552zm-18.662 40.8325v8.0815c0 1.9846-1.579 3.5446-3.589 3.5446s-3.589-1.56-3.589-3.5446v-8.0815c-4.02-1.4178-6.891-5.2458-6.891-9.641 0-5.6712 4.738-10.2081 10.48-10.2081s10.48 4.5369 10.48 10.2081c-.144 4.3952-3.015 8.2232-6.891 9.641zm36.607-40.8325h-8.47v-17.8643c0-1.276-.143-2.4102-.143-3.6863-1.867-15.8793-15.504-27.7888-31.583-27.7888-16.222 0-29.86 11.9095-31.726 27.9306-.144 1.1343-.144 2.4103-.144 3.5445v17.8643h-8.47c-3.302 0-5.886 2.6938-5.886 5.9547v59.4059c0 3.261 2.728 5.813 5.886 5.813h80.536c3.302 0 5.886-2.694 5.886-5.813v-59.4059c0-3.2609-2.584-5.9547-5.886-5.9547z" fill="#69bd9f"/><path d="m296.168 51.3394h-44.646v-17.8643c0-.8507 0-1.7013.144-2.552 1.292-11.0588 10.91-19.5656 22.107-19.5656 11.342 0 20.816 8.365 22.108 19.4238.144.8507.144 1.7014.144 2.552zm-18.662 40.8325v8.0811c0 1.985-1.579 3.545-3.589 3.545s-3.589-1.56-3.589-3.545v-8.0811c-4.02-1.4178-6.891-5.2458-6.891-9.641 0-5.6712 4.738-10.2081 10.48-10.2081s10.48 4.5369 10.48 10.2081c-.144 4.3952-3.015 8.2232-6.891 9.641zm36.607-40.8325h-8.47v-17.8643c0-1.276-.143-2.4102-.143-3.6863-1.867-15.8793-15.504-27.7888-31.583-27.7888-16.222 0-29.86 11.9095-31.726 27.9306-.144 1.1343-.144 2.4103-.144 3.5445v17.8643h-8.47c-3.302 0-5.886 2.6938-5.886 5.9547v59.4059c0 3.261 2.728 5.813 5.886 5.813h80.536c3.302 0 5.886-2.694 5.886-5.813v-59.4059c0-3.2609-2.584-5.9547-5.886-5.9547z" fill="#69bd9f"/><path d="m296.168 55.3394h-44.646v-17.8643c0-.8507 0-1.7013.144-2.552 1.292-11.0588 10.91-19.5656 22.107-19.5656 11.342 0 20.816 8.365 22.108 19.4238.144.8507.144 1.7014.144 2.552zm-18.662 40.8325v8.0811c0 1.985-1.579 3.545-3.589 3.545s-3.589-1.56-3.589-3.545v-8.0811c-4.02-1.4178-6.891-5.2458-6.891-9.641 0-5.6712 4.738-10.2081 10.48-10.2081s10.48 4.5369 10.48 10.2081c-.144 4.3952-3.015 8.2232-6.891 9.641zm36.607-40.8325h-8.47v-17.8643c0-1.276-.143-2.4102-.143-3.6863-1.867-15.8793-15.504-27.7888-31.583-27.7888-16.222 0-29.86 11.9095-31.726 27.9306-.144 1.1343-.144 2.4103-.144 3.5445v17.8643h-8.47c-3.302 0-5.886 2.6938-5.886 5.9547v59.4059c0 3.261 2.728 5.813 5.886 5.813h80.536c3.302 0 5.886-2.694 5.886-5.813v-59.4059c0-3.2609-2.584-5.9547-5.886-5.9547z" fill="#69bd9f"/><path d="m296.168 56.3394h-44.646v-17.8643c0-.8507 0-1.7013.144-2.552 1.292-11.0588 10.91-19.5656 22.107-19.5656 11.342 0 20.816 8.365 22.108 19.4238.144.8507.144 1.7014.144 2.552zm-18.662 40.8325v8.0811c0 1.985-1.579 3.545-3.589 3.545s-3.589-1.56-3.589-3.545v-8.0811c-4.02-1.4178-6.891-5.2458-6.891-9.641 0-5.6712 4.738-10.2081 10.48-10.2081s10.48 4.5369 10.48 10.2081c-.144 4.3952-3.015 8.2232-6.891 9.641zm36.607-40.8325h-8.47v-17.8643c0-1.276-.143-2.4102-.143-3.6863-1.867-15.8793-15.504-27.7888-31.583-27.7888-16.222 0-29.86 11.9095-31.726 27.9306-.144 1.1343-.144 2.4103-.144 3.5445v17.8643h-8.47c-3.302 0-5.886 2.6938-5.886 5.9547v59.4059c0 3.261 2.728 5.813 5.886 5.813h80.536c3.302 0 5.886-2.694 5.886-5.813v-59.4059c0-3.2609-2.584-5.9547-5.886-5.9547z" fill="#69bd9f"/><path d="m296.168 49.3394h-44.646v-17.8643c0-.8507 0-1.7013.144-2.552 1.292-11.0588 10.91-19.56563 22.107-19.56563 11.342 0 20.816 8.36503 22.108 19.42383.144.8507.144 1.7014.144 2.552zm-18.662 40.8325v8.0815c0 1.9846-1.579 3.5446-3.589 3.5446s-3.589-1.56-3.589-3.5446v-8.0815c-4.02-1.4178-6.891-5.2458-6.891-9.641 0-5.6712 4.738-10.2081 10.48-10.2081s10.48 4.5369 10.48 10.2081c-.144 4.3952-3.015 8.2232-6.891 9.641zm36.607-40.8325h-8.47v-17.8643c0-1.276-.143-2.4102-.143-3.6863-1.867-15.8793-15.504-27.7888-31.583-27.7888-16.222 0-29.86 11.9095-31.726 27.9306-.144 1.1343-.144 2.4103-.144 3.5445v17.8643h-8.47c-3.302 0-5.886 2.6938-5.886 5.9547v59.4059c0 3.261 2.728 5.813 5.886 5.813h80.536c3.302 0 5.886-2.694 5.886-5.813v-59.4059c0-3.2609-2.584-5.9547-5.886-5.9547z" fill="#83f2ca"/></svg>