<svg height="222" viewBox="0 0 811 222" width="811" xmlns="http://www.w3.org/2000/svg"><g fill="none" fill-rule="evenodd"><g fill="#717592"><path d="m6.929 199.528h2.131c1.991 0 3.481-.393 4.47-1.179.989-.787 1.484-1.933 1.484-3.437 0-1.517-.415-2.64-1.243-3.363-.83-.725-2.128-1.087-3.897-1.087h-2.945zm14.623-4.846c0 3.287-1.028 5.8-3.081 7.542-2.055 1.74-4.976 2.611-8.764 2.611h-2.778v10.862h-6.476v-30.541h9.756c3.704 0 6.52.798 8.449 2.392 1.929 1.595 2.894 3.973 2.894 7.134z"/><path d="m35.932 198.714h2.089c2.047 0 3.558-.341 4.533-1.024.974-.682 1.463-1.754 1.463-3.217 0-1.449-.498-2.479-1.495-3.091-.996-.613-2.538-.92-4.626-.92h-1.964zm0 5.265v11.718h-6.476v-30.541h8.899c4.15 0 7.221.756 9.212 2.267 1.992 1.511 2.988 3.806 2.988 6.883 0 1.797-.494 3.394-1.484 4.795-.988 1.399-2.388 2.496-4.198 3.29 4.596 6.865 7.59 11.3 8.982 13.306h-7.186l-7.29-11.718z"/><path d="m59.839 215.697h6.475v-30.541h-6.475z"/><path d="m93.563 185.156h6.539l-10.383 30.541h-7.061l-10.361-30.541h6.538l5.745 18.174c.32 1.073.651 2.322.992 3.75s.554 2.42.638 2.977c.152-1.282.675-3.523 1.566-6.727z"/><path d="m121.021 202.996c-2.047-6.587-3.2-10.312-3.458-11.176-.257-.863-.441-1.546-.552-2.048-.46 1.784-1.777 6.192-3.948 13.224zm3.76 12.701-2.214-7.269h-11.134l-2.214 7.269h-6.978l10.78-30.666h7.917l10.821 30.666z"/><path d="m150.714 190.107c-2.438 0-4.324.916-5.661 2.747-1.337 1.832-2.006 4.383-2.006 7.657 0 6.809 2.556 10.215 7.667 10.215 2.144 0 4.742-.537 7.792-1.609v5.431c-2.507 1.045-5.306 1.567-8.398 1.567-4.443 0-7.84-1.347-10.194-4.042s-3.53-6.563-3.53-11.604c0-3.176.577-5.957 1.733-8.346s2.817-4.22 4.983-5.494c2.165-1.275 4.703-1.911 7.614-1.911 2.967 0 5.946.717 8.94 2.151l-2.089 5.265c-1.141-.543-2.291-1.017-3.446-1.421-1.156-.403-2.291-.606-3.405-.606"/><path d="m176.647 197.732 6.372-12.576h6.977l-10.132 18.655v11.886h-6.433v-11.677l-10.132-18.864h7.018z"/><path d="m201.724 211.206c-.725 2.814-1.951 6.148-3.677 10.006h-4.596c.904-3.704 1.609-7.199 2.11-10.486h5.849z"/><path d="m241.807 207.216c0 2.758-.993 4.93-2.978 6.517-1.984 1.588-4.745 2.382-8.282 2.382-3.259 0-6.142-.613-8.649-1.839v-6.015c2.061.919 3.805 1.566 5.233 1.942s2.733.565 3.917.565c1.421 0 2.51-.272 3.269-.816.759-.543 1.139-1.35 1.139-2.423 0-.598-.167-1.131-.502-1.597-.334-.467-.825-.916-1.473-1.348-.647-.432-1.966-1.121-3.958-2.068-1.867-.877-3.266-1.72-4.199-2.528-.933-.807-1.678-1.748-2.235-2.82s-.836-2.325-.836-3.76c0-2.702.916-4.826 2.747-6.372s4.362-2.318 7.594-2.318c1.588 0 3.102.187 4.544.563 1.441.376 2.948.907 4.522 1.588l-2.089 5.034c-1.63-.668-2.976-1.134-4.042-1.399-1.065-.265-2.114-.397-3.144-.397-1.226 0-2.165.286-2.821.857-.654.571-.981 1.315-.981 2.235 0 .572.132 1.069.396 1.493.265.425.687.836 1.265 1.233.577.397 1.945 1.111 4.105 2.141 2.854 1.366 4.811 2.734 5.87 4.105 1.057 1.372 1.588 3.054 1.588 5.045"/><path d="m267.07 215.697h-17.589v-30.541h17.589v5.306h-11.113v6.706h10.341v5.306h-10.341v7.876h11.113z"/><path d="m288.554 190.107c-2.438 0-4.325.916-5.661 2.747-1.337 1.832-2.006 4.383-2.006 7.657 0 6.809 2.555 10.215 7.667 10.215 2.144 0 4.742-.537 7.792-1.609v5.431c-2.507 1.045-5.306 1.567-8.398 1.567-4.443 0-7.841-1.347-10.194-4.042-2.355-2.695-3.53-6.563-3.53-11.604 0-3.176.577-5.957 1.733-8.346s2.816-4.22 4.982-5.494c2.165-1.275 4.704-1.911 7.615-1.911 2.967 0 5.946.717 8.94 2.151l-2.089 5.265c-1.141-.543-2.291-1.017-3.446-1.421-1.156-.403-2.291-.606-3.405-.606"/><path d="m329.842 185.156v19.762c0 2.256-.505 4.234-1.515 5.933s-2.469 3.002-4.377 3.906c-1.908.906-4.164 1.358-6.768 1.358-3.927 0-6.977-1.006-9.15-3.018-2.173-2.013-3.259-4.767-3.259-8.262v-19.679h6.456v18.697c0 2.353.473 4.081 1.42 5.18.947 1.101 2.514 1.651 4.701 1.651 2.116 0 3.651-.554 4.605-1.662.954-1.106 1.432-2.843 1.432-5.211v-18.655z"/><path d="m345.935 198.714h2.088c2.048 0 3.559-.341 4.534-1.024.974-.682 1.463-1.754 1.463-3.217 0-1.449-.499-2.479-1.495-3.091-.996-.613-2.538-.92-4.627-.92h-1.963zm0 5.265v11.718h-6.476v-30.541h8.899c4.15 0 7.221.756 9.212 2.267 1.992 1.511 2.988 3.806 2.988 6.883 0 1.797-.495 3.394-1.484 4.795-.988 1.399-2.388 2.496-4.198 3.29 4.596 6.865 7.59 11.3 8.982 13.306h-7.186l-7.29-11.718z"/><path d="m369.841 215.697h6.475v-30.541h-6.475z"/><path d="m397.926 215.697h-6.477v-25.151h-8.293v-5.39h23.063v5.39h-8.293z"/><path d="m422.563 197.732 6.371-12.576h6.977l-10.132 18.655v11.886h-6.433v-11.677l-10.132-18.864h7.018z"/><path d="m467.221 192.029c0-.738-.251-1.319-.752-1.744s-1.149-.638-1.943-.638c-.933 0-1.668.223-2.204.669s-.804 1.08-.804 1.901c0 1.225.661 2.577 1.984 4.053 1.198-.668 2.117-1.327 2.758-1.974.64-.648.961-1.403.961-2.267zm-7.499 14.811c0 1.198.449 2.151 1.346 2.862.899.71 2.051 1.066 3.458 1.066 1.755 0 3.335-.425 4.742-1.275l-6.935-6.893c-.809.612-1.445 1.253-1.912 1.921s-.699 1.442-.699 2.319zm23.668 8.857h-7.876l-2.403-2.36c-2.66 1.852-5.668 2.778-9.024 2.778-3.398 0-6.093-.78-8.084-2.34-1.991-1.559-2.987-3.67-2.987-6.33 0-1.907.421-3.533 1.263-4.877.843-1.343 2.288-2.601 4.335-3.771-1.045-1.197-1.803-2.343-2.277-3.436s-.71-2.288-.71-3.583c0-2.117.811-3.823 2.434-5.118 1.622-1.295 3.792-1.942 6.506-1.942 2.591 0 4.662.602 6.215 1.806 1.553 1.205 2.329 2.818 2.329 4.836 0 1.658-.48 3.172-1.441 4.544s-2.514 2.678-4.658 3.917l5.932 5.786c.99-1.628 1.846-3.725 2.57-6.288h6.643c-.502 1.88-1.19 3.716-2.068 5.505-.877 1.789-1.873 3.374-2.987 4.752z"/><path d="m514.219 198.547h12.116v15.834c-1.964.64-3.813 1.09-5.546 1.348-1.734.257-3.507.386-5.316.386-4.611 0-8.13-1.354-10.561-4.063-2.43-2.708-3.644-6.598-3.644-11.667 0-4.93 1.409-8.774 4.229-11.531s6.731-4.136 11.73-4.136c3.133 0 6.156.627 9.066 1.88l-2.151 5.18c-2.229-1.114-4.547-1.671-6.956-1.671-2.8 0-5.042.94-6.727 2.821-1.686 1.88-2.528 4.407-2.528 7.583 0 3.314.679 5.845 2.037 7.593 1.357 1.748 3.332 2.622 5.922 2.622 1.351 0 2.722-.14 4.116-.418v-6.371h-5.787z"/><path d="m541.176 200.385c0 3.412.647 5.981 1.942 7.709 1.295 1.726 3.231 2.59 5.808 2.59 5.167 0 7.75-3.433 7.75-10.299 0-6.88-2.57-10.32-7.708-10.32-2.577 0-4.52.868-5.829 2.601-1.309 1.734-1.963 4.307-1.963 7.719zm22.289 0c0 5.055-1.253 8.941-3.76 11.657-2.507 2.715-6.1 4.073-10.779 4.073-4.68 0-8.273-1.358-10.78-4.073-2.506-2.716-3.759-6.615-3.759-11.699 0-5.083 1.256-8.965 3.77-11.646 2.514-2.68 6.117-4.021 10.811-4.021 4.692 0 8.282 1.35 10.768 4.053 2.486 2.702 3.729 6.586 3.729 11.656z"/><path d="m589.355 185.156h6.54l-10.383 30.541h-7.061l-10.361-30.541h6.538l5.745 18.174c.32 1.073.651 2.322.992 3.75s.554 2.42.638 2.977c.152-1.282.675-3.523 1.566-6.727z"/><path d="m619.467 215.697h-17.589v-30.541h17.589v5.306h-11.113v6.706h10.34v5.306h-10.34v7.876h11.113z"/><path d="m634.453 198.714h2.089c2.048 0 3.559-.341 4.533-1.024.975-.682 1.463-1.754 1.463-3.217 0-1.449-.498-2.479-1.494-3.091-.996-.613-2.538-.92-4.627-.92h-1.964zm0 5.265v11.718h-6.475v-30.541h8.899c4.149 0 7.221.756 9.212 2.267s2.987 3.806 2.987 6.883c0 1.797-.494 3.394-1.483 4.795-.989 1.399-2.389 2.496-4.198 3.29 4.595 6.865 7.589 11.3 8.982 13.306h-7.187l-7.29-11.718z"/><path d="m685.453 215.697h-8.23l-13.286-23.104h-.188c.265 4.081.397 6.991.397 8.732v14.372h-5.787v-30.541h8.168l13.265 22.874h.146c-.209-3.968-.313-6.774-.313-8.418v-14.456h5.828z"/><path d="m710.217 202.996c-2.048-6.587-3.2-10.312-3.458-11.176-.258-.863-.442-1.546-.553-2.048-.46 1.784-1.776 6.192-3.948 13.224zm3.76 12.701-2.214-7.269h-11.135l-2.214 7.269h-6.977l10.779-30.666h7.917l10.821 30.666z"/><path d="m754.03 215.697h-8.23l-13.286-23.104h-.188c.265 4.081.397 6.991.397 8.732v14.372h-5.786v-30.541h8.167l13.265 22.874h.147c-.209-3.968-.314-6.774-.314-8.418v-14.456h5.828z"/><path d="m776.83 190.107c-2.437 0-4.324.916-5.661 2.747-1.337 1.832-2.006 4.383-2.006 7.657 0 6.809 2.556 10.215 7.667 10.215 2.145 0 4.742-.537 7.792-1.609v5.431c-2.507 1.045-5.306 1.567-8.397 1.567-4.444 0-7.841-1.347-10.195-4.042s-3.53-6.563-3.53-11.604c0-3.176.577-5.957 1.733-8.346 1.157-2.389 2.817-4.22 4.983-5.494 2.165-1.275 4.703-1.911 7.614-1.911 2.967 0 5.946.717 8.941 2.151l-2.089 5.265c-1.142-.543-2.291-1.017-3.447-1.421-1.156-.403-2.291-.606-3.405-.606"/><path d="m810.847 215.697h-17.589v-30.541h17.589v5.306h-11.114v6.706h10.341v5.306h-10.341v7.876h11.114z"/></g><path d="m64.131 125.917c-14.268 0-25.272-4.575-32.706-13.598-7.508-9.108-11.315-22.756-11.315-40.562 0-17.561 3.807-31.084 11.315-40.194 7.436-9.023 18.502-13.598 32.89-13.598 14.322 0 25.261 4.541 32.515 13.496 7.33 9.053 11.046 22.61 11.046 40.296 0 17.869-3.732 31.535-11.091 40.618-7.285 8.986-18.27 13.542-32.654 13.542zm.184-124.983c-20.264 0-36.148 6.262-47.21 18.614-11.021 12.302-16.608 29.806-16.608 52.025 0 22.399 5.571 40.025 16.558 52.388 11.031 12.416 26.871 18.712 47.076 18.712 19.778 0 35.462-6.405 46.619-19.038 11.107-12.578 16.739-30.032 16.739-51.878 0-21.907-5.616-39.361-16.694-51.88-11.125-12.57-26.763-18.943-46.48-18.943z" fill="#6abf4b"/><path d="m201.465 34.945c-7.138 0-13.717 1.43-19.552 4.252-5.02 2.428-9.137 5.752-12.269 9.903l-2.217-12.312h-15.217v104.041h18.322v-54.509c0-12.718 2.358-21.906 7.009-27.311 4.592-5.339 12.021-8.046 22.081-8.046 7.512 0 13.062 1.883 16.495 5.598 3.465 3.749 5.221 9.606 5.221 17.408v66.86h18.322v-67.413c0-13.271-3.258-23.112-9.684-29.251-6.408-6.118-16-9.22-28.511-9.22" fill="#6abf4b"/><path d="m308.107 50.778c7.588 0 13.239 2.341 17.276 7.156 3.824 4.562 5.867 11.18 6.081 19.686h-49.604c.997-8.184 3.672-14.708 7.961-19.407 4.567-5.003 10.548-7.435 18.286-7.435zm.185-15.833c-13.924 0-25.183 5.019-33.465 14.92-8.215 9.82-12.381 23.201-12.381 39.773 0 16.487 4.497 29.582 13.366 38.922 8.887 9.364 21.149 14.113 36.443 14.113 6.894 0 12.875-.523 17.777-1.554 4.904-1.031 10.164-2.751 15.635-5.114l.912-.393v-16.926l-2.105.901c-10.39 4.445-21.044 6.699-31.666 6.699-9.837 0-17.542-2.938-22.901-8.732-5.155-5.571-8.021-13.798-8.529-24.47h69.533v-11.188c0-13.957-3.849-25.38-11.44-33.953-7.639-8.625-18.129-12.998-31.179-12.998z" fill="#6abf4b"/><path d="m359.41 19.993h42.675v120.836h18.691v-120.836h42.675v-16.94h-104.041z" fill="#6abf4b"/><path d="m526 34.945c-6.605 0-12.751 1.885-18.266 5.604-4.651 3.138-8.766 7.445-12.263 12.83l-1.554-16.591h-15.514v104.041h18.323v-55.707c0-9.471 2.804-17.477 8.336-23.799 5.557-6.351 12.044-9.439 19.831-9.439 3.07 0 6.683.454 10.735 1.347l1.581.35 2.571-17.209-1.4-.29c-3.65-.755-7.815-1.137-12.38-1.137" fill="#6abf4b"/><path d="m623.572 91.39c0 12.66-2.345 21.852-6.971 27.32-4.561 5.394-11.973 8.129-22.027 8.129-7.511 0-13.062-1.884-16.495-5.598-3.464-3.747-5.22-9.604-5.22-17.408v-67.045h-18.508v67.597c0 13.214 3.244 23.008 9.639 29.113 6.374 6.088 16.013 9.175 28.649 9.175 7.317 0 13.939-1.383 19.681-4.11 4.965-2.358 9.051-5.655 12.179-9.819l1.972 12.085h15.423v-104.041h-18.322z" fill="#6abf4b"/><path d="m707.919 80.48c-8.612-3.213-14.495-5.693-17.487-7.369-2.863-1.602-4.948-3.286-6.197-5.007-1.201-1.655-1.786-3.625-1.786-6.025 0-3.464 1.574-6.118 4.813-8.115 3.429-2.114 8.682-3.186 15.613-3.186 7.996 0 17.074 2.071 26.984 6.154l1.368.564 6.641-15.196-1.403-.598c-10.525-4.484-21.454-6.757-32.483-6.757-11.94 0-21.507 2.497-28.435 7.422-7.089 5.04-10.682 12.013-10.682 20.726 0 4.857 1.045 9.114 3.108 12.651 2.047 3.506 5.182 6.668 9.323 9.395 4.038 2.662 10.885 5.799 20.336 9.32 9.697 3.735 16.271 6.988 19.539 9.666 3.07 2.518 4.563 5.437 4.563 8.924 0 4.693-1.868 8.082-5.711 10.36-4.045 2.399-9.988 3.615-17.664 3.615-5.015 0-10.301-.698-15.712-2.075-5.428-1.379-10.581-3.293-15.312-5.69l-2.194-1.11v17.535l.768.433c7.69 4.35 18.483 6.556 32.081 6.556 12.927 0 23.15-2.672 30.384-7.94 7.384-5.377 11.129-13.106 11.129-22.974 0-7.066-2.264-13.03-6.729-17.725-4.413-4.637-12.547-9.072-24.855-13.554" fill="#6abf4b"/><path d="m808.909 125.24c-1.412.412-3.365.817-5.806 1.202-2.422.386-4.978.582-7.596.582-4.63 0-8.149-1.431-10.76-4.378-2.622-2.955-3.952-7.331-3.952-13.007v-57.939h29.311v-14.912h-29.311v-23.411h-11.484l-6.575 21.977-14.734 6.475v9.871h14.471v58.585c0 21.491 10.37 32.388 30.821 32.388 2.64 0 5.651-.27 8.952-.803 3.408-.553 5.94-1.244 7.742-2.112l.855-.412v-14.669z" fill="#6abf4b"/></g></svg>