<svg fill="none" height="27" viewBox="0 0 40 27" width="40" xmlns="http://www.w3.org/2000/svg"><path d="m11.0007 11.7901c1.1565-1.4772 4.0077-1.4123 5.0001.7137.6832 1.4581.687 2.9467-.084 4.378-.9046 1.6756-2.981 1.981-4.2482 1.2596-.2901-.1641-.5344-.3817-.7634-.6565 0 .2366-.0114.4504.0038.6641.0115.1603-.0534.1871-.1946.1832-.4504-.0076-.90081-.0114-1.3512 0-.15649.0039-.19848-.0381-.19848-.1984.00382-2.6795.00382-5.3628.00382-8.0423 0-.38928-.06489-.45417-.45422-.45417-.44657 0-.44657 0-.44657-.44276 0-.33207.00381-.66033-.00382-.9924-.00382-.11069.03435-.14122.14123-.13741.55726.00382 1.11835-.00381 1.67564.00382.626.01145.916.31299.916.93896 0 .88934-.0076 1.77866-.0114 2.66806.0076.0267.0076.0496.0153.1145zm-.0497 2.9275c-.0114.3817.0726.8169.2748 1.2214.2978.6031.7749.9734 1.4581 1.0039.6603.0305 1.1794-.2557 1.542-.8054.542-.8206.5191-2.2329-.0458-3.0382-.7061-1.0077-2.21-.9695-2.8588.0763-.2787.4466-.3703.9504-.3703 1.542z" fill="#5b5378"/><path d="m19.6351.00381691c1.6719 0 3.3437.0038169 5.0116-.00381691.168 0 .2252.0343521.2252.217564-.0076 1.614556-.0076 3.229106 0 4.843656 0 .16031-.0267.22138-.2061.21756-.6527-.01145-1.3092-.00763-1.9619 0-.1488 0-.1908-.04198-.1908-.19084.0076-.92751 0-1.85502.0076-2.78253 0-.16413-.0496-.19848-.2023-.19466-1.7901.00382-3.584.00382-5.3742 0-.1641 0-.1985.04962-.1985.2023.0077.9275 0 1.85501.0077 2.78252 0 .13741-.0306.18703-.1794.18703-.668-.00763-1.3359-.00763-2.0001 0-.145 0-.1794-.04199-.1794-.18321.0038-1.626.0077-3.25201 0-4.881826 0-.1679442.0458-.20993019.21-.20993019 1.6756 0 3.355-.0038169 5.0306-.0038169z" fill="#718f40"/><path d="m19.6275 26.073c-1.6756 0-3.3551-.0038-5.0307.0038-.1526 0-.2023-.0343-.2023-.1946.0077-1.6261.0038-3.2521 0-4.8819 0-.1488.0344-.1946.1871-.1908.6603.0076 1.3206.0076 1.9809 0 .1527-.0038.1909.0458.1871.1908-.0077.9275 0 1.855-.0077 2.7826 0 .145.0306.1908.1871.1908 1.8054-.0076 3.6108-.0038 5.4123 0 .1489 0 .1756-.0458.1756-.1832-.0076-.9352 0-1.8665-.0076-2.8016 0-.1412.0343-.1832.1794-.1832.6679.0076 1.3359.0076 2 0 .1489 0 .1794.0458.1794.1832-.0038 1.6336-.0038 3.2672 0 4.9009 0 .1565-.0496.187-.1946.187-1.6795-.0038-3.3627-.0038-5.046-.0038z" fill="#718f40"/><g fill="#5b5378"><path d="m25.7506 12.2601c.2824-.439.6145-.8169 1.0687-1.0688.9123-.5114 1.8665-.5458 2.8245-.1565.7405.3016 1.0726.9352 1.2138 1.6833.0611.3206.0802.6412.0802.9657v2.6871c0 .3168.0801.3931.3893.4007.1565.0039.3626-.0687.458.0306.1031.1069.0306.313.0344.4771.0038.2977-.0038.5992.0038.897.0038.1259-.0382.1603-.1603.1565-.4962-.0077-.9924-.0039-1.4886-.0039-.8283 0-1.0878-.2595-1.0916-1.0992 0-1.1107 0-2.2253 0-3.336 0-.1908-.0115-.3817-.0497-.5687-.1374-.6527-.5572-.8855-1.1756-.855-1.1374.0534-1.8283.8626-1.9924 1.9504-.042.271-.0382.5458-.0382.8168 0 .9657-.0038 1.9314.0039 2.8971 0 .1641-.0458.1985-.1985.1946-.481-.0114-.9657-.0114-1.4466 0-.1451.0039-.1909-.0305-.1909-.187.0077-1.7329.0038-3.4696.0038-5.2024 0-.3436-.0687-.4123-.4084-.4161-.1068 0-.2175-.0076-.3244 0-.1183.0077-.1718-.0229-.168-.1565.0077-.4198.0077-.8397 0-1.2595-.0038-.1336.0497-.1565.168-.1565.4962.0038.9924.0038 1.4886.0038.7901 0 1.0993.3397 1.0191 1.126-.0115.0649-.0153.1221-.0229.1794z"/><path d="m4.73416 17.256c-.36643.6068-.86262 1.0191-1.53822 1.1603-1.01529.2137-1.93898.0343-2.664197-.7596-.736663-.8092-.870255-2.5382.660327-3.3321.66414-.3436 1.38172-.4924 2.11838-.5726.38551-.042.77102-.042 1.16034-.0572.10687-.0038.14504-.0382.14123-.1451-.00764-.2099-.02672-.416-.09161-.6183-.11832-.3626-.36642-.5878-.73666-.668-.35879-.0801-.71758-.0801-1.07255.0229-.32826.0993-.4275.2214-.41605.5611.00764.1871-.03435.2519-.23664.2443-.43895-.0191-.87789-.0076-1.31302-.0038-.122141 0-.167944-.0305-.16031-.1603.01145-.2099.007633-.4199.003816-.6298-.007633-.4237.171761-.7481.507654-.9886.4084-.2939.8817-.4046 1.37026-.4733.6985-.0954 1.39318-.084 2.08022.0916 1.11072.2825 1.78631 1.0726 1.88173 2.2138.08398 1.0153.02291 2.0306.03817 3.0459.00764.5687.01145.5802.57254.5802.31299 0 .31299 0 .31299.3092 0 .3702-.00382.7366.00381 1.1069.00382.1183-.03435.1488-.15267.1488-.5191-.0076-1.04202.0077-1.56112-.0076-.55345-.0153-.85499-.2977-.8817-.7977-.01145-.0802.0229-.1642-.02672-.271zm-.61834-2.2902c-.23665-.0038-.46948.0191-.70231.0496-.38933.0535-.77483.1298-1.11454.3474-.60689.3893-.56872 1.2443.08016 1.5649.47329.2328.94277.1832 1.37027-.1107.5878-.4046.87407-.9848.88933-1.6985.00382-.1336-.0458-.1603-.16412-.1527-.11833.0076-.24047 0-.35879 0z"/><path d="m37.4297 14.9661c-.7825 0-1.5612.0076-2.3436-.0038-.1871-.0038-.2061.0611-.1756.2175.2557 1.2711 1.3245 1.8932 2.5535 1.7215.5916-.0802 1.1107-.3397 1.5764-.71.0878-.0687.1221-.0725.1794.0306.1985.3473.4046.6908.6183 1.0267.0687.1069.0611.168-.0381.2481-.6985.5535-1.4886.8932-2.3742.981-1.0153.0992-1.9809-.0687-2.8283-.668-1.1527-.8168-1.6451-1.9695-1.5916-3.3551.0496-1.2901.5381-2.3664 1.6527-3.0917 1.1794-.7672 2.9161-.771 3.9848-.0229.7443.523 1.126 1.2673 1.2901 2.1413.084.4542.0764.9084.042 1.3665-.0114.1412-.0916.1221-.1794.1221-.7901-.0038-1.5802-.0038-2.3664-.0038zm-.9085-1.2825c.481 0 .9657-.0038 1.4466 0 .0993 0 .1451-.0152.1375-.1336-.0306-.5916-.4657-1.1565-1.0382-1.2939-.7558-.1794-1.7558.1489-2.0879 1.2634-.042.145 0 .1641.1336.1641.4695-.0038.939 0 1.4084 0z"/></g><g fill="#718f40"><path d="m20.6889 14.6453c0 1.1679-.0038 2.3359.0038 3.5039 0 .1412-.0305.1832-.1756.1794-.5916-.0076-1.1794-.0076-1.771 0-.1374 0-.168-.0382-.168-.1718.0038-2.3436.0038-4.6871 0-7.0307 0-.1298.0306-.1718.168-.1718.5916.0077 1.1794.0077 1.771 0 .1489-.0038.1756.042.1756.1832-.0076 1.1718-.0038 2.3398-.0038 3.5078z"/><path d="m19.6233 7.30959c.6413-.00382 1.1642.51528 1.168 1.15652.0038.63743-.5191 1.16798-1.1565 1.17179-.6374.00382-1.1642-.51528-1.168-1.15652-.0038-.64506.5153-1.16797 1.1565-1.17179z"/></g></svg>