<?xml version="1.0" encoding="UTF-8"?>
<svg xmlns="http://www.w3.org/2000/svg" width="596" height="182" viewBox="0 0 596 182" fill="none">
  <path d="M113.04 98.19L106.04 137.96L99.04 98.19H78.53L95.7 156.96V180.44H116.24V157.44L133.55 98.19H113.04ZM297.72 131.25C289.23 127.98 287.01 126.2 286.85 121.31C286.62 114.37 288.78 112.49 293.26 112.49C298.14 112.49 300.31 115.15 299.13 125.52L317.3 123.96C317.09 116.49 316.13 111.1 314.15 107.51C310.07 100.33 302.7 96.85 292.96 96.85C277.15 96.85 269.16 104.67 269.16 121.65C269.16 134.82 275.05 141.47 288.92 146.34C299.73 150.35 301.86 150.55 301.86 157.74C301.86 164.52 299.33 166.27 294.01 166.27C288.04 166.27 285.96 163.25 286.22 153.15L267.59 154.03C268.04 161.04 268.88 166.97 270.89 170.56C275.05 178.21 283.11 181.92 293.42 181.92C309.93 181.92 319.6 174.13 319.6 156.54C319.61 140.33 312.42 137.06 297.72 131.25ZM253.15 103.91C251.97 102.84 250.73 101.94 249.4 101.2C248.08 100.46 246.61 99.89 244.99 99.47C243.37 99.06 241.52 98.75 239.43 98.55C237.34 98.35 234.89 98.24 232.1 98.24H228.36H211.97H209.77V180.44H211.97H228.36H237.72C240.88 180.44 243.61 180.03 245.93 179.21C248.24 178.39 250.39 177.07 252.37 175.27C259.79 168.45 263.5 156.13 263.5 138.3C263.5 130.08 262.64 123.08 260.91 117.29C259.19 111.49 256.6 107.04 253.15 103.91ZM241.62 161.84C240.23 163.99 237.48 165.06 233.34 165.06H228.37V113.24H233.34C237.56 113.24 240.38 114.59 241.85 117.3C242.7 119.13 243.37 121.94 243.88 125.72C244.38 129.5 244.63 134.06 244.63 139.39C244.63 151.02 243.62 158.5 241.62 161.84ZM177.13 98.24H173.01H160.27L144.53 180.44H164.18L166.59 165.15H183.56L185.97 180.44H205.62L189.88 98.24H177.13ZM169.01 149.76L175.07 111.32L181.13 149.76H169.01ZM56.34 98.24H48.77L38.2 146.08L27.62 98.24H20.05H14.22H1.66V180.44H20.06V122.55L33.95 180.44H34.39H42H42.44L56.34 122.55V180.44H74.74V98.24H62.17H56.34ZM94.15 31.99H78.78V1.39H60.19V83.59H78.78V49.98H94.15V83.59H112.74V1.39H94.15V31.99ZM138.42 1.39H121.97V83.59H136.93H140.56H163.47V65.25H140.56V48.69H160.88V33.29H140.56V19.74H164.95V1.39H140.56H138.42ZM40.52 3.41C36.88 1.15 32.45 0 27.35 0C18.43 0 11.53 3.76 6.86 11.17C2.31 18.39 0 29 0 42.71C0 70.82 9.04 85.07 26.88 85.07C31.48 85.07 35.46 84.18 38.73 82.41C47.66 77.58 51.69 66.91 51.4 53.5L34.45 52.14C34.95 65.24 32.48 68.29 27.35 68.29C25.94 68.29 24.81 67.98 23.91 67.33C23.03 66.7 22.3 65.52 21.75 63.83C21.14 61.97 20.7 59.41 20.43 56.23C20.15 53 20.01 48.86 20.01 43.92C20.01 38.5 20.15 33.93 20.43 30.34C20.7 26.8 21.17 23.96 21.81 21.89C22.41 19.99 23.19 18.64 24.14 17.88C25.07 17.14 26.19 16.78 27.58 16.78C33.99 16.78 35.27 23.38 34.39 34.74L51.97 33.23C52.26 17.89 48.5 8.38 40.52 3.41ZM210.27 3.41C206.63 1.15 202.2 0 197.09 0C188.17 0 181.27 3.76 176.6 11.17C172.05 18.39 169.74 29 169.74 42.71C169.74 70.82 178.78 85.07 196.62 85.07C201.22 85.07 205.2 84.18 208.47 82.41C217.4 77.58 221.43 66.91 221.14 53.5L204.21 52.13C204.71 65.23 202.24 68.28 197.11 68.28C195.7 68.28 194.57 67.97 193.67 67.32C192.79 66.69 192.06 65.51 191.51 63.82C190.9 61.96 190.46 59.4 190.19 56.22C189.91 52.99 189.77 48.85 189.77 43.91C189.77 38.49 189.91 33.92 190.19 30.33C190.46 26.79 190.93 23.95 191.57 21.88C192.17 19.98 192.95 18.63 193.9 17.87C194.83 17.13 195.95 16.77 197.34 16.77C203.75 16.77 205.03 23.37 204.15 34.73L221.73 33.22C222 17.89 218.25 8.38 210.27 3.41ZM287.78 83.6C281.39 67.41 272.74 52.8 262.35 40.35C270.97 29.15 278.23 16 283.76 1.4H262.35C258.86 11.4 254.2 20.56 248.61 28.58V1.39H230.02V83.59H248.61V52.47C256.03 61.61 262.13 72.11 266.56 83.6H287.78Z" fill="white"></path>
  <path d="M534.72 5.69012L513.56 172.8L574.56 180.52L595.72 13.4101L534.72 5.69012ZM474.29 1.37012L423.45 161.96L482.07 180.52L532.91 19.9401L474.29 1.37012ZM410.75 5.98012L318.24 146.74L369.63 180.51L462.14 39.7501L410.75 5.98012Z" fill="#FC483A"></path>
</svg>
