<svg width="222" height="62" viewBox="0 0 222 62" fill="none" xmlns="http://www.w3.org/2000/svg">
<g clip-path="url(#clip0_2975_1600)">
<path fill-rule="evenodd" clip-rule="evenodd" d="M31 62C48.1208 62 62 48.1208 62 31C62 13.8792 48.1208 0 31 0C13.8792 0 0 13.8792 0 31C0 48.1208 13.8792 62 31 62Z" fill="#DE5833"/>
<path fill-rule="evenodd" clip-rule="evenodd" d="M35.3592 54.1289C35.3592 53.8867 35.4186 53.8315 34.6488 52.297C32.6028 48.1998 30.5464 42.4235 31.4816 38.6983C31.6521 38.0215 29.5545 13.6348 28.0716 12.8495C26.4235 11.9711 24.3956 10.5778 22.5407 10.2678C21.5997 10.1172 20.3657 10.1885 19.4011 10.3185C19.2297 10.3415 19.2226 10.6497 19.3864 10.7052C20.0197 10.9198 20.7887 11.2923 21.2419 11.8555C21.3276 11.9621 21.2125 12.1298 21.0758 12.1349C20.6486 12.1507 19.8736 12.3298 18.8512 13.1982C18.7329 13.2987 18.8311 13.4852 18.9833 13.4551C21.1807 13.0203 23.4248 13.2345 24.7474 14.4366C24.8332 14.5146 24.7883 14.6546 24.6764 14.685C13.1995 17.8039 15.4715 27.7874 18.5268 40.039C21.2482 50.9519 22.2723 54.4693 22.5952 55.5409C22.6265 55.6447 22.6994 55.7268 22.8001 55.767C26.7508 57.3402 35.3592 57.41 35.3592 54.7344V54.1289Z" fill="#DDDDDD"/>
<path fill-rule="evenodd" clip-rule="evenodd" d="M59.457 31C59.457 46.7164 46.7164 59.457 31 59.457C15.2836 59.457 2.54297 46.7164 2.54297 31C2.54297 15.2836 15.2836 2.54297 31 2.54297C46.7164 2.54297 59.457 15.2836 59.457 31ZM24.3588 56.1805C23.5725 53.7513 21.3748 46.7105 19.2042 37.8128C19.1319 37.5163 19.0596 37.2212 18.9878 36.9276L18.986 36.9203C16.3585 26.1884 14.2126 17.423 25.9741 14.6693C26.0816 14.6441 26.1342 14.5156 26.063 14.4311C24.7135 12.8302 22.1855 12.3055 18.9889 13.4083C18.8578 13.4535 18.744 13.3213 18.8254 13.209C19.4523 12.345 20.6772 11.6807 21.2819 11.3895C21.4069 11.3293 21.3993 11.1463 21.2669 11.1049C20.8714 10.981 20.1979 10.7915 19.4403 10.6693C19.2611 10.6403 19.2449 10.3332 19.4248 10.309C23.9565 9.69925 28.6887 11.0598 31.0634 14.0511C31.0858 14.0793 31.1181 14.099 31.1533 14.1065C39.8491 15.974 40.4718 29.7203 39.47 30.3464C39.2726 30.4698 38.6396 30.399 37.8047 30.3056C34.4212 29.927 27.721 29.1774 33.2509 39.4832C33.3055 39.585 33.2332 39.7197 33.119 39.7375C30.0114 40.2207 33.9692 49.926 36.9032 56.363C48.4383 53.6889 57.0352 43.3484 57.0352 31C57.0352 16.6212 45.3788 4.96484 31 4.96484C16.6212 4.96484 4.96484 16.6212 4.96484 31C4.96484 43.0836 13.1969 53.2445 24.3588 56.1805Z" fill="white"/>
<path d="M40.8232 43.9319C40.1612 43.6251 37.6158 45.4506 35.9264 46.8518C35.5733 46.3523 34.9076 45.9892 33.4059 46.2503C32.0915 46.4788 31.3659 46.7957 31.0422 47.3421C28.9677 46.5555 25.4777 45.3417 24.6345 46.514C23.7129 47.7954 24.8649 53.8574 26.0889 54.6444C26.728 55.0554 29.785 53.0904 31.3814 51.7354C31.6389 52.0983 32.0536 52.306 32.906 52.2862C34.1952 52.2563 36.2862 51.9563 36.6108 51.3559C36.6305 51.3195 36.6474 51.2763 36.6619 51.2272C38.3027 51.8405 41.1905 52.4895 41.8357 52.3926C43.5169 52.1401 41.6015 44.2925 40.8232 43.9319Z" fill="#3CA82B"/>
<path d="M36.0812 47.0311C36.1509 47.1552 36.2068 47.2862 36.2544 47.4193C36.4883 48.0734 36.8694 50.1546 36.5812 50.6686C36.293 51.1827 34.4212 51.431 33.2665 51.4509C32.1118 51.4708 31.8518 51.0485 31.6179 50.3943C31.4308 49.871 31.3387 48.6405 31.3409 47.936C31.2936 46.891 31.6754 46.5236 33.4402 46.238C34.7462 46.0267 35.4367 46.2725 35.8353 46.6931C37.6894 45.3093 40.783 43.3564 41.0847 43.7133C42.5892 45.493 42.7794 49.7295 42.4536 51.434C42.3471 51.9912 37.3653 50.8819 37.3653 50.281C37.3653 47.7857 36.7179 47.1011 36.0812 47.0311Z" fill="#4CBA3C"/>
<path d="M25.1684 46.2519C25.5764 45.6061 28.8852 46.4092 30.7015 47.2175C30.7015 47.2175 30.3283 48.9085 30.9225 50.9007C31.0963 51.4834 26.7438 54.077 26.1757 53.6308C25.5191 53.1151 24.3108 47.6092 25.1684 46.2519Z" fill="#4CBA3C"/>
<path fill-rule="evenodd" clip-rule="evenodd" d="M26.7706 33.1344C27.0383 31.9703 28.2854 29.7767 32.7386 29.83C34.99 29.8206 37.7866 29.829 39.6407 29.6184C42.3964 29.3054 44.4419 28.6388 45.805 28.1192C47.7327 27.3838 48.4167 27.5478 48.6566 27.9879C48.9201 28.4714 48.6096 29.3063 47.936 30.0749C46.6494 31.543 44.3365 32.6805 40.2515 33.0182C36.1665 33.3558 33.4602 32.26 32.2953 34.0441C31.7928 34.8135 32.1813 36.6269 36.1317 37.198C41.47 37.9684 45.8542 36.2697 46.3959 37.2956C46.9376 38.3216 43.8172 40.409 38.4702 40.4527C33.1233 40.4964 29.7836 38.5806 28.5992 37.6283C27.0966 36.4202 26.4242 34.6581 26.7706 33.1344Z" fill="#FFCC33"/>
<g opacity="0.8">
<path d="M33.5803 20.4053C33.8785 19.9169 34.5399 19.54 35.6222 19.54C36.7045 19.54 37.2137 19.9706 37.5662 20.4509C37.6379 20.5486 37.5292 20.6636 37.418 20.6155C37.3913 20.6039 37.3642 20.5921 37.3367 20.5801C36.9408 20.4072 36.4548 20.1949 35.6222 20.1831C34.7317 20.1704 34.1702 20.3934 33.8166 20.5857C33.6974 20.6505 33.5096 20.521 33.5803 20.4053Z" fill="#14307E"/>
<path d="M21.3953 21.0301C22.4462 20.5909 23.2722 20.6477 23.8561 20.7858C23.979 20.8149 24.0645 20.6826 23.9662 20.6033C23.5129 20.2377 22.4986 19.7839 21.1757 20.2772C19.9956 20.7172 19.4393 21.6315 19.436 22.2326C19.4353 22.3743 19.7267 22.3863 19.8021 22.2664C20.0058 21.9423 20.3443 21.4693 21.3953 21.0301Z" fill="#14307E"/>
<path fill-rule="evenodd" clip-rule="evenodd" d="M36.5415 27.0861C35.6124 27.0861 34.8588 26.3346 34.8588 25.4096C34.8588 24.4846 35.6124 23.7331 36.5415 23.7331C37.4706 23.7331 38.2243 24.4846 38.2243 25.4096C38.2243 26.3346 37.4706 27.0861 36.5415 27.0861ZM37.7267 24.8542C37.7267 24.6147 37.5305 24.4206 37.291 24.4206C37.0515 24.4206 36.8574 24.6147 36.8554 24.8542C36.8554 25.0937 37.0515 25.2878 37.291 25.2878C37.5326 25.2878 37.7267 25.0937 37.7267 24.8542Z" fill="#14307E"/>
<path fill-rule="evenodd" clip-rule="evenodd" d="M25.3926 26.5699C25.3926 27.6497 24.5151 28.5252 23.4312 28.5252C22.3493 28.5252 21.4697 27.6497 21.4697 26.5699C21.4697 25.49 22.3493 24.6146 23.4312 24.6146C24.513 24.6146 25.3926 25.49 25.3926 26.5699ZM24.8145 25.9216C24.8145 25.6428 24.5874 25.4157 24.3066 25.4157C24.0278 25.4157 23.8007 25.6408 23.7987 25.9216C23.7987 26.2003 24.0258 26.4274 24.3066 26.4274C24.5874 26.4274 24.8145 26.2003 24.8145 25.9216Z" fill="#14307E"/>
</g>
<path d="M128.497 28.3308H125.687L120.572 33.5899V23.0717H118.411V41.0103H120.572V35.1028L126.408 40.9382L126.48 41.0103H128.929H129.073V40.7942L122.518 34.3103L128.497 28.3308Z" fill="#333333"/>
<path d="M114.596 37.9374C113.804 38.7299 112.651 39.1621 111.354 39.1621C109.121 39.1621 106.888 37.7933 106.888 34.6234C106.888 31.9579 108.761 30.0847 111.354 30.0847C112.507 30.0847 113.588 30.517 114.452 31.3095L114.524 31.3815L115.893 29.9407L115.821 29.8686C114.524 28.6439 113.011 28.0676 111.282 28.0676C107.32 28.0676 104.654 30.7331 104.654 34.6234C104.654 39.1621 107.968 41.1793 111.282 41.1793H111.354C113.083 41.1793 114.74 40.5309 115.893 39.3062L115.965 39.2341L114.524 37.7933L114.596 37.9374Z" fill="#333333"/>
<path d="M99.8988 35.1292C99.8988 37.4345 98.3139 39.1635 96.0806 39.2356C93.7032 39.2356 92.2623 37.7947 92.2623 35.3453V28.3572H90.1011V35.3453C90.1011 38.9474 92.2623 41.2528 95.6483 41.2528H95.7204C97.3774 41.2528 98.8902 40.4603 99.8988 39.2356L99.9709 39.0915L100.043 41.0366H102.06V28.3572H99.8988V35.1292Z" fill="#333333"/>
<path d="M78.5559 22.9993H72V41.0099H78.5559C84.8236 41.0099 87.5612 36.3992 87.5612 31.8605C87.5612 27.61 84.7515 22.9993 78.5559 22.9993ZM85.3278 31.7885C85.3278 35.2465 83.2386 38.7045 78.6279 38.7045H74.3054V25.2326H78.5559C83.1666 25.2326 85.3278 28.6186 85.3278 31.7885Z" fill="#333333"/>
<path d="M197.505 33.1558H203.052V37.3343C201.683 38.4869 200.026 39.1353 198.225 39.1353C193.326 39.1353 191.093 35.6053 191.093 32.1472C191.093 28.6171 193.326 24.7989 198.153 24.7989C200.098 24.7989 201.899 25.5193 203.34 26.8161L203.412 26.8881L204.709 25.3752L204.637 25.3032C202.908 23.5742 200.603 22.7097 198.081 22.7097C195.343 22.7097 193.038 23.5742 191.381 25.3032C189.652 27.0322 188.716 29.4816 188.788 32.2192C188.788 36.4697 191.237 41.3686 198.153 41.3686C198.225 41.3686 198.225 41.3686 198.297 41.3686C200.891 41.3686 203.34 40.288 205.069 38.3428V31.2107H197.433V33.1558H197.505Z" fill="#333333"/>
<path d="M137.71 22.9993H131.154V41.0099H137.71C143.977 41.0099 146.715 36.3992 146.715 31.8605C146.715 27.61 143.905 22.9993 137.71 22.9993ZM144.482 31.7885C144.482 35.2465 142.392 38.7045 137.782 38.7045H133.531V25.2326H137.782C142.32 25.2326 144.482 28.6186 144.482 31.7885Z" fill="#333333"/>
<path d="M213.951 28.0676C210.133 28.0676 207.395 30.8772 207.395 34.6955C207.395 38.5137 210.133 41.2513 213.951 41.2513C217.769 41.2513 220.579 38.5137 220.579 34.6955C220.579 30.8052 217.841 28.0676 213.951 28.0676ZM218.418 34.6955C218.418 37.361 216.545 39.2341 213.951 39.2341C211.43 39.2341 209.557 37.361 209.557 34.6955C209.557 31.9579 211.358 30.0127 214.023 30.0127C216.545 30.0848 218.418 32.0299 218.418 34.6955Z" fill="#333333"/>
<path d="M159.053 35.1292C159.053 37.4345 157.468 39.1635 155.234 39.2356C152.857 39.2356 151.416 37.7947 151.416 35.3453V28.3572H149.255V35.3453C149.255 38.9474 151.416 41.2528 154.73 41.2528H154.802C156.459 41.2528 157.972 40.4603 158.981 39.2356L159.053 39.0915L159.125 41.0366H161.142V28.3572H158.981V35.1292H159.053Z" fill="#333333"/>
<path d="M173.75 37.9374C172.957 38.7299 171.805 39.1621 170.508 39.1621C168.275 39.1621 166.041 37.7933 166.041 34.6234C166.041 31.9579 167.915 30.0847 170.508 30.0847C171.661 30.0847 172.741 30.517 173.606 31.3095L173.678 31.3815L175.047 29.9407L174.975 29.8686C173.678 28.6439 172.165 28.0676 170.436 28.0676C166.474 28.0676 163.808 30.7331 163.808 34.6234C163.808 39.1621 167.122 41.1793 170.436 41.1793H170.508C172.237 41.1793 173.894 40.5309 175.047 39.3062L175.119 39.2341L173.678 37.7933L173.75 37.9374Z" fill="#333333"/>
<path d="M187.651 28.3308H184.841L179.726 33.5899V23.0717H177.565V41.0103H179.726V35.1028L185.562 40.9382L185.634 41.0103H188.083H188.227V40.7942L181.671 34.3103L187.651 28.3308Z" fill="#333333"/>
</g>
<defs>
<clipPath id="clip0_2975_1600">
<rect width="222" height="62" fill="white"/>
</clipPath>
</defs>
</svg>