<svg fill="none" height="40" viewBox="0 0 151 40" width="151" xmlns="http://www.w3.org/2000/svg"><path d="m37.7932 18.7717c-.565.1978-1.1442.3532-1.7234.5086-1.5115.4096-3.0372.7628-4.5629 1.0453-.0706.0142-.1271.0283-.1977.0424 0 .0706.0706.0706.0989.0989.4237.339.9323.4379 1.455.5227.8193.113 1.6104.339 2.4156.5368 1.1584.2825 2.2744.6639 3.4045 1.0736.9323.339 1.907.5509 2.8959.7204.1978.0283.3955-.0141.5792-.0423.7346-.1272 1.4409-.3815 2.1472-.6357 1.4268-.5086 2.8394-1.1019 4.2662-1.6104.3955-.1413.7911-.2826 1.2007-.3673.0565-.0142.0989-.0142.1554-.0283.1837-.0141.2261.0141.2826.1837.0847.2401.0988.4803.1271.7345.0424.664 0 1.3138-.1413 1.9636 0 .0141-.0141.0283-.0282.0424-.7628-.0989-1.5257-.0424-2.2885-.0424-4.6759 0-9.3517 0-14.0276 0-.4379 0-.8758 0-1.3137.0424-.0565 0-.1272 0-.1272.0847-.0423 0-.0706 0-.113-.0141-1.1866-.2966-2.4015-.5085-3.6022-.6922-.8617-.1412-1.7093-.2401-2.571-.339-.777-.0848-1.5681-.1554-2.345-.1978-.4945-.0282-1.003-.0565-1.4974-.0847-.7346-.0424-1.4692-.0707-2.1896-.1131-.0565 0-.113-.0141-.1837-.0141-.4803-.0282-.9606-.0565-1.4268-.0706-.1412 0-.2825.0424-.3955.1413-.1978.1836-.2543.452-.1271.7204.1554.3532.3108.6922.4096 1.0595-.1554-.0424-.3107-.0424-.4661-.0424-.3391 0-.664 0-1.003 0-.113 0-.226.0141-.3108.0989-.0706-.0706-.0848-.1554-.1271-.2402-.1413-.2966-.3108-.5933-.4662-.8899-.113-.1837-.2825-.2543-.4944-.226-.1978.0282-.3108.1553-.3814.339-.0707.1836-.0283.3673.0706.5368.1695.2966.3531.6074.4662.9323-1.5681 0-3.1361 0-4.7041 0-.0566 0-.1131 0-.1837 0s-.0989.0424-.113.113c-.0706-.0706-.1271-.1412-.1978-.2118-.72042-.7205-1.79403-.89-2.71225-.438-.29666.1413-.55093.3673-.77696.5933-.09888-.0565-.21189-.0565-.32491-.0565-1.44089 0-2.86766 0-4.30856 0-.22602 0-.45205.0142-.66394-.0423.28252-.3532.62156-.6499.96059-.9324.87584-.7346 1.77994-1.4268 2.75466-2.0201 1.01711-.6215 2.06246-1.1583 3.16433-1.5963.0565-.0282.12713-.0565.18364-.0847.28253 0 .56506-.0141.84759-.0141.08476 0 .18364.0141.2684.0141 1.00301 0 2.00591.0141 2.99481.0141.1554 0 .3108.0565.4662 0 .0847.0283.1836.0141.2684.0141.9606 0 1.9353.0142 2.8959.0142 1.0454 0 2.0907 0 3.1502.0282.3249.0141.2966.0283.2966-.2825s0-.6357 0-.9465c0-.2543-.0141-.2401.2543-.2401.3108 0 .6075 0 .9182-.0142.9183.0142 1.8224.0142 2.7406 0 .8758.0142 1.7375.0142 2.6134 0 .5368 0 1.0877.0142 1.6245.0142.3532 0 .7205 0 1.0736-.0142.0424 0 .0848.0142.1413.0142h4.4781c.0565 0 .0989 0 .1554-.0142.0847 0 .1695.0142.2401.0142h3.3762c.2402.0141.2402.0141.2543.2966z" fill="#5b59a7"/><path d="m32.3848 23.6484c.0141-.0847.0706-.0847.1271-.0847.438-.0424.8759-.0424 1.3138-.0424h14.0276c.7628 0 1.5256-.0565 2.2885.0424-.0283.3108-.1554.6074-.2684.9041-.1413.3955-.325.7628-.551 1.116-.1977.339-.226.7204-.2119 1.1159.0142.4662.1413.9041.2684 1.3562.0565.226.1413.4379.1695.6781-.0988 0-.1977 0-.2966 0-3.3339 0-6.6677 0-10.0157 0-.0847 0-.1836 0-.2684.0141-.678-.0141-1.3561-.0141-2.0201 0-.3107-.0141-.6215-.0141-.9464 0-.1554-.0141-.2967-.0141-.4521 0-.5933-.0141-1.2007-.0141-1.794 0-.6498-.0141-1.2855-.0141-1.9354 0-.0847 0-.1695-.0141-.2401-.0141-1.1584 0-2.3309 0-3.4892 0-.113 0-.2402 0-.3532.0141-.0848 0-.1836-.0141-.2684-.0141-1.0736 0-2.1331 0-3.2067 0-.3532 0-.3532 0-.3532.3531v.9889c0 .113-.0423.1554-.1554.1554-.113 0-.226 0-.339.0141-.0989 0-.1978-.0141-.2966-.0141-1.2149 0-2.4157 0-3.6305 0 .226-.9465.4661-1.8789.5226-2.8677.0283-.5368.0142-1.0595-.0988-1.5822-.1413-.7345-.3532-1.4409-.6075-2.1331-.0282-.0706-.0847-.1412-.0424-.2401.0989-.0283.2119-.0141.3108-.0141.4944.0282.9889.0565 1.4833.0847.5227.0283 1.0453.0565 1.568.0848.89.0424 1.7941.0847 2.6841.1836.5933.0565 1.1724.113 1.7658.1978.6639.0847 1.3137.1978 1.9777.2966.9182.1413 1.8364.3108 2.7546.5227 1.7941.4097 3.5458.9465 5.2692 1.5681 1.455.5368 2.8677 1.1583 4.2803 1.8223.3673.1695.7487.339 1.1301.4944.2543.0989.5368-.0283.6498-.2967.1413-.339.0142-.678-.3249-.8475-.339-.1554-.678-.3108-1.0171-.4662-.6639-.2967-1.3137-.6075-1.9777-.89-.8193-.3531-1.6528-.6781-2.4862-.9888-1.1867-.438-2.3874-.8052-3.5882-1.1584-.4379-.1271-.8899-.2402-1.3561-.3532z" fill="#4f58a7"/><path d="m4.45508 6.32517c.04238-.05651.11301-.09889.16952-.14127.67806-.46617 1.37026-.90409 2.10484-1.28551.56505-.29665 1.13011-.56505 1.72342-.79108 1.08774-.39554 2.18964-.62156 3.34794-.66394 1.1443-.04238 2.2885-.12714 3.4328-.12714.1554 0 .226-.08476.3107-.18364.551-.70632 1.1302-1.38439 1.7658-2.00596.2967-.282527.6075-.536803.9324-.776953.452-.3249084.9182-.4096672 1.4691-.310782 2.2603.43792 4.5064.974725 6.7101 1.624545.9747.28253 1.9353.59331 2.8394 1.03123.1837.08476.3673.19777.551.31078.1553.11301.2966.25428.3955.42379.1978.35316.4803.63569.7769.91822.2685.2684.6075.40967.9324.59331.1413.08476.3249.08476.4944.11301 1.8223.29666 3.6023.74871 5.3398 1.35614.0283.01413.0565.02826.0707.04238-.0707.08476-.1837.05651-.2685.05651-3.4044 0-6.8089 0-10.2275 0-.0706 0-.1413 0-.1978 0-.0847.01413-.1695.02825-.1836.12714-.3108-.02826-.6216-.05651-.9324-.09889-.4238-.0565-.8617-.09888-1.2855-.12714-.2684-.02825-.5368-.02825-.8052-.04238-.5792-.04238-1.1442-.09888-1.7093-.11301-.5085-.02825-1.0171-.07063-1.5115-.08476-.7063-.02825-1.3985-.07063-2.1048-.11301-.325-.01412-.551.09889-.7064.36729-.0989-.08476-.226-.09888-.3531-.09888-4.2521 0-8.50415 0-12.74209 0-.12714.01412-.22602.01412-.33903 0z" fill="#9763a9"/><path d="m49.3925 9.67278c-.0141.11302-.113.19777-.1554.31079-.1554.42383-.1272.86173-.0706 1.28553.0706.4238.2118.8334.3107 1.2572.0283.0989.0707.1837.0565.2826-.0988 0-.2119 0-.3107 0-3.8142 0-7.6283 0-11.4283 0-.0989 0-.1978 0-.2967.0141-.0565 0-.113-.0141-.1836-.0141-1.4692 0-2.9383 0-4.4075 0-.0565 0-.113 0-.1836.0141-.551-.0283-1.0878-.0141-1.6387-.0141-.4097 0-.3532-.0565-.3532.3531v.9606c0 .113-.0423.1695-.1554.1554-.0565 0-.113 0-.1836 0-.452 0-.9182 0-1.3703.0141-.8758-.0141-1.7375-.0141-2.6134 0-.4379 0-.8758-.0141-1.3137-.0141-.4803 0-.9465 0-1.4268.0141-.0565 0-.0989-.0141-.1554-.0141-1.342 0-2.684 0-4.0401 0 .0706-.3108.1412-.6074.226-.9182.1271-.5086.226-1.0312.2825-1.568.0424-.4521.0706-.89.0565-1.3421.1695.0142.3249-.0423.4944-.0423h15.8782c.0989 0 .1977 0 .2825.0282.1695.0424.3249.0141.4662-.0847.0565.0141.0989.0282.1554.0423.5791.2261 1.1583.438 1.7093.7064.2401.1271.5085.1977.7628.3107.452.1978.9041.4238 1.3561.6357.4097.1837.8335.3814 1.2432.5651.113.0424.2119.0989.339.0565.2543-.0565.3955-.2402.4379-.4803.0565-.2543-.0706-.5227-.2966-.6498-.0707-.0424-.1413-.0707-.2261-.113-.5792-.2543-1.1442-.5227-1.7093-.7911-.3531-.1695-.7063-.3108-1.0595-.4662-.3107-.1413-.6215-.28252-.9323-.42378.0141-.05651.0424-.09889.0989-.09889h.1836 9.8744c.1413.01413.226.02825.2967.02825z" fill="#7e5ea8"/><path d="m15.6308 24.5329c-.1271-.3249-.2967-.6356-.4662-.9323-.0989-.1695-.1412-.339-.0706-.5368.0706-.1695.1836-.3108.3814-.339.2119-.0283.3814.0423.4944.226.1695.2966.3249.5792.4662.89.0424.0847.0565.1695.1271.2401.0142.0424.0283.0989.0565.1413.2119.4944.4097.9888.551 1.4974.1554.5933.2684 1.2007.226 1.8223-.0565.8334-.226 1.6245-.4944 2.4015-.0283.0706-.0707.1412-.0424.2401h1.5539c-.1695.6922-.3673 1.3703-.5933 2.0342-.0848.2402-.1554.4803-.1271.7487-.3673.3108-.7487.6075-1.116.9183-.4097.339-.8052.6922-1.2149 1.0171-.4662.3814-.9465.7628-1.3985 1.1725-.0424.0423-.0848.0847-.1554.0847-.1695-.226-.3249-.4803-.3956-.7628-.1554-.0141-.3249.0141-.4803.0424-.4944.0847-1.0029.1412-1.5115.1977-.6498.0565-1.2996.0707-1.94944.0848-.57918.0141-1.14424-.0989-1.69517-.2543-1.00298-.2825-1.96358-.6639-2.91005-1.0877-1.04536-.4803-2.06246-1.0171-3.00894-1.6811-.4803-.339-.90409-.7063-1.29963-1.1301-.04238-.0424-.098886-.0989-.098886-.1695.04238-.0424.098886-.0565.169518-.0706.706318-.1837 1.398518-.3956 2.048338-.7205.19777-.0989.36729-.226.49442-.4096h.22603 12.10641c.0706 0 .1553 0 .226-.0142 0 .0424-.0141.0848-.0283.1272-.0565.1271-.113.2401-.1554.3673-.0847.2542.0565.5509.2967.6498.2543.0989.4944 0 .6216-.2684.113-.2261.226-.4662.3107-.7205.0565-.1412.0424-.1554-.0989-.1554-.3107 0-.6215 0-.9464-.0141.0282-.113.113-.2119.1554-.3249.2542-.6498.4379-1.2996.5085-1.9918.0424-.4097.0565-.8335-.0282-1.2573-.0989-.5085-.2402-1.003-.4521-1.4691-.113-.1696-.1412-.3956-.2825-.5934z" fill="#d5a7cd"/><path d="m37.5118 12.8227c.0989 0 .1978-.0141.2967-.0141h11.4283.3107c.2119.7204.2261 1.4409-.0282 2.1613-.0848.2543-.1837.5086-.2402.777-.1271.6498-.0565 1.2996.1554 1.9212.113.339.2543.6498.3956.9747.0989.226.1977.4521.2684.6922.0282.0848.0424.1695.0424.2684 0 .2825-.1131.4097-.3956.3956-.226-.0142-.4662-.0565-.6922-.0989-.7346-.1837-1.455-.4238-2.1613-.664-1.1584-.4096-2.3026-.8476-3.4751-1.2148-.4662-.1554-.9465-.2967-1.4268-.3956-.3249-.0706-.6357-.0141-.9465.0989-.8758.2967-1.7658.5792-2.6416.8758-.2119.0707-.4097.1272-.6216.1837-.0141-.2825-.0141-.2825-.2966-.2825-1.1302 0-2.2461 0-3.3763 0-.0847 0-.1695 0-.2401-.0142.0141-.113.0706-.1977.1271-.2825.5086-.7487 1.003-1.5115 1.5257-2.2602.6639-.9606 1.2855-1.9354 1.9353-2.896.0424-.0847.0565-.1412.0565-.226z" fill="#f2696d"/><path d="m49.5901 28.7734c.1695.7064.1977 1.4127-.0707 2.0908-.4238 1.0453-.3249 2.0624.0989 3.0795.1413.3249.2825.664.4238.9889.0706.1695.1271.339.1271.5226 0 .2684-.0988.3673-.3672.3673s-.5369-.0565-.7911-.113c-1.0595-.2684-2.0766-.6498-3.0937-1.003-1.0878-.3814-2.1755-.8052-3.2915-1.1159-.2119-.0565-.4238-.1131-.6357-.1413-.2119-.0424-.4238-.0424-.6498.0282-.6498.1696-1.2714.4097-1.8929.6216-2.1896.7487-4.4216 1.3703-6.6818 1.8223-.1554.0283-.3108.0848-.4803.0848 0-.0707.0423-.1272.0988-.1695.1554-.1413.2967-.2684.4521-.3956.3249-.2825.6639-.5509 1.003-.8334.2119-.1696.4238-.3532.6357-.5368.3249-.2684.6356-.5368.9606-.7911.226-.1837.4661-.3814.6922-.5651.2118-.1836.4379-.3673.6498-.5509.3249-.2684.6498-.5509.9747-.8193.3249-.2685.6498-.5369.9747-.8053.2967-.2542.6075-.5085.9041-.7628.3532-.2966.7205-.5792 1.0595-.89.0848-.0847.1695-.113.2825-.113z" fill="#f2696d"/><path d="m15.7145 30.2008c-.0706 0-.1554.0141-.226.0141-4.0402 0-8.06619 0-12.10636 0-.07063 0-.15539 0-.22602 0 0-.1554-.09889-.2543-.19777-.339-.18364-.1554-.39554-.2684-.60744-.3815-.66394-.339-1.356137-.6074-2.048333-.8475-.042379-.0142-.084758-.0424-.127138-.0424-.1412643-.0283-.1553908-.113-.16951723-.2402-.05650577-1.0595.29665523-1.9777.83346023-2.8535.226028-.3673.480298-.7063.776958-1.003.22602.0565.43792.0424.66394.0424h4.30857c.11301 0 .22602 0 .32491.0565-.07064.113-.16952.2119-.2119.339-.12714.1413-.2119.2967-.2119.4945-.0565.0988-.14126.1977-.0565.3107-.07064.3956-.05651.777.09888 1.1443.01413.0424-.01412.0989.05651.113-.02826.1271.04238.226.11301.3249.04238.0706.07063.1413.12714.2119.46617.6216 1.08773.9323 1.87882.9182.60743-.0141 1.14424-.1695 1.58218-.5792.678-.6074.9464-1.3702.7487-2.2884-.0707-.3532-.226-.6499-.4238-.9465.0141-.0707.0424-.113.113-.113h.1836 4.7041c.1413.1836.1837.4238.2685.6357.2118.4661.3531.9606.452 1.4691.0848.4097.0706.8335.0283 1.2573-.0707.6922-.2543 1.342-.5086 1.9918-.0424.113-.113.1978-.1413.3108z" fill="#4f58a7"/><path d="m3.14152 14.2758c-.01413-.1413-.12714-.2119-.22603-.2967-.28253-.226-.60743-.3814-.93234-.5227-.57919-.2542-1.158372-.4944-1.751683-.6922-.1553906-.0565-.22602285-.1412-.22602285-.2966-.02825295-.4662.05650585-.9041.18364385-1.3562.084759-.2825.183644-.565.339035-.8334.098885.0282.19777.0424.310782.0424h5.311545c.15539 0 .22602-.0565.2684-.1837-.01412.2684.05651.5368.14127.7911.01412.0424-.01413.0989.0565.113-.02825.1271.04238.226.11301.3249.14127.2967.36729.5227.62157.7205.43792.3249.94647.4379 1.48328.4096.87584-.0565 1.53982-.4379 1.99182-1.1866.1271-.2119.1978-.4379.2684-.6639h.2967 4.9725c.0141.0706.0424.1412.0424.2119.0282.565 0 1.116-.1131 1.6669-.113.5227-.2684 1.0171-.4661 1.5115-.0848.226-.0848.226.1695.226h.7911c-.0424.1131-.0707.2402-.113.3532-.0565.113-.1272.226-.1696.339-.0565.1413-.1412.2543-.2684.3391-.0988.0141-.1836.0565-.2825.0282-.2966-.0706-.4944-.3955-.3955-.6922.0423-.113.0847-.226.1412-.3531-.0282-.0142-.0565-.0283-.0706-.0283-.8335 0-1.6528 0-2.4863 0-.0847 0-.1836-.0141-.2684-.0141-1.0171 0-2.02 0-3.03715 0-.18364 0-.36728 0-.56505.0141-.08476 0-.18365-.0141-.26841-.0141-1.85056 0-3.687 0-5.53757 0-.12713.0565-.22602.0565-.3249.0424z" fill="#7e5ea8"/><path d="m16.3373 10.6469c-1.6528 0-3.3198 0-4.9726 0-.0988 0-.1977 0-.2966 0 .0424-.3249.0565-.6357 0-.96059-.1837-.91822-.9324-1.66692-1.85058-1.86469-.93235-.18364-1.89295.22603-2.41562 1.01711-.1554.15539-.24015.35316-.28253.56505-.05651.12714-.15539.24015-.07064.38142-.07063.11301-.01412.2401-.04237.3532-.04238.1412-.11302.1836-.26841.1836-1.7658-.0141-3.54574 0-5.311543 0-.113012 0-.211897-.0282-.310782-.0424.183644-.4379.452046-.81931.748705-1.20072.55093-.72045 1.229-1.31376 1.96357-1.8647.40967-.29665.79108-.62156 1.229-.88996h.31079 12.74201c.1272 0 .2543 0 .3532.09888-.0424.28253.0283.52268.1554.79108.2401.50856.4097 1.03124.5792 1.56804.0706.24015.1695.4803.1836.73458-.4096 0-.8334 0-1.2431 0-.1413 0-.2684.01412-.3955.0565-.0424-.0565-.0565-.14126-.0848-.2119-.2684-.86171-.6639-1.66692-1.1019-2.44387-.113-.2119-.4096-.31078-.6215-.2119-.2684.11301-.3814.53681-.2261.79108.4662.76283.8194 1.58217 1.0737 2.42975.0706.24014.1412.48034.1554.72044z" fill="#8d60a8"/><path d="m49.3922 9.67305c-.0847 0-.1695 0-.2401 0-3.2915 0-6.5829 0-9.8744 0-.0565 0-.113 0-.1836 0-.0707 0-.0848.04238-.0989.09888-.0707 0-.1272-.02825-.1978-.0565-.8617-.35317-1.7234-.67807-2.5993-.97473-1.6528-.56506-3.3338-1.03123-5.0572-1.38439-.89-.18365-1.7658-.33904-2.6699-.46617-.5086-.07064-1.0171-.1554-1.5257-.22603.0141-.09888.0989-.11301.1837-.12714h.1977 10.2276c.0989 0 .1977.04238.2684-.0565.2966.07063.5792.19777.8617.29665.89.31079 1.8082.52268 2.7405.6922.2826.05651.5651.01413.8476-.05651.5792-.12713 1.1584-.31078 1.7234-.50855.0707-.02825.1413-.04238.2119-.07063.0707.08476.1695.04238.2543.04238h5.806c.0141.39554-.0848.77695-.1695 1.14424-.1413.59331-.3673 1.14424-.7064 1.6528z" fill="#8d60a8"/><path d="m27.7648 28.729c.113 0 .2401-.0142.3531-.0142h3.4892c.0848 0 .1696 0 .2402.0142.0141.0989-.0565.1695-.1271.226-.2261.1978-.4521.3814-.6781.5792-.226.1836-.4521.3673-.664.5509-.2401.1978-.4661.3956-.6922.5933-.3249.2826-.6639.551-1.0029.8335-.2119.1695-.4238.3531-.6357.5368-.3249.2684-.6357.5368-.9606.7911-.2119.1836-.4379.3673-.6498.5509-.4097.339-.8194.6781-1.2149 1.003-.3108.2543-.6074.5227-.9182.7769-.3108.2684-.6357.5227-.9465.777-.3108.2684-.6216.5368-.9323.7911-.3108.2684-.6357.5226-.9465.7769-.3108.2684-.6216.5368-.9324.7911-.3673.2967-.7204.5933-1.0877.9041-.0565.0424-.0989.0989-.0848.1695-.5791-.0141-1.1583-.1271-1.7234-.2543-.4944-.113-.9747-.2684-1.4268-.5226-.0141-.0848.0283-.1413.0848-.1978.0848-.0989.2119-.1695.3108-.2543.2966-.2684.6074-.5227.9182-.7769.3249-.2826.6639-.551 1.003-.8194.2119-.1695.4238-.3531.6357-.5368.3249-.2684.6498-.5368.9606-.7911.2119-.1836.4379-.3673.6498-.5509l.9747-.8052c.2967-.2543.6074-.5086.9041-.7628.339-.2826.6781-.5651 1.0171-.8476.2119-.1837.4379-.3673.6498-.5509.3249-.2826.664-.551 1.003-.8335.2119-.1695.4238-.3532.6357-.5368.3249-.2684.6357-.5368.9606-.7911.226-.1836.4379-.3814.6639-.5509.0707-.0707.1413-.1554.1696-.2684z" fill="#f289b6"/><path d="m49.5895 28.776c-2.8818 0-5.7636 0-8.6454 0-.113 0-.1977.0282-.2825.113-.339.3108-.7063.5933-1.0595.89-.3108.2542-.6074.5085-.9041.7628-.3249.2684-.6498.5368-.9747.8052s-.6498.5509-.9747.8193c-.2119.1837-.4379.3673-.6498.551-.2261.1836-.4521.3814-.6922.565-.3249.2684-.6498.5368-.9606.7911-.2119.1695-.4238.3532-.6357.5368-.3391.2825-.664.5509-1.003.8335-.1554.1271-.2967.2684-.452.3955-.0565.0424-.0989.0848-.0989.1695-.3391.113-.7064.1554-1.0454.2119-.7911.1554-1.5963.2826-2.3874.3956-.2119.0282-.4237.0847-.6498.0706.0424-.1836.1978-.2684.3249-.3814.2402-.2119.4803-.3956.7205-.5933.2119-.1695.4238-.3532.6357-.5368l.9747-.8052c.2119-.1837.4379-.3673.6498-.551.3108-.2684.6357-.5227.9465-.7769.3108-.2543.6074-.5227.9182-.777.3249-.2825.664-.5509 1.003-.8193.2119-.1695.4238-.3532.6357-.5368.3249-.2684.6357-.5368.9606-.7911.226-.1836.4661-.3814.6922-.5651.2401-.2119.5227-.3955.7487-.6357.0847-.0847.1554-.113.2684-.113h1.1442c.0707 0 .1554.0283.2119-.0423.0848 0 .1837-.0142.2684-.0142h10.0157.2966c0-.0141 0 0 0 .0283z" fill="#f26c79"/><path d="m27.7651 28.7301c-.0283.113-.0848.1978-.1837.2684-.226.1836-.452.3673-.6639.5509-.3249.2684-.6357.5368-.9606.7911-.2119.1695-.4238.3532-.6357.5368-.3249.2825-.6639.5509-1.003.8335-.2119.1836-.4379.3673-.6498.5509-.339.2825-.678.5651-1.0171.8476-.2966.2543-.6074.5085-.9041.7628-.3249.2684-.6498.5368-.9747.8052-.2119.1837-.4379.3673-.6498.551-.3249.2684-.6357.5368-.9606.791-.2119.1696-.4238.3532-.6357.5368-.3249.2826-.664.551-1.003.8194-.3108.2543-.6215.5085-.9182.7769-.0989.0848-.226.1554-.3108.2543-.0565.0565-.0989.113-.0847.1978-.4662-.2402-.8618-.5792-1.2432-.9324-.0424-.0423-.0706-.0847-.113-.1271 0-.0848.0565-.1271.1272-.1836.1271-.0989.2542-.1978.3814-.3108.3108-.2684.6215-.5368.9323-.7911.3108-.2684.6357-.5227.9465-.777.3108-.2684.6215-.5368.9323-.791.3108-.2684.6357-.5227.9465-.777.3108-.2684.6216-.5368.9324-.7911.3107-.2684.6356-.5227.9464-.7769.3108-.2684.6216-.5368.9324-.7911.3955-.339.8052-.6498 1.2007-.9889.0989-.0847.226-.1695.2684-.3107.113 0 .226-.0142.3391-.0142.113 0 .1553-.0424.1553-.1554 0-.3249 0-.6639 0-.9888 0-.3532 0-.3532.3532-.3532h3.2067c.1271-.0282.2119-.0141.3108-.0141z" fill="#e398c2"/><path d="m3.14231 14.2773c.09889 0 .19777.0142.29666.0142h5.53756c.08476 0 .18365 0 .26841.0141.02825.1271-.07063.226-.12714.3249-.93235 1.3844-1.85057 2.7829-2.78291 4.1673-.05651.0989-.12714.1837-.14127.2967-.84758-.3391-1.68104-.7064-2.48625-1.1302-.84759-.452-1.68105-.9464-2.42975-1.568-.2684-.226-.536805-.4379-.734575-.7204-.084759-.1272-.084759-.1413.070632-.1837.466173-.1412.932343-.2684 1.384393-.4379.32491-.1271.64982-.2543.94647-.452.11301-.0707.19777-.1696.19777-.325z" fill="#d5a7cd"/><path d="m6.17969 19.096c.01412-.113.08476-.2119.14126-.2967.93235-1.3844 1.85057-2.7829 2.78291-4.1673.07063-.0989.15539-.1836.12714-.3249.18364 0 .36729-.0141.56506-.0141h3.03714c.0848 0 .1837 0 .2684.0141.0142.113-.0282.1978-.0988.2967-.1413.2118-.2826.4379-.438.6498-.9747 1.455-1.9494 2.91-2.91001 4.365-.04237.0707-.12713.1413-.11301.2402-.28253 0-.56506.0141-.84758.0141-.19777-.0989-.40967-.0989-.62157-.1554-.63569-.1695-1.27138-.3955-1.89294-.6215z" fill="#dca1c8"/><path d="m19.3465 39.3807c-.0141-.0706.0282-.113.0847-.1695.3532-.3108.7205-.6075 1.0878-.9041.3108-.2543.6215-.5368.9323-.7911.3108-.2684.6357-.5227.9465-.777.3108-.2684.6216-.5368.9323-.791.3108-.2684.6357-.5227.9465-.777s.6075-.5227.9182-.7769c.4097-.3391.8194-.6781 1.2149-1.003.2119-.1837.4379-.3673.6498-.551.3249-.2684.6357-.5368.9606-.791.2119-.1696.4238-.3532.6357-.5368.3249-.2826.664-.551 1.003-.8335.2401-.1978.4662-.3955.6922-.5933.226-.1837.452-.3673.6639-.5509.2261-.1837.4521-.3815.6781-.5792.0706-.0565.1413-.1272.1271-.2261.6499-.0141 1.2855-.0141 1.9354 0-.0565.1696-.2119.2684-.3391.3815-.2401.2119-.4803.3955-.7204.5933-.2119.1695-.4238.3531-.6357.5368-.3249.2825-.664.5509-.9889.8334-.2966.2543-.5933.4945-.8899.7487-.3249.2684-.6498.5368-.9748.8052-.2966.2543-.6074.5086-.904.7629-.325.2684-.6499.5368-.9748.8052-.2119.1836-.4379.3673-.6498.5509-.3249.2684-.6357.5368-.9606.7911-.2401.1978-.4944.4097-.7346.6216-.2119.1695-.4238.3531-.6356.5368-.0566.0565-.1272.113-.1131.2119-.3249.0282-.6498-.0424-.9888-.0283-.0706 0-.1413-.0141-.2402.0283.113.3531.2684.678.2826 1.0453-.113.0141-.1978.0989-.2826.1695-.339.2826-.6922.5651-1.0171.8476-.0989.0848-.226.1554-.226.3108-.3108.0565-.6074.0989-.9182.1271-.4238.0424-.8476.0424-1.2714.0283-.0565-.0283-.1413-.0141-.226-.0565z" fill="#f281a9"/><path d="m23.443 30.2299c-.0424.1412-.1695.226-.2684.3108-.3956.339-.8052.6639-1.2008.9888-.3108.2684-.6215.5368-.9323.7911-.3108.2684-.6357.5227-.9465.7769-.3108.2684-.6216.5369-.9323.7911-.3108.2684-.6357.5227-.9465.777-.3108.2684-.6216.5368-.9324.7911-.3107.2684-.6357.5226-.9464.7769-.3108.2684-.6216.5368-.9324.7911-.1271.0989-.2543.2119-.3814.3108-.0565.0424-.113.0989-.1271.1836-.2684-.2119-.4662-.4944-.664-.7769-.1412-.1837-.2684-.3673-.3673-.5792.0707 0 .113-.0424.1554-.0848.4521-.4096.9324-.7911 1.3985-1.1725.4097-.339.8053-.678 1.2149-1.0171.3673-.3108.7487-.6074 1.116-.9182.0565.0706.113.1271.1695.1978.2543.2966.6922.1554.8194-.1272.0282-.0706.0565-.1412.0847-.2119.2684-.8758.551-1.7516.7628-2.6416h3.6305c.0283.0283.1272.0283.2261.0424z" fill="#dca1c8"/><path d="m38.9947 28.7293c-.0565.0566-.1413.0424-.2119.0424-.3814 0-.7628 0-1.1443 0-.113 0-.1836.0283-.2684.113-.226.2402-.4944.4238-.7487.6357-.226.1978-.452.3814-.6922.5651-.3249.2684-.6356.5368-.9605.7911-.2119.1695-.4238.3531-.6357.5368-.3249.2825-.664.5509-1.003.8193-.3108.2543-.6075.5227-.9182.777-.3108.2684-.6357.5226-.9465.7769-.2119.1837-.4379.3673-.6498.5509-.3249.2684-.6498.5368-.9748.8053-.2118.1695-.4237.3531-.6356.5368-.2402.1977-.4803.3955-.7205.5933-.1271.113-.2825.1977-.3249.3814-.1413.0706-.3108.0424-.4662.0706-.5368.0565-1.0736.0989-1.6104.113-.0141-.1554.113-.2119.2119-.2966.1413-.113.2825-.2261.4097-.3391.3108-.2542.6074-.5226.9182-.7769.3108-.2684.6357-.5227.9465-.777.2966-.2401.5933-.4944.8899-.7487.3249-.2825.664-.5509 1.003-.8334.2119-.1696.4238-.3532.6357-.5368.3108-.2543.6357-.5227.9465-.777.3249-.2684.6498-.5509.9747-.8193.3249-.2826.6639-.551 1.003-.8194.226-.1836.452-.3673.678-.5509.2543-.226.5227-.4097.7629-.6498.0565-.0565.113-.0989.1271-.1837.1554-.0141.2967-.0141.4521 0 .0423.0424.0988.0424.1412.0424h.6498c.0565 0 .0989 0 .1413-.0424.6781-.0141 1.342-.0141 2.0201 0z" fill="#f2768f"/><path d="m35.5758 28.7314c0 .0847-.0706.1271-.1271.1836-.2402.2402-.5086.4379-.7628.6498-.2119.1978-.4521.3673-.6781.551-.339.2684-.6639.5509-1.003.8193-.3249.2684-.6498.5509-.9747.8193-.3108.2684-.6357.5227-.9465.777-.2119.1695-.4238.3532-.6357.5368-.339.2825-.6639.5509-1.0029.8335-.2967.2542-.5934.4944-.89.7487-.3108.2542-.6357.5226-.9465.7769s-.6215.5227-.9182.777c-.1413.113-.2825.226-.4097.339-.0989.0848-.2119.1413-.2119.2967-.6074.0423-1.229.0706-1.8364.0423-.0141-.0988.0565-.1554.113-.2119.2119-.1836.4238-.3531.6357-.5368.2401-.2119.4944-.4096.7346-.6215.3249-.2684.6357-.5368.9606-.7911.2119-.1837.4379-.3673.6498-.5509l.9747-.8052c.2967-.2543.6075-.5086.9041-.7629l.9747-.8052c.2967-.2543.5933-.4944.89-.7487.3249-.2825.6639-.5509.9888-.8334.2119-.1696.4238-.3532.6357-.5369.2402-.1977.4803-.3955.7205-.5933.1271-.113.2684-.2119.339-.3814.6216.0142 1.229.0142 1.8223.0283z" fill="#f27b9b"/><path d="m50.2673 6.877c-1.9353 0-3.8707 0-5.806 0-.0848 0-.1836.02825-.2543-.04238.1978-.09889.4097-.15539.6075-.22603 1.0453-.39554 2.0907-.8052 3.136-1.20074.551-.2119 1.1019-.40967 1.6811-.55094.4662-.11301.5368-.07063.6357.40967 0 .04238.0141.07063.0141.11301 0 .4803.0141.98885-.0141 1.49741z" fill="#9763a9"/><path d="m21.7891 39.2537c0-.1554.1271-.2261.226-.3108.339-.2825.6781-.5651 1.0171-.8476.0847-.0706.1695-.1554.2825-.1695.113.3531.0848.7063.0848 1.0595 0 .0847-.0565.0989-.1272.113-.3955.0989-.791.1412-1.1866.1412-.113.0142-.1978.0142-.2966.0142z" fill="#f27b9b"/><path d="m32.384 23.6441c.452.113.9182.226 1.3702.3531 1.2149.3391 2.4156.7205 3.5881 1.1584.8335.3108 1.667.6357 2.4863.9889.6639.2825 1.3279.5933 1.9777.8899.339.1554.6781.2967 1.0171.4662.339.1554.4662.5086.3249.8476-.113.2543-.3814.3955-.6498.2966-.3814-.1553-.7628-.3249-1.1301-.4944-1.3985-.6639-2.8112-1.2855-4.2803-1.8223-1.7235-.6216-3.4751-1.1584-5.2692-1.568-.9041-.2119-1.8364-.3673-2.7547-.5227-.6498-.0989-1.3137-.2119-1.9777-.2967-.5791-.0847-1.1725-.1412-1.7658-.1977-.8899-.0989-1.794-.1413-2.684-.1837-.5227-.0282-1.0453-.0706-1.568-.0847-.4945-.0142-.9889-.0565-1.4833-.0848-.0989 0-.2119-.0282-.3108.0141-.0424.0848.0141.1696.0424.2402.2543.6922.452 1.4126.6074 2.1331.0989.5227.1272 1.0453.0989 1.5821-.0424.9748-.2966 1.9212-.5227 2.8677-.3814.0141-.7487.0141-1.1301 0 .226-.9182.4803-1.8223.551-2.7688.0565-.5933.0141-1.1866-.1272-1.7517-.1412-.5509-.3108-1.1018-.5085-1.6386-.0989-.3673-.2684-.7205-.4097-1.0595-.113-.2684-.0706-.5368.1271-.7205.113-.0988.2402-.1553.3956-.1412.4803.0282.9606.0424 1.4267.0706.0566 0 .1131.0141.1837.0141.7346.0283 1.4691.0565 2.1896.1131.4944.0282 1.003.0565 1.4974.0847.7769.0565 1.568.113 2.345.1978.8617.0989 1.7234.1977 2.571.339 1.2149.1837 2.4156.3956 3.6022.6922.0989-.0141.1413-.0282.1696-.0141z" fill="#d5a7cd"/><path d="m16.2074 15.3242c.1271-.0848.2119-.1978.2684-.339.0424-.113.113-.2261.1695-.3391.1836-.0423.226-.1836.2401-.339.4803-.0141.9606-.0141 1.4409 0 .0142.0141.0283.0282.0424.0282 0 .0424 0 .0707-.0141.1131-.1271.4238-.2543.8617-.3814 1.2855-.0848.2684-.1695.5368-.2543.8052-.113.3673.1837.8193.5651.7628.2401-.0282.3814-.1695.452-.3955.2825-.8618.5368-1.7376.7628-2.6134h.0142 4.0401c.0565 0 .0989 0 .1554.0141.0283.1413-.0706.226-.1271.3249-.8052 1.2149-1.6104 2.4156-2.4156 3.6305-.0424.0706-.0989.1413-.0989.226-.3108 0-.6075 0-.9182.0142-.2684 0-.2543-.0142-.2543.2401v.9465c0 .3108.0282.2966-.2967.2825-1.0453-.0283-2.0907-.0283-3.1502-.0283-.9606 0-1.9353-.0141-2.8959-.0141-.0848 0-.1836.0141-.2684-.0141 0-.0989.0565-.1695.0989-.2402.9041-1.342 1.794-2.684 2.684-4.0401.0706-.113.1554-.1837.1413-.3108z" fill="#f289b6"/><path d="m37.5127 12.8227c0 .0707-.0141.1413-.0565.2119-.6498.9606-1.2714 1.9353-1.9353 2.8959-.5086.7487-1.003 1.5116-1.5257 2.2603-.0565.0847-.113.1695-.1271.2825-.0565 0-.0989.0141-.1554.0141-1.4974 0-2.9807 0-4.4781 0-.0424 0-.0847 0-.1412-.0141-.0142-.1271.0706-.2119.1412-.2967 1.1301-1.7093 2.2744-3.4044 3.4045-5.1137.0565-.0707.0989-.1554.0989-.2402.0565 0 .113-.0141.1836-.0141h4.4075c.0706 0 .1271.0141.1836.0141z" fill="#f26c79"/><path d="m16.2096 15.3218c.0141.113-.0706.1978-.1271.2825-.89 1.342-1.7941 2.6982-2.684 4.0402-.0566.0706-.1131.1413-.0989.2401-.1554.0424-.3108 0-.4662 0-1.003 0-2.006 0-2.99481-.0141-.08476 0-.18364-.0141-.2684-.0141-.01413-.0989.0565-.1695.11301-.2402.9747-1.455 1.9494-2.91 2.91-4.365.1413-.2119.2826-.438.438-.6499.0565-.0847.0989-.1836.0989-.2966h2.4862c.0141 0 .0424.0141.0706.0282-.0423.1272-.0988.2402-.1412.3532-.0989.2967.0989.6216.3955.6922.0848 0 .1695-.0424.2684-.0565z" fill="#e398c2"/><path d="m32.7512 12.8272c0 .0989-.0565.1695-.0989.2402-1.1301 1.7093-2.2743 3.4045-3.4044 5.1138-.0565.0847-.1554.1695-.1413.2966-.3532 0-.7205.0141-1.0736.0141-.5368 0-1.0877 0-1.6246-.0141-.0141-.0989.0424-.1836.0989-.2684.4097-.6216.8194-1.2431 1.2432-1.8647.3814-.5792.7769-1.1725 1.1725-1.7517.0565-.0989.1271-.1836.1553-.2966.4521 0 .9183 0 1.3703-.0141h.1837c.113.0141.1553-.0424.1553-.1554 0-.3249 0-.6499 0-.9606 0-.4097-.0565-.3673.3532-.3532.5227.0141 1.0595-.0141 1.6104.0141z" fill="#f2768f"/><path d="m21.0547 18.4729c0-.0848.0565-.1554.0989-.226.8052-1.2149 1.6104-2.4156 2.4156-3.6305.0706-.0989.1554-.1837.1271-.3249.4803 0 .9465-.0142 1.4268-.0142.4379 0 .8758 0 1.3138.0142 0 .0989-.0565.1836-.113.2684-.7911 1.2007-1.5963 2.4015-2.3874 3.5881-.0706.0989-.1272.1978-.1554.3249-.89.0141-1.8082.0141-2.7264 0z" fill="#f281a9"/><path d="m23.8086 18.4733c.0141-.1272.0848-.226.1554-.3249.7911-1.2008 1.5963-2.4015 2.3874-3.5882.0565-.0847.113-.1553.113-.2684.8758-.0141 1.7375-.0141 2.6134 0-.0283.1131-.0848.2119-.1554.2967-.3956.5792-.777 1.1584-1.1725 1.7517-.4097.6215-.8194 1.2431-1.2432 1.8647-.0565.0847-.113.1554-.0988.2684-.8618.0141-1.7376.0141-2.5993 0z" fill="#f27b9b"/><path d="m18.3283 24.0424c.1837.5368.3532 1.0877.5086 1.6386.1553.5792.1836 1.1584.1271 1.7517-.0848.9465-.3249 1.8506-.5509 2.7688-.5227 0-1.0454 0-1.5539 0-.0283-.0989.0141-.1695.0423-.2401.2684-.777.4521-1.5681.4945-2.4015.0423-.6216-.0707-1.229-.2261-1.8223-.1412-.5227-.339-1.0172-.5509-1.4975-.0141-.0423-.0282-.0988-.0565-.1412.0848-.0848.1978-.0989.3108-.0989h1.003c.1554 0 .3107 0 .452.0424z" fill="#4f58a7"/><path d="m6.7153 24.9402c.0565-.1271.15539-.226.21189-.339.22603-.2401.4803-.452.77696-.5933.91822-.4521 1.9777-.2825 2.71225.4379.0707.0706.1413.1413.1978.2119.1978.2967.3532.6074.4238.9465.1836.9041-.0706 1.6669-.7487 2.2885-.45206.3955-.98886.565-1.58217.5791-.79108.0142-1.41265-.2825-1.87882-.9182-.04238-.0706-.08476-.1412-.12714-.2119.01413-.0141.04238-.0423.05651-.0565.39554.4803.90409.7063 1.53978.6922 1.21488-.0282 2.09074-1.1442 1.79404-2.3308-.226-.9606-1.21486-1.5681-2.17545-1.3703-.4803.0989-.84759.3532-1.14425.7346-.02825-.0424-.04238-.0565-.0565-.0707z" fill="#fff"/><path d="m36.9753 28.7293c-.0424.0424-.0989.0424-.1413.0424-.2118 0-.4379 0-.6498 0-.0565 0-.0989 0-.1412-.0424.2966-.0141.6215-.0141.9323 0z" fill="#f27b9b"/><path d="m19.5132 14.2931h-.0141c-.3532 0-.7204 0-1.0595 0-.0424-.0848 0-.1413 0-.1837.2119-.8758.4379-1.7516.5086-2.6557.0565-.664 0-1.2997-.1837-1.92123-.0141-.25428-.113-.49443-.1836-.73458-.1554-.53681-.3391-1.07361-.5792-1.56804-.1271-.25427-.1978-.50855-.1554-.79108.1695-.2684.3955-.38141.7063-.36729.7063.04238 1.3985.08476 2.1049.11302.5085.01412 1.0171.0565 1.5115.08475.5792.02826 1.1442.08476 1.7093.11302.2684.01412.5368.02825.8052.04238.4238.04238.8617.08475 1.2855.12713.3108.04238.6216.07064.9324.09889.5085.07063 1.0171.15539 1.5256.22602.89.12714 1.7799.28253 2.6699.46618 1.7093.35316 3.4045.81933 5.0573 1.38439.8758.29665 1.7517.62156 2.5993.97472.0565.02825.1271.05651.1977.05651.3108.14126.6216.29661.9324.42381.3531.1554.7204.2966 1.0595.4662.565.2684 1.1442.5368 1.7093.791.0706.0283.1553.0707.226.113.226.1413.339.4097.2966.6499-.0565.2401-.1836.4238-.4379.4803-.1271.0282-.2401-.0142-.339-.0565-.4238-.1837-.8335-.3673-1.2432-.5651-.452-.2119-.904-.4238-1.3561-.6357-.2543-.113-.5085-.1978-.7628-.3108-.551-.2825-1.1443-.4803-1.7093-.7063-.0424-.0141-.0989-.0282-.1554-.0424-.0283-.0141-.0424-.0282-.0706-.0424-1.4551-.55089-2.9242-1.00293-4.4216-1.38435-1.0736-.28252-2.1614-.49442-3.2632-.69219-.7205-.12714-1.4409-.24015-2.1614-.33904-.565-.08476-1.1442-.12713-1.7093-.19777-.6498-.07063-1.2996-.11301-1.9353-.15539-.4944-.02825-1.003-.0565-1.4974-.08476-.6922-.04238-1.3703-.07063-2.0625-.09888-.1412 0-.2684-.01413-.3955-.02825-.1271-.01413-.2543-.02826-.3673 0-.0282.0565.0141.09888.0283.14126.2401.66394.4379 1.34201.5933 2.04834.0706.31078.0989.63573.1695.94643.0141.4521-.0141.9041-.0565 1.342-.0424.5227-.1413 1.0454-.2826 1.5681-.0847.2966-.1412.6074-.226.9041z" fill="#d5a7cd"/><path d="m20.0801 10.4776c-.0706-.3108-.0989-.63572-.1695-.9465-.1413-.69219-.3532-1.37026-.5933-2.04833-.0142-.04238-.0424-.08476-.0283-.14127.113-.02825.2402-.02825.3673 0 .1413.02826.2684.02825.3955.02825.6922.02826 1.3703.05651 2.0625.09889.4944.02825 1.003.05651 1.4974.08476.6498.04238 1.2996.08476 1.9353.15539.5651.07063 1.1443.11301 1.7093.19777.7205.09889 1.4409.2119 2.1614.33903 1.1018.18365 2.1896.40967 3.2632.6922 1.4974.39554 2.9807.84759 4.4216 1.38441.0282.0141.0565.0282.0706.0424-.1413.0988-.3108.1271-.4662.0847-.0989-.0282-.1978-.0282-.2825-.0282-5.2974 0-10.5948 0-15.8781 0-.1554 0-.3108.0706-.4662.0565z" fill="#8d60a8"/><path d="m18.4119 30.1992c.3814.0141.7487.0141 1.1301 0-.2119.89-.4944 1.7658-.7628 2.6417-.0283.0706-.0424.1412-.0848.2119-.1413.2966-.5651.4238-.8193.1271-.0565-.0706-.113-.1271-.1696-.1978-.0282-.2542.0424-.4944.1272-.7487.1978-.6639.4096-1.342.5792-2.0342z" fill="#4f58a7"/><path d="m15.7143 30.2094c.3107 0 .6215 0 .9464.0141.1554 0 .1554.0142.0989.1554-.0847.2402-.1978.4803-.3108.7205-.1412.2684-.3673.3673-.6215.2684-.2402-.0989-.3814-.3956-.2967-.6498.0424-.1272.0989-.2402.1554-.3673.0141-.0707.0283-.0989.0283-.1413z" fill="#4f58a7"/><path d="m6.77199 24.9861c.29665-.3814.66394-.6356 1.14424-.7345.9606-.1978 1.94945.4238 2.17547 1.3702.2825 1.1867-.57918 2.3026-1.79405 2.3309-.63569.0141-1.13012-.2119-1.53979-.6922-.0565-.0848-.09888-.1836-.16951-.2684 0-.0424-.01413-.0848-.05651-.113-.15539-.3673-.15539-.7628-.09889-1.1443.04238-.0988.08476-.2119.09889-.3249.08476-.1271.15539-.2684.24015-.4238zm-.01413 1.7235c-.01412.339.24015.6074.56506.6215.33904.0142.60744-.2401.60744-.5792.01412-.3249-.22603-.5933-.55093-.6074-.33904-.0141-.60744.226-.62157.5651z" fill="#080708"/><path d="m6.77231 24.9838c-.07063.1554-.15539.2966-.22602.452-.01413 0-.02826 0-.04238 0 .01412-.1977.08475-.3531.21189-.4944.01413.0141.02826.0283.05651.0424z" fill="#d5a7cd"/><path d="m6.50486 25.4375h.04238c-.01413.113-.05651.2119-.09889.3249-.09888-.1271 0-.226.05651-.3249z" fill="#5b59a7"/><path d="m6.58841 27.0078c.07063.0706.11301.1695.16952.2684-.01413.0141-.04238.0424-.05651.0565-.07063-.0989-.14126-.1836-.11301-.3249z" fill="#d5a7cd"/><path d="m6.5332 26.9102c.04238.0282.05651.0706.05651.113-.07063-.0142-.04238-.0848-.05651-.113z" fill="#d5a7cd"/><path d="m6.40646 10.1531c.02825-.113-.01413-.24015.04238-.35317.04238-.14126.08476-.2684.12714-.40966.07063-.18365.19777-.32491.29665-.49443l.12714-.12714c.64982-.63569 1.68105-.69219 2.4015-.14126.70633.55093.94643 1.48326.56506 2.30266-.39555.8193-1.21488 1.1866-2.1331 1.0453-.43792-.0706-.79108-.3108-1.07361-.6498-.0565-.0848-.09888-.1837-.16952-.2684 0-.0424-.01412-.0848-.0565-.113-.08476-.2543-.14127-.5086-.12714-.7911zm.35316.6357c0 .339.25428.5933.59331.5933.32491 0 .57919-.2543.57919-.5792 0-.339-.25428-.5933-.57919-.6074-.33903 0-.59331.2543-.59331.5933z" fill="#080708"/><path d="m16.3366 10.6517c-.0141-.2543-.0847-.4803-.1554-.72047-.2543-.86171-.6074-1.66692-1.0736-2.42975-.1554-.25427-.0424-.67807.226-.79108.2119-.09888.5086 0 .6216.2119.4379.77695.8335 1.58216 1.1019 2.44387.0282.07063.0282.14127.0847.2119 0 .04238.0141.08476.0141.12714.1837.67809.2967 1.35609.2261 2.06249-.0565.5368-.1413 1.0877-.2826 1.6104-.0847.3108-.1836.6074-.2825.9182-.0141 0-.0424 0-.0565 0-.2684 0-.5227 0-.7911 0-.2543 0-.2543-.0141-.1695-.226.1978-.4944.3532-.9889.4662-1.5115.113-.551.1412-1.1019.113-1.667 0-.0847-.0283-.1554-.0424-.2401z" fill="#d5a7cd"/><path d="m6.75768 11.3242c.28253.339.62156.5791 1.07361.6498.91822.1554 1.75168-.2261 2.13309-1.0454.38142-.8052.15542-1.75167-.56506-2.3026-.72045-.55093-1.7658-.49442-2.40149.14127-.04238.04238-.08476.08476-.12714.12714-.02825 0-.05651-.02826-.07063-.05651.52268-.79108 1.48327-1.20075 2.41562-1.0171.91822.18364 1.68102.94647 1.85052 1.86469.0566.32491.0424.63571 0 .96061-.0706.226-.1412.452-.2684.6639-.452.7487-1.11595 1.1443-1.99179 1.1867-.5368.0282-1.04535-.0848-1.48327-.4097-.26841-.1978-.4803-.4238-.62157-.7205.01413-.0141.04238-.0282.05651-.0423z" fill="#fff"/><path d="m16.7599 14.293h.0566c.0141 0 .0423 0 .0565.0141-.0142.1695-.0565.2967-.2402.339.0565-.113.0848-.2401.1271-.3531z" fill="#e398c2"/><path d="m6.75793 11.327c-.01413.0141-.04238.0424-.05651.0565-.07063-.0989-.14126-.1978-.11301-.3249.07063.0706.11301.1695.16952.2684z" fill="#d5a7cd"/><path d="m6.5332 10.9414c.04238.0283.05651.0706.05651.113-.05651-.0141-.04238-.0706-.05651-.113z" fill="#d5a7cd"/><path d="m16.8885 14.3045c-.0141 0-.0423 0-.0565-.0141.0989-.3108.1978-.6075.2826-.9183.1412-.5226.226-1.0594.2825-1.6104.0706-.7063-.0424-1.3844-.226-2.06243-.0142-.04238-.0142-.08476-.0142-.12714.1272-.04238.2543-.05651.3956-.05651h1.2431c.1978.63568.2402 1.27138.1837 1.92118-.0707.9041-.3108 1.78-.5086 2.6558-.0141.0424-.0424.0989 0 .1836h1.0595c-.226.8759-.4803 1.7517-.7628 2.6134-.0707.2261-.2119.3673-.4521.3956-.3814.0565-.6922-.3956-.565-.7629.0847-.2684.1695-.5368.2542-.8052.1272-.4238.2543-.8617.3814-1.2855.0142-.0282.0142-.0706.0142-.113 0-.0282-.0142-.0424-.0424-.0282-.5227 0-.9889 0-1.4692.0141z" fill="#7e5ea8"/><path d="m6.80206 8.85156c.01413.02826.04238.04238.07063.05651-.08476.16952-.22602.31078-.29665.49442-.01413 0-.04238.01413-.05651.01413.04238-.2119.12714-.40967.28253-.56506z" fill="#d5a7cd"/><path d="m6.51796 9.42038c.01413 0 .04238-.01413.05651-.01413-.04238.14126-.08476.2684-.12714.40967-.09889-.16952.01413-.28253.07063-.39554z" fill="#9763a9"/><path d="m18.3125 14.3047c.0283 0 .0424.0141.0424.0282-.0141-.0141-.0283-.0141-.0424-.0282z" fill="#e398c2"/><path d="m6.75837 26.7063c.01413-.3391.28253-.5792.62157-.5651.32491.0141.56506.2825.55093.6075-.01413.3249-.28253.5791-.60744.5791-.32491-.0141-.57918-.2825-.56506-.6215z" fill="#fff"/><path d="m6.75781 10.7886c0-.339.25428-.5933.59331-.5933.33904 0 .59331.2684.57919.6075 0 .3249-.25428.5791-.57919.5791-.33903 0-.59331-.2684-.59331-.5933z" fill="#fff"/><g fill="#000"><path d="m74.5797 21.8452h3.6023c-.1554 1.8647-1.3279 3.2067-3.1643 3.687-1.9495.5227-3.9837-.226-5.1562-1.8788-1.7799-2.5145-1.8929-8.1509-.226-10.7502.9747-1.5115 2.4015-2.2602 4.1532-2.232 1.794.0141 2.9665 1.0877 3.7011 2.6558.2543.5368.4662 1.0877.7204 1.681 1.5681-.4379 3.0231-.8334 4.5629-1.2572-1.0454-3.95543-3.1643-6.62533-7.3458-7.16213-4.7888-.60744-9.1257 1.14424-11.0186 5.87663-1.5257 3.8424-1.3703 7.7413-.0141 11.6119 2.3167 6.5829 11.6543 7.5859 14.5078 2.8959.0142-.0282.1272.0142.2967.0283v2.3167h3.9554c0-3.7717 0-7.4587 0-11.2023-2.8959 0-5.7071 0-8.5748 0z"/><path d="m149.931 16.5904c-.07-1.9919-1.285-3.235-3.136-3.5882-2.345-.4661-4.492-.0141-6.286 1.667-.226.2119-.466.4096-.904.7769 0-3.023 0-5.74945 0-8.46172-1.695 0-3.291 0-4.902 0v22.30562h4.959c0-3.0654 0-6.0461 0-9.0126 0-1.8789.847-2.8818 2.726-3.2491 1.681-.3249 2.571.3814 2.585 2.1189.028 2.7123.014 5.4246.014 8.1369v2.0483h4.987c0-4.2803.085-8.5182-.043-12.742z"/><path d="m127.284 25.0385c-1.187 1.568-3.391 1.5115-4.478-.0848-1.144-1.6952-1.173-5.4246-.057-7.1339 1.187-1.794 3.659-1.7375 4.747.113.226.3815.395.7911.635 1.2714 1.385-.452 2.713-.8899 4.111-1.342-.734-2.3026-2.02-3.9978-4.308-4.6617-1.907-.5651-3.871-.5368-5.764.0847-5.1 1.6811-7.063 8.8997-3.673 13.4908 1.808 2.4721 5.283 3.5034 8.815 2.6275 2.543-.6357 4.083-2.2885 5.043-4.7182-1.469-.4944-2.783-.9324-4.082-1.3703-.382.6781-.622 1.2432-.989 1.7235z"/><path d="m111.141 7.6875c-1.667 0-3.221 0-4.916 0v5.4811c-.961 0-1.794 0-2.614 0v3.7011h2.628v1.3703c.014 2.5568-.014 5.1137.042 7.6706.043 1.893.961 3.0513 2.769 3.4327 1.964.4238 3.927.3956 5.919-.0282 0-1.1866 0-2.3309 0-3.5175-.311.0565-.565.0989-.819.1271-2.176.2685-2.953-.4096-2.981-2.6133-.014-1.4127 0-2.8253 0-4.238 0-.7487 0-1.4833 0-2.3308h4.083c0-1.2432 0-2.3733 0-3.6447-1.385 0-2.699 0-4.111 0 0-1.8929 0-3.63047 0-5.4104z"/><path d="m87.3066 29.3192h4.8454c0-7.487 0-14.9034 0-22.36217-1.6386 0-3.1926 0-4.8454 0z"/><path d="m96.2207 29.3058h4.8873c0-5.4105 0-10.7361 0-16.1183-1.6523 0-3.2486 0-4.8873 0z"/><path d="m101.108 7.08203c-1.6669 0-3.2491 0-4.8736 0v3.92717h4.8736c0-1.29965 0-2.58516 0-3.92717z"/></g></svg>