<svg height="100" viewBox="0 0 260 100" width="260" xmlns="http://www.w3.org/2000/svg" xmlns:xlink="http://www.w3.org/1999/xlink"><mask id="a" fill="#fff"><path d="m.02082631.07988799h23.95641869v24.28755761h-23.95641869z" fill="#fff" fill-rule="evenodd"/></mask><g fill="none" fill-rule="evenodd"><path d="m0 0h260v100h-260z" fill="#f8f8f8"/><g transform="translate(25 26)"><path d="m24.03483 4.81231668c.7432071-.73034649 1.4894601-1.45764706 2.2287752-2.19188558 1.2649073-1.25610797 2.721539-2.11319903 4.5091619-2.44926672.7459146-.14028203 1.488614-.22455278 2.2010234-.1115149 1.6145125.25636583 3.1285093.79058823 4.4057695 1.90252216 1.4601854 1.27099919 2.2832635 2.87857373 2.7052941 4.72406929.0676874.29663981.0319823.61697019.0431507.92630137.0125222.34926672.1602498.51543917.5420065.53726834 2.9421998.16735697 5.1386543 1.57999194 6.5734569 4.11979046 1.3534085 2.395963 1.3295487 4.8883804.1954472 7.3565995-.3477438.7564062-.8474456 1.4515552-1.4590008 2.0477116-.8574295.8354311-1.7009831 1.6849073-2.5499517 2.5284609-.0614262.0025383-.1231909.0050765-.1849556.0074456.0037228-.0905318-.0355359-.1621112-.0978083-.2240451-.7159629-.7142708-1.4190652-1.4425867-2.1555036-2.1351975-.2470588-.232506-.5027478-.4413215-.647091-.7548831.0042304-.1484045.1306365-.2083078.2174456-.2954553.7149476-.7186704 1.4192344-1.4485093 2.1499194-2.1507655 1.0146333-.9750363 1.2649073-2.1741176.9592989-3.4784529-.2942707-1.2557695-1.1579613-2.0994923-2.3710878-2.4494359-1.2803062-.3694037-2.5022321-.171249-3.5006205.8335697-.8274778.8327236-1.6712006 1.6493715-2.5081547 2.4727881-.1930781-.0473812-.2954553-.2110153-.4243997-.3365754-.9279935-.9022723-1.8047139-1.8566639-2.7690894-2.7220467.0059226-.0142143.0137067-.0270749.0238598-.0385818.8839968-.7877115 1.6972603-1.6473408 2.5255842-2.4912329 1.0731829-1.09315065 1.3219339-2.59107168.6606285-3.95886379-.8298469-1.71655117-3.1022804-2.53150685-4.8086785-1.47456889-1.280137.79278807-2.2050846 1.98933118-3.2271635 3.06995971-.0571959.01049154-.1143917.02098307-.1715875.0313054.017768-.10694602-.0223368-.19409348-.0969621-.2661805-1.0017728-.96606769-1.9191056-2.01860597-2.9889041-2.91495569.0067687-.03790491.0133682-.07580983.020137-.11388396" fill="#469bd4"/><path d="m43.2449226 24.2099541c.0617647-.0025383.1235295-.0050766.1851249-.0074456.6406608.788896 1.3914827 1.4737228 2.1208139 2.1746253 1.0642143 1.022925 1.896938 2.1859629 2.3424899 3.5953827.3115311.9858663.4071394 2.0103143.3242224 3.0423771-.1507735 1.8734166-.8848428 3.4911443-2.1824093 4.8503062-1.2418937 1.3007817-2.7438759 2.1138759-4.5279452 2.3876713-.2631346.0402739-.5306688.0910395-.7944803.0820709-.4225383-.0142144-.5920951.1881708-.585834.5797421.0077841.4805802-.0605802.9433925-.1858018 1.4121273-.5083319 1.9018453-1.5233037 3.4486705-3.115141 4.6152619-.9589605.7029331-2.0378968 1.0828284-3.1948428 1.3310717-.5533441.1187913-1.0951813.22083-1.6512329.1842789-1.9407655-.1277599-3.702498-.7269622-5.1408542-2.0857857-.7882191-.7445608-1.5419178-1.5255036-2.3066156-2.2949396-.169726-.1707413-.3468977-.3274375-.5570669-.4450443.0006769-.0768251.0013538-.1543271.0018614-.2316599.154158.0140451.2646576-.0595649.3697422-.164988.8347542-.8391539 1.6717083-1.6759387 2.5105237-2.5110314.1027156-.1022079.1715875-.2213376.2255681-.3524818.0612571-.0027075.1223449-.0055843.183602-.008461.0336744.1803868.1763255.2829332.2935938.4010476.6841499.6887187 1.3620387 1.384037 2.0585415 2.0602337 1.0784287 1.0467848 2.315415 1.3877598 3.773739.8714746 2.1856245-.7736664 3.0298549-3.4911443 1.549871-5.3425625-.7652055-.9569299-1.7327961-1.7197663-2.5523207-2.6250846-.0971313-.1071152-.2259065-.1651571-.3721112-.1792022-.0037228-.058888-.0074456-.117776-.0111684-.1768332.1925705-.0016922.3276068-.0868091.4661966-.2292909.856245-.8801048 1.7263659-1.7470105 2.5949638-2.6151008.0561805-.0561805.1389282-.0859629.2093231-.1280983.8433844.8334005 1.7011523 1.6530943 2.5265995 2.5037551.980282 1.0102337 2.190701 1.2234488 3.4512087.8557373 2.7640129-.8061563 3.2539001-4.0920387 1.5319339-5.8463256-.8164786-.8317083-1.6789847-1.6184045-2.4494359-2.4951249.0423046-.1761563.1856325-.2763336.3027317-.3937711.7613134-.7643594 1.5248267-1.5266882 2.2890169-2.2883401.1499275-.1494198.300701-.2961321.3155922-.5255922" fill="#83bc5a"/><path d="m23.977245 19.2883731c-.0005077.077502-.0011846.1548348-.0018614.2316599-1.2704916 1.2721838-2.4270992 2.6684046-3.9570025 3.6600242-.7271313.4712732-1.5304109.7577599-2.3744722.9274859-.5707735.1147301-1.1249637.2900403-1.7289041.2555198-2.6826188-.1539888-4.885842-1.1764062-6.50187748-3.3901209-.94728445-1.2977357-1.36051572-2.7547059-1.48946012-4.3181144-.02453666-.2986705-.11879129-.4186463-.42930701-.4259227-1.98679291-.0463658-3.69285253-.8218936-5.13137792-2.1436583-1.00228042-.9207172-1.70199839-2.0571878-2.12724416-3.3813215-.18800161-.5853264-.19426269-1.14594686-.20593875-1.72653509-.01133764-.56349718.01489121-1.12800967-.00575343-1.6909992-.0543191-1.46949234.58515713-2.68194198 1.42837228-3.80233682.83103143-1.10448832 1.88593876-2.00388397 2.85843675-2.97824335.12759065-.12775987.22726027-.28327156.34029814-.42592265.30882353.12437551.41001612.44724416.62949235.659444.73491539.71037873 1.45155519 1.43954069 2.17242546 2.16413376.11676068.11726834.2643191.21473812.29816277.39529412-.82544722.82747784-1.65732474 1.64886382-2.47329573 2.48564867-.4678888.47990331-.82730862 1.06167607-.93865431 1.70876712-.23064464 1.33851733.12843675 2.50629332 1.15660758 3.46728444.95574536.8933038 2.60833199 1.0359549 3.75089444.5609589.58837228-.2445205.98163574-.6882111 1.40789684-1.108888.7188397-.70936339 1.4686463-1.38945203 2.1082917-2.17580981.0412893-.00744561.0825786-.01489121.1240371-.02233682.0194601.18681708.1693876.2827639.2853022.39918614.7785737.7819581 1.560701 1.56036259 2.3396132 2.34164379.1264061.1267446.2815793.2372442.2971474.4399678-.8217244.8367849-1.6207735 1.6974295-2.4707574 2.5044319-1.1261483 1.0692909-1.1672684 2.9691056-.5521596 4.1409428 1.1168413 2.127921 4.0099678 2.3925786 5.5999436.8114021.8274779-.8229089 1.6539404-1.646664 2.4809106-2.4700806.0512731.0032152.1027155.0062611.1539887.009307.0280902.0480581.0478888.1044078.0857937.1424819.8711362.8755359 1.744303 1.7487027 2.6166237 2.6228848.0712409.0714101.14722.1301289.2538276.1318211" fill="#e89442" mask="url(#a)" transform="translate(0 24.111587)"/><path d="m23.6222925 4.76554472c-.029444-.02978243-.0578727-.06125705-.0866398-.09171636.0287671.03045931.0571958.06193393.0866398.09171636.0267365.02690572.0546575.05211926.08444.0746253-.0297825-.02250604-.0577035-.04771958-.08444-.0746253m-3.2938356-3.46914585c-.9606527-.70073328-2.0622643-1.08215149-3.2071958-1.22361805-.9444078-.11642224-1.9060758-.10085415-2.8794198.10390008-1.1286866.2375826-2.130967.65284448-3.0479614 1.32548751-2.07140206 1.51958099-3.17301366 3.56678485-3.32141818 6.12384368-.01793714.31017727-.14400483.43032232-.42355358.44910556-.32269944.02165995-.6484448.02149073-.96759065.06667204-1.4414021.20306204-2.68871072.87198227-3.80284448 1.75310233-.9274859.73339238-1.65580178 1.67272358-2.13976632 2.76638198-.23995165.5420064-.502917 1.0885818-.49327156 1.7080902.07868655 1.4260032-.2717647 2.8746817.23622885 4.2793634.24367446.6738276.49902498 1.3412249.93103948 1.919444 1.00346495 1.3424094 2.31304594 2.395963 3.43902498 3.6233038.30814666.1243755.40933925.4472442.62898469.659444.7349154.7103787 1.45138598 1.4395407 2.17242547 2.1641338.11659146.1172683.26414988.2147381.29833199.3956325.19053989-.0194601.30273167.0959469.4264303.2203224 1.46272361 1.4686462 2.92950841 2.9334004 4.39917001 4.395278.09527.0947622.1448509.2027236.185971.3220225.0412893-.0074456.0825786-.0148912.1240371-.0223368.1277598-.270411.3472361-.4653505.5541901-.6701048.8073409-.7985415 1.6153586-1.5964061 2.4230379-2.3944399-.0035536-.0646414-.0071072-.1291136-.0104915-.1937551-1.4512168-1.4474939-2.902772-2.8948187-4.3531427-4.3431587-.138759-.1385899-.2688879-.2856406-.4030781-.4286301-.585834-.579573-1.17149881-1.1593151-1.75750203-1.7385496-.53811443-.5318533-1.07639807-1.0635375-1.61468171-1.5952216-.75031426-.7575906-1.49690572-1.5190733-2.2519581-2.2719259-.80937147-.8070024-1.21600322-1.7468412-1.14357776-2.9174939.09645447-1.5601934 1.55325544-3.0510073 3.12343272-3.1374779 1.19637389-.0658259 2.18460918.3029009 3.03087028 1.1838518.709025.7382997 1.3923287 1.5102739 2.1956084 2.1555036.0421353-.0113376.0842707-.0226753.1264061-.0338437.9706366-.8460918 1.8162208-1.8190975 2.7479371-2.7046172.1044078-.0993312.1668493-.2726108.3584045-.2531507.0077841-.027921.0155681-.0560113.023183-.0841015-.3100081-.156527-.5134086-.4335375-.7520065-.6699356-.6201853-.6146011-1.2391861-1.230556-1.8524335-1.8520951-1.5617164-1.58320704-1.0572764-4.71239318 1.2440935-5.57709907 1.4290491-.53709911 2.6949718-.25687349 3.7786462.75640613.8416922.78703465 1.6820306 1.58286865 2.427776 2.46771152.0522885.00812248.104577.01624496.1566962.02419823.7851733-.91327156 1.6928606-1.70673651 2.5198308-2.57905721.1595729-.16820307.3908944-.28496374.4345528-.54691378.0407816.00135374.0815632.00253827.1221756.00406124.0064303-.03790492.0130299-.07597905.0197986-.11388397-1.2073731-1.20145044-2.3181225-2.50324738-3.70639-3.51585012" fill="#da3952"/><path d="m15.9357341 12.8989243c.2164303-.1311443.4018936-.2979936.5802498-.4773651 1.2860596-1.2911362 2.5744883-2.57990328 3.8666398-3.86511681.1609267-.16008059.2986704-.33116036.3990169-.53303788.0524577.00846092.104577.0165834.1566962.02453667.6286463.75826752 1.3635617 1.4138195 2.0578647 2.10795322.3452054.3452055.6430298.7437148 1.0659065 1.0075262-.0072764.0411201-.0145528.0820709-.02166.1230218-.4452135.3477437-.7905882.7966801-1.1967123 1.1835133-.9366237.8924577-1.8483723 1.8091136-2.7448912 2.741676-.2954553.3071314-.5838034.629154-.9437309.869444-.1959549-.0045689-.2842868-.1673569-.4003707-.2817485-.9494842-.9366237-1.8952457-1.8769702-2.8421917-2.8161322.007784-.0280902.0155681-.0561805.0231829-.0842707" fill="#469bd4"/><path d="m7.72542788 20.9620951c.23825947-.0499194.42541499-.1704029.60038679-.3470669 1.32701047-1.3395326 2.66248183-2.6707736 3.99947623-4.0006608.1614343-.1605882.3015471-.331668.4032474-.53473.1670185.1871555.2785334.4125544.4629814.5922643.7868655.7672361 1.5588397 1.5497018 2.3348751 2.3281064.1419743.142651.2934247.2641498.4998711.2946091.0199678.0490734.0401048.0981467.0600725.14722-.2088154.0008461-.3622965.0998389-.5079935.2462128-1.3759146 1.3820064-2.7550443 2.7611361-4.1397583 4.1346817-.1431587.1419742-.2303062.313054-.3404673.4731345-.5863417-.5795729-1.17200649-1.1591458-1.75800971-1.7385495-.53811442-.5318534-1.07639807-1.0635375-1.61468171-1.5952216" fill="#e89442"/><path d="m15.8537816 29.0676382c.222353-.0917164.4079855-.2282756.5797422-.4012168 1.3361482-1.3446092 2.6802498-2.6814343 4.0211362-4.0213054.1477276-.1477276.3167767-.2827639.3320064-.5162852-.0003384 0 .0363819-.0042305.0363819-.0042305s.036382.0067688.0362128.0065995c.0035536.2198147.152635.3565431.2910556.4953022.8163094.8180016 1.634311 1.6339726 2.4528203 2.449436.1089766.1086381.2083078.2331829.3717728.2666881-.0021999.0419662-.0043997.0837631-.0065996.12556-.8232473.821386-1.6563094 1.6332958-2.4670346 2.4666963-.7719742.7936341-1.6173892 1.516535-2.3091539 2.3873327-.0641338.0040613-.1280983.0079533-.1922321.0118453-.0463658-.0851168-.075979-.186817-.1416358-.2528122-.8833199-.8904271-1.7723932-1.7751007-2.6575745-2.6636664-.0957776-.0962853-.2074617-.140282-.3364061-.1561886-.0033844-.0646414-.006938-.1291136-.0104916-.193755" fill="#e89442"/><path d="m16.0262998 19.2946172c-.2066157-.0304593-.3578969-.1519581-.5000403-.2946091-.7758663-.7784046-1.5478405-1.5608703-2.3347059-2.3281064-.184448-.1797099-.2959629-.4051088-.4629815-.5922643-.018614-.0203062-.026398-.0443352-.0235213-.0719178.0336744-.0225061.0673489-.0446737.1010233-.0670105.9708058-.8460919 1.81639-1.8190975 2.7479372-2.7046172.1045769-.0993312.1670185-.2726108.3585737-.2531507.946946.9395004 1.8927075 1.8798469 2.8421918 2.8163013.1160838.1145609.2044158.2771797.4002014.2817486-.0011845.0416278-.002369.0832555-.0035535.1248832-.0272442.0482272-.045689.1055923-.0834247.143328-.9405157.9430539-1.882216 1.8849234-2.8271313 2.8235777-.0563498.0558421-.1423127.0819017-.2145689.1218372" fill="#6a6250"/><path d="m24.0621926 11.1633699c-.4230459-.2638115-.7208703-.6623207-1.0660758-1.0075262-.6943029-.69413379-1.4290491-1.34968576-2.0576954-2.10778407.7853425-.91327156 1.6928606-1.70690572 2.52-2.57922643.1594037-.16820306.3908945-.28479452.4343836-.54674456.0409508.00135375.0815633.00253827.1221757.00406124 1.0696293.89634972 1.9867929 1.94905721 2.9885656 2.91495568.0747946.07208703.1148993.15940371.0971314.26634972-.955407 1.07589041-1.987639 2.07512492-3.0384851 3.05591462" fill="#6a6250"/><path d="m15.8642732 29.2613932c.1289444.0159066.2406285.0599033.3364061.1561886.8851813.8885657 1.7742546 1.7732393 2.6575745 2.6636664.0656568.0659952.09527.1676954.1414666.252643-.0289364.1656648-.1566962.2614424-.2648268.3699114-.5156083.5173005-1.0324013 1.0335858-1.5491942 1.5498711-.4120467.411539-.8247703.8224012-1.2369863 1.2336019-.046535.0064303-.0930701.0130298-.1396051.0196293-.0155681-.2028928-.1707414-.3132232-.2971475-.4399678-.7790814-.7814504-1.5610395-1.5598549-2.3396132-2.3416438-.1159146-.1164222-.2658421-.2125383-.2853022-.3993553.1279291-.270411.3472361-.4653506.5543594-.6701048.8071716-.7985415 1.6151894-1.5964061 2.4228687-2.39444" fill="#6a6250"/><path d="m12.806108 15.9406414c-.0336745.0223368-.0673489.0445045-.1010234.0670105-.016245-.0055842-.0245367-.0170911-.0252135-.0336745.0421353-.0108299.0841015-.0219984.1262369-.033336" fill="#e89442"/><path d="m27.2722143 8.07604835c.5157776.53574536 1.0256326 1.07724416 1.5485174 1.60605157.8494762.85861398 1.7160435 1.70081388 2.5563819 2.56822728.2360596.2436744.4793957.4721192.7448993.6800886-.0103223.0118453-.0182756.0247059-.0235214.0385818-.8193553.6061402-1.4652618 1.3943594-2.1864705 2.1032151-.330822.325407-.742361.5860033-.9339162 1.0390008-.0351975-.0025382-.0702257-.0047381-.1054231-.0071071-.4875181-.5052861-.9628525-1.0232635-1.4652619-1.5134892-1.1254714-1.098058-2.1827478-2.265834-3.3671071-3.3039887.0072763-.04112.0145527-.0820709.0218291-.1231909 1.0508461-.9807897 2.0830782-1.98019344 3.0384851-3.05591463.0571958-.01049154.1143916-.02098308.1715874-.03147462" fill="#da3952"/><path d="m28.978274 16.1114335c.191386-.4531668.602925-.7139323.933747-1.03917.7212087-.7088558 1.3671152-1.4972442 2.1864705-2.1033844.9636987.8657212 1.8405883 1.8201128 2.7684126 2.7225544.1291136.1255601.2314907.289025.4243997.3364061.0043997.0465351.0084609.0925625.0120145.1385899-.038751.0145528-.089855.0181064-.1140532.0453505-.8697824.9755439-1.8394037 1.8529412-2.7469218 2.7909186-.0969622.1001773-.1896938.2110153-.342498.2294601-1.0767365-1.0041418-2.1169219-2.0446655-3.1215713-3.1207252" fill="#6a6250"/><path d="m40.1464496 21.0849476c.0663336.0037228.1326672.0076148.1986624.0109992.1438356.3132232.3995246.5222079.6465834.7545447.7364384.6927801 1.4395407 1.4209267 2.1555036 2.1353667.0622724.0619339.1015311.1335133.0979775.2240451-.0150605.2296293-.165834.3761724-.3159307.5257615-.764021.7614827-1.5275343 1.5239806-2.2888477 2.2881708-.1170991.1176068-.2604271.2176148-.3023933.3932635-.0632876-.0057534-.127083-.0111684-.1907091-.017091-.0074456-.1074537-.0768251-.1776793-.1470507-.247905-.8765512-.8753666-1.7529332-1.7510717-2.6293151-2.6264383-.0798711-.0797019-.1577115-.1631265-.2805641-.1729412.0018614-.0524577.0037228-.1047462.0055842-.1570346.3606044-.3721112.7190089-.7464223 1.0821515-1.1159952.6545367-.666382 1.3121193-1.3300564 1.9683481-1.9947462" fill="#6a6250"/><path d="m32.0180113 35.5489049c-1.4216036 1.432772-2.8435455 2.8650363-4.2641338 4.2986543-.1663416.1680339-.3250685.3433441-.4871797.5154392-.061257.0028767-.1225141.0057534-.1834327.0084609-.027921-.048058-.0472119-.1044077-.0851168-.1424819-.8944883-.8985495-1.7911765-1.7948992-2.6868493-2.6919258-.0710718-.0710717-.1456971-.1335133-.2521354-.1399436-.0008461-.0724255-.0018614-.1450202-.0027075-.2174456.5115471-.3369138.8494762-.8503224 1.2847059-1.2647381 1.1371474-1.0828284 2.2370668-2.2027156 3.3297099-3.3298792.066672-.0687026.1519581-.1194681.228614-.1785254l.19917.0165834c.5865109.753191 1.332087 1.3491781 2.006253 2.0153909.3081467.304593.532361.6895648.901934.9337469.0037228.058888.0074456.117776.0111684.176664" fill="#e89442"/><path d="m32.0067752 35.3721732c-.3695729-.2441821-.5937873-.6289846-.9019339-.9335777-.6739968-.666382-1.419573-1.2621999-2.0059146-2.01556.2677034-.6003868.7301772-1.0400162 1.218203-1.4532474.6391378-.5409912 1.1498389-1.2029734 1.7283965-1.8001451.0673489.0040613.1345286.0076149.2018775.0111684.0050766.1582192.1225141.2451975.2201531.3431749.8310314.8323852 1.6622321 1.6647703 2.4956326 2.4949557.0966237.0962852.1748025.2252296.3345447.2338598-.006938.0490733-.0138759.0981466-.0206447.1470507-.0702256.0419662-.1529734.0715794-.2091539.1279291-.8685979.8680903-1.7387187 1.7348268-2.5949637 2.6151008-.1384206.1423126-.2736261.2274294-.4661966.2292908" fill="#6a6250"/><path d="m24.059299 37.3970064c.1062691.0065996.1808944.0688719.2519661.1399436.8958421.8971959 1.792361 1.7935456 2.6868493 2.6919259.0379049.0380741.0573651.0945931.0851169.1426511-.0541499.1311442-.1230218.250274-.2257373.3524819-.8388155.8350926-1.6757696 1.6718775-2.5105238 2.5110314-.1050846.105423-.2155842.179033-.3697422.1649879-.1066075-.0016922-.1824174-.060411-.2538275-.1319903-.8723207-.8740129-1.7454875-1.7473489-2.6166237-2.6227156-.0379049-.0382433-.0577035-.094593-.0859629-.1423126.0248751-.1922321.1374053-.331668.2699033-.4638276.8086946-.8058179 1.6148509-1.6140048 2.4225302-2.4210072.0988235-.0986544.1871555-.2155842.3460516-.2211685" fill="#6a6250"/><path d="m20.8670282 40.4934996c-.0253828-.1934166-.1441741-.327776-.2763336-.4597663-1.4163578-1.412635-2.8293312-2.8286543-4.2468735-4.2397663-.1174375-.1169299-.2629653-.2056004-.3952941-.3071314.4123852-.4108622.8251088-.8217244 1.2371555-1.2332635.5167929-.516116 1.0335858-1.0324013 1.5491942-1.5498711.1081306-.1082997.2358904-.2040773.2648268-.3697421.0643029-.003892.1282675-.007784.1925705-.0116761.0844399.1118534.1566962.235552.2546736.3336987 1.4217728 1.4271877 2.8460838 2.851668 4.2731024 4.2732715.0979774.097639.2237066.1675262.3364061.2504432.0008461.0724255.0018614.1448509.0027075.2174456-.1587269.005415-.2472281.1223449-.3458824.2209992-.8076793.8070024-1.6138356 1.6151894-2.4225302 2.4210073-.132498.1321595-.2450282.2715955-.2699033.4639967-.0512732-.0033843-.1025463-.0064303-.1538195-.0096454" fill="#83bc5a"/><g fill="#6a6250"><path d="m86.3395963 27.2074714c.4012168.0087993.4973328-.1258985.4958275-.5096857-.0135551-3.3972281-.019647-6.7946253-.0022175-10.1916842.0069379-1.3385173-.0461966-2.6567284-.4406447-3.953618-.2704109-.8894118-.6604593-1.6955681-1.2659226-2.3966398-1.1721757-1.35696215-2.6386221-2.10829173-4.4292909-2.36516521-1.3794682-.1979855-2.6594359.01032232-3.9189283.50190169-1.1867284.46315068-2.0895084 1.30450443-2.8662208 2.28867852-.2179532.2756567-.3460515.2939323-.5574053-.027075-.3318372-.5034246-.7117325-.9765592-1.1757292-1.37422238-.9618373-.82477034-2.0912007-1.19485093-3.333602-1.38674456-1.5996212-.24722804-3.0713134.06734891-4.4930862.75420629-.6374456.30780822-1.1865592.74692989-1.6984448 1.23546333-.1025463.09797744-.2160919.27616442-.3798952.21033844-.1726028-.06921032-.1093151-.26973409-.1133763-.41780016-.0076149-.29579372.002369-.59192587-.0035536-.8878888-.0098147-.47601128-.1262369-.59074134-.6122321-.5922643-1.0855359-.00304594-2.1710717-.00236906-3.2567768-.00033844-.5760193.00118453-.6174778.04365834-.6178163.63236906-.0010153 2.98839642-.0005076 5.97679292-.0005076 8.96535862 0 2.9883964.0101531 5.9769621-.0108741 8.9651893-.0031711.4513054.1694317.550023.5635413.5455601 1.1276712-.0131991 2.2556809-.0023691 3.3835213-.0055843.5035939-.0015229.5523288-.0549959.5523288-.5584206.0003384-3.3268332-.0021998-6.6534972.0018614-9.9801611.0010153-.8005722.0179371-1.598606.3171152-2.3639807.2756568-.7056406.6526753-1.3337792 1.2574618-1.8033602.8056486-.6254311 1.730427-.8442305 2.7332151-.760975 1.0745367.0891781 1.9813779.5330379 2.6222079 1.4028203.676535.9176712.9721595 1.9966076.9807897 3.119033.0272441 3.4957132.0143835 6.9917647.0040612 10.4876471-.0010153.3445286.0903626.4721192.4518131.4655197 1.1134569-.020137 2.2275906-.0067687 3.341386-.0072764.5633279-.0001692.5640048-.0008461.564174-.5634971.001523-3.5383562-.0087993-7.0765432.0121837-10.6145609.0045689-.8027719.2426592-1.5759307.6137551-2.2888477.7464222-1.4339565 1.9614101-2.0619258 3.5584931-2.0057453 2.1436584.0754713 3.2982353 1.6229734 3.6170427 3.3193875.1524658.8107253.1594037 1.6498792.1550041 2.4839565-.0160758 3.044577.0010153 6.0894924-.0150605 9.1344078-.0021998.4186462.1495891.5441003.5401451.5396374 1.1417163-.0128606 2.2842788-.0209831 3.4256567.0040612"/><path d="m209.927168 14.4821313c-.000846-.6802578.002539-1.3446091-.218291-2.0241901-.542684-1.670693-1.506382-2.97130542-3.033916-3.8387188-.908534-.51611603-1.907768-.73017728-2.938478-.84456889-1.703013-.18884771-3.30145.08985495-4.775342.99145044-.47195.28868654-.870459.66418211-1.268799 1.04187752-.090532.08596293-.201539.19324733-.327946.13757453-.117437-.0516116-.067687-.19950846-.070564-.30628525-.00643-.239444-.00203-.47922643-.00203-.71883965 0-2.50917002.001184-5.01834004-.000846-7.52767929-.000508-.52745366-.058719-.58228042-.579912-.58261885-1.128009-.00101531-2.256019.00930701-3.38369-.00583799-.296471-.00380746-.410693.12665991-.432353.38793307-.011676.14011281-.00863.28157937-.00863.42236906-.000508 4.14449637-.000339 8.28882353-.000339 12.4333199 0 4.2148912.004231 8.4297824-.007285 12.6445044-.001176.3875101.114062.520685.505972.5132394 1.099412-.0208139 2.199331-.0064303 3.299081-.0071072.607663-.0003385.607833-.0011845.608002-.6115552.001354-3.4818372-.017261-6.9638437.014891-10.4453425.010492-1.1581305.336914-2.2478968 1.142393-3.1374778.932732-1.0302015 2.123352-1.3784529 3.469146-1.2709992 1.098227.0878243 2.028251.532361 2.721708 1.4070508.738639.932224 1.013618 2.008622 1.009388 3.1873972-.012353 3.4254875-.002708 6.850975-.001692 10.2764625.000338.5508058.035874.591249.602248.5936181 1.057446.0042305 2.115568-.0179372 3.172168.0109992.401216.01083.519162-.0873167.517487-.5047784-.01677-4.0739323-.007971-8.1478646-.012371-12.221797"/><path d="m129.395587 15.8733094c.180894-.5690814.318638-1.1489927.577034-1.6942143.768929-1.622635 1.992377-2.6244078 3.81892-2.7636745 2.441483-.1863094 3.970879 1.0322321 4.831354 3.2346092.135544.3467285.201032.7019178.257889 1.0598147.074625.4711039.000677.5421756-.479565.5430217-1.423126.0018614-2.846591.0006769-4.269887.0006769-1.380822.0001692-2.761813.0005077-4.142804-.0003384-.126576-.0001692-.254335.0011845-.379557-.0142144-.22523-.027921-.311193-.0582111-.213384-.3656809m13.731394-.6418453c.103561-.302224-.100347-.5071474-.232676-.7349153-.007107-.0648107-.014045-.1297905-.020983-.1947704-.093577-.4137389-.106269-.8701209-.297316-1.2325866-.436415-.8276471-.874352-1.6612168-1.49606-2.3795488-1.058969-1.22378724-2.289355-2.19188555-3.887284-2.58785654-1.406713-.34858984-2.811394-.58498791-4.288502-.31508461-1.280644.23419823-2.471434.58041902-3.594706 1.27167607-1.544286.95016118-2.586164 2.29578568-3.44427 3.84210318-.64743 1.1667606-.757591 2.458066-.958115 3.7324496-.186817 1.187913.03909 2.3531507.211692 3.5177115.075472.5085012.211862 1.0139565.375496 1.5023207.28801.8599678.800234 1.6016519 1.320411 2.3358904.837462 1.1823288 1.964625 2.0187752 3.22141 2.6963256.517978.2792103 1.098904.3973247 1.647849.5942949.500209.1792023 1.020556.3660194 1.519919.3868332 1.587945.0665028 3.174706.1704029 4.736253-.4142466.847277-.3171152 1.708598-.5738195 2.447744-1.1017808.706656-.5046092 1.391144-1.0444158 1.96564-1.7031829.207462-.2377518.287672-.4672119-.028597-.7337309-.674505-.5690814-1.317027-1.1760677-1.971225-1.7690088-.271596-.2458743-.511547-.2748107-.789742.0208138-.909211.9658985-2.06988 1.5755923-3.330556 1.8077599-1.037478.1910475-2.138582.2375826-3.203473-.1260677-.740162-.2528122-1.40739-.5861724-1.986963-1.1158259-.756913-.6917647-1.144762-1.5977599-1.499613-2.5189847-.201539-.5237309-.033505-.7278082.509178-.7279775 1.578977-.0005076 3.157954-.0001692 4.736761-.0001692 2.678558 0 5.357115.0006769 8.035673-.0006769.512224-.0003384.590741-.0692103.596833-.5354069.007107-.5355761-.005076-1.0713215.004907-1.6067284.010492-.5623127-.017091-1.1148107-.281579-1.6282192-.006092-.0935778-.012014-.187494-.018106-.2814102"/><path d="m185.317791 11.8405649c1.043232-.0027075 2.086463.0016922 3.129694-.0023691.526946-.0018614.628985-.103054.630339-.6091861.002199-.8032796.002538-1.60672848 0-2.41017731-.002031-.53100725-.119299-.6503062-.64523-.65165995-1.043231-.00304593-2.086463.00101531-3.129694-.00236906-.573819-.00169218-.594464-.02335213-.594972-.60224818-.001523-2.01556003 0-4.03128929-.001353-6.04701854-.000339-.51882352-.058719-.57517324-.589388-.57618855-1.014972-.00186141-2.030113-.00152297-3.045085.00016922-.636092.00101531-.647937.01336825-.648106.63643029-.000508 3.18553586-.000169 6.37107172-.000169 9.55660758h.002707c0 3.1432313-.015229 6.2866317.008123 9.4296938.008122 1.1209025.075302 2.2458662.562312 3.2934972.431507.9279935.977067 1.7661321 1.871048 2.3132151.818171.5007172 1.708429.814448 2.639976 1.0565995 1.007357.2617809 2.035358.2177841 3.049992.3448671.316269.0395971.519162-.1018695.518992-.4506285-.000169-.9444078-.000507-1.8886463-.001523-2.833054-.000338-.274303-.130805-.4062933-.414077-.414585-.350959-.0104916-.704964-.0252136-1.051354-.0785174-.846768-.1299597-1.621789-.3721112-2.19087-1.1077034-.605125-.7819581-.695826-1.6783079-.703441-2.5920871-.02149-2.5509669-.008461-5.1024415-.007953-7.6535777.000169-.5443755.053981-.5983562.610032-.5997099"/><path d="m62.5222627 37.7689992c-.0773328 1.2373247-.7650363 1.9856084-2.0074376 2.0399275-1.5354875.0671797-1.2968896.1187913-1.3180419-1.1865593-.0052457-.3089927-.0008461-.6183239-.0008461-.9274859.0011846-.5480983.0005077-1.0961966.001523-1.6442949.0003384-.3030701.1223449-.4702578.4573973-.4496132.4755036.029444.9630217-.0656567 1.4266801.0687027.9674214.2802256 1.5041821 1.0824899 1.4407252 2.0993231m-1.1493312-3.5298953c-1.0295246-.2450282-2.0749557-.1150684-3.1132796-.140282-.5213618-.0126914-.6205238.0969621-.6223852.6107091-.0035536.9999114-.0010153 1.9998227-.0011845 2.9997341s.0101531 1.999992-.0052458 2.9997341c-.0059226.3748187.1164223.5382836.5110395.5247462.6470911-.0221676 1.2957051.0001692 1.9436422-.0072764.688888-.0077841 1.3627156-.0561805 2.018606-.3340371 1.3782836-.5838034 2.010145-1.8152055 2.1428122-3.1129412.0627801-.6134166-.1910475-1.1645608-.4519822-1.7119822-.4939485-1.0369702-1.3456245-1.5723772-2.4220226-1.8284046"/><path d="m124.931115 38.297722c-.294101.0043997-.588541-.0010153-.882643.0001692-.257381.0010153-.352312-.0974698-.273118-.3653424.184786-.6254312.442675-1.2182031.7361-1.8346656.341482.5631587.555036 1.103473.77925 1.6380338.184279.4391217.104746.554867-.359589.561805m2.465004.7185012c-.543529-1.3442707-1.154238-2.6611281-1.706567-4.0018453-.446398-1.0841821-.314915-.9141176-1.429049-.9445769-.350113-.0096455-.54336.1676954-.621539.454859-.195109.716809-.572635 1.354593-.863352 2.0275745-.60834 1.4063739-1.134779 2.8489605-1.830097 4.2181064-.120653.2374133-.013538.4056164.259242.4536744 1.031725.1825866 1.364239-.0181064 1.669509-1.0109105.008292-.0267365.01506-.0541499.020645-.0819017.06921-.3409751.270749-.4968252.625092-.4907333.648107.0111684 1.29689.0115068 1.944996 0 .366527-.0065995.584142.1071152.716978.490564.377865 1.0909509.412893 1.0975504 1.243417 1.0951813.14079 0 .282256.0064303.422708-.0011845.338944-.0182756.455535-.2012006.307639-.5015632-.275657-.5592668-.525254-1.1280097-.759622-1.7072442"/><path d="m89.5720902 38.7151499c0-.3242224-.0187832-.6496294.0045689-.9721596.0304594-.4156003-.1783561-.5570669-.5523287-.5560515-.6201854.0016921-1.2403707-.0003385-1.8607252.0005076-.5760194.0008461-.5760194.0016922-.5773731.5975101-.0011846.6814424-.0011846.6814424.6623207.6821192.1126994.0001693.2255681-.0030459.3382675.0010154.2028928.0071071.4831185-.0649799.5051168.2328444.0240291.3248993.1776793.7085174-.2441821.9369622-1.342917.7271313-3.1105721.0688718-3.325141-1.5591781-.121668-.9237631.1301289-1.7277196.909718-2.2621112.7357615-.5042708 1.5437792-.4497825 2.3226914-.0546576.6552135.3323449.6494601.3433441 1.1159951-.2627961.0343514-.0445044.0729332-.0861321.1126995-.1258985.2194762-.2187993.1959548-.4039242-.0521193-.5922643-.3538356-.2683803-.7420226-.4441982-1.1772522-.529315-1.1065189-.2165995-2.1939162-.2171072-3.1719984.4235536-1.1999275.7860193-1.7060596 1.9284125-1.6131587 3.3535697.1040693 1.5899758 1.0149718 2.5670427 2.295278 3.0354391 1.094166.4005399 2.2130378.281241 3.27556-.2326752.6939645-.3357293 1.2141418-.7685899 1.0362933-1.652079-.0299516-.1490814-.0042305-.309162-.0042305-.4643352"/><path d="m156.264283 23.7639452c-2.406116.2521354-4.628123-1.1628686-5.502982-3.4087349-.348589-.8944883-.554021-1.7872844-.467719-2.7161241-.131483-1.5561321.332345-2.9322159 1.258138-4.1096374 1.267784-1.6119742 2.998719-2.2673569 5.014279-1.9483803 1.876294.2969782 3.217688 1.4082353 4.058872 3.0978807.483288.9713135.627293 2.0246979.619339 3.1046495-.007784 1.0706447-.209661 2.0996616-.723239 3.0378082-.921732 1.6837228-2.307969 2.7382917-4.256688 2.9425383m8.740806-23.02520547c-1.001096-.00050766-2.002192-.00998389-3.003119.00287671-.869613.01116841-.860137-.21406124-.860137.8565834-.000507 2.62203868.000339 5.24407736-.002707 7.86628525-.00017.13554392.067687.322361-.055335.39630943-.14722.08850121-.226922-.10999194-.337083-.18207897-.546913-.35840451-1.082151-.73609992-1.642772-1.07182917-1.007187-.6032635-2.159734-.71410153-3.281144-.93543916-1.138332-.224722-2.240113.02876712-3.338678.23385979-.979775.18309428-1.853449.64810637-2.676697 1.21092667-1.397913.95591462-2.397147 2.23842062-3.120217 3.75055602-.291394.6095246-.416277 1.2694762-.584311 1.9202901-.207123.8027719-.339791 1.615697-.395294 2.4304835-.079871 1.177083.213892 2.3204915.430999 3.4760838.292917 1.559178 1.041877 2.8521756 2.037728 4.0177518.867921 1.0154794 1.898968 1.8285737 3.192473 2.2962933.721547.2609347 1.445125.5851571 2.189517.6479371 1.037308.0871475 2.097123.1842788 3.139678-.1526349.335052-.1082998.692949-.1866479 1.039677-.2868252.588034-.169726 1.157115-.3672038 1.693199-.6743352.465351-.2670266.87249-.6007252 1.278953-.9411926.098146-.0820709.205431-.1871555.332852-.1414665.152128.0546575.09307.2176148.095947.3357292.007784.3240532.022337.6499678-.0022.9723288-.026229.3436825.083763.4689041.445552.4621354 1.127502-.0211523 2.25585-.0076149 3.38386-.0077841.604956 0 .605294-.0001692.605294-.5863417.000296-4.200846 0-8.4018614 0-12.6027074v-3.8062289c0-2.97468976.001185-5.94921031-.001184-8.92356164-.000508-.5590975-.011-.56383562-.564851-.56400483"/><path d="m94.7243159 15.4420733c.2539968-1.2940129.9114101-2.3941015 1.9800241-3.2315632 1.1193796-.8773973 2.3942708-1.0092184 3.722297-.8080178 1.489798.2257374 2.473126 1.1574537 3.181643 2.4404674.32473.5880339.512394 1.2156648.61934 1.864448.082747.5034247-.02606.5926028-.540653.5937873-1.423127.0032152-2.846084.0011845-4.2693796.0011845-1.3244722 0-2.6489444-.0060918-3.9734166.0018614-1.0648912.0064303-.8726591-.0841015-.7198549-.8621676m.5387913 3.8947301c4.2155681-.0050766 8.4311358-.003892 12.6468738-.0043997.169049 0 .338267-.0059226.507316-.0081225.144682-.0018614.248751-.0546575.258058-.2150765.028429-.4771958.138759-.9682676.063288-1.4287107-.131821-.808187.065318-1.6287269-.246551-2.4477438-.148405-.3893715-.202216-.8987188-.355359-1.3021354-.280564-.739315-.491918-1.5146736-.954899-2.1910395-.482103-.704456-.966914-1.4192344-1.614005-1.95633356-1.163884-.96572925-2.439283-1.7564867-4.009629-1.91419823-.837462-.08410153-1.6624015-.27041096-2.515262-.22404512-.3441902.01878324-.655552.16092667-.9953425.17243352-.8560758.02893634-1.676108.23707494-2.4259146.63592264-.399863.2127075-.91361.29122482-1.1381628.77315875-.0428122.04315068-.0859629.08647058-.1291136.12995971-.2568735-.00541499-.4164464.12742143-.5079935.3573892-.0808864.01573731-.1389283.05838034-.163465.13994359-.1096535-.03367445-.1617728.01049154-.1649879.12149879.0001692-.00016922-.0204754.02030621-.0204754.02030621-.1455278.0055842-.2176149.0913779-.2458743.2253989 0-.0001692-.0160758.0157373-.0160758.0157373-.1308058.0252135-.2083078.1057615-.2414746.232506-.0896857.0913779-.1793715.1827559-.2690572.2741338.0065995.0257212.0094762.0490733.0086301.0698872.0008461-.0208139-.0021998-.044166-.0086301-.0698872-.0966237.0203062-.1374053.0776712-.1181144.1756487-.018614-.0008461-.0275826.0079532-.0263981.0267365-.5465753.3961402-.8230781.9792667-1.0889202 1.5701772-.1022079.1932474-.2044158.3863256-.3067929.5797422-.1233602.1544964-.2908864.2893634-.2377518.5242385-.0065995.0490733-.0131991.0983159-.0197986.1477276-.3113618.2191378-.3120387.5854956-.3739726.896519-.1089766.54556-.3932635 1.0784287-.1981547 1.6620628.0306285-.0345205.0551652-.0702256.0747945-.1071152-.0196293.0368896-.044166.0725947-.0747945.1071152-.0040612.0802095-.007784.1607575-.0118453.2413054.0008461.3873409.0016922.7746817.0025383 1.1620226-.0008461-.3873409-.0016922-.7746817-.0025383-1.1620226-.3404673.6003868-.2025544 1.2456165-.1580499 1.876801.0103223.1460354-.0365512.3531587.1632957.4472441.0018614.082071.0042304.1644803.0065995.2467204-.009307.0104916-.0265673.0208139-.0269057.0316439-.0475504 1.2263255.3912329 2.3187993.9371313 3.3806446.0140452.0275826.0732716.0319823.1116842.0475504.0379049.0893473.075979.179033.1142224.2687187.0859629.2326753.121668.4773651.2648267.6968413.926809 1.4222804 2.1934085 2.4474053 3.6979291 3.1970427.469581.2338598.9774053.3639887 1.4733844.5288074.5638356.1873248 1.144593.4154311 1.7135052.4095085 1.23834-.0130298 2.4826029.1568654 3.7229739-.2039082.689903-.2008622 1.410942-.3548509 2.055834-.6437066 1.17759-.5274537 2.20373-1.3122885 3.069452-2.2842788.418815-.4704271.425922-.6362611-.062273-1.0219098-.637107-.5032554-1.235294-1.0444158-1.80556-1.6202659-.215415-.2177841-.457059-.2599194-.703441-.0329976-.123021.1133763-.250612.2218453-.372957.3362369-.866229.8108945-1.916736 1.3828525-3.045592 1.5478405-1.496398.2187993-3.0322242.2421515-4.4111847-.677212-.8511684-.5672199-1.4891217-1.2613537-1.8935536-2.2020386-.1209911-.281241-.1406204-.6069863-.3267606-.845415-.1550041-.1988316-.1600806-.4032474-.0908703-.5917567.0808864-.22083.3177921-.1226833.4861644-.1228525"/><path d="m113.561756 34.0896503c-.802264.0169218-1.605206.0055842-2.407978.0055842-.647937 0-1.295705.0052458-1.943473-.0013538-1.089766-.0109992-1.073859-.0820709-1.059137 1.1462853.003892.3198227.17751.460274.475165.4668735.351974.007784.704117.0010153 1.056092.0030459.515439.0028767.557067.0416277.557743.5508058.002031 1.3517164.000677 2.7034327.000677 4.0549799.00017.9745286.00017.9745286.993481.9660677.028091-.0001693.05635.0006768.08444-.0001693.474827-.0143835.631862-.1683722.632369-.6330459.001693-1.3236261-.003553-2.647083.0022-3.9705399.004738-1.0765673-.136897-.9633602.969621-.9675906 1.167269-.0042305 1.181822-.0211523 1.087567-1.2070347-.023014-.2920709-.137067-.4205076-.448767-.4139081"/><path d="m174.727107.80221354c-1.168791.02149073-2.338598.01895246-3.507727.00067687-.349606-.0055842-.44166.14671233-.437768.4531668.007445.59141821.00203 1.18317486.00203 1.77476229h.001692c0 .5775423.0066 1.15525383-.002538 1.73262691-.005415.34385174.108469.51526995.490395.50951652 1.14087-.01692183 2.282417-.01895245 3.423288.00067688.36585.00626108.474657-.1629573.474996-.47685738.001353-1.18317486.001353-2.36651893.001523-3.54969379.000169-.29680903-.095101-.4513054-.445891-.4448751"/><path d="m141.0548 39.7571459c-.774512-.0045689-1.549194.0035535-2.323707-.0032152-.54116-.0047381-.61257-.0807172-.612908-.607494-.001185-1.3237953-.004908-2.6474214.000846-3.9712167.004907-1.1159952.055842-1.0939968-1.081813-1.0799517-.508671.0062611-.624416.1111765-.626616.6139243-.004569.985697-.001354 1.971394-.001692 2.957091-.000339.9856971-.001185 1.9713941.000169 2.9570911.000677.5113779.140451.6562288.644891.6574134 1.19722.0027075 2.394271.0011845 3.591322.0011845.966575.0001692.966575 0 .963698-.9752055-.001184-.5076551-.035366-.5464061-.55419-.5496212"/><path d="m123.002787 12.4562998c.341991-.001523.553514-.185971.558252-.5024094.018614-1.2826753.018783-2.56585817-.000339-3.84853343-.004907-.33234488-.201539-.55571313-.581265-.49208703-.373296.0626108-.743376.19307817-1.116503.19900081-.802941.01252216-1.557316.20069299-2.262788.55605157-.846261.42626108-1.66477.90921031-2.241805 1.69286058-.138928.1883401-.286317.3577277-.560789.6100322 0-.75132952.00203-1.39622074-.000677-2.04094274-.0022-.50224013-.180387-.67941176-.683473-.68008864-1.09992-.00169218-2.19967-.00101531-3.299589-.00033843-.619678.00050765-.640323.01726027-.640492.64675261-.001523 6.062079.0022 12.1241579-.00931 18.1862369-.000674.3692345.131317.447921.464.4440064 1.184359-.0146994 2.368888-.0037002 3.553247-.0060692.574835-.0010154.615955-.0468735.616632-.6318614.002877-2.9323852.006938-5.8647704.008122-8.7969863.000677-1.5720387.560959-2.9374618 1.66714-4.0231668.765713-.7514988 1.776285-1.1337631 2.839653-1.2797986.55436-.075979 1.125979-.0304593 1.689984-.0326591"/><path d="m99.4194658 34.0927808c-.2105077.0133683-.4228768.0101531-.6337229.0010153-.3942788-.0169218-.5570668.1610959-.5518211.5580822.0131991 1.0000806.0043997 2.0003304.0038921 3.0005802-.0006769.8452458-.0006769 1.6904915-.0006769 2.5357373 0 1.1192103.0218292 1.139855 1.1596535 1.0938276.0140451-.0006769.0280902.0005076.0421354-.0003385.3174536-.0179371.5000403-.1808944.5005479-.5032554.0028767-2.0568493.0052458-4.1135294-.0040612-6.1702095-.001523-.3122079-.1414666-.5391298-.5159468-.5154392"/><path d="m73.1884859 34.0928654c-.3717728.0005077-.528469.1502659-.5223771.533884.0159065 1.0131104.0052458 2.0265592.0052458 3.0400081h-.0013538c0 .858614.0045689 1.717228-.0011845 2.5756728-.0065962.9618372-.1321596 1.0633682 1.0892586 1.0384931.4716116-.0096454.5810959-.1282675.5814344-.615278.0011845-1.8155439.0030459-3.631257-.0001693-5.4469701-.0021998-1.1755601.1538195-1.1278405-1.1508541-1.1258099"/><path d="m174.846745 8.11620387c-1.236141-.00208355-2.472281-.00304593-3.708421-.00084609-.161434.00033843-.322192.02182917-.288348.25382755-.012015.18157132-.034859.36331185-.035028.54505238-.002031 4.02925869-.001523 8.05834809-.001523 12.08760679 0 1.873755.00863 3.7475101-.0066 5.6212651-.003384.395971.12353.5568977.528131.5517758 1.11278-.0139998 2.226067-.0060466 3.339017-.0004624.318469.0016922.471104-.0883319.470257-.4595971-.013029-6.0859387-.011506-12.1718775-.013029-18.25798545-.534223-.06717969-1.068953-.08917808-1.60436-.0930701.535407.00389202 1.070137.02589041 1.60436.0930701.056857-.24012087-.059734-.34029815-.284456-.34063658"/></g><path d="m16.0262998 19.2946172c.0722562-.0399355.1582191-.0659951.2145689-.1218372.9449153-.9386543 1.8866156-1.8805238 2.8271313-2.8235777.0377357-.0377357.0561805-.0951008.0834247-.1434972.5614665.5596051 1.1188718 1.12361 1.6855842 1.6779694 1.0329089 1.0102336 2.0094681 2.0776631 3.0892506 3.0388235.0103223.0478888.0211523.0967929.031813.145697-.2881789.2847945-.576527.5694198-.8647059.8542143-.74473.7362692-1.4892909 1.4725383-2.2340209 2.2089767l-.0362127-.006938s-.0367204.0043997-.0365512.0043997c-.9941579-.9855278-1.9901773-1.9695326-2.9824738-2.9575987-.5756809-.5731426-1.1451007-1.1525463-1.7175665-1.7292426-.0203062-.0492425-.040274-.0983158-.0602417-.1473892" fill="#da3952"/><path d="m28.8995367 32.406469c-.239444-.453336-.6193393-.7882192-.9726672-1.143747-1.0643836-1.0706446-2.1343514-2.1357051-3.2016116-3.203473-.2281064-.2282756-.4572281-.4546898-.7569138-.5909106.0021998-.0419661.0043997-.0837631.0065995-.1257292.5716197-.109992.8391539-.6137551 1.215834-.9648832.6975181-.6503062 1.3574698-1.3405479 2.0329895-2.014037 1.6072361 1.6018211 3.2146414 3.2036422 4.8220468 4.8054633-.5788961.5975101-1.0895971 1.2596616-1.7287349 1.8006527-.4878566.4132313-.9503304.8528606-1.2180339 1.4532474-.0668412-.0055842-.1331748-.0109992-.1995084-.0165834" fill="#83bc5a"/><path d="m27.2238687 24.3636382c-.6755198.6734891-1.3356407 1.3639001-2.0329896 2.0140371-.3768493.3512973-.6443835.8548912-1.2160032.9648831-.1634649-.033336-.2626269-.1580499-.3716035-.2665189-.8185093-.8156326-1.6366801-1.6316036-2.4529896-2.449436-.1384206-.1389282-.287502-.2754875-.2910556-.4954713.7448993-.7361 1.4894601-1.4725383 2.2341902-2.2088075.2880097-.2847945.576527-.5694198.864029-.8543835.1842788-.0084609.2622885.1494198.3670347.2514585.4617969.449444.9002417.9234246 1.372361 1.3611926.5098549.4727961.9186865 1.0559226 1.5324415 1.4158501-.0018614.0891781-.0035535.1781869-.0054149.2671958" fill="#6a6250"/><path d="m40.1464496 21.0849476c-.6562288.6646898-1.3138114 1.3283642-1.9683481 1.9947462-.3631426.3695729-.7215471.743884-1.081813 1.1156567-1.1819904-1.1862208-2.3516277-2.3851329-3.552909-3.5517244-.4648428-.4513054-.8361079-1.015141-1.4520628-1.300274.0028767-.0370588.0057534-.0741176.0084609-.1111764.1529734-.0186141.2455359-.1292829.3426672-.2294601.9075181-.9379775 1.8769702-1.8153747 2.7467526-2.7909187.0243675-.0272441.0753022-.0307977.1142224-.0453505.6643514.84 1.4828606 1.5309186 2.2236987 2.296801.858614.8877196 1.7449798 1.7488719 2.6193311 2.6217002" fill="#83bc5a"/><path d="m32.0998114 19.2321418c-.0028767.0370588-.0055842.0741177-.0086301.1110073-.1039001.0715793-.2215068.1297905-.3096696.217784-.873336.8714746-1.7397341 1.7500564-2.6127317 2.6218695-.6428606.641676-1.2926591 1.2760757-1.939581 1.9136906-.613755-.3599275-1.0224174-.9432233-1.5324415-1.4160194-.4721193-.4375987-.9105641-.9117486-1.3721918-1.3610234-.1047462-.1020386-.1829251-.2600886-.3672039-.2514585-.0099839-.0485656-.0208139-.097639-.0311362-.1455278.7335617-.407647 1.2215875-1.085705 1.8065754-1.6551249.9288396-.9043029 1.82722-1.8399113 2.7585979-2.741676.1389283-.1345286.1570346-.3722804.3809105-.4218614.0355359.0025382.0705641.0049073.1057615.0074456 1.0048187 1.0762288 2.045004 2.1167526 3.1217405 3.1208944" fill="#469bd4"/><path d="m32.2473868 29.1808284c.9877276-.9990653 1.9681789-2.005407 2.965552-2.9944884.6212006-.6157856 1.2007735-1.2752296 1.8778162-1.8336502.1225141.0098146.2003546.0932393.2800564.1729411.8765512.8755359 1.7529332 1.7510718 2.6293151 2.6266076.0702256.0700564.1397744.140282.14722.2479049-1.6167123 1.6177277-3.2335939 3.2351169-4.8499678 4.8526753-.1594037-.0086301-.2375826-.1375745-.3342063-.234029-.8334004-.8300161-1.6646011-1.6624013-2.4956325-2.4947865-.097639-.0979774-.2150766-.1849557-.2201531-.3431748" fill="#469bd4"/></g></g></svg>