<?xml version="1.0" encoding="UTF-8"?>
<svg width="260px" height="100px" viewBox="0 0 260 100" version="1.1" xmlns="http://www.w3.org/2000/svg" xmlns:xlink="http://www.w3.org/1999/xlink">
    <title>mozilla</title>
    <g id="mozilla" stroke="none" stroke-width="1" fill="none" fill-rule="evenodd">
        <rect fill="#F8F8F8" x="0" y="0" width="260" height="100"></rect>
        <g transform="translate(50.000000, 27.000000)" fill-rule="nonzero">
            <polygon id="Path" fill="#000000" points="160 0 0 0 0 45.7520899 160 45.7520899"></polygon>
            <path d="M152.81618,32.8404494 C152.50409,32.9283596 152.24018,32.9763596 151.97609,32.9763596 C151.04018,32.9763596 150.60009,32.5763596 150.60009,31.4243596 L150.60009,22.7284494 C150.60009,18.1603596 146.96018,15.9363596 142.65618,15.9363596 C139.36809,15.9363596 137.60018,16.3363596 134.08809,17.7523596 L133.30409,22.3604494 L137.87218,22.8483596 L138.52009,20.5923596 C139.45618,20.1044494 140.38418,20.0163596 141.58418,20.0163596 C144.82409,20.0163596 144.87209,22.4564494 144.87209,24.4963596 L144.87209,25.1604494 C143.84809,25.0243596 142.69609,24.9844494 141.58418,24.9844494 C137.01609,24.9844494 132.26409,26.1364494 132.26409,31.0642697 C132.26409,35.2323596 135.54409,36.7924494 138.43218,36.7924494 C141.67209,36.7924494 143.71218,34.8402697 144.86418,32.8003596 C145.12809,35.2402697 146.59218,36.7924494 149.25609,36.7924494 C150.49618,36.7924494 151.78409,36.4404494 152.84818,35.8563596 L152.81618,32.8404494 Z M140.52818,32.7124494 C138.80018,32.7124494 138.17618,31.6882697 138.17618,30.4003596 C138.17618,28.2243596 139.95218,27.6483596 141.99209,27.6483596 C142.92009,27.6483596 143.94409,27.7844494 144.88018,27.9124494 C144.74409,31.2483596 142.56809,32.7124494 140.52818,32.7124494 Z M132.84009,5.81635955 L124.18409,36.3523596 L118.54418,36.3523596 L127.20018,5.81635955 L132.84009,5.81635955 Z M121.21618,5.81635955 L112.56018,36.3523596 L106.92818,36.3523596 L115.58418,5.81635955 L121.21618,5.81635955 Z M97.1841798,16.3363596 L103.17609,16.3363596 L103.17609,23.5203596 L97.1841798,23.5203596 L97.1841798,16.3363596 Z M97.1841798,29.1604494 L103.17609,29.1604494 L103.17609,36.3523596 L97.1841798,36.3523596 L97.1841798,29.1604494 Z M88.4641798,28.8963596 L92.9921798,29.3364494 L91.7520899,36.3523596 L74.2640899,36.3523596 L73.6880899,33.3364494 L84.6960899,20.6883596 L78.4400899,20.6883596 L77.5521798,23.7923596 L73.4241798,23.3443596 L74.1360899,16.3283596 L91.7121798,16.3283596 L92.1601798,19.3443596 L81.0561798,32.0003596 L87.5361798,32.0003596 L88.4641798,28.8963596 Z M59.7840899,15.9363596 C52.5921798,15.9363596 49.0401798,20.7764494 49.0401798,26.6324494 C49.0401798,33.0243596 53.3040899,36.7924494 59.4721798,36.7924494 C65.8640899,36.7924494 70.4801798,32.7523596 70.4801798,26.3604494 C70.4801798,20.7683596 66.9680899,15.9363596 59.7840899,15.9363596 L59.7840899,15.9363596 Z M59.6481798,32.4003596 C56.5441798,32.4003596 54.9441798,29.7364494 54.9441798,26.2723596 C54.9441798,22.4963596 56.7600899,20.3284494 59.6961798,20.3284494 C62.4001798,20.3284494 64.5761798,22.1443596 64.5761798,26.1844494 C64.5761798,30.0003596 62.6241798,32.4003596 59.6481798,32.4003596 Z M43.8881798,32.0003596 L46.5520899,32.0003596 L46.5520899,36.3523596 L38.1601798,36.3523596 L38.1601798,25.0804494 C38.1601798,21.6163596 37.0081798,20.2883596 34.7440899,20.2883596 C31.9920899,20.2883596 30.8801798,22.2403596 30.8801798,25.0403596 L30.8801798,32.0003596 L33.5440899,32.0003596 L33.5440899,36.3523596 L25.1600899,36.3523596 L25.1600899,25.0804494 C25.1600899,21.6163596 24.0080899,20.2883596 21.7441798,20.2883596 C18.9921798,20.2883596 17.8801438,22.2403596 17.8801438,25.0403596 L17.8801438,32.0003596 L21.6961798,32.0003596 L21.6961798,36.3523596 L9.49614382,36.3523596 L9.49614382,32.0003596 L12.1601438,32.0003596 L12.1601438,20.6804494 L9.49614382,20.6804494 L9.49614382,16.3283596 L17.8801438,16.3283596 L17.8801438,19.3443596 C19.0800899,17.2163596 21.1681798,15.9283596 23.9600899,15.9283596 C26.8481798,15.9283596 29.5041798,17.3043596 30.4880899,20.2324494 C31.6001798,17.5683596 33.8640899,15.9283596 37.0160899,15.9283596 C40.6081798,15.9283596 43.8960899,18.1044494 43.8960899,22.8483596 L43.8960899,32.0003596 L43.8881798,32.0003596 Z" id="Shape" fill="#FFFFFF"></path>
        </g>
    </g>
</svg>