<svg fill="none" height="26" viewBox="0 0 89 26" width="89" xmlns="http://www.w3.org/2000/svg"><path d="m89 0h-89v25.4496h89z" fill="#000"/><path d="m85.004 18.2675c-.1736.0489-.3204.0756-.4673.0756-.5206 0-.7654-.2225-.7654-.8633v-4.8371c0-2.541-2.0247-3.7781-4.4188-3.7781-1.829 0-2.8124.2225-4.766 1.01015l-.4361 2.56325 2.541.2714.3604-1.2549c.5207-.2714 1.0369-.3204 1.7044-.3204 1.8022 0 1.8289 1.3573 1.8289 2.492v.3694c-.5696-.0757-1.2104-.0979-1.8289-.0979-2.541 0-5.1843.6408-5.1843 3.3819 0 2.3185 1.8245 3.1863 3.431 3.1863 1.8022 0 2.937-1.0859 3.5778-2.2206.1468 1.3572.9612 2.2206 2.443 2.2206.6898 0 1.4062-.1958 1.9981-.5207zm-6.8352-.0712c-.9612 0-1.3083-.5697-1.3083-1.2861 0-1.2104.9879-1.5308 2.1226-1.5308.5162 0 1.0858.0757 1.6065.1469-.0757 1.8556-1.2861 2.67-2.4208 2.67zm-4.2765-14.96095-4.8149 16.98565h-3.1372l4.8149-16.98565zm-6.4658 0-4.8149 16.98565h-3.1328l4.8149-16.98565zm-13.3678 5.85175h3.333v3.9961h-3.333zm0 7.1334h3.333v4.0005h-3.333zm-4.8505-.1469 2.5187.2448-.6898 3.9026h-9.7277l-.3204-1.6776 6.1232-7.0355h-3.4799l-.4939 1.7266-2.2962-.2492.396-3.90265h9.7767l.2492 1.67765-6.1766 7.0399h3.6045zm-15.9533-7.209c-4.0005 0-5.9763 2.6923-5.9763 5.9497 0 3.5555 2.3718 5.6515 5.8028 5.6515 3.5555 0 6.1232-2.2473 6.1232-5.8028 0-3.1106-1.9536-5.7984-5.9497-5.7984zm-.0756 9.1581c-1.7266 0-2.6166-1.4818-2.6166-3.4087 0-2.1004 1.0101-3.3063 2.6433-3.3063 1.5041 0 2.7145 1.0101 2.7145 3.2574 0 2.1226-1.0858 3.4576-2.7412 3.4576zm-8.7665-.2225h1.4818v2.4208h-4.668v-6.27c0-1.9269-.6408-2.6656-1.9002-2.6656-1.5308 0-2.1493 1.0858-2.1493 2.6433v3.8715h1.4818v2.4208h-4.6636v-6.27c0-1.9269-.6408-2.6656-1.9001-2.6656-1.5308 0-2.14937 1.0858-2.14937 2.6433v3.8715h2.12267v2.4208h-6.78627v-2.4208h1.48185v-6.2967h-1.48185v-2.42085h4.6636v1.67765c.66747-1.1837 1.82897-1.90015 3.38197-1.90015 1.6065 0 3.0839.7654 3.6312 2.39415.6186-1.4819 1.8779-2.39415 3.6312-2.39415 1.9981 0 3.827 1.21045 3.827 3.84925v5.0908z" fill="#fff"/></svg>