<svg height="65" viewBox="0 0 442 65" width="442" xmlns="http://www.w3.org/2000/svg" xmlns:xlink="http://www.w3.org/1999/xlink"><linearGradient id="a" x1="39.878673%" x2="134.633519%" y1="17.704599%" y2="91.241698%"><stop offset="0" stop-color="#411fc0"/><stop offset="1" stop-color="#9096ff"/><stop offset="1"/></linearGradient><linearGradient id="b"><stop offset="0" stop-color="#793adf"/><stop offset="1" stop-color="#411fc0"/><stop offset="1" stop-color="#9096ff"/></linearGradient><linearGradient id="c" x1="58.87666%" x2="-41.893738%" xlink:href="#b" y1="19.307729%" y2="84.057373%"/><linearGradient id="d" x1="103.893738%" x2="31.114801%" y1="103.730678%" y2="-2.587008%"><stop offset="0" stop-color="#793adf"/><stop offset="1" stop-color="#9096ff"/></linearGradient><linearGradient id="e" x1="49.990512%" x2="49.990512%" xlink:href="#b" y1="-98.1266%" y2="-98.524893%"/><linearGradient id="f"><stop offset="0" stop-color="#009145"/><stop offset=".9992" stop-color="#04bc73"/></linearGradient><linearGradient id="g" x1="100.021822%" x2="-.021822%" xlink:href="#f" y1="50.01138%" y2="50.01138%"/><linearGradient id="h"><stop offset="0" stop-color="#41ff6d"/><stop offset=".9925" stop-color="#64ffdc"/><stop offset="1" stop-color="#9096ff"/><stop offset="1"/></linearGradient><linearGradient id="i" x1="68.577999%" x2="27.809388%" xlink:href="#h" y1="95.739213%" y2="-4.584163%"/><linearGradient id="j" x1="87.326066%" x2="-1.363981%" xlink:href="#f" y1="17.334282%" y2="50.509246%"/><linearGradient id="k" x1="39.638863%" x2="141.112796%" xlink:href="#h" y1="15.348506%" y2="110.075865%"/><linearGradient id="l" x1="99.969668%" x2=".021801%" y1="50.008535%" y2="50.008535%"><stop offset="0" stop-color="#41ff6d"/><stop offset=".9992" stop-color="#04bc73"/></linearGradient><g fill="none" fill-rule="evenodd"><g fill="#1d1d1b" transform="translate(85 8)"><path d="m.35 32.24h9.31c0 4.13 3.41 6.12 7.19 6.12 3.48 0 6.88-1.84 6.88-5.02 0-3.31-3.89-4.22-8.52-5.3-6.44-1.59-14.26-3.46-14.26-12.66 0-8.19 6.03-12.81 15.49-12.81 9.82 0 15.4 5.24 15.4 13.75h-9.13c0-3.68-3.03-5.4-6.49-5.4-2.99 0-6.03 1.27-6.03 4.07 0 3.01 3.71 3.92 8.23 5 6.51 1.65 14.69 3.68 14.69 13.24 0 9.22-7.35 13.7-16.19 13.7-9.82 0-16.57-5.51-16.57-14.69z"/><path d="m36.08 29.61c0-9.99 7.6-17.4 17.81-17.4 10.15 0 17.81 7.42 17.81 17.4 0 9.93-7.65 17.4-17.81 17.4-10.2 0-17.81-7.47-17.81-17.4zm26.59 0c0-5.33-3.64-9.03-8.78-9.03s-8.78 3.69-8.78 9.03 3.64 9.03 8.78 9.03 8.78-3.7 8.78-9.03z" fill-rule="nonzero"/><path d="m75.32 32.17v-19.03h8.91v18.02c0 4.69 2.48 7.48 6.59 7.48 4.13 0 6.54-2.86 6.54-7.48v-18.02h8.91v19.03c0 8.9-6.13 14.84-15.45 14.84-9.3 0-15.5-5.94-15.5-14.84z"/><path d="m131.11 12.95v8.4h-3.87c-5.02 0-7 2.22-7 7.61v17.35h-8.91v-33.17h5.71l1.58 4.04c2.35-2.91 5.32-4.22 9.55-4.22h2.94z"/><path d="m149.61 47.01c-9.91 0-17.49-7.63-17.49-17.5s7.53-17.3 17.54-17.3c8.53 0 15.15 5.41 16.75 13.52h-8.85c-1.44-3.24-4.41-5.14-7.96-5.14-4.83 0-8.46 3.88-8.46 8.98s3.69 9.08 8.46 9.08c3.6 0 6.44-2 7.95-5.52h8.97c-1.55 8.26-8.29 13.88-16.91 13.88z"/><g fill-rule="nonzero"><path d="m204.15 32.1h-24.93c.77 4.5 3.73 6.97 8.05 6.97 3.09 0 5.63-1.46 6.99-3.82h9.36c-2.4 7.18-8.7 11.76-16.35 11.76-9.73 0-17.09-7.53-17.09-17.4 0-9.92 7.31-17.4 17.09-17.4 10.12 0 17.05 7.8 17.05 17.29 0 .86-.06 1.73-.17 2.6zm-24.7-6.08h15.96c-1.26-4.03-4.15-6.21-8.15-6.21-3.96 0-6.77 2.31-7.81 6.21z"/><path d="m225.73 12.2c9.92 0 17.26 7.42 17.26 17.4 0 9.97-7.34 17.45-17.26 17.45-3.41 0-6.51-1.01-9.06-2.77v12.39h-8.91v-43.54h5.89l1.52 2.99c2.8-2.47 6.45-3.92 10.56-3.92zm8.24 17.41c0-5.17-3.79-9.03-8.97-9.03-5.17 0-8.98 3.87-8.98 9.03s3.8 9.03 8.98 9.03c5.18-.01 8.97-3.86 8.97-9.03z"/><path d="m246.31 29.61c0-9.99 7.6-17.4 17.81-17.4 10.15 0 17.81 7.42 17.81 17.4 0 9.93-7.65 17.4-17.81 17.4-10.21 0-17.81-7.47-17.81-17.4zm26.59 0c0-5.33-3.64-9.03-8.78-9.03-5.13 0-8.78 3.69-8.78 9.03s3.64 9.03 8.78 9.03c5.13 0 8.78-3.7 8.78-9.03z"/><path d="m285.68 13.14h8.91v33.17h-8.91zm.02-12.43h8.87v7.48h-8.87z"/></g><path d="m331.08 26.11v20.2h-8.91v-18.75c0-4.98-1.89-7.38-5.75-7.38-4.59 0-7.39 3.29-7.39 8.59v17.55h-8.91v-33.17h6.11l1.74 4.07c2.49-2.97 6.43-4.85 10.91-4.85 7.52-.02 12.2 5.4 12.2 13.74z"/><path d="m347.69 3.65v9.49h8.42v7.16h-8.27v13.07c0 3.18 1.83 5.01 5.07 5.01h3.38v7.93h-5.66c-7.25 0-11.7-4.45-11.7-11.76v-14.25h-6.84l.88-.97"/></g><path d="m14.502708 24.336897h14.909857v14.909857h-14.909857z" fill="#7660ea" transform="matrix(.70710678 .70710678 -.70710678 .70710678 28.911458 -6.214783)"/><path d="m21.96 42.34-10.55-10.54 10.55-10.55" fill="url(#a)"/><path d="m3.958207 13.798929h14.909857v14.909857h-14.909857z" fill="#9096ed" transform="matrix(.70710678 .70710678 -.70710678 .70710678 18.371577 -1.845195)"/><path d="m11.41 31.8-10.54-10.55 10.54-10.54" fill="#836af0"/><path d="m.87.16 10.54 10.55-10.54 10.54" fill="url(#c)"/><path d="m3.957668 34.888568h14.909857v14.909857h-14.909857z" fill="#9096ed" transform="matrix(.70710678 .70710678 -.70710678 .70710678 33.284045 4.332198)"/><path d="m11.41 52.89-10.54-10.55 10.54-10.54" fill="url(#d)"/><path d="m.87 42.34 10.54 10.55-10.54 10.54" fill="url(#e)"/><path d="m40.120016 24.343039h14.909857v14.909857h-14.909857z" fill="#67d4c3" transform="matrix(-.70710678 .70710678 -.70710678 -.70710678 103.700068 20.64196)"/><path d="m47.57 42.34 10.54-10.54-10.54-10.55" fill="url(#g)"/><path d="m58.11 31.8 10.55-10.55-10.55-10.54-10.54 10.54z" fill="url(#i)"/><path d="m58.11 31.8 10.55-10.55-10.55-10.54" fill="url(#j)"/><path d="m68.66.16-10.55 10.55 10.55 10.54" fill="url(#k)"/><path d="m50.657106 34.887639h14.909857v14.909857h-14.909857z" fill="#64ffdc" transform="matrix(-.70710678 .70710678 -.70710678 -.70710678 129.144164 31.19187)"/><path d="m58.11 52.89 10.55-10.55-10.55-10.54" fill="#44bb54"/><path d="m68.66 42.34-10.55 10.55 10.55 10.54" fill="url(#l)"/></g></svg>