<svg width="55" height="40" viewBox="0 0 55 40" fill="none" xmlns="http://www.w3.org/2000/svg">
<path d="M13.4003 0H15.8359V40H13.3959V0H13.4003ZM3.387 14.56C3.42255 12.0044 7.79144 11.9333 7.79144 14.4489L7.827 16.6044H11.1381V14.6C11.3559 7.92 -0.0707806 7.92 0.000330542 14.4533V25.9867C-0.0707806 32.52 11.3559 32.6667 11.1381 25.9867V23.5778H7.75144V26.1689C7.75144 28.6889 3.38255 28.7244 3.347 26.1689V14.4889L3.387 14.56ZM22.387 11.9689C22.387 11.9689 22.9692 11.0933 24.4981 10.2533C26.427 9.16 28.3203 10.2533 28.027 10.1422C29.5559 10.8356 30.1381 12.44 30.2492 14.3022V27.9511H32.3959V30.4311H26.9026V14.1244C26.9026 11.7511 22.8981 11.8267 22.8626 14.2356V30.44H17.9114V27.92H19.4759V12.6267H17.6181V10.1467H22.387V11.9689ZM47.3603 25.9111C47.4714 27.7378 48.0537 29.3778 49.5826 30.0711C49.2892 29.96 50.347 30.4711 51.3648 30.4356H54.6048V27.9156C54.6048 27.9156 53.2581 27.88 52.5292 27.9156C51.6181 27.9156 50.8181 27.4756 50.747 26.2V12.6267H53.987V10.1822H50.747V4.88889H47.3603V25.9111ZM41.2448 23.5422V26.1333C41.2448 28.6533 36.8759 28.6889 36.8403 26.1333V20.7644H43.9737C44.3114 20.7556 44.5826 20.48 44.5914 20.1422V14.6C44.8092 7.92 33.3826 7.92 33.4537 14.4533V25.9867C33.3826 32.52 44.8092 32.6667 44.5914 25.9867V23.5778H41.2403V23.5422H41.2448ZM36.8359 14.4178C36.8714 11.8978 41.2403 11.9378 41.2403 14.4178V18.1778H36.8714L36.8359 14.4178Z" fill="white"/>
</svg>
