<svg width="141" height="20" viewBox="0 0 141 20" fill="none" xmlns="http://www.w3.org/2000/svg">
<path fill-rule="evenodd" clip-rule="evenodd" d="M0.422819 0.0095599C6.71812 0.0189559 13.0228 0.0189559 19.3275 0.0189559C19.3604 0.0189559 19.3964 0.0143489 19.4329 0.0096773C19.5846 -0.00970576 19.7449 -0.030201 19.7222 0.272647C19.7096 1.66808 19.7055 3.06768 19.7013 4.4659V4.46605V4.4662V4.46636V4.46651V4.46667V4.46683V4.46699V4.46715V4.46731V4.46747V4.46764V4.4678V4.46796V4.46813L19.7013 4.46987L19.7013 4.47161L19.7013 4.47335L19.7013 4.47509L19.7013 4.47682L19.7012 4.47855L19.7012 4.48027L19.7012 4.482L19.7012 4.48373L19.7012 4.48546L19.7012 4.4872L19.7012 4.48893L19.7012 4.49066L19.7012 4.49238C19.6991 5.18481 19.6971 5.87689 19.694 6.56795C19.1866 6.56795 18.6792 6.56854 18.1718 6.56913H18.1717C16.6496 6.57089 15.1275 6.57265 13.6054 6.55856C13.2201 6.54916 13.145 6.67131 13.145 7.02835C13.1487 8.65179 13.1495 10.2737 13.1502 11.8947V11.8947V11.8948V11.8948V11.8948V11.8948V11.8948V11.8948V11.8948V11.8948V11.8948V11.8949V11.8949V11.8949V11.8949C13.1514 14.3269 13.1525 16.7568 13.1638 19.1867C13.1732 19.572 13.0792 19.6847 12.6846 19.6753C10.8054 19.6565 8.93557 19.6565 7.05638 19.6753C6.68054 19.6753 6.56779 19.5908 6.56779 19.1961C6.57614 17.4088 6.57707 15.6215 6.57799 13.8342C6.57915 11.6 6.58031 9.36587 6.59597 7.13171C6.59597 6.63372 6.44564 6.54916 5.99463 6.55856C5.06444 6.56795 4.13424 6.56795 3.20405 6.56795C2.27384 6.56795 1.34363 6.56795 0.413423 6.57735C0.0845638 6.57735 0 6.49278 0 6.16392C0.018792 4.24715 0.018792 2.33037 0 0.413587C0 0.0753318 0.0939598 0.0095599 0.422819 0.0095599ZM26.3247 6.92879C26.3317 6.80263 26.3386 6.6778 26.2825 6.55822H26.2913V6.54883H26.2819V6.55794C25.1886 6.56264 24.0953 6.56499 23.0032 6.56733C21.9085 6.56968 20.8151 6.57203 19.724 6.57673L19.724 6.57685C19.7334 6.77413 19.7428 6.97141 19.7428 7.17808C19.7428 11.1996 19.7428 15.221 19.7334 19.2425C19.7334 19.5526 19.7803 19.6747 20.128 19.6653C26.4515 19.6559 32.775 19.6559 39.0891 19.6653C39.4273 19.6653 39.5025 19.562 39.4931 19.2425C39.4837 17.3727 39.4743 15.5029 39.4931 13.6331C39.5119 13.1915 39.3897 13.0975 38.9575 13.0975C36.9374 13.1069 34.9197 13.1069 32.9019 13.1069H32.9013C30.8837 13.1069 28.8661 13.1069 26.8461 13.1163C26.4045 13.1163 26.3105 12.9848 26.3105 12.5714C26.3246 11.1904 26.3229 9.80953 26.3211 8.43258V8.43241V8.43224V8.43207V8.4319V8.43173V8.43157V8.4314V8.43123V8.43106V8.43089V8.43072V8.43055V8.43038V8.42906V8.42775V8.42645V8.42514V8.42384V8.42254V8.42125V8.41995V8.41866V8.41737V8.41609V8.41481V8.41353C26.3205 7.96052 26.3199 7.50794 26.3199 7.05593C26.3199 7.0135 26.3223 6.97107 26.3247 6.92879ZM19.7148 6.57645C19.7148 6.57645 19.7148 6.56706 19.7242 6.56706V6.57645H19.7148ZM39.1447 6.5769C39.5021 6.5769 39.502 6.40704 39.5018 6.16325L39.5018 6.14469C39.4924 4.2561 39.483 2.3675 39.5112 0.488309C39.5205 0.0936784 39.3984 0.00911458 39.0132 0.00911458C36.0109 0.0232099 33.0033 0.0214465 29.9983 0.0196845C28.9971 0.0190975 27.9961 0.0185106 26.9957 0.0185106C26.6527 0.0185106 26.4836 0.0185106 26.4002 0.103049C26.3192 0.185222 26.3192 0.34727 26.3192 0.666833L26.291 6.54871C26.3192 6.55811 26.3474 6.55811 26.3756 6.55811C28.0781 6.56187 29.7806 6.56262 31.4832 6.56337C34.037 6.5645 36.5909 6.56563 39.1447 6.5769ZM93.4142 13.3888C92.9963 13.1981 92.5897 12.9731 92.1857 12.7495C92.0721 12.6866 91.9586 12.6238 91.8451 12.5619L91.835 12.5565C91.1121 12.1672 91.1007 12.1611 90.6424 12.8438C90.182 13.5297 89.5713 13.8868 88.735 13.7646C87.9364 13.6425 87.5417 13.0693 87.3256 12.3646C87.025 11.3874 87.0438 10.4008 87.2035 9.40487C87.2693 9.00084 87.4102 8.62501 87.6263 8.27736C88.0209 7.66662 88.6505 7.42232 89.374 7.57266C90.135 7.73239 90.4357 8.33373 90.6988 8.96326C90.7927 9.18876 90.8773 9.28272 91.1404 9.16997C91.9015 8.85051 92.6719 8.54044 93.4424 8.25856C93.7431 8.15521 93.7243 8.02366 93.6303 7.77937C92.935 5.91897 91.6384 4.88541 89.6089 4.73507C87.1471 4.55655 85.1176 5.69346 84.2438 7.81695C83.8679 8.71897 83.7176 9.66796 83.727 10.6451C83.727 11.5096 83.8397 12.3458 84.1216 13.1727C85.0236 15.7941 87.2505 16.8465 89.8531 16.5364C91.5444 16.3391 92.7659 15.4277 93.6115 13.9713C93.7713 13.6612 93.7337 13.5297 93.4142 13.3888ZM139.805 9.49882C139.917 9.92164 139.993 10.3445 139.993 10.7861C139.993 11.2225 139.992 11.6584 139.991 12.0945V12.0949V12.0953C139.99 13.4049 139.988 14.7158 140.002 16.0478C140.002 16.3579 139.908 16.4331 139.607 16.4237C138.874 16.4049 138.132 16.3955 137.399 16.4237C137.08 16.4331 136.986 16.3391 136.986 16.0102C137.005 14.5633 137.005 13.1069 136.995 11.6599C136.995 11.3968 136.986 11.1243 136.929 10.8706C136.817 10.3257 136.516 10.1096 135.962 10.1284C135.454 10.1471 135.182 10.3914 135.097 10.927C135.012 11.4861 135.023 12.0545 135.034 12.6223V12.6225V12.6227V12.6228V12.623V12.6231V12.6233V12.6235V12.6236C135.039 12.8665 135.044 13.1092 135.041 13.3512C135.022 14.2621 135.031 15.1636 135.041 16.0652V16.0666C135.05 16.3203 134.984 16.4237 134.712 16.4143C133.932 16.3955 133.143 16.3955 132.363 16.4143C132.09 16.4143 132.025 16.3297 132.025 16.0666C132.034 12.7029 132.034 9.32969 132.025 5.96593C132.025 5.74043 132.062 5.60889 132.307 5.51493C133.115 5.21426 133.913 4.89479 134.703 4.56593C134.994 4.43439 135.041 4.52835 135.041 4.80083C135.035 5.54995 135.037 6.29907 135.039 7.07776V7.07832V7.07888V7.07946V7.08005V7.08066V7.08127V7.0819V7.08254C135.04 7.48411 135.041 7.89355 135.041 8.31493C135.774 7.79815 136.516 7.56325 137.333 7.59144C138.593 7.62902 139.466 8.29614 139.805 9.49882ZM81.8948 11.7196L81.8953 11.5574C81.8972 10.9938 81.8992 10.431 81.7914 9.87556C81.4626 8.21247 80.2599 7.37623 78.578 7.62992C77.9954 7.72388 77.4881 7.96818 76.9243 8.32522C76.9243 7.90385 76.9232 7.4944 76.9221 7.09283C76.9201 6.31243 76.9181 5.56178 76.9243 4.81113C76.9243 4.54804 76.8961 4.43529 76.5954 4.56683C75.8156 4.89569 75.0357 5.20576 74.2464 5.49704C74.0303 5.5816 73.974 5.69435 73.974 5.91046C73.9834 9.29301 73.9834 12.6756 73.974 16.0581C73.974 16.3306 74.0679 16.3964 74.3216 16.387C75.0733 16.3682 75.825 16.3682 76.5766 16.387C76.8679 16.3964 76.9431 16.3024 76.9431 16.0205C76.929 15.013 76.9308 14.0108 76.9325 13.006C76.9331 12.6707 76.9337 12.3352 76.9337 11.9991C76.9337 11.9239 76.9326 11.8492 76.9314 11.7747L76.9314 11.7739V11.7738C76.9269 11.4758 76.9225 11.1813 76.9901 10.8809C77.1216 10.3172 77.4035 10.0823 77.9766 10.0917C78.4934 10.1011 78.7941 10.3642 78.8787 10.9185C78.9162 11.2098 78.9162 11.5105 78.9162 11.8017C78.9162 12.1496 78.9168 12.4969 78.9174 12.8439C78.9192 13.884 78.9209 14.9214 78.9068 15.9642C78.9068 16.293 79.0008 16.387 79.3297 16.3776C80.0438 16.3588 80.7673 16.3494 81.4907 16.3776C81.8666 16.3964 81.923 16.2554 81.9136 15.9266C81.891 14.8296 81.8925 13.7266 81.894 12.6177V12.6176V12.6175V12.6175V12.6174V12.6173V12.6172V12.6172C81.8944 12.3395 81.8948 12.0614 81.8948 11.7829L81.8948 11.7196ZM110.758 7.76161C111.031 7.76161 111.087 7.85557 111.087 8.10926L111.087 8.11249C111.078 10.7611 111.068 13.4097 111.078 16.0489C111.078 16.3683 110.965 16.4059 110.702 16.3965C109.978 16.3777 109.255 16.3683 108.541 16.3965C108.174 16.4059 107.977 16.3307 108.08 15.8421C107.413 16.3119 106.784 16.5656 106.07 16.5656C104.378 16.575 103.401 15.7012 103.185 14.0193C103.096 13.3259 103.102 12.6324 103.108 11.9389C103.11 11.6834 103.112 11.4279 103.11 11.1723C103.106 10.7417 103.107 10.3094 103.108 9.87605V9.87563V9.87521V9.87479V9.87437V9.87395V9.87353C103.11 9.296 103.111 8.71673 103.1 8.13745C103.091 7.86496 103.157 7.75221 103.457 7.76161C104.228 7.7804 104.998 7.7898 105.76 7.76161C106.098 7.75221 106.135 7.88376 106.135 8.16564C106.129 9.09028 106.131 10.0108 106.133 10.9326V10.9337V10.9347V10.9357V10.9368V10.9378V10.9388C106.134 11.4013 106.135 11.8642 106.135 12.3281C106.135 12.6193 106.145 12.92 106.182 13.2113C106.257 13.775 106.549 14.0381 107.066 14.0475C107.639 14.0569 107.93 13.822 108.033 13.2489C108.071 13.0234 108.071 12.7886 108.071 12.5537V12.5536C108.08 11.0878 108.08 9.62201 108.071 8.15624C108.071 7.86496 108.137 7.75221 108.456 7.76161C109.227 7.7804 109.988 7.7804 110.758 7.76161ZM55.8679 7.32781C55.8491 6.66069 55.8397 5.98418 55.8679 5.31707C55.8773 4.98821 55.7739 4.90365 55.4451 4.90365C54.3321 4.91773 53.2191 4.91598 52.1022 4.91422C51.7293 4.91363 51.3559 4.91304 50.982 4.91304C50.6129 4.91304 50.2444 4.91363 49.8762 4.91422C48.7727 4.91598 47.6719 4.91774 46.5659 4.90365C46.2934 4.90365 46.1712 4.95063 46.19 5.26069C46.2088 5.96539 46.2088 6.66069 46.19 7.36539C46.1806 7.63788 46.284 7.70365 46.5377 7.69425C46.88 7.6862 47.2222 7.6885 47.5645 7.6908C48.0209 7.69387 48.4773 7.69693 48.9337 7.67546C49.3283 7.65667 49.4316 7.76942 49.4222 8.16405C49.4128 9.46546 49.4128 10.7669 49.4128 12.0683C49.4128 13.3696 49.4128 14.6708 49.4035 15.9721C49.4035 16.2916 49.4786 16.4043 49.8169 16.3949C50.5873 16.3667 51.3484 16.3573 52.1189 16.3949C52.5323 16.4137 52.6357 16.301 52.6357 15.8875C52.6263 14.5956 52.6263 13.3013 52.6263 12.007C52.6263 10.7127 52.6263 9.41841 52.6169 8.12647C52.6169 7.77881 52.692 7.66606 53.0585 7.68485C53.4991 7.70023 53.9426 7.69883 54.3873 7.69744C54.7581 7.69627 55.1298 7.6951 55.5014 7.70365C55.8021 7.70365 55.8773 7.60969 55.8679 7.32781ZM121.012 9.70682C121.115 10.1296 121.153 10.5619 121.153 11.0035C121.153 11.5617 121.152 12.1188 121.151 12.6753C121.149 13.7861 121.147 14.8941 121.153 16.0021C121.162 16.2934 121.097 16.4062 120.777 16.3968C120.044 16.3686 119.302 16.3686 118.569 16.3968C118.231 16.4062 118.109 16.331 118.118 15.9645C118.138 14.9045 118.134 13.8492 118.131 12.7919C118.129 12.3685 118.127 11.9448 118.127 11.5202V11.5202C118.127 11.2571 118.127 10.994 118.043 10.731C117.902 10.2706 117.592 10.1015 117.131 10.1015C116.662 10.1109 116.361 10.3457 116.258 10.7874C116.201 11.0598 116.192 11.3417 116.192 11.6236C116.182 13.0706 116.173 14.527 116.192 15.9739C116.201 16.2934 116.126 16.4062 115.788 16.3968C115.036 16.3686 114.284 16.378 113.533 16.3968C113.27 16.3968 113.195 16.3216 113.195 16.0585C113.204 13.4088 113.204 10.7592 113.195 8.10951C113.185 7.79944 113.298 7.75246 113.57 7.76186C114.099 7.77595 114.627 7.77419 115.156 7.77243C115.332 7.77184 115.508 7.77125 115.684 7.77125C115.911 7.77125 116.028 7.77125 116.097 7.82894C116.172 7.89106 116.19 8.02008 116.229 8.28803C116.897 7.80884 117.592 7.58333 118.372 7.59273C119.781 7.61152 120.693 8.33501 121.012 9.70682ZM129.414 13.7421L129.414 13.742L129.413 13.7411L129.412 13.7408C129.286 13.6412 129.16 13.542 129.034 13.445C128.536 13.0597 128.536 13.0597 128.141 13.5295C127.981 13.7268 127.803 13.896 127.577 14.0181C127.004 14.3282 126.328 14.1403 126.074 13.5389C125.661 12.5523 125.67 11.5282 126.102 10.551C126.375 9.93086 127.117 9.82751 127.643 10.2691C127.84 10.4382 127.981 10.6356 128.094 10.8611C128.207 11.096 128.31 11.1054 128.508 10.9456C129.034 10.5322 129.569 10.1282 130.114 9.73355C130.265 9.62079 130.302 9.53623 130.189 9.35771C129.372 8.09865 128.207 7.5067 126.704 7.59126C125.247 7.67583 124.073 8.23019 123.377 9.56442C122.973 10.3443 122.861 11.1899 122.842 12.2047C122.848 12.2731 122.853 12.358 122.859 12.4539C122.871 12.6477 122.886 12.8866 122.917 13.1255C123.124 14.4503 123.678 15.5966 124.965 16.1604C126.722 16.9309 128.865 16.7899 130.218 14.7698C130.377 14.5443 130.34 14.4503 130.142 14.3C129.897 14.1217 129.655 13.9313 129.414 13.7421ZM71.4494 13.8672C71.6499 14.0244 71.8498 14.181 72.0555 14.3287C72.2528 14.4696 72.2434 14.5824 72.0931 14.7797C70.8716 16.5743 68.5602 17.1381 66.6622 16.0764C65.3938 15.3717 64.9334 14.169 64.7736 12.8159C64.7554 12.6582 64.7529 12.4966 64.7509 12.3664V12.3661C64.7497 12.2948 64.7488 12.233 64.7454 12.1864C64.7548 11.6321 64.7736 11.1998 64.8676 10.7676C65.2152 9.16091 66.1267 8.07098 67.7803 7.71393C69.5656 7.3287 71.0126 7.86427 71.9897 9.25487C72.1589 9.48977 72.1871 9.63071 71.9146 9.80924C71.4354 10.1287 70.975 10.4857 70.5334 10.8522C70.2703 11.0683 70.0824 11.1341 69.932 10.7488C69.8857 10.6283 69.7844 10.5169 69.6914 10.4146L69.6877 10.4106C69.124 9.76226 68.222 9.8938 67.9213 10.7019C67.6018 11.5663 67.5924 12.4777 67.8837 13.3609C68.1656 14.2159 69.0112 14.4415 69.7159 13.8683C69.8287 13.7837 69.9226 13.6804 70.0166 13.577C70.4394 13.0884 70.4394 13.0884 70.975 13.5019C71.1357 13.6213 71.2927 13.7444 71.4494 13.8672ZM101.384 7.77036C100.351 7.42271 99.4207 7.58244 98.4811 8.3905C98.6221 7.81734 98.3966 7.75157 98.0113 7.77036C97.2972 7.79855 96.5737 7.78915 95.8503 7.77036C95.5872 7.76097 95.5026 7.84553 95.5026 8.11801C95.512 10.7677 95.512 13.4173 95.5026 16.0576C95.5026 16.3677 95.6247 16.4053 95.8878 16.4053C96.6207 16.3865 97.3536 16.3771 98.0959 16.4053C98.4529 16.4241 98.5281 16.3113 98.5281 15.9637C98.5093 14.5355 98.5093 13.0979 98.5281 11.6603C98.5375 11.1717 98.5751 10.6643 99.1107 10.4294C99.665 10.1945 100.182 10.3355 100.652 10.6737C100.693 10.7036 100.73 10.7419 100.768 10.781C100.849 10.865 100.933 10.9522 101.074 10.965C101.106 10.8217 101.138 10.6787 101.17 10.5359L101.17 10.5345C101.334 9.79739 101.496 9.06576 101.685 8.33412C101.779 8.00526 101.685 7.87372 101.384 7.77036ZM55.7293 10.4C56.2554 8.55838 57.693 7.53422 59.6568 7.59999C61.5078 7.65637 62.7668 8.77449 63.1709 10.6913C63.3024 11.3208 63.3118 11.9597 63.3212 12.5986C63.3212 12.8805 63.2178 12.9463 62.9642 12.9369C62.4073 12.9228 61.8557 12.9246 61.3055 12.9263C61.1223 12.9269 60.9392 12.9275 60.7561 12.9275C60.508 12.9275 60.2609 12.9286 60.0145 12.9296C59.5238 12.9317 59.0359 12.9338 58.548 12.9275C58.2944 12.9275 58.2192 12.9933 58.285 13.2564C58.4353 13.8577 58.8863 14.2523 59.5628 14.2899C60.2299 14.3275 60.8877 14.2148 61.4702 13.8953C61.8648 13.6792 62.034 13.7825 62.2125 14.1396C62.4286 14.553 62.6823 14.9476 62.936 15.3423C63.0487 15.5208 63.0393 15.6148 62.8514 15.7087C61.442 16.451 59.9574 16.7986 58.3789 16.4134C56.9225 16.0658 56.0863 15.0698 55.7105 13.6792C55.4098 12.5893 55.4286 11.4899 55.7293 10.4ZM60.3004 11.0906C60.3403 11.0929 60.3803 11.0953 60.4179 11.0953C60.6715 11.1047 60.6903 10.9919 60.6528 10.7758C60.5118 10.1181 60.1078 9.77986 59.4313 9.77986C58.8205 9.77986 58.4353 10.1463 58.2944 10.804C58.2474 11.0201 58.285 11.0953 58.5011 11.0859H58.7454H59.4783H60.183C60.2205 11.0859 60.2605 11.0882 60.3004 11.0906Z" fill="white"/>
</svg>
