<svg width="190" height="30" viewBox="0 0 190 30" fill="none" xmlns="http://www.w3.org/2000/svg">
<path d="M10.5768 9.26515V19.5635C11.9682 18.8121 12.9425 17.5037 13.4155 16.0284L13.527 16.0844C13.2206 19.7584 10.7158 23.4321 6.81922 23.4321C2.89467 23.4321 0 20.5099 0 15.8335C0 12.3268 2.28226 10.1276 5.2049 8.15138C4.78744 8.03992 4.34201 7.98439 3.89658 7.98439C1.89235 7.98439 0.723462 9.34824 0.723462 10.74H0.556478C0.52851 10.5451 0.52851 10.3506 0.52851 10.1556C0.52851 7.67839 1.83683 4.67226 5.00995 4.67226C7.04173 4.67226 8.60053 6.53706 10.9663 6.53706C11.9127 6.53706 13.0816 6.09163 13.5545 5.06175H13.638C13.6105 6.87144 13.054 8.73623 10.5768 9.26515ZM12.0796 19.814C10.6878 21.2889 9.18497 22.5417 7.23668 22.5417C3.61855 22.5417 0.835334 19.7025 0.835334 15.583C0.835334 13.1617 1.83724 11.8538 2.95061 10.3226H2.83915C2.14324 11.0185 0.306412 12.7718 0.306412 15.75C0.306412 20.3149 3.17312 23.1261 6.93068 23.1261C9.54691 23.1261 11.3282 21.3172 12.1356 19.8419L12.0796 19.814ZM13.1926 6.31496C12.7196 7.2054 11.7177 8.34633 9.68593 8.34633C7.65414 8.34633 5.78935 6.95452 4.14706 6.95452C2.64378 6.95452 1.61432 7.95683 1.22442 8.70827L1.25238 8.7642C1.78131 8.23528 2.58826 7.70636 3.89658 7.70636C6.06738 7.70636 7.45919 9.04265 9.65796 9.04265C11.9962 9.04265 13.0536 7.51141 13.2485 6.34293L13.1926 6.31496ZM5.45497 8.23528C4.0356 9.71058 2.72728 11.3249 2.72728 14.4701C2.72728 16.1954 3.31172 17.9767 4.62004 19.0901L5.427 18.6722V11.2134L4.67557 11.6029L4.53655 11.3245L8.43313 9.20881C7.3757 8.98671 6.42932 8.51372 5.45497 8.23528ZM10.2704 9.32068C10.0754 9.34824 9.88088 9.34824 9.65796 9.34824C9.26846 9.34824 8.90653 9.32068 8.54459 9.23678V17.3639L4.89849 19.341C5.64992 19.8975 6.56833 20.2314 7.73722 20.2314C8.68361 20.2314 9.51853 20.0365 10.27 19.7025V9.32068H10.2704ZM6.26233 10.7405L5.73341 11.0465V18.5061L6.26233 18.2276V10.7405ZM22.2665 11.7979V21.4283C22.2665 24.1 19.9008 25.9097 17.2566 26.4382L17.2011 26.3268C18.5094 25.6864 19.2608 24.3785 19.2608 22.9867V13.0223L17.7579 11.6589L17.1735 12.2988V20.0644L18.0084 20.8159V20.8718L15.7541 23.3211L13.1659 20.9553V20.8438L14.1678 19.786V7.48385L17.118 4.33911L17.1735 4.36667V11.8259L19.5952 9.20963L22.1279 11.4923L22.6009 10.9909L22.8238 11.1863L22.2665 11.7979ZM14.4734 20.8994V20.8438L15.0578 20.259V7.01045L14.4734 7.62328V19.981L13.5825 20.8718V20.9273L15.7533 22.8756L16.1428 22.4302L14.4734 20.8994ZM20.1512 12.5769L18.342 11.0185L17.9525 11.436L19.5668 12.8837V22.9036C19.5668 23.5715 19.4278 24.267 19.1773 24.6569L19.2053 24.6849C19.9012 24.1835 20.1517 23.4321 20.1517 22.4582V12.5769H20.1512ZM26.692 17.3923V18.8117L29.3917 20.9269L30.9505 19.2571L31.1735 19.4796L27.5553 23.3482L23.8813 20.398L23.3248 20.9824L23.1019 20.7599L23.7422 20.092V13.0503L29.0027 9.20922L31.7583 13.6627L26.692 17.3923ZM24.6323 19.8419V12.7718L24.0478 13.1897V20.1204L27.4994 22.9316L27.9448 22.4586L24.6323 19.8419ZM26.748 11.269L26.692 11.2969V17.0028L29.1692 15.1935L26.748 11.269ZM27.4714 10.7125L26.9705 11.074L29.4201 14.9986L29.9211 14.6366L27.4714 10.7125Z" fill="white"/>
<path d="M49.9007 23.3209L46.0317 19.9808L43.0815 23.3209L39.0734 19.8693V14.4143H38.294C37.5981 14.4143 37.2366 14.8598 37.0692 15.3883H36.9857C36.9302 15.1658 36.8467 14.7763 36.8467 14.3308C36.8467 13.607 37.0416 11.7146 39.0734 11.7146V6.92717C39.0734 6.00875 37.988 5.64682 37.988 4.42199C37.988 2.83605 39.4909 1.27725 42.2465 0.30249L42.358 0.385982C41.3561 0.97084 40.8272 1.52732 40.8272 2.72418C40.8272 4.56142 42.6085 4.08802 42.6085 6.98269V8.09606L45.8651 4.67247L49.2887 8.04013L52.5173 4.67247L55.6345 7.73412V18.0325L49.9007 23.3209ZM39.9643 19.4243V13.5518H38.4055C37.5981 13.5518 37.2366 14.0804 37.1807 14.5538L37.2082 14.5817C37.4867 14.2757 37.7651 14.1087 38.4051 14.1087H39.379V19.7311L43.0531 22.9042L43.4705 22.4029L39.9643 19.4243ZM39.9643 6.64873C39.9643 5.5078 38.9624 5.1179 38.9624 4.39443C38.9624 3.39212 39.3519 2.5576 39.9643 1.77821L39.9087 1.75065C39.0738 2.39103 38.2944 3.42091 38.2944 4.4224C38.2944 5.42472 39.3798 5.89771 39.3798 6.78856V11.715H39.9643V6.64873ZM45.8371 9.43235L43.7218 7.3726L42.6085 8.51352V18.3664L45.1412 20.5097L45.8371 19.7303V9.43235ZM46.7276 19.3688V9.04285L44.3618 6.70466L43.9164 7.15009L46.1431 9.29292V19.6748L49.9007 22.9314L50.3461 22.5135L46.7276 19.3688ZM52.1274 9.07041L50.3741 7.40016L49.3722 8.43003V18.3389L52.0999 20.7322L52.1274 20.7046V9.07041ZM53.0179 8.68092L50.9861 6.70466L50.5686 7.15009L52.4334 8.93139V20.5656L53.0179 20.0087V8.68092Z" fill="white"/>
<path d="M64.8447 23.3206L62.2005 20.9269L59.8347 23.3206L56.94 20.7599L56.5501 21.1774L56.3276 20.9549L56.8286 20.426V12.9672L62.0615 9.18166L65.0676 11.5199L65.5965 10.963L65.8194 11.1859L65.207 11.8259V19.5359L66.6819 20.8994L67.1553 20.3984L67.3778 20.5934L64.8447 23.3206ZM57.7194 20.2314V12.7163L57.135 13.1338V20.5099L59.8072 22.9036L60.2526 22.4582L57.7194 20.2314ZM62.2005 12.9113L59.9182 11.13L59.8347 11.1859V19.285L61.7275 20.9269L62.2005 20.4539V12.9113ZM63.0913 20.4819V12.4938L60.7256 10.5731L60.1691 10.9626L62.5069 12.7998V20.7599L64.8451 22.8752L65.2625 22.4298L63.0913 20.4819ZM72.9442 14.2471H75.8109V20.2035L71.3854 23.3206C70.801 22.6527 69.9657 22.1797 68.9362 22.1797C68.1013 22.1797 67.4329 22.4582 66.5425 23.2096L66.4035 23.1537L70.189 17.6428H67.8508V12.4658L72.4992 9.23719C73.0557 9.68262 73.4732 9.93268 74.197 9.93268C74.7539 9.93268 75.5609 9.82122 76.1733 9.32068L76.2848 9.3762L72.9442 14.2471ZM69.8271 21.3724C69.0197 21.3724 68.3797 21.6508 67.8228 22.0403V22.0962C68.2683 21.9013 68.7137 21.8458 69.1312 21.8458C69.7711 21.8458 70.7734 22.1522 71.4414 22.9316L72.0818 22.4586C71.5524 21.8458 70.9125 21.3724 69.8271 21.3724ZM72.8048 16.6964H71.246L67.9894 21.4007L68.0174 21.4563C68.8243 20.8718 69.6037 20.4823 70.5501 20.4823C71.385 20.4823 72.2479 20.8718 72.7768 21.5397L72.8048 21.5122V16.6964ZM68.7413 16.6964V12.2158L68.1568 12.6332V17.3092H70.4111L70.8565 16.6968H68.7413V16.6964ZM74.5586 11.241C73.9741 11.6589 73.6401 11.8814 72.6658 11.8814C72.1089 11.8814 71.441 11.6309 70.9125 11.074L70.8569 11.102V15.1655H71.9144L74.5865 11.2686L74.5586 11.241ZM73.2227 10.9905C72.7217 10.9905 72.0818 10.7405 71.6639 10.1836L70.968 10.6566C71.4969 11.2969 71.9979 11.575 72.7768 11.575C73.2778 11.575 74.0017 11.4355 74.7531 10.7952L74.7807 10.7121C74.3081 10.9074 73.7236 10.9905 73.2227 10.9905ZM73.6957 15.7784H71.8864L71.4689 16.3628H73.1112V21.7623L73.6957 21.3448V15.7784ZM85.4134 11.7979V21.4283C85.4134 24.1 83.0476 25.9097 80.4034 26.4382L80.3479 26.3268C81.6562 25.6864 82.4077 24.3785 82.4077 22.9867V13.0223L80.9048 11.6589L80.3204 12.2988V20.0644L81.1553 20.8159V20.8718L78.901 23.3211L76.3127 20.9553V20.8438L77.3146 19.786V7.48385L80.2648 4.33911L80.3204 4.36667V11.8259L82.742 9.20963L85.2748 11.4923L85.7478 10.9909L85.9707 11.1863L85.4134 11.7979ZM77.6202 20.8994V20.8438L78.2047 20.259V7.01045L77.6202 7.62287V19.9805L76.7294 20.8714V20.9269L78.9002 22.8752L79.2897 22.4298L77.6202 20.8994ZM83.2981 12.5769L81.4888 11.0185L81.0993 11.436L82.7137 12.8837V22.9036C82.7137 23.5715 82.5746 24.267 82.3242 24.6569L82.3521 24.6849C83.048 24.1835 83.2985 23.4321 83.2985 22.4582V12.5769H83.2981ZM90.4793 23.3206L88.0855 21.1219L87.5287 21.7063L87.3057 21.4834L87.9461 20.7879V12.7443L86.7772 11.6309L86.3318 12.1323L86.1089 11.9093L88.6136 9.18166L90.8404 11.1859L91.3973 10.5735L91.6477 10.7684L90.9518 11.5199V19.6474L92.2881 20.8998L92.9005 20.2594L93.123 20.4823L90.4793 23.3206ZM88.837 20.5934V12.2988L87.3896 10.963L87.0001 11.4084L88.2525 12.6053V20.8718L90.4793 22.8756L90.8967 22.4302L88.837 20.5934ZM89.6719 8.95915L87.3896 6.87185L89.4774 4.64511L91.7596 6.73242L89.6719 8.95915ZM88.2525 6.42601L87.8351 6.84347L89.6439 8.54128L90.0614 8.0683L88.2525 6.42601Z" fill="white"/>
<path d="M102.248 23.3208L99.8268 21.1221V12.9949L98.3515 11.6591L97.5721 12.494V20.0087L98.435 20.8157V20.9271L96.1527 23.3208L93.564 20.9551V20.8716L94.5663 19.8142V12.8L93.258 11.6031L92.7291 12.1876L92.5066 11.9651L95.0393 9.20941L97.5721 11.4641V12.0206L100.216 9.20941L102.693 11.4361L103.25 10.8517L103.5 11.0742L102.832 11.7701V19.7303L104.085 20.8991L104.697 20.2312L104.92 20.4537L102.248 23.3208ZM94.9003 20.8996V20.844C94.9003 20.8996 95.4572 20.2871 95.4572 20.2871V12.3821L93.8704 10.9348L93.4805 11.3522L94.8723 12.6326V19.9803L94.0095 20.8712V20.9267L96.1527 22.875L96.5977 22.402L94.9003 20.8996ZM100.717 20.677V12.522L98.9918 10.9632L98.5464 11.4361L100.133 12.8555V20.9551L102.22 22.9034L102.666 22.43L100.717 20.677ZM110.097 28.3308C109.179 27.3289 108.539 26.9114 107.676 26.9114C106.757 26.9114 105.7 27.2733 104.614 27.8578L104.531 27.7747L108.372 23.3212L105.644 21.1504L105.115 21.7073L104.893 21.5124L105.505 20.8444V12.9674L110.793 9.18185L113.743 11.52L114.245 10.9632L114.467 11.1861L113.883 11.826V21.3454C113.883 22.7927 114.69 22.7372 114.69 23.8222C114.69 25.0746 112.88 26.2435 110.097 28.3308ZM106.396 20.6211V12.7445L105.811 13.1623V20.872L108.566 23.0987L108.984 22.5974L106.396 20.6211ZM108.344 26.1879C107.425 26.1879 106.59 26.4664 105.811 26.9949V27.0508C106.312 26.8559 106.868 26.6054 107.815 26.6054C108.678 26.6054 109.401 27.0784 110.125 27.9137L110.682 27.4683C109.986 26.6613 109.151 26.1879 108.344 26.1879ZM111.739 23.5158C111.044 23.0704 110.877 22.5974 110.877 21.4005V20.8991L106.256 26.2431L106.284 26.2706C107.174 25.7421 107.982 25.3526 109.29 25.3526C110.404 25.3526 111.155 25.7976 112.018 26.5215C112.547 26.0761 112.908 25.6311 112.908 24.9352C112.908 24.3787 112.435 23.9612 111.739 23.5158ZM110.877 12.9114L108.566 11.1026L108.51 11.1581V19.7027L110.292 21.0945L110.877 20.4266V12.9114V12.9114ZM112.574 23.1263C111.85 22.5694 111.767 22.0964 111.767 20.8996V12.4385L109.429 10.5457L108.9 10.9076L111.183 12.7165V21.289C111.183 22.4859 111.238 22.8203 111.99 23.3208C112.658 23.7663 113.186 24.2392 113.186 24.8796C113.186 25.0462 113.159 25.3246 113.159 25.3246L113.186 25.3526C113.326 25.2132 113.493 24.9907 113.493 24.6287C113.493 24.0167 113.187 23.5993 112.574 23.1263ZM119.255 23.3208L116.694 21.317L116.165 21.9015L115.942 21.6785L116.554 21.0106V11.2692H114.94L114.884 11.2136L115.859 9.76588H116.554V7.9015L119.505 4.75635L119.56 4.81228V9.76629H121.787L121.843 9.82223L120.868 11.2696H119.56V19.7031L121.091 20.8724L121.676 20.232L121.898 20.4545L119.255 23.3208ZM117.445 7.4281L116.861 8.06848V9.76629H117.445V7.4281ZM117.445 20.7326V11.2692H116.861V21.0665L119.227 22.9038L119.644 22.4583L117.445 20.7326ZM131 12.0765V19.8697L126.296 23.3488L122.761 20.677L122.343 21.15L122.121 20.9271L122.622 20.3706V12.7445L127.549 9.20941L130.833 11.7705L131.361 11.2136L131.584 11.4361L131 12.0765ZM123.513 20.0926V12.494L122.928 12.9114V20.3986L126.268 22.9593L126.797 22.5698L123.513 20.0926ZM127.994 12.9949L125.656 11.1577L125.628 11.1857V19.4798L127.994 21.2611V12.9949ZM128.885 12.494L126.296 10.4898L125.768 10.8793L128.301 12.8275V21.484L128.885 21.039V12.494ZM141.633 23.3208L139.211 21.1221V12.9949L137.736 11.6591L136.956 12.494V20.0087L137.819 20.8157V20.9271L135.537 23.3208L132.948 20.9551V20.8716L133.95 19.8142V12.8L132.642 11.6031L132.113 12.1876L131.891 11.9651L134.423 9.20941L136.956 11.4641V12.0206L139.6 9.20941L142.078 11.4361L142.634 10.8517L142.885 11.0742L142.217 11.7701V19.7303L143.469 20.8991L144.081 20.2312L144.304 20.4537L141.633 23.3208ZM134.284 20.8996V20.844C134.284 20.8996 134.841 20.2871 134.841 20.2871V12.3821L133.255 10.9348L132.865 11.3522L134.257 12.6326V19.9803L133.394 20.8712V20.9267L135.537 22.875L135.983 22.402L134.284 20.8996ZM140.101 20.677V12.522L138.376 10.9632L137.93 11.4361L139.517 12.8555V20.9551L141.604 22.9034L142.05 22.43L140.101 20.677Z" fill="white"/>
<path d="M158.827 23.3208C158.048 22.4858 157.77 22.2074 156.851 21.9569V22.5693V27.4123L156.795 27.4398L155.681 26.4375L152.453 29.4157L152.397 29.3881V21.9014C151.423 22.1239 150.393 22.6253 149.391 23.6268L149.335 23.5992C149.53 21.456 150.588 19.8696 152.396 19.2572V13.8298H151.812C151.005 13.8298 150.56 14.2472 150.17 14.9987H150.087C150.003 14.7486 149.947 14.3583 149.947 13.7187C149.947 12.5494 150.81 11.325 152.23 11.325H152.396V8.31888L151.256 7.289L150.699 7.84589L150.504 7.65094L153.315 4.67277L155.931 7.06649V9.59923L156.544 8.93129V5.73021H156.85V8.65285L160.551 4.67236L163.696 7.53948V19.6471L158.827 23.3208ZM152.398 20.8715C151.257 21.094 150.45 21.7899 149.921 22.7083L149.948 22.7643C150.728 22.0963 151.451 21.7903 152.398 21.5674V20.8715ZM153.289 12.8838H151.758C150.7 12.8838 150.282 13.5517 150.255 14.3311L150.282 14.3587C150.616 13.8018 150.95 13.6073 151.618 13.5242H152.704V28.693L153.289 28.1362V12.8838ZM153.289 7.87345L151.897 6.59351L151.451 7.06649L152.704 8.17945V11.3246H153.289V7.87345V7.87345ZM156.545 9.4598L155.933 10.1002V26.2158L156.545 26.7727V9.4598ZM160.191 8.81983L158.549 7.31697L156.851 9.15421V18.9512C158.298 19.0906 159.3 19.5081 160.163 20.454L160.191 20.4265V8.81983ZM156.851 20.8715V21.5954C157.798 21.8179 158.187 22.0963 158.855 22.8753L159.495 22.3744C158.827 21.5394 158.159 21.0389 156.851 20.8715ZM161.082 8.37481L159.189 6.62106L158.744 7.09405L160.497 8.70837V21.6509L161.082 21.2055V8.37481ZM173.412 12.0764V19.8696L168.707 23.3487L165.173 20.677L164.755 21.15L164.532 20.927L165.033 20.3706V12.7444L169.96 9.20932L173.244 11.7704L173.773 11.2136L173.996 11.4361L173.412 12.0764ZM165.925 20.0925V12.4939L165.34 12.9114V20.3985L168.68 22.9592L169.209 22.5697L165.925 20.0925ZM170.406 12.9949L168.068 11.1576L168.04 11.1856V19.4797L170.406 21.261V12.9949ZM171.297 12.4939L168.708 10.4897L168.179 10.8792L170.712 12.8275V21.4839L171.297 21.0389V12.4939ZM179.869 14.2472H182.736V20.2036L178.31 23.3208C177.726 22.6528 176.891 22.1798 175.861 22.1798C175.026 22.1798 174.358 22.4583 173.467 23.2097L173.328 23.1538L177.113 17.6429H174.775V12.4659L179.424 9.23729C179.981 9.68272 180.398 9.93279 181.121 9.93279C181.678 9.93279 182.485 9.82133 183.098 9.32079L183.209 9.37631L179.869 14.2472ZM176.752 21.3725C175.945 21.3725 175.304 21.6509 174.748 22.0404V22.0963C175.193 21.9014 175.638 21.8459 176.056 21.8459C176.696 21.8459 177.698 22.1523 178.366 22.9317L179.006 22.4587C178.478 21.8459 177.837 21.3725 176.752 21.3725ZM179.73 16.6965H178.171L174.915 21.4008L174.943 21.4564C175.75 20.8719 176.529 20.4824 177.475 20.4824C178.31 20.4824 179.173 20.8719 179.702 21.5399L179.73 21.5123V16.6965H179.73ZM175.667 16.6965V12.2159L175.082 12.6333V17.3093H177.336L177.781 16.6969H175.667V16.6965ZM181.483 11.2411C180.899 11.659 180.565 11.8815 179.59 11.8815C179.033 11.8815 178.365 11.631 177.837 11.0741L177.781 11.1021V15.1657H178.838L181.511 11.2687L181.483 11.2411ZM180.147 10.9906C179.646 10.9906 179.006 10.7406 178.589 10.1837L177.893 10.6567C178.422 11.297 178.923 11.5751 179.702 11.5751C180.203 11.5751 180.927 11.4356 181.678 10.7953L181.706 10.7122C181.233 10.9075 180.649 10.9906 180.147 10.9906ZM180.621 15.7785H178.812L178.394 16.3629H180.036V21.7624L180.621 21.3449V15.7785ZM187.356 23.3208L184.796 21.3169L184.267 21.9014L184.044 21.6785L184.656 21.0105V11.2691H183.042L182.986 11.2136L183.96 9.7658H184.656V7.90142L187.606 4.75627L187.662 4.8122V9.76621H189.889L189.945 9.82215L188.97 11.2695H187.662V19.703L189.193 20.8723L189.778 20.2319L190 20.4545L187.356 23.3208ZM185.547 7.42802L184.963 8.0684V9.76621H185.547V7.42802ZM185.547 20.7325V11.2691H184.963V21.0665L187.328 22.9037L187.746 22.4583L185.547 20.7325Z" fill="white"/>
</svg>
