<svg width="179" height="50" viewBox="0 0 179 50" fill="none" xmlns="http://www.w3.org/2000/svg">
<path fill-rule="evenodd" clip-rule="evenodd" d="M63.6451 18.3097H58.3621L58.2476 18.3298V33.0621H63.6443C68.7621 33.0621 71.0516 29.2798 71.0516 25.5298C71.0516 22.0524 68.7347 18.3097 63.6451 18.3097ZM63.6451 20.2806C67.358 20.2806 69.021 22.9065 69.021 25.5105C69.021 28.0573 67.6137 31.029 63.6451 31.029H60.279V20.2806H63.6451ZM77.7709 31.421C79.529 31.4048 80.8056 30.0492 80.8056 28.2048L80.8072 22.5984H82.7347V33.0581H80.9572L80.8839 31.6242C80.0177 32.6653 78.854 33.2073 77.4209 33.225H77.4193C74.6451 33.225 72.8508 31.3218 72.8508 28.3685V22.5976H74.7782V28.3468C74.7782 30.2694 75.8976 31.421 77.7709 31.421ZM94.0089 31.4798L92.808 30.2782L92.7242 30.3621C92.0701 31.0363 91.1516 31.4032 90.1363 31.4032C88.3766 31.4032 86.6024 30.3008 86.6024 27.8298C86.6024 25.725 88.0637 24.254 90.1556 24.254C91.0943 24.254 92.008 24.6185 92.6637 25.2581L92.7468 25.3371L93.983 24.054L93.9 23.975C92.8419 22.9355 91.5661 22.4081 90.1121 22.4081C86.8443 22.4081 84.6524 24.5855 84.6524 27.8298C84.6524 31.5726 87.3935 33.2468 90.1121 33.2468C91.6274 33.2468 92.9379 32.7065 94.0056 31.6395L94.0887 31.5581L94.0089 31.4798ZM103.9 22.5984V22.8645L99.2234 27.5411L104.477 32.7758V33.0645H102.244L97.5806 28.3992V33.0645H95.6709V18.3314H97.5806V26.7419L101.622 22.5984H103.9Z" fill="#333333"/>
<path fill-rule="evenodd" clip-rule="evenodd" d="M111.403 18.3097H106.122L106.004 18.3298V33.0621H111.397C116.518 33.0621 118.807 29.2798 118.807 25.5298C118.813 22.0524 116.494 18.3097 111.403 18.3097ZM111.403 20.2806C115.116 20.2806 116.781 22.9065 116.781 25.5105C116.781 28.0573 115.373 31.029 111.403 31.029H108.039V20.2806H111.403ZM125.527 31.421C127.289 31.4048 128.564 30.0492 128.564 28.2048H128.564V22.5984H130.493V33.0581H128.714L128.639 31.6242C127.773 32.6653 126.61 33.2073 125.177 33.225H125.176C122.403 33.225 120.608 31.3218 120.608 28.3685V22.5976H122.535V28.3468C122.535 30.2694 123.656 31.421 125.527 31.421ZM141.768 31.4798L140.567 30.2782L140.486 30.3621C139.831 31.0363 138.913 31.4032 137.897 31.4032C136.138 31.4032 134.363 30.3008 134.363 27.8298C134.363 25.725 135.824 24.254 137.914 24.254C138.852 24.254 139.767 24.6185 140.424 25.2581L140.507 25.3371L141.743 24.054L141.659 23.975C140.601 22.9355 139.326 22.4081 137.872 22.4081C134.604 22.4081 132.411 24.5855 132.411 27.8298C132.411 31.5726 135.156 33.2468 137.872 33.2468C139.387 33.2468 140.697 32.7065 141.765 31.6395L141.849 31.5581L141.768 31.4798ZM151.658 22.5984V22.8645L146.981 27.5411L152.239 32.7758V33.0645H150.005L145.339 28.3992V33.0645H143.431V18.3314H145.339V26.7419L149.381 22.5984H151.658Z" fill="#333333"/>
<path fill-rule="evenodd" clip-rule="evenodd" d="M164.042 26.7226H159.527V24.8976H165.908V30.796L165.878 30.8274C164.303 32.5121 162.439 33.3306 160.18 33.3306C154.514 33.3306 152.504 29.2855 152.504 25.8202C152.491 23.5702 153.256 21.5573 154.651 20.1548C156.027 18.7718 157.933 18.0403 160.159 18.0403C162.2 18.0403 164.119 18.8242 165.565 20.2492L165.64 20.3234L164.454 21.6992L164.368 21.6137C163.302 20.5871 161.69 19.9484 160.161 19.9484C156.281 19.9484 154.515 22.9919 154.515 25.821C154.515 28.5984 156.273 31.4032 160.2 31.4032C161.627 31.4032 162.954 30.9161 164.042 29.9944V26.7226ZM172.875 22.3694C169.736 22.3694 167.456 24.675 167.456 27.8508C167.456 30.9782 169.736 33.2476 172.875 33.2476C176.025 33.2476 178.314 30.9782 178.314 27.8508C178.314 24.6226 176.076 22.3694 172.875 22.3694ZM172.875 31.4218C170.852 31.4218 169.385 29.9258 169.385 27.8508C169.385 25.6742 170.829 24.1548 172.896 24.1548C174.93 24.1548 176.407 25.7089 176.407 27.85C176.384 29.9548 174.932 31.4218 172.875 31.4218Z" fill="#333333"/>
<path fill-rule="evenodd" clip-rule="evenodd" d="M25 50C38.8071 50 50 38.8071 50 25C50 11.1929 38.8071 0 25 0C11.1929 0 0 11.1929 0 25C0 38.8071 11.1929 50 25 50Z" fill="#DE5833"/>
<mask id="mask0" mask-type="alpha" maskUnits="userSpaceOnUse" x="3" y="3" width="44" height="44">
<path fill-rule="evenodd" clip-rule="evenodd" d="M24.9999 46.6667C36.9661 46.6667 46.6666 36.9662 46.6666 25C46.6666 13.0338 36.9661 3.33334 24.9999 3.33334C13.0338 3.33334 3.33325 13.0338 3.33325 25C3.33325 36.9662 13.0338 46.6667 24.9999 46.6667Z" fill="white"/>
</mask>
<g mask="url(#mask0)">
<path fill-rule="evenodd" clip-rule="evenodd" d="M29.6374 47.3166C28.5916 45.2833 27.5916 43.4125 26.9707 42.175C25.3207 38.8708 23.6624 34.2125 24.4166 31.2083C24.5541 30.6625 22.8624 10.9958 21.6666 10.3625C20.3374 9.65415 17.4499 8.72082 15.9541 8.47082C14.9124 8.30415 14.6749 8.59582 14.2374 8.66248C14.6499 8.70415 16.6124 9.67082 16.9916 9.72498C16.6124 9.98332 15.4916 9.71665 14.7749 10.0333C14.4124 10.2 14.1416 10.8167 14.1499 11.1083C16.1916 10.9 19.3832 11.1042 21.2749 11.9417C19.7707 12.1125 17.4874 12.3042 16.5041 12.8208C13.6541 14.3208 12.3957 17.8333 13.1457 22.0416C13.8916 26.2416 17.1957 41.5625 18.2499 46.6791C19.2999 51.7916 31.3791 50.7208 29.6332 47.3166H29.6374Z" fill="#D5D7D8"/>
<path d="M25.3249 30.5042C24.5749 33.5083 26.2249 38.1625 27.8791 41.4708C28.4349 42.5761 29.2925 44.1891 30.2152 45.975C28.0629 46.5083 22.8408 47.255 19.1708 45.975C18.1208 40.8708 14.8166 25.5458 14.0624 21.3375C13.3124 17.1292 14.0624 14.125 16.9208 12.625C17.8999 12.1083 19.2999 11.7333 20.7999 11.5667C18.9083 10.725 16.6666 10.4 14.6166 10.6083C14.6083 9.74166 16.1374 9.79166 16.7124 9.39999C16.3333 9.34583 15.3916 8.49583 14.9749 8.45416C17.5754 8.0082 20.2503 8.42987 22.5874 9.65416C23.7791 10.2917 24.6208 10.975 25.1416 11.6917C26.4999 11.95 27.6999 12.4417 28.4833 13.225C30.8916 15.6292 33.0416 21.125 32.1416 24.2833C31.8874 25.1583 31.3083 25.7958 30.5833 26.325C29.1749 27.35 29.4249 25.1375 25.9208 27.4292C25.4666 27.725 25.4666 29.9583 25.3249 30.5042Z" fill="white"/>
</g>
<path fill-rule="evenodd" clip-rule="evenodd" d="M18.9459 23.1292C19.818 23.1292 20.525 22.4221 20.525 21.55C20.525 20.6778 19.818 19.9708 18.9459 19.9708C18.0737 19.9708 17.3667 20.6778 17.3667 21.55C17.3667 22.4221 18.0737 23.1292 18.9459 23.1292Z" fill="#2D4F8E"/>
<path fill-rule="evenodd" clip-rule="evenodd" d="M19.65 21.4333C19.8755 21.4333 20.0584 21.2505 20.0584 21.025C20.0584 20.7995 19.8755 20.6167 19.65 20.6167C19.4245 20.6167 19.2417 20.7995 19.2417 21.025C19.2417 21.2505 19.4245 21.4333 19.65 21.4333Z" fill="white"/>
<path fill-rule="evenodd" clip-rule="evenodd" d="M29.4958 21.9667C30.2437 21.9667 30.8499 21.3604 30.8499 20.6125C30.8499 19.8646 30.2437 19.2583 29.4958 19.2583C28.7479 19.2583 28.1416 19.8646 28.1416 20.6125C28.1416 21.3604 28.7479 21.9667 29.4958 21.9667Z" fill="#2D4F8E"/>
<path fill-rule="evenodd" clip-rule="evenodd" d="M30.1 20.5125C30.2933 20.5125 30.45 20.3558 30.45 20.1625C30.45 19.9692 30.2933 19.8125 30.1 19.8125C29.9067 19.8125 29.75 19.9692 29.75 20.1625C29.75 20.3558 29.9067 20.5125 30.1 20.5125Z" fill="white"/>
<path fill-rule="evenodd" clip-rule="evenodd" d="M19.3999 16.9792C19.3999 16.9792 18.2083 16.4375 17.0541 17.1667C15.8999 17.8917 15.9416 18.6333 15.9416 18.6333C15.9416 18.6333 15.3291 17.2667 16.9624 16.5958C18.5999 15.9292 19.3999 16.9792 19.3999 16.9792V16.9792Z" fill="url(#paint0_linear)"/>
<path fill-rule="evenodd" clip-rule="evenodd" d="M30.3125 16.8708C30.3125 16.8708 29.4583 16.3833 28.7917 16.3917C27.4292 16.4083 27.0583 17.0083 27.0583 17.0083C27.0583 17.0083 27.2875 15.575 29.0292 15.8625C29.5971 15.9663 30.0773 16.3436 30.3125 16.8708Z" fill="url(#paint1_linear)"/>
<path fill-rule="evenodd" clip-rule="evenodd" d="M23.7792 27.6375C23.9375 26.6792 26.4042 24.875 28.1542 24.7625C29.9042 24.6542 30.4458 24.6792 31.9042 24.3292C33.3667 23.9833 37.1292 23.0458 38.1667 22.5625C39.2083 22.0833 43.625 22.8 40.5125 24.5375C39.1667 25.2917 35.5375 26.675 32.9417 27.45C30.35 28.225 28.7792 26.7083 27.9167 27.9833C27.2333 28.9958 27.7792 30.3833 30.875 30.6708C35.0583 31.0583 39.0667 28.7875 39.5083 29.9958C39.95 31.2042 35.9167 32.7042 33.4583 32.7542C31 32.8 26.05 31.1292 25.3083 30.6125C24.5625 30.1 23.575 28.8917 23.7792 27.6375V27.6375Z" fill="#FDD20A"/>
<path fill-rule="evenodd" clip-rule="evenodd" d="M32.8208 36.1799C31.9375 35.9841 27.9208 39.0216 27.9208 39.0216H27.925L27.7375 41.3549C27.7375 41.3549 32.3291 43.2341 33.1125 42.9424C33.8958 42.6424 33.7 36.3799 32.8208 36.1799ZM19.7 37.3549C19.7958 36.0841 25.6708 39.2216 25.6708 39.2216L25.675 39.2174L25.9666 41.6674C25.9666 41.6674 21.0708 44.6007 20.3833 44.2091C19.7 43.8174 19.6 38.6299 19.7 37.3549Z" fill="#65BC46"/>
<path fill-rule="evenodd" clip-rule="evenodd" d="M24.25 39.5507C24.25 41.6049 23.9542 42.4883 24.8334 42.6841C25.7167 42.8799 27.3792 42.6841 27.9709 42.2924C28.5542 41.9007 28.0667 39.2591 27.8709 38.7674C27.675 38.2757 24.2459 38.6674 24.2459 39.5507H24.25Z" fill="#43A244"/>
<path fill-rule="evenodd" clip-rule="evenodd" d="M24.625 39.0966C24.625 41.1507 24.3292 42.0299 25.2084 42.2257C26.0875 42.4257 27.75 42.2257 28.3417 41.8341C28.9292 41.4424 28.4417 38.8007 28.2459 38.3091C28.05 37.8174 24.6209 38.2132 24.6209 39.0924L24.625 39.0966Z" fill="#65BC46"/>
<path fill-rule="evenodd" clip-rule="evenodd" d="M24.9999 45.9635C36.5778 45.9635 45.9635 36.5779 45.9635 25C45.9635 13.4222 36.5778 4.03647 24.9999 4.03647C13.4221 4.03647 4.03638 13.4222 4.03638 25C4.03638 36.5779 13.4221 45.9635 24.9999 45.9635ZM24.9999 47.9167C37.6564 47.9167 47.9166 37.6565 47.9166 25C47.9166 12.3435 37.6564 2.08334 24.9999 2.08334C12.3434 2.08334 2.08325 12.3435 2.08325 25C2.08325 37.6565 12.3434 47.9167 24.9999 47.9167Z" fill="white"/>
<path fill-rule="evenodd" clip-rule="evenodd" d="M24.9972 45.6962C36.4289 45.6962 45.6962 36.429 45.6962 24.9973C45.6962 13.5656 36.4289 4.29839 24.9972 4.29839C13.5655 4.29839 4.29831 13.5656 4.29831 24.9973C4.29831 36.429 13.5655 45.6962 24.9972 45.6962ZM47.9139 24.9973C47.9139 37.6538 37.6538 47.914 24.9972 47.914C12.3407 47.914 2.08057 37.6538 2.08057 24.9973C2.08057 12.3408 12.3407 2.08065 24.9972 2.08065C37.6538 2.08065 47.9139 12.3408 47.9139 24.9973Z" fill="white"/>
<defs>
<linearGradient id="paint0_linear" x1="15.8291" y1="18.6337" x2="19.3999" y2="18.6337" gradientUnits="userSpaceOnUse">
<stop offset="0.01" stop-color="#6176B9"/>
<stop offset="0.69" stop-color="#394A9F"/>
</linearGradient>
<linearGradient id="paint1_linear" x1="27.0583" y1="17.0086" x2="30.3125" y2="17.0086" gradientUnits="userSpaceOnUse">
<stop offset="0.01" stop-color="#6176B9"/>
<stop offset="0.69" stop-color="#394A9F"/>
</linearGradient>
</defs>
</svg>
