<?xml version="1.0" encoding="UTF-8"?>
<svg width="150px" height="100px" viewBox="0 0 150 100" version="1.1" xmlns="http://www.w3.org/2000/svg" xmlns:xlink="http://www.w3.org/1999/xlink">
    <title>abine</title>
    <g id="abine" stroke="none" stroke-width="1" fill="none" fill-rule="evenodd">
        <rect fill="#FFFFFF" x="0" y="0" width="150" height="100"></rect>
        <g transform="translate(23.000000, 15.000000)" fill-rule="nonzero">
            <path d="M28.5203333,30.5669259 C31.5186667,26.7371481 38.9106667,26.9054074 41.4835556,32.4172593 C43.2548148,36.1975185 43.2646667,40.0568519 41.2657778,43.7676296 C38.9205185,48.1117778 33.5372593,48.9035556 30.2519259,47.0332593 C29.4998148,46.6078148 28.8664444,46.0436667 28.2727407,45.3312222 C28.2727407,45.9446296 28.2431852,46.4989259 28.2825926,47.052963 C28.3124074,47.4685556 28.1441481,47.538037 27.7780741,47.5279259 C26.6103704,47.5082222 25.4426407,47.4983704 24.274963,47.5279259 C23.8692481,47.538037 23.7603852,47.4291481 23.7603852,47.0135556 C23.7702889,40.0667037 23.7702889,33.11 23.7702889,26.1631481 C23.7702889,25.1539037 23.6020556,24.9856704 22.5926815,24.9856704 C21.4349074,24.9856704 21.4349074,24.9856704 21.4349074,23.8377741 C21.4349074,22.9768519 21.4447852,22.1258074 21.4250037,21.2648852 C21.4151,20.9779111 21.5140593,20.8987593 21.7911556,20.908637 C23.2359037,20.9185407 24.6905815,20.8987593 26.1354074,20.9185407 C27.7583704,20.9482259 28.5102222,21.7299963 28.5102222,23.3528815 C28.5102222,25.6585778 28.4905185,27.9642222 28.4806667,30.2700741 C28.5003704,30.3392963 28.5003704,30.3986667 28.5203333,30.5669259 L28.5203333,30.5669259 Z M28.3914815,38.1567407 C28.3619259,39.1463333 28.5797037,40.2746296 29.1039259,41.3233333 C29.876,42.8869259 31.1129259,43.846963 32.8841852,43.926037 C34.5960741,44.0051111 35.9418889,43.2631111 36.881963,41.837963 C38.2871481,39.7104815 38.2277778,36.048963 36.7632222,33.9611481 C34.9325926,31.3485926 31.0335926,31.4476296 29.3515185,34.158963 C28.628963,35.3168148 28.3914815,36.622963 28.3914815,38.1567407 L28.3914815,38.1567407 Z" id="Shape" fill="#5B5378"></path>
            <path d="M50.9058148,0.00989569259 C55.2403704,0.00989569259 59.5746667,0.0197913593 63.8988519,0 C64.3344074,0 64.4827037,0.089061 64.4827037,0.564054815 C64.463,4.74994074 64.463,8.93581111 64.4827037,13.1216815 C64.4827037,13.5373 64.4134815,13.6956296 63.9483704,13.6857259 C62.2561852,13.6560407 60.5541481,13.6659444 58.861963,13.6857259 C58.4761852,13.6857259 58.3672963,13.5768889 58.3672963,13.1909556 C58.387,10.7863 58.3672963,8.38164444 58.387,5.97698889 C58.387,5.55146667 58.2584074,5.46241111 57.8625185,5.47231481 C53.2215185,5.48221852 48.5706667,5.48221852 43.9294074,5.47231481 C43.503963,5.47231481 43.4147778,5.60095926 43.4147778,5.9967963 C43.4347407,8.40142593 43.4147778,10.8060815 43.4347407,13.210737 C43.4347407,13.5669852 43.3554074,13.6956296 42.9696296,13.6956296 C41.2377778,13.6758481 39.5061852,13.6758481 37.7841852,13.6956296 C37.4082593,13.6956296 37.3190741,13.5867667 37.3190741,13.2206407 C37.3289259,9.00508519 37.339037,4.7895037 37.3190741,0.564054815 C37.3190741,0.128643926 37.4378148,0.0197913593 37.8635185,0.0197913593 C42.2076667,0.0197913593 46.5616667,0.00989569259 50.9058148,0.00989569259 Z" id="Path" fill="#718F40"></path>
            <path d="M50.8861111,67.5966667 C46.541963,67.5966667 42.1877037,67.5868148 37.8435556,67.6065185 C37.4479259,67.6065185 37.3190741,67.5175926 37.3190741,67.102 C37.339037,62.8861852 37.3289259,58.6706296 37.3190741,54.4452222 C37.3190741,54.0594444 37.4082593,53.9407037 37.8041481,53.9505556 C39.516037,53.9702593 41.2279259,53.9702593 42.9398148,53.9505556 C43.3357037,53.9407037 43.4347407,54.0692963 43.4248889,54.4452222 C43.4049259,56.8498519 43.4248889,59.2544815 43.4049259,61.6593704 C43.4049259,62.0352963 43.4842593,62.154037 43.89,62.154037 C48.5706667,62.1343333 53.2513333,62.1441852 57.9218889,62.154037 C58.3079259,62.154037 58.3771481,62.0352963 58.3771481,61.6790741 C58.3574444,59.2544815 58.3771481,56.84 58.3574444,54.4156667 C58.3574444,54.0495926 58.4463704,53.9407037 58.8225556,53.9407037 C60.5541481,53.9604074 62.286,53.9604074 64.0077407,53.9407037 C64.3937778,53.9407037 64.4728519,54.0594444 64.4728519,54.4156667 C64.463,58.6509259 64.463,62.8861852 64.4728519,67.1217037 C64.4728519,67.5274444 64.3442593,67.6065185 63.9683333,67.6065185 C59.6140741,67.5966667 55.2502222,67.5966667 50.8861111,67.5966667 L50.8861111,67.5966667 Z" id="Path" fill="#718F40"></path>
            <g id="Group" transform="translate(0.000000, 25.925926)" fill="#5B5378">
                <path d="M66.7608148,5.85951852 C67.492963,4.72137037 68.353963,3.74162963 69.5315185,3.08855556 C71.8967407,1.7627037 74.3705926,1.67351852 76.8542963,2.68281481 C78.7741111,3.46474074 79.6351111,5.10740741 80.0011852,7.04692593 C80.1595926,7.87811111 80.2091111,8.7092963 80.2091111,9.55059259 L80.2091111,16.5171481 C80.2091111,17.3384815 80.4167778,17.5362963 81.2184074,17.556 C81.6241481,17.5661111 82.1584815,17.3778889 82.4058148,17.6353333 C82.6731111,17.9124815 82.4851481,18.4468148 82.495,18.8722593 C82.5048519,19.6440741 82.4851481,20.4257407 82.5048519,21.1978148 C82.5147037,21.5242222 82.4058148,21.6134074 82.0892593,21.6035556 C80.8028148,21.5835926 79.5163704,21.5934444 78.2299259,21.5934444 C76.0824815,21.5934444 75.4097037,20.9206667 75.3998519,18.7436667 C75.3998519,15.8640741 75.3998519,12.9743704 75.3998519,10.0947778 C75.3998519,9.60011111 75.370037,9.10518519 75.271,8.62037037 C74.9147778,6.92818519 73.8264074,6.32462963 72.2231481,6.4037037 C69.2743333,6.54214815 67.4831111,8.64007407 67.0576667,11.4602963 C66.9487778,12.1628889 66.9586296,12.8753333 66.9586296,13.5779259 C66.9586296,16.0815926 66.9487778,18.5852593 66.9687407,21.0889259 C66.9687407,21.5143704 66.85,21.6035556 66.4541111,21.5934444 C65.2070741,21.5638889 63.9504444,21.5638889 62.7036667,21.5934444 C62.3274815,21.6035556 62.2087407,21.5143704 62.2087407,21.1086296 C62.2287037,16.6159259 62.2185926,12.1133704 62.2185926,7.62092593 C62.2185926,6.73011111 62.0404815,6.552 61.1597778,6.54214815 C60.8828889,6.54214815 60.5958889,6.52244444 60.3187407,6.54214815 C60.012037,6.56211111 59.8733333,6.48277778 59.8831852,6.13640741 C59.9031481,5.04803704 59.9031481,3.95940741 59.8831852,2.87103704 C59.8733333,2.52466667 60.012037,2.4652963 60.3187407,2.4652963 C61.6051852,2.47514815 62.8916296,2.47514815 64.1780741,2.47514815 C66.2264815,2.47514815 67.0281111,3.35585185 66.8201852,5.39440741 C66.7903704,5.56266667 66.7805185,5.71096296 66.7608148,5.85951852 L66.7608148,5.85951852 Z" id="Path"></path>
                <path d="M12.2737481,18.8118519 C11.3237444,20.385037 10.0373259,21.453963 8.28577037,21.820037 C5.65353704,22.3740741 3.25878519,21.908963 1.37859296,19.8507037 C-0.531274074,17.7527778 -0.877623704,13.2701852 3.09055185,11.2119259 C4.8123963,10.3211111 6.67278889,9.93533333 8.58264815,9.72740741 C9.58211852,9.61851852 10.5815889,9.61851852 11.590937,9.57911111 C11.8680074,9.56925926 11.9669667,9.48007407 11.9570889,9.20292593 C11.9372815,8.65874074 11.8878148,8.12440741 11.7195815,7.59992593 C11.4128259,6.65985185 10.7696037,6.076 9.80972222,5.86807407 C8.87952593,5.66040741 7.94932963,5.66040741 7.02903704,5.92744444 C6.17799259,6.18488889 5.9207037,6.50144444 5.95038889,7.38214815 C5.9701963,7.86722222 5.86133333,8.03522222 5.33687778,8.01551852 C4.19885926,7.966 3.06086667,7.99581481 1.93275185,8.00566667 C1.61609,8.00566667 1.49734148,7.92659259 1.51713333,7.59007407 C1.54681852,7.04588889 1.53692259,6.50144444 1.52702667,5.95725926 C1.50723741,4.85877778 1.97233296,4.01774074 2.84316667,3.39422222 C3.90198148,2.63225926 5.12905556,2.34525926 6.39569259,2.16714815 C8.20661852,1.91981481 10.0076407,1.94937037 11.7888556,2.40462963 C14.6685,3.13703704 16.4200296,5.18544444 16.6674148,8.14411111 C16.8851407,10.7763704 16.7268111,13.4086296 16.7663741,16.0408889 C16.7861815,17.5152963 16.7960593,17.5451111 18.250737,17.5451111 C19.0621926,17.5451111 19.0621926,17.5451111 19.0621926,18.3467407 C19.0621926,19.3065185 19.0522889,20.2564444 19.0720704,21.2164815 C19.0819741,21.5231852 18.9830148,21.6022593 18.6762593,21.6022593 C17.3304444,21.5825556 15.9747259,21.6222222 14.6289111,21.5825556 C13.1940407,21.5428889 12.4122704,20.8107407 12.3430222,19.5144444 C12.313337,19.3065185 12.4023926,19.0887407 12.2737481,18.8118519 L12.2737481,18.8118519 Z M10.6706444,12.8742963 C10.0571074,12.8644444 9.45347407,12.9238148 8.84984074,13.0028889 C7.84046667,13.1415926 6.84102222,13.3394074 5.96029259,13.9035556 C4.38687407,14.9128519 4.48583333,17.1295185 6.16811481,17.9607037 C7.39516296,18.5642593 8.61233333,18.4356667 9.72066667,17.6737037 C11.2445926,16.6247407 11.9867741,15.1205185 12.026337,13.2701852 C12.0362407,12.9238148 11.9075963,12.8545926 11.6008407,12.8742963 C11.2940593,12.894 10.9774,12.8742963 10.6706444,12.8742963 L10.6706444,12.8742963 Z" id="Shape"></path>
                <path d="M97.039963,12.8750741 C95.0112593,12.8750741 92.9924074,12.8947778 90.963963,12.8652222 C90.4788889,12.8553704 90.4296296,13.0236296 90.5087037,13.4291111 C91.1716296,16.7245556 93.9425926,18.3374074 97.1288889,17.8922593 C98.6626667,17.6843333 100.008481,17.0115556 101.215852,16.0515185 C101.443481,15.8734074 101.532407,15.8635556 101.680963,16.1308519 C102.195593,17.0312593 102.729926,17.9218148 103.283963,18.7926667 C103.462074,19.0698148 103.44237,19.2282222 103.185185,19.4358889 C101.374259,20.8708889 99.3258519,21.7515926 97.0298519,21.9792222 C94.3975926,22.2364074 91.8941852,21.8011111 89.6972222,20.2473704 C86.7087407,18.1297407 85.4321481,15.1412593 85.5708519,11.548963 C85.6994444,8.20425926 86.9659259,5.41385185 89.8556296,3.53344444 C92.9133333,1.54440741 97.4158889,1.53455556 100.186593,3.47407407 C102.116259,4.83 103.105852,6.75966667 103.531296,9.02559259 C103.749074,10.2031481 103.72937,11.3807037 103.640185,12.5683704 C103.61063,12.9344444 103.402704,12.8849259 103.175074,12.8849259 C101.126667,12.8750741 99.0782593,12.8750741 97.039963,12.8750741 Z M94.6845926,9.55007407 C95.9316296,9.55007407 97.1882593,9.54022222 98.435037,9.55007407 C98.6924815,9.55007407 98.8112222,9.51066667 98.7915185,9.2037037 C98.7121852,7.66992593 97.5841481,6.20537037 96.0998889,5.84914815 C94.1404074,5.38403704 91.5478148,6.23518519 90.6868148,9.12462963 C90.5779259,9.50055556 90.6868148,9.55007407 91.0331852,9.55007407 C92.2504074,9.54022222 93.4676296,9.55007407 94.6845926,9.55007407 Z" id="Shape"></path>
            </g>
            <g id="Group" transform="translate(46.666667, 18.148148)" fill="#718F40">
                <path d="M6.97122222,19.8211481 C6.97122222,22.849037 6.96137037,25.8771852 6.98107407,28.9053333 C6.98107407,29.2714074 6.902,29.3802963 6.52581481,29.3704444 C4.99203704,29.3507407 3.46811111,29.3507407 1.93433333,29.3704444 C1.57811111,29.3704444 1.49877778,29.2714074 1.49877778,28.925037 C1.50862963,22.849037 1.50862963,16.7732963 1.49877778,10.6972963 C1.49877778,10.3607778 1.57811111,10.2518889 1.93433333,10.2518889 C3.46811111,10.2718519 4.99203704,10.2718519 6.52581481,10.2518889 C6.91185185,10.242037 6.98107407,10.3607778 6.98107407,10.7268519 C6.96137037,13.7648519 6.97122222,16.793 6.97122222,19.8211481 Z" id="Path"></path>
                <path d="M4.20855556,0.802586429 C5.87118519,0.792737037 7.22685185,2.13855185 7.23675706,3.80102593 C7.24655556,5.45362222 5.89088889,6.82912222 4.23837037,6.83905431 C2.58585185,6.8489037 1.22007407,5.50308889 1.21016848,3.84061481 C1.20037037,2.16823704 2.54618519,0.812544444 4.20855556,0.802586429 Z" id="Path"></path>
            </g>
        </g>
    </g>
</svg>