<?xml version="1.0" encoding="UTF-8"?>
<svg width="150px" height="100px" viewBox="0 0 150 100" version="1.1" xmlns="http://www.w3.org/2000/svg" xmlns:xlink="http://www.w3.org/1999/xlink">
    <title>brave</title>
    <defs>
        <linearGradient x1="-0.020093216%" y1="49.9978209%" x2="100.386674%" y2="49.9978209%" id="linearGradient-1">
            <stop stop-color="#FF5500" offset="0%"></stop>
            <stop stop-color="#FF5500" offset="40.99%"></stop>
            <stop stop-color="#FF2000" offset="58.2%"></stop>
            <stop stop-color="#FF2000" offset="100%"></stop>
        </linearGradient>
        <linearGradient x1="2.28953766%" y1="49.4951773%" x2="99.9039138%" y2="49.4951773%" id="linearGradient-2">
            <stop stop-color="#FF452A" offset="0%"></stop>
            <stop stop-color="#FF2000" offset="100%"></stop>
        </linearGradient>
    </defs>
    <g id="brave" stroke="none" stroke-width="1" fill="none" fill-rule="evenodd">
        <rect fill="#FFFFFF" x="0" y="0" width="150" height="100"></rect>
        <g transform="translate(5.000000, 28.000000)" fill-rule="nonzero">
            <g id="Group" transform="translate(45.617978, 7.865169)" fill="#3B3E4F">
                <path d="M0.932494382,15.9710112 L0.932494382,0.970860674 L2.35750562,0.970860674 C3.48253933,0.970860674 4.45750562,1.94585843 4.45750562,3.0708764 L4.45750562,9.74588764 C6.70757303,7.72090562 8.65750562,6.89591236 11.2075506,6.82091011 C16.157573,6.74590787 20.4326067,10.4208764 20.807618,15.4459326 C21.2576629,21.4459551 17.0576629,25.8710562 11.4324944,25.8710562 C5.3574382,25.8710562 0.932494382,22.0460674 0.932494382,15.9710112 L0.932494382,15.9710112 Z M4.38247191,17.1709213 C4.75748315,20.2460449 7.60750562,22.8709663 10.7575056,22.8709663 C14.7325618,22.946 17.5075506,20.2460449 17.5075506,16.3460225 C17.5075506,12.446 14.8075955,9.82092135 10.907573,9.82092135 C6.70757303,9.82092135 3.93242697,12.8958876 4.38247191,17.1709213 Z" id="Shape"></path>
                <path d="M26.6578876,7.19530787 L26.6578876,9.89532584 C28.8329213,7.42031461 30.1828989,6.74531011 32.7329438,6.74531011 C33.4829663,6.74531011 34.2329888,6.82029663 34.9830112,6.89529888 L34.9830112,10.4204045 C34.1579551,10.1953034 33.4079326,10.1202697 32.5828764,10.1202697 C30.7079775,10.1202697 29.1328989,10.720382 28.0078652,11.9202921 C27.0328989,12.9702921 26.7329213,13.7203146 26.7329213,15.370427 L26.7329213,25.2704719 L23.0578427,25.2704719 L23.0578427,7.19530787 L26.6578876,7.19530787 Z" id="Path"></path>
                <path d="M35.8086966,13.1953933 C35.9586067,11.4704045 36.333618,10.4952809 37.0836404,9.59534831 C38.5836854,7.72030787 41.2836404,6.74531011 45.1087865,6.74531011 C48.1087191,6.74531011 50.3587865,7.19530787 51.8588315,8.24537079 C53.1337753,9.07026966 53.6588539,10.3453708 53.6588539,12.5204045 L53.6588539,20.5453933 C53.6588539,22.270382 54.1087416,22.9453708 55.308809,22.8704944 C55.6087865,22.8704944 55.8338876,22.8704944 56.1338652,22.7954607 L56.1338652,25.1954382 C55.5337528,25.420382 54.858764,25.4954157 54.258809,25.4954157 C52.0087416,25.4954157 50.9587416,24.820427 50.2087191,22.7954607 C47.958809,24.8954607 45.6337079,25.7953933 42.3336404,25.7953933 C37.9086966,25.7953933 35.1337079,23.770427 35.1337079,20.3954831 C35.1337079,18.520427 36.1837079,16.7954382 37.9086966,15.970382 C39.2586742,15.370427 40.0837303,15.2203596 43.9087191,14.7703146 C47.2087865,14.4703371 47.7337079,14.3953034 48.7088315,14.0953258 C49.6837978,13.7953483 50.1338427,13.1953933 50.1338427,12.2953034 C50.1338427,10.3453708 48.558764,9.4452809 45.1836629,9.4452809 C42.0336629,9.4452809 40.3837079,10.1202697 39.7087191,11.6953483 C39.4087416,12.5204045 38.5836854,13.0453258 37.6835955,13.1203596 L35.8086966,13.1953933 Z M50.2087191,16.2703596 C47.8837753,16.9453483 45.5586742,17.3953933 43.1586966,17.6203371 C39.9336629,17.9204719 38.8836629,18.5954607 38.8836629,20.2454157 C38.8836629,22.0454382 40.3837079,23.0204045 43.308764,23.0204045 C45.7087416,23.0204045 47.5837978,22.4204494 48.8587416,21.220382 C49.9087416,20.2454157 50.1338427,19.570427 50.1338427,17.7704045 L50.1338427,16.2703596 L50.2087191,16.2703596 Z" id="Shape"></path>
                <path d="M64.9102921,25.2704719 L64.0102022,25.2704719 C63.1853034,25.2704719 62.4352809,24.8205843 62.0602697,24.0705618 L54.185191,7.19540225 L56.3602247,7.19540225 C57.6351685,7.19540225 58.7602022,7.94539326 59.2852809,9.14546067 L64.5352809,21.2205393 L69.9353483,9.07042697 C70.4602697,7.94539326 71.5853034,7.19540225 72.8604045,7.19540225 L74.8103371,7.19540225 L66.8602247,24.0705618 C66.4852135,24.8205843 65.7353483,25.2704719 64.9102921,25.2704719 L64.9102921,25.2704719 Z" id="Path"></path>
                <path d="M77.2842472,17.3203596 C77.6592584,20.7704944 80.3593708,22.9453708 84.334427,22.9453708 C86.5843371,22.9453708 88.3093258,22.270382 89.3593258,20.9204045 C89.9594382,20.170382 90.9344045,19.6454607 91.9093708,19.6454607 L94.0093708,19.6454607 C92.2093483,23.770427 88.9094382,25.7953933 84.0342921,25.7953933 C77.959236,25.7953933 73.8342697,22.0454382 73.8342697,16.3453933 C73.8342697,10.6453483 78.0342697,6.74531011 84.1093258,6.74531011 C88.534427,6.74531011 92.0594382,8.77029213 93.4844494,12.1453933 C94.0844045,13.7203146 94.384382,15.0704494 94.384382,17.3203596 L77.2842472,17.3203596 Z M90.634427,14.4703371 C89.8093708,11.2453034 87.4093933,9.52031461 84.0342921,9.52031461 C80.6593483,9.52031461 78.2593708,11.3203371 77.3592809,14.4703371 L90.634427,14.4703371 Z" id="Shape"></path>
            </g>
            <path d="M35.3253034,10.6396067 L36.3002697,8.08957753 C36.3002697,8.08957753 35.0253258,6.66456629 33.4502472,5.08956629 C31.8753258,3.51455056 28.5752584,4.4145618 28.5752584,4.4145618 L24.8251461,0.0645189213 L18.2251685,0.0645189213 L11.7000989,0.0645189213 L7.95006517,4.4145618 C7.95006517,4.4145618 4.65004494,3.51455056 3.07502921,5.08956629 C1.50001191,6.66456629 0.225002022,8.08957753 0.225002022,8.08957753 L1.27500989,10.6396067 L0,14.3896404 C0,14.3896404 3.75003371,28.9397303 4.20003146,30.7397528 C5.1000427,34.264764 5.70004494,35.6147416 8.10006966,37.3398876 C10.5000787,39.0648764 15.0751213,42.2148764 15.7501573,42.6649213 C16.5001798,43.114809 17.4001124,43.9398652 18.2251685,43.9398652 C19.0502247,43.9398652 19.9501573,43.114809 20.7001798,42.6649213 C21.4502022,42.2148764 25.9501798,39.1399101 28.3501573,37.3398876 C30.7502921,35.5398652 31.4252809,34.1897303 32.2503371,30.7397528 C32.7002247,28.9397303 36.4503371,14.3896404 36.4503371,14.3896404 L35.3253034,10.6396067 Z" id="Path" fill="url(#linearGradient-1)"></path>
            <path d="M18.3000449,27.3646517 C18.5249888,27.3646517 20.1749438,27.9646067 21.4500449,28.6395955 C22.7249888,29.3145843 23.7001124,29.7646292 24.0000899,29.989573 C24.3000674,30.2146742 24.15,30.5146517 23.8500225,30.7395955 C23.5500449,30.9646966 19.95,33.8147191 19.5749888,34.1146966 C19.1999775,34.4146742 18.6750562,34.9395955 18.3749213,34.9395955 C18.0749438,34.9395955 17.4749888,34.4146742 17.1750112,34.1146966 C16.8,33.8147191 13.1999551,30.8896629 12.8999461,30.7395955 C12.5999528,30.5146517 12.4499483,30.2146742 12.7499416,29.989573 C13.0499506,29.7646292 13.9499618,29.3145843 15.2999708,28.6395955 C16.4249888,27.889573 18.0749438,27.3646517 18.3000449,27.3646517 Z M18.3000449,6.81442921 C18.4499551,6.81442921 19.1249438,6.88943146 20.1000674,7.18944045 C21.2249438,7.56443596 22.3499775,8.01443371 22.9500899,8.01443371 C23.5500449,8.01443371 27.6001348,7.18944045 27.6001348,7.18944045 C27.6001348,7.18944045 32.4000899,13.1144764 32.4000899,14.3894989 C32.4000899,15.6645056 31.8001348,15.9645618 31.2000225,16.6395506 C30.6000674,17.3145393 27.9001124,20.1645618 27.6001348,20.539573 C27.2251236,20.9145843 26.5501348,21.4395056 27.0000225,22.4895056 C27.4500674,23.4646292 28.0500225,24.8146067 27.3750337,26.0895506 C26.7000449,27.3646517 25.4999775,28.2645843 24.7501124,28.1146742 C24.0000899,27.9646067 22.2000674,26.9896404 21.5999551,26.6146292 C20.9249663,26.1645843 18.9,24.4395955 18.9,23.7646067 C18.9,23.089618 21,21.8895506 21.4500449,21.6646067 C21.8250562,21.3644719 23.6250787,20.3144719 23.7001124,19.9394607 C23.7001124,19.5646067 23.7001124,19.4145393 23.1750337,18.3645393 C22.6499551,17.3145393 21.6749888,15.9645618 21.8250562,15.0645034 C21.9749663,14.1644921 23.5500449,13.7144944 24.6000449,13.2644809 C25.7250787,12.8144831 27.8250787,12.0644764 28.0500225,11.9144719 C28.35,11.7644674 28.2751236,11.6894652 27.4500674,11.6144629 C26.6250112,11.5394764 24.3751011,11.2394674 23.3251011,11.5394764 C22.2751011,11.8394697 20.5499551,12.2894831 20.4000449,12.5144742 C20.2499775,12.7394809 20.1000674,12.7394809 20.2499775,13.5644899 C20.4000449,14.3894989 21.1500674,18.2895056 21.2249438,18.9644944 C21.2999775,19.6394831 21.4500449,20.0895281 20.7000225,20.3144719 C19.95,20.4645393 18.7499326,20.7645169 18.3000449,20.7645169 C17.85,20.7645169 16.6499326,20.4645393 15.8999101,20.3144719 C15.1499663,20.1645618 15.2999708,19.7145169 15.374973,18.9644944 C15.4499753,18.2895056 16.2000449,14.3894989 16.3499551,13.5644899 C16.5000225,12.7394809 16.3499551,12.7394809 16.2000449,12.5144742 C16.0499775,12.2894831 14.3249573,11.8394697 13.2749573,11.5394764 C12.2249416,11.2394674 9.97492135,11.5394764 9.14991236,11.6144629 C8.32490337,11.6894652 8.24991685,11.8394697 8.54991011,11.9144719 C8.8499191,12.0644764 10.9499348,12.8144831 11.9999348,13.2644809 C13.1249528,13.7144944 14.6249663,14.1644921 14.7749708,15.0645034 C14.9249596,15.9645618 13.9499618,17.3145393 13.4249461,18.3645393 C12.8999461,19.4145393 12.8999461,19.489573 12.8999461,19.9394607 C12.8999461,20.3144719 14.6999685,21.3644719 15.1499663,21.6646067 C15.5249618,21.9645843 17.6999326,23.1644944 17.6999326,23.7646067 C17.6999326,24.4395955 15.599964,26.1645843 14.9999618,26.6146292 C14.3249573,27.0645169 12.5999528,27.9646067 11.8499461,28.1146742 C11.0999393,28.2645843 9.8999191,27.3646517 9.22491461,26.0895506 C8.54991011,24.8146067 9.14991236,23.4646292 9.59992584,22.4895056 C10.0499236,21.5145393 9.29991685,20.9145843 8.99990787,20.539573 C8.62491236,20.1645618 5.99989663,17.3145393 5.39989438,16.6395506 C4.7998764,15.9645618 4.19987416,15.6645056 4.19987416,14.3894989 C4.19987416,13.1144764 8.99990787,7.18944045 8.99990787,7.18944045 C8.99990787,7.18944045 13.0499506,8.01443371 13.6499528,8.01443371 C14.2499551,8.01443371 15.374973,7.56443596 16.5000225,7.18944045 C17.4749888,6.81442921 18.1499775,6.81442921 18.3000449,6.81442921 L18.3000449,6.81442921 Z" id="Shape" fill="#FFFFFF"></path>
            <path d="M28.6506067,4.48983146 L24.9006517,0.139791101 L18.3005169,0.139791101 L11.7004764,0.139791101 L7.9504427,4.48983146 C7.9504427,4.48983146 4.65042247,3.58982022 3.07540674,5.16483596 C3.07540674,5.16483596 7.50044494,4.78982472 9.00045843,7.26485169 C9.00045843,7.26485169 13.0504854,8.08986067 13.6504876,8.08986067 C14.2504899,8.08986067 15.3755079,7.63984719 16.5004944,7.26485169 C17.6255281,6.88984045 18.3005169,6.88984045 18.3005169,6.88984045 C18.3005169,6.88984045 19.0505393,6.88984045 20.1005393,7.26485169 C21.225573,7.63984719 22.3506067,8.08986067 22.9505618,8.08986067 C23.5505169,8.08986067 27.6006067,7.26485169 27.6006067,7.26485169 C29.1006517,4.78982472 33.5255955,5.16483596 33.5255955,5.16483596 C31.9506742,3.51481798 28.6506067,4.48983146 28.6506067,4.48983146 Z" id="Path" fill="url(#linearGradient-2)"></path>
        </g>
    </g>
</svg>