<?xml version="1.0" encoding="UTF-8"?>
<svg width="150px" height="100px" viewBox="0 0 150 100" version="1.1" xmlns="http://www.w3.org/2000/svg" xmlns:xlink="http://www.w3.org/1999/xlink">
    <title>disconnect</title>
    <g id="disconnect" stroke="none" stroke-width="1" fill="none" fill-rule="evenodd">
        <rect fill="#FFFFFF" x="0" y="0" width="150" height="100"></rect>
        <g transform="translate(5.000000, 17.000000)" fill="#48A57F" fill-rule="nonzero">
            <polygon id="Path" points="20.32604 50.15164 16.1335067 50.15164 16.1335067 65.27668 20.32604 65.27668"></polygon>
            <path d="M27.8089467,54.3441733 C27.8089467,53.0704533 29.6664667,52.4867467 31.8423467,54.4502933 L33.2752,51.15992 C31.89536,49.9924133 30.51552,49.78008 28.8703333,49.78008 C26.16376,49.78008 23.8286533,51.4783733 23.8286533,54.39728 C23.8286533,59.22672 29.50724,59.0143867 29.50724,61.0841467 C29.50724,62.2516533 27.9150667,62.30476 26.6944533,61.61484 L25.36772,60.8188 L23.4571867,64.0560667 C25.0492667,65.2236667 26.9598,65.8073733 28.92344,65.7012533 C31.8423467,65.7012533 33.75288,64.0030533 33.75288,61.0841467 C33.64676,55.8301333 27.8089467,56.0424667 27.8089467,54.3441733 L27.8089467,54.3441733 Z" id="Path"></path>
            <path d="M43.83624,61.8801867 C41.7133733,61.8801867 40.0681867,60.1819867 40.0681867,57.6876533 C40.0681867,55.19332 41.76648,53.4950267 43.83624,53.4950267 C45.0568533,53.4950267 45.9590133,53.9196 46.9673867,55.19332 L49.09016,51.6376 C47.6573067,50.36388 45.7997867,49.67396 43.83624,49.7270667 C43.6239067,49.7270667 43.4647733,49.7270667 43.25244,49.7270667 C39.0068,49.8862933 35.7164267,53.4420133 35.8756533,57.6876533 L35.8756533,58.2714533 C36.03488,62.5170933 39.5906,65.8074667 43.83624,65.64824 C46.1713467,65.64824 48.2411067,64.7990933 49.3024933,63.3661467 L47.0204933,60.02276 C46.3305733,61.1372533 45.1629733,61.8801867 43.83624,61.8801867 L43.83624,61.8801867 Z" id="Path"></path>
            <path d="M58.2183467,49.46172 C53.81348,49.6209467 50.36388,53.3358933 50.5762133,57.7406667 L50.5762133,58.0060133 C50.6823333,62.3578667 54.2380533,65.75436 58.5368,65.7012533 L58.74904,65.7012533 C63.1008,65.64824 66.5504,62.09252 66.44428,57.7406667 C66.44428,57.5284267 66.44428,57.3692 66.44428,57.15696 C66.2850533,52.6989867 62.5701067,49.3024933 58.2183467,49.46172 L58.2183467,49.46172 Z M58.5368,61.8801867 C56.4139333,61.8801867 54.7687467,60.1819867 54.7687467,57.6876533 C54.7687467,55.19332 56.46704,53.4950267 58.5368,53.4950267 C60.60656,53.4950267 62.30476,55.19332 62.30476,57.6876533 C62.30476,60.1819867 60.6595733,61.8801867 58.5368,61.8801867 L58.5368,61.8801867 Z" id="Shape"></path>
            <polygon id="Path" points="77.4829067 57.26308 77.4298933 57.26308 72.65356 50.15164 68.8855067 50.15164 68.8855067 65.27668 73.07804 65.27668 73.07804 58.1122267 73.1311467 58.1122267 77.90748 65.27668 81.6755333 65.27668 81.6755333 50.15164 77.4829067 50.15164"></polygon>
            <polygon id="Path" points="94.3590667 57.26308 89.53 50.15164 85.7619467 50.15164 85.7619467 65.27668 89.9545733 65.27668 89.9545733 58.1122267 90.0075867 58.1122267 94.7837333 65.27668 98.5516 65.27668 98.5516 50.15164 94.3590667 50.15164"></polygon>
            <polygon id="Path" points="112.084933 53.9196 111.660267 50.15164 102.638667 50.15164 102.638667 65.27668 111.660267 65.27668 112.084933 61.50872 106.8312 61.50872 106.8312 59.3858533 111.4484 59.3858533 111.4484 55.8301333 106.8312 55.8301333 106.8312 53.9196"></polygon>
            <path d="M122.8052,61.8801867 C120.6828,61.8801867 119.037333,60.1819867 119.037333,57.6876533 C119.037333,55.19332 120.735067,53.4950267 122.8052,53.4950267 C123.9728,53.4950267 124.9276,53.9196 125.936533,55.19332 L128.005733,51.6376 C126.573067,50.36388 124.715733,49.67396 122.752,49.7270667 C122.540133,49.7270667 122.380533,49.7270667 122.168667,49.7270667 C117.922933,49.8862933 114.632,53.4420133 114.7384,57.6876533 L114.7384,58.2714533 C114.898,62.5170933 118.453067,65.8074667 122.6988,65.64824 C125.034,65.64824 127.104133,64.7990933 128.165333,63.3661467 L125.883333,60.02276 C125.299067,61.1372533 124.0792,61.8801867 122.8052,61.8801867 L122.8052,61.8801867 Z" id="Path"></path>
            <polygon id="Path" points="139.575333 50.15164 129.916267 50.15164 129.4916 53.9196 132.676133 53.9196 132.676133 65.27668 136.868667 65.27668 136.868667 53.9196 140 53.9196"></polygon>
            <path d="M5.89082667,50.15164 L0,50.15164 L0,61.4556133 L4.19257067,61.4556133 L4.19257067,53.9196 C6.47459867,53.9196 9.02198267,54.5565067 9.02198267,57.6876533 C9.02198267,60.8188 6.527668,61.4556133 4.19257067,61.4556133 L4.19257067,65.2236667 L5.89082667,65.2236667 C8.49128,65.1175467 10.8794933,63.6846 12.2062267,61.4556133 C12.84304,60.3942267 13.1614933,59.1736133 13.2146,57.953 L13.2146,57.47532 C13.2146,53.4950267 9.92422667,50.2046533 5.89082667,50.15164 L5.89082667,50.15164 Z" id="Path"></path>
            <path d="M56.4139333,10.4018133 C62.7293333,10.4018133 69.6285333,12.15312 69.6285333,20.7506133 C69.6285333,29.3480133 62.7293333,31.09932 56.4139333,31.09932 L56.4139333,41.4480267 L60.9780267,41.4480267 C68.1425733,41.18268 74.72332,37.3086 78.3320533,31.09932 C80.0303467,28.1804133 80.9856133,24.89004 80.9856133,21.4935467 L80.9856133,20.2198267 C81.0917333,9.075052 72.17588,0.0530705467 61.0841467,-3.3158661e-15 C61.0311333,-3.3158661e-15 60.9780267,-3.3158661e-15 60.9780267,-3.3158661e-15 L44.9507333,-3.3158661e-15 L44.9507333,31.0462133 L56.4139333,31.0462133 L56.4139333,10.4018133 Z" id="Path"></path>
            <polygon id="Path" points="95.0497333 31.09932 83.5860667 31.09932 83.5860667 41.44812 95.0497333 41.44812"></polygon>
        </g>
    </g>
</svg>