<svg width="116" height="78" viewBox="0 0 116 78" fill="none" xmlns="http://www.w3.org/2000/svg">
<g clip-path="url(#clip0_1146:1948)">
<path d="M82.6037 18.2516C81.4496 15.4949 79.1128 12.5191 77.2773 11.5785C78.5852 14.0918 79.4925 16.7913 79.9668 19.5808C79.9668 19.5849 79.9668 19.5958 79.9722 19.6261C76.97 12.1953 71.8792 9.19864 67.7219 2.67385C67.5073 2.34117 67.2989 2.00463 67.0967 1.66438C66.9926 1.48659 66.8951 1.30507 66.8044 1.12019C66.6321 0.788973 66.4992 0.438938 66.4085 0.0771708C66.4091 0.0600485 66.4032 0.043317 66.3921 0.0302382C66.3809 0.0171593 66.3653 0.00867046 66.3482 0.00642661C66.3318 0.00176405 66.3144 0.00176405 66.298 0.00642661C66.2943 0.00642661 66.2888 0.0118685 66.2847 0.0136824L66.2655 0.0241127L66.2765 0.00914754C59.6088 3.88829 57.3445 11.0643 57.1367 14.6546C54.4734 14.8363 51.927 15.8107 49.8296 17.4508C49.6098 17.2667 49.3803 17.0946 49.1418 16.9351C48.5367 14.8326 48.511 12.6073 49.0674 10.4915C46.6183 11.6689 44.4418 13.338 42.6755 15.3933H42.6632C41.6105 14.0696 41.6849 9.70201 41.7452 8.7905C41.434 8.91453 41.1369 9.07095 40.8588 9.25714C39.9299 9.91552 39.0615 10.6543 38.2639 11.4647C37.3562 12.3788 36.5268 13.3664 35.7845 14.4174V14.4215V14.4174C34.0772 16.8201 32.8665 19.535 32.2223 22.4051C32.2095 22.4623 32.1985 22.5217 32.1862 22.5793C32.1364 22.8114 31.9578 23.9728 31.925 24.2254C31.925 24.2449 31.9213 24.2635 31.919 24.283C31.6866 25.4835 31.5428 26.6992 31.4888 27.9204C31.4888 27.9658 31.4861 28.0111 31.4861 28.0565C31.4865 34.6612 33.9833 41.0252 38.4827 45.8894C42.9821 50.7536 49.1562 53.7638 55.7836 54.3243C62.411 54.8848 69.0088 52.9549 74.2718 48.9163C79.5348 44.8777 83.0796 39.0247 84.2049 32.5152C84.2506 32.1778 84.2862 31.8386 84.3259 31.4985C84.8734 27.0093 84.2813 22.4555 82.6037 18.2516V18.2516ZM52.0053 38.8881C52.1295 38.947 52.246 39.0114 52.3734 39.0695L52.3917 39.0808C52.2611 39.0186 52.1315 38.9544 52.003 38.8881H52.0053ZM79.9732 19.6316L79.97 19.6057L79.9745 19.6343L79.9732 19.6316Z" fill="url(#paint0_linear_1146:1948)"/>
<path d="M82.6037 18.2515C81.4496 15.4947 79.1128 12.5189 77.2773 11.5784C78.5852 14.0916 79.4925 16.7911 79.9668 19.5806C79.9668 19.5743 79.9668 19.5856 79.9709 19.6051L79.9754 19.6337C82.4804 26.378 81.1172 33.2383 79.1488 37.4268C76.1068 43.9116 68.7408 50.5561 57.2116 50.2324C44.7558 49.8836 33.7801 40.7028 31.7313 28.6803C31.3582 26.7847 31.7313 25.8233 31.919 24.2815C31.6617 25.478 31.5177 26.6958 31.4888 27.9189C31.4888 27.9643 31.4861 28.0096 31.4861 28.055C31.4861 34.6598 33.9828 41.024 38.482 45.8885C42.9813 50.753 49.1554 53.7634 55.7829 54.3241C62.4104 54.8848 69.0084 52.9549 74.2716 48.9163C79.5347 44.8777 83.0796 39.0246 84.2049 32.515C84.2506 32.1776 84.2862 31.8384 84.3259 31.4983C84.8734 27.0092 84.2813 22.4554 82.6037 18.2515V18.2515Z" fill="url(#paint1_radial_1146:1948)"/>
<path d="M82.6037 18.2515C81.4496 15.4947 79.1128 12.5189 77.2773 11.5784C78.5852 14.0916 79.4925 16.7911 79.9668 19.5806C79.9668 19.5743 79.9668 19.5856 79.9709 19.6051L79.9754 19.6337C82.4804 26.378 81.1172 33.2383 79.1488 37.4268C76.1068 43.9116 68.7408 50.5561 57.2116 50.2324C44.7558 49.8836 33.7801 40.7028 31.7313 28.6803C31.3582 26.7847 31.7313 25.8233 31.919 24.2815C31.6617 25.478 31.5177 26.6958 31.4888 27.9189C31.4888 27.9643 31.4861 28.0096 31.4861 28.055C31.4861 34.6598 33.9828 41.024 38.482 45.8885C42.9813 50.753 49.1554 53.7634 55.7829 54.3241C62.4104 54.8848 69.0084 52.9549 74.2716 48.9163C79.5347 44.8777 83.0796 39.0246 84.2049 32.515C84.2506 32.1776 84.2862 31.8384 84.3259 31.4983C84.8734 27.0092 84.2813 22.4554 82.6037 18.2515V18.2515Z" fill="url(#paint2_radial_1146:1948)"/>
<path d="M69.7017 21.3502C69.7593 21.3906 69.8123 21.431 69.8666 21.4713C69.1999 20.2967 68.3697 19.2213 67.4005 18.2769C59.1489 10.082 65.2376 0.507452 66.266 0.0213128L66.277 0.00634766C59.6093 3.88549 57.345 11.0615 57.1372 14.6518C57.4464 14.6304 57.7547 14.6064 58.0698 14.6064C60.4356 14.6107 62.7581 15.237 64.8012 16.4215C66.8442 17.606 68.535 19.3065 69.7017 21.3502V21.3502Z" fill="url(#paint3_radial_1146:1948)"/>
<path d="M58.0855 22.9868C58.0421 23.6425 55.7107 25.9045 54.8928 25.9045C47.3427 25.9045 46.1174 30.4394 46.1174 30.4394C46.4517 34.2587 49.1289 37.4036 52.3714 39.0679C52.5189 39.1422 52.6681 39.2129 52.8189 39.2802C53.0758 39.3931 53.3358 39.4989 53.5985 39.5976C54.7103 39.9887 55.8749 40.2117 57.0534 40.2592C70.2861 40.876 72.8495 24.549 63.3 19.8069C65.7456 19.3843 68.2844 20.3611 69.702 21.3488C68.5352 19.3048 66.8442 17.604 64.8009 16.4194C62.7575 15.2348 60.4347 14.6086 58.0686 14.6045C57.7535 14.6045 57.4452 14.6303 57.1361 14.6498C54.4727 14.8316 51.9263 15.806 49.829 17.4461C50.2336 17.7866 50.6908 18.241 51.6535 19.1825C53.4547 20.947 58.0755 22.7727 58.0855 22.9868V22.9868Z" fill="url(#paint4_radial_1146:1948)"/>
<path d="M58.0855 22.9868C58.0421 23.6425 55.7107 25.9045 54.8928 25.9045C47.3427 25.9045 46.1174 30.4394 46.1174 30.4394C46.4517 34.2587 49.1289 37.4036 52.3714 39.0679C52.5189 39.1422 52.6681 39.2129 52.8189 39.2802C53.0758 39.3931 53.3358 39.4989 53.5985 39.5976C54.7103 39.9887 55.8749 40.2117 57.0534 40.2592C70.2861 40.876 72.8495 24.549 63.3 19.8069C65.7456 19.3843 68.2844 20.3611 69.702 21.3488C68.5352 19.3048 66.8442 17.604 64.8009 16.4194C62.7575 15.2348 60.4347 14.6086 58.0686 14.6045C57.7535 14.6045 57.4452 14.6303 57.1361 14.6498C54.4727 14.8316 51.9263 15.806 49.829 17.4461C50.2336 17.7866 50.6908 18.241 51.6535 19.1825C53.4547 20.947 58.0755 22.7727 58.0855 22.9868V22.9868Z" fill="url(#paint5_radial_1146:1948)"/>
<path d="M48.592 16.5708C48.7767 16.6887 48.9594 16.8096 49.14 16.9336C48.5349 14.8311 48.5092 12.6058 49.0656 10.49C46.617 11.668 44.4412 13.3375 42.6755 15.3931C42.803 15.3899 46.6542 15.321 48.592 16.5708Z" fill="url(#paint6_radial_1146:1948)"/>
<path d="M31.7315 28.6805C33.7802 40.7029 44.7559 49.8838 57.2108 50.2325C68.74 50.5563 76.106 43.9104 79.1481 37.4269C81.1146 33.2362 82.4819 26.3781 79.9747 19.6339V19.6311L79.9715 19.6053C79.9688 19.5858 79.9669 19.5744 79.9674 19.5808C79.9678 19.5871 79.9674 19.5958 79.9729 19.6261C80.9141 25.7333 77.7862 31.6495 72.8941 35.6493L72.8795 35.6837C63.352 43.3885 54.2346 40.3324 52.3886 39.0813C52.2589 39.0193 52.1301 38.9555 52.0023 38.8899C46.447 36.2538 44.1526 31.2259 44.6445 26.9178C43.3257 26.937 42.0297 26.5761 40.9133 25.8789C39.7969 25.1816 38.9081 24.1779 38.3544 22.9892C38.3544 22.9892 42.5661 20.0071 48.1158 22.6006C51.2601 24.0179 54.838 24.1574 58.0845 22.9892C58.0744 22.7752 53.4536 20.9485 51.6524 19.1867C50.6897 18.2453 50.2326 17.7909 49.8279 17.4503C49.6082 17.2663 49.3786 17.0942 49.1402 16.9347C48.9826 16.8281 48.8049 16.712 48.5921 16.5719C46.6558 15.3221 42.8045 15.3928 42.677 15.3928H42.6647C41.612 14.0691 41.6865 9.70155 41.7468 8.79004C41.4355 8.91407 41.1384 9.07049 40.8603 9.25668C39.9314 9.91506 39.0631 10.6538 38.2654 11.4643C37.3577 12.3783 36.5284 13.366 35.786 14.4169V14.421V14.4169C34.0787 16.8196 32.868 19.5345 32.2238 22.4047C32.2096 22.4623 31.2666 26.5568 31.7315 28.6805Z" fill="url(#paint7_radial_1146:1948)"/>
<path d="M67.4018 18.2757C68.371 19.22 69.2013 20.2954 69.8679 21.47C70.0061 21.5714 70.1392 21.6794 70.2666 21.7938C76.2854 27.3014 73.1319 35.0915 72.8963 35.6461C77.7861 31.6463 80.914 25.7301 79.975 19.623C76.9727 12.1921 71.882 9.19546 67.7247 2.67067C67.5101 2.338 67.3016 2.00146 67.0995 1.66121C66.9954 1.48342 66.8979 1.3019 66.8072 1.11702C66.6348 0.785799 66.502 0.435764 66.4112 0.073997C66.4118 0.0568747 66.406 0.0401432 66.3948 0.0270643C66.3837 0.0139854 66.368 0.00549663 66.3509 0.00325278C66.3345 -0.00140978 66.3171 -0.00140978 66.3007 0.00325278C66.2971 0.00325278 66.2916 0.00869464 66.2875 0.0105086L66.2683 0.0209388C65.2375 0.507532 59.1489 10.082 67.4018 18.2757V18.2757Z" fill="url(#paint8_radial_1146:1948)"/>
<path d="M70.2655 21.795C70.138 21.6806 70.005 21.5725 69.8668 21.4712C69.8124 21.4308 69.7595 21.3905 69.7019 21.3501C68.2862 20.3611 65.7456 19.3842 63.3 19.8083C72.8494 24.5495 70.2874 40.8764 57.0534 40.2606C55.8749 40.213 54.7102 39.99 53.5985 39.5989C53.3354 39.501 53.0754 39.3952 52.8189 39.2815C52.6691 39.2135 52.5193 39.1455 52.3713 39.0693L52.3896 39.0806C54.2356 40.3318 63.353 43.3887 72.8805 35.6831L72.8951 35.6486C73.1308 35.0926 76.2842 27.3026 70.2655 21.795V21.795Z" fill="url(#paint9_radial_1146:1948)"/>
<path d="M46.1172 30.4395C46.1172 30.4395 47.3425 25.9046 54.8925 25.9046C55.7086 25.9046 58.0437 23.6426 58.0853 22.9868C54.8388 24.1551 51.2608 24.0156 48.1166 22.5982C42.5668 20.0047 38.3552 22.9868 38.3552 22.9868C38.9088 24.1755 39.7977 25.1792 40.9141 25.8765C42.0305 26.5738 43.3265 26.9346 44.6453 26.9154C44.1534 31.2258 46.4478 36.2518 52.003 38.8875C52.1273 38.9465 52.2437 39.0109 52.3711 39.0689C49.1286 37.4037 46.4515 34.2587 46.1172 30.4395V30.4395Z" fill="url(#paint10_radial_1146:1948)"/>
<path d="M82.6037 18.2516C81.4496 15.4949 79.1128 12.5191 77.2773 11.5785C78.5852 14.0918 79.4925 16.7913 79.9668 19.5808C79.9668 19.5849 79.9668 19.5958 79.9722 19.6261C76.97 12.1953 71.8792 9.19864 67.7219 2.67385C67.5073 2.34117 67.2989 2.00463 67.0967 1.66438C66.9926 1.48659 66.8951 1.30507 66.8044 1.12019C66.6321 0.788973 66.4992 0.438938 66.4085 0.0771708C66.4091 0.0600485 66.4032 0.043317 66.3921 0.0302382C66.3809 0.0171593 66.3653 0.00867046 66.3482 0.00642661C66.3318 0.00176405 66.3144 0.00176405 66.298 0.00642661C66.2943 0.00642661 66.2888 0.0118685 66.2847 0.0136824L66.2655 0.0241127L66.2765 0.00914754C59.6088 3.88829 57.3445 11.0643 57.1367 14.6546C57.4459 14.6332 57.7541 14.6092 58.0693 14.6092C60.4349 14.6132 62.7573 15.239 64.8004 16.423C66.8436 17.607 68.5346 19.3071 69.7017 21.3503C68.2859 20.3613 65.7454 19.3844 63.2998 19.8084C72.8492 24.5497 70.2872 40.8766 57.0531 40.2608C55.8746 40.2132 54.71 39.9902 53.5982 39.5991C53.3352 39.5012 53.0752 39.3954 52.8187 39.2817C52.6689 39.2137 52.5191 39.1456 52.3711 39.0695L52.3894 39.0808C52.2597 39.0188 52.1309 38.955 52.003 38.8894C52.1272 38.9484 52.2437 39.0128 52.3711 39.0708C49.1286 37.4065 46.4515 34.2616 46.1172 30.4423C46.1172 30.4423 47.3425 25.9074 54.8925 25.9074C55.7086 25.9074 58.0437 23.6454 58.0852 22.9897C58.0752 22.7756 53.4544 20.949 51.6532 19.1872C50.6905 18.2457 50.2333 17.7913 49.8287 17.4508C49.6089 17.2667 49.3793 17.0946 49.1409 16.9351C48.5358 14.8326 48.5101 12.6073 49.0665 10.4915C46.6177 11.669 44.4415 13.3381 42.6755 15.3933H42.6632C41.6105 14.0696 41.6849 9.70201 41.7452 8.7905C41.434 8.91453 41.1369 9.07095 40.8588 9.25714C39.9299 9.91552 39.0615 10.6543 38.2639 11.4647C37.3562 12.3788 36.5268 13.3664 35.7845 14.4174V14.4215V14.4174C34.0772 16.8201 32.8665 19.535 32.2223 22.4051C32.2095 22.4623 32.1985 22.5217 32.1862 22.5793C32.1364 22.8114 31.9122 23.9892 31.8802 24.2418C31.6754 25.4591 31.5447 26.6875 31.4888 27.9204C31.4888 27.9658 31.4861 28.0111 31.4861 28.0565C31.4865 34.6612 33.9833 41.0252 38.4827 45.8894C42.9821 50.7536 49.1562 53.7638 55.7836 54.3243C62.411 54.8848 69.0088 52.9549 74.2718 48.9163C79.5348 44.8777 83.0796 39.0247 84.2049 32.5152C84.2506 32.1778 84.2862 31.8386 84.3259 31.4985C84.8734 27.0093 84.2813 22.4555 82.6037 18.2516V18.2516ZM79.97 19.6053L79.9745 19.6339V19.6311L79.97 19.6053Z" fill="url(#paint11_linear_1146:1948)"/>
<path d="M0.730713 65.5698H8.07844V67.5421H2.83926V70.2177H8.07844V72.1745H2.83926V76.4772H0.730713V65.5698ZM10.5766 64.808C10.9036 64.81 11.2164 64.9409 11.4463 65.1719C11.6761 65.4029 11.8041 65.7152 11.8021 66.0399C11.8001 66.3646 11.6683 66.6753 11.4356 66.9035C11.2029 67.1317 10.8885 67.2588 10.5615 67.2568C10.4007 67.2643 10.24 67.2386 10.0897 67.1814C9.93941 67.1242 9.80266 67.0367 9.6881 66.9244C9.57354 66.812 9.48365 66.6774 9.4241 66.5289C9.36455 66.3803 9.33664 66.2212 9.34211 66.0614C9.33615 65.8975 9.36383 65.7341 9.42345 65.5811C9.48308 65.4281 9.57341 65.2888 9.68895 65.1715C9.8045 65.0543 9.94285 64.9616 10.0956 64.8991C10.2483 64.8366 10.4123 64.8056 10.5775 64.808H10.5766ZM9.53758 68.4082H11.6151V76.4753H9.53849L9.53758 68.4082ZM17.637 70.6489C17.3491 70.4234 16.9948 70.2976 16.6282 70.2907C15.7851 70.2907 15.3038 70.8285 15.3038 72.0085V76.4753H13.2441V68.4082H15.2161V69.5737C15.3629 69.1873 15.631 68.8581 15.9808 68.6348C16.3306 68.4114 16.7435 68.3058 17.1584 68.3334C17.6519 68.3322 18.1344 68.478 18.5436 68.752L17.637 70.6489ZM18.4952 72.4865C18.4795 71.9324 18.5764 71.3809 18.7801 70.8649C18.9837 70.3488 19.29 69.8788 19.6806 69.4829C20.0712 69.087 20.5381 68.7732 21.0535 68.5604C21.5689 68.3475 22.1221 68.24 22.6803 68.2441C23.2315 68.2203 23.7817 68.3101 24.2962 68.5077C24.8108 68.7053 25.2786 69.0065 25.6703 69.3924C26.062 69.7782 26.369 70.2404 26.5721 70.7498C26.7751 71.2591 26.8699 71.8047 26.8504 72.3522V73.2034H20.5284C20.631 73.7078 20.9155 74.1576 21.3285 74.4684C21.7414 74.7793 22.2544 74.9298 22.7712 74.8918C23.1873 74.9047 23.5986 74.799 23.9561 74.5872C24.3137 74.3753 24.6027 74.0662 24.7888 73.6964L26.5197 74.7271C26.1096 75.3497 25.5417 75.8541 24.8732 76.1897C24.2046 76.5254 23.4589 76.6805 22.7109 76.6395C20.0767 76.6395 18.4961 74.8918 18.4961 72.4865H18.4952ZM20.5576 71.5754H24.8327C24.7281 71.0932 24.4506 70.6653 24.0518 70.3712C23.6531 70.0771 23.1603 69.937 22.6652 69.9768C22.182 69.9599 21.7078 70.1099 21.3235 70.4015C20.9393 70.693 20.6689 71.1079 20.5585 71.5754H20.5576ZM27.3623 68.4082H28.8237V68.0051C28.8237 65.8088 29.7572 64.8978 31.8046 64.8978H32.527V66.6755H31.9393C30.9761 66.6755 30.7651 67.0042 30.7651 68.0051V68.4082H32.5266V70.2607H30.8103V76.4735H28.8233V70.2607H27.3618L27.3623 68.4082ZM32.9175 72.4416C32.9084 71.8862 33.0122 71.3346 33.2227 70.82C33.4332 70.3053 33.746 69.8381 34.1425 69.4463C34.539 69.0544 35.011 68.746 35.5303 68.5394C36.0496 68.3329 36.6055 68.2324 37.1648 68.2441C37.7236 68.2383 38.2781 68.3426 38.796 68.551C39.314 68.7594 39.7853 69.0676 40.1825 69.458C40.5797 69.8484 40.8951 70.3131 41.1103 70.8252C41.3255 71.3374 41.4363 71.8868 41.4363 72.4418C41.4363 72.9967 41.3255 73.5462 41.1103 74.0583C40.8951 74.5705 40.5797 75.0352 40.1825 75.4256C39.7853 75.8159 39.314 76.1242 38.796 76.3326C38.2781 76.541 37.7236 76.6453 37.1648 76.6395C36.6032 76.6599 36.0434 76.5654 35.5201 76.3619C34.9969 76.1583 34.5214 75.8502 34.1231 75.4565C33.7248 75.0628 33.4123 74.592 33.205 74.0734C32.9977 73.5547 32.9 72.9993 32.918 72.4416H32.9175ZM39.3907 72.4416C39.3764 72.0071 39.2336 71.5864 38.9801 71.2319C38.7266 70.8775 38.3736 70.6051 37.9652 70.4486C37.5567 70.2921 37.1109 70.2585 36.6834 70.352C36.2558 70.4455 35.8655 70.6619 35.561 70.9743C35.2565 71.2866 35.0514 71.6811 34.9713 72.1085C34.8912 72.5359 34.9395 72.9772 35.1104 73.3775C35.2812 73.7777 35.567 74.1192 35.932 74.3592C36.297 74.5992 36.7251 74.7272 37.1629 74.7271C37.4618 74.7271 37.7575 74.6673 38.0327 74.5515C38.3078 74.4357 38.5567 74.2661 38.7645 74.0529C38.9724 73.8397 39.1349 73.5872 39.2426 73.3104C39.3502 73.0336 39.4007 72.7381 39.3911 72.4416H39.3907ZM44.2083 72.3509L41.2727 68.4055H43.7115L45.4428 70.8852L47.2193 68.4055H49.6128L46.632 72.3345L49.7635 76.4726H47.3394L45.3976 73.8424L43.516 76.4726H41.0923L44.2083 72.3509ZM61.833 70.8421C62.2843 70.6369 62.6647 70.3041 62.9267 69.8855C63.1886 69.4668 63.3205 68.9807 63.3059 68.488C63.3059 66.7303 61.9394 65.598 59.8743 65.598H55.137V76.4735H60.0263C62.1212 76.4735 63.5333 75.3117 63.5333 73.4048C63.5584 72.8541 63.4075 72.3097 63.1021 71.8494C62.7967 71.3891 62.3525 71.0365 61.833 70.8421V70.8421ZM56.3984 66.7303H59.8601C61.2115 66.7303 62.0463 67.4455 62.0463 68.488C62.0463 69.5306 61.3179 70.3056 59.9665 70.3056H56.3984V66.7303ZM60.0094 75.3244H56.3961V71.4511H59.9492C61.4672 71.4511 62.2568 72.2407 62.2568 73.388C62.2582 74.5217 61.3795 75.3244 60.0094 75.3244ZM66.2355 69.9465V68.4268H65.0358V76.4717H66.2661V72.0638C66.2661 70.2907 67.0558 69.5161 68.4222 69.5161C68.7739 69.5023 69.122 69.5903 69.4242 69.7696L69.9402 68.6078C69.5192 68.3908 69.0481 68.2879 68.5743 68.3094C68.0544 68.2743 67.5381 68.4181 67.1125 68.7166C66.6868 69.0151 66.3776 69.45 66.2369 69.9483L66.2355 69.9465ZM74.2523 68.2631C73.4206 68.273 72.6105 68.5269 71.9237 68.9928C71.237 69.4588 70.7044 70.1161 70.393 70.8819C70.0816 71.6478 70.0053 72.488 70.1736 73.2968C70.342 74.1056 70.7475 74.8469 71.3391 75.4274C71.9308 76.008 72.6821 76.4017 73.4986 76.5592C74.3151 76.7167 75.1603 76.6309 75.9277 76.3125C76.6952 75.9942 77.3507 75.4575 77.8118 74.7701C78.2728 74.0827 78.5188 73.2752 78.5188 72.4493C78.5228 71.8943 78.4149 71.3442 78.2014 70.8314C77.9878 70.3186 77.673 69.8534 77.2754 69.4634C76.8779 69.0734 76.4057 68.7664 75.8867 68.5606C75.3677 68.3547 74.8125 68.2542 74.2537 68.2649L74.2523 68.2631ZM74.2523 75.4736C73.4538 75.4568 72.6936 75.13 72.1348 74.5632C71.576 73.9965 71.2631 73.2349 71.2631 72.4418C71.2631 71.6486 71.576 70.8871 72.1348 70.3203C72.6936 69.7536 73.4538 69.4268 74.2523 69.41C75.0556 69.4197 75.8227 69.7435 76.3873 70.311C76.9518 70.8785 77.2684 71.6441 77.2684 72.4418C77.2684 73.2395 76.9518 74.0051 76.3873 74.5726C75.8227 75.1401 75.0556 75.4638 74.2523 75.4736V75.4736ZM88.5103 74.7584L86.0656 68.4268H84.912L82.4066 74.8029L80.3419 68.4268H79.0362L81.7238 76.4717H82.9382L85.4582 70.0957L87.9787 76.4717H89.1026L91.9419 68.4268H90.6535L88.5103 74.7584ZM96.3302 71.8235C95.0547 71.5704 94.0682 71.4062 94.0682 70.5723C94.0682 69.8272 94.5843 69.2912 95.8448 69.2912C96.2791 69.2737 96.7111 69.3624 97.1028 69.5494C97.4946 69.7364 97.8341 70.016 98.0917 70.3637L99.1243 69.6785C98.7281 69.2023 98.2251 68.8249 97.6556 68.5765C97.0861 68.3281 96.4659 68.2157 95.8448 68.2482C93.9011 68.2332 92.7927 69.3365 92.7927 70.5872C92.7927 72.1958 94.2961 72.5685 95.7082 72.8365C96.9075 73.0751 98.031 73.2538 98.031 74.1476C98.031 74.9521 97.3628 75.548 96.0873 75.548C95.571 75.5704 95.0576 75.4618 94.5954 75.2324C94.1332 75.003 93.7375 74.6604 93.4458 74.2369L92.3675 74.9521C93.0982 75.9801 94.2655 76.6354 96.0571 76.6354C98.1981 76.6504 99.291 75.3992 99.291 74.1326C99.2923 72.481 97.7437 72.0937 96.3316 71.8253L96.3302 71.8235ZM104.591 68.2631C104.028 68.2495 103.468 68.349 102.944 68.5557C102.421 68.7624 101.945 69.0719 101.545 69.4659C101.145 69.8598 100.83 70.3299 100.617 70.8479C100.405 71.366 100.3 71.9213 100.309 72.4806C100.309 74.8342 102.01 76.6368 104.636 76.6368C105.398 76.6698 106.154 76.4976 106.825 76.1383C107.496 75.779 108.057 75.2461 108.447 74.5961L107.384 73.9857C107.054 74.5417 106.56 74.9835 105.968 75.2512C105.376 75.519 104.716 75.5999 104.077 75.4829C103.437 75.3659 102.85 75.0566 102.393 74.597C101.936 74.1374 101.633 73.5496 101.524 72.9132H108.766V72.3617C108.781 71.8156 108.683 71.2723 108.478 70.7653C108.273 70.2583 107.965 69.7986 107.574 69.4145C107.183 69.0304 106.716 68.7302 106.203 68.5325C105.69 68.3347 105.142 68.2437 104.592 68.2649L104.591 68.2631ZM101.554 71.8384C101.68 71.133 102.055 70.4952 102.611 70.0393C103.168 69.5833 103.87 69.3392 104.591 69.3506C105.305 69.3095 106.007 69.5463 106.549 70.0108C107.09 70.4752 107.428 71.1308 107.49 71.8384H101.554ZM113.794 68.3076C113.274 68.2723 112.757 68.416 112.331 68.7145C111.905 69.013 111.596 69.4481 111.455 69.9465V68.4268H110.256V76.4717H111.486V72.0638C111.486 70.2907 112.275 69.5161 113.642 69.5161C113.993 69.5023 114.341 69.5903 114.644 69.7696L115.16 68.6078C114.739 68.3909 114.268 68.288 113.794 68.3094L113.794 68.3076Z" fill="#20123A"/>
</g>
<defs>
<linearGradient id="paint0_linear_1146:1948" x1="77.7616" y1="8.43749" x2="35.4158" y2="49.5779" gradientUnits="userSpaceOnUse">
<stop offset="0.05" stop-color="#FFF44F"/>
<stop offset="0.37" stop-color="#FF980E"/>
<stop offset="0.53" stop-color="#FF3647"/>
<stop offset="0.7" stop-color="#E31587"/>
</linearGradient>
<radialGradient id="paint1_radial_1146:1948" cx="0" cy="0" r="1" gradientUnits="userSpaceOnUse" gradientTransform="translate(62.3542 6.11039) scale(54.3107 54.8364)">
<stop offset="0.13" stop-color="#FFBD4F"/>
<stop offset="0.28" stop-color="#FF980E"/>
<stop offset="0.47" stop-color="#FF3750"/>
<stop offset="0.78" stop-color="#EB0878"/>
<stop offset="0.86" stop-color="#E50080"/>
</radialGradient>
<radialGradient id="paint2_radial_1146:1948" cx="0" cy="0" r="1" gradientUnits="userSpaceOnUse" gradientTransform="translate(47.1694 28.7147) scale(55.6685 54.8364)">
<stop offset="0.3" stop-color="#960E18"/>
<stop offset="0.35" stop-color="#B11927" stop-opacity="0.74"/>
<stop offset="0.43" stop-color="#DB293D" stop-opacity="0.34"/>
<stop offset="0.5" stop-color="#F5334B" stop-opacity="0.09"/>
<stop offset="0.53" stop-color="#FF3750" stop-opacity="0"/>
</radialGradient>
<radialGradient id="paint3_radial_1146:1948" cx="0" cy="0" r="1" gradientUnits="userSpaceOnUse" gradientTransform="translate(63.2473 -2.56945) scale(17.8212 30.051)">
<stop offset="0.13" stop-color="#FFF44F"/>
<stop offset="0.53" stop-color="#FF980E"/>
</radialGradient>
<radialGradient id="paint4_radial_1146:1948" cx="0" cy="0" r="1" gradientUnits="userSpaceOnUse" gradientTransform="translate(51.4853 42.8717) scale(23.5845 25.6718)">
<stop offset="0.35" stop-color="#3A8EE6"/>
<stop offset="0.67" stop-color="#9059FF"/>
<stop offset="1" stop-color="#C139E6"/>
</radialGradient>
<radialGradient id="paint5_radial_1146:1948" cx="0" cy="0" r="1" gradientUnits="userSpaceOnUse" gradientTransform="translate(52.5433 23.0762) scale(12.5234 15.1463)">
<stop offset="0.21" stop-color="#9059FF" stop-opacity="0"/>
<stop offset="0.97" stop-color="#6E008B" stop-opacity="0.6"/>
</radialGradient>
<radialGradient id="paint6_radial_1146:1948" cx="0" cy="0" r="1" gradientUnits="userSpaceOnUse" gradientTransform="translate(56.251 4.04638) scale(18.747 18.6865)">
<stop offset="0.1" stop-color="#FFE226"/>
<stop offset="0.79" stop-color="#FF7139"/>
</radialGradient>
<radialGradient id="paint7_radial_1146:1948" cx="0" cy="0" r="1" gradientUnits="userSpaceOnUse" gradientTransform="translate(73.3775 -8.20604) scale(89.5172 74.617)">
<stop offset="0.11" stop-color="#FFF44F"/>
<stop offset="0.46" stop-color="#FF980E"/>
<stop offset="0.72" stop-color="#FF3647"/>
<stop offset="0.9" stop-color="#E31587"/>
</radialGradient>
<radialGradient id="paint8_radial_1146:1948" cx="0" cy="0" r="1" gradientUnits="userSpaceOnUse" gradientTransform="translate(13.5058 30.1348) rotate(77.3084) scale(28.2149 122.826)">
<stop stop-color="#FFF44F"/>
<stop offset="0.3" stop-color="#FF980E"/>
<stop offset="0.57" stop-color="#FF3647"/>
<stop offset="0.74" stop-color="#E31587"/>
</radialGradient>
<radialGradient id="paint9_radial_1146:1948" cx="0" cy="0" r="1" gradientUnits="userSpaceOnUse" gradientTransform="translate(56.4459 10.7665) scale(51.3951 50.1482)">
<stop offset="0.14" stop-color="#FFF44F"/>
<stop offset="0.48" stop-color="#FF980E"/>
<stop offset="0.66" stop-color="#FF3647"/>
<stop offset="0.9" stop-color="#E31587"/>
</radialGradient>
<radialGradient id="paint10_radial_1146:1948" cx="0" cy="0" r="1" gradientUnits="userSpaceOnUse" gradientTransform="translate(69.7852 13.6987) scale(61.7748 54.8882)">
<stop offset="0.09" stop-color="#FFF44F"/>
<stop offset="0.63" stop-color="#FF980E"/>
</radialGradient>
<linearGradient id="paint11_linear_1146:1948" x1="73.9164" y1="7.62124" x2="40.0844" y2="44.8509" gradientUnits="userSpaceOnUse">
<stop offset="0.17" stop-color="#FFF44F" stop-opacity="0.8"/>
<stop offset="0.6" stop-color="#FFF44F" stop-opacity="0"/>
</linearGradient>
<clipPath id="clip0_1146:1948">
<rect width="116" height="78" fill="white"/>
</clipPath>
</defs>
</svg>
