<?xml version="1.0" encoding="UTF-8"?>
<svg width="150px" height="100px" viewBox="0 0 150 100" version="1.1" xmlns="http://www.w3.org/2000/svg" xmlns:xlink="http://www.w3.org/1999/xlink">
    <title>optmeowt</title>
    <g id="optmeowt" stroke="none" stroke-width="1" fill="none" fill-rule="evenodd">
        <rect fill="#FFFFFF" x="0" y="0" width="150" height="100"></rect>
        <g transform="translate(31.000000, 6.000000)" fill-rule="nonzero">
            <path d="M44,88 C68.3005714,88 88,68.3005714 88,44 C88,19.6994286 68.3005714,0 44,0 C19.6994286,0 0,19.6994286 0,44 C0,68.3005714 19.6994286,88 44,88 Z" id="Path" fill="#C7EAFB"></path>
            <g id="Group" transform="translate(14.142857, 17.285714)" fill="#383737">
                <path d="M58.8900714,1.9602 C54.7521857,6.09808571 50.7521143,10.2361286 46.5452429,14.1670571 C45.4417857,15.2015286 43.6486286,15.9602143 42.1314143,16.0292 C34.0624429,16.236 25.9246429,16.236 17.8556714,16.0292 C16.3383,16.0292 14.5453,15.2705143 13.4418429,14.2360429 C9.3038,10.3049571 5.37287143,6.16707143 0.821118571,1.47745714 C0.821118571,13.2015714 0.40733,24.0291857 0.959042857,34.7878143 C1.30387714,41.8913 4.89012857,47.8911714 10.4762429,52.6497714 C16.1315,48.4429 21.5798,44.5119714 26.8211429,40.3049429 C29.2348571,38.3739714 30.8210571,38.4429571 33.1659429,40.3739286 C38.4072857,44.6497857 43.9935571,48.5808714 49.4418571,52.6497714 C54.7521857,47.8221857 58.4073286,42.3050571 58.7521,35.6153286 C59.3038286,24.5809143 58.8900714,13.4085286 58.8900714,1.9602 L58.8900714,1.9602 Z M18.6831857,39.1326571 C16.2004857,39.1326571 14.2003714,37.1325429 14.2003714,34.6498429 C14.2003714,32.1671429 16.2004857,30.1670286 18.6831857,30.1670286 C21.1658857,30.1670286 23.166,32.1671429 23.166,34.6498429 C23.166,37.1325429 21.1658857,39.1326571 18.6831857,39.1326571 Z M41.0279571,39.1326571 C38.5452571,39.1326571 36.5453,37.1325429 36.5453,34.6498429 C36.5453,32.1671429 38.5452571,30.1670286 41.0279571,30.1670286 C43.5108143,30.1670286 45.5107714,32.1671429 45.5107714,34.6498429 C45.5107714,37.1325429 43.5108143,39.1326571 41.0279571,39.1326571 Z" id="Shape"></path>
                <polygon id="Path" points="29.8532143 49.8912857 33.9222714 45.8223857 25.7843143 45.8223857"></polygon>
            </g>
        </g>
    </g>
</svg>