<svg height="100" viewBox="0 0 260 100" width="260" xmlns="http://www.w3.org/2000/svg"><g fill="none" fill-rule="evenodd"><path d="m0 0h260v100h-260z" fill="#fff"/><g fill-rule="nonzero" transform="translate(71 10)"><path d="m32.5946667 34.9336296c3.4266666-4.3768889 11.8746666-4.1845926 14.8151111 2.1146667 2.0242963 4.3202963 2.0355555 8.730963-.2488889 12.9718518-2.6802963 4.9647408-8.8325926 5.8696297-12.5872593 3.7321482-.8595555-.4862222-1.5834074-1.130963-2.2619259-1.9451852 0 .701037-.0337778 1.3345185.0112593 1.9677037.034074.474963-.1582223.5543704-.5765926.5428148-1.3345185-.0225185-2.6690667-.0337777-4.0035556 0-.4636741.0115556-.5880889-.1128889-.5880889-.5878518.0113185-7.9392593.0113185-15.8897778.0113185-23.8290371 0-1.1534222-.1922666-1.3456888-1.345837-1.3456888-1.3231704 0-1.3231704 0-1.3231704-1.3118815 0-.9839111.0112889-1.9565334-.0113185-2.9404445-.0113185-.3279703.1017778-.4184296.4184593-.4071407 1.6511407.0113185 3.3136296-.0112889 4.9648592.0113185 1.8548149.0339259 2.7140741.9273778 2.7140741 2.7821037 0 2.6350815-.0225185 5.2701037-.0337778 7.905363.0225186.0791111.0225186.1469629.0453334.3392592zm-.1472593 8.6740741c-.0337778 1.130963.2151111 2.4204444.8142222 3.618963.8823704 1.7869629 2.296 2.8841481 4.3202963 2.9745185 1.9564445.0903704 3.4945185-.7576296 4.5688889-2.3863704 1.6059259-2.4314074 1.5380741-6.616-.1357037-9.0020741-2.0921481-2.9857777-6.5481481-2.8725926-8.4705185.2260741-.8257778 1.3232593-1.0971852 2.816-1.0971852 4.5688889z" fill="#5b5378"/><path d="m58.1780741.01130936c4.9537778 0 9.9072592.01130934 14.8491852-.01130936.4977777 0 .6672592.101784.6672592.64463407-.0225185 4.78386963-.0225185 9.56772153 0 14.35157333 0 .4749926-.0791111.6559407-.6106666.6446222-1.933926-.0339259-3.8791112-.0226074-5.8130371 0-.4408889 0-.5653333-.1243852-.5653333-.5654518.0225185-2.7481778 0-5.49635558.0225185-8.24453336 0-.48631111-.146963-.58808888-.5994074-.57677037-5.304.01131852-10.6192593.01131852-15.9235556 0-.4862222 0-.5881481.14702223-.5881481.59940741.0228148 2.74814815 0 5.49632592.0228148 8.24450372 0 .4071407-.0906667.5541629-.5315556.5541629-1.9792592-.0226074-3.9582222-.0226074-5.9262222 0-.4296296 0-.5315555-.1244148-.5315555-.5428444.0112592-4.8177778.0228148-9.63558518 0-14.46466963 0-.49761244.1357037-.62201537.6222222-.62201537 4.9647407 0 9.9407407-.01130934 14.9054815-.01130934z" fill="#718f40"/><path d="m58.1555556 77.2533333c-4.9647408 0-9.9410371-.0112592-14.9057778.0112593-.4521482 0-.5994074-.1016296-.5994074-.5765926.0228148-4.8180741.0112592-9.6358519 0-14.4648889 0-.4408889.1019259-.5765926.5543703-.5653333 1.9564445.0225185 3.9128889.0225185 5.8693334 0 .4524444-.0112593.5656296.1357037.5543703.5653333-.0228148 2.7481482 0 5.4962963-.0228148 8.2447408 0 .4296296.0906667.5653333.5543704.5653333 5.3493333-.0225185 10.6986667-.0112593 16.0364444 0 .4411852 0 .5202963-.1357037.5202963-.5428148-.0225185-2.770963 0-5.5303704-.0225185-8.3010371 0-.4183703.1016297-.5428148.5315556-.5428148 1.9789629.0225185 3.9582222.0225185 5.9259259 0 .4411852 0 .5315556.1357037.5315556.5428148-.0112593 4.8402963-.0112593 9.6805926 0 14.5211852 0 .4637037-.146963.5540741-.5765926.5540741-4.9762963-.0112593-9.9635556-.0112593-14.9511111-.0112593z" fill="#718f40"/><g fill="#5b5378" transform="translate(0 29.62963)"><path d="m76.2980741 6.69659259c.8367407-1.30074074 1.8207407-2.42044444 3.1665185-3.16681481 2.7031111-1.51525926 5.5303704-1.61718519 8.3688889-.46370371 2.1940741.89362963 3.1780741 2.77096297 3.5964444 4.98755556.1810371.94992593.2376297 1.89985185.2376297 2.86133337v7.9617777c0 .9386667.2373333 1.1647408 1.1534814 1.1872593.4637037.0115556 1.0743704-.2035556 1.3570371.0906667.3054815.3167407.0906666.9274074.1019259 1.4136296.0112593.8820741-.0112593 1.7754074.0112593 2.6577778.0112592.373037-.1131852.4749629-.474963.4637037-1.4702222-.0228148-2.9404444-.0115556-4.4106667-.0115556-2.4542222 0-3.2231111-.7688889-3.2343703-3.2568889 0-3.2909629 0-6.5934814 0-9.8844444 0-.5653333-.0340741-1.130963-.1472593-1.68503705-.4071111-1.93392592-1.650963-2.6237037-3.4832593-2.53333333-3.370074.15822222-5.4171851 2.55585185-5.9034074 5.77896298-.1244444.8029629-.1131852 1.6171852-.1131852 2.4201481 0 2.8613334-.0112592 5.7226667.0115556 8.584 0 .4862223-.1357037.5881482-.5881481.5765926-1.4251852-.0337778-2.8613334-.0337778-4.2862223 0-.4299259.0115556-.5656296-.0903703-.5656296-.5540741.0228148-5.1345185.0112593-10.2802962.0112593-15.41451847 0-1.01807407-.2035556-1.22162963-1.2100741-1.23288889-.3164445 0-.6444445-.02251852-.9611852 0-.3505185.02281482-.509037-.06785185-.4977778-.4637037.0228148-1.24385185.0228148-2.488 0-3.73185185-.0112592-.39585186.1472593-.46370371.4977778-.46370371 1.4702222.01125926 2.9404444.01125926 4.4106667.01125926 2.341037 0 3.2571852 1.00651852 3.0195555 3.3362963-.034074.19229629-.0453333.36177777-.0678518.53155555z"/><path d="m14.0271407 21.4992593c-1.0857185 1.7979259-2.5559111 3.0195555-4.55768885 3.4379259-3.00826666.6331852-5.74512592.1016296-7.89391704-2.2506667-2.18270518-2.3976296-2.57853333-7.5205926 1.95652445-9.8728889 1.96782222-1.018074 4.09398518-1.4589629 6.27668148-1.6965926 1.14225186-.1244444 2.28450366-.1244444 3.43804446-.1694814.3166518-.0112593.4297481-.1131852.4184592-.429926-.022637-.6219259-.0791703-1.23259256-.271437-1.83199997-.3505778-1.07437037-1.0856889-1.74162963-2.1826963-1.97925926-1.0630815-.23733333-2.12616295-.23733333-3.17792591.06785185-.97262223.29422222-1.26666667.656-1.23274075 1.66251852.02263704.55437037-.10177777.74637037-.70115555.72385185-1.30059259-.05659259-2.60115556-.02251852-3.89042963-.01125926-.36189926 0-.49761185-.09037037-.47499259-.47496296.03392592-.62192593.02261629-1.24414815.01130666-1.86607407-.02261629-1.25540741.50892148-2.2165926 1.50416-2.92918519 1.21007408-.87081481 2.61244445-1.19881481 4.06002963-1.40237037 2.06962963-.28266667 4.12794074-.24888889 6.16361484.27140741 3.2910222.83703704 5.2927703 3.17807407 5.5754963 6.55940741.2488296 3.00829634.0678815 6.01659254.1130963 9.02488884.022637 1.6850371.0339259 1.7191112 1.6964148 1.7191112.9273778 0 .9273778 0 .9273778.9161481 0 1.0968889-.0113186 2.1825185.0112889 3.2797037.0113185.3505185-.1017778.4408889-.4523556.4408889-1.5380741-.0225185-3.0874667.0228148-4.6255407-.0225185-1.6398519-.0453334-2.5333037-.8820741-2.6124445-2.3635556-.0339259-.2376296.0678519-.4865185-.0791704-.8029629zm-1.8321185-6.7857778c-.7011852-.0112593-1.3910518.0565926-2.0809185.1469629-1.15357037.1585186-2.29579259.3845926-3.30234074 1.0293334-1.79819259 1.1534815-1.68509629 3.6868148.23751111 4.6367407 1.40234074.6897778 2.7933926.5428148 4.06005923-.328 1.7416297-1.1988148 2.5898371-2.9179259 2.6350519-5.0325926.0113185-.3958518-.1357037-.4749629-.4862815-.4524444-.3506074.0225185-.7125037 0-1.0630815 0z"/><path d="m110.902815 14.7143704c-2.318519 0-4.625778.0225185-6.944-.0112593-.554371-.0112592-.610667.181037-.520296.6444445.757629 3.7662222 3.924444 5.6094814 7.565925 5.1007407 1.752889-.2376296 3.290963-1.0065185 4.670815-2.1037037.260148-.2035556.361778-.2148148.531556.0906667.588148 1.029037 1.198815 2.0468148 1.832 3.042074.203555.3167408.181037.4977778-.112889.7351111-2.06963 1.64-4.410667 2.6465186-7.034667 2.9066667-3.008296.2939259-5.869333-.2035555-8.380148-1.9792592-3.4154073-2.4201482-4.8743703-5.8355556-4.7158517-9.9410371.1469629-3.8225185 1.5943703-7.01155554 4.8968887-9.16059258 3.494519-2.27318518 8.640296-2.28444444 11.806815-.06785185 2.205333 1.54962963 3.336296 3.75496296 3.822518 6.34459263.248889 1.3457777.226371 2.6915555.124445 4.0488889-.033778.4183703-.271407.3617777-.531556.3617777-2.341037-.0112592-4.682074-.0112592-7.011555-.0112592zm-2.691852-3.8c1.425185 0 2.861333-.0112593 4.286222 0 .294222 0 .429926-.0450371.407408-.3958519-.090667-1.75288887-1.379852-3.42666665-3.076149-3.83377776-2.239407-.53155555-5.20237.44118519-6.18637 3.74340736-.124444.4296297 0 .4862223.395852.4862223 1.391111-.0112593 2.782222 0 4.173037 0z"/></g><g fill="#718f40" transform="translate(53.333333 20.740741)"><path d="m7.96711111 22.6527407c0 3.4604445-.01125926 6.9211852.01125926 10.381926 0 .4183703-.09037037.5428148-.5202963.5315555-1.75288888-.0225185-3.49451851-.0225185-5.2474074 0-.40711111 0-.49777778-.1131852-.49777778-.509037.01125926-6.944.01125926-13.8877037 0-20.8317037 0-.3845926.09066667-.5090371.49777778-.5090371 1.75288889.0228149 3.49451852.0228149 5.2474074 0 .44118519-.0112592.5202963.1244445.5202963.5428149-.02251852 3.472-.01125926 6.9327407-.01125926 10.3934814z"/><path d="m4.80977778.91724163c1.90014815-.01125644 3.44948148 1.52681763 3.46080172 3.426788.01119828 1.88868148-1.53813506 3.46068148-3.42672765 3.47203244-1.88859259.01125645-3.44948148-1.52681763-3.46080216-3.426788-.01119784-1.91128888 1.52687624-3.46065185 3.42672809-3.47203244z"/></g></g></g></svg>