<svg height="100" viewBox="0 0 260 100" width="260" xmlns="http://www.w3.org/2000/svg" xmlns:xlink="http://www.w3.org/1999/xlink"><linearGradient id="a" x1="-.020093%" x2="100.386674%" y1="49.997821%" y2="49.997821%"><stop offset="0" stop-color="#f50"/><stop offset=".4099" stop-color="#f50"/><stop offset=".582" stop-color="#ff2000"/><stop offset="1" stop-color="#ff2000"/></linearGradient><linearGradient id="b" x1="2.289538%" x2="99.903914%" y1="49.495177%" y2="49.495177%"><stop offset="0" stop-color="#ff452a"/><stop offset="1" stop-color="#ff2000"/></linearGradient><g fill="none" fill-rule="evenodd"><path d="m0 0h260v100h-260z" fill="#fff"/><g fill-rule="nonzero" transform="translate(50 25)"><g fill="#3b3e4f" transform="translate(52.134831 8.988764)"><path d="m1.06570787 18.2525843v-17.14302924h1.62858426c1.28575281 0 2.4 1.11428314 2.4 2.40001797v7.62858427c2.57150562-2.31426517 4.8-3.2571146 7.71433707-3.34283146 5.6571686-.08571685 10.5429214 4.11424716 10.9715056 9.85716856.5143371 6.8571685-4.2856629 11.9144269-10.7144269 11.9144269-6.94292138 0-12.00000003-4.3714157-12.00000003-11.314337zm3.94283146 1.3713258c.42858427 3.514427 3.6857528 6.5143371 7.28575277 6.5143371 4.5429214.0857528 7.7143371-2.9999101 7.7143371-7.4570787 0-4.4571685-3.0856629-7.4572584-7.5428314-7.4572584-4.80000005 0-7.97159555 3.5142472-7.45725847 8.4z"/><path d="m30.4661573 8.22320899v3.08573481c2.4857528-2.82858425 4.0285843-3.60001796 6.9429214-3.60001796.8571685 0 1.714337.08569888 2.5715056.17141573v4.02869213c-.9429214-.2572584-1.8000899-.3430112-2.7430113-.3430112-2.1427415 0-3.9428314.6858427-5.2285842 2.0571685-1.1142472 1.2-1.4570787 2.0571686-1.4570787 3.9430112v11.3143371h-4.2000899v-20.65733031z"/><path d="m40.9242247 15.0804494c.1713259-1.9714157.5999101-3.0858427 1.4570787-4.114337 1.714337-2.14290341 4.8-3.25718656 9.1715955-3.25718656 3.4284944 0 6 .51428315 7.7143371 1.71435506 1.4570786.9427416 2.0571685 2.4 2.0571685 4.8857528v9.1714157c0 1.9714158.5141573 2.7428315 1.8856629 2.6572585.3428315 0 .6000899 0 .9429214-.0857528v2.7428314c-.6858427.2570787-1.4572585.3428315-2.1429214.3428315-2.5715056 0-3.7715056-.7714158-4.6286741-3.0856629-2.5713259 2.4-5.2285843 3.4284943-9.0000899 3.4284943-5.0570787 0-8.2284944-2.3142472-8.2284944-6.1713258 0-2.1429214 1.2-4.1143371 3.1714157-5.0572584 1.5428315-.685663 2.4857528-.8571686 6.8571686-1.3715056 3.7715056-.3428315 4.3714157-.4285843 5.4858427-.7714158 1.1142471-.3428314 1.6285842-1.0284944 1.6285842-2.0571685 0-2.2284944-1.8000899-3.2571686-5.6573483-3.2571686-3.6 0-5.4856629.7714158-6.2570786 2.5715057-.3428315.9429213-1.2857529 1.5428314-2.314427 1.6285842zm16.4571686 3.5142472c-2.6570787.7714158-5.3143371 1.2857528-8.0571686 1.5428315-3.6857528.3430112-4.8857528 1.114427-4.8857528 3.0000899 0 2.0571685 1.7143371 3.1714157 5.0572584 3.1714157 2.7428315 0 4.8857528-.6856629 6.3428315-2.0571685 1.2-1.1142472 1.4572584-1.885663 1.4572584-3.9428315v-1.7143371z"/><path d="m74.183191 28.8805393h-1.0286741c-.9427416 0-1.7999102-.5141573-2.2284944-1.3713258l-9.0000899-19.28589665h2.4857528c1.4570786 0 2.7428315.85713259 3.3429213 2.22863825l6 13.8000898 6.1715057-13.8858427c.5999101-1.28575276 1.8856629-2.14288535 3.3429213-2.14288535h2.2284944l-9.0858427 19.28589665c-.4285843.8571685-1.285573 1.3713258-2.2284944 1.3713258z"/><path d="m88.3248539 19.7946966c.4285843 3.9430113 3.514427 6.4285843 8.0573483 6.4285843 2.5713259 0 4.5427418-.7714157 5.7427418-2.3142472.685843-.8571685 1.80009-1.4570786 2.914337-1.4570786h2.4c-2.057169 4.7142471-5.828494 7.0284943-11.40009 7.0284943-6.9429213 0-11.6571685-4.2856629-11.6571685-10.8 0-6.514337 4.8-10.97152356 11.7429213-10.97152356 5.0572582 0 9.0858432 2.31426516 10.7144272 6.17152356.685663 1.7999102 1.028494 3.3429214 1.028494 5.9142472zm15.2573481-3.2571685c-.942921-3.6857528-3.6857526-5.6571685-7.543011-5.6571685-3.8570786 0-6.5999101 2.0571685-7.6285843 5.6571685z"/></g><path d="m40.3717753 12.1595506 1.1142472-2.91431914s-1.4570787-1.62858427-3.2571686-3.42858427c-1.7999101-1.80001798-5.5714157-.77143371-5.5714157-.77143371l-4.2858427-4.97147757h-7.5428315-7.4572224l-4.28575284 4.97147757s-3.77145168-1.02858427-5.57146966.77143371c-1.80001977 1.8-3.25717393 3.42858427-3.25717393 3.42858427l1.20000899 2.91431914-1.45715416 4.2857528s4.28575281 16.6286741 4.80003596 18.6858427c1.02858426 4.0285842 1.71430112 5.5714157 4.45718651 7.5430112 2.74286743 1.9714157 7.97148763 5.5714157 8.74295733 6.0857528.8571685.5141573 1.8856629 1.4570787 2.8285842 1.4570787.9429214 0 1.9714158-.9429214 2.8285843-1.4570787.8571686-.5143371 6-4.0285843 8.7428315-6.0857528 2.7430112-2.0571685 3.5144269-3.6001798 4.4573483-7.5430112.5141573-2.0571686 4.8-18.6858427 4.8-18.6858427z" fill="url(#a)"/><path d="m20.9143371 31.2738876c.2570786 0 2.1427416.685663 3.6 1.4570787 1.4570786.7714157 2.5715056 1.2857528 2.9143371 1.5428315.3428314.2572584.1713258.6000898-.1715057.8571685-.3428314.2572584-4.4571685 3.514427-4.8857528 3.8572584-.4285842.3428315-1.0284944.9427416-1.3715056.9427416-.3428314 0-1.0284944-.5999101-1.3713258-.9427416-.4285843-.3428314-4.5429214-3.6857528-4.8857888-3.8572584-.3428494-.2570787-.5142831-.5999101-.1714337-.8571685.3428674-.2570787 1.3714517-.7714158 2.9143191-1.5428315 1.2857348-.8571685 3.1713978-1.4570787 3.4286562-1.4570787zm0-23.4859685c.1713258 0 .9427416.08571686 2.0571685.42858427 1.2855731.42856629 2.5713259.94284944 3.2571686.94284944.6856629 0 5.314337-.94284944 5.314337-.94284944s5.485663 6.77146963 5.485663 8.22863823c0 1.4571505-.685663 1.8000719-1.3715057 2.5714876-.6856629.7714157-3.7713258 4.0285843-4.1141573 4.4571686-.4285842.4285842-1.2 1.0284943-.6858427 2.2284943.5143371 1.114427 1.2 2.6572585.4285843 4.1143371-.7714157 1.4572584-2.1429213 2.4857528-2.9999101 2.314427-.8571685-.1715056-2.9143371-1.2857528-3.6001798-1.7143371-.7714157-.5143371-3.0856629-2.4857528-3.0856629-3.2571685 0-.7714158 2.4-2.1429214 2.9143371-2.4.4285842-.3430113 2.4857528-1.5430113 2.5715056-1.9715955 0-.4284045 0-.5999102-.6000899-1.7999102s-1.7143371-2.7428314-1.5428315-3.7714696c.1713259-1.0285843 1.9714158-1.5428674 3.1714158-2.0571686 1.2857528-.5142831 3.6857528-1.3714337 3.9428314-1.5428674.3428315-.1714337.2572585-.2571505-.6856629-.3428674-.9429213-.0856989-3.5142472-.4285663-4.7142472-.0856989-1.2.3428495-3.1715955.8571506-3.3429213 1.1142832-.1715056.2571505-.3428315.2571505-.1715056 1.200018.1715056.9428674 1.0286741 5.4000179 1.1142472 6.1714337.0857528.7714157.2572584 1.2857528-.5999102 1.5428314-.8571685.1715056-2.2286741.5143371-2.7428314.5143371-.5143371 0-1.8858427-.3428315-2.7430113-.5143371-.8570786-.1713258-.6856449-.6856629-.599928-1.5428314.0857168-.7714158.9429393-5.2285663 1.1142651-6.1714337.1715056-.9428675 0-.9428675-.1713258-1.200018-.1715056-.2571326-2.1429573-.7714337-3.3429573-1.1142832-1.200018-.3428674-3.7714697 0-4.7143371.0856989-.94286742.0857169-1.0285663.2571506-.68571686.3428674.34286746.1714337 2.74288536 1.0285843 3.94288536 1.5428674 1.2857349.5143012 3.000036 1.0285843 3.1714697 2.0571686.1714157 1.0286382-.9428674 2.5714696-1.5428854 3.7714696-.6 1.2-.6 1.2857529-.6 1.7999102 0 .4285842 2.0571685 1.6285842 2.5714517 1.9715955.4285663.3428314 2.9142472 1.7141573 2.9142472 2.4 0 .7714157-2.3999641 2.7428314-3.0856809 3.2571685-.7714337.5141573-2.7428674 1.5428315-3.600018 1.7143371-.8571506.1713258-2.2286022-.8571686-3.0000359-2.314427-.77143376-1.4570786-.0857169-2.9999101.4285842-4.1143371.5142832-1.1142472-.3428674-1.7999101-.6857348-2.2284943-.4285663-.4285843-3.42858428-3.6857529-4.11430113-4.4571686-.68573484-.7714157-1.37145169-1.1143371-1.37145169-2.5714876 0-1.4571686 5.48575282-8.22863823 5.48575282-8.22863823s4.6286202.94284944 5.3143371.94284944c.6857168 0 1.9714517-.51428315 3.2572224-.94284944 1.1142472-.42858427 1.885663-.42858427 2.0571686-.42858427z" fill="#fff"/><path d="m32.7435506 5.13123596-4.285663-4.9714747h-7.5430112-7.5429034l-4.28575278 4.9714747s-3.77145168-1.02858427-5.57146966.7714337c0 0 5.05718652-.42858427 6.77148764 2.40001798 0 0 4.6286022.94286742 5.3143191.94286742s1.9714517-.51430113 3.2571506-.94286742c1.2857528-.42858427 2.0571685-.42858427 2.0571685-.42858427s.8571685 0 2.0571685.42858427c1.2857529.42856629 2.5715057.94286742 3.2571686.94286742s5.3143371-.94286742 5.3143371-.94286742c1.714337-2.82860225 6.7714157-2.40001798 6.7714157-2.40001798-1.7999101-1.88573483-5.5714157-.7714337-5.5714157-.7714337z" fill="url(#b)"/></g></g></svg>