<svg width="64" height="62" viewBox="0 0 64 62" fill="none" xmlns="http://www.w3.org/2000/svg">
<path d="M13.6272 46.3791C10.7318 46.3791 9.67591 48.4799 9.38201 49.2636C9.05546 48.4908 7.90165 46.3791 5.22393 46.3791C3.09046 46.3791 2.13258 47.5873 1.76249 48.5017V46.7165H0.336548V61.2372H1.77337V52.4638C1.77337 49.8296 3.15577 47.6309 5.23481 47.6309C7.2812 47.6309 8.59829 49.5249 8.59829 52.4638V61.2372H10.0787V52.4638C10.0787 49.4378 11.4066 47.6309 13.6272 47.6309C15.9239 47.6309 16.9907 49.1657 16.9907 52.4638V61.2372H18.471V52.4638C18.471 48.1969 17.0233 46.3791 13.6272 46.3791Z" fill="#17181A"/>
<path d="M26.3191 46.3791C22.6073 46.3791 20.5718 49.0133 20.5718 53.7809V53.8353C20.5718 58.8207 22.5093 61.2372 26.5041 61.2372C29.258 61.2372 30.6187 60.2684 31.5004 59.4194L31.5765 59.3432L30.6404 58.3744L30.5642 58.4397C29.8023 59.1146 28.79 59.7459 26.5477 59.7459C24.24 59.7459 22.1066 59.1037 22.0739 54.4558H31.8378L31.8487 54.3578C31.8704 54.1292 31.8704 54.053 31.8704 53.8027C31.8813 48.6758 30.1615 46.3791 26.3191 46.3791ZM22.0848 53.0516C22.1175 48.7411 24.3815 47.8268 26.2755 47.8268C29.171 47.8268 30.4119 49.3942 30.4336 53.0516H22.0848Z" fill="#17181A"/>
<path d="M43.7896 49.4922C43.4086 48.1969 41.6344 46.3791 39.3376 46.3791C36.6055 46.3791 33.6556 48.7085 33.6556 53.9115V53.9659C33.6556 58.3199 36.0503 61.2371 39.3376 61.2371C42.0589 61.2371 43.6154 59.1472 43.7896 58.2546V60.9106H45.2047V41.0998H43.7896V49.4922ZM43.8549 53.9442C43.8549 57.5362 41.5691 59.7568 39.4465 59.7568C37.03 59.7568 35.2122 57.2423 35.2122 53.9224V53.868C35.2122 50.3739 36.9973 47.8268 39.4465 47.8268C41.5799 47.8268 43.8549 50.265 43.8549 53.8897V53.9442Z" fill="#17181A"/>
<path d="M50.5165 48.371H49.0361V61.2371H50.5165V48.371Z" fill="#17181A"/>
<path d="M62.6752 47.8812C61.7936 46.8363 60.4656 46.2811 58.8219 46.2811C57.015 46.2811 55.6435 46.9016 54.5332 47.522L54.457 47.5656L54.9469 48.9697L55.0557 48.9044C56.3184 48.1316 57.494 47.7833 58.7457 47.7833C61.2166 47.7833 62.5773 49.2854 62.5773 52.0175V53.0081H58.724C55.2408 53.0081 53.8148 54.3034 53.8148 57.0682V57.1226C53.8148 59.7459 55.3823 61.2481 58.1144 61.2481C60.4873 61.2481 61.8806 59.833 62.5773 58.7989V60.9106H63.9052V51.9631C63.9161 50.2106 63.5025 48.8718 62.6752 47.8812ZM62.599 55.4899C62.599 57.9172 60.705 59.7568 58.1797 59.7568C56.1986 59.7568 55.2299 58.8642 55.2299 57.0355V56.9811C55.2299 55.1633 56.0245 54.434 58.6478 54.434H62.599V55.4899Z" fill="#17181A"/>
<path d="M49.7764 46.0852C50.3535 46.0852 50.8214 45.6173 50.8214 45.0402C50.8214 44.4631 50.3535 43.9953 49.7764 43.9953C49.1993 43.9953 48.7314 44.4631 48.7314 45.0402C48.7314 45.6173 49.1993 46.0852 49.7764 46.0852Z" fill="#17181A"/>
<path d="M14.8354 31.6516C14.6068 31.6516 14.2802 31.8149 13.834 32.1632C13.4421 32.468 12.8434 32.7837 12.0706 33.0885C11.3086 33.3932 10.3616 33.5565 9.28402 33.5565C7.16143 33.5565 5.51779 32.9905 4.4184 31.8693C3.31902 30.7482 2.75299 29.159 2.75299 27.1235V21.7136C2.75299 19.7107 3.31902 18.1215 4.44018 16.9895C5.56133 15.8574 7.17232 15.2805 9.22959 15.2805C10.2419 15.2805 11.1345 15.4329 11.8747 15.7486C12.6148 16.0534 13.1809 16.3582 13.5727 16.6521C14.019 16.9895 14.302 17.131 14.5088 17.131C14.8354 17.131 15.1293 16.9895 15.3905 16.7282C15.6409 16.4561 15.7715 16.1622 15.7715 15.8357C15.7715 15.1281 15.1402 14.4533 13.834 13.7675C12.5822 13.1144 11.0256 12.777 9.20782 12.777C6.22532 12.777 3.95035 13.6151 2.41556 15.2697C0.869883 16.9024 0.0970459 19.0794 0.0970459 21.7027V27.1126C0.0970459 29.7685 0.880768 31.9455 2.41556 33.5783C3.96123 35.2219 6.23621 36.0492 9.17517 36.0492C11.0909 36.0492 12.7128 35.7117 14.019 35.0586C15.3687 34.3729 16.0327 33.6762 16.0327 32.9469C16.0327 32.6204 15.913 32.3265 15.6844 32.0544C15.4558 31.7822 15.1619 31.6516 14.8354 31.6516Z" fill="#17181A"/>
<path d="M26.2212 12.7552C24.7518 12.7552 23.3367 12.9947 22.0087 13.4519C20.6046 13.9417 19.9297 14.4859 19.9297 15.1064C19.9297 15.4221 20.0385 15.7377 20.2454 16.0534C20.4631 16.3908 20.7678 16.5541 21.1379 16.5541C21.1815 16.5541 21.225 16.5541 22.8142 15.8792C23.8374 15.4438 24.9477 15.2261 26.1233 15.2261C28.0499 15.2261 29.5194 15.901 30.4773 17.2181C31.4461 18.5569 31.9468 20.1788 31.9468 22.0402V23.1069H29.5521C25.9382 23.1069 23.1408 23.5858 21.2468 24.5219C19.3092 25.4798 18.3296 27.1997 18.3296 29.627C18.3296 31.7278 18.9609 33.3388 20.2127 34.4273C21.4536 35.5049 23.0755 36.0601 25.0457 36.0601C27.6145 36.0601 29.9548 34.9389 32.0012 32.7184V34.5688C32.0012 34.8954 32.1318 35.1893 32.3822 35.4287C32.6325 35.6682 32.9482 35.7771 33.2965 35.7771C33.6557 35.7771 33.9605 35.6573 34.2109 35.4287C34.4612 35.1893 34.5918 34.8954 34.5918 34.5688V22.0293C34.5918 19.3733 33.9061 17.1528 32.5672 15.4003C31.2066 13.6478 29.0731 12.7552 26.2212 12.7552ZM31.9359 28.68C31.9359 29.725 31.2284 30.8353 29.8351 31.9455C28.4309 33.0667 26.9288 33.6436 25.3613 33.6436C24.0442 33.6436 22.9775 33.2953 22.172 32.6204C21.3774 31.9455 20.9747 30.9115 20.9747 29.5399C20.9747 28.6365 21.2032 27.8745 21.6495 27.2976C22.1067 26.7098 22.7707 26.2853 23.6524 26.0241C24.5449 25.7628 25.4702 25.5778 26.3736 25.4798C27.2771 25.3819 28.42 25.3383 29.7698 25.3383H31.9359V28.68Z" fill="#17181A"/>
<path d="M44.8564 12.9076H41.6235V9.42439C41.6562 7.76986 42.2657 6.31127 43.4304 5.09214C44.5951 3.8839 46.0537 3.27434 47.7736 3.27434H47.7409C48.1001 3.27434 48.394 3.16549 48.6335 2.94779C48.8729 2.73009 48.9927 2.42531 48.9927 2.0661C48.9927 1.7069 48.8729 1.40211 48.6335 1.15176C48.394 0.901403 48.0892 0.770782 47.73 0.770782H47.5667C45.2591 0.770782 43.2236 1.65247 41.5147 3.38319C39.8166 5.11391 38.9893 7.18207 38.9893 9.52235V12.9185H37.6831C37.03 12.8532 36.4422 13.3321 36.3769 13.9852C36.3334 14.3988 36.5184 14.8125 36.8559 15.0628C37.03 15.1935 37.2368 15.2914 37.4654 15.3132H38.9893V36.0927C38.9893 38.0194 38.4233 39.2385 37.2042 40.4576L36.7688 40.893C36.5184 41.1434 36.3769 41.4373 36.366 41.7638C36.3552 42.0904 36.4749 42.3843 36.7252 42.6455C36.9756 42.8959 37.2804 43.0374 37.6287 43.0483H37.6722C37.9988 43.0483 38.2927 42.9285 38.5322 42.6782L39.0982 42.1121C40.6765 40.5338 41.5909 39.0208 41.5909 35.9839V15.3023H44.606C45.2591 15.3676 45.8469 14.8887 45.9122 14.2247C46.0102 13.5934 45.5421 12.9729 44.8564 12.9076Z" fill="#17181A"/>
<path d="M59.5403 25.4036C60.1934 25.4036 60.7159 25.3819 61.086 25.3274C61.467 25.2839 61.8915 25.1424 62.3378 24.9138C62.8167 24.6743 63.165 24.2716 63.3827 23.7165C63.5895 23.1831 63.6984 22.4756 63.6984 21.6048C63.6984 19.1447 62.8276 17.0657 61.1186 15.4003C59.4097 13.7458 57.3524 12.8967 55.0012 12.8967C52.5848 12.8967 50.484 13.7566 48.7532 15.4438C47.0334 17.1419 46.1626 19.1883 46.1626 21.5503V27.167C46.1626 29.8121 47.0987 31.9782 48.9492 33.611C50.7996 35.2328 53.2161 36.0601 56.1333 36.0601C58.0599 36.0601 59.7036 35.7226 61.0207 35.0478C62.3922 34.3511 63.0562 33.6871 63.0562 33.0123C63.0562 32.7184 62.9364 32.4245 62.6861 32.1524C62.4357 31.8585 62.1527 31.717 61.8262 31.717C61.5649 31.717 61.2384 31.8802 60.7812 32.2286C60.3893 32.5333 59.8015 32.8381 59.0287 33.1538C58.2668 33.4586 57.3198 33.611 56.2204 33.611C54.0325 33.611 52.2256 33.0232 50.854 31.8585C49.4825 30.7046 48.7859 29.1481 48.7859 27.2214V21.3762C48.7859 19.7325 49.3955 18.2957 50.6037 17.1092C51.801 15.9228 53.2814 15.3132 54.9904 15.3132C56.7537 15.3132 58.2341 15.9663 59.3988 17.2399C60.5635 18.5243 61.1513 19.9938 61.1513 21.6048C61.1513 22.2361 60.9989 22.6497 60.705 22.8348C60.4873 22.9763 59.9539 23.1395 58.6695 23.1395H51.3112C50.7234 23.1395 50.2336 23.662 50.2445 24.2716C50.2445 24.7723 50.5819 25.2186 51.0391 25.3492L51.0173 25.3927H59.5403V25.4036Z" fill="#17181A"/>
</svg>
