<svg height="100" viewBox="0 0 260 100" width="260" xmlns="http://www.w3.org/2000/svg"><g fill="none" fill-rule="evenodd"><path d="m0 0h260v100h-260z" fill="#f8f8f8"/><g transform="translate(87 10)"><g transform="translate(70.339892 .12627)"><path d="m0 5.89578378h5.89621622v-5.89578378h-5.89621622z" fill="#a0c45d"/><path d="m.00043243 11.7932973h5.89621622v-5.89578379h-5.89621622z" fill="#54b7bf"/><path d="m5.89664865 5.89578378h5.89621625v-5.89578378h-5.89621625z" fill="#54b7bf"/><path d="m5.89664865 11.7932973h5.89621625v-5.89578379h-5.89621625z" fill="#91cdcf"/></g><path d="m13.1394595 64.0490811c.9336216-1.8815135 2.310054-3.1965406 4.4112432-3.4603243 4.3961081-.5517838 6.784 1.3184864 7.312 5.2043243.3511351 2.5837838.1232432 5.1775135.1747027 7.7656216.0367568 1.8356757-.0393513 3.6743784.0285405 5.5078919.0311352.8484324-.4108108.8203243-.9924324.8108108-.5574054-.0095135-1.0218378.0791351-1.0088649-.7930811.0510271-3.5277838.0177298-7.0564324.022919-10.5846486.0021621-1.1576216-.0942703-2.3022703-.4272433-3.4140541-.4726486-1.5775135-1.4412973-2.6525405-3.139027-2.8778378-1.8611892-.2469189-3.4283243.262054-4.4618378 1.9385946-.8220541 1.334054-1.0265946 2.8255135-1.030919 4.3541621-.009081 3.456-.0294054 6.9128649.0164325 10.3684325.0108108.8017297-.1855135 1.0278919-1.0058379 1.0348108-.8536216.0073513-.9971892-.2841081-.9885405-1.0564324.0402162-3.5277838.0237838-7.056.0147027-10.5846487-.0034595-1.4214054-.2460541-2.7978378-.972973-4.0441081-1.54335133-2.6460541-4.81340538-2.8086487-6.61275673-.3247568-.96389189 1.3305946-1.31589189 2.854919-1.3145946 4.4778379.00345946 3.4923243-.02162162 6.9850811.01816217 10.4769729.00908108.7692973-.13405406 1.0482163-.98551352 1.0585946-.89210811.0108109-.96518919-.3411891-.96183959-1.0745946.02648824-5.6164324.02173148-11.2328648.00529905-16.8492972-.00216216-.6758919-.01643243-1.1052973.92281081-1.1083244.94313514-.003027 1.08843243.3671352 1.01145946 1.1342703-.02248649.224-.10508108.4908108.10118919.7014054 2.32475676-3.2531892 7.44389186-3.1078919 9.86291896 1.3383784zm53.9646702-.1411027c-.0389189 5.0425946-.0432432 10.086054.0017298 15.1282162.0086486.9219459-.4700541.8315676-1.0711352.844973-.6205405.0142702-.9837838-.0367568-.9656216-.844973.0562162-2.5197838.0207568-5.0421622.0203243-7.5636757 0-2.5215135.0432433-5.0443243-.0224865-7.5636757-.0237837-.9344864.4860541-.8185946 1.0767568-.8397837.6218378-.0220541.9669189.0393513.9604324.8389189zm-7.96-10.3337946c.7282162.0181621.9811892.1677838.978189.9517838-.0289998 7.9922162-.0272701 15.984-.002189 23.9757838.0025946.7368648-.1677838.9846486-.9431351.9811891-.7580541-.003027-1.0257297-.2123243-.9474595-.9695135.0618379-.5924324.0125406-1.1961081.0125406-1.795027-3.2432433 4.688-9.9394595 4.0709189-12.2508108-1.2415135-1.4810811-3.4032433-1.4525406-6.8851892-.0912433-10.2953514 2.0237838-5.072 8.4497298-6.8224865 12.1984865-1.2652973.2278919-.2525405.1362162-.5461621.1370811-.8025946.0082162-2.8436756.0263784-5.6877837-.0082162-8.5314594-.0086487-.7022703.099027-1.0287568.9167567-1.008zm-19.7593946 7.8911567c2.2490811 1.3976217 2.8294054 3.7085406 3.1117838 6.1124325.1288649 1.0957838.5868108 2.4735135-.0549189 3.2462702-.5660541.6810811-1.9589189.1651892-2.9846486.2041082-1.113946.0415135-2.2304865.0095135-3.3461622.0095135-1.8711351.0004324-3.7422703.0216216-5.6125406-.0125406-.5734054-.0103784-.7481081.1621622-.7057297.7290811.0808649 1.0806487.2231352 2.1422703.608 3.161946.6313514 1.670054 1.8434595 2.6278918 3.6004325 2.8557837 2.3342702.3035676 4.6058378.2131892 6.5764324-1.318054.8108108-.6304865.9154594.3407567 1.3111351.5945946.496.3178378.0972973.592-.1725405.8211892-2.0908108 1.7755675-4.579027 2.2036756-7.1891892 1.9385946-3.9835676-.4038919-6.0540541-2.630919-6.5963243-7.1091892-.2988108-2.4709189-.2758919-4.9574054.5569729-7.3621622 1.5455136-4.4618378 6.8761081-6.371027 10.8972973-3.8715676zm41.4555676-.5548108c2.6936216 1.0542703 3.6851892 3.3634595 3.7673514 6.0263784.1219459 3.9537297.0324324 7.913946.0661621 11.8711351.0056216.6901622-.390054.6603244-.8332973.6227027-.4069189-.0345945-1.011027.2447568-.9738378-.5794594.0255135-.5721081.0047567-1.1455135.0047567-2.0730811-1.7245405 2.1370811-3.6518919 3.1433514-6.0808648 3.0923243-4.4557838-.0934054-6.9781622-4.518054-4.764973-8.4129729 1.0335135-1.817946 2.8514595-2.208 4.723027-2.3083244 1.7582703-.0938378 3.5256216-.0648648 5.2877838-.0259459.665946.0142703.9353514-.1816216.8389189-.8458379-.0255135-.1764324-.0012973-.3593513-.0043243-.5392432-.0691892-4.0873513-2.6330811-6.1145946-6.646054-5.2505946-.9184865.1976216-1.7794595.5478919-2.6222703.9634595-.2382703.1176216-.6425946.6832432-.8302703.0402162-.1535135-.524973-.9859459-1.1896216-.1184865-1.6678919 2.5846487-1.424 5.3340541-2.0294054 8.1863784-.9128649zm1.4737297 10.0890811c-.9721081.0220541-1.945081.0064865-3.1316756.0064865-1.0425946.0467027-2.310919-.1141622-3.5545946.1742703-1.6678919.387027-2.3225946 1.2246486-2.3602163 2.9885405-.0406486 1.9450811.7381622 3.1433514 2.3165406 3.5610811 4.0069189 1.0607567 7.6497297-1.9770811 7.3552432-6.1094054-.0328648-.4674595-.1643243-.6313514-.6252973-.620973zm-33.3826594-6.849427c-2.5081081 2.9344865-2.5868108 8.7991351-.1587027 11.8054054 1.9472432 2.4099459 4.928 2.6114594 7.1723243.4622703 1.7202162-1.6462703 2.3148108-3.7496217 2.3792432-5.6756757.012973-3.0949189-.9902702-5.5749189-2.7065946-7.0711352-2.1336216-1.8603243-4.8527567-1.6652972-6.6862702.4791352zm-19.1405838 4.3417513c.0043243.5228108.1444324.6750271.6585946.665946 1.5831351-.0281081 3.1667027-.009946 4.7502703-.0077838h3.5628108c2.1561081 0 2.1712432-.0025946 1.8006486-2.1842162-.3502703-2.067027-1.164973-3.7872433-3.4335135-4.3584865-4.1976216-1.0568649-7.3734054 1.4996757-7.3388108 5.8845405zm36.3270919-11.0709189c.8631351.0090811 1.2648648.5366487 1.3457297 1.2977297-.0899459.905946-.550054 1.3902703-1.3937297 1.3772973-.848-.0134054-1.3396757-.521081-1.3236757-1.3621621.0164324-.8384865.5202162-1.321946 1.3716757-1.3128649zm-2.269146-57.42019458c1.2670271.01816216 2.0255135.65989189 2.0386535 1.72410811.0123736 1.02616216-.6816805 1.61427027-1.9573562 1.65794595-4.809081.16475675-8.1837838 3.66529729-8.1889729 8.49513512-.0008649 1.1165406.0449729 2.2352433-.0155676 3.3478919-.0397838.7290811.1288649 1.0287568.9258378.9725405 1.0391352-.0739459 2.0882162-.0354594 3.1321081-.0129729 1.0547027.022054 1.7785946.7195675 1.7548108 1.6428108-.0224864.8882162-.7178378 1.5351351-1.7275675 1.5563243-1.0438919.0211892-2.0916757.0501622-3.1316757-.0155676-.7498378-.0475675-.9634595.1708108-.956973.9396757.0384865 4.6084324.0190271 9.2177297.0190271 13.8265946 0 4.140973-.0730811 8.2832433.0216216 12.4220541.0851892 3.7193513-1.2514595 6.7243243-4.0393514 9.1372973-.8730811.7554594-1.8616216.7762162-2.5859459.0012973-.6646487-.7104865-.6663784-1.6190271.1971892-2.3770811 2.2434594-1.9697298 2.9258378-4.4566487 2.9029189-7.3513514-.0661622-8.4972973-.0384865-16.9954594-.0008649-25.4927567.0034595-.9154595-.2529729-1.2311352-1.1364324-1.0975135-.3165405.0475675-.6538378.0454054-.969946-.0073514-.9003243-.1504865-1.4434594-.7130811-1.4326486-1.6172973.0108108-.9068108.5716757-1.4538378 1.4789189-1.571027.6352433-.0821622 1.5001081.291027 1.8676757-.1362162.470054-.5465946.1336216-1.4464865.1638919-2.1924325.0549189-1.3301621-.0441081-2.6771892.128-3.99005402.7269189-5.52475676 5.9269189-9.94248649 11.5126486-9.86205406zm10.894746 16.20812978c6.6374054.6123243 11.526054 6.742054 10.4614054 13.1187027-.3766487 2.2538378-1.539027 3.3509189-3.8676757 3.4387027-2.0856216.0791351-4.1768649.0168648-6.2655135.0168648v.0315676c-1.980973 0-3.9619459.003027-5.9429189-.0012973-1.1476757-.0025946-1.8508108-.5612973-1.8737298-1.4724324-.0237837-.9491892.7048649-1.5537298 1.9156757-1.5563244 3.1338379-.0069189 6.2672433-.0008648 9.4006487-.0025946 3.2501621-.0021621 3.8136216-.7152432 3.0966486-3.9109189-.8246486-3.6735135-4.1197838-6.4099459-7.7945946-6.4726486-3.9407567-.0674595-7.3444324 2.4389189-8.2936216 6.1076756-.1911351.7372973-.2417297 1.4897298-.2412973 2.2477838 0 2.3048649.064 4.6118919-.0125405 6.9141622-.1911352 5.7526486 3.9403243 8.3524324 7.875027 8.9111351 3.0607568.4341622 5.9481081.0038919 8.5124324-1.8996756.9305946-.6905946 1.6363244-.5907027 2.2797838.1634594.6715676.7874595.6387027 1.5865946-.1677838 2.3956757-.9331892.9362162-2.0877838 1.548973-3.3288648 1.9407567-3.9463784 1.2462703-7.9031352 1.2501622-11.7167568-.4103783-4.5621622-1.9870271-6.9587027-5.5282162-6.9876757-10.5660541-.0151351-2.6646486-.0384865-5.3301621.0056217-7.9943784.1055135-6.4207567 6.2417297-11.6181621 12.9457297-10.9997837zm-55.867546 1.3258378c.6594595.3762162 1.2998919.7896216 1.7535135 1.414054.5526487.7597838.5842163 1.5364325-.067027 2.2637838-.6758919.7554595-1.4131892.7325406-2.1976216.1461622-2.5902703-1.9364324-5.4936216-2.3891892-8.60583784-1.7582703-3.2172973.6521081-5.44691892 2.8047568-5.904 6.08-.51805405 3.7154595-.46010811 7.4918919-.07091892 11.2047568.42464865 4.0441081 3.03264865 6.2970811 7.11048646 6.6975135 2.8181622.2767567 5.4412973-.2330811 7.7747027-1.9407568.9591352-.7022702 1.6804325-.6542702 2.2931892.0501622.6218379.7143784.6248649 1.6730811-.0717838 2.4484324-1.0707027 1.1917838-2.4903783 1.8296216-3.9891892 2.256-2.8981621.8242162-5.8395675.8674595-8.75675671.1431352-4.944-1.2272433-7.91178378-5.238919-8.11459459-10.8981622-.0505946-1.4023784-.00778379-2.8086486-.00778379-4.2131892.00331532-.3536576.00110511-.7076396-.00298899-1.0617477l-.01429229-1.0625045c-.01688088-1.4166487-.00563764-2.8321442.2667948-4.2338018 1.07978378-5.5567568 4.92237838-8.7697298 10.87827027-9.078919 2.6979459-.1401081 5.3228108.1725406 7.7258378 1.5433514zm19.1897514-1.2797838c4.2966486.8994595 7.0988108 4.0263784 7.9429189 8.761946.1842162 1.0322162.2771892 2.070054.2784865 3.1139459.0082162 5.5083243.0090811 11.0166486.003027 16.524973-.0017297 1.1909189-.5522162 1.8650811-1.5459459 1.9675675-1.0668108.1102703-1.9074595-.5928648-1.9507027-1.6678919-.0285406-.7027027-.0051892-1.4071351-.0051892-2.2564324-.7766487.6646487-1.3937297 1.251027-2.0683243 1.7608649-3.2955676 2.4882162-6.937946 3.2467027-10.896 1.9714594-3.5091892-1.1303783-5.3483244-3.8957837-5.3738379-7.8547027-.0246486-3.8114594 1.6073514-6.2002162 5.1684325-7.4707027 3.0931891-1.1031351 6.3187027-1.3388108 9.5714594-1.3487567.9721081-.0025946 1.9442162-.0151352 2.9158919.006054.4488649.009946.6365405-.1210811.6408649-.6075675.022054-2.1915676-.2750271-4.3052973-1.3656217-6.2503784-1.6869189-3.0084324-4.7282162-4.2071352-8.6624864-3.4317838-1.2825946.2525405-2.460973.7861622-3.6592433 1.2730811-1.1031351.4484324-1.6851892.2789189-2.1664865-.6192433-.5089729-.9517837-.3416216-1.6903783.608-2.3143783 1.2527568-.8237838 2.6771892-1.2051892 4.1301622-1.5005406 2.1422703-.4354594 4.2944865-.5055135 6.4345946-.0575135zm-6.5535135 17.4222703c-2.3083244.7221621-3.4486487 2.2512432-3.4599838 4.6209729-.0120162 2.6624865 1.1732811 4.2892973 3.4496054 5.1347028 4.4834595 1.6648648 12.4389189-2.7096217 11.235027-8.1314595l-.0043563-1.2961762c.0007047-.2159439.0032032-.4318238.0091131-.6476076.0103784-.3796757-.0674595-.6097297-.5193514-.6071351-3.5956756.0203243-7.2086486-.1690811-10.710054.9267027z" fill="#121214"/></g></g></svg>