<svg height="100" viewBox="0 0 260 100" width="260" xmlns="http://www.w3.org/2000/svg"><g fill="none" fill-rule="evenodd"><path d="m0 0h260v100h-260z" fill="#fff"/><g fill-rule="nonzero" transform="translate(50 29)"><path d="m31.1131685 36.2081798h9.1757304v-11.3695281h2.712809l6.6283146 11.3695281h10.6146517l-8.067236-13.1151461c3.8214831-1.9814831 6.4868315-5.9678562 6.4868315-10.6147775 0-6.6283326-5.4017079-11.9828998-11.9829214-11.9828998h-15.5681798v4.64691776c-3.3733033-3.16084495-7.8078202-5.14227416-12.7613483-5.14227416-10.09589211 0-18.3518202 8.16158202-18.3518202 18.3518202 0 10.1902023 8.25592809 18.3753708 18.3753708 18.3753708 4.9535281 0 9.3882247-1.9814831 12.7613483-5.1422921v4.6232809zm-6.2274157-11.3695281c-1.6747865 1.6746067-3.9865168 2.7126292-6.5339326 2.7126292-5.047964 0-9.17594604-4.128-9.17594604-9.1759101 0-5.0479281 4.12798204-9.17589215 9.17594604-9.17589215 2.5474158 0 4.8355955 1.01429215 6.5339326 2.71266515l6.2274157-6.2273438v25.3810876zm15.4031461-8.0201348v-8.30310117h5.000809c2.288 0 4.1751011 1.88706517 4.1751011 4.17513707s-1.8871011 4.1279641-4.1751011 4.1279641z" fill="#00ae4d"/><g fill="#000" transform="translate(64.719101)"><path d="m63.3894831 33.8489888-.6840449.9434606c1.0378427.9199102 2.4296629 1.5333034 4.222382 1.5333034 2.099236 0 3.7740225-1.1322247 3.7740225-3.1372584 0-1.5804045-.778427-2.2644495-3.255191-3.1137079l-.9434607-.3302472c-1.3918202-.4717303-2.1465168-.9199101-2.1465168-1.9577528 0-1.2738876 1.1793258-1.7691685 2.288-1.7691685 1.0378427 0 2.1700674.5661123 2.9722247 1.2737078l.731146-.9907415c-1.0378427-.8490787-2.1937977-1.3445394-3.7033707-1.3445394-1.9106517 0-3.4675057 1.0142922-3.4675057 2.9013933 0 1.4389214.872809 2.3588315 2.9722248 3.0901573l1.0613932.3773483c1.5804045.5661124 2.3117304.872809 2.3117304 1.8635506 0 1.4389213-1.2501573 2.0756854-2.5946967 2.0756854-1.3918202 0-2.6419775-.5896629-3.5383371-1.415191z"/><path d="m61.9764494 35.5940674-.3302472-.967191c-.6604943.4010787-1.2974382.5896629-2.0758651.5896629-1.0849438 0-1.6039551-.6603146-1.6039551-1.8398202v-7.194427h3.9156854v-1.1322247h-3.9156854v-3.8685843h-1.2266067v12.195236c0 1.8398202.9199101 2.9484944 2.7599101 2.9484944.9199101 0 1.7218876-.2594157 2.476764-.7311461z"/><path d="m51.0520449 36.2076404v-6.5810337c.2594158-2.476764 2.3352809-3.6798202 4.4345169-3.3968539v-1.2501573c-1.8633708-.2829663-3.5854382.6604944-4.4345169 2.2881798l-.0235505-2.2173483h-1.1795056v11.1809438h1.2030561z"/><path d="m42.7511011 24.9332135c-3.1372584 0-5.6846741 2.5711461-5.6846741 5.7084045s2.5474157 5.7084045 5.6846741 5.7084045c3.1372585 0 5.7084045-2.5711461 5.7084045-5.7084045 0-3.160809-2.5474157-5.7084045-5.7084045-5.7084045zm0 10.1902022c-2.476764 0-4.4817977-2.0285842-4.4817977-4.5053483 0-2.476764 2.0050337-4.5053483 4.4817977-4.5053483 2.5004944 0 4.5055281 2.0285843 4.5055281 4.5053483 0 2.4767641-2.0050337 4.5053483-4.5055281 4.5053483z"/><path d="m30.3180225 24.9332135c-1.8633708 0-3.4910562 1.0142921-4.4345169 2.5948764v-2.4769438h-1.2030562v15.7100224h1.2030562v-7.0293932c.9434607 1.5804045 2.6182472 2.6182472 4.5053483 2.6182472 3.0428764 0 5.5669214-2.5711461 5.5669214-5.7084045 0-3.160809-2.5475955-5.7084045-5.6377528-5.7084045zm0 10.1902022c-2.4530337 0-4.4345169-2.0285842-4.4345169-4.5053483 0-2.476764 1.9814832-4.5053483 4.4345169-4.5053483 2.4532135 0 4.4346966 2.0285843 4.4346966 4.5053483 0 2.4767641-1.9814831 4.5053483-4.4346966 4.5053483z"/><path d="m23.3137978 30.1463371c0-3.1137079-2.288-5.2131236-5.1185618-5.2131236-2.9013933 0-5.3546068 2.3117303-5.3546068 5.6613034 0 3.3022921 2.5711461 5.7555056 5.5667416 5.7555056 1.7927191 0 3.3260225-.7548764 4.4111461-2.1229663l-.872809-.7311461c-.8255281 1.1086742-2.0521349 1.6983371-3.5383371 1.6983371-2.3115506 0-4.1751011-1.7927191-4.3401348-4.2694832h9.2465618zm-9.2230113-.3302472c.3302472-2.2644495 2.0285843-3.7742023 4.0807191-3.7742023 2.0523146 0 3.7506517 1.5097528 3.8921348 3.7742023z"/><path d="m8.26301124 29.4376629c2.73617976-.4246292 4.36386516-2.4061123 4.36386516-4.7176629 0-2.7599101-1.8871011-4.7884944-5.33105618-4.7884944h-5.44898876v16.2996854h1.27388764v-6.6991461h3.63253933l4.59973037 6.6991461h1.5568539zm-5.14229214-1.1322247v-7.1708764h4.15155056c2.57114607 0 4.05716854 1.4389213 4.05716854 3.5854382 0 1.9106517-1.2974382 3.5854382-4.10444944 3.5854382z"/><path d="m90.8465618 16.8186607v-6.5811596c.2595955-2.476782 2.3352809-3.67978425 4.4346966-3.39672807v-1.25019325c-1.8635505-.28305618-3.5854382.6604764-4.4346966 2.28808988l-.0235506-2.21731236h-1.1793258v11.1808899h1.2028764z"/><path d="m88.2524045 10.7572674c0-3.11365392-2.288-5.21303369-5.1187416-5.21303369-2.9013932 0-5.3546067 2.3116764-5.3546067 5.66121349 0 3.302382 2.571146 5.7555775 5.5669213 5.7555775 1.7927191 0 3.3260225-.7548404 4.4109663-2.1229663l-.8726292-.7312359c-.8257079 1.1086562-2.0523146 1.698373-3.5383371 1.698373-2.3117303 0-4.1751011-1.7927191-4.3403146-4.2695011h9.2467416zm-9.2230112-.3302292c.3302471-2.26448539 2.0285842-3.77414831 4.0807191-3.77414831 2.0521348 0 3.7504719 1.50966292 3.8921348 3.77414831z"/><path d="m60.9851685 11.1572854c.0471012-2.94854832 1.5331236-4.50538428 3.6089888-4.50538428 1.7454382 0 2.9013933 1.10865618 2.8776629 3.11367191v7.05292587h1.2030562v-5.6612135c.0472809-2.94854832 1.5333034-4.50538428 3.6089888-4.50538428 1.7456179 0 2.9013932 1.10865618 2.8778427 3.11367191v7.05292587h1.2030561v-7.1000989c.0235506-2.6183191-1.4389213-4.19874157-3.9629662-4.19874157-1.7927191 0-3.3022922 1.06148314-3.9627866 2.66549213-.4952809-1.65118202-1.8398202-2.66549213-3.7504719-2.66549213-1.6512359 0-3.0901573.94353258-3.7506517 2.35884944v-2.24089888h-1.2030561v11.18088991h1.2030561v-5.6612135z"/><path d="m56.7626067 16.819182h1.2030562v-11.15732133h-1.2030562v5.68480003c-.0472809 2.9485483-1.6747865 4.5053842-3.9392359 4.5053842-1.7927191 0-2.9722247-1.1086561-2.9722247-3.1136539v-7.07653033h-1.2030562v7.10011683c0 2.6183012 1.4862022 4.1987236 4.0573483 4.1987236 1.8398202 0 3.3966742-.9907056 4.0807191-2.476782v2.3352629z"/><path d="m39.9449888 14.4598831-.684045.9435326c1.0378427.9199461 2.4294832 1.5332495 4.2222023 1.5332495 2.0994157 0 3.7742022-1.1322427 3.7742022-3.1372585 0-1.5804224-.778427-2.2644854-3.255191-3.1136539l-.9434607-.3302472c-1.3918202-.47176627-2.1466966-.91994605-2.1466966-1.95784268 0-1.2737618 1.1795056-1.76911461 2.2881798-1.76911461 1.0378427 0 2.1700674.56611236 2.9720449 1.2737618l.7313259-.99070562c-1.0378427-.84918651-2.1937978-1.34453932-3.7033708-1.34453932-1.9106517 0-3.4675056 1.01429213-3.4675056 2.90137528 0 1.43888539.8728089 2.35883145 2.9720449 3.09006745l1.061573.3774202c1.5804045.5661303 2.3115506.872773 2.3115506 1.8634786 0 1.4389034-1.2501573 2.0757753-2.5946966 2.0757753-1.3916405 0-2.6417978-.5896989-3.5381573-1.4152989z"/><path d="m29.8959101 11.1572854c.0471011-2.94854832 1.6747865-4.50538428 3.939236-4.50538428 1.7927191 0 2.9720449 1.10865618 2.9720449 3.11367191v7.05292587h1.2030562v-7.1000989c0-2.6183191-1.4860225-4.19874157-4.0571685-4.19874157-1.84 0-3.396854.99072359-4.0808989 2.47678202v-2.35883146h-1.2028764v11.18088991h1.2028764v-5.6612135z"/><path d="m21.6152809 5.54423371c-3.1372584 0-5.6848539 2.57114607-5.6848539 5.70840449 0 3.1372405 2.5475955 5.7083865 5.6848539 5.7083865s5.7084045-2.571146 5.7084045-5.7083865c0-3.13725842-2.5711461-5.70840449-5.7084045-5.70840449zm0 10.19018429c-2.476764 0-4.4817978-2.0286023-4.4817978-4.5053663 0-2.47678204 2.0050338-4.50538428 4.4817978-4.50538428 2.5003146 0 4.5053483 2.02860224 4.5053483 4.50538428 0 2.476764-2.0050337 4.5053663-4.5053483 4.5053663z"/><path d="m14.0906067 12.9495191c-1.2737078 1.6512-3.2787415 2.6890787-5.51964041 2.6890787-3.82130337 0-6.9585618-3.113672-6.9585618-6.95856184 0-3.82132135 3.13725843-6.93499147 6.9585618-6.93499147 2.26444941 0 4.24593261 1.01430832 5.51964041 2.71266338l.9671911-.94353259c-1.5333034-1.86348584-3.8921349-3.06649348-6.48683151-3.06649348-4.55262921 0-8.27955056 3.72696989-8.27955056 8.25594067 0 4.55255733 3.72692135 8.27951463 8.27955056 8.27951463 2.61824721 0 4.92997751-1.2030023 6.43955061-3.0900674z"/><path d="m70.2768539 21.984h-.6842247v-.1652135h1.5333034v.1652135h-.684045v2.0050337h-.1650337z"/><path d="m73.6041348 21.8187865v2.1702472h-.1650337v-1.84l-.8019775 1.3680899h-.1181124l-.8019775-1.3680899v1.84h-.1650337v-2.1702472h.1650337l.872809 1.5097528.872809-1.5097528z"/></g></g></g></svg>