<?xml version="1.0" encoding="utf-8"?>
<!-- Generator: Adobe Illustrator 28.2.0, SVG Export Plug-In . SVG Version: 6.00 Build 0)  -->
<svg version="1.1" id="Layer_1" xmlns="http://www.w3.org/2000/svg" xmlns:xlink="http://www.w3.org/1999/xlink" x="0px" y="0px"
	 viewBox="0 0 1020 240" style="enable-background:new 0 0 1020 240;" xml:space="preserve">
<style type="text/css">
	.st0{fill:#1C1B11;}
</style>
<path class="st0" d="M483.1,107.2h-0.4c-1.8-4.1-10.3-11.3-23.4-11.3c-17.1,0-35.3,12.7-35.3,38.1s18.2,38.1,35.3,38.1
	c13.1,0,21.6-7.2,23.4-11.3h0.4v9.9H502V97.3h-18.9V107.2z M463.1,155.1c-10.6,0-20.5-7.5-20.5-21.2c0-13.7,9.9-21.2,20.5-21.2
	c10.6,0,20.5,7.3,20.5,21.2C483.6,147.8,473.7,155.1,463.1,155.1z M367.8,70.5h-36.3v100.2h36.3c27.6,0,48.4-20.6,48.4-50.1
	C416.1,91.1,395.4,70.5,367.8,70.5z M367,152.5h-16.2V88.7H367c19,0,28.9,13,28.9,31.9C396,139.5,386.1,152.5,367,152.5z
	 M542.4,147.2v-34.8h15.1V97.3h-15.1V78.5h-19v18.8h-10.4v15.1h10.4v37.9c0,15.1,9,21.2,21.4,21.2c4.7,0,10-0.8,12.8-3.4v-14.5
	c-2.7,0.8-5.2,1.1-6.9,1.1C544.5,154.7,542.4,151.1,542.4,147.2z M193.3,75c-9.8,6.4-18.6,14.7-27.6,26.3
	c-9-11.6-17.8-19.9-27.6-26.3c-15.6-10.1-33.9-15.1-55.9-15.1c-7.9,0-15.3,0.6-22.2,1.9l0,58.2h21.8V81.8c0.1,0,0.3,0,0.4,0
	c34.7,0,52.8,13.9,70.3,38.2c-17.4,24.3-35.6,38.2-70.3,38.2c-8.3,0-15.6-0.8-22.2-2.3v22.3c7,1.3,14.4,1.9,22.2,1.9
	c22,0,40.3-4.9,55.9-15.1c9.8-6.4,18.6-14.7,27.6-26.3c9,11.6,17.8,19.9,27.6,26.3c15.6,10.1,33.9,15.1,55.9,15.1
	c7.9,0,15.3-0.6,22.2-1.9V120h-21.8v38.2c-0.1,0-0.3,0-0.4,0c-34.7,0-52.8-13.9-70.3-38.2c17.4-24.3,35.6-38.2,70.3-38.2
	c8.3,0,15.6,0.8,22.2,2.3V61.8c-7-1.3-14.4-1.9-22.2-1.9C227.1,59.9,208.9,64.8,193.3,75z M941.2,70.5v100.2h18.9V70.5H941.2z
	 M874.7,107.2h-0.4c-1.8-4.1-10.3-11.3-23.4-11.3c-17.1,0-35.3,12.7-35.3,38.1s18.2,38.1,35.3,38.1c13.1,0,21.6-7.2,23.4-11.3h0.4
	v9.9h18.9V97.3h-18.9V107.2z M854.6,155.1c-10.6,0-20.5-7.5-20.5-21.2c0-13.7,9.9-21.2,20.5-21.2c10.6,0,20.5,7.3,20.5,21.2
	C875.1,147.8,865.2,155.1,854.6,155.1z M623.9,107.2h-0.4c-1.8-4.1-10.3-11.3-23.4-11.3c-17.1,0-35.3,12.7-35.3,38.1
	s18.2,38.1,35.3,38.1c13.1,0,21.6-7.2,23.4-11.3h0.4v9.9h18.9V97.3h-18.9V107.2z M603.9,155.1c-10.6,0-20.5-7.5-20.5-21.2
	c0-13.7,9.9-21.2,20.5-21.2c10.6,0,20.5,7.3,20.5,21.2C624.3,147.8,614.5,155.1,603.9,155.1z M908,170.7h18.9V97.3H908V170.7z
	 M784,116.3v-19h-18.9v73.4H784v-32c0-14.7,8.9-24.5,23.1-24.5c1.7,0,3.1,0.1,4.8,0.4V96.5c-1.7-0.4-3.2-0.6-4.9-0.6
	C793.7,95.9,786.5,105.1,784,116.3z M710.4,116.8V133h24c-3,15.5-14.1,21.3-26.4,21.3c-18.2,0-32.4-13.3-32.4-33.7
	c0-20.6,14.5-33.1,32.4-33.1c10.2,0,19.6,3.8,26.2,13.1l14-9.7c-10.6-16.9-27.1-21.7-40.5-21.7c-28.2,0-51.9,20.3-51.9,51.5
	c0,31.2,23.6,51.5,51.3,51.5c27.6,0,50.5-20.6,46-55.3H710.4z M917.2,68.3c-5.8,0-10.5,4.7-10.5,10.5s4.7,10.5,10.5,10.5
	s10.5-4.7,10.5-10.5S923,68.3,917.2,68.3z"/>
</svg>
