<?xml version="1.0" encoding="UTF-8"?>
<svg width="260px" height="100px" viewBox="0 0 260 100" version="1.1" xmlns="http://www.w3.org/2000/svg" xmlns:xlink="http://www.w3.org/1999/xlink">
    <title>disconnect</title>
    <g id="disconnect" stroke="none" stroke-width="1" fill="none" fill-rule="evenodd">
        <rect fill="#F8F8F8" x="0" y="0" width="260" height="100"></rect>
        <g transform="translate(56.000000, 15.000000)" fill="#48A57F" fill-rule="nonzero">
            <polygon id="Path" points="21.471169 52.9770845 17.0424366 52.9770845 17.0424366 68.9542394 21.471169 68.9542394"></polygon>
            <path d="M29.3756479,57.4058169 C29.3756479,56.060338 31.3378169,55.4437465 33.6362817,57.5179155 L35.1498592,54.042169 C33.6922817,52.8088873 32.2347042,52.5845915 30.496831,52.5845915 C27.6377746,52.5845915 25.1711127,54.3785634 25.1711127,57.4619155 C25.1711127,62.5634366 31.1696197,62.3391408 31.1696197,64.525507 C31.1696197,65.7587887 29.4877465,65.8148873 28.1983662,65.0860986 L26.7968873,64.2452113 L24.7787183,67.6648592 C26.460493,68.8982394 28.478662,69.514831 30.5529296,69.4027324 C33.6362817,69.4027324 35.6544507,67.6088592 35.6544507,64.525507 C35.5423521,58.975493 29.3756479,59.1997887 29.3756479,57.4058169 L29.3756479,57.4058169 Z" id="Path"></path>
            <path d="M46.3058873,65.3663944 C44.0634225,65.3663944 42.3255493,63.5725211 42.3255493,60.937662 C42.3255493,58.3028028 44.1195211,56.508831 46.3058873,56.508831 C47.5952676,56.508831 48.5482535,56.9573239 49.6134366,58.3028028 L51.8558028,54.5467606 C50.3422254,53.2012817 48.3800563,52.472493 46.3058873,52.5285915 C46.0815915,52.5285915 45.913493,52.5285915 45.6891972,52.5285915 C41.2043662,52.6967887 37.7286197,56.452831 37.8968169,60.937662 L37.8968169,61.5543521 C38.0650141,66.0391831 41.8210563,69.5149296 46.3058873,69.3467324 C48.7725493,69.3467324 50.9589155,68.4497465 52.0800986,66.9360704 L49.6695352,63.4043239 C48.9407465,64.5816056 47.7073662,65.3663944 46.3058873,65.3663944 L46.3058873,65.3663944 Z" id="Path"></path>
            <path d="M61.4982535,52.2482958 C56.8452254,52.416493 53.2012817,56.3407324 53.4255775,60.993662 L53.4255775,61.2739577 C53.5376761,65.8709859 57.2937183,69.458831 61.8346479,69.4027324 L62.0588451,69.4027324 C66.6557746,69.3467324 70.2997183,65.5906901 70.1876197,60.993662 C70.1876197,60.7694648 70.1876197,60.6012676 70.1876197,60.3770704 C70.0194225,55.6679437 66.0951831,52.0800986 61.4982535,52.2482958 L61.4982535,52.2482958 Z M61.8346479,65.3663944 C59.5921831,65.3663944 57.8543099,63.5725211 57.8543099,60.937662 C57.8543099,58.3028028 59.6482817,56.508831 61.8346479,56.508831 C64.0210141,56.508831 65.8148873,58.3028028 65.8148873,60.937662 C65.8148873,63.5725211 64.0770141,65.3663944 61.8346479,65.3663944 L61.8346479,65.3663944 Z" id="Shape"></path>
            <polygon id="Path" points="81.8481408 60.489169 81.7921408 60.489169 76.7467183 52.9770845 72.7663803 52.9770845 72.7663803 68.9542394 77.1951127 68.9542394 77.1951127 61.3861549 77.2512113 61.3861549 82.2966338 68.9542394 86.2769718 68.9542394 86.2769718 52.9770845 81.8481408 52.9770845"></polygon>
            <polygon id="Path" points="99.6750704 60.489169 94.5739437 52.9770845 90.5936056 52.9770845 90.5936056 68.9542394 95.0224366 68.9542394 95.0224366 61.3861549 95.0784366 61.3861549 100.123662 68.9542394 104.103803 68.9542394 104.103803 52.9770845 99.6750704 52.9770845"></polygon>
            <polygon id="Path" points="118.399577 56.9573239 117.950986 52.9770845 108.421127 52.9770845 108.421127 68.9542394 117.950986 68.9542394 118.399577 64.974 112.849859 64.974 112.849859 62.7315352 117.727183 62.7315352 117.727183 58.975493 112.849859 58.975493 112.849859 56.9573239"></polygon>
            <path d="M129.723803,65.3663944 C127.481831,65.3663944 125.743662,63.5725211 125.743662,60.937662 C125.743662,58.3028028 127.537042,56.508831 129.723803,56.508831 C130.957183,56.508831 131.965775,56.9573239 133.031549,58.3028028 L135.217324,54.5467606 C133.703944,53.2012817 131.741972,52.472493 129.667606,52.5285915 C129.443803,52.5285915 129.275211,52.5285915 129.051408,52.5285915 C124.566479,52.6967887 121.090141,56.452831 121.202535,60.937662 L121.202535,61.5543521 C121.371127,66.0391831 125.126479,69.5149296 129.611408,69.3467324 C132.078169,69.3467324 134.26493,68.4497465 135.385915,66.9360704 L132.975352,63.4043239 C132.358169,64.5816056 131.069577,65.3663944 129.723803,65.3663944 L129.723803,65.3663944 Z" id="Path"></path>
            <polygon id="Path" points="147.438732 52.9770845 137.235493 52.9770845 136.786901 56.9573239 140.150845 56.9573239 140.150845 68.9542394 144.579577 68.9542394 144.579577 56.9573239 147.887324 56.9573239"></polygon>
            <path d="M6.22270423,52.9770845 L0,52.9770845 L0,64.9179014 L4.42877183,64.9179014 L4.42877183,56.9573239 C6.83936479,56.9573239 9.53026338,57.6301127 9.53026338,60.937662 C9.53026338,64.2452113 6.89542394,64.9179014 4.42877183,64.9179014 L4.42877183,68.8982394 L6.22270423,68.8982394 C8.96966197,68.7861408 11.4924225,67.2724648 12.8939014,64.9179014 C13.5665915,63.7967183 13.9029859,62.507338 13.9590845,61.2179577 L13.9590845,60.7133662 C13.9590845,56.508831 10.483338,53.0330845 6.22270423,52.9770845 L6.22270423,52.9770845 Z" id="Path"></path>
            <path d="M59.5921831,10.987831 C66.2633803,10.987831 73.5512676,12.8378028 73.5512676,21.919662 C73.5512676,31.0014225 66.2633803,32.8513944 59.5921831,32.8513944 L59.5921831,43.7831268 L64.4134085,43.7831268 C71.9815915,43.502831 78.9330845,39.410493 82.7451268,32.8513944 C84.5390986,29.7680423 85.5481831,26.2922958 85.5481831,22.7044507 L85.5481831,21.3589718 C85.6602817,9.58632254 76.2421268,0.0560604366 64.525507,-3.50267546e-15 C64.469507,-3.50267546e-15 64.4134085,-3.50267546e-15 64.4134085,-3.50267546e-15 L47.483169,-3.50267546e-15 L47.483169,32.7952958 L59.5921831,32.7952958 L59.5921831,10.987831 Z" id="Path"></path>
            <polygon id="Path" points="100.404648 32.8513944 88.2951408 32.8513944 88.2951408 43.7832254 100.404648 43.7832254"></polygon>
        </g>
    </g>
</svg>