<?xml version="1.0" encoding="UTF-8"?>
<svg width="260px" height="100px" viewBox="0 0 260 100" version="1.1" xmlns="http://www.w3.org/2000/svg" xmlns:xlink="http://www.w3.org/1999/xlink">
    <title>DDG</title>
    <g id="DDG" stroke="none" stroke-width="1" fill="none" fill-rule="evenodd">
        <rect fill="#F8F8F8" x="0" y="0" width="260" height="100"></rect>
        <g id="duckduckgo-vertical" transform="translate(68.000000, 1.000000)">
            <circle id="Oval" fill="#DE5833" fill-rule="nonzero" cx="61.5487805" cy="35.8536585" r="35.8536585"></circle>
            <path d="M91.904878,23.0060976 C90.2317073,19.0621951 87.8414634,15.5365854 84.8536585,12.5487805 C81.8060976,9.50121951 78.2804878,7.17073171 74.3963415,5.49756098 C70.3329268,3.76463415 66.0304878,2.92804878 61.5487805,2.92804878 C57.1268293,2.92804878 52.7646341,3.82439024 48.7012195,5.49756098 C44.7573171,7.11097561 41.2317073,9.50121951 38.2439024,12.5487805 C35.1963415,15.5963415 32.8658537,19.1219512 31.1926829,23.0060976 C29.4597561,27.0695122 28.6231707,31.3719512 28.6231707,35.8536585 C28.6231707,40.3353659 29.5195122,44.6378049 31.1926829,48.7012195 C32.8658537,52.645122 35.2560976,56.1707317 38.2439024,59.1585366 C41.2914634,62.2060976 44.8170732,64.5365854 48.7012195,66.2097561 C52.7646341,67.9426829 57.0670732,68.7792683 61.5487805,68.7792683 C65.9707317,68.7792683 70.3329268,67.8829268 74.3963415,66.2097561 C78.2804878,64.5365854 81.8060976,62.1463415 84.8536585,59.1585366 C87.9012195,56.1109756 90.2317073,52.5853659 91.904878,48.7012195 C93.6378049,44.6378049 94.4743902,40.3353659 94.4743902,35.8536585 C94.4743902,31.3719512 93.6378049,27.0695122 91.904878,23.0060976 Z M68.7195122,65.4329268 C66.8073171,62.2060976 61.7878049,53.1829268 61.7878049,46.4902439 C61.7878049,31.0731707 72.1256098,44.2792683 72.1256098,31.9695122 C72.1256098,29.0414634 70.6914634,18.7634146 61.7280488,16.6121951 C59.5170732,13.6841463 54.3182927,10.8756098 46.0719512,12.0109756 C46.0719512,12.0109756 47.4463415,12.4292683 49,13.2060976 C49,13.2060976 46.0121951,13.6243902 45.8926829,15.6560976 C45.8926829,15.6560976 51.8085366,15.3573171 55.154878,16.4329268 C47.4463415,17.4487805 43.502439,21.5121951 44.2195122,28.8621951 C45.2353659,39.3195122 49.6573171,57.9634146 51.2109756,64.4768293 C39.4987805,60.2939024 31.0731707,49.0597561 31.0731707,35.8536585 C31.0731707,19.0621951 44.697561,5.37804878 61.5487805,5.37804878 C78.4,5.37804878 92.0243902,19.002439 92.0243902,35.8536585 C91.9646341,50.195122 82.045122,62.2060976 68.7195122,65.4329268 Z" id="Shape" fill="#FFFFFF" fill-rule="nonzero"></path>
            <path d="M59.8756098,40.8134146 C59.8756098,36.8695122 65.2536585,35.6146341 67.2853659,35.6146341 C72.7829268,35.6146341 80.5512195,32.0890244 82.4634146,32.1487805 C84.4353659,32.2085366 85.6902439,32.9853659 85.6902439,33.8817073 C85.6902439,35.1963415 74.695122,40.1560976 70.452439,39.7378049 C66.3890244,39.3792683 65.4329268,39.797561 65.4329268,41.4707317 C65.4329268,42.904878 68.3609756,44.2195122 71.5878049,44.2195122 C76.4280488,44.2195122 81.1487805,42.0682927 82.5829268,43.0841463 C83.8378049,43.9804878 79.2963415,47.2073171 74.097561,47.2073171 C68.8987805,47.2073171 59.8756098,44.7573171 59.8756098,40.8134146 L59.8756098,40.8134146 Z" id="Path" fill="#FED30A"></path>
            <path d="M69.4365854,24.0817073 C68.002439,22.2292683 65.4329268,22.1695122 64.5365854,24.3207317 C65.9109756,23.245122 67.5841463,23.0060976 69.4365854,24.0817073 Z" id="Path" fill="#2D4F8D" fill-rule="nonzero"></path>
            <path d="M53.4817073,24.1414634 C51.5097561,22.9463415 48.2231707,22.8268293 48.402439,26.5914634 C49.3585366,24.2609756 50.6731707,23.8426829 53.4817073,24.1414634 Z" id="Path" fill="#2D4F8D" fill-rule="nonzero"></path>
            <path d="M68.2414634,27.6073171 C67.1658537,27.6073171 66.2695122,28.5036585 66.2695122,29.5792683 C66.2695122,30.654878 67.1658537,31.5512195 68.2414634,31.5512195 C69.3170732,31.5512195 70.2134146,30.654878 70.2134146,29.5792683 C70.2134146,28.5036585 69.3170732,27.6073171 68.2414634,27.6073171 Z M68.9585366,29.4597561 C68.6597561,29.4597561 68.3609756,29.2207317 68.3609756,28.8621951 C68.3609756,28.5634146 68.6,28.2646341 68.9585366,28.2646341 C69.3170732,28.2646341 69.5560976,28.5036585 69.5560976,28.8621951 C69.4963415,29.1609756 69.2573171,29.4597561 68.9585366,29.4597561 Z" id="Shape" fill="#2D4F8D" fill-rule="nonzero"></path>
            <path d="M52.9439024,28.6829268 C51.6890244,28.6829268 50.6731707,29.6987805 50.6731707,30.9536585 C50.6731707,32.2085366 51.6890244,33.2243902 52.9439024,33.2243902 C54.1987805,33.2243902 55.2146341,32.2085366 55.2146341,30.9536585 C55.2146341,29.6987805 54.1987805,28.6829268 52.9439024,28.6829268 Z M53.7804878,30.7743902 C53.4219512,30.7743902 53.1231707,30.4756098 53.1231707,30.1170732 C53.1231707,29.7585366 53.4219512,29.4597561 53.7804878,29.4597561 C54.1390244,29.4597561 54.4378049,29.7585366 54.4378049,30.1170732 C54.4378049,30.4756098 54.1390244,30.7743902 53.7804878,30.7743902 Z" id="Shape" fill="#2D4F8D" fill-rule="nonzero"></path>
            <path d="M47.9841463,19.002439 C45.1158537,21.0939024 43.8012195,24.3207317 44.2195122,28.8621951 C45.2353659,39.3195122 49.6573171,58.0231707 51.2109756,64.5365854 C51.7487805,64.7158537 52.2865854,64.895122 52.8243902,65.0743902 C51.8682927,61.1304878 47.2670732,41.8890244 45.2353659,27.1292683 C44.697561,23.1853659 46.2512195,20.854878 47.9841463,19.002439 Z" id="Path" fill="#D5D7D8" fill-rule="nonzero"></path>
            <path d="M55.095122,16.4329268 C55.3341463,16.4329268 55.5134146,16.3731707 55.5134146,16.3731707 C52.4060976,14.8792683 47.5060976,14.8195122 46.1914634,14.8195122 C46.0719512,15.0585366 45.952439,15.3573171 45.952439,15.6560976 C45.8926829,15.7158537 51.6890244,15.3573171 55.095122,16.4329268 L55.095122,16.4329268 Z" id="Path" fill="#D5D7D8" fill-rule="nonzero"></path>
            <path d="M49.4780488,13.2060976 C48.5219512,12.5487805 47.745122,12.1304878 47.2670732,11.8914634 C46.8487805,11.9512195 46.4902439,11.9512195 46.0719512,12.0109756 C46.0719512,12.0109756 47.4463415,12.4292683 49,13.2060976 C49,13.2060976 48.9402439,13.2060976 48.8804878,13.2060976 L49.4780488,13.2060976 Z" id="Path" fill="#D5D7D8" fill-rule="nonzero"></path>
            <path d="M73.5597561,52.9439024 C72.5439024,52.704878 68.6,55.5134146 67.1060976,56.5890244 C67.0463415,56.2902439 66.9865854,56.0512195 66.9268293,55.9317073 C66.747561,55.3341463 62.9231707,55.6926829 62.0268293,56.6487805 C59.6365854,55.5134146 54.8560976,53.302439 54.7963415,54.6768293 C54.6170732,56.4695122 54.7963415,63.9390244 55.752439,64.4768293 C56.4695122,64.895122 60.5329268,62.6841463 62.5646341,61.5487805 L62.6243902,61.5487805 C63.8792683,61.847561 66.2097561,61.5487805 67.0463415,61.0109756 C67.1658537,60.9512195 67.2256098,60.8317073 67.2853659,60.7121951 C69.1378049,61.4292683 73.1414634,62.8634146 73.9780488,62.5646341 C75.0536585,62.2658537 74.8146341,53.2426829 73.5597561,52.9439024 L73.5597561,52.9439024 Z" id="Path" fill="#67BD47" fill-rule="nonzero"></path>
            <path d="M62.6243902,61.5487805 C61.3695122,61.3097561 61.7878049,60.054878 61.7878049,57.1268293 C61.4890244,57.3060976 61.25,57.545122 61.25,57.7841463 C61.25,60.7121951 60.7719512,62.0268293 62.0865854,62.2060976 C63.3414634,62.504878 65.6719512,62.2060976 66.6280488,61.6682927 C66.8073171,61.5487805 66.8670732,61.3695122 66.9268293,61.0707317 C66.0304878,61.6085366 63.8195122,61.847561 62.6243902,61.5487805 L62.6243902,61.5487805 Z" id="Path" fill="#43A347" fill-rule="nonzero"></path>
            <g id="Group" transform="translate(0.000000, 81.268293)" fill="#4C4C4C" fill-rule="nonzero">
                <path d="M0.298780488,15.297561 L0.298780488,0.597560976 L5.61707317,0.597560976 C10.6963415,0.597560976 13.0268293,4.30243902 13.0268293,7.76829268 C13.0268293,11.5329268 10.7560976,15.297561 5.61707317,15.297561 L0.298780488,15.297561 Z M1.97195122,13.5646341 L5.61707317,13.5646341 C9.56097561,13.5646341 11.2939024,10.6365854 11.2939024,7.70853659 C11.2939024,5.0195122 9.50121951,2.15121951 5.61707317,2.15121951 L1.97195122,2.15121951 L1.97195122,13.5646341 Z" id="Shape"></path>
                <path d="M19.7195122,15.4768293 C16.9707317,15.4768293 15.2378049,13.6243902 15.2378049,10.6963415 L15.2378049,4.9597561 L16.8512195,4.9597561 L16.8512195,10.6365854 C16.8512195,12.7280488 18.0463415,13.9829268 20.0780488,13.9829268 C21.9902439,13.9829268 23.3646341,12.4890244 23.3646341,10.5170732 L23.3646341,4.9597561 L24.9780488,4.9597561 L24.9780488,15.297561 L23.5439024,15.297561 L23.4243902,13.504878 L23.1853659,13.8036585 C22.2890244,14.8792683 21.1536585,15.4170732 19.7195122,15.4768293 Z" id="Path"></path>
                <path d="M32.6865854,15.4768293 C29.997561,15.4768293 27.3085366,13.8036585 27.3085366,10.1585366 C27.3085366,6.93170732 29.4597561,4.8402439 32.6865854,4.8402439 C34.1207317,4.8402439 35.3158537,5.31829268 36.3914634,6.33414634 L35.3756098,7.35 C34.6585366,6.69268293 33.702439,6.33414634 32.7463415,6.33414634 C30.4756098,6.33414634 28.9219512,7.88780488 28.9219512,10.1585366 C28.9219512,12.7878049 30.8341463,13.9829268 32.7463415,13.9829268 C33.8219512,13.9829268 34.7780488,13.6243902 35.495122,12.9073171 L36.5109756,13.9231707 C35.4353659,14.9390244 34.1207317,15.4768293 32.6865854,15.4768293 L32.6865854,15.4768293 Z" id="Path"></path>
                <polygon id="Path" points="45.1756098 15.297561 40.0963415 10.2182927 40.0963415 15.297561 38.5426829 15.297561 38.5426829 0.597560976 40.0963415 0.597560976 40.0963415 9.50121951 44.5182927 4.9597561 46.6097561 4.9597561 41.7097561 9.8 47.2073171 15.2378049 47.2073171 15.297561"></polygon>
                <path d="M49.1195122,15.297561 L49.1195122,0.597560976 L54.4378049,0.597560976 C59.5170732,0.597560976 61.847561,4.30243902 61.847561,7.76829268 C61.847561,11.5329268 59.5768293,15.297561 54.4378049,15.297561 L49.1195122,15.297561 Z M50.852439,13.5646341 L54.497561,13.5646341 C58.4414634,13.5646341 60.1743902,10.6365854 60.1743902,7.70853659 C60.1743902,5.0195122 58.3817073,2.15121951 54.497561,2.15121951 L50.852439,2.15121951 L50.852439,13.5646341 Z" id="Shape"></path>
                <path d="M68.5402439,15.4768293 C65.7914634,15.4768293 64.0585366,13.6243902 64.0585366,10.6963415 L64.0585366,4.9597561 L65.6719512,4.9597561 L65.6719512,10.6365854 C65.6719512,12.7280488 66.8670732,13.9829268 68.8987805,13.9829268 C70.8109756,13.9829268 72.1853659,12.4890244 72.1853659,10.5170732 L72.1853659,4.9597561 L73.7987805,4.9597561 L73.7987805,15.297561 L72.3646341,15.297561 L72.304878,13.504878 L72.0658537,13.8036585 C71.1695122,14.8792683 69.9743902,15.4170732 68.5402439,15.4768293 L68.5402439,15.4768293 Z" id="Path"></path>
                <path d="M81.5073171,15.4768293 C78.8182927,15.4768293 76.1292683,13.8036585 76.1292683,10.1585366 C76.1292683,6.93170732 78.2804878,4.8402439 81.5073171,4.8402439 C82.9414634,4.8402439 84.1365854,5.31829268 85.2121951,6.33414634 L84.1963415,7.35 C83.4792683,6.69268293 82.5231707,6.33414634 81.5670732,6.33414634 C79.2963415,6.33414634 77.7426829,7.88780488 77.7426829,10.1585366 C77.7426829,12.7878049 79.654878,13.9829268 81.5670732,13.9829268 C82.6426829,13.9829268 83.5987805,13.6243902 84.3158537,12.9073171 L85.3317073,13.9231707 L85.2719512,13.9829268 C84.2560976,14.9987805 83.0012195,15.4768293 81.5073171,15.4768293 L81.5073171,15.4768293 Z" id="Path"></path>
                <polygon id="Path" points="93.9963415 15.297561 88.9768293 10.2182927 88.9768293 15.297561 87.4231707 15.297561 87.4231707 0.597560976 88.9768293 0.597560976 88.9768293 9.50121951 93.3987805 4.9597561 95.4304878 4.9597561 90.5902439 9.8 96.0280488 15.2378049 96.0280488 15.297561"></polygon>
                <path d="M104.334146,15.5365854 C98.6573171,15.5365854 96.6853659,11.4731707 96.6853659,8.06707317 C96.6853659,5.79634146 97.4621951,3.82439024 98.8365854,2.3902439 C100.210976,1.01585366 102.123171,0.298780488 104.334146,0.298780488 C106.365854,0.298780488 108.218293,1.07560976 109.652439,2.45 L108.696341,3.58536585 C107.560976,2.5097561 105.887805,1.85243902 104.334146,1.85243902 C100.210976,1.85243902 98.3585366,5.07926829 98.3585366,8.06707317 C98.3585366,10.995122 100.210976,13.9829268 104.393902,13.9829268 C105.887805,13.9829268 107.321951,13.445122 108.457317,12.4890244 L108.517073,12.4292683 L108.517073,8.78414634 L103.915854,8.78414634 L103.915854,7.2902439 L110.070732,7.2902439 L110.070732,13.0268293 C108.457317,14.7597561 106.604878,15.5365854 104.334146,15.5365854 Z" id="Path"></path>
                <path d="M117.360976,15.4768293 C114.253659,15.4768293 112.042683,13.2658537 112.042683,10.1585366 C112.042683,7.05121951 114.313415,4.72073171 117.360976,4.72073171 C120.528049,4.72073171 122.739024,6.93170732 122.739024,10.1585366 C122.679268,13.2060976 120.468293,15.4768293 117.360976,15.4768293 Z M117.360976,6.15487805 C115.15,6.15487805 113.596341,7.76829268 113.596341,10.0987805 C113.596341,12.3097561 115.15,13.9231707 117.360976,13.9231707 C119.571951,13.9231707 121.12561,12.3695122 121.185366,10.0987805 C121.12561,7.82804878 119.571951,6.15487805 117.360976,6.15487805 Z" id="Shape"></path>
                <path d="M123.833604,15.6947633 C123.98916,15.630711 124.066938,15.5666587 124.066938,15.4385541 C124.066938,15.3104495 123.98916,15.2463973 123.911382,15.182345 C123.833604,15.1182927 123.678049,15.1182927 123.444715,15.1182927 C123.211382,15.1182927 123.055827,15.1182927 122.978049,15.182345 L122.978049,16.2071816 L123.28916,16.2071816 L123.28916,15.7588156 L123.444715,15.7588156 C123.600271,15.7588156 123.678049,15.8228678 123.678049,15.9509724 C123.755827,16.079077 123.755827,16.1431293 123.755827,16.2071816 L124.066938,16.2071816 C124.066938,16.1431293 123.98916,16.079077 123.98916,15.9509724 C123.98916,15.8228678 123.911382,15.7588156 123.833604,15.6947633 L123.833604,15.6947633 Z M123.444715,15.630711 L123.28916,15.630711 L123.28916,15.3104495 L123.444715,15.3104495 C123.600271,15.3104495 123.678049,15.3745018 123.678049,15.4385541 C123.755827,15.5666587 123.678049,15.630711 123.444715,15.630711 Z" id="Shape"></path>
                <path d="M123.396341,14.6402439 C122.858537,14.6402439 122.380488,15.0585366 122.380488,15.5963415 C122.380488,16.1341463 122.79878,16.6121951 123.396341,16.6121951 C123.934146,16.6121951 124.412195,16.1939024 124.412195,15.5963415 C124.412195,15.0585366 123.993902,14.6402439 123.396341,14.6402439 Z M123.396341,16.4329268 C122.978049,16.4329268 122.619512,16.0743902 122.619512,15.6560976 C122.619512,15.2378049 122.918293,14.8792683 123.396341,14.8792683 C123.814634,14.8792683 124.173171,15.2378049 124.173171,15.6560976 C124.173171,16.0743902 123.814634,16.4329268 123.396341,16.4329268 Z" id="Shape"></path>
            </g>
        </g>
    </g>
</svg>