<svg width="250" height="200" viewBox="0 0 250 200" fill="none" xmlns="http://www.w3.org/2000/svg">
<path d="M100.536 163.273H96.6803L89.6605 170.491V156.055H86.6943V180.674H89.6605V172.567L97.669 180.575L97.7679 180.674H101.129H101.327V180.378L92.33 171.479L100.536 163.273Z" fill="#333333"/>
<path d="M81.4586 176.457C80.371 177.545 78.7891 178.138 77.0094 178.138C73.9444 178.138 70.8795 176.259 70.8795 171.909C70.8795 168.251 73.4501 165.68 77.0094 165.68C78.5914 165.68 80.0744 166.273 81.2609 167.361L81.3598 167.46L83.2383 165.482L83.1394 165.383C81.3597 163.703 79.2835 162.912 76.9106 162.912C71.4727 162.912 67.8145 166.57 67.8145 171.909C67.8145 178.138 72.3625 180.906 76.9106 180.906H77.0094C79.3823 180.906 81.6564 180.016 83.2383 178.336L83.3372 178.237L81.3598 176.259L81.4586 176.457Z" fill="#333333"/>
<path d="M61.2882 172.603C61.2882 175.767 59.1131 178.14 56.0481 178.239C52.7853 178.239 50.8079 176.261 50.8079 172.9V163.309H47.8418V172.9C47.8418 177.843 50.8079 181.007 55.4548 181.007H55.5537C57.8277 181.007 59.904 179.919 61.2882 178.239L61.3871 178.041L61.486 180.71H64.2543V163.309H61.2882V172.603Z" fill="#333333"/>
<path d="M31.9972 155.956H23V180.674H31.9972C40.599 180.674 44.3561 174.346 44.3561 168.117C44.3561 162.284 40.5001 155.956 31.9972 155.956ZM41.2911 168.018C41.2911 172.764 38.4238 177.51 32.0961 177.51H26.1639V159.021H31.9972C38.325 159.021 41.2911 163.668 41.2911 168.018Z" fill="#333333"/>
<path d="M195.242 169.895H202.855V175.629C200.977 177.211 198.703 178.101 196.231 178.101C189.508 178.101 186.443 173.256 186.443 168.511C186.443 163.666 189.508 158.426 196.132 158.426C198.801 158.426 201.273 159.415 203.251 161.194L203.349 161.293L205.129 159.217L205.03 159.118C202.657 156.745 199.494 155.559 196.033 155.559C192.276 155.559 189.112 156.745 186.838 159.118C184.465 161.491 183.18 164.852 183.279 168.61C183.279 174.443 186.64 181.166 196.132 181.166C196.231 181.166 196.231 181.166 196.33 181.166C199.889 181.166 203.251 179.683 205.624 177.014V167.225H195.143V169.895H195.242Z" fill="#333333"/>
<path d="M113.18 155.956H104.183V180.674H113.18C121.782 180.674 125.539 174.346 125.539 168.117C125.539 162.284 121.683 155.956 113.18 155.956ZM122.474 168.018C122.474 172.764 119.606 177.51 113.279 177.51H107.445V159.021H113.279C119.508 159.021 122.474 163.668 122.474 168.018Z" fill="#333333"/>
<path d="M217.813 162.912C212.573 162.912 208.816 166.768 208.816 172.008C208.816 177.248 212.573 181.005 217.813 181.005C223.053 181.005 226.909 177.248 226.909 172.008C226.909 166.669 223.152 162.912 217.813 162.912ZM223.943 172.008C223.943 175.666 221.373 178.237 217.813 178.237C214.353 178.237 211.782 175.666 211.782 172.008C211.782 168.251 214.254 165.581 217.912 165.581C221.373 165.68 223.943 168.35 223.943 172.008Z" fill="#333333"/>
<path d="M142.471 172.603C142.471 175.767 140.296 178.14 137.231 178.239C133.968 178.239 131.991 176.261 131.991 172.9V163.309H129.024V172.9C129.024 177.843 131.991 181.007 136.539 181.007H136.637C138.911 181.007 140.988 179.919 142.372 178.239L142.471 178.041L142.57 180.71H145.338V163.309H142.372V172.603H142.471Z" fill="#333333"/>
<path d="M162.641 176.457C161.554 177.545 159.972 178.138 158.192 178.138C155.127 178.138 152.062 176.259 152.062 171.909C152.062 168.251 154.633 165.68 158.192 165.68C159.774 165.68 161.257 166.273 162.443 167.361L162.542 167.46L164.421 165.482L164.322 165.383C162.542 163.703 160.466 162.912 158.093 162.912C152.655 162.912 148.997 166.57 148.997 171.909C148.997 178.138 153.545 180.906 158.093 180.906H158.192C160.565 180.906 162.839 180.016 164.421 178.336L164.52 178.237L162.542 176.259L162.641 176.457Z" fill="#333333"/>
<path d="M181.719 163.273H177.863L170.843 170.491V156.055H167.877V180.674H170.843V172.567L178.852 180.575L178.95 180.674H182.312H182.51V180.378L173.513 171.479L181.719 163.273Z" fill="#333333"/>
<path fill-rule="evenodd" clip-rule="evenodd" d="M125 139C158.137 139 185 112.137 185 79C185 45.8629 158.137 19 125 19C91.8629 19 65 45.8629 65 79C65 112.137 91.8629 139 125 139Z" fill="#DE5833"/>
<path fill-rule="evenodd" clip-rule="evenodd" d="M133.438 123.766C133.438 123.297 133.553 123.19 132.063 120.22C128.103 112.29 124.123 101.11 125.933 93.8999C126.263 92.5899 122.203 45.3899 119.333 43.8699C116.143 42.1699 112.218 39.4732 108.628 38.8732C106.806 38.5818 104.418 38.7198 102.551 38.9712C102.219 39.0159 102.205 39.6123 102.523 39.7198C103.748 40.135 105.237 40.856 106.114 41.9462C106.28 42.1525 106.057 42.4771 105.792 42.4869C104.965 42.5175 103.465 42.8641 101.486 44.545C101.258 44.7394 101.448 45.1004 101.742 45.0421C105.995 44.2007 110.339 44.6152 112.899 46.9418C113.065 47.0928 112.978 47.3637 112.761 47.4225C90.5479 53.4591 94.9452 72.7821 100.859 96.4948C106.126 117.617 108.108 124.424 108.733 126.498C108.794 126.699 108.935 126.858 109.13 126.936C116.776 129.981 133.438 130.116 133.438 124.938V123.766Z" fill="#DDDDDD"/>
<path fill-rule="evenodd" clip-rule="evenodd" d="M180.078 79C180.078 109.419 155.419 134.078 125 134.078C94.5812 134.078 69.9219 109.419 69.9219 79C69.9219 48.5812 94.5812 23.9219 125 23.9219C155.419 23.9219 180.078 48.5812 180.078 79ZM112.146 127.736C110.624 123.035 106.371 109.408 102.169 92.186C102.029 91.6122 101.89 91.0411 101.751 90.4728L101.747 90.4586C96.6617 69.6873 92.5082 52.7219 115.272 47.3922C115.481 47.3435 115.582 47.0946 115.445 46.9312C112.833 43.8327 107.94 42.8171 101.753 44.9515C101.499 45.039 101.279 44.7831 101.436 44.5659C102.65 42.8936 105.02 41.6079 106.191 41.0442C106.433 40.9277 106.418 40.5735 106.162 40.4933C105.396 40.2536 104.093 39.8868 102.626 39.6502C102.279 39.5942 102.248 38.9997 102.596 38.9528C111.367 37.7727 120.527 40.406 125.123 46.1957C125.166 46.2502 125.229 46.2883 125.297 46.3029C142.127 49.9174 143.332 76.5232 141.394 77.735C141.011 77.9739 139.786 77.8368 138.17 77.656C131.622 76.9233 118.654 75.4724 129.357 95.4191C129.462 95.6161 129.322 95.8769 129.101 95.9112C123.087 96.8465 130.747 115.631 136.426 128.09C158.752 122.914 175.391 102.9 175.391 79C175.391 51.17 152.83 28.6094 125 28.6094C97.17 28.6094 74.6094 51.17 74.6094 79C74.6094 102.388 90.5424 122.054 112.146 127.736Z" fill="white"/>
<path d="M144.013 104.029C142.731 103.436 137.805 106.969 134.535 109.681C133.851 108.714 132.563 108.011 129.656 108.517C127.113 108.959 125.708 109.572 125.082 110.63C121.066 109.107 114.312 106.758 112.68 109.027C110.896 111.507 113.125 123.24 115.495 124.763C116.732 125.559 122.648 121.756 125.738 119.133C126.237 119.835 127.039 120.237 128.689 120.199C131.184 120.141 135.231 119.561 135.859 118.399C135.898 118.328 135.93 118.244 135.958 118.149C139.134 119.336 144.723 120.593 145.972 120.405C149.226 119.916 145.519 104.727 144.013 104.029Z" fill="#3CA82B"/>
<path d="M134.835 110.028C134.97 110.268 135.078 110.522 135.17 110.779C135.623 112.045 136.36 116.073 135.803 117.068C135.245 118.063 131.622 118.544 129.387 118.582C127.152 118.621 126.649 117.804 126.196 116.537C125.834 115.525 125.656 113.143 125.66 111.779C125.568 109.757 126.307 109.046 129.723 108.493C132.251 108.084 133.587 108.56 134.359 109.374C137.947 106.695 143.935 102.916 144.519 103.606C147.431 107.051 147.799 115.251 147.168 118.55C146.962 119.628 137.32 117.481 137.32 116.318C137.32 111.488 136.067 110.163 134.835 110.028Z" fill="#4CBA3C"/>
<path d="M113.713 108.52C114.503 107.27 120.907 108.824 124.422 110.389C124.422 110.389 123.7 113.662 124.85 117.517C125.187 118.645 116.762 123.665 115.663 122.802C114.392 121.803 112.053 111.147 113.713 108.52Z" fill="#4CBA3C"/>
<path fill-rule="evenodd" clip-rule="evenodd" d="M116.815 83.1312C117.333 80.878 119.746 76.6323 128.366 76.7354C132.723 76.7173 138.136 76.7336 141.724 76.3259C147.058 75.7201 151.017 74.4299 153.655 73.4244C157.386 72.0009 158.71 72.3184 159.175 73.1701C159.685 74.1059 159.084 75.7219 157.78 77.2095C155.29 80.0509 150.813 82.2527 142.907 82.9061C135 83.5596 129.762 81.4388 127.507 84.8917C126.535 86.381 127.287 89.8909 134.933 90.9962C145.265 92.4873 153.751 89.1994 154.799 91.1851C155.847 93.1708 149.808 97.211 139.459 97.2955C129.11 97.3801 122.646 93.6722 120.354 91.8291C117.446 89.4907 116.144 86.0803 116.815 83.1312Z" fill="#FFCC33"/>
<g opacity="0.8">
<path d="M129.994 58.4941C130.571 57.5489 131.851 56.8193 133.946 56.8193C136.041 56.8193 137.027 57.6529 137.709 58.5824C137.848 58.7715 137.637 58.994 137.422 58.901C137.37 58.8786 137.318 58.8557 137.265 58.8324C136.498 58.4978 135.558 58.087 133.946 58.0641C132.223 58.0395 131.136 58.4712 130.451 58.8433C130.221 58.9686 129.857 58.7181 129.994 58.4941Z" fill="#14307E"/>
<path d="M106.41 59.7034C108.444 58.8533 110.043 58.9632 111.173 59.2306C111.411 59.2868 111.576 59.0308 111.386 58.8773C110.509 58.1697 108.546 57.2914 105.985 58.2461C103.701 59.0978 102.625 60.8674 102.618 62.0309C102.617 62.305 103.181 62.3283 103.327 62.0962C103.721 61.4691 104.376 60.5534 106.41 59.7034Z" fill="#14307E"/>
<path fill-rule="evenodd" clip-rule="evenodd" d="M135.726 71.4248C133.927 71.4248 132.469 69.9702 132.469 68.1799C132.469 66.3896 133.927 64.935 135.726 64.935C137.524 64.935 138.982 66.3896 138.982 68.1799C138.982 69.9702 137.524 71.4248 135.726 71.4248ZM138.019 67.1049C138.019 66.6413 137.64 66.2657 137.176 66.2657C136.713 66.2657 136.337 66.6413 136.333 67.1049C136.333 67.5685 136.713 67.9441 137.176 67.9441C137.644 67.9441 138.019 67.5685 138.019 67.1049Z" fill="#14307E"/>
<path fill-rule="evenodd" clip-rule="evenodd" d="M114.147 70.4256C114.147 72.5156 112.449 74.21 110.351 74.21C108.257 74.21 106.554 72.5156 106.554 70.4256C106.554 68.3356 108.257 66.6412 110.351 66.6412C112.445 66.6412 114.147 68.3356 114.147 70.4256ZM113.028 69.1708C113.028 68.6313 112.588 68.1917 112.045 68.1917C111.506 68.1917 111.066 68.6273 111.062 69.1708C111.062 69.7103 111.502 70.1499 112.045 70.1499C112.588 70.1499 113.028 69.7103 113.028 69.1708Z" fill="#14307E"/>
</g>
</svg>