<svg height="100" viewBox="0 0 260 100" width="260" xmlns="http://www.w3.org/2000/svg"><g fill="none" fill-rule="evenodd"><path d="m0 0h260v100h-260z" fill="#fff"/><g transform="translate(68 1)"><circle cx="61.548781" cy="35.853659" fill="#de5833" fill-rule="nonzero" r="35.853659"/><path d="m91.904878 23.0060976c-1.6731707-3.9439025-4.0634146-7.4695122-7.0512195-10.4573171-3.0475609-3.04756099-6.5731707-5.37804879-10.457317-7.05121952-4.0634147-1.73292683-8.3658537-2.5695122-12.847561-2.5695122-4.4219512 0-8.7841464.89634146-12.847561 2.5695122-3.9439024 1.61341463-7.4695122 4.00365853-10.4573171 7.05121952-3.0475609 3.047561-5.3780487 6.5731707-7.0512195 10.4573171-1.7329268 4.0634146-2.5695122 8.3658536-2.5695122 12.8475609 0 4.4817074.8963415 8.7841464 2.5695122 12.847561 1.6731708 3.9439025 4.0634147 7.4695122 7.0512195 10.4573171 3.047561 3.047561 6.5731708 5.3780488 10.4573171 7.0512195 4.0634146 1.7329268 8.3658537 2.5695122 12.847561 2.5695122 4.4219512 0 8.7841463-.8963415 12.847561-2.5695122 3.8841463-1.6731707 7.4097561-4.0634146 10.457317-7.0512195 3.047561-3.047561 5.3780488-6.5731707 7.0512195-10.4573171 1.7329269-4.0634146 2.5695122-8.3658536 2.5695122-12.847561 0-4.4817073-.8365853-8.7841463-2.5695122-12.8475609zm-23.1853658 42.4268292c-1.9121951-3.2268292-6.9317073-12.25-6.9317073-18.9426829 0-15.4170732 10.3378049-2.2109756 10.3378049-14.5207317 0-2.9280488-1.4341464-13.2060976-10.397561-15.3573171-2.2109756-2.9280488-7.4097561-5.7365853-15.6560976-4.6012195 0 0 1.3743903.4182927 2.9280488 1.195122 0 0-2.9878049.4182926-3.1073171 2.45 0 0 5.9158537-.2987805 9.2621951.7768292-7.7085365 1.0158537-11.652439 5.0792683-10.9353658 12.4292683 1.0158537 10.4573171 5.4378049 29.1012195 6.9914634 35.6146342-11.7121951-4.1829269-20.1378049-15.4170732-20.1378049-28.6231708 0-16.7914634 13.6243903-30.47560972 30.4756098-30.47560972s30.4756097 13.62439022 30.4756097 30.47560972c-.0597561 14.3414635-9.9792682 26.3524391-23.304878 29.5792683z" fill="#fff" fill-rule="nonzero"/><path d="m59.8756098 40.8134146c0-3.9439024 5.3780487-5.1987805 7.4097561-5.1987805 5.4975609 0 13.2658536-3.5256097 15.1780487-3.4658536 1.9719513.0597561 3.2268293.8365854 3.2268293 1.7329268 0 1.3146342-10.9951219 6.2743903-15.2378049 5.8560976-4.0634146-.3585366-5.0195122.0597561-5.0195122 1.7329268 0 1.4341463 2.9280488 2.7487805 6.1548781 2.7487805 4.8402439 0 9.5609756-2.1512195 10.9951219-1.1353659 1.2548781.8963415-3.2865853 4.1231708-8.4853658 4.1231708s-14.2219512-2.45-14.2219512-6.3939025z" fill="#fed30a"/><g fill-rule="nonzero"><path d="m69.4365854 24.0817073c-1.4341464-1.852439-4.0036586-1.9121951-4.9.2390244 1.3743902-1.0756097 3.0475609-1.3146341 4.9-.2390244z" fill="#2d4f8d"/><path d="m53.4817073 24.1414634c-1.9719512-1.1951219-5.2585366-1.3146341-5.0792683 2.45.9560976-2.3304878 2.2707317-2.7487805 5.0792683-2.45z" fill="#2d4f8d"/><path d="m68.2414634 27.6073171c-1.0756097 0-1.9719512.8963414-1.9719512 1.9719512 0 1.0756097.8963415 1.9719512 1.9719512 1.9719512 1.0756098 0 1.9719512-.8963415 1.9719512-1.9719512 0-1.0756098-.8963414-1.9719512-1.9719512-1.9719512zm.7170732 1.852439c-.2987805 0-.597561-.2390244-.597561-.597561 0-.2987805.2390244-.597561.597561-.597561s.597561.2390244.597561.597561c-.0597561.2987805-.2987805.597561-.597561.597561z" fill="#2d4f8d"/><path d="m52.9439024 28.6829268c-1.254878 0-2.2707317 1.0158537-2.2707317 2.2707317 0 1.2548781 1.0158537 2.2707317 2.2707317 2.2707317 1.2548781 0 2.2707317-1.0158536 2.2707317-2.2707317 0-1.254878-1.0158536-2.2707317-2.2707317-2.2707317zm.8365854 2.0914634c-.3585366 0-.6573171-.2987804-.6573171-.657317s.2987805-.6573171.6573171-.6573171.6573171.2987805.6573171.6573171-.2987805.657317-.6573171.657317z" fill="#2d4f8d"/><path d="m47.9841463 19.002439c-2.8682926 2.0914634-4.1829268 5.3182927-3.7646341 9.8597561 1.0158537 10.4573171 5.4378049 29.1609756 6.9914634 35.6743903.5378049.1792683 1.0756098.3585366 1.6134146.5378048-.9560975-3.9439024-5.557317-23.1853658-7.5890243-37.9451219-.5378049-3.9439024 1.0158536-6.2743903 2.7487804-8.1268293z" fill="#d5d7d8"/><path d="m55.095122 16.4329268c.2390243 0 .4182926-.0597561.4182926-.0597561-3.107317-1.4939024-8.007317-1.5536585-9.3219512-1.5536585-.1195122.2390244-.2390244.5378049-.2390244.8365854-.0597561.0597561 5.7365854-.2987805 9.142683.7768292z" fill="#d5d7d8"/><path d="m49.4780488 13.2060976c-.9560976-.6573171-1.7329268-1.0756098-2.2109756-1.3146342-.4182927.0597561-.7768293.0597561-1.195122.1195122 0 0 1.3743903.4182927 2.9280488 1.195122 0 0-.0597561 0-.1195122 0z" fill="#d5d7d8"/><path d="m73.5597561 52.9439024c-1.0158537-.2390244-4.9597561 2.5695122-6.4536585 3.645122-.0597561-.2987805-.1195122-.5378049-.1792683-.6573171-.1792683-.597561-4.0036586-.2390244-4.9.7170732-2.3902439-1.1353659-7.1707317-3.3463415-7.2304878-1.9719512-.1792683 1.7926829 0 9.2621951.9560975 9.8.7170732.4182927 4.7804878-1.792683 6.8121951-2.9280488h.0597561c1.2548781.2987805 3.5853659 0 4.4219513-.5378049.1195122-.0597561.1792683-.1792683.2390244-.2987805 1.852439.7170732 5.8560975 2.1512195 6.6926829 1.852439 1.0756097-.2987804.8365853-9.3219512-.4182927-9.6207317z" fill="#67bd47"/><path d="m62.6243902 61.5487805c-1.254878-.2390244-.8365853-1.4939025-.8365853-4.4219512-.2987805.1792683-.5378049.4182927-.5378049.657317 0 2.9280488-.4780488 4.242683.8365854 4.4219513 1.254878.2987804 3.5853658 0 4.5414634-.5378049.1792683-.1195122.2390244-.2987805.2987805-.597561-.8963415.5378049-3.1073171.7768293-4.3024391.4780488z" fill="#43a347"/><g fill="#4c4c4c" transform="translate(0 81.268293)"><path d="m.29878049 15.297561v-14.70000002h5.31829268c5.07926833 0 7.40975613 3.70487804 7.40975613 7.1707317 0 3.76463412-2.2707317 7.52926832-7.40975613 7.52926832zm1.67317073-1.7329269h3.64512195c3.94390244 0 5.67682923-2.9280487 5.67682923-5.85609751 0-2.68902439-1.79268289-5.55731708-5.67682923-5.55731708h-3.64512195z"/><path d="m19.7195122 15.4768293c-2.7487805 0-4.4817073-1.8524391-4.4817073-4.7804878v-5.7365854h1.6134146v5.6768293c0 2.0914634 1.195122 3.3463414 3.2268293 3.3463414 1.9121951 0 3.2865853-1.4939024 3.2865853-3.4658536v-5.5573171h1.6134147v10.3378049h-1.4341464l-.1195122-1.792683-.2390243.2987805c-.8963415 1.0756098-2.0317074 1.6134147-3.4658537 1.6731708z"/><path d="m32.6865854 15.4768293c-2.6890244 0-5.3780488-1.6731708-5.3780488-5.3182927 0-3.22682928 2.1512195-5.3182927 5.3780488-5.3182927 1.4341463 0 2.6292683.47804878 3.704878 1.49390244l-1.0158536 1.01585366c-.7170732-.65731707-1.6731708-1.01585366-2.6292683-1.01585366-2.2707317 0-3.8243903 1.55365854-3.8243903 3.82439026 0 2.6292683 1.9121951 3.8243902 3.8243903 3.8243902 1.0756097 0 2.0317073-.3585366 2.7487805-1.0756097l1.0158536 1.0158536c-1.0756097 1.0158537-2.3902439 1.5536586-3.8243902 1.5536586z"/><path d="m45.1756098 15.297561-5.0792683-5.0792683v5.0792683h-1.5536586v-14.70000002h1.5536586v8.90365853l4.4219512-4.54146341h2.0914634l-4.9 4.8402439 5.497561 5.4378049v.0597561z"/><path d="m49.1195122 15.297561v-14.70000002h5.3182927c5.0792683 0 7.4097561 3.70487804 7.4097561 7.1707317 0 3.76463412-2.2707317 7.52926832-7.4097561 7.52926832zm1.7329268-1.7329269h3.645122c3.9439024 0 5.6768292-2.9280487 5.6768292-5.85609751 0-2.68902439-1.7926829-5.55731708-5.6768292-5.55731708h-3.645122z"/><path d="m68.5402439 15.4768293c-2.7487805 0-4.4817073-1.8524391-4.4817073-4.7804878v-5.7365854h1.6134146v5.6768293c0 2.0914634 1.195122 3.3463414 3.2268293 3.3463414 1.9121951 0 3.2865854-1.4939024 3.2865854-3.4658536v-5.5573171h1.6134146v10.3378049h-1.4341464l-.0597561-1.792683-.2390243.2987805c-.8963415 1.0756098-2.0914635 1.6134147-3.5256098 1.6731708z"/><path d="m81.5073171 15.4768293c-2.6890244 0-5.3780488-1.6731708-5.3780488-5.3182927 0-3.22682928 2.1512195-5.3182927 5.3780488-5.3182927 1.4341463 0 2.6292683.47804878 3.704878 1.49390244l-1.0158536 1.01585366c-.7170732-.65731707-1.6731708-1.01585366-2.6292683-1.01585366-2.2707317 0-3.8243903 1.55365854-3.8243903 3.82439026 0 2.6292683 1.9121951 3.8243902 3.8243903 3.8243902 1.0756097 0 2.0317073-.3585366 2.7487805-1.0756097l1.0158536 1.0158536-.0597561.0597561c-1.0158536 1.0158537-2.2707317 1.4939025-3.7646341 1.4939025z"/><path d="m93.9963415 15.297561-5.0195122-5.0792683v5.0792683h-1.5536586v-14.70000002h1.5536586v8.90365853l4.4219512-4.54146341h2.0317073l-4.8402439 4.8402439 5.4378049 5.4378049v.0597561z"/><path d="m104.334146 15.5365854c-5.6768289 0-7.6487801-4.0634147-7.6487801-7.46951223 0-2.27073171.7768292-4.24268293 2.1512195-5.67682927 1.3743906-1.37439024 3.2865856-2.09146341 5.4975606-2.09146341 2.031708 0 3.884147.77682927 5.318293 2.15121951l-.956098 1.13536585c-1.135365-1.07560975-2.808536-1.73292683-4.362195-1.73292683-4.12317 0-5.9756094 3.22682927-5.9756094 6.21463415 0 2.92804883 1.8524394 5.91585363 6.0353654 5.91585363 1.493903 0 2.928049-.5378048 4.063415-1.4939024l.059756-.0597561v-3.64512196h-4.601219v-1.49390244h6.154878v5.7365854c-1.613415 1.7329268-3.465854 2.5097561-5.736586 2.5097561z"/><path d="m117.360976 15.4768293c-3.107317 0-5.318293-2.2109756-5.318293-5.3182927 0-3.10731709 2.270732-5.43780489 5.318293-5.43780489 3.167073 0 5.378048 2.21097561 5.378048 5.43780489-.059756 3.047561-2.270731 5.3182927-5.378048 5.3182927zm0-9.32195125c-2.210976 0-3.764635 1.61341463-3.764635 3.94390245 0 2.2109756 1.553659 3.8243902 3.764635 3.8243902 2.210975 0 3.764634-1.5536585 3.82439-3.8243902-.059756-2.27073172-1.613415-3.94390245-3.82439-3.94390245z"/><path d="m123.833604 15.6947633c.155556-.0640523.233334-.1281046.233334-.2562092s-.077778-.1921568-.155556-.2562091-.233333-.0640523-.466667-.0640523c-.233333 0-.388888 0-.466666.0640523v1.0248366h.311111v-.448366h.155555c.155556 0 .233334.0640522.233334.1921568.077778.1281046.077778.1921569.077778.2562092h.311111c0-.0640523-.077778-.1281046-.077778-.2562092s-.077778-.1921568-.155556-.2562091zm-.388889-.0640523h-.155555v-.3202615h.155555c.155556 0 .233334.0640523.233334.1281046.077778.1281046 0 .1921569-.233334.1921569z"/><path d="m123.396341 14.6402439c-.537804 0-1.015853.4182927-1.015853.9560976 0 .5378048.418292 1.0158536 1.015853 1.0158536.537805 0 1.015854-.4182927 1.015854-1.0158536 0-.5378049-.418293-.9560976-1.015854-.9560976zm0 1.7926829c-.418292 0-.776829-.3585366-.776829-.7768292 0-.4182927.298781-.7768293.776829-.7768293.418293 0 .77683.3585366.77683.7768293 0 .4182926-.358537.7768292-.77683.7768292z"/></g></g></g></g></svg>