<svg fill="none" height="308" viewBox="0 0 225 308" width="225" xmlns="http://www.w3.org/2000/svg"><path d="m224.1 223.663h-223.675394v-223.66291226h223.675394z" fill="#fcd0af"/><g fill="#3e474f"><path d="m57.6322 116.723c0 10.562 2.8175 11.737 14.8525 12.187v3.863h-47.8363v-3.863c9.9513-.45 12.7738-1.625 12.7738-12.187v-68.9253c0-10.5625-2.8225-11.75-12.4763-12.1875v-3.8625h84.3801l.601 22.275h-4.162c-3.563-11.2875-7.4309-14.85-27.1897-14.85h-15.31c-4.5937 0-5.6337 1.0375-5.6337 5.2v31.95h7.5387c15.7513 0 19.17-2.8375 21.0988-13.3875h3.8625v35.6625h-3.8625c-2.075-11.8875-8.0225-14.85-21.0988-14.85h-7.5387v32.9753zm147.2498-84.9753h-88.55l-2.055 22.2875h5.079c3.241-10.9125 8.007-14.8625 18.666-14.8625h12.481v77.5503c0 10.562-2.822 11.737-14.258 12.187v3.863h48.731v-3.863c-11.441-.45-14.263-1.625-14.263-12.187v-77.5503h12.475c10.664 0 15.435 3.95 18.672 14.8625h5.073z"/><path d="m8.4725 261.185c0 2.7.7275 3 3.8037 3.125v.963h-12.2461974v-.963c2.5437474-.125 3.2712474-.425 3.2712474-3.125v-17.65c0-2.712-.7275-3.012-3.2037463-3.125v-.987h21.6212963l.1462 5.7h-1.0638c-.9137-2.888-1.9-3.8-6.9625-3.8h-3.9212c-1.1775 0-1.445.262-1.445 1.337v8.175h4.4188c4.0325 0 4.9062-.725 5.4-3.425h.9912v9.138h-.9912c-.5325-3.05-2.0563-3.813-5.4-3.813h-4.4188zm25.4975 0c0 2.7.7175 3 3.8038 3.125v.963h-12.7888v-.963c3.0912-.125 3.8038-.425 3.8038-3.125v-17.65c0-2.712-.7126-3.012-3.8038-3.125v-.987h12.7888v.987c-3.0863.113-3.8038.413-3.8038 3.125zm30.4788-16.925c0-2.512-.6888-3.537-3.5063-3.85v-.987h9.1312v.987c-2.8125.313-3.4962 1.338-3.4962 3.85v21.65h-1.2937l-17.6513-20.4v14.95c0 2.513.6787 3.538 3.4962 3.85v.963h-9.1362v-.963c2.8175-.312 3.5013-1.337 3.5013-3.85v-17.412c-.8738-1.538-1.905-2.263-3.5013-2.638v-.987h7.0413l15.415 17.812zm13.8087 11.75 3.8812-10.237 3.8476 10.237zm18.53 9.263v-.963c-1.9387.038-2.4313-.8-3.4219-3.237l-9.0975-22.263h-1.25l-9.4775 23.063c-.6487 1.6-1.5237 2.087-3.1587 2.437v.963h8.2175v-.963c-1.7875 0-2.6613-.387-2.6613-1.637 0-1.063 1.1825-3.925 1.48-4.763h9.365c.3025.838 1.5575 3.7 1.5575 4.763 0 1.25-.9475 1.637-2.7387 1.637v.963zm25.0775-21.013c0-2.512-.682-3.537-3.496-3.85v-.987h9.131v.987c-2.817.313-3.505 1.338-3.505 3.85v21.65h-1.29l-17.657-20.4v14.95c0 2.513.684 3.538 3.501 3.85v.963h-9.1359v-.963c2.8179-.312 3.5059-1.337 3.5059-3.85v-17.412c-.878-1.538-1.908-2.263-3.5059-2.638v-.987h7.0409l15.41 17.812.002-12.975zm32.671 14.938c-2.705 4.612-6.245 6.712-11.611 6.712-8.409 0-13.394-5.525-13.394-13.787 0-5.888 4.644-13.313 13.663-13.313 2.7 0 6.537 1.525 7.114 1.525.757 0 .986-.412 1.602-1.525h1.289l.536 8.638h-1.142c-1.528-4-4.223-6.888-8.754-6.888-6.09 0-8.75 6.588-8.75 11.563 0 6.975 3.002 11.65 9.437 11.65 5.02 0 7.799-3.725 8.98-5.363zm12.53 1.987c0 2.7.728 3 3.808 3.125v.963h-12.788v-.963c3.087-.125 3.809-.425 3.809-3.125v-17.65c0-2.712-.722-3.012-3.809-3.125v-.987h12.788v.987c-3.08.113-3.808.413-3.808 3.125zm14.404-5.175 3.881-10.237 3.844 10.237zm18.535 9.263v-.963c-1.944.038-2.436-.8-3.423-3.237l-9.097-22.263h-1.254l-9.477 23.063c-.65 1.6-1.524 2.087-3.16 2.437v.963h8.217v-.963c-1.786 0-2.66-.387-2.66-1.637 0-1.063 1.181-3.925 1.484-4.763h9.36c.303.838 1.558 3.7 1.558 4.763 0 1.25-.952 1.637-2.739 1.637v.963zm2.261 0v-.963c2.475-.112 3.198-.425 3.198-3.125v-17.65c0-2.712-.723-3.012-3.198-3.125v-.987h11.948v.987c-2.851.113-3.579.413-3.579 3.125v18.15c0 1.563.459 2.088 3.35 2.088 4.644 0 7.383-.838 9.59-5.4h.991l-1.749 6.9zm-196.56225 40.775c2.93875-.125 3.65625-.425 3.65625-3.125v-19.863h-3.1925c-3.0075 0-4.19 1.213-5.025 4.713h-1.1425l.609999-6.613h22.676201l.61 6.613h-1.1475c-.83-3.5-2.0112-4.713-5.0137-4.713h-3.1988v19.863c0 2.7.7225 3 3.6475 3.125v.962h-12.47995zm29.83375-3.125c0 2.7.7275 3 3.8088 3.112v.975h-12.7888v-.975c3.0913-.112 3.8087-.412 3.8087-3.112v-17.663c0-2.7-.7174-3-3.8087-3.112v-1h12.7888v1c-3.0813.112-3.8088.412-3.8088 3.112zm30.9713-21.763h8.9062v.988c-2.475.112-3.1925.412-3.1925 3.112v17.663c0 2.7.7175 3 3.1925 3.125v.962h-11.645v-.962c2.5487-.125 3.2763-.425 3.2763-3.125v-18.188h-.0788l-8.6375 22.6h-1.1812l-8.4425-22.6h-.0776v17.463c0 2.512.6825 3.537 3.5 3.85v.962h-9.1299v-.962c2.8125-.313 3.4962-1.338 3.4962-3.85v-17.575c0-1.788-.7575-2.475-3.4962-2.475v-.988h9.3987l6.885 17.95zm12.5787 25.85v-.962c2.47-.125 3.1925-.425 3.1925-3.125v-17.663c0-2.7-.7225-3-3.1925-3.112v-.988h21.6095l.152 5.7h-1.0596c-.9175-2.887-1.9088-3.8-6.9669-3.8h-3.9163c-1.1862 0-1.4449.263-1.4449 1.325v8.188h4.4087c4.0331 0 4.9069-.725 5.4056-3.425h.99v9.125h-.99c-.5375-3.038-2.0562-3.8-5.4056-3.8h-4.4087v8.95c0 1.55.4537 2.087 5.02 2.087 4.6381 0 7.3818-.837 9.5877-5.412h.988l-1.749 6.912h-22.2199zm27.3335-8.125h.996c1.099 3.425 4.376 7 8.184 7 3.267 0 4.448-2.275 4.448-4.3 0-5.937-13.393-7.037-13.393-14.412-.001-3.575 3.462-6.625 7.417-6.625 3.881 0 5.249 1.362 6.968 1.362.722 0 1.177-.562 1.367-1.362h.991v8.212h-.991c-1.065-3.725-3.726-6.462-7.232-6.462-2.886 0-3.96 1.862-3.96 3.625 0 5.275 13.4 5.437 13.4 14.525-.001 4.062-3.346 7.187-7.995 7.187-4.565 0-5.743-1.587-7.534-1.587-.679 0-1.143.45-1.29 1.287h-1.376z"/></g></svg>