<svg width="49" height="48" viewBox="0 0 49 48" fill="none" xmlns="http://www.w3.org/2000/svg">
<g clip-path="url(#clip0_2535_2047)">
<path d="M48.7112 0H0.711243V48H48.7112V0Z" fill="#4E868E"/>
<path d="M27.2184 19.2693C24.569 19.2693 22.6178 21.2855 22.6178 23.9804C22.6178 26.5517 24.2398 28.6908 27.3 28.6908C28.7786 28.6908 30.1757 28.0946 30.9561 27.1899C31.0995 27.025 31.2023 26.8395 31.2023 26.6341C31.2053 26.5283 31.1866 26.423 31.1475 26.3246C31.1084 26.2263 31.0496 26.1369 30.9748 26.0621C30.9 25.9873 30.8107 25.9286 30.7125 25.8896C30.6142 25.8506 30.509 25.832 30.4034 25.8352C30.1571 25.8352 29.9315 25.9794 29.7669 26.1436C29.0893 26.7818 28.4522 27.1521 27.3843 27.1521C25.68 27.1521 24.7144 26.0818 24.6122 24.6626H30.7524C31.3073 24.6626 31.4918 24.3335 31.4918 24.0044C31.4897 21.37 29.806 19.2693 27.2184 19.2693ZM24.6513 23.0956C24.8358 21.8206 25.8008 20.8122 27.2184 20.8122C28.6147 20.8122 29.5385 21.8611 29.7032 23.0956H24.6513Z" fill="#EAEAEF"/>
<path d="M36.3866 19.2693C33.7989 19.2693 32.1179 21.37 32.1179 24.001C32.1179 24.3301 32.3024 24.6591 32.8573 24.6591H38.9982C38.8953 26.0784 37.9297 27.148 36.2254 27.148C35.1575 27.148 34.5204 26.7784 33.8428 26.1402C33.6789 25.976 33.4526 25.8318 33.2063 25.8318C33.1002 25.8283 32.9945 25.8467 32.8958 25.8858C32.797 25.9249 32.7074 25.9839 32.6323 26.0591C32.5572 26.1343 32.4983 26.2242 32.4592 26.323C32.4202 26.4219 32.4018 26.5278 32.4053 26.6341C32.4053 26.8402 32.5082 27.025 32.6515 27.1899C33.432 28.0946 34.8283 28.6908 36.3076 28.6908C39.3678 28.6908 40.9899 26.5517 40.9899 23.9804C40.9871 21.2855 39.0359 19.2693 36.3866 19.2693ZM33.9011 23.0956C34.0657 21.8591 34.9895 20.8122 36.3858 20.8122C37.8035 20.8122 38.7684 21.8206 38.9536 23.0956H33.9011Z" fill="#EAEAEF"/>
<path d="M18.1414 19.248C16.959 19.248 15.9001 19.8162 15.1923 20.7072C14.4852 19.8141 13.427 19.248 12.2432 19.248C10.1171 19.248 8.39158 21.0802 8.39158 23.3313V27.7965C8.38826 27.9175 8.40914 28.0379 8.45306 28.1506C8.49698 28.2633 8.56303 28.366 8.64727 28.4528C8.73146 28.5395 8.83222 28.6084 8.94353 28.6555C9.05479 28.7026 9.17436 28.7268 9.29518 28.7268C9.41594 28.7268 9.53556 28.7026 9.64682 28.6555C9.75809 28.6084 9.85884 28.5395 9.94308 28.4528C10.0273 28.366 10.0933 28.2633 10.1372 28.1506C10.1812 28.0379 10.2021 27.9175 10.1987 27.7965V23.3313C10.1987 22.0783 11.1157 21.0588 12.2432 21.0588C13.3707 21.0588 14.287 22.0776 14.2877 23.3306V27.7958C14.2877 28.0358 14.3828 28.266 14.5522 28.4358C14.7216 28.6056 14.9513 28.701 15.1909 28.7012C15.371 28.701 15.5469 28.6472 15.6964 28.5467C15.7204 28.5301 15.7437 28.513 15.765 28.4944C15.8677 28.4094 15.9505 28.3027 16.0073 28.182C16.064 28.0612 16.0935 27.9293 16.0935 27.7958V23.3306C16.0935 22.0776 17.0105 21.0588 18.1379 21.0588C19.2654 21.0588 20.1845 22.0783 20.1845 23.3313V27.7965C20.1845 28.0366 20.2797 28.2669 20.4492 28.4367C20.6187 28.6065 20.8486 28.7019 21.0884 28.7019C21.3281 28.7019 21.558 28.6065 21.7276 28.4367C21.8971 28.2669 21.9923 28.0366 21.9923 27.7965V23.3313C21.993 21.0802 20.2647 19.248 18.1414 19.248Z" fill="#EAEAEF"/>
</g>
<defs>
<clipPath id="clip0_2535_2047">
<rect x="0.711243" width="48" height="48" rx="3" fill="white"/>
</clipPath>
</defs>
</svg>
