<?xml version="1.0" encoding="utf-8"?>
<!-- Generator: Adobe Illustrator 25.2.1, SVG Export Plug-In . SVG Version: 6.00 Build 0)  -->
<svg version="1.1" id="Layer_1" xmlns="http://www.w3.org/2000/svg" xmlns:xlink="http://www.w3.org/1999/xlink" x="0px" y="0px"
	 viewBox="0 0 315.02 93.63" style="enable-background:new 0 0 315.02 93.63;" xml:space="preserve">
<style type="text/css">
	.st0{fill:#0751A3;}
	.st1{fill:#20D3FF;}
	.st2{fill:#1851FF;}
	.st3{fill:#160866;}
	.st4{fill:#FFFFFF;}
</style>
<g>
	<path class="st0" d="M54.15,53.53c-1.13-2.47-2.59-4.72-4.31-6.73c-1.99,2.33-4.34,4.33-7.01,5.92c0,0,0,0,0,0
		c-0.05,0.03-0.11,0.07,0,0c0.11,0.32,0.23,0.64,0.36,0.96c0.47,1.17,1.03,2.26,1.67,3.26c0.09,0.24,0.19,0.47,0.3,0.7
		c1.11,2.44,1.67,5.03,1.67,7.64c0,1.98-0.34,3.96-0.99,5.88c-0.06,0.19-0.11,0.38-0.18,0.57c-1.72,4.61-5.13,8.27-9.61,10.31
		c-4.47,2.04-9.48,2.22-14.09,0.5c-4.61-1.72-8.27-5.13-10.31-9.61c-2.04-4.47-2.22-9.48-0.5-14.09c0.8-2.14,1.98-4.07,3.45-5.74
		c1.69-1.92,3.76-3.48,6.16-4.57c3.56-1.62,7.48-1.97,11.2-1.3c0-0.16-0.02-0.31-0.02-0.47c0-0.11,0.01-0.22,0.02-0.33
		c0.03-2.99,0.56-6.01,1.59-8.98c-5.68-1.06-11.54-0.38-16.9,2.07c-0.72,0.33-1.4,0.7-2.08,1.07c-2.94,1.64-5.51,3.77-7.66,6.28
		c-2.13,2.49-3.86,5.34-5.04,8.51c-1.2,3.23-1.8,6.58-1.8,9.92c0,4,0.86,7.99,2.57,11.75c3.14,6.88,8.77,12.13,15.86,14.77
		c7.09,2.65,14.78,2.37,21.66-0.77c6.88-3.14,12.13-8.78,14.78-15.86c0.07-0.18,0.11-0.37,0.18-0.56c1.12-3.19,1.65-6.49,1.6-9.78
		C56.63,61,55.8,57.15,54.15,53.53"/>
	<path class="st1" d="M20.74,48.54c-2.39,1.09-4.47,2.66-6.16,4.57c1.23,0.68,2.51,1.31,3.85,1.81c4.91,1.83,10.11,2.23,15.13,1.28
		c-1.01-2.86-1.57-5.88-1.62-8.97C28.18,46.49,24.29,46.92,20.74,48.54"/>
	<path class="st1" d="M56.64,28.76c0.04-3.3-0.47-6.6-1.6-9.77c-0.28-0.79-0.58-1.58-0.94-2.35C50.96,9.75,45.33,4.5,38.24,1.86
		c-7.09-2.65-14.78-2.37-21.66,0.77C9.7,5.77,4.45,11.4,1.8,18.49C0.6,21.71,0,25.06,0,28.4c0,4,0.86,8,2.57,11.75
		c1.13,2.47,2.59,4.72,4.31,6.73c2.15-2.51,4.72-4.64,7.66-6.28c-1.19-1.35-2.19-2.88-2.96-4.57c-2.04-4.47-2.22-9.48-0.5-14.08
		c1.72-4.61,5.13-8.27,9.61-10.31c4.47-2.04,9.48-2.22,14.09-0.5c4.61,1.72,8.27,5.13,10.31,9.61c0.26,0.56,0.48,1.14,0.68,1.72
		c0.66,1.92,0.99,3.92,0.99,5.92c0,2.17-0.39,4.35-1.17,6.45c-0.24,0.64-0.6,1.42-0.99,2.22c-0.65,1.04-1.2,2.15-1.63,3.32
		c0,0.01,0,0.01-0.01,0.02c-0.13,0.3-0.2,0.49-0.16,0.53c0,0.02-0.01,0.03-0.01,0.05c0,0,0,0,0.01,0
		c-1.32,3.95-1.24,8.06,0.02,11.75c2.68-1.59,5.03-3.59,7.02-5.92c0,0,0,0,0,0c2.13-2.49,3.85-5.34,5.03-8.5
		c1.16-3.1,1.72-6.32,1.77-9.54C55.24,29.04,55.26,29.03,56.64,28.76"/>
	<path class="st2" d="M86.01,35.04c-3.14-6.88-8.77-12.13-15.86-14.77c-4.9-1.83-10.09-2.23-15.1-1.29c1.12,3.17,1.64,6.47,1.6,9.77
		c3.33-0.67,6.78-0.42,10.04,0.79c4.61,1.72,8.27,5.13,10.31,9.61c1.11,2.44,1.67,5.03,1.67,7.64c0,2.17-0.39,4.35-1.17,6.45
		c-1.72,4.61-5.13,8.27-9.61,10.31c-3.55,1.62-7.44,2.05-11.19,1.3c0.05,3.29-0.48,6.59-1.6,9.78c5.68,1.06,11.54,0.38,16.9-2.07
		c6.88-3.14,12.13-8.78,14.78-15.86C89.42,49.62,89.15,41.93,86.01,35.04"/>
	<path class="st2" d="M42.8,52.73c0,0,0.01,0,0.01-0.01c-1.26-3.7-1.32-7.92,0.01-11.89c-0.01,0-0.01-0.01-0.02-0.01
		c0.56-1.73,2-3.89,2.79-6c0.78-2.1,1.17-4.28,1.17-6.45c0-2-0.34-3.99-0.99-5.92c-5.54,3.28-9.78,8.31-12.06,14.43
		c-0.07,0.19-0.12,0.37-0.18,0.56c-1.04,2.97-1.56,5.99-1.59,8.98c0,0.11-0.01,0.22-0.01,0.33c0,0.16,0.02,0.31,0.02,0.47
		c0.05,3.08,0.61,6.11,1.62,8.97c2.17,6.14,6.43,11.51,12.26,14.96c0.65-1.92,0.99-3.9,0.99-5.88c0-2.6-0.51-5.19-1.64-7.62
		C44.54,56.3,43.53,53.32,42.8,52.73"/>
	<path class="st3" d="M119.09,0.13c0.64,0.09,1.22,0.25,1.74,0.48c0.51,0.23,1.01,0.57,1.48,1c0.47,0.43,1.01,1.01,1.61,1.73
		l44.47,56.23c-0.17-1.8-0.3-3.54-0.39-5.24c-0.09-1.69-0.13-3.29-0.13-4.79V0h19.15v93.63H175.7c-1.67,0-3.09-0.26-4.24-0.77
		c-1.16-0.51-2.27-1.46-3.34-2.83l-44.15-55.78c0.13,1.63,0.24,3.22,0.32,4.79c0.09,1.57,0.13,3.03,0.13,4.4v50.19h-19.15V0h11.44
		C117.65,0,118.44,0.04,119.09,0.13"/>
	<path class="st3" d="M287.75,93.63h-16.84c-1.89,0-3.44-0.44-4.66-1.32c-1.22-0.88-2.07-2-2.54-3.37l-5.53-16.32h-35.6l-5.53,16.32
		c-0.43,1.2-1.26,2.28-2.51,3.24c-1.24,0.96-2.76,1.45-4.56,1.45h-16.97L229.27,0h22.23L287.75,93.63z M227.6,57.84h25.57
		l-8.61-25.64c-0.56-1.63-1.21-3.54-1.96-5.75c-0.75-2.21-1.49-4.59-2.22-7.16c-0.68,2.61-1.39,5.03-2.12,7.26
		c-0.73,2.23-1.41,4.16-2.06,5.78L227.6,57.84z"/>
	<rect x="293.17" y="0" class="st3" width="21.85" height="93.63"/>
</g>
</svg>
