<svg height="100" viewBox="0 0 260 100" width="260" xmlns="http://www.w3.org/2000/svg"><g fill="none" fill-rule="evenodd"><path d="m0 0h260v100h-260z" fill="#f8f8f8"/><g fill="#000" transform="translate(79 10)"><path d="m60.9474909 34.2088727c-.0610909 1.0632728-.0174545 2.1367273-.0174545 3.2087273 0 .7214545-.5454546 1.2305455-1.2843637 1.1869091-.7898182-.0436364-1.2290909-.5192727-1.2290909-1.3018182 0-1.4327273.0261818-2.8741818-.0174545-4.3069091-.0189091-.5178182.1134545-.8712727.5629091-1.1083636.0872727-.0436364.1570909-.1221818.2618181-.2109091.3258182.2909091.6065455.6065454.9512728.8276364.6589091.4116363.816.976.7723636 1.7047272m-2.4872727 6.32v-2.0916363c.8174545.6065454 1.6349091.6065454 2.4698182-.0087273v2.0829091c-.4130909-.1221818-.8174546-.3330909-1.2218182-.3330909-.4218182.0087272-.8261818.2196363-1.248.3505454m2.4698182 6.752c-.0087273 1.3352728-1.1869091 2.2152728-2.5047273 1.856v-6.9629091-.4829091c0-.6778181.2370909-.9774545.9221818-1.152.5192727-.1410909 1.3105455.1221819 1.5301818.5265455.0523637.096.0610909.2196364.0610909.3330909 0 1.9621818.0087273 3.9229091-.0087272 5.8821818m4.1236363-15.9025454c.3258182-.2370909.6065455-.528.9047273-.7912728-.0349091-.0436363-.0712727-.0974545-.096-.1410909-.5192727.1847273-.8087273.7301819-1.3018182.9672728-.8610909-.7650909-1.7134545-1.5214546-2.5745454-2.2763637-1.1796364.9396364-2.3301819 1.8632728-3.4821819 2.7869091-.034909-.0261818-.0712727-.0450909-.1047272-.0712727v-2.5134546c-.0872728.0174546-.1410909.0174546-.1410909.0261819-.0436364 6.5672727-.0785455 13.1243636-.1236364 19.6916363-.6763636-.1323636-1.3367273-.2647272-2.0218182-.4043636v-.5192727-15.7352728c0-1.0196363-.2632727-1.952-1.1505454-2.576-1.7410909-1.2305454-4.2909091-.448-5.0647273 1.5825455-.1396364.3607273-.1847273.7650909-.2632727 1.152.0436363.0087273.0785454.0261818.1236363.0349091.0174546-.0610909.0349091-.1236364.0610909-.1847273.3156364-.8698182.7912728-1.2567273 1.4327273-1.1694545.6065455.08 1.072.6501818 1.0894546 1.504.034909 1.6261818 0 3.2523636 0 4.8785454 0 .0261818-.0261819.0436364-.0334546.0610909-.4145454.0887273-.8189091.1410909-1.2058182.2632728-1.7134545.528-2.4349091 2.4174545-1.4850909 3.8690909.3781818.5803636 1.0283637.9134545 1.5461818.7825454-.3505454-.2545454-.64-.528-.4916363-1.0210909.1585454-.5090909.5716363-.6138182 1.0196363-.6749091.0625455-.0101818.1149091-.0189091.176-.0189091.3607273-.0174545.5090909.1061818.5090909.5090909-.016 2.3738182-.016 4.7476364 0 7.1214546 0 .2734545-.0785454.3956363-.3330909.5178182-.9323636.4494545-1.7236363 1.0647272-2.0567272 2.1018181-.704 2.1992728.976 4.4843637 3.3309091 4.5629091 1.3716363.0436364 2.6981818-.2283636 4.034909-.4843636 1.3018182-.2443636 2.6109091-.5090909 3.9301819-.6414545 1.0458181-.1047273 1.5563636.8625454 1.0109091 1.776-.1498182.256-.3781819.4756363-.624.7738181.914909-.1934545 1.6712727-.5178181 2.2778181-1.1243636 1.4138182-1.4065455 1.1243637-3.5869091-.5818181-4.6152727-.861091-.5192728-1.792-.6152728-2.7505455-.4741818-1.776.2618181-3.5432727.6065454-5.3192727.8596363-.8625455.1236364-1.7498182.176-2.6109091.1236364-.7461818-.0523637-1.2043637-.8698182-1.0458182-1.6.1570909-.7389091.7563636-1.2218182 1.6785455-1.3716364 1.3367272-.2196363 2.6545454-.0261818 3.9650909.2370909 1.2581818.2545455 2.4872727.6429091 3.7541818.8436364 1.1956363.1847273 2.3650909-.0247273 3.1476363-1.0894546.509091-.6938181.5265455-1.5374545.5265455-2.3563636.0087273-4.7912727.0087273-9.5810909 0-14.3723636-.0174545-.352.0523636-.5978182.3432727-.8"/><path d="m31.9552 9.52421818c.7112727-.33454545 1.424-.65018182 2.2152727-1.00218182v.96727273c0 2.15418181-.0087272 4.29818181.0087273 6.45236361 0 .3781818-.0887273.5978182-.448.7301818-.2734545.096-.528.2458182-.8174545.3767273-.6952728-.8785454-1.117091-1.8632727-1.389091-2.9090909-.386909-1.4414545-.256-2.8654545.1847273-4.28218181.0436364-.12218182.1309091-.28072727.2458182-.33309091m2.9527273-3.80654545c-.2458182.05236363-.4305455.07854545-.6065455.13963636-3.5592727 1.20581818-6.7243636 4.79127271-6.0741818 9.49527271.5541818 3.9636364 3.824 7.0676364 7.824 7.1650909 3.4996364.0872728 6.928-1.9345454 7.7541818-6.2341818.096-.5178182.0872727-1.0545454.1309091-1.5898182-.0436364 0-.0785454-.0101818-.1221818-.0101818-.6778182 1.4952727-1.6712727 2.7083636-3.1025455 3.6930909 0-1.7410909-.0101818-3.376.0072728-5.0196363 0-.1236364.1410909-.2821819.2458181-.3694546.5192728-.4392727 1.056-.8610909 1.6-1.3105454-.5527272-.448-1.0807272-.8436364-1.5723636-1.2829091-.1498182-.1323637-.2734545-.3781819-.2807273-.58036367-.0276363-1.02836364-.0189091-2.048-.0101818-3.07636364 0-.12218182.0174546-.25454545.0261818-.36945454 1.8196364-.19345455 2.9454546-1.00218182 3.3236364-2.38254546.3694545-1.31781818.0610909-2.47854545-.7912727-3.16363636-.7287273-.56290909-2.3214546-1.08218182-3.0763637-.67781818.3869091.10618181.8261819.18472727 1.2305455.34327272.4654545.18472728.7912727.72.7214545 1.10690909-.0974545.49309091-.4145454.84363637-.9061818.88872728-.4654545.04363636-.976.05236363-1.424-.07127273-1.5650909-.42181818-3.104-.92218182-4.6589091-1.37163636-1.0021818-.28945455-2.0058182-.544-3.0603636-.31563637-1.9781818.41309091-3.2698182 1.94327273-3.1985455 3.824.0436364 1.18690909.7723637 2.20654546 1.696 2.42618182-.1236363-.30690909-.3432727-.64145455-.3781818-.98472727-.0974545-1.072.8261818-1.86327273 1.9781818-1.6 2.7607273.63272727 5.4938182 1.35418182 8.2807273 2.048 0 1.07345454-.0087273 2.18036363.0087273 3.29745454.0087273.31563633-.096.51781823-.3345455.70254543-.5178182.3956364-1.0196363.8174546-1.5461818 1.2494546.5527273.4567272 1.0545455.8785454 1.5738182 1.2741818.2196364.1672727.3156364.3432727.3069091.624-.0174546 1.5214545-.0174546 3.0501818 0 4.5716364 0 .272-.0785455.4305454-.3258182.5527272-2.3549091 1.1709091-5.1069091.7650909-7.0327273-1.4414545 1.4778182-.7374546 2.9105455-1.4676364 4.352-2.1701818.2734546-.1323637.3869091-.2734546.3869091-.5890909-.0174545-2.4887273-.0087273-4.98472732-.0087273-7.47200005 0-.12363636-.0174545-.23854545-.034909-.40581818-1.9432728.87127273-3.8414546 1.71490909-5.741091 2.55854546l-.1221818-.12218182c.4029091-.61527273.7563637-1.28436364 1.2392728-1.82981818.4741818-.55272728 1.0996363-.98472728 1.7221818-1.52"/><path d="m23.3508364 70.6222545c-.3432728-1.3890909-.2196364-2.7607272.2370909-4.1047272.0625454-.176.2370909-.3607273.4043636-.4494546.6501818-.3243636 1.3192727-.6065454 2.0654546-.9309091v6.8829091c0 1.1781818-.061091 1.2567273-1.2916364 1.6174546-.72-.8887273-1.1432727-1.9170909-1.4152727-3.0152728m9.1956363 4.3941819v-.4654546c0-1.4225454.0087273-2.8392727-.0087272-4.2618182-.0087273-.3534545.114909-.5643636.386909-.7665454.509091-.3781818.9934546-.8 1.5025455-1.2130909-.5803636-.4741818-1.1156364-.896-1.6436364-1.3454546-.0974545-.0872727-.2196363-.2196363-.2283636-.3330909-.0174545-1.1956363-.0087273-2.4014545-.0087273-3.6145454 1.5374546-.1570909 2.7694546-.6938182 3.3047273-2.2050909.4043636-1.1432728.3956364-2.2938182-.5541818-3.1738182-.9221818-.8625455-2.0654546-1.152-3.3745455-.9061818.5003637.1410909.9570909.2283636 1.3789091.4058181.4756364.2007273.7214546.6589091.6778182 1.0807273-.0436364.4305455-.3694545.7825455-.8974545.896-.2894546.0625455-.624.0974546-.9047273.0261818-1.3541818-.3505454-2.6996364-.7461818-4.0436364-1.1330909-1.1781818-.3432727-2.3301818-.8174545-3.5869091-.7301818-1.9607272.1323636-3.9563636 1.5389091-3.7890909 4.0363636.0712727 1.1156364.8261818 2.1352728 1.6087273 2.2763637-.0974546-.3796364-.3243636-.8174546-.2981818-1.248.0610909-.9672728.9221818-1.5578182 1.9854545-1.328 1.424.3069091 2.832.7127272 4.2458182 1.072 1.328.3345454 2.656.6414545 4.0101818.976 0 1.1781818.0087273 2.3650909-.0101818 3.552 0 .1309091-.1221818.2894545-.2269091.3781818-.528.4392727-1.0647273.8698182-1.6363636 1.3265454.5541818.4567273 1.0981818.88 1.6087272 1.3367273.141091.1236364.2545455.352.2545455.5352727.0189091 1.5403637 0 3.0778182.0189091 4.6167273 0 .272-.0887273.4305455-.3258182.544-1.328.6414546-2.7170909.8349091-4.1410909.4407273-1.1243636-.3170909-2.0916364-.9512727-2.9003636-1.872.176-.0887273.2981818-.16.4305454-.2210909 1.3192727-.6589091 2.6370909-1.3367273 3.9650909-1.9781818.2632728-.1309091.352-.2734546.352-.5629091-.0101818-2.4436364-.0101818-4.896-.0101818-7.3396364v-.5614545c-1.9767273.8770909-3.8763636 1.7221818-5.7745454 2.5658181-.045091-.0436363-.0785455-.0785454-.1236364-.1236363.4130909-.6152727.7563636-1.2843637 1.248-1.8283637.4930909-.5527272 1.1170909-.9832727 1.7410909-1.52-.2370909.0523637-.4305455.0785455-.6065455.1396364-3.8414545 1.3178182-6.848 5.1607273-6.0305454 9.8370909.9672727 5.5127273 7.2349091 8.7650909 12.3069091 5.5563637 1.9694545-1.2392728 2.928-3.1301819 3.2698182-5.3716364.0625454-.3956364.0538181-.8.0712727-1.1941818-.0349091-.0101818-.0712727-.0189091-.1061818-.0189091-.7025455 1.4938182-1.6872728 2.7432727-3.1374546 3.7178182"/><path d="m14.3742545 33.2244364c1.1956364-.1934546 2.2152728-.5890909 2.8829091-1.6261819.6952728-1.0807272.8450909-2.4698181.3083637-3.2174545-.3607273 1.0807273-.9221818 1.6174545-1.8109091 1.6261818-.9236364.0174546-1.6698182-.4218182-2.3287273-1.0458182-1.1083636 1.2654546-2.1905454 2.4872728-3.2712727 3.7265455-.0610909.0712727-.0610909.2036364-.0872727.3083636.034909.0174546.0785454.0261818.1134545.0436364.3170909-.352.6429091-.7112727.9672727-1.0807273.7389091.6589091 1.5476364 1.1432727 2.5410909 1.1956364.3592728.0174545.4305455.1396363.4305455.4741818-.0087273 2.656-.0087273 5.3003636 0 7.9563636v.9658182c-.1149091-.1570909-.1585455-.2181818-.1934546-.2705454-1.5738181-2.8581819-3.138909-5.7149091-4.71127268-8.5716364-.62545455-1.1432727-1.22327273-2.304-1.91709091-3.4021818-.80872727-1.2756364-2.17163636-1.8210909-3.42836364-1.4603637-1.76727272.5003637-2.58472727 2.1541819-2.29527272 4.1934546 0 .0174545.04363636.0261818.04363636.0261818.14981818-.3156364.27345454-.6414545.44072727-.9396364.21963637-.386909.58036364-.5192727 1.01090909-.4407272.53672728.0974545 1.39781818.9410909 1.41527273 1.4865454.03490909 1.1069091.00872727 2.2152728.00872727 3.3236364-2.50618182.4218182-3.49818181 1.2203636-3.40218182 2.7592727.06109091 1.0821818.76509091 2.4087273 2.09309091 2.4523637-.12363636-.157091-.26472727-.3069091-.35345454-.4829091-.18327273-.3418182-.18327273-.7563637.14109091-.9498182.36945454-.2196364.83490909-.2807273 1.26690909-.3694546.06109091-.0087272.24581818.2283637.24581818.352.02618182.6589091.00872727 1.3178182.00872727 1.9781819v2.6458181c-.29963636.0261819-.56290909.0538182-.81745454.0785455-2.11054546.176-3.61309091 1.68-3.67418182 3.6581818-.06254546 2.048 2.05672727 3.7614546 3.92872727 3.2261818-.33454545-.1410909-.72-.2545454-1.05454545-.4494545-.704-.4029091-.976-1.1243637-.73018182-1.7832727.28218182-.7301819 1.01963636-1.1883637 1.79345454-1.0123637.432.0974546.85381819.2923637 1.23927273.5105455.29090909.1672727.528.4407272.81745455.6865454 1.152-1.2741818 2.29527272-2.5323636 3.42981818-3.7992727-.03636364-.0334545-.07127273-.0770909-.10618182-.1134545-.448.1672727-.624.6676363-1.01963636.9236363-.95854546-1.0196363-2.14545455-1.6349091-3.51709091-1.8821818v-11.3832727c.12363636.2109091.19490909.3330909.26472727.4567272 2.83054546 5.152 5.66109091 10.2938182 8.48290911 15.4443637.1498182.2821818.352.4770909.6414545.3607273.1149091-.0436364.1847273-.3505455.1847273-.5454546.0087273-4.4829091.0087273-8.9658182.0087273-13.4487273.0087272-.8610909.0087272-1.7236363.0087272-2.5847272"/><path d="m27.0418909 38.2976c.7825455.6065455 1.1156364 1.3890909 1.1069091 2.3636364-.0087273 1.9083636-.0261818 3.808.0087273 5.7149091.0087272.5803636-.1309091.9672727-.6414546 1.2407272-.2370909.1221818-.4305454.3243637-.6414545.4916364.0436363.0625454.0872727.1149091.1323636.176.4218182-.2996364.8436364-.5978182 1.2567273-.8887273.9585454.7912727 1.8807273 1.5563637 2.8218182 2.3476364 1.0370909-.8174546 2.048-1.6189091 3.0763636-2.4349091 1.0370909.816 2.0654546 1.6261818 3.0865455 2.4349091.0698181-.0261818.1221818-.0450909.1658181-.0785455 1.9083637-1.1709091 3.808-2.3476363 5.7061819-3.5345454.1323636-.0785455.2283636-.3243637.2283636-.4930909.0174545-2.0916364 0-4.192.0261818-6.2850909 0-.2109091.1221818-.4741819.2807273-.624.6690909-.6327273 1.3716364-1.2218182 2.0581818-1.8283637-.0436364-.0698182-.0698182-.1061818-.096-.1323636-.3796364.2734545-.7578182.5367273-1.1447273.8174545-.8698181-.7112727-1.7309091-1.424-2.6007272-2.1352727-.9672728.8872727-1.8909091 1.7309091-2.8392728 2.6021818.2807273.272.5352728.5352727.8174546.7723637.2283636.1847272.2894545.4058181.2894545.6865454-.0087272 2.5934546-.0087272 5.1869091 0 7.7803636 0 .3345455-.0785454.5629091-.4392727.6414546-.6865455-.5629091-1.3629091-1.1432727-2.0654545-1.696-.2385455-.1847273-.3083637-.3781818-.3083637-.6676364.0087273-1.8472727.0436364-3.6945454-.0087273-5.5403636-.0261818-.8174546.096-1.4938182.7738182-2.0029091.0872728-.0625455.1396364-.176.2196364-.2821818-.8712727-.7738182-1.7236364-1.52-2.5847273-2.2850909-.9585454.8436363-1.8909091 1.6698182-2.8218182 2.496.2458182.2545454.448.5018182.6938182.704.2909091.2458182.3956364.5178182.3956364.9047272-.0174546 2.3563637-.0261818 4.7214546 0 7.0778182.0101818.4552728-.1585455.7025455-.5541818.8683637-.5701819-.4567273-1.1330909-.9221819-1.7221819-1.3701819-.210909-.1585454-.2821818-.3258181-.2821818-.5890909.0101818-2.3461818 0-4.6850909.0101818-7.0327272 0-.6414546-.2210909-1.1781819-.6865454-1.6-.2807273-.256-.5963636-.4654546-.9047273-.6938182-.3607273-.2734546-.7563636-.5105455-1.0821818-.8174546-.7825455-.7127272-.7723636-1.5825454 0-2.3214545.08-.0698182.1934545-.096.2909091-.1498182-.0349091-.0523636-.08-.096-.1134546-.1498182-.2385454.0450909-.4843636.0712728-.7214545.1323637-1.4327273.4043636-2.4610909 1.776-2.4276364 3.2174545.0101819.9498182.528 1.6174546 1.2407273 2.1629091"/><path d="m61.4929455 76.0881455c-.3781819-.413091-.7636364-.8261819-1.133091-1.2654546-.08-.0974545-.114909-.2647273-.114909-.3970909-.0087273-2.1701818-.0087273-4.3330909.0087272-6.5032727 0-.1672728.1221818-.3781818.2545455-.4930909.3083636-.2807273.6516363-.5192728.976-.7825455-.0261818-.0523636-.0610909-.0974545-.0872727-.1498182-.5018182.1672728-.8363637.6341818-1.328.88-.7898182-.88-1.581091-1.7585454-2.3825455-2.6545454-1.1505455.9134545-2.2676364 1.792-3.4021818 2.6981818-.8247273-.896-1.616-1.7498182-2.4087273-2.6021818-1.1156364.8712727-2.1978182 1.7149091-3.2872727 2.5672727-.8261818-.8712727-1.6174546-1.7047273-2.4261818-2.5585455-1.1432728.9934546-2.2501819 1.9592728-3.3585455 2.9352728-.0610909.0538182-.0523636.1847272-.0785454.2734545.0261818.0087273.0610909.0261818.0872727.0349091.352-.2981818.7112727-.5978182 1.0734545-.896.4552728.5105455.9047273.976 1.3003637 1.4763636.1585454.1949091.2807272.4843637.2807272.7301819.0261819 1.5985454-.0174545 3.1912727.0261819 4.7912727.0276363.72-.061091 1.3178182-.7287273 1.7221818-.0174546.0087273-.0261818.0436364-.0610909.0887273.8349091.9396363 1.6698182 1.8909091 2.5309091 2.8567273.88-.9047273 1.7061818-1.757091 2.5498181-2.6283637-.1934545-.2123636-.386909-.4567273-.624-.6501818-.3258181-.2647273-.4232727-.5716364-.4232727-.9949091.0189091-2.0901818.0276364-4.1934545-.0072727-6.2850909-.0087273-.5527273.1221818-.9323636.6850909-1.1694545.5018182.5818181 1.0109091 1.1432727 1.4850909 1.7338181.1498182.1818182.256.4654546.256.7025455.0174546 1.6261818-.0189091 3.2523636.0174546 4.8770909.0174545.6429091-.0625455 1.1883636-.624 1.5665455-.0189091.0072727-.0189091.0523636-.045091.114909.7752728.8683637 1.5563637 1.7483637 2.3389091 2.6181819.8625455-.8610909 1.6974546-1.6974546 2.5585455-2.5570909-.2109091-.2298182-.4581818-.4407273-.6414546-.6952728-.1236363-.176-.256-.3956363-.256-.6065454-.034909-2.1978182-.0087272-4.3956364-.0698181-6.5934546-.0174546-.5876363.2021818-.9323636.7287272-1.1781818.5192728.5716364 1.0647273 1.152 1.5665455 1.7512727.1309091.1570909.2370909.4029091.2458182.6138182.016 1.6436364-.0087273 3.2785455.016 4.9236364.0101818.5963636-.0421818 1.1258182-.5789091 1.4938182-.0174546.0087272-.0087273.0538181-.0276364.0974545.8625455.9309091 1.7338182 1.872 2.6123637 2.8290909 1.202909-1.1141818 2.3636363-2.1890909 3.5243636-3.2610909-.0261818-.0334545-.0523636-.0698182-.0698182-.1047273-.4218182-.0087272-.5629091.528-.9585454.6501819"/><path d="m47.5589818 22.0334545c.9323637-.5367272 3.6669091-2.8392727 3.6741818-3.1650909-.3330909.2458182-.6327272.4669091-.992.7301819-.2109091-.237091-.432-.4581819-.6065454-.704-.1061818-.1498182-.2210909-.3505455-.2210909-.5352728-.0174546-2.304-.0072728-4.5978182 0-6.9018182 0-.1570909.0538182-.3607272.1498182-.4654545.272-.2821818.5890909-.5192727.9047272-.7912727.4669091.5890909.9338182 1.1345454 1.3556364 1.7061818.1396364.192.2370909.4654545.2370909.7025454.0174545 2.1803637.0261818 4.368 0 6.5483637-.0101818.8625454-.0625455 1.7323636-.176 2.5847273-.2021818 1.5927272-1.0545455 2.690909-2.6021818 3.2174545-.0698182.0276364-.1323637.0625455-.2458182.1149091 2.4.6589091 5.1258182-.8436364 5.9694545-3.2087273.413091-1.1607273.3592728-2.3650909.3767273-3.5607273.0363637-2.3025454.0087273-4.5978181.0363637-6.9003636 0-.1847273.1221818-.4043636.2545454-.5367273.2632727-.2545454.5789091-.4654545.8872727-.7025454-.0523636-.0712727-.096-.1323637-.1047272-.1323637-.3970909.2458182-.7912728.4916364-1.1970909.7476364-.8523637-.94981817-1.7032728-1.89090908-2.5658182-2.84799999-1.0909091.93090909-2.1541818 1.84581818-3.3149091 2.83927269v-9.70618178c-1.4501818 1.11709091-2.7941818 2.16290909-4.2283637 3.27127273.7476364.25454545.8538182.78254545.8436364 1.39781818-.0087273 3.79781818 0 7.58545457-.0087273 11.38472727 0 .6138182.1672728 1.3178182-.0785454 1.8196364-.2370909.4829091-.9047273.7461818-1.3803637 1.1069091-.0785454.0610909-.1672727.1236363-.2370909.1934545-.0261818.0349091-.0261818.096-.0698181.2894545.402909-.2545454.7025454-.448 1.0021818-.6414545.7985454.7389091 1.5738182 1.4414545 2.3374545 2.1454545"/><path d="m70.7060364 37.2770909c.08.0261818.1410909.0261818.176.0610909.8349091.7738182 1.6785454 1.5476364 2.5061818 2.3389091.1047273.096.2007273.2632727.2007273.4043636.0087272 2.5498182 0 5.0996364 0 7.648 0 .0087273-.0072728.0261819-.0523637.1061819-.9221818-.8349091-1.8196363-1.6538182-2.7170909-2.4698182-.0610909-.0625455-.1047273-.1774546-.1047273-.2734546-.0087272-2.5934545-.0087272-5.1869091-.0087272-7.8152727m-3.3134546 8.2283636c.016.765091-.1410909 1.3352728-.8101818 1.7236364-.0698182.0334546-.1047273.1221818-.1570909.1847273.0261818.0436363.0610909.0872727.0872727.1309091.4058182-.0974546.6065455-.5367273 1.0109091-.7214546 1.1432727.96 2.2778182 1.9170909 3.376 2.8407273 1.9592727-1.0894545 3.8763636-2.1541818 5.7832727-3.2363636.1149091-.0698182.1949091-.3069091.1949091-.4654546.0087273-1.9941818.0421818-3.9825454-.0101818-5.9781818-.016-.7810909.0712727-1.4327273.7912727-1.872.0887273-.0523636.1149091-.1934545.176-.2894545-.0349091-.0276364-.0785454-.061091-.1134545-.0887273-.3432727.2996363-.6850909.5978182-1.0283636.9061818-1.152-1.0021818-2.2952728-1.9694545-3.4036364-2.9629091-.2269091-.2021818-.3694546-.1672727-.5963636-.0349091-1.6538182.9047273-3.3149091 1.8021818-4.976 2.6807273-.2545455.1323636-.352.2632727-.3432728.5541818 0 2.1978182-.0334545 4.4130909.0189091 6.6283636"/><path d="m80.1207273 76.9162182c-.6152728-1.1607273-1.3541818-2.0145455-2.576-2.2690909-1.2741818-.272-2.2501818.2545454-3.0778182 1.1694545.4407273-1.072 2.7781818-3.2 4.3447273-4.6065454.3941818.3345454.7912727.6676363 1.1854545 1.0196363.0712727.0698182.1236364.2021818.1236364.2981818.0087272 1.4254546 0 2.8407273 0 4.3883637m-2.8145455-10.5498182c1.9883637 2.0843636 2.7956364 2.2414545 4.6167273.9483636-.1061818.6429091-2.2516364 2.8843637-3.376 3.7105455-.3781818-.3243636-.7476364-.6327273-1.0996364-.9570909-.0698182-.0625455-.1309091-.1672727-.1309091-.256-.0101818-1.1418182-.0101818-2.2763637-.0101818-3.4458182m5.6276364 4.2894545c-.624-.5352727-1.2829091-1.0443636-1.9345455-1.5825454.1585455-.192.2821818-.3505455.4145455-.5090909.6763636-.8698182 1.2989091-1.7672727 1.5549091-2.8654546.1236363-.5454545.1323636-1.0909091-.1672728-1.6610909-.130909 1.7396364-1.8807272 1.9156364-2.7854545 1.1243637-.2210909-.1847273-.432-.3781819-.5905455-.5192728-1.6974545.9847273-3.3483636 1.9432728-4.992 2.9192728-.114909.0698181-.2036363.2734545-.2036363.4218181-.0174546 1.0123637-.0247273 2.0218182 0 3.0327273.0087273.1847273.1323636.4145455.2734545.5454546.5701818.5629091 1.1767273 1.0894545 1.8196364 1.68-.2458182.2181818-.4829091.3941818-.6763636.6138181-.5367273.6327273-1.1272728 1.2407273-1.565091 1.9432728-.6341818 1.0109091-.5454545 2.0654545.157091 3.0414545.4654545.6516364 1.2756363 1.0458182 1.890909.9498182-.1410909-.0785455-.2647272-.1498182-.386909-.2298182-.5003637-.3141818-.7461819-.8072727-.5978182-1.2029091.176-.4567272.8174545-.8261818 1.3454545-.624.5789091.2283637 1.1083637.6065455 1.6523637.9134546-.0087273.0450909-.0087273.0887272-.0174546.1323636.0523636-.0261818.096-.0538182.1483636-.0872727 1.5665455-.976 3.1301819-1.9432727 4.6865455-2.9367273.1221818-.08.2370909-.2909091.2370909-.4407273.0174546-1.3890909.0174546-2.7869091 0-4.1745454-.0174545-.1498182-.1323636-.3694546-.2632727-.4843637"/><path d="m93.8011636 47.0781091c-.2472727-.2647273-.4407272-.528-.6865454-.7301818-.3854546-.3069091-.4567273-.6865455-.4567273-1.1607273.0174546-5.5025455.0087273-11.0152727.0087273-16.5178182 0-.1221818-.0174546-.2458182-.0261818-.4392727-1.4850909 1.0458182-2.9192728 2.0567273-4.4218182 3.1127273.5876363.1134545.88.4218181.9847273.8610909.1134545.4654545.1847272.9483636.1847272 1.424.0174546 4.0436363-.0087272 8.0872727.0247273 12.1221818.0087273.6065454-.1396364 1.0283636-.64 1.3629091-.2996364.2021818-.5643636.4669091-.8261818.7214545-.08.0785455-.1236364.2007273-.176.2981818.0349091.0261819.0683636.0625455.1134545.0872728.3243637-.2705455.6501818-.544.9934546-.8247273.8087272.7549091 1.5912727 1.4938182 2.4 2.2589091 1.168-1.0210909 2.3287272-2.0218182 3.4807272-3.0327273.0436364-.0450909.0363637-.1498182.0436364-.2298182-.0349091-.016-.0610909-.0349091-.096-.0523636-.3170909.2458182-.6065454.4829091-.9047273.7389091"/><path d="m67.2357818 66.5767273c.8872727 1.504 1.7236364 2.928 2.6021818 4.4130909-.8610909.6341818-1.7061818 1.2494545-2.6021818 1.9083636zm2.5672727 10.0043636c-.8523636-.7912727-1.68-1.5549091-2.4872727-2.3301818-.2370909-.2283636-.1498182-.976.1236364-1.1767273.9309091-.6865454 1.8632727-1.3629091 2.7956363-2.048.7461819-.5541818 1.4938182-1.0996363 2.2487273-1.6625454-.9061818-1.5738182-1.7832727-3.1025455-2.6894545-4.6676364-.2370909.1410909-.448.2647273-.6589091.3869091-1.6101818.9221818-3.2174546 1.8545454-4.8436364 2.7505454-.2996363.1672728-.4145454.3258182-.4145454.669091.0174545 2.258909 0 4.5105454.0087272 6.7694545 0 .272-.0610909.4654545-.2981818.624-.2807273.1847273-.528.4218182-.7825454.6414545.0436363.0538182.08.1149091.1236363.1672728.3592728-.2647273.72-.5265455 1.1243637-.8189091 1.0210909.9236363 2.0305454 1.8298182 3.0327272 2.7534545.1774546.1658182.3083637.2181818.5192728.0523637 1.7934545-1.4327273 3.5956363-2.8581819 5.3890909-4.2909091.0610909-.0436364.08-.1396364.1134545-.2109091-.0334545-.0349091-.0698182-.0698182-.1047273-.1047273-1.0647272.8349091-2.128 1.6610909-3.2 2.496z"/><path d="m20.4481455 37.3650909c.896 1.52 1.730909 2.9541818 2.6021818 4.4305455-.8523637.6254545-1.7061818 1.2567272-2.6021818 1.9156363zm5.9330909 7.7192727c-.0872728-.08-.1221819-.1236363-.1221819-.1236363-1.0734545.7912727-2.1454545 1.5825454-3.2625454 2.4087272-.8247273-.7825454-1.6436364-1.538909-2.4436364-2.304-.2458182-.2370909-.176-.9658181.0974546-1.1781818.7112727-.5352727 1.4327272-1.0530909 2.1541818-1.5825454.9658182-.7112728 1.9243636-1.4138182 2.9003636-2.1352728-.9047272-1.5738181-1.7934545-3.1112727-2.6545454-4.624-1.8996364 1.0632728-3.7454546 2.1105455-5.6 3.1287273-.2632728.1425455-.3432728.2996364-.3432728.5803637.0087273 2.0058181-.034909 4.018909.0174546 6.0218181.0174545.8087273-.0698182 1.4690909-.8523636 1.856-.0523637.0247273-.1149091.0610909-.1323637.1134546-.0261818.0712727-.0174545.1585454-.0349091.3330909.4392728-.3505455.7912728-.6225455 1.152-.9047273 1.1170909 1.0123637 2.2065455 1.9956364 3.3221818 2.9978182 1.952-1.5287273 3.8778182-3.0589091 5.8021819-4.5876364z"/><path d="m61.5198545 10.0590545c.0276364-.0087272.0538182-.0261818.08-.034909.8436364 1.4327272 1.6872728 2.8654545 2.5498182 4.3345454-.8625454.6327273-1.7061818 1.248-2.6298182 1.9243636zm-3.154909 9.2043637c1.1170909 1.0021818 2.2065454 1.9956363 3.3061818 2.9803636 1.9505454-1.5476363 3.8763636-3.0763636 5.8007272-4.5978182-.0436363-.0523636-.0887272-.1149091-.1221818-.1672727-1.1170909.7476364-2.1105454 1.6610909-3.2363636 2.4610909-.8349091-.7825454-1.6610909-1.5374545-2.4698182-2.32-.2894545-.2734545-.1847273-.9498182.1410909-1.1956363.992-.7287273 1.9781818-1.4589091 2.9716364-2.1803637.6749091-.5003636 1.3527273-1.0021818 2.0392727-1.5127273-.9061818-1.5723636-1.7861818-3.10254541-2.6821818-4.65890905-.1570909.08872728-.2807273.15854546-.4043636.22981819-1.7134546.97454545-3.4196364 1.96799996-5.1418182 2.92654546-.256.1410909-.3432728.2821818-.3432728.5629091.0087273 2.2676363 0 4.544.0174546 6.8130909 0 .2981818-.0872727.4916364-.3170909.6589091-.272.1934545-.5265455.4130909-.7985455.624.0436364.0610909.0872728.1236363.1221818.176.3694546-.2545455.7374546-.528 1.117091-.8z"/><path d="m88.4274909 35.6420364c-1.2843636.8349091-1.4938182.8349091-2.7592727.0087272-.7301818.7127273-1.4690909 1.4327273-2.2167273 2.1629091-.624-.7563636-1.2654545-1.5214545-1.9156364-2.304-1.1607272 1.0385455-2.2690909 2.0407273-3.3774545 3.0414546-.0610909.0610909-.0770909.176-.1134545.2647272.0363636.0174546.0712727.0436364.1061818.061091.3243636-.272.6501818-.5541819 1.0109091-.8436364.3694545.4916364.72.9410909 1.0458181 1.3963636.0698182.0974546.0872728.2472728.0872728.3694546.0101818 2.1367272.0101818 4.2734545 0 6.4189091 0 .1483636-.096.3330909-.2007273.4378181-.3432727.3447273-.7214545.6429091-1.0647273.9861819-.08.0785454-.096.2181818-.1483636.3330909.1047273-.0436364.2283636-.0610909.3069091-.1309091.2632727-.2298182.5105454-.4669091.7650909-.704.9396364.8523636 1.8458182 1.68 2.768 2.5149091 1.2407273-1.0283637 2.4450909-2.0407273 3.6581818-3.0603637-.0610909-.0610909-.1134545-.1236363-.1134545-.1236363-.4058182.2734545-.8014546.5541818-1.232.8538182-.3505455-.3083637-.6763637-.6152728-1.0370909-.896-.2283637-.1847273-.3083637-.3883637-.3083637-.6778182.0087273-2.3563637 0-4.7112728 0-7.0763637 0-.1236363.0189091-.2458181.0363637-.3956363 1.5287272 1.1243636 2.1963636 1.2654545 3.1810909.6763636 1.0283636-.6152727 1.7061818-2.0829091 1.5214545-3.3134545"/><path d="m101.696 46.0341818c-.360727.3083637-.730182.624-1.090909.9323637-.043636-.0363637-.069818-.045091-.088727-.0712728-1.8094549-2.7330909-3.6116367-5.4589091-5.4225458-8.1934545-.176-.2632727-.0276364-.3767273.1323636-.5352727 1.1607273.7461818 2.3549091 1.2916363 3.6552727.5090909 1.2058185-.72 1.5738185-1.9592728 1.8298185-3.3483637-.632728.5265455-1.2130912.9498182-1.9781821.9309091-.7563636-.0174545-1.3454545-.4130909-1.8996364-.9134545-.1047272.1410909-.1934545.2632727-.272.3781818-1.1781818 1.7134545-2.338909 3.4283636-3.5330909 5.1258182-.2283636.3243636-.2036363.5352727-.0101818.8436363 1.2043637 1.8981819 2.3927273 3.8152728 3.5869091 5.7221819.4567273.7287272.9149091 1.4501818 1.3803636 2.1890909 1.2494546-1.0909091 2.4625455-2.1454546 3.6669095-3.2087273.077091-.0712727.113454-.1934546.165818-.2996364-.043637-.0087272-.088727-.0334545-.122182-.0610909"/><path d="m42.7258182 76.4417455c-.3781818-.432-.7563637-.8349091-1.0909091-1.2756364-.1396364-.1745455-.2458182-.4305455-.2458182-.6501818-.0174545-1.8196364.0349091-3.6305455-.0349091-5.4501818-.0261818-.8363637.1149091-1.4865455.8610909-1.917091.0887273-.0523636.1774546-.1221818.2196364-.2094545.0363636-.0625455.0101818-.16.0101818-.3170909-.4494545.3694545-.8101818.6676364-1.1869091.976-.8276363-.9585455-1.6189091-1.8821818-2.4363636-2.8305455-1.0807273.9483637-2.1352727 1.872-3.1898182 2.8029091-.0538182.0450909-.0363636.176-.0712727.3883637.3956363-.3432728.6865454-.5890909 1.0021818-.8538182.4218182.4930909.8261818.9323636 1.1869091 1.4167273.1410909.1934545.2472727.4654545.2472727.7025454.016 2.0654546 0 4.1309091.016 6.1978182 0 .3694545-.0785454.6414545-.3854545.8523636-.2385455.1585455-.4407273.3781818-.6516364.5701818.0450909.0538182.0887273.1149091.1323636.1687273.3694546-.2909091.7301819-.5803636 1.0996364-.8712727.7810909.9061818 1.5374545 1.776 2.3112727 2.6647273 1.1432728-1.0196364 2.2589091-2.0232728 3.376-3.0152728-.0349091-.0523636-.0712727-.1061818-.1061818-.16-.4305454.1512728-.6763636.5905455-1.0632727.8101819"/><path d="m38.5042909 64.0526545c.8610909-.7810909 1.7061818-1.5461818 2.5672727-2.3301818-.704-.7723636-1.3803636-1.5272727-2.0829091-2.3025454-.8625454.8-1.6974545 1.5665454-2.5410909 2.3389091.7127273.7912727 1.3716364 1.5301818 2.0567273 2.2938181"/></g></g></svg>