<?xml version="1.0" encoding="UTF-8"?>
<svg width="811px" height="222px" viewBox="0 0 811 222" version="1.1" xmlns="http://www.w3.org/2000/svg" xmlns:xlink="http://www.w3.org/1999/xlink">
    <title>20200729-OneTrust-RGB-Color</title>
    <g id="Page-1" stroke="none" stroke-width="1" fill="none" fill-rule="evenodd">
        <g id="20200729-OneTrust-RGB-Color">
            <path d="M6.929,199.528 L9.06,199.528 C11.051,199.528 12.541,199.135 13.53,198.349 C14.519,197.562 15.014,196.416 15.014,194.912 C15.014,193.395 14.599,192.272 13.771,191.549 C12.941,190.824 11.643,190.462 9.874,190.462 L6.929,190.462 L6.929,199.528 Z M21.552,194.682 C21.552,197.969 20.524,200.482 18.471,202.224 C16.416,203.964 13.495,204.835 9.707,204.835 L6.929,204.835 L6.929,215.697 L0.453,215.697 L0.453,185.156 L10.209,185.156 C13.913,185.156 16.729,185.954 18.658,187.548 C20.587,189.143 21.552,191.521 21.552,194.682 L21.552,194.682 Z" id="Fill-1" fill="#717592"></path>
            <path d="M35.932,198.714 L38.021,198.714 C40.068,198.714 41.579,198.373 42.554,197.69 C43.528,197.008 44.017,195.936 44.017,194.473 C44.017,193.024 43.519,191.994 42.522,191.382 C41.526,190.769 39.984,190.462 37.896,190.462 L35.932,190.462 L35.932,198.714 Z M35.932,203.979 L35.932,215.697 L29.456,215.697 L29.456,185.156 L38.355,185.156 C42.505,185.156 45.576,185.912 47.567,187.423 C49.559,188.934 50.555,191.229 50.555,194.306 C50.555,196.103 50.061,197.7 49.071,199.101 C48.083,200.5 46.683,201.597 44.873,202.391 C49.469,209.256 52.463,213.691 53.855,215.697 L46.669,215.697 L39.379,203.979 L35.932,203.979 L35.932,203.979 Z" id="Fill-2" fill="#717592"></path>
            <polygon id="Fill-3" fill="#717592" points="59.839 215.697 66.314 215.697 66.314 185.156 59.839 185.156"></polygon>
            <path d="M93.563,185.156 L100.102,185.156 L89.719,215.697 L82.658,215.697 L72.297,185.156 L78.835,185.156 L84.58,203.33 C84.9,204.403 85.231,205.652 85.572,207.08 C85.913,208.508 86.126,209.5 86.21,210.057 C86.362,208.775 86.885,206.534 87.776,203.33 L93.563,185.156" id="Fill-4" fill="#717592"></path>
            <path d="M121.021,202.996 C118.974,196.409 117.821,192.684 117.563,191.82 C117.306,190.957 117.122,190.274 117.011,189.772 C116.551,191.556 115.234,195.964 113.063,202.996 L121.021,202.996 Z M124.781,215.697 L122.567,208.428 L111.433,208.428 L109.219,215.697 L102.241,215.697 L113.021,185.031 L120.938,185.031 L131.759,215.697 L124.781,215.697 L124.781,215.697 Z" id="Fill-5" fill="#717592"></path>
            <path d="M150.714,190.107 C148.276,190.107 146.39,191.023 145.053,192.854 C143.716,194.686 143.047,197.237 143.047,200.511 C143.047,207.32 145.603,210.726 150.714,210.726 C152.858,210.726 155.456,210.189 158.506,209.117 L158.506,214.548 C155.999,215.593 153.2,216.115 150.108,216.115 C145.665,216.115 142.268,214.768 139.914,212.073 C137.56,209.378 136.384,205.51 136.384,200.469 C136.384,197.293 136.961,194.512 138.117,192.123 C139.273,189.734 140.934,187.903 143.1,186.629 C145.265,185.354 147.803,184.718 150.714,184.718 C153.681,184.718 156.66,185.435 159.654,186.869 L157.565,192.134 C156.424,191.591 155.274,191.117 154.119,190.713 C152.963,190.31 151.828,190.107 150.714,190.107" id="Fill-6" fill="#717592"></path>
            <polyline id="Fill-7" fill="#717592" points="176.647 197.732 183.019 185.156 189.996 185.156 179.864 203.811 179.864 215.697 173.431 215.697 173.431 204.02 163.299 185.156 170.317 185.156 176.647 197.732"></polyline>
            <path d="M201.724,211.206 C200.999,214.02 199.773,217.354 198.047,221.212 L193.451,221.212 C194.355,217.508 195.06,214.013 195.561,210.726 L201.41,210.726 L201.724,211.206" id="Fill-8" fill="#717592"></path>
            <path d="M241.807,207.216 C241.807,209.974 240.814,212.146 238.829,213.733 C236.845,215.321 234.084,216.115 230.547,216.115 C227.288,216.115 224.405,215.502 221.898,214.276 L221.898,208.261 C223.959,209.18 225.703,209.827 227.131,210.203 C228.559,210.579 229.864,210.768 231.048,210.768 C232.469,210.768 233.558,210.496 234.317,209.952 C235.076,209.409 235.456,208.602 235.456,207.529 C235.456,206.931 235.289,206.398 234.954,205.932 C234.62,205.465 234.129,205.016 233.481,204.584 C232.834,204.152 231.515,203.463 229.523,202.516 C227.656,201.639 226.257,200.796 225.324,199.988 C224.391,199.181 223.646,198.24 223.089,197.168 C222.532,196.096 222.253,194.843 222.253,193.408 C222.253,190.706 223.169,188.582 225,187.036 C226.831,185.49 229.362,184.718 232.594,184.718 C234.182,184.718 235.696,184.905 237.138,185.281 C238.579,185.657 240.086,186.188 241.66,186.869 L239.571,191.903 C237.941,191.235 236.595,190.769 235.529,190.504 C234.464,190.239 233.415,190.107 232.385,190.107 C231.159,190.107 230.22,190.393 229.564,190.964 C228.91,191.535 228.583,192.279 228.583,193.199 C228.583,193.771 228.715,194.268 228.979,194.692 C229.244,195.117 229.666,195.528 230.244,195.925 C230.821,196.322 232.189,197.036 234.349,198.066 C237.203,199.432 239.16,200.8 240.219,202.171 C241.276,203.543 241.807,205.225 241.807,207.216" id="Fill-9" fill="#717592"></path>
            <polyline id="Fill-10" fill="#717592" points="267.07 215.697 249.481 215.697 249.481 185.156 267.07 185.156 267.07 190.462 255.957 190.462 255.957 197.168 266.298 197.168 266.298 202.474 255.957 202.474 255.957 210.35 267.07 210.35 267.07 215.697"></polyline>
            <path d="M288.554,190.107 C286.116,190.107 284.229,191.023 282.893,192.854 C281.556,194.686 280.887,197.237 280.887,200.511 C280.887,207.32 283.442,210.726 288.554,210.726 C290.698,210.726 293.296,210.189 296.346,209.117 L296.346,214.548 C293.839,215.593 291.04,216.115 287.948,216.115 C283.505,216.115 280.107,214.768 277.754,212.073 C275.399,209.378 274.224,205.51 274.224,200.469 C274.224,197.293 274.801,194.512 275.957,192.123 C277.113,189.734 278.773,187.903 280.939,186.629 C283.104,185.354 285.643,184.718 288.554,184.718 C291.521,184.718 294.5,185.435 297.494,186.869 L295.405,192.134 C294.264,191.591 293.114,191.117 291.959,190.713 C290.803,190.31 289.668,190.107 288.554,190.107" id="Fill-11" fill="#717592"></path>
            <path d="M329.842,185.156 L329.842,204.918 C329.842,207.174 329.337,209.152 328.327,210.851 C327.317,212.55 325.858,213.853 323.95,214.757 C322.042,215.663 319.786,216.115 317.182,216.115 C313.255,216.115 310.205,215.109 308.032,213.097 C305.859,211.084 304.773,208.33 304.773,204.835 L304.773,185.156 L311.229,185.156 L311.229,203.853 C311.229,206.206 311.702,207.934 312.649,209.033 C313.596,210.134 315.163,210.684 317.35,210.684 C319.466,210.684 321.001,210.13 321.955,209.022 C322.909,207.916 323.387,206.179 323.387,203.811 L323.387,185.156 L329.842,185.156" id="Fill-12" fill="#717592"></path>
            <path d="M345.935,198.714 L348.023,198.714 C350.071,198.714 351.582,198.373 352.557,197.69 C353.531,197.008 354.02,195.936 354.02,194.473 C354.02,193.024 353.521,191.994 352.525,191.382 C351.529,190.769 349.987,190.462 347.898,190.462 L345.935,190.462 L345.935,198.714 Z M345.935,203.979 L345.935,215.697 L339.459,215.697 L339.459,185.156 L348.358,185.156 C352.508,185.156 355.579,185.912 357.57,187.423 C359.562,188.934 360.558,191.229 360.558,194.306 C360.558,196.103 360.063,197.7 359.074,199.101 C358.086,200.5 356.686,201.597 354.876,202.391 C359.472,209.256 362.466,213.691 363.858,215.697 L356.672,215.697 L349.382,203.979 L345.935,203.979 L345.935,203.979 Z" id="Fill-13" fill="#717592"></path>
            <polygon id="Fill-14" fill="#717592" points="369.841 215.697 376.316 215.697 376.316 185.156 369.841 185.156"></polygon>
            <polyline id="Fill-15" fill="#717592" points="397.926 215.697 391.449 215.697 391.449 190.546 383.156 190.546 383.156 185.156 406.219 185.156 406.219 190.546 397.926 190.546 397.926 215.697"></polyline>
            <polyline id="Fill-16" fill="#717592" points="422.563 197.732 428.934 185.156 435.911 185.156 425.779 203.811 425.779 215.697 419.346 215.697 419.346 204.02 409.214 185.156 416.232 185.156 422.563 197.732"></polyline>
            <path d="M467.221,192.029 C467.221,191.291 466.97,190.71 466.469,190.285 C465.968,189.86 465.32,189.647 464.526,189.647 C463.593,189.647 462.858,189.87 462.322,190.316 C461.786,190.762 461.518,191.396 461.518,192.217 C461.518,193.442 462.179,194.794 463.502,196.27 C464.7,195.602 465.619,194.943 466.26,194.296 C466.9,193.648 467.221,192.893 467.221,192.029 Z M459.722,206.84 C459.722,208.038 460.171,208.991 461.068,209.702 C461.967,210.412 463.119,210.768 464.526,210.768 C466.281,210.768 467.861,210.343 469.268,209.493 L462.333,202.6 C461.524,203.212 460.888,203.853 460.421,204.521 C459.954,205.189 459.722,205.963 459.722,206.84 Z M483.39,215.697 L475.514,215.697 L473.111,213.337 C470.451,215.189 467.443,216.115 464.087,216.115 C460.689,216.115 457.994,215.335 456.003,213.775 C454.012,212.216 453.016,210.105 453.016,207.445 C453.016,205.538 453.437,203.912 454.279,202.568 C455.122,201.225 456.567,199.967 458.614,198.797 C457.569,197.6 456.811,196.454 456.337,195.361 C455.863,194.268 455.627,193.073 455.627,191.778 C455.627,189.661 456.438,187.955 458.061,186.66 C459.683,185.365 461.853,184.718 464.567,184.718 C467.158,184.718 469.229,185.32 470.782,186.524 C472.335,187.729 473.111,189.342 473.111,191.36 C473.111,193.018 472.631,194.532 471.67,195.904 C470.709,197.276 469.156,198.582 467.012,199.821 L472.944,205.607 C473.934,203.979 474.79,201.882 475.514,199.319 L482.157,199.319 C481.655,201.199 480.967,203.035 480.089,204.824 C479.212,206.613 478.216,208.198 477.102,209.576 L483.39,215.697 L483.39,215.697 Z" id="Fill-17" fill="#717592"></path>
            <path d="M514.219,198.547 L526.335,198.547 L526.335,214.381 C524.371,215.021 522.522,215.471 520.789,215.729 C519.055,215.986 517.282,216.115 515.473,216.115 C510.862,216.115 507.343,214.761 504.912,212.052 C502.482,209.344 501.268,205.454 501.268,200.385 C501.268,195.455 502.677,191.611 505.497,188.854 C508.317,186.097 512.228,184.718 517.227,184.718 C520.36,184.718 523.383,185.345 526.293,186.598 L524.142,191.778 C521.913,190.664 519.595,190.107 517.186,190.107 C514.386,190.107 512.144,191.047 510.459,192.928 C508.773,194.808 507.931,197.335 507.931,200.511 C507.931,203.825 508.61,206.356 509.968,208.104 C511.325,209.852 513.3,210.726 515.89,210.726 C517.241,210.726 518.612,210.586 520.006,210.308 L520.006,203.937 L514.219,203.937 L514.219,198.547" id="Fill-18" fill="#717592"></path>
            <path d="M541.176,200.385 C541.176,203.797 541.823,206.366 543.118,208.094 C544.413,209.82 546.349,210.684 548.926,210.684 C554.093,210.684 556.676,207.251 556.676,200.385 C556.676,193.505 554.106,190.065 548.968,190.065 C546.391,190.065 544.448,190.933 543.139,192.666 C541.83,194.4 541.176,196.973 541.176,200.385 Z M563.465,200.385 C563.465,205.44 562.212,209.326 559.705,212.042 C557.198,214.757 553.605,216.115 548.926,216.115 C544.246,216.115 540.653,214.757 538.146,212.042 C535.64,209.326 534.387,205.427 534.387,200.343 C534.387,195.26 535.643,191.378 538.157,188.697 C540.671,186.017 544.274,184.676 548.968,184.676 C553.66,184.676 557.25,186.026 559.736,188.729 C562.222,191.431 563.465,195.315 563.465,200.385 L563.465,200.385 Z" id="Fill-19" fill="#717592"></path>
            <path d="M589.355,185.156 L595.895,185.156 L585.512,215.697 L578.451,215.697 L568.09,185.156 L574.628,185.156 L580.373,203.33 C580.693,204.403 581.024,205.652 581.365,207.08 C581.706,208.508 581.919,209.5 582.003,210.057 C582.155,208.775 582.678,206.534 583.569,203.33 L589.355,185.156" id="Fill-20" fill="#717592"></path>
            <polyline id="Fill-21" fill="#717592" points="619.467 215.697 601.878 215.697 601.878 185.156 619.467 185.156 619.467 190.462 608.354 190.462 608.354 197.168 618.694 197.168 618.694 202.474 608.354 202.474 608.354 210.35 619.467 210.35 619.467 215.697"></polyline>
            <path d="M634.453,198.714 L636.542,198.714 C638.59,198.714 640.101,198.373 641.075,197.69 C642.05,197.008 642.538,195.936 642.538,194.473 C642.538,193.024 642.04,191.994 641.044,191.382 C640.048,190.769 638.506,190.462 636.417,190.462 L634.453,190.462 L634.453,198.714 Z M634.453,203.979 L634.453,215.697 L627.978,215.697 L627.978,185.156 L636.877,185.156 C641.026,185.156 644.098,185.912 646.089,187.423 C648.08,188.934 649.076,191.229 649.076,194.306 C649.076,196.103 648.582,197.7 647.593,199.101 C646.604,200.5 645.204,201.597 643.395,202.391 C647.99,209.256 650.984,213.691 652.377,215.697 L645.19,215.697 L637.9,203.979 L634.453,203.979 L634.453,203.979 Z" id="Fill-22" fill="#717592"></path>
            <path d="M685.453,215.697 L677.223,215.697 L663.937,192.593 L663.749,192.593 C664.014,196.674 664.146,199.584 664.146,201.325 L664.146,215.697 L658.359,215.697 L658.359,185.156 L666.527,185.156 L679.792,208.03 L679.938,208.03 C679.729,204.062 679.625,201.256 679.625,199.612 L679.625,185.156 L685.453,185.156 L685.453,215.697" id="Fill-23" fill="#717592"></path>
            <path d="M710.217,202.996 C708.169,196.409 707.017,192.684 706.759,191.82 C706.501,190.957 706.317,190.274 706.206,189.772 C705.746,191.556 704.43,195.964 702.258,202.996 L710.217,202.996 Z M713.977,215.697 L711.763,208.428 L700.628,208.428 L698.414,215.697 L691.437,215.697 L702.216,185.031 L710.133,185.031 L720.954,215.697 L713.977,215.697 L713.977,215.697 Z" id="Fill-24" fill="#717592"></path>
            <path d="M754.03,215.697 L745.8,215.697 L732.514,192.593 L732.326,192.593 C732.591,196.674 732.723,199.584 732.723,201.325 L732.723,215.697 L726.937,215.697 L726.937,185.156 L735.104,185.156 L748.369,208.03 L748.516,208.03 C748.307,204.062 748.202,201.256 748.202,199.612 L748.202,185.156 L754.03,185.156 L754.03,215.697" id="Fill-25" fill="#717592"></path>
            <path d="M776.83,190.107 C774.393,190.107 772.506,191.023 771.169,192.854 C769.832,194.686 769.163,197.237 769.163,200.511 C769.163,207.32 771.719,210.726 776.83,210.726 C778.975,210.726 781.572,210.189 784.622,209.117 L784.622,214.548 C782.115,215.593 779.316,216.115 776.225,216.115 C771.781,216.115 768.384,214.768 766.03,212.073 C763.676,209.378 762.5,205.51 762.5,200.469 C762.5,197.293 763.077,194.512 764.233,192.123 C765.39,189.734 767.05,187.903 769.216,186.629 C771.381,185.354 773.919,184.718 776.83,184.718 C779.797,184.718 782.776,185.435 785.771,186.869 L783.682,192.134 C782.54,191.591 781.391,191.117 780.235,190.713 C779.079,190.31 777.944,190.107 776.83,190.107" id="Fill-26" fill="#717592"></path>
            <polyline id="Fill-27" fill="#717592" points="810.847 215.697 793.258 215.697 793.258 185.156 810.847 185.156 810.847 190.462 799.733 190.462 799.733 197.168 810.074 197.168 810.074 202.474 799.733 202.474 799.733 210.35 810.847 210.35 810.847 215.697"></polyline>
            <path d="M64.131,125.917 C49.863,125.917 38.859,121.342 31.425,112.319 C23.917,103.211 20.11,89.563 20.11,71.757 C20.11,54.196 23.917,40.673 31.425,31.563 C38.861,22.54 49.927,17.965 64.315,17.965 C78.637,17.965 89.576,22.506 96.83,31.461 C104.16,40.514 107.876,54.071 107.876,71.757 C107.876,89.626 104.144,103.292 96.785,112.375 C89.5,121.361 78.515,125.917 64.131,125.917 Z M64.315,0.934 C44.051,0.934 28.167,7.196 17.105,19.548 C6.084,31.85 0.497,49.354 0.497,71.573 C0.497,93.972 6.068,111.598 17.055,123.961 C28.086,136.377 43.926,142.673 64.131,142.673 C83.909,142.673 99.593,136.268 110.75,123.635 C121.857,111.057 127.489,93.603 127.489,71.757 C127.489,49.85 121.873,32.396 110.795,19.877 C99.67,7.307 84.032,0.934 64.315,0.934 L64.315,0.934 Z" id="Fill-28" fill="#6ABF4B"></path>
            <path d="M201.465,34.945 C194.327,34.945 187.748,36.375 181.913,39.197 C176.893,41.625 172.776,44.949 169.644,49.1 L167.427,36.788 L152.21,36.788 L152.21,140.829 L170.532,140.829 L170.532,86.32 C170.532,73.602 172.89,64.414 177.541,59.009 C182.133,53.67 189.562,50.963 199.622,50.963 C207.134,50.963 212.684,52.846 216.117,56.561 C219.582,60.31 221.338,66.167 221.338,73.969 L221.338,140.829 L239.66,140.829 L239.66,73.416 C239.66,60.145 236.402,50.304 229.976,44.165 C223.568,38.047 213.976,34.945 201.465,34.945" id="Fill-29" fill="#6ABF4B"></path>
            <path d="M308.107,50.778 C315.695,50.778 321.346,53.119 325.383,57.934 C329.207,62.496 331.25,69.114 331.464,77.62 L281.86,77.62 C282.857,69.436 285.532,62.912 289.821,58.213 C294.388,53.21 300.369,50.778 308.107,50.778 Z M308.292,34.945 C294.368,34.945 283.109,39.964 274.827,49.865 C266.612,59.685 262.446,73.066 262.446,89.638 C262.446,106.125 266.943,119.22 275.812,128.56 C284.699,137.924 296.961,142.673 312.255,142.673 C319.149,142.673 325.13,142.15 330.032,141.119 C334.936,140.088 340.196,138.368 345.667,136.005 L346.579,135.612 L346.579,118.686 L344.474,119.587 C334.084,124.032 323.43,126.286 312.808,126.286 C302.971,126.286 295.266,123.348 289.907,117.554 C284.752,111.983 281.886,103.756 281.378,93.084 L350.911,93.084 L350.911,81.896 C350.911,67.939 347.062,56.516 339.471,47.943 C331.832,39.318 321.342,34.945 308.292,34.945 L308.292,34.945 Z" id="Fill-30" fill="#6ABF4B"></path>
            <polyline id="Fill-31" fill="#6ABF4B" points="359.41 19.993 402.085 19.993 402.085 140.829 420.776 140.829 420.776 19.993 463.451 19.993 463.451 3.053 359.41 3.053 359.41 19.993"></polyline>
            <path d="M526,34.945 C519.395,34.945 513.249,36.83 507.734,40.549 C503.083,43.687 498.968,47.994 495.471,53.379 L493.917,36.788 L478.403,36.788 L478.403,140.829 L496.726,140.829 L496.726,85.122 C496.726,75.651 499.53,67.645 505.062,61.323 C510.619,54.972 517.106,51.884 524.893,51.884 C527.963,51.884 531.576,52.338 535.628,53.231 L537.209,53.581 L539.78,36.372 L538.38,36.082 C534.73,35.327 530.565,34.945 526,34.945" id="Fill-32" fill="#6ABF4B"></path>
            <path d="M623.572,91.39 C623.572,104.05 621.227,113.242 616.601,118.71 C612.04,124.104 604.628,126.839 594.574,126.839 C587.063,126.839 581.512,124.955 578.079,121.241 C574.615,117.494 572.859,111.637 572.859,103.833 L572.859,36.788 L554.351,36.788 L554.351,104.385 C554.351,117.599 557.595,127.393 563.99,133.498 C570.364,139.586 580.003,142.673 592.639,142.673 C599.956,142.673 606.578,141.29 612.32,138.563 C617.285,136.205 621.371,132.908 624.499,128.744 L626.471,140.829 L641.894,140.829 L641.894,36.788 L623.572,36.788 L623.572,91.39" id="Fill-33" fill="#6ABF4B"></path>
            <path d="M707.919,80.48 C699.307,77.267 693.424,74.787 690.432,73.111 C687.569,71.509 685.484,69.825 684.235,68.104 C683.034,66.449 682.449,64.479 682.449,62.079 C682.449,58.615 684.023,55.961 687.262,53.964 C690.691,51.85 695.944,50.778 702.875,50.778 C710.871,50.778 719.949,52.849 729.859,56.932 L731.227,57.496 L737.868,42.3 L736.465,41.702 C725.94,37.218 715.011,34.945 703.982,34.945 C692.042,34.945 682.475,37.442 675.547,42.367 C668.458,47.407 664.865,54.38 664.865,63.093 C664.865,67.95 665.91,72.207 667.973,75.744 C670.02,79.25 673.155,82.412 677.296,85.139 C681.334,87.801 688.181,90.938 697.632,94.459 C707.329,98.194 713.903,101.447 717.171,104.125 C720.241,106.643 721.734,109.562 721.734,113.049 C721.734,117.742 719.866,121.131 716.023,123.409 C711.978,125.808 706.035,127.024 698.359,127.024 C693.344,127.024 688.058,126.326 682.647,124.949 C677.219,123.57 672.066,121.656 667.335,119.259 L665.141,118.149 L665.141,135.684 L665.909,136.117 C673.599,140.467 684.392,142.673 697.99,142.673 C710.917,142.673 721.14,140.001 728.374,134.733 C735.758,129.356 739.503,121.627 739.503,111.759 C739.503,104.693 737.239,98.729 732.774,94.034 C728.361,89.397 720.227,84.962 707.919,80.48" id="Fill-34" fill="#6ABF4B"></path>
            <path d="M808.909,125.24 C807.497,125.652 805.544,126.057 803.103,126.442 C800.681,126.828 798.125,127.024 795.507,127.024 C790.877,127.024 787.358,125.593 784.747,122.646 C782.125,119.691 780.795,115.315 780.795,109.639 L780.795,51.7 L810.106,51.7 L810.106,36.788 L780.795,36.788 L780.795,13.377 L769.311,13.377 L762.736,35.354 L748.002,41.829 L748.002,51.7 L762.473,51.7 L762.473,110.285 C762.473,131.776 772.843,142.673 793.294,142.673 C795.934,142.673 798.945,142.403 802.246,141.87 C805.654,141.317 808.186,140.626 809.988,139.758 L810.843,139.346 L810.843,124.677 L808.909,125.24" id="Fill-35" fill="#6ABF4B"></path>
        </g>
    </g>
</svg>