<svg width="65" height="62" viewBox="0 0 65 62" fill="none" xmlns="http://www.w3.org/2000/svg">
<path fill-rule="evenodd" clip-rule="evenodd" d="M16.5 17.8485V4.84848L32.5 0L48.5 4.84848V17.8485C48.5 30.8486 32.5 35.8485 32.5 35.8485C32.5 35.8485 16.5 30.8486 16.5 17.8485ZM42.5 17C42.5 22.5228 38.0228 27 32.5 27C26.9772 27 22.5 22.5228 22.5 17C22.5 11.4772 26.9772 7 32.5 7C38.0228 7 42.5 11.4772 42.5 17Z" fill="#4D81F1"/>
<path fill-rule="evenodd" clip-rule="evenodd" d="M38.169 14.7433L30.8334 21.3454L26.8311 17.7433L28.169 16.2567L30.8334 18.6546L36.8311 13.2567L38.169 14.7433Z" fill="#4D81F1"/>
<path d="M6.6305 43.8485C7.8789 43.8485 8.9999 44.1319 9.99352 44.6986C10.9999 45.2653 11.7897 46.06 12.3629 47.0826C12.9362 48.0929 13.2228 49.2387 13.2228 50.52C13.2228 51.8013 12.9362 52.9532 12.3629 53.9758C11.7897 54.9861 10.9999 55.7746 9.99352 56.3413C8.9999 56.9081 7.8789 57.1914 6.6305 57.1914C5.38211 57.1914 4.24836 56.9081 3.22926 56.3413C2.22291 55.7746 1.43311 54.9861 0.859863 53.9758C0.286621 52.9532 0 51.8013 0 50.52C0 49.2387 0.286621 48.0929 0.859863 47.0826C1.43311 46.06 2.22291 45.2653 3.22926 44.6986C4.24836 44.1319 5.38211 43.8485 6.6305 43.8485ZM6.6305 45.4194C5.70058 45.4194 4.86619 45.6288 4.12734 46.0477C3.40124 46.4543 2.828 47.0456 2.40762 47.8218C1.99998 48.5857 1.79616 49.4851 1.79616 50.52C1.79616 51.5426 1.99998 52.4419 2.40762 53.2181C2.828 53.9943 3.40124 54.5918 4.12734 55.0107C4.86619 55.4173 5.70058 55.6206 6.6305 55.6206C7.54769 55.6206 8.36934 55.4111 9.09544 54.9922C9.83429 54.5734 10.4075 53.982 10.8152 53.2181C11.2355 52.4419 11.4457 51.5426 11.4457 50.52C11.4457 49.4851 11.2355 48.5857 10.8152 47.8218C10.4075 47.0456 9.83429 46.4543 9.09544 46.0477C8.36934 45.6288 7.54769 45.4194 6.6305 45.4194Z" fill="#4D81F1"/>
<path d="M21.5542 46.7684C22.4841 46.7684 23.3122 46.9779 24.0383 47.3968C24.7644 47.8157 25.3312 48.4194 25.7389 49.2079C26.1593 49.9964 26.3694 50.9204 26.3694 51.9799C26.3694 53.0395 26.1593 53.9635 25.7389 54.752C25.3312 55.5282 24.7644 56.1257 24.0383 56.5446C23.3122 56.9635 22.4841 57.1729 21.5542 57.1729C20.5351 57.1729 19.6689 56.9265 18.9555 56.4337C18.2549 55.9286 17.7708 55.2695 17.5033 54.4563V61.8485H15.7645V46.8978H17.5033V49.4851C17.7708 48.6719 18.2549 48.0189 18.9555 47.5261C19.6689 47.021 20.5351 46.7684 21.5542 46.7684ZM21.0574 48.2653C20.3822 48.2653 19.7708 48.4194 19.223 48.7274C18.6753 49.023 18.2485 49.4543 17.9428 50.021C17.6371 50.5877 17.4842 51.2407 17.4842 51.9799C17.4842 52.7191 17.6371 53.3721 17.9428 53.9389C18.2485 54.4933 18.6753 54.9245 19.223 55.2325C19.7708 55.5405 20.3822 55.6945 21.0574 55.6945C22.1402 55.6945 23.0001 55.368 23.637 54.715C24.2867 54.0497 24.6115 53.138 24.6115 51.9799C24.6115 50.8218 24.2867 49.9163 23.637 49.2633C23.0001 48.598 22.1402 48.2653 21.0574 48.2653Z" fill="#4D81F1"/>
<path d="M33.8374 55.5651V57.0436H32.5381C31.468 57.0436 30.6655 56.7972 30.1304 56.3044C29.6082 55.8116 29.347 54.9861 29.347 53.828V48.3578H27.7802V46.8978H29.347V44.366H31.105V46.8978H33.8183V48.3578H31.105V53.8649C31.105 54.5179 31.226 54.9676 31.468 55.214C31.7228 55.4481 32.1559 55.5651 32.7674 55.5651H33.8374Z" fill="#4D81F1"/>
<path d="M45.8 51.407C45.8 51.7643 45.7745 52.0723 45.7235 52.3311H37.3351C37.3733 53.4892 37.7109 54.3578 38.3478 54.9368C38.9975 55.5159 39.7873 55.8054 40.7172 55.8054C41.558 55.8054 42.2586 55.6021 42.8191 55.1955C43.3924 54.7766 43.7427 54.2222 43.8701 53.5323H45.7235C45.5961 54.2345 45.3095 54.8629 44.8637 55.4173C44.4306 55.9717 43.8637 56.4029 43.1631 56.7109C42.4624 57.0189 41.6726 57.1729 40.7937 57.1729C39.7873 57.1729 38.8956 56.9635 38.1185 56.5446C37.3415 56.1257 36.73 55.5282 36.2841 54.752C35.851 53.9635 35.6345 53.0395 35.6345 51.9799C35.6345 50.9204 35.851 49.9964 36.2841 49.2079C36.73 48.4194 37.3415 47.8157 38.1185 47.3968C38.8956 46.9779 39.7873 46.7684 40.7937 46.7684C41.8128 46.7684 42.6981 46.9779 43.4497 47.3968C44.214 47.8157 44.7936 48.3762 45.1885 49.0785C45.5961 49.7807 45.8 50.5569 45.8 51.407ZM44.042 51.5179C44.0802 50.7664 43.9529 50.138 43.6599 49.6329C43.3669 49.1278 42.9656 48.752 42.4561 48.5056C41.9465 48.2592 41.3924 48.136 40.7937 48.136C39.8382 48.136 39.0357 48.4255 38.386 49.0046C37.7364 49.5713 37.386 50.4091 37.3351 51.5179H44.042Z" fill="#4D81F1"/>
<path d="M50.0042 48.9491C50.3481 48.2469 50.8513 47.7048 51.5137 47.3228C52.1761 46.9286 52.9659 46.7315 53.8831 46.7315V48.561H53.3481C52.3672 48.561 51.5647 48.8074 50.9405 49.3003C50.3163 49.7807 50.0042 50.5816 50.0042 51.7027V57.0436H48.2654V46.8978H50.0042V48.9491Z" fill="#4D81F1"/>
<path d="M56.516 46.8978L59.9173 54.8814L63.0701 46.8978H65L58.7708 61.8485H56.8026L58.981 56.8773L54.567 46.8978H56.516Z" fill="#4D81F1"/>
</svg>
