<svg xmlns="http://www.w3.org/2000/svg" viewBox="0 0 720 225"><defs><style>.cls-1{fill:#fff;}.cls-2{fill:#7764fa;}</style></defs><g id="Logo_on_White" data-name="Logo on White"><rect id="background" class="cls-1" width="720" height="225"/><g id="osano"><path id="o" class="cls-2" d="M204.44,116.27a44,44,0,0,1-13.38,30.16q-13.29,13.38-33.84,13.38t-33.84-13.38A44,44,0,0,1,110,116.27v-7.54a44,44,0,0,1,13.38-30.16q13.29-13.38,33.84-13.38t33.84,13.38a44,44,0,0,1,13.38,30.16Zm-68.71-2.07a19.55,19.55,0,0,0,5.94,13.85q5.75,5.74,15.55,5.75t15.55-5.75a19.59,19.59,0,0,0,5.94-13.85v-3.4A19.59,19.59,0,0,0,172.77,97Q167,91.21,157.22,91.2T141.67,97a19.55,19.55,0,0,0-5.94,13.85Z"/><path id="n" class="cls-2" d="M408.3,159.81v-51a44,44,0,0,1,13.39-30.16Q435,65.28,455.52,65.28t33.84,13.38a44,44,0,0,1,13.38,30.16v51H477V110.9A19.56,19.56,0,0,0,471.08,97q-5.76-5.75-15.56-5.75T440,97A19.61,19.61,0,0,0,434,110.9v48.91Z"/><path id="a" class="cls-2" d="M371,110.8A19.59,19.59,0,0,0,365,97q-5.75-5.74-15.55-5.75T333.94,97A19.59,19.59,0,0,0,328,110.8v3.4a20.51,20.51,0,0,0,5.47,13.85q5.28,5.74,14.14,5.75t13.85-3.39v26.48a23.93,23.93,0,0,1-12,2.92q-20.55,0-33.83-13.38a43.94,43.94,0,0,1-13.39-30.16v-7.54a43.94,43.94,0,0,1,13.39-30.16q13.27-13.38,33.83-13.38t33.84,13.38a44,44,0,0,1,13.38,30.16v51.08H371Z"/><path id="s" class="cls-2" d="M288.13,123.62q4.25,13.38-2.87,24.79t-23.61,11.4H219.8v-26.2h40c2.2-.37,3.32-1.32,3.35-2.83s-6.64-4.74-20-9.7q-18.29-6.51-22.43-20.08-3.3-14.41,3.77-24.5t27.24-10.75h32.61V91.86H255.43c-3.52-.31-5.56.42-6.13,2.21s.91,3.51,4.43,5.14l12.44,4.71Q283.9,110.23,288.13,123.62Z"/><path id="o-2" data-name="o" class="cls-2" d="M610,116.27a44,44,0,0,1-13.38,30.16q-13.29,13.38-33.84,13.38t-33.84-13.38a44,44,0,0,1-13.38-30.16v-7.54a44,44,0,0,1,13.38-30.16q13.29-13.38,33.84-13.38t33.84,13.38A44,44,0,0,1,610,108.73Zm-68.71-2.07a19.59,19.59,0,0,0,5.94,13.85q5.74,5.74,15.55,5.75t15.55-5.75a19.59,19.59,0,0,0,5.94-13.85v-3.4A19.59,19.59,0,0,0,578.33,97q-5.75-5.74-15.55-5.75T547.23,97a19.59,19.59,0,0,0-5.94,13.85Z"/></g><path class="cls-2" d="M624.5,72.91A9.47,9.47,0,0,1,629,74.1a8.49,8.49,0,0,1,3.44,3.41,9.22,9.22,0,0,1,0,9.2,8.58,8.58,0,0,1-3.4,3.41,9.29,9.29,0,0,1-9.17,0,8.61,8.61,0,0,1-3.41-3.41,9.25,9.25,0,0,1-1.22-4.58,9.38,9.38,0,0,1,1.23-4.62A8.58,8.58,0,0,1,620,74.1,9.52,9.52,0,0,1,624.5,72.91Zm0,1.53a7.91,7.91,0,0,0-3.78,1,7.16,7.16,0,0,0-2.87,2.85,7.64,7.64,0,0,0,0,7.66,7.23,7.23,0,0,0,2.85,2.85,7.66,7.66,0,0,0,7.64,0,7.23,7.23,0,0,0,2.85-2.85,7.7,7.7,0,0,0,0-7.66,7.12,7.12,0,0,0-2.88-2.85A7.87,7.87,0,0,0,624.5,74.44Zm-4,12.78V77.31h3.41a8.42,8.42,0,0,1,2.52.27,2.43,2.43,0,0,1,1.25,1A2.54,2.54,0,0,1,628.1,80a2.64,2.64,0,0,1-.77,1.89,3.08,3.08,0,0,1-2.06.91,2.62,2.62,0,0,1,.84.52,11.39,11.39,0,0,1,1.47,2l1.21,1.94h-2L626,85.66a8,8,0,0,0-1.67-2.31A2,2,0,0,0,623,83h-.94v4.21Zm1.6-5.58H624a3.11,3.11,0,0,0,1.9-.42,1.33,1.33,0,0,0,.51-1.09,1.35,1.35,0,0,0-.25-.79,1.43,1.43,0,0,0-.68-.52,5.08,5.08,0,0,0-1.6-.17h-1.82Z"/></g></svg>