<?xml version="1.0" encoding="UTF-8"?>
<svg id="Layer_1" data-name="Layer 1" xmlns="http://www.w3.org/2000/svg" viewBox="0 0 1920 1080">
  <defs>
    <style>
      .cls-1 {
        fill: #6b65ff;
      }
    </style>
  </defs>
  <rect class="cls-1" width="1920" height="1080"/>
  <path d="m935.25,547.09c0,35.64-18.48,57.41-45.87,57.41s-45.87-21.78-45.87-57.41v-1.98c0-35.64,18.48-57.41,45.87-57.41s45.87,21.78,45.87,57.41v1.98Zm-309.51,0v-1.98c0-35.64,18.48-57.41,45.87-57.41s45.87,21.78,45.87,57.41v1.98c0,35.64-18.48,57.41-45.87,57.41s-45.87-21.78-45.87-57.41m844.39-62.69c20.46,0,34.97,14.52,38.6,40.92h-76.53c4.62-27.06,18.47-40.92,37.94-40.92m-280.14-34.32h-52.8v192.04h52.8v-192.04Zm196.33,0h-46.2l-42.24,139.25-42.24-139.25h-56.42l65.99,192.04h55.1l65.99-192.04Zm171.56,131.66h-47.52c-6.6,16.17-20.45,26.07-36.29,26.07-25.08,0-41.24-16.83-44.21-50.82h128.01v-7.92c0-63.02-35.63-101.63-91.39-101.63-52.47,0-90.4,41.91-90.4,97.67v1.98c0,58.4,38.93,97.67,95.35,97.67,43.23,0,75.88-22.44,86.44-63.02m-569.18-34.65v-1.98c0-55.43-33.33-97.67-81.17-97.67-29.37,0-51.15,14.85-62.36,39.6v-36.96h-52.8v254.74h52.8v-99.65c11.22,24.75,33,39.6,62.36,39.6,47.85,0,81.17-42.24,81.17-97.67m-416.42,0c0,55.43,33.33,97.67,81.17,97.67,29.37,0,51.15-14.85,62.36-39.6v36.96h52.8v-192.04h-52.8v36.96c-11.22-24.75-33-39.6-62.36-39.6-47.85,0-81.17,42.24-81.17,97.67v1.98Zm411.47-60.71h27.06v93.38c0,46.2,14.19,62.36,61.7,62.36h44.88v-36.3h-34.32c-14.52,0-19.47-4.95-19.47-18.15v-101.3h52.14v-36.3h-52.14v-59.39h-52.8v59.39h-27.06v36.3Zm210.19-77.87v-1.32c0-16.17-11.55-28.71-30.36-28.71s-30.36,12.54-30.36,28.71v1.32c0,16.17,11.55,28.71,30.36,28.71s30.36-12.54,30.36-28.71m-725.27,7.59c28.71,0,42.57,14.19,42.57,38.94v1.98c0,24.75-13.86,38.94-42.57,38.94h-52.47v-79.85h52.47Zm-.33,139.58c28.71,8.91,35.97,19.14,35.97,50.16v36.3h56.09v-56.09c0-30.03-13.53-47.19-42.9-54.12l-36.63-8.91c58.07-2.31,87.11-25.41,87.11-69.29v-1.98c0-46.2-32.67-76.55-98-76.55h-109.88v266.95h56.09v-102.62l52.14,16.17Z"/>
  <path d="m935.25,547.09c0,35.64-18.48,57.41-45.87,57.41s-45.87-21.78-45.87-57.41v-1.98c0-35.64,18.48-57.41,45.87-57.41s45.87,21.78,45.87,57.41v1.98Zm-309.51,0v-1.98c0-35.64,18.48-57.41,45.87-57.41s45.87,21.78,45.87,57.41v1.98c0,35.64-18.48,57.41-45.87,57.41s-45.87-21.78-45.87-57.41m844.39-62.69c20.46,0,34.97,14.52,38.6,40.92h-76.53c4.62-27.06,18.47-40.92,37.94-40.92m-280.14-34.32h-52.8v192.04h52.8v-192.04Zm196.33,0h-46.2l-42.24,139.25-42.24-139.25h-56.42l65.99,192.04h55.1l65.99-192.04Zm171.56,131.66h-47.52c-6.6,16.17-20.45,26.07-36.29,26.07-25.08,0-41.24-16.83-44.21-50.82h128.01v-7.92c0-63.02-35.63-101.63-91.39-101.63-52.47,0-90.4,41.91-90.4,97.67v1.98c0,58.4,38.93,97.67,95.35,97.67,43.23,0,75.88-22.44,86.44-63.02m-569.18-34.65v-1.98c0-55.43-33.33-97.67-81.17-97.67-29.37,0-51.15,14.85-62.36,39.6v-36.96h-52.8v254.74h52.8v-99.65c11.22,24.75,33,39.6,62.36,39.6,47.85,0,81.17-42.24,81.17-97.67m-416.42,0c0,55.43,33.33,97.67,81.17,97.67,29.37,0,51.15-14.85,62.36-39.6v36.96h52.8v-192.04h-52.8v36.96c-11.22-24.75-33-39.6-62.36-39.6-47.85,0-81.17,42.24-81.17,97.67v1.98Zm411.47-60.71h27.06v93.38c0,46.2,14.19,62.36,61.7,62.36h44.88v-36.3h-34.32c-14.52,0-19.47-4.95-19.47-18.15v-101.3h52.14v-36.3h-52.14v-59.39h-52.8v59.39h-27.06v36.3Zm210.19-77.87v-1.32c0-16.17-11.55-28.71-30.36-28.71s-30.36,12.54-30.36,28.71v1.32c0,16.17,11.55,28.71,30.36,28.71s30.36-12.54,30.36-28.71m-725.27,7.59c28.71,0,42.57,14.19,42.57,38.94v1.98c0,24.75-13.86,38.94-42.57,38.94h-52.47v-79.85h52.47Zm-.33,139.58c28.71,8.91,35.97,19.14,35.97,50.16v36.3h56.09v-56.09c0-30.03-13.53-47.19-42.9-54.12l-36.63-8.91c58.07-2.31,87.11-25.41,87.11-69.29v-1.98c0-46.2-32.67-76.55-98-76.55h-109.88v266.95h56.09v-102.62l52.14,16.17Z"/>
</svg>