<svg fill="none" height="50" viewBox="0 0 60 50" width="60" xmlns="http://www.w3.org/2000/svg"><path d="m60 5.8696c-2.2074.97861-4.5639 1.64126-7.0653 1.93967 2.5636-1.53882 4.4816-3.9558 5.3977-6.80202-2.4129 1.43623-5.0554 2.44572-7.8114 2.98411-9.9616-9.87391-24.0045.36863-20.9765 11.23434-10.225-.5135-19.309-5.39776-25.36499-12.85805-3.484387 5.92435-1.21558 13.20905 3.80914 16.41265-2.01867-.0632-3.91446-.6188-5.57327-1.5403-.00176.0517-.00176.1031-.00176.1544 0 5.9683 4.24359 10.9271 9.87388 12.0681-1.9177.474-3.75206.5486-5.57324.2107 1.56666 4.8711 6.09984 8.4257 11.49764 8.5574-5.4416 4.1338-11.76095 5.8365-18.2119 5.0905 27.7786 16.3249 53.9774-5.0467 53.8896-29.4901-.0003-.5297-.0118-1.0593-.0347-1.5886 2.4049-1.7378 4.4762-3.90564 6.1438-6.36315" fill="#5ae"/></svg>