<svg fill="none" height="13" viewBox="0 0 89 13" width="89" xmlns="http://www.w3.org/2000/svg"><path clip-rule="evenodd" d="m1.66489 4.79783c.19027-.47568.42811-.85623.71352-1.14164.04757 0 .09513-.04756.1427-.04756h.33298.23784c.09514 0 .1427.04756.23784.09513s.1427.14271.28541.19028l-1.33191 1.04649.28541.23785v3.47247c-.33298-.1427-.61839-.42811-.80866-.76109-.23784-.42811-.33298-1.0465-.33298-1.76002 0-.42812.09514-.85623.23785-1.33191zm-.09514-1.33191c.09513 0 .19027 0 .28541.04757.1427.04757.23784.04757.33297.09514-.71352.33297-1.284335.85622-1.66488 1.56975-.332977.61838-.52325 1.3319-.52325 2.09299 0 .95137.332977 1.76002.998931 2.42598.665949.66595 1.474609.99895 2.378409.99895.90379 0 1.66488-.333 2.28327-1.04652.61838-.71352.95136-1.52218.95136-2.47354-.09513.19027-.19027.38054-.28541.47568-.09513.1427-.23784.28541-.47568.42811-.1427.09514-.23784.19027-.33298.23784-.09513.04757-.23784.09514-.38054.19027v-4.56654c.19027-.09513.38054-.19027.47568-.28541.14271-.09513.23784-.23784.42811-.38054.38055-.38055.57082-.85623.61839-1.37948-.28541.19028-.52325.33298-.76109.38055-.23784.09513-.47568.1427-.76109.19027-.04757 0-.09514 0-.19027 0-.28541 0-.76109-.09514-1.33191-.33298-.61839-.23784-1.0465-.33297-1.42705-.33297-.66595 0-1.236767.33297-1.617312.95136-.332977.52325-.5232499 1.1892-.5232499 1.99786.0475682-.23784.1902729-.47568.3805449-.66595.142705-.19027.332977-.33298.52325-.42812.190277-.1427.380547-.19027.618387-.19027zm6.23143 7.18278 1.14163-1.23676-.57082-.57082v-3.32977l.33298-.23784.9038.66596v4.42383c0 .2378-.00001.4757-.04757.6184-.04757.1903-.09514.333-.19028.4757-.04756.0951-.19027.2378-.33297.3805-.14271.1903-.33298.333-.52325.4281.42811-.0475.76109-.1427 1.0465-.2854s.5708-.3805.8562-.7135c.1903-.2378.3806-.4757.4757-.7135.0951-.2379.1903-.4757.1903-.76111v-4.99466l-.3806.04757-1.18917-.80866-.85623.71352-.28541-.1427v-2.47355l-.28541-.52325-1.14163 1.09407v6.32656l-.33298.42812zm3.85302-1.42703 2.0454 1.33193 1.9503-2.04546-1.0465.76109-1.3319-.95136v-.85622l2.3309-1.76003-1.4747-1.99786-2.3784 1.66489v3.61518zm6.8498-6.4217v2.42597c-.1903 0-.333.04757-.4281.09514s-.2378.09514-.333.23784c-.333.28541-.5232.61839-.5232 1.0465v.19027c0 .04757 0 .14271.0475.19027.1427-.09513.2379-.19027.333-.19027.0951-.04757.2379-.04757.4281-.04757.0952 0 .1427 0 .1903.04757.0476 0 .1427.04757.2378.09514v2.3784l1.7601 1.80757 1.6173-1.66486 1.9503 1.66486 2.8541-2.75893v-4.75681l-1.7601-1.37948-1.3319 1.18921-1.6649-1.33191-1.5697 1.33191v-.80866c0-.23784-.1903-.57082-.5708-.85623-.0952-.09514-.2379-.1427-.333-.23784s-.1427-.19027-.1903-.33298c0-.142702-.0475-.285406-.0475-.380542 0-.285409.0951-.52325.2854-.7135224-.0476 0-.0952 0-.1427 0-.3806 0-.7136.1427044-.999.4756814s-.4281.665953-.4281 1.094063c0 .04757 0 .14271.0476.23785 0 .42811.2378.71352.5708.95136zm8.6098 6.51683 1.5698 1.0941 1.1416-1.0941 1.3795.9514 1.1892-1.28437h-.4281l-.5233-.52325v-3.75789l-.2854.04757-1.3319-1.09407-2.5211 1.76003v3.66274zm7.6585-5.42276c-.1427-.04757-.2854-.14271-.4757-.28541l-2.093 1.47461v2.47354l.1903.14271h1.2368l-1.6173 2.80651c.2378-.1903.4281-.333.5708-.4281.1902-.09514.3805-.14271.6184-.14271.2854 0 .4756.04757.6659.09511.1903.0476.333.1903.5233.333l2.0454-1.61731v-2.52112l-.1427-.1427h-1.3795v-.1427l1.2844-2.093c-.1427.09513-.2379.1427-.2855.1427-.0951 0-.1902 0-.3805 0h-.2854c-.1903 0-.333 0-.4757-.09513zm3.2346 6.56436 1.1417-1.23673-.5708-.61839v-3.32977l.2854-.23784.9038.71352v4.37631c0 .2378 0 .4756-.0476.6183-.0476.1903-.0951.333-.1903.4757-.0475.0952-.1427.1903-.2854.3806-.1427.1902-.333.333-.5708.4281.3805-.0476.7611-.1427 1.0465-.2854s.5708-.3806.8562-.7135c.1903-.2379.333-.4757.4757-.7136.0951-.2378.1903-.52321.2379-.76106v-4.94708l-.3806.04757-1.1892-.80866-.8562.71352-.333-.14271v-2.42597l-.2378-.57082-1.1417 1.09407v6.32656l-.333.38055zm6.1839-7.61086-1.1416-.95137-.9514 1.0465.9989.9038zm-1.8076 2.90165v3.47248l-.2378.38054h.4281l.9989.85619 1.0465-.95132 1.3319 1.09402 1.1892-1.33187-.3805-.47568v-3.2822l.2854-.1427.6659.76109v3.23463l1.1893 1.04653 1.1416-1.33194h-.5233l-.2854-.52325v-3.47247l.1427-.33298-.2854.04757-1.1892-.95136-1.1416 1.1892-1.3319-1.0465-1.0941 1.28434h.4281l.3806.42811v3.23464l-.7611.23784-.4757-.38055v-3.61517l.1427-.23785-1.3319-.99893-1.0941 1.14164.3806.09514zm23.1181 3.42491-.3805-.47568v-3.2822l.2854-.14271.6659.76109v3.23463l1.1893 1.04647 1.1416-1.33187h-.5233l-.2854-.52325v-3.47248l.1427-.28541-.2854.04757-1.1892-.95136-1.1416 1.1892-1.3319-1.14163-1.1417 1.23677h.4282l.3805.42811v3.23464l-.4757.61838 1.4271.95133zm-15.1266 0c.1902 0 .3329 0 .4756.04757.1427.04756.2855.09513.4282.23784.1427.09513.2378.19027.2854.28541.0475.09513.0951.23784.1427.42808l-.666.8563-.7135.9513c.1903-.0951.333-.1427.4757-.1903.1427 0 .333-.0475.5708-.0475.2854.0475.5232.0951.7611.1903.1903.0951.3805.2854.5708.5232.4281-.1427.9038-.4757 1.427-1.0465.5233-.5232.8087-.9514.8087-1.3319 0-.0476-.0476-.23785-.1903-.57082-.1427-.28541-.1902-.61839-.1902-.99894v-3.90058l-1.7601-1.09407-2.2357 1.56975v3.80545zm4.4238-4.37627h.7611v4.4714l-.1903.33298h.4281l.9514.71349 1.1892-1.37944h-.5233l-.3329-.38055v-3.71031l.7611-.95136h-.7611v-2.42598l-1.5222 1.42704v.99894zm3.2822 4.37627 1.5698 1.1416 2.7589-1.95026v-3.75788l-.2854.04757-1.3319-1.14164-2.5211 1.76002v3.71032zm13.0337-6.37413v1.1892c-.2379 0-.4281 0-.5708.04757s-.2855.1427-.4282.28541c-.1427.1427-.2378.28541-.2378.47568-.0476.19027-.0476.42811-.0476.71352v.23784c.1903-.28541.4281-.42811.7611-.38054.2379.04757.3806.1427.5233.28541v1.99786c-.3806.19027-.7135.47568-1.0465.80866-.333.38054-.5233.76109-.666 1.1892.1903-.1427.333-.23784.4757-.28541s.2854-.1427.5232-.19027c.0952-.04757.1903-.04757.2855-.09514.0951-.04757.2378-.04757.3805-.04757v3.85301l1.6649-1.3795.5708.4282v-2.18818l.7135.23784 2.426-1.66489v-5.66061l-1.5697-1.23677-1.5698 1.33191v-.71352l-.2854-.23784v1.09406l-.2378.19028v-1.18921l-1.332-.998928-1.5221 1.522178c.1427-.09513.2378-.09513.3805-.09513.0952 0 .2379 0 .333.04756.2378.09514.3805.23785.4757.42812zm5.613 6.51683 1.5698 1.0941 2.8065-1.95032v-3.75789l-.2854.04757-1.3319-1.09407-2.5211 1.76003v3.66274zm7.3731-5.47033c-.1427-.04757-.2854-.14271-.4757-.28541l-2.093 1.47461v2.47354l.1903.14271h1.2367l-1.6173 2.85408c.1903-.1427.333-.2854.4281-.333.2379-.1427.4757-.23781.7611-.23781s.4757.04757.666.09511c.1902.0476.333.1903.5232.333l2.0455-1.61731v-2.52112l-.1427-.1427h-1.3795v-.1427l1.2367-2.14057c-.1427.09514-.2378.1427-.2854.1427-.0951 0-.1902 0-.3805 0h-.2854c-.1427 0-.2854-.04756-.4281-.09513zm1.76.99893h.7611v4.4714l-.1903.33298h.4281l.9038.71352 1.2368-1.37947h-.5233l-.3329-.38055v-3.71031l.7611-.95137h-.7611v-2.3784l-1.5222 1.42704v.99893zm-57.0342.09513.9989.76109v2.9968l-.333.33297-.6659-.57081zm24.8781 5.28007c.1903.1427.2854.333.2854.5708 0 .0952 0 .1903-.0475.2379-.0476.0951-.0952.1427-.0952.1427-.0475.0475-.1427.0951-.2378.1427-.0951 0-.2378-.0476-.4281-.1427-.1903-.1427-.4281-.1903-.8087-.1903-.2378 0-.4281 0-.6184.0476-.1902.0475-.3805.0951-.5708.2378l1.8552-2.33084v.28541c0 .19027 0 .33297.0475.42811.0476.09514.0952.23784.1903.33298.1427.09514.2854.14274.4281.23784zm-1.6173-5.42277.9989.71352v2.90166l-.2854.28541-.7135-.71352zm-38.768 2.2357v-1.85515l.9513 1.1892zm21.9765-2.093-.8563 1.56975h-.6659v-1.71245c.2378.1427.5232.23784.8562.23784.2379 0 .4757 0 .666-.09514zm24.4976-.09513.9989.76109v2.99679l-.333.33298-.6659-.61839zm-25.782 2.56868h.9514v1.66488c-.1903-.04757-.333-.09513-.4281-.09513-.0952 0-.2854 0-.5708 0-.1903 0-.333 0-.4757.04756-.1427.04757-.2854.09514-.4757.19028zm38.7681-3.47248.2378-.23784v7.32554l-.2378-.1427zm.5708-.42811.7611-.52325.5708.42811v4.85195c-.2854-.1427-.4281-.23784-.4281-.23784-.0476 0-.1427-.04756-.2854-.09513-.2379-.04757-.4282-.09514-.6184-.14271zm-68.64085.57082c.09513 0 .1427 0 .19027-.04757v4.66168c-.33298.1427-.66596.23784-1.0465.23784-.23784 0-.42811-.04757-.66595-.09514-.23785-.04757-.38055-.1427-.52325-.19027l1.47461-1.47461v-3.1395c.04757.04757.1427.04757.19027.04757h.14271zm73.77815.85622.999.76109v2.9968l-.2854.33297-.7136-.57081zm-58.1758-1.1892.4757-.38054.9989.99893v4.61411l-.3805.42811-1.0465-1.0465v-4.61411zm63.9791 1.1892c.0952 0 .2379-.04756.333-.09513l-.8562 1.56975h-.666v-1.66489c.2855.14271.5709.23784.8563.23784.0951 0 .2378 0 .3329-.04757zm-.9513 2.42598h.9513v1.66488c-.1902-.04756-.3329-.09513-.4281-.09513-.0951 0-.2854 0-.5708 0-.1903 0-.333 0-.4757.04757-.1427.04756-.2854.09513-.4756.19027zm-59.6505-3.61518.4757-.38054.9989.99893v4.61411l-.4281.42811-1.0465-1.0465z" fill="#000" fill-rule="evenodd"/></svg>