<svg height="100" viewBox="0 0 260 100" width="260" xmlns="http://www.w3.org/2000/svg" xmlns:xlink="http://www.w3.org/1999/xlink"><mask id="a" fill="#fff"><path d="m0 .00134831h240v34.63253929h-240z" fill="#fff" fill-rule="evenodd"/></mask><g fill="none" fill-rule="evenodd"><path d="m0 0h260v100h-260z" fill="#f8f8f8"/><path d="m63.8804494 10.0058427 1.2835955-1.02741573 2.6939326 2.69393263v12.4422471l-1.1568539 1.156854-2.8206742-2.8233708zm160.8566296 9.7483146h2.564494v4.4898876c-.51236-.1294382-.897977-.2561797-1.156854-.2561797h-1.537079c-.512359 0-.897977 0-1.283595.1267415-.382921.1294382-.771236.2588764-1.280899.5123596zm2.564494-6.5420225c.25618 0 .639101-.1267415.897978-.2561797l-2.308315 4.2337078h-1.795955v-4.4898876c.768539.385618 1.539775.6417977 2.308315.6417977.256179 0 .639101 0 .897977-.1294382zm-172.5276404-3.2062921 1.2808989-1.02741573 2.6939325 2.69393263v12.4422471l-1.0247191 1.156854-2.8233707-2.8233708v-12.4422472zm156.8764044 3.2062921 2.693933 2.0521349v8.0817977l-.76854.8979775-1.925393-1.5397752zm-198.9492134-2.3083146c.2534831 0 .3829213 0 .5096629-.1294382v12.5716854c-.8979775.3829214-1.795955.6417978-2.8206741.6417978-.64179779 0-1.15415734-.1294382-1.7959551-.2588764-.64179775-.1267416-1.0247191-.3829214-1.41033708-.5123596l3.97752808-3.9775281v-8.4647191c.1267416.1294382.3829214.1294382.5123596.1294382h.3829213zm185.0966294-1.53977526 2.052135-1.41033707 1.539775 1.1541573v13.08404493c-.768539-.385618-1.154157-.6417977-1.154157-.6417977-.129439 0-.385618-.1267416-.76854-.2561798-.641797-.1294382-1.156854-.2588764-1.669213-.385618zm-1.539775 1.15415726.644494-.64179771v19.75550561l-.644494-.385618zm-104.5429218 9.3653933h2.5644944v4.4898876c-.5123596-.1294382-.8979776-.2588764-1.1514607-.2588764h-1.5397753c-.5150562 0-.8979775 0-1.2835955.1294382s-.7685393.2561798-1.2835955.5123596zm69.5244948-6.9276404 2.693932 2.0521348v8.0817977l-.897977.8979776-1.795955-1.6692135zm-66.0620229.2561797-2.3083146 4.2337079h-1.7959551v-4.6193258c.6417978.3856179 1.4103371.6417977 2.3083146.6417977.6444944 0 1.2862922 0 1.7959551-.2561798zm-59.2611236 5.644045v-5.0022472l2.567191 3.2062921zm104.5429215-6.0296629 2.693932 1.9253932v7.825618l-.768539.7685393-1.925393-1.9226966zm4.360449 14.6238202c.515056.385618.771236.8979775.771236 1.5397753 0 .2561797 0 .5123595-.129438.6417977-.126742.2561798-.25618.3829214-.25618.3829214-.126741.1294382-.385618.2588764-.641797.3856179-.253484 0-.641798-.1267415-1.151461-.3856179-.515056-.3829214-1.156854-.5123596-2.18427-.5123596-.639101 0-1.154157 0-1.666517.1294382-.512359.1294382-1.024719.2561798-1.537078.6417978l4.99955-6.2858427v.7685393c0 .5150562 0 .8979775.129438 1.1541573.129439.2588764.258877.6417978.51236.8979775.385618.2588764.771236.3883146 1.154157.6417978zm-67.0867413-14.2382023 2.6939326 2.0521349v8.0817977l-.8979775.8979775-1.7959551-1.5397752zm153.7995503-.2561797h2.054832v12.0566292l-.51236.8979775h1.151461l2.440449 1.9253933 3.333034-3.7213484h-1.410337l-.897978-1.0247191v-10.0044943l2.052135-2.5671911h-2.052135v-6.41258422l-4.104269 3.84808989v2.69393253zm-4.743371-2.6939326c-.385617-.1294382-.771235-.38561801-1.283595-.76853935l-5.644045 3.97483145v6.6687641l.51236.3883146h3.33573l-4.36045 7.6934831c.51236-.3829213.897978-.7685393 1.154158-.8979775.641798-.3829214 1.280899-.6391011 2.049438-.6391011.771236 0 1.286292.1267415 1.795955.2561797.515056.1294382.897978.5123596 1.413034.8979776l5.517303-4.3604495v-6.7982022l-.385618-.385618h-3.721348v-.385618l3.33573-5.7734831c-.385618.2588764-.641798.3856179-.771236.3856179h-1.024719-.771236c-.382921 0-.768539-.1267415-1.151461-.2561797zm-19.882247 14.7505618 4.231012 2.952809 7.569438-5.2611236v-10.1339326l-.771236.1294382-3.59191-2.95011238-6.798203 4.74606738v9.8777528zm-15.138876-17.57393261v3.20898871c-.639101 0-1.151461 0-1.537079.1267416-.385618.1294382-.771236.385618-1.156854.771236-.382921.3829213-.639101.7685393-.639101 1.2808989-.129438.5150561-.129438 1.1568539-.129438 1.9253932v.6417978c.515056-.771236 1.154157-1.1541573 2.052135-1.0274158.641798.1294382 1.027416.385618 1.410337.771236v5.3878652c-1.027416.5096629-1.922697 1.2808988-2.820674 2.1788764-.897978 1.0247191-1.410337 2.0521348-1.795955 3.2062921.512359-.385618.897977-.6391011 1.283595-.7685393s.76854-.385618 1.407641-.5150562c.258876-.1267416.515056-.1267416.773932-.2534832.253483-.1294382.639101-.1294382 1.022023-.1294382v10.3901124l4.489887-3.7213483 1.542472 1.1541573v-5.8975281l1.922697.6391011 6.542022-4.4898876v-15.26292136l-4.233708-3.33573034-4.231011 3.59191011v-1.92269663l-.768539-.64179775v2.95011236l-.644494.51235955v-3.20629213l-3.591911-2.69393259-4.104269 4.10426966c.385618-.25617977.641798-.25617977 1.027415-.25617977.25618 0 .641798 0 .897978.1294382.641798.25348315 1.027416.63910112 1.280899 1.15146068zm-35.145169 17.18831461 4.231012 3.0795506 7.44-5.258427v-10.1339326l-.76854.1294382-3.59191-3.07955056-6.795505 4.74606746v10.0044943zm-8.850337-11.8004494h2.052135v12.0593258l-.515056.8979775h1.156854l2.564494 1.9226967 3.208989-3.7186517h-1.413034l-.897977-1.0274158v-10.0044943l2.052135-2.5644944h-2.052135v-6.5420225l-4.10427 3.84808989v2.69393261zm-11.929887 11.8004494c.509663 0 .897977 0 1.283595.1294382.382921.1294382.768539.2561798 1.151461.6417977.385618.2561798.644494.5123596.771236.771236.126741.2534831.25618.6391011.385618 1.1514607l-1.795955 2.3110112-1.925394 2.5644944c.515057-.2561798.897978-.385618 1.283596-.5123596.382921 0 .897977-.1267415 1.539775-.1267415.76854.1267415 1.410337.2534831 2.052135.5096629.51236.2588764 1.027416.7712359 1.537079 1.4130337 1.156854-.385618 2.437753-1.2835955 3.850786-2.8206742 1.410337-1.4130337 2.178877-2.567191 2.178877-3.5919101 0-.1294382-.126742-.6444944-.51236-1.5424719-.385618-.7685393-.512359-1.6665168-.512359-2.6939326v-10.5168539l-4.746068-2.95011236-6.032359 4.23370786v10.2606742zm40.789213 0-1.024719-1.2808989v-8.8503371l.768539-.3856179 1.795955 2.0521348v8.7235955l3.208989 2.8206742 3.076854-3.5919102h-1.410337l-.768539-1.410337v-9.3626967l.382921-.7712359-.771236.1294382-3.203595-2.567191-3.079551 3.2089887-3.59191-3.0795505-3.079551 3.3357303h1.154158l1.027415 1.1541573v8.7235955l-1.280899 1.6665169 3.845394 2.5644944zm-62.340674-9.2332584v9.3626966l-.639101 1.0274157h1.154157l2.691236 2.3083146 2.823371-2.567191 3.59191 2.952809 3.206292-3.5919101-1.024719-1.2835955v-8.8503371l.768539-.385618 1.795955 2.0521349v8.7235955l3.206293 2.8233708 3.07955-3.5919102h-1.410337l-.771236-1.4130337v-9.3626966l.385618-.8979775-.771236.1267416-3.206292-2.5644944-3.076854 3.2062921-3.59191-2.8206742-2.950112 3.462472h1.154157l1.027416 1.1541573v8.7235955l-2.054832.6391011-1.283595-1.0247191v-9.7483146l.385618-.6417978-3.591911-2.6939326-2.950112 3.0795506 1.027416.2561798zm4.875506-7.82561801-3.079551-2.56449438-2.564494 2.82067415 2.693932 2.43775284zm-16.675955 20.52404491 3.076853-3.3357303-1.537078-1.6665169v-8.9797752l.768539-.6417978 2.437753 1.9253933v11.803146c0 .6391012 0 1.2808989-.129438 1.6665169-.126742.5123595-.253483.8979775-.51236 1.2808989-.129438.2561797-.385618.5150561-.768539 1.0274157-.385618.5123595-.897978.8952809-1.539775 1.1541573 1.024719-.1294382 2.052134-.385618 2.820674-.7685393.771236-.385618 1.539775-1.0274158 2.311011-1.9253933.51236-.6417977.897977-1.2835955 1.280899-1.9253932.258876-.6391012.515056-1.4076405.641798-2.0521349v-13.3402247l-1.02472.1294382-3.208988-2.181573-2.308315 1.9253932-.897977-.3856179v-6.54202252l-.639102-1.53977528-3.07955 2.95011236v17.05887644l-.8979776 1.0274157zm-8.723596-17.7006741c-.385618-.1294382-.7685393-.385618-1.2835955-.77123598l-5.6413483 3.97752808v6.6687641l.5123595.3856179h3.3357304l-4.3631461 7.5667416c.6417978-.5123595 1.1541573-.8979775 1.5397753-1.1514607.5123595-.2588764 1.0274157-.3856179 1.6692135-.3856179.7685393 0 1.2808989.1267415 1.795955.2561797.5123596.1294382.8979776.5123596 1.4103371.8979776l5.5146068-4.3604495v-6.7982022l-.385618-.385618h-3.7186517v-.385618l3.4624719-5.6440449c-.3829213.2561797-.6417978.3856179-.7685393.3856179h-1.0274158-.7685393c-.5123595 0-.8979775 0-1.2835955-.2561797zm-20.6507865 14.6211236 4.2337079 2.952809 3.0768539-2.952809 3.7213483 2.567191 3.2062921-3.4651686h-1.1541573l-1.4130337-1.410337v-10.1339326l-.7685393.1294382-3.5919101-2.95011238-6.7982023 4.74606738v9.8777528zm-23.2179775-17.57393261v6.54471911c-.5123596 0-.8979776.1267416-1.1541573.2561798-.2561798.1267415-.6417978.2561797-.8979776.6417977-.8979775.7685393-1.410337 1.6665169-1.410337 2.8206742v.5123595c0 .1294382 0 .385618.1267415.5123596.385618-.2561798.6417978-.5123596.8979776-.5123596.2561797-.1267416.6417977-.1267416 1.1541573-.1267416.2588764 0 .3856179 0 .5150561.1267416.1267416 0 .3829214.1294382.6417978.2561798v6.4152809l4.7433708 4.8755056 4.363146-4.4898876 5.258427 4.4898876 7.6961798-7.4426966v-12.82516855l-4.7460674-3.72134832-3.5919101 3.20629214-4.4898877-3.58921349-4.2310112 3.58921349v-2.17887641c0-.64179775-.5150562-1.53977528-1.5397753-2.3083146-.2561798-.25887641-.6417977-.38561798-.8979775-.64179776-.2561798-.25617977-.385618-.51505618-.5150562-.89797753 0-.38561797-.1267416-.77123595-.1267416-1.02741573 0-.76853932.2561798-1.41033707.771236-1.92269663h-.385618c-1.0274157 0-1.9253933.38292135-2.6939326 1.28089888-.7712359.89797753-1.1541573 1.79595506-1.1541573 2.95011236 0 .1294382 0 .38561798.1267416.64179775 0 1.15415731.6417977 1.92539326 1.5397753 2.56449439zm-18.4719101 17.31775281 5.5173033 3.5919101 5.258427-5.5173034-2.8206742 2.0548315-3.5919101-2.5644944v-2.3110112l6.2858427-4.7460674-3.9775281-5.38786521-6.4125842 4.48988761v9.7483146zm-10.3901124 3.8480899 3.0795506-3.3330337-1.5397753-1.5424719v-8.9770787l.8979775-.6417977 2.4377528 1.795955v11.9298877c0 .6417977 0 1.2808988-.1294382 1.6665168-.1267416.5123596-.2561798.8979775-.5123595 1.2835955-.1294382.2561798-.5123596.6417978-.8979776 1.0247191-.3856179.5150562-.8979775.8979775-1.410337 1.1541573 1.1541573-.1267416 2.0521348-.3829213 2.8206741-.7685393.771236-.385618 1.5397753-1.0247191 2.3110112-1.9226966.5123596-.6417978 1.0247191-1.2835955 1.2808989-1.9253933.2561798-.6417977.5150562-1.2808989.5150562-2.0494382v-13.4723595l-1.0274157.1294382-3.2062922-2.1815731-2.3110112 1.9253933-.7685393-.385618v-6.67146067l-.771236-1.41033708-3.0768539 2.95011236v17.06157299l-.8979775 1.1541573zm-16.80269663-19.36988766c.25617977 0 .51235955 0 .76853932.1294382.38561798.12943821.64179775.12943821.89797753.25617978-1.92269663.89797748-3.46247191 2.30831458-4.48988764 4.23370788-.89797753 1.6665168-1.41033708 3.5919101-1.41033708 5.6440449 0 2.5644944.89797753 4.7460674 2.69393258 6.5420225 1.79595506 1.7959551 3.97752809 2.6939326 6.41258427 2.6939326 2.43775285 0 4.48988765-.8979775 6.15910115-2.8233708 1.6665168-1.9226966 2.5644944-4.1042697 2.5644944-6.6714607-.2561798.5150562-.5123596 1.0274158-.7685394 1.2862922-.2588764.3829213-.6417977.7685393-1.2835955 1.1541573-.3856179.2534831-.6417977.5123595-.8979775.6391011-.2561798.1294382-.6417978.2588764-1.0274157.5123595v-12.312809c.5150561-.2561797 1.0274157-.5123595 1.2835955-.76853928.385618-.25617977.6417977-.64179775 1.1541573-1.02741573 1.0274157-1.0247191 1.5397753-2.30831461 1.6692135-3.71865168-.771236.51235955-1.4130337.89797752-2.0548315 1.0247191-.6391011.2588764-1.2808989.38561797-2.0521348.51235955h-.5123596c-.7685393 0-2.0521348-.25348315-3.59191009-.89797753-1.66651686-.63910112-2.82067416-.8952809-3.84808989-.8952809-1.79595506 0-3.33573034.8952809-4.36044944 2.56449438-.89797753 1.41033708-1.41303371 3.20629209-1.41303371 5.38786519.12943821-.6417978.51505618-1.2835955 1.02741573-1.7959551.38561798-.5123595.89797753-.8979775 1.41033708-1.15415728.51505618-.38561798 1.02741573-.51505618 1.66921349-.51505618zm.25617977 3.59191016c.51235955-1.2808989 1.1541573-2.3083147 1.92269663-3.07685398.1294382 0 .2588764-.1294382.38561798-.1294382h.89797753.64179775c.25617977 0 .38561798.1294382.64179775.25617977.25617978.12943821.38561798.38561801.76853933.51505621l-3.59191012 2.8206741.77123596.6417978v9.3626966c-.89797753-.385618-1.66921348-1.1541573-2.18157303-2.0521348-.64179776-1.1541573-.89797753-2.8206742-.89797753-4.7460674 0-1.1541573.25617977-2.3083146.64179775-3.5919101z" fill="#000" mask="url(#a)" transform="translate(10 32)"/></g></svg>