<?xml version="1.0" encoding="UTF-8"?>
<svg width="260px" height="100px" viewBox="0 0 260 100" version="1.1" xmlns="http://www.w3.org/2000/svg" xmlns:xlink="http://www.w3.org/1999/xlink">
    <title>brave</title>
    <defs>
        <linearGradient x1="-0.020093216%" y1="49.9978209%" x2="100.386674%" y2="49.9978209%" id="linearGradient-1">
            <stop stop-color="#FF5500" offset="0%"></stop>
            <stop stop-color="#FF5500" offset="40.99%"></stop>
            <stop stop-color="#FF2000" offset="58.2%"></stop>
            <stop stop-color="#FF2000" offset="100%"></stop>
        </linearGradient>
        <linearGradient x1="2.28953766%" y1="49.4951773%" x2="99.9039138%" y2="49.4951773%" id="linearGradient-2">
            <stop stop-color="#FF452A" offset="0%"></stop>
            <stop stop-color="#FF2000" offset="100%"></stop>
        </linearGradient>
    </defs>
    <g id="brave" stroke="none" stroke-width="1" fill="none" fill-rule="evenodd">
        <rect fill="#FFFFFF" x="0" y="0" width="260" height="100"></rect>
        <g transform="translate(50.000000, 25.000000)" fill-rule="nonzero">
            <g id="Group" transform="translate(52.134831, 8.988764)" fill="#3B3E4F">
                <path d="M1.06570787,18.2525843 L1.06570787,1.10955506 L2.69429213,1.10955506 C3.98004494,1.10955506 5.09429213,2.2238382 5.09429213,3.50957303 L5.09429213,11.1381573 C7.66579775,8.82389213 9.89429213,7.8810427 12.8086292,7.79532584 C18.4657978,7.70960899 23.3515506,11.909573 23.7801348,17.6524944 C24.2944719,24.5096629 19.4944719,29.5669213 13.0657079,29.5669213 C6.12278652,29.5669213 1.06570787,25.1955056 1.06570787,18.2525843 L1.06570787,18.2525843 Z M5.00853933,19.6239101 C5.4371236,23.1383371 8.69429213,26.1382472 12.2942921,26.1382472 C16.8372135,26.224 20.0086292,23.1383371 20.0086292,18.6811685 C20.0086292,14.224 16.9229663,11.2239101 12.4657978,11.2239101 C7.66579775,11.2239101 4.49420225,14.7381573 5.00853933,19.6239101 Z" id="Shape"></path>
                <path d="M30.4661573,8.22320899 L30.4661573,11.3089438 C32.9519101,8.48035955 34.4947416,7.70892584 37.4090787,7.70892584 C38.2662472,7.70892584 39.1234157,7.79462472 39.9805843,7.88034157 L39.9805843,11.9090337 C39.0376629,11.6517753 38.1804944,11.5660225 37.237573,11.5660225 C35.0948315,11.5660225 33.2947416,12.2518652 32.0089888,13.623191 C30.8947416,14.823191 30.5519101,15.6803596 30.5519101,17.5662022 L30.5519101,28.8805393 L26.3518202,28.8805393 L26.3518202,8.22320899 L30.4661573,8.22320899 Z" id="Path"></path>
                <path d="M40.9242247,15.0804494 C41.0955506,13.1090337 41.5241348,11.9946067 42.3813034,10.9661124 C44.0956404,8.82320899 47.1813034,7.70892584 51.5528989,7.70892584 C54.9813933,7.70892584 57.5528989,8.22320899 59.267236,9.4232809 C60.7243146,10.3660225 61.3244045,11.8232809 61.3244045,14.3090337 L61.3244045,23.4804494 C61.3244045,25.4518652 61.8385618,26.2232809 63.2100674,26.1377079 C63.5528989,26.1377079 63.8101573,26.1377079 64.1529888,26.0519551 L64.1529888,28.7947865 C63.4671461,29.0518652 62.6957303,29.137618 62.0100674,29.137618 C59.4385618,29.137618 58.2385618,28.3662022 57.3813933,26.0519551 C54.8100674,28.4519551 52.152809,29.4804494 48.3813034,29.4804494 C43.3242247,29.4804494 40.152809,27.1662022 40.152809,23.3091236 C40.152809,21.1662022 41.352809,19.1947865 43.3242247,18.2518652 C44.8670562,17.5662022 45.8099775,17.3946966 50.1813933,16.8803596 C53.9528989,16.5375281 54.552809,16.4517753 55.667236,16.1089438 C56.7814831,15.7661124 57.2958202,15.0804494 57.2958202,14.0517753 C57.2958202,11.8232809 55.4957303,10.7946067 51.6384719,10.7946067 C48.0384719,10.7946067 46.152809,11.5660225 45.3813933,13.3661124 C45.0385618,14.3090337 44.0956404,14.9089438 43.0669663,14.9946966 L40.9242247,15.0804494 Z M57.3813933,18.5946966 C54.7243146,19.3661124 52.0670562,19.8804494 49.3242247,20.1375281 C45.6384719,20.4805393 44.4384719,21.2519551 44.4384719,23.137618 C44.4384719,25.1947865 46.152809,26.3090337 49.4957303,26.3090337 C52.2385618,26.3090337 54.3814831,25.6233708 55.8385618,24.2518652 C57.0385618,23.137618 57.2958202,22.3662022 57.2958202,20.3090337 L57.2958202,18.5946966 L57.3813933,18.5946966 Z" id="Shape"></path>
                <path d="M74.183191,28.8805393 L73.1545169,28.8805393 C72.2117753,28.8805393 71.3546067,28.366382 70.9260225,27.5092135 L61.9259326,8.22331685 L64.4116854,8.22331685 C65.868764,8.22331685 67.1545169,9.08044944 67.7546067,10.4519551 L73.7546067,24.2520449 L79.9261124,10.3662022 C80.5260225,9.08044944 81.8117753,8.22331685 83.2690337,8.22331685 L85.4975281,8.22331685 L76.4116854,27.5092135 C75.9831011,28.366382 75.1261124,28.8805393 74.183191,28.8805393 L74.183191,28.8805393 Z" id="Path"></path>
                <path d="M88.3248539,19.7946966 C88.7534382,23.7377079 91.8392809,26.2232809 96.3822022,26.2232809 C98.9535281,26.2232809 100.924944,25.4518652 102.124944,23.9090337 C102.810787,23.0518652 103.925034,22.4519551 105.039281,22.4519551 L107.439281,22.4519551 C105.382112,27.1662022 101.610787,29.4804494 96.039191,29.4804494 C89.0962697,29.4804494 84.3820225,25.1947865 84.3820225,18.6804494 C84.3820225,12.1661124 89.1820225,7.70892584 96.1249438,7.70892584 C101.182202,7.70892584 105.210787,10.023191 106.839371,13.8804494 C107.525034,15.6803596 107.867865,17.2233708 107.867865,19.7946966 L88.3248539,19.7946966 Z M103.582202,16.5375281 C102.639281,12.8517753 99.8964494,10.8803596 96.039191,10.8803596 C92.1821124,10.8803596 89.4392809,12.9375281 88.4106067,16.5375281 L103.582202,16.5375281 Z" id="Shape"></path>
            </g>
            <path d="M40.3717753,12.1595506 L41.4860225,9.24523146 C41.4860225,9.24523146 40.0289438,7.61664719 38.2288539,5.81664719 C36.4289438,4.01662921 32.6574382,5.04521348 32.6574382,5.04521348 L28.3715955,0.0737359101 L20.828764,0.0737359101 L13.3715416,0.0737359101 L9.08578876,5.04521348 C9.08578876,5.04521348 5.31433708,4.01662921 3.5143191,5.81664719 C1.71429933,7.61664719 0.257145169,9.24523146 0.257145169,9.24523146 L1.45715416,12.1595506 L0,16.4453034 C0,16.4453034 4.28575281,33.0739775 4.80003596,35.1311461 C5.82862022,39.1597303 6.51433708,40.7025618 9.25722247,42.6741573 C12.0000899,44.645573 17.2287101,48.245573 18.0001798,48.7599101 C18.8573483,49.2740674 19.8858427,50.2169888 20.828764,50.2169888 C21.7716854,50.2169888 22.8001798,49.2740674 23.6573483,48.7599101 C24.5145169,48.245573 29.6573483,44.7313258 32.4001798,42.6741573 C35.143191,40.6169888 35.9146067,39.0739775 36.8575281,35.1311461 C37.3716854,33.0739775 41.6575281,16.4453034 41.6575281,16.4453034 L40.3717753,12.1595506 Z" id="Path" fill="url(#linearGradient-1)"></path>
            <path d="M20.9143371,31.2738876 C21.1714157,31.2738876 23.0570787,31.9595506 24.5143371,32.7309663 C25.9714157,33.502382 27.0858427,34.0167191 27.4286742,34.2737978 C27.7715056,34.5310562 27.6,34.8738876 27.2571685,35.1309663 C26.9143371,35.3882247 22.8,38.6453933 22.3714157,38.9882247 C21.9428315,39.3310562 21.3429213,39.9309663 20.9999101,39.9309663 C20.6570787,39.9309663 19.9714157,39.3310562 19.6285843,38.9882247 C19.2,38.6453933 15.0856629,35.3024719 14.7427955,35.1309663 C14.3999461,34.8738876 14.2285124,34.5310562 14.5713618,34.2737978 C14.9142292,34.0167191 15.9428135,33.502382 17.4856809,32.7309663 C18.7714157,31.8737978 20.6570787,31.2738876 20.9143371,31.2738876 Z M20.9143371,7.7879191 C21.0856629,7.7879191 21.8570787,7.87363596 22.9715056,8.21650337 C24.2570787,8.64506966 25.5428315,9.15935281 26.2286742,9.15935281 C26.9143371,9.15935281 31.5430112,8.21650337 31.5430112,8.21650337 C31.5430112,8.21650337 37.0286742,14.987973 37.0286742,16.4451416 C37.0286742,17.9022921 36.3430112,18.2452135 35.6571685,19.0166292 C34.9715056,19.7880449 31.8858427,23.0452135 31.5430112,23.4737978 C31.114427,23.902382 30.3430112,24.5022921 30.8571685,25.7022921 C31.3715056,26.8167191 32.0571685,28.3595506 31.2857528,29.8166292 C30.5143371,31.2738876 29.1428315,32.302382 28.2858427,32.1310562 C27.4286742,31.9595506 25.3715056,30.8453034 24.6856629,30.4167191 C23.9142472,29.902382 21.6,27.9309663 21.6,27.1595506 C21.6,26.3881348 24,25.0166292 24.5143371,24.7595506 C24.9429213,24.4165393 27.0000899,23.2165393 27.0858427,22.7879551 C27.0858427,22.3595506 27.0858427,22.1880449 26.4857528,20.9880449 C25.8856629,19.7880449 24.7714157,18.2452135 24.9429213,17.2165753 C25.1142472,16.187991 26.9143371,15.6737079 28.1143371,15.1594067 C29.4000899,14.6451236 31.8000899,13.787973 32.0571685,13.6165393 C32.4,13.4451056 32.314427,13.3593888 31.3715056,13.2736719 C30.4285843,13.187973 27.8572584,12.8451056 26.6572584,13.187973 C25.4572584,13.5308225 23.4856629,14.0451236 23.3143371,14.3022562 C23.1428315,14.5594067 22.9715056,14.5594067 23.1428315,15.5022742 C23.3143371,16.4451416 24.1715056,20.9022921 24.2570787,21.6737079 C24.3428315,22.4451236 24.5143371,22.9594607 23.6571685,23.2165393 C22.8,23.3880449 21.4284944,23.7308764 20.9143371,23.7308764 C20.4,23.7308764 19.0284944,23.3880449 18.1713258,23.2165393 C17.3142472,23.0452135 17.4856809,22.5308764 17.5713978,21.6737079 C17.6571146,20.9022921 18.5143371,16.4451416 18.6856629,15.5022742 C18.8571685,14.5594067 18.6856629,14.5594067 18.5143371,14.3022562 C18.3428315,14.0451236 16.3713798,13.5308225 15.1713798,13.187973 C13.9713618,12.8451056 11.3999101,13.187973 10.4570427,13.2736719 C9.51417528,13.3593888 9.4284764,13.5308225 9.77132584,13.6165393 C10.1141933,13.787973 12.5142112,14.6451236 13.7142112,15.1594067 C14.9999461,15.6737079 16.7142472,16.187991 16.8856809,17.2165753 C17.0570966,18.2452135 15.9428135,19.7880449 15.3427955,20.9880449 C14.7427955,22.1880449 14.7427955,22.2737978 14.7427955,22.7879551 C14.7427955,23.2165393 16.799964,24.4165393 17.3142472,24.7595506 C17.7428135,25.102382 20.2284944,26.4737079 20.2284944,27.1595506 C20.2284944,27.9309663 17.8285303,29.902382 17.1428135,30.4167191 C16.3713798,30.9308764 14.3999461,31.9595506 13.5427955,32.1310562 C12.6856449,32.302382 11.3141933,31.2738876 10.5427596,29.8166292 C9.77132584,28.3595506 10.4570427,26.8167191 10.9713438,25.7022921 C11.485627,24.5880449 10.6284764,23.902382 10.285609,23.4737978 C9.8570427,23.0452135 6.85702472,19.7880449 6.17130787,19.0166292 C5.48557303,18.2452135 4.79985618,17.9022921 4.79985618,16.4451416 C4.79985618,14.987973 10.285609,8.21650337 10.285609,8.21650337 C10.285609,8.21650337 14.9142292,9.15935281 15.5999461,9.15935281 C16.2856629,9.15935281 17.5713978,8.64506966 18.8571685,8.21650337 C19.9714157,7.7879191 20.7428315,7.7879191 20.9143371,7.7879191 L20.9143371,7.7879191 Z" id="Shape" fill="#FFFFFF"></path>
            <path d="M32.7435506,5.13123596 L28.4578876,0.159761258 L20.9148764,0.159761258 L13.371973,0.159761258 L9.08622022,5.13123596 C9.08622022,5.13123596 5.31476854,4.10265169 3.51475056,5.90266966 C3.51475056,5.90266966 8.57193708,5.47408539 10.2862382,8.30268764 C10.2862382,8.30268764 14.9148404,9.24555506 15.6005573,9.24555506 C16.2862742,9.24555506 17.572009,8.73125393 18.8577079,8.30268764 C20.1434607,7.87410337 20.9148764,7.87410337 20.9148764,7.87410337 C20.9148764,7.87410337 21.7720449,7.87410337 22.9720449,8.30268764 C24.2577978,8.73125393 25.5435506,9.24555506 26.2292135,9.24555506 C26.9148764,9.24555506 31.5435506,8.30268764 31.5435506,8.30268764 C33.2578876,5.47408539 38.3149663,5.90266966 38.3149663,5.90266966 C36.5150562,4.01693483 32.7435506,5.13123596 32.7435506,5.13123596 Z" id="Path" fill="url(#linearGradient-2)"></path>
        </g>
    </g>
</svg>