<svg height="100" viewBox="0 0 260 100" width="260" xmlns="http://www.w3.org/2000/svg"><g fill="none" fill-rule="evenodd"><path d="m0 0h260v100h-260z" fill="#fff"/><path d="m36.3585097 30.0064581c.2918682-.0293846.5908.0409689.8871889.2220798.5806283.3543104.8089241.8993382.6605883 1.5763142-.1457928.6634138-.6857348 1.1101162-1.4404104 1.0968367-.3715457-.006216-.5487009.1392943-.7227481.4215559-1.4319341 2.3208183-2.868389 4.6390936-4.3175583 6.9488926-.1867617.2978016-.2082351.520729-.0101716.8272895.6125559.9473708 1.1996828 1.9116942 1.7786159 2.8802558.1359038.2274481.2915856.3418785.507732.3650471.006781.0005651.0135621.0011302.0206257.0014128.0226035.0016952.0457722.0022603.0697884.0019778.0398388-.0011302.0808077-.0039557.1251671-.0104542.1796981-.0262766.3599614-.0474674.5396595-.0723313.7289641-.1025635 1.4587758-.198346 2.1902828-.2732203.2110605-.0237337.421556-.0497277.632334-.0723313.0016952-.0002825.0028254-.0008476.0045207-.0011302.2246226-.0488801.3760663-.1511611.4899316-.3192749.0189305-.0372959.0387086-.0723313.0548136-.1175384.9154433-2.6104261 1.8390804-5.2183093 2.7683683-7.8242146.0712012-.2305561.0819378-.4212734-.0110192-.6201846-.0339053-.051423-.0737441-.102281-.1166908-.1559644-.0760044-.0949348-.1359037-.1929777-.1887395-.2924333-.0002826-.0008476-.0005651-.0014127-.0011302-.0022603-.0296671-.0559438-.0590517-.1121701-.0813727-.169244-.0912618-.2164289-.1203639-.440769-.0929571-.661436.0014127-.0132796.0016953-.0268417.0033906-.0401213.0048032-.031645.012997-.0630074.0206257-.0946523.0404038-.1938254.1197987-.3819998.2480738-.5549169.1638757-.2217972.3537454-.3732409.5619805-.4678932.2983667-.1452277.6334641-.1633106.9855142-.0695059.0293846.0064985.0582041.0101716.0878713.0180829.0901316.0237337.1746123.0624422.2562676.1073668.4839982.2441182.7334848.6888428.7385706 1.2737093 0 .0050858.0011301.0098891.0011301.0149749 0 .0107366.0011302.0180828.0008477.0262766-.0073462.6591756-.4207084 1.2279372-1.105313 1.3661013-.4130797.0833505-.5794982.268417-.7086209.6447659-.8154227 2.3790223-1.6410169 4.7549367-2.5005164 7.1184191-.1717869.4718489-.0791124.6077526.1907174.6190544.0935221-.0011302.2068223-.0144098.3379228-.0316449 2.4959957-.3283164 4.9948168-.6360071 7.4947681-.9307007.3404658-.0401213.5325958-.1302529.6812141-.4710012.2576803-.5922127.7719108-.9080972 1.3375643-.8897318l.0113018-.0002825c.0155399.0005651.031645.003673.0474674.0050858.0647027.0033905.1294053.0084763.1955206.0206257.6806491.1254496 1.0982494.5484183 1.1934668 1.2222863.0836331.5947556-.1353387 1.0725379-.6057748 1.3946383-.0548136.0392736-.1144304.0740266-.1763076.1070842-.006216.0033906-.0115843.0073462-.0180828.0110193-.0011302.000565-.0028254.0008476-.0039556.0014127-.0141272.0073461-.0259941.0163875-.0401213.0231686-.0398387.0189305-.0816553.0307973-.1229067.0457722-.025429.0093239-.0502929.0203432-.076287.0282544-.022321.0064985-.0452071.0104541-.0675281.0158225-.4407689.1130177-.9196814.0169526-1.2573217-.2997795-.0709186-.057639-.1390118-.1209289-.2011715-.1929777-.0997381-.1161256-.1898697-.2138859-.2963889-.2808489-.1774378-.0850458-.3729584-.0873062-.6150988-.0562263-2.6369852.3373578-5.2753831.6634138-7.9157589.9719521-.0452071.0050858-.0873062.0118669-.1279925.0194956-.2859348.0697884-.4656329.2130383-.5916476.4540485-.0141272.0330577-.0279719.0658328-.0401213.1039763-.3300117 1.0293086-.6967541 2.0478805-1.0742331 3.0613666-.1319482.3548756-.0912618.6153814.185349.8798427.799035.763152 1.5915716 1.5339326 2.3665904 2.3213834.2212321.2249052.4181654.3028874.6944937.2463785.0364482-.0096065.0740266-.0209082.1133002-.0347529 2.5739779-.9024462 5.1530415-1.7896351 7.7349306-2.6686302.3184274-.108497.488519-.2427055.5605677-.6102955.1333609-.6817792.6136861-1.0841222 1.2429121-1.1510852.140707-.0183653.2842395-.0231686.4286196-.0011301.3102335.0477499.5221417.1378815.6670869.2946936.1966507.1647233.3495072.3890634.453766.6710425.2006064.5424849.0802426 1.0126385-.2681345 1.399159-.1144304.2217972-.3401832.3568534-.6232925.4486802-.181676.0706361-.3715457.0974778-.5636758.0816553-.2929983-.0146923-.5642408-.1262973-.8024255-.3345324-.0189305-.0149748-.0384261-.0257115-.057074-.041534-.2090827-.1754599-.3935841-.2195368-.5992763-.1884569-.0497278.0101715-.1005857.0231686-.1542691.042099-2.4205564.8442422-4.8391349 1.6947003-7.2684501 2.5129483-.5724346.1926952-.5221417.3780442-.1503135.740831 1.8178895 1.7755079 3.6250423 3.562035 5.427957 5.3530828.1641582.1627455.319275.2458135.5122527.2582454.1311005-.0053683.2638963-.0404038.4071462-.0624422.1130177-.0172352.223775-.0178003.3328371-.0107367.5410722.0107367.9925778.2949762 1.2146576.7823649.277741.6088828.2198194 1.1937494-.2768933 1.6876367-.2800014.2785886-.6523946.4269243-1.0259181.4289021-.003108.0002825-.006216.0005651-.0090414.0005651-.0550961 0-.1096272-.0056509-.1641582-.0121494-.0364482-.0039556-.0728964-.006216-.1087795-.0127145-.0022604-.0005651-.0042382-.0014127-.0064986-.0016953-.3170146-.0593343-.6139685-.2234924-.8349181-.4907793-.3153194-.3814347-.4873888-.8357658-.3003445-1.309875.1319481-.3348149.0276893-.5119701-.1935428-.7298117-1.9275167-1.8992623-3.8513603-3.8021976-5.7647498-5.7155871-.2458135-.2458134-.4780648-.3523326-.7736061-.3113637-.045207.0113018-.0915443.0251464-.1404244.0426642-1.0400453.3743711-2.0789604.7552407-3.1353933 1.0779062-.4235338.1291227-.5303355.3537453-.5616979.7532629-.0810902 1.0312864-.172917 2.0645506-.3288815 3.086513-.0740265.4848459.0912618.7298118.4746743.9694093 2.2134515 1.3819238 4.4198393 2.7757144 6.6177508 4.1822195.2333815.1494659.4444421.2771759.6755632.2811315.0884364-.0135621.1811109-.0469023.287065-.1008682.0850458-.0429468.169809-.0782648.2545723-.1062367.2079526-.1087795.4557438-.1099097.7001446-.0579215.1260147.0214733.2455309.0632899.3593962.1197987l.0401213.0203432c.0378609.0203432.0748742.041534.1107573.0658328.4989731.3065605.7744538.8716489.6775411 1.4940938-.0875887.5636758-.5017985.9872096-1.0465438 1.1290468-.2667218.0774171-.5585899.0870236-.8422643.009889-.6083177-.1652884-1.0213974-.7063606-1.015464-1.434477.0028255-.3554406-.1181034-.5464405-.412232-.7309419-2.1919781-1.3731649-4.3785878-2.7545236-6.5505052-4.1584859-.0449245-.0288195-.083068-.0505754-.1206464-.0714837-.0310799-.0163875-.0593343-.0302322-.0853284-.041534-.0115843-.0050858-.0234511-.0104541-.0341878-.0146923-.2356419-.0875887-.2551374.0901317-.3133415.6458961-.2571153 2.4570046-.5111225 4.9142917-.7781268 7.3701661-.0409689.3769139-.0132796.6543724.3534628.8987731.4596994.306278.6450484.8012954.5472881 1.3604505-.1237543.7083383-.6625662 1.1784919-1.3607329 1.2172005-.1802632.009889-.3528978-.0121494-.513948-.060182-.5515263-.1316656-.8809728-.5241195-1.0219624-1.0841221-.1635931-.6498517.1147129-1.2717316.7671075-1.5791397.0002826 0 .0005651-.0002825.0005651-.0002825l.0152574-.0101716c.0404038-.0228861.0810902-.0435118.121494-.0641376.2706774-.1689614.3574185-.3862379.3913238-.7238783.2681345-2.668065.5540692-5.3347174.8538486-7.999392.0460547-.4096891-.0757218-.6504168-.425229-.8611948-.9459581-.5713044-1.8786366-1.1652123-2.8022736-1.7718348-.1305355-.0856109-.2463786-.1260147-.360809-.1285576-.1138653.0025429-.2302735.0429467-.3605264.1285576-.9236371.6066225-1.8563156 1.2005304-2.8022736 1.7718348-.3495072.210778-.4712838.4515057-.4252291.8611948.300062 2.6646746.5854317 5.331327.8538487 7.999392.0339053.3376404.1206464.5549169.3913237.7238783.0404038.0206258.0810902.0412515.121494.0641376.0053684.003108.0098891.0070636.0149749.0101716.6532422.3076906.9315483.9295705.7679552 1.5794222-.1409896.5600026-.4701536.9524565-1.0219625 1.0841221-.1610502.0480326-.3336847.070071-.5139479.060182-.6984493-.0387086-1.2369786-.5088622-1.360733-1.2172005-.0977603-.5591551.0875887-1.0541725.5475707-1.3604505.3664599-.2444007.3941492-.5218592.3531803-.8987731-.2670043-2.4558744-.5210116-4.9131615-.7781268-7.3701661-.0582041-.5557644-.0776997-.7334848-.3133415-.6458961-.0107367.0042382-.0226036.0096065-.0341879.0146923-.0259941.0113018-.054531.0251465-.0853283.041534-.0375784.0209083-.0757219.0426642-.1206464.0714837-2.1719175 1.4039623-4.3588097 2.785321-6.5505053 4.1584859-.2941285.1845014-.4150574.3755013-.412232.7309419.0059334.7281164-.4071462 1.2691886-1.0154639 1.434477-.2836744.0771346-.5755426.0675281-.8425469-.009889-.5444627-.1418372-.9586725-.565371-1.0465438-1.1290468-.0966301-.6224449.1788505-1.1875333.6775411-1.4940938.0361656-.0242988.0731789-.0454896.1107573-.0658328l.0404038-.0203432c.1135828-.0565088.2333816-.0983254.3591137-.1197987.2446833-.0519882.4924746-.050858.7004272.0579215.0844807.0279719.1695265.0632899.2542898.1062367.1062366.0539659.1989111.0873061.2873474.1008682.2308387-.0039556.4418992-.1316656.6755633-.2811315 2.1979115-1.4065051 4.4042993-2.8002957 6.6177507-4.1822195.3834125-.2395975.5484184-.4845634.4746743-.9694093-.1559644-1.0219624-.2477913-2.0552266-.3288815-3.086513-.0313624-.3995176-.1384466-.6241402-.5616979-.7532629-1.0564328-.3226655-2.0956305-.7035351-3.1353932-1.0779062-.0488802-.0175178-.0952174-.0313624-.1404245-.0426642-.2955412-.0409689-.5277926.0655503-.7736061.3113637-1.913672 1.9133895-3.837233 3.8163248-5.7647497 5.7155871-.2212321.2178416-.325491.3949968-.1935428.7298117.1870443.4741092.0149748.9284403-.3006271 1.309875-.220667.2672869-.5179035.431445-.8346356.4907793-.0426642.0081938-.0788298.0104542-.1149955.0144098-.0548136.0064985-.1096271.0121494-.1644407.0121494-.003108 0-.0059335-.0002826-.0090414-.0005651-.3735235-.0019778-.7459168-.1503135-1.0259181-.4289021-.4967127-.4938873-.5546343-1.0787539-.2768933-1.6876367.2220797-.4873887.6735854-.7716282 1.2146576-.7823649.109062-.0070636.2198194-.0064985.3328371.0107367.1429673.0220384.2760457.0570739.4068636.0624422.1932603-.0124319.3483771-.0954999.5122527-.2582454 1.8029147-1.7910478 3.6103501-3.5775749 5.4282396-5.3530828.3715457-.3627868.4221211-.5481358-.1503135-.740831-2.4293152-.818248-4.8478938-1.6687061-7.2684501-2.5129483-.0536834-.0189304-.1045414-.0319275-.1542692-.042099-.2056922-.0310799-.3901935.012997-.5992763.1884569-.0186479.01554-.0381434.0265592-.0570739.0412515-.2379022.2085176-.5094272.3201226-.8024256.3348149-.1921301.0158225-.3819998-.0110192-.5636757-.0816553-.2831093-.0918268-.5088622-.226883-.6235751-.4486802-.348377-.3865205-.46845833-.8566741-.2678519-1.399159.1039762-.2819791.2571152-.5063192.4540485-.6710425.1446627-.1568121.3562883-.2469437.6668044-.2946936.1443801-.0220385.2879126-.0172352.4286196.0011301.629226.066963 1.1095511.469306 1.242912 1.1510852.0717662.36759.2418579.5017985.5602852.6102955 2.5821716.8789951 5.1612353 1.766184 7.7349306 2.6686302.0395562.0138447.0771346.0251464.1135828.0347529.2763282.0565089.4732616-.0214733.6944937-.2463785.7750188-.7874508 1.5675553-1.5582314 2.3665904-2.3213834.2766108-.2644613.3172971-.5249671.1850665-.8798427-.3771966-1.0134861-.743939-2.032058-1.0739506-3.0613666-.0121494-.0381435-.0262766-.0712011-.0401213-.1042588-.1262973-.2410102-.3057129-.3839776-.5916476-.453766-.0406864-.0076287-.083068-.0144098-.1279925-.0194956-2.6403758-.3085383-5.2787737-.6345943-7.915759-.9719521-.2418578-.0310799-.437661-.0288195-.6150987.0562263-.1065192.066963-.1966508.1647233-.2963889.2808489-.0621597.0720488-.1302529.1353387-.2011715.1929777-.3376403.3167321-.8165528.4127972-1.2573218.2997795-.0226035-.0053684-.0452071-.009324-.0675281-.0158225-.025994-.0079112-.0508579-.0189305-.0762869-.0282544-.0412515-.0149749-.083068-.0268417-.1226242-.0457722-.0144097-.0067811-.0265591-.0158225-.0404038-.0231686-.0011302-.0005651-.0028255-.0008477-.0039556-.0014127-.0064986-.0036731-.0118669-.0076287-.0183654-.0110193-.0615946-.0330576-.1212115-.0678106-.1763076-.1070842-.4701536-.3221004-.6891254-.7998827-.6052097-1.3946383.0949348-.673868.5125352-1.0968367 1.1931842-1.2222863.0658328-.0121494.130818-.0172352.1955206-.0206257.0158225-.0014128.0319275-.0045207.0474675-.0050858l.0113017.0002825c.5656536-.0183654 1.079884.2975191 1.3375644.8897318.1486182.3407483.3407483.4308799.6809315.4710012 2.5002339.2946936 4.999055.6023843 7.4950506.9307007.1311005.0172351.2441182.0305147.3379229.0316449.2698297-.0113018.3625042-.1472055.1907173-.6190544-.859782-2.3634824-1.6850937-4.7393968-2.5005163-7.1184191-.1291227-.3763489-.2955413-.5614154-.7086209-.6447659-.6846047-.1381641-1.0979669-.7069257-1.1055956-1.3661013 0-.0081938.0014128-.01554.0014128-.0237337l.0002825-.0100304c.0056509-.5923539.2551374-1.0370785.7391357-1.2811967.0813727-.0449246.166136-.0836331.2562676-.1073668.0296671-.0079113.0584867-.0115844.0878713-.0180829.3520501-.0938047.6871475-.0757218.9852317.0695059.2085176.0946523.3983873.246096.562263.4678932.128275.1729171.20767.3610915.2483563.5549169.0073462.0316449.0152574.0630073.0203432.0946523.0016953.0132796.0022604.0268417.0036731.0401213.0271242.220667-.0019778.4450071-.0932396.661436-.022321.0570739-.0519881.1133002-.0816553.169244-.0002825.0008476-.0005651.0014127-.0008476.0022603-.0528358.0994556-.1127352.1974985-.1887396.2924333-.0429467.0536834-.0827854.1045414-.1169733.1559644-.092957.1989112-.0819378.3896285-.0107367.6201846.9290054 2.6059053 1.8529251 5.2137885 2.7683683 7.8242146.0158225.0452071.0358831.0802425.0548136.1175384.1138653.1681138.265309.2703948.4896491.3192749.0019779.0002826.003108.0008477.0048033.0011302.210778.0226036.4212734.0485976.6320514.0723313.7317896.0748743 1.4616013.1706568 2.1902828.2732203.1799807.0248639.3602439.0460547.5396595.0723313.044642.0064985.0856109.009324.1254496.0104542.0237337.0002825.0471849-.0002826.0695059-.0019778.0070636-.0002826.0141272-.0008477.0209083-.0014128.2161463-.0231686.3718282-.137599.5077319-.3650471.5786506-.9685616 1.16606-1.932885 1.7786159-2.8802558.1980635-.3065605.1763076-.5294879-.0104541-.8272895-1.4491693-2.309799-2.8853416-4.6280743-4.3172757-6.9488926-.1740473-.2822616-.351485-.4277719-.7227481-.4215559-.7546757.0132795-1.2949002-.4334229-1.4404105-1.0968367-.1483357-.676976.07996-1.2220038.6605884-1.5763142.2963889-.1811109.5953207-.2514644.8871889-.2220798.2986492.0200607.5893872.143815.8634551.3690028.5111225.4195781.6481564 1.0620837.3263386 1.7226721-.1678313.3441388-.1486183.6091653.0621597.9052717.1768727.2486389.3274688.5159257.488519.7755839 1.2674933 2.0422296 2.5347042 4.0853069 3.8683129 6.2349033 1.3338913-2.1495964 2.6011021-4.1926737 3.8683129-6.2349033.1613328-.2596582.3116463-.526945.488519-.7755839.210778-.2961064.2302735-.5611329.0624423-.9052717-.3218179-.6605884-.1847839-1.303094.326056-1.7226721.2743504-.2251878.5648059-.3489421.8637377-.3690028zm210.4936653 2.4290892c.606057-.0432293.736593.1768727.734615.7504374-.019496 6.2334907-.01215 12.4666987-.01215 18.7001894 0 1.2231339 0 2.4462678.001131 3.6694018.001695 1.8065877.606339 2.7022529 2.424229 3.4453442-.794232.7753014-1.524609 1.4703601-2.232099 2.1877399-.28311.2873475-.546158.1757425-.833223.0528358-2.022452-.8659981-2.98734-2.45983-3.015312-4.5981247-.045207-3.4572111-.018366-6.9152698-.019496-10.373046-.001695-4.3751973.009324-8.7503945-.013311-13.1253093-.002511-.5577423.145824-.7436564.708653-.7080558.749872.0474674 1.508221.0522707 2.256963-.0014127zm-116.764395 10.1494123c3.742298-.7690854 7.456342 1.0358071 8.856914 4.2924118.466763 1.0858174.564806 2.2202325.453766 3.3862925-.033623.3551581-.20541.6040795-.441052.8501755-1.591289 1.6627728-1.588181 1.6653157-3.852207 1.6653157-2.657894-.0002826-5.31607.0180828-7.973963-.0138447-.629509-.0079112-.705231.2042795-.576956.744504.62188 2.6186199 3.095272 4.5170345 5.9857 4.5803244 1.823822.0398387 3.553276-.2921507 5.141174-1.2313277.09437-.0559438.213604-.070071.402626-.1288402-.131666 1.1072908-.257963 2.149879-.377479 3.1933148-.024864.2192543-.163311.3300117-.341031.4096891-3.944883 1.7647712-10.227819 1.5667078-13.351062-3.5730542-3.034525-4.993404-.936917-12.7334204 6.07357-14.174961zm75.822663.0025429c3.758404-.7962097 7.623044 1.0962715 8.937439 4.3955404.219537.5515263.349507 1.1222657.417883 1.7074147.136186 1.1635171-.036166 2.1473361-.998794 3.0401759-.802143.7439389-1.543821 1.1041828-2.646026 1.0745156-2.822052-.0765694-5.648059-.0257115-8.472654-.025994-.869954-.0002826-.916008.063855-.671042.9352213.647308 2.2984973 2.721748 4.0530969 5.158409 4.3138852 2.063138.2206671 4.034449-.0890014 5.853752-1.1454342.098608-.057074.209082-.0932396.444724-.1966508-.129122 1.134415-.252312 2.1577902-.357418 3.1834257-.025712.2517469-.167266.3771966-.36872.4667631-4.280545 1.9057607-10.761827 1.3700569-13.618914-4.0937833-2.612404-4.9956643-.416753-12.2276662 6.321361-13.6550796zm22.482214-.0228014c3.762641-.7535454 7.52274 1.1674728 8.827811 4.4749354.433423 1.0982494.501516 2.2357724.34979 3.4004197-.059334.4563089-.452353.6337467-.674998.9507613-.822204 1.1702982-1.920453 1.5568187-3.334022 1.4113084-1.117745-.1147129-2.256963-.0228861-3.386575-.0228861-1.600048-.0031079-3.201226.0237338-4.800426-.0163875-.621598-.01554-.702123.204562-.593061.7442215.497278 2.4586998 2.957391 4.4322712 5.772379 4.5743909 1.820997.0918269 3.56147-.2280132 5.173667-1.1194402.140142-.0774171.280567-.2384673.441899-.153139.185914.0983254.060747.2935635.045772.4444421-.081372.8188131-.18111 1.6362136-.250899 2.4558744-.027124.3187098-.154834.5179035-.447832.6475913-4.012411 1.7757905-10.068181 1.4082004-13.178428-3.4221756-3.093577-4.8043819-1.289532-12.8992739 6.054923-14.3699166zm-115.223879.8347204c1.427696-.9309832 2.974343-1.0812967 4.607166-.7713457.361939.0686582.450376.223775.355723.5885396-.254007.9781681-.475522 1.9650951-.691668 2.9523046-.071484.3266211-.213886.4108193-.54418.3435738-.650417-.1325133-1.313548-.1234719-1.964813-.0005651-2.425359.4580042-3.734952 2.0374264-3.797959 4.7786704-.068093 2.9636063-.047185 5.9303207-.005086 8.8947746.010454.7255736-.184784.9490661-.898773.8883191-.747895-.0632899-1.506526-.0406864-2.258094-.0045207-.473261.022886-.597581-.14325-.59306-.6015367.020908-2.188305.008476-4.3771751.008194-6.5657626-.000283-3.5066563.010737-7.0130301-.011933-10.5194039-.003607-.5297704.143881-.6967541.674217-.6684997.821356.0435119 1.64808.0367308 2.470566.0016953.477783-.0206257.612556.1604851.597864.6105781-.026559.8049685-.007629 1.6116322-.007629 2.4174483.630074-.8987731 1.166908-1.7616632 2.059465-2.3442694zm63.535739-10.8949621.116925.0065837c.701557.0550961 1.413569.0519881 2.116256.0036731.605493-.0418166.810337.1279925.804121.773041-.033623 3.3877052-.01554 6.775693-.01554 10.1633982v1.1389357c2.272503-2.383543 4.934353-2.4926051 7.686051-1.760533 2.74972.7317895 4.452332 3.0627794 4.474088 5.907152.029949 3.9053263.003107 7.810935.019799 11.7162613.001956.4588518-.130839.6295085-.598733.6131209-.822486-.029102-1.648363-.0358831-2.470284.0014128-.504059.022886-.628378-.1582248-.625835-.6427882.018365-3.5993308.009889-7.1989442.008476-10.7988401-.000565-2.3253389-1.205616-3.6855068-3.51711-3.9728543-2.073027-.2576803-3.894872.6105781-4.6487 2.1993242-.281697.5930603-.33312 1.2149402-.33199 1.856033.005651 3.5055262-.01554 7.0113349.021473 10.5162959.007629.7012748-.21332.8934049-.876734.8439596-.725291-.0536834-1.459624-.0398387-2.187175-.0005651-.484563.0259941-.672738-.1101922-.640245-.6182067.042099-.6560677.013844-1.3169386.013844-1.9755492.000565-8.3991921.008477-16.7981016-.015257-25.1972937-.001978-.6368547.169809-.8142924.783495-.7659774zm-82.0329999 10.2014425.1149338.0041117c.7970572.0497278 1.6014606.0463373 2.3988004.0008477.5388119-.0307974.6721727.1522913.667652.674433-.0245813 2.8463505-.0115843 5.6932661-.0115843 8.5396166-.0025429 2.8231818-.0158225 5.6463637.0096065 8.469263.0048033.5218592-.1220591.7072082-.6628487.6772585-.8210735-.0452071-1.6475154-.0381435-2.4697191-.0050858-.4936047.0197781-.6467437-.1460753-.6427881-.6413754.0203432-2.7522632.009324-5.504809.009324-8.2570723 0-2.9172691.0141272-5.8345382-.0118669-8.7515247-.0050858-.5583074.1480532-.7413961.7134242-.7063606zm-8.7700931.0079826c.5759597-.0358831.6865825.115278.4789125.6631313-1.1482597 3.0333947-2.2693952 6.0772436-3.3984419 9.1182671-.9818412 2.6446139-1.971311 5.2861198-2.9319614 7.9377974-.1633106.4500929-.3839776.6213147-.8674108.5953206-.4483976-.0242988-.7623043-.0370133-.9533042-.5729996-1.4842048-4.1615939-3.2503887-8.2223194-4.4670241-12.5548525-.3271862.3153193-.3167321.6628487-.4102542.9677139-1.2112671 3.96127-2.8251597 7.7770297-4.2079311 11.6758574-.2102129.5924953-.6176417.421556-1.0115083.479195-.5066018.0740266-.6405278-.2458134-.7778443-.6173591-1.7020464-4.6102741-3.4086135-9.2188529-5.1137678-13.8277142-.4079939-1.1027701-.7911239-2.2154292-1.2333056-3.3037896-.1969333-.4837157-.0443594-.5662186.3966921-.5563296.7764315.0175178 1.5542758.0228861 2.3301422-.0039556.3873681-.0132796.5834538.1051065.7179449.4873888 1.2333055 3.5027007 2.7242914 6.9144222 3.696526 10.5089498.0353181.130818.0324926.2887602.2743505.3531803.5099923-1.8455789 1.1434564-3.6516016 1.8249531-5.4418017.6693473-1.7582727 1.3288055-3.5207836 1.9580315-5.293466.1587898-.446985.36759-.6159464.8555439-.6148163 2.02895.0039557 2.0391216-.0169526 2.7288121 1.8760937 1.1103987 3.0469569 2.4284675 6.0210173 3.2255248 9.1781665.0324926.1285576.0356006.2896078.2664392.3616566.5163025-1.9518155 1.202257-3.8438572 1.9088478-5.7286992l.7079504-1.8843894.3487859-.9440457c.2819792-.7727585.5814761-1.5395835.8476327-2.3177103.1305354-.3817172.3156019-.5704568.7589138-.5424849.6800839.0432293 1.3666664.0440769 2.0467503.0016953zm70.422282-.0006216c2.138578-.0678106 2.147337-.0808077 2.88732 1.9447519 1.10503 3.0229406 2.407277 5.9766579 3.203204 9.1080955.027407.1079319.082503.2088002.12997.3254909.25429-.131383.247226-.3627867.300062-.5489834.999924-3.5343457 2.464068-6.903968 3.675053-10.3634395.120364-.3449865.302322-.4763695.668499-.4639376.728682.0248639 1.459906.0279719 2.188588.0008476.510275-.0186479.594755.1036938.406581.6029494-1.366949 3.6273027-2.702253 7.2664723-4.048011 10.9016862-.767108 2.0721794-1.554558 4.1370125-2.289456 6.2204936-.181393.5133829-.472696.5862793-.94285.5882825-.46309.0019524-.70636-.1107827-.876452-.5857396-1.441823-4.0262551-3.155737-7.9550325-4.332816-12.0767876-.037578-.1330784-.091827-.2610709-.206822-.5834539-.159355.4989731-.269265.8295499-.370698 1.1632346-1.197423 3.9412094-2.812163 7.7318226-4.183915 11.6097421-.178285.5043414-.501516.4532009-.879278.4642201-.3998.0115843-.68856-.0194955-.862607-.4941698-2.114278-5.7588163-4.248335-11.5102865-6.393693-17.257236-.182524-.4885189-.022039-.5639583.414775-.5523739.776149.0209082 1.554558.03221 2.329577-.003108.405733-.0183654.589387.1404245.713989.5001032 1.209007 3.4857481 2.716098 6.8669548 3.666294 10.4442472.041251.1556819.1133.3034525.234512.6215973.142967-.5029287.236772-.8569566.344138-1.2070289 1.028744-3.3521047 2.387782-6.5855407 3.547908-9.890743.118104-.3365102.311646-.4568741.676128-.4687409zm-121.5584632 12.0172273c-.9165734.5568947-1.7195641 1.0948589-2.7488727 1.3827715.738288.4681757 1.4745983.9400246 2.2165594 1.4022669.0251465.0158225.04775.0268417.0692234.0356006.15992.0288195.1845013-.1539866.2011714-.3028874.0867411-.7758664.1633106-1.5548409.2619185-2.5177516zm-8.0313195 0c.098608.9629107.1751774 1.7418852.2619185 2.5177516.0163876.1489008.0412515.3317069.2011715.3028874.0211908-.0087589.0440769-.0197781.0692233-.0356006.7422437-.4622423 1.4782714-.9340912 2.2165595-1.4022669-1.0293086-.2879126-1.8322993-.8258768-2.7488728-1.3827715zm4.0155185-8.6054493c-2.0662459.0183653-3.7722479 1.74132-3.7770613 3.8253662-.0047931 2.0620077 1.6964057 3.7702701 3.7770613 3.8075659 2.0809382-.0372958 3.782137-1.7455582 3.7773439-3.8075659-.005096-2.0840462-1.7108155-3.8070009-3.7773439-3.8253662zm-6.223319 3.9344283c-.6264006.5713044-1.3107227 1.1954446-2.0199087 1.8419057.9343738.3221005 1.7817239.6142512 2.7525458.9490661-.5094272-1.0764935-.6961889-2.0182134-.7326371-2.7909718zm12.4469206 0c-.0364482.7727584-.22321 1.7144783-.7326372 2.7909718.970822-.3348149 1.8181721-.6269656 2.7525458-.9490661-.709186-.6464611-1.3935081-1.2706013-2.0199086-1.8419057zm171.0779546-4.464001c-2.249899-.1593549-4.567044 1.4019845-5.305332 3.5388664-.175178.5074494-.152574.7120115.468458.6925159 1.289532-.0401213 2.581606-.0121494 3.872551-.0104541 1.290945 0 2.583019-.0262766 3.872834.0121494.565936.0169526.671607-.2121907.634311-.7072082-.135056-1.7978289-1.72917-3.3975943-3.542822-3.5258694zm-74.379427.4452897c-2.591213-1.4186545-6.094761.6060574-6.865542 3.3515396-.115278.4111018.112453.4238163.403473.4229687 1.337565-.0028255 2.675694-.0011302 4.013258.0002825 1.290945 0 2.582737-.0271242 3.872269.012432.561415.0172352.692233-.1932603.632616-.6984493-.163028-1.383054-.841416-2.4239469-2.056074-3.0887735zm96.591811-.452551c-2.228144-.0940873-4.480869 1.4986145-5.192315 3.6346488-.168397.504624-.019496.6091654.460829.6009716 1.270319-.022321 2.541203-.0076287 3.812087-.0096065 1.317786 0 2.63642-.0217559 3.953359.0107367.536834.0132795.704948-.1638757.65748-.6916683-.170939-1.8967194-1.788222-3.4645572-3.69144-3.5450823zm-193.0970077-.9577543-.0537541.0004944c-.0169526.0008477-.0339053.0022604-.0508579.0036731-.811467.0940872-1.6263246.1972159-2.5883877.3156019.820791.741396 1.4833572 1.456798 1.9605744 2.5163388.3367927-.95839.6046446-1.7206943.8719315-2.4807382.0559437-.1587899.0672455-.2949762-.050858-.3410309l-.0358831-.0081938-.0200606-.0039556c-.0211909-.0022604-.0437944-.0028254-.0666805-.0022604zm-12.7798284.0004944-.053754-.0004944-.0327045.0021897c-.0073461.0008476-.0135621.0025429-.0200606.0039556-.012432.0019778-.0245814.0045207-.0358832.0081938-.1181034.0460547-.1068017.182241-.0508579.3410309.2675694.7600439.5351387 1.5223482.8719315 2.4807382.4772171-1.0595408 1.1397833-1.7749428 1.9605743-2.5163388-.9620631-.118386-1.7766381-.2215147-2.5883876-.3156019-.0169527-.0014127-.0341879-.0028254-.050858-.0036731zm6.3628959-3.1204184c-.0751568.0180829-.1424023.1039763-.2020191.2000414-.4274894.6877126-.8527185 1.3771205-1.3827714 2.2346422.5563295-.1019985 1.0711251-.146923 1.5847905-.1415547.5139479-.0053683 1.0287435.0395562 1.5850731.1415547-.5303355-.8575217-.9555646-1.5469296-1.3827714-2.2346422-.0596169-.0960651-.1268624-.1819585-.2023017-.2000414zm65.2344598-7.0402391c1.332196-.0101716 2.3733714 1.0146163 2.383543 2.3456821.0098891 1.3177863-1.0431533 2.382978-2.3552886 2.3818487-1.2748395-.0008485-2.3448345-1.0544559-2.3555712-2.3185588-.0113018-1.3327611 1.0188545-2.3990829 2.3273168-2.408972z" fill="#18191a"/></g></svg>