<?xml version="1.0" encoding="UTF-8"?>
<svg width="260px" height="100px" viewBox="0 0 260 100" version="1.1" xmlns="http://www.w3.org/2000/svg" xmlns:xlink="http://www.w3.org/1999/xlink">
    <title>cafemedia</title>
    <g id="cafemedia" stroke="none" stroke-width="1" fill="none" fill-rule="evenodd">
        <rect fill="#FFFFFF" x="0" y="0" width="260" height="100"></rect>
        <g id="Group-29" transform="translate(87.000000, 10.000000)">
            <g id="Group" transform="translate(70.339892, 0.126270)">
                <polygon id="Fill-1" fill="#A0C45D" points="-4.91618758e-14 5.89578378 5.89621622 5.89578378 5.89621622 0 -4.91618758e-14 0"></polygon>
                <polygon id="Fill-2" fill="#54B7BF" points="0.000432432432 11.7932973 5.89664865 11.7932973 5.89664865 5.89751351 0.000432432432 5.89751351"></polygon>
                <polygon id="Fill-3" fill="#54B7BF" points="5.89664865 5.89578378 11.7928649 5.89578378 11.7928649 0 5.89664865 0"></polygon>
                <polygon id="Fill-4" fill="#91CDCF" points="5.89664865 11.7932973 11.7928649 11.7932973 11.7928649 5.89751351 5.89664865 5.89751351"></polygon>
            </g>
            <path d="M13.1394595,64.0490811 C14.0730811,62.1675676 15.4495135,60.8525405 17.5507027,60.5887568 C21.9468108,60.036973 24.3347027,61.9072432 24.8627027,65.7930811 C25.2138378,68.3768649 24.9859459,70.9705946 25.0374054,73.5587027 C25.0741622,75.3943784 24.9980541,77.2330811 25.0659459,79.0665946 C25.0970811,79.915027 24.6551351,79.8869189 24.0735135,79.8774054 C23.5161081,79.8678919 23.0516757,79.9565405 23.0646486,79.0843243 C23.1156757,75.5565405 23.0823784,72.0278919 23.0875676,68.4996757 C23.0897297,67.3420541 22.9932973,66.1974054 22.6603243,65.0856216 C22.1876757,63.5081081 21.219027,62.4330811 19.5212973,62.2077838 C17.6601081,61.9608649 16.092973,62.4698378 15.0594595,64.1463784 C14.2374054,65.4804324 14.0328649,66.9718919 14.0285405,68.5005405 C14.0194595,71.9565405 13.9991351,75.4134054 14.044973,78.868973 C14.0557838,79.6707027 13.8594595,79.8968649 13.0391351,79.9037838 C12.1855135,79.9111351 12.0419459,79.6196757 12.0505946,78.8473514 C12.0908108,75.3195676 12.0743784,71.7913514 12.0652973,68.2627027 C12.0618378,66.8412973 11.8192432,65.4648649 11.0923243,64.2185946 C9.54897297,61.5725405 6.27891892,61.4099459 4.47956757,63.8938378 C3.51567568,65.2244324 3.16367568,66.7487568 3.16497297,68.3716757 C3.16843243,71.864 3.14335135,75.3567568 3.18313514,78.8486486 C3.19221622,79.6179459 3.04908108,79.8968649 2.19762162,79.9072432 C1.30551351,79.9180541 1.23243243,79.5660541 1.23578203,78.8326486 C1.26227027,73.2162162 1.25751351,67.5997838 1.24108108,61.9833514 C1.23891892,61.3074595 1.22464865,60.8780541 2.16389189,60.875027 C3.10702703,60.872 3.25232432,61.2421622 3.17535135,62.0092973 C3.15286486,62.2332973 3.07027027,62.5001081 3.27654054,62.7107027 C5.6012973,59.4575135 10.7204324,59.6028108 13.1394595,64.0490811 Z M67.1041297,63.9079784 C67.0652108,68.950573 67.0608865,73.9940324 67.1058595,79.0361946 C67.1145081,79.9581405 66.6358054,79.8677622 66.0347243,79.8811676 C65.4141838,79.8954378 65.0509405,79.8444108 65.0691027,79.0361946 C65.1253189,76.5164108 65.0898595,73.9940324 65.089427,71.4725189 C65.089427,68.9510054 65.1326703,66.4281946 65.0669405,63.9088432 C65.0431568,62.9743568 65.5529946,63.0902486 66.1436973,63.0690595 C66.7655351,63.0470054 67.1106162,63.1084108 67.1041297,63.9079784 Z M59.1441297,53.5741838 C59.8723459,53.5923459 60.1253189,53.7419676 60.1223187,54.5259676 C60.0933189,62.5181838 60.0950486,70.5099676 60.1201297,78.5017514 C60.1227243,79.2386162 59.9523459,79.4864 59.1769946,79.4829405 C58.4189405,79.4799135 58.1512649,79.2706162 58.2295351,78.513427 C58.291373,77.9209946 58.2420757,77.3173189 58.2420757,76.7184 C54.9988324,81.4064 48.3026162,80.7893189 45.9912649,75.4768865 C44.5101838,72.0736432 44.5387243,68.5916973 45.9000216,65.1815351 C47.9238054,60.1095351 54.3497514,58.3590486 58.0985081,63.9162378 C58.3264,63.6636973 58.2347243,63.3700757 58.2355892,63.1136432 C58.2438054,60.2699676 58.2619676,57.4258595 58.227373,54.5821838 C58.2187243,53.8799135 58.3264,53.553427 59.1441297,53.5741838 Z M39.3847351,61.4653405 C41.6338162,62.8629622 42.2141405,65.1738811 42.4965189,67.577773 C42.6253838,68.6735568 43.0833297,70.0512865 42.4416,70.8240432 C41.8755459,71.5051243 40.4826811,70.9892324 39.4569514,71.0281514 C38.3430054,71.0696649 37.2264649,71.0376649 36.1107892,71.0376649 C34.2396541,71.0380973 32.3685189,71.0592865 30.4982486,71.0251243 C29.9248432,71.0147459 29.7501405,71.1872865 29.7925189,71.7542054 C29.8733838,72.8348541 30.0156541,73.8964757 30.4005189,74.9161514 C31.0318703,76.5862054 32.2439784,77.5440432 34.0009514,77.7719351 C36.3352216,78.0755027 38.6067892,77.9851243 40.5773838,76.4538811 C41.3881946,75.8233946 41.4928432,76.7946378 41.8885189,77.0484757 C42.3845189,77.3663135 41.9858162,77.6404757 41.7159784,77.8696649 C39.6251676,79.6452324 37.1369514,80.0733405 34.5267892,79.8082595 C30.5432216,79.4043676 28.4727351,77.1773405 27.9304649,72.6990703 C27.6316541,70.2281514 27.654573,67.7416649 28.4874378,65.3369081 C30.0329514,60.8750703 35.3635459,58.9658811 39.3847351,61.4653405 Z M80.8403027,60.9105297 C83.5339243,61.9648 84.5254919,64.2739892 84.6076541,66.9369081 C84.7296,70.8906378 84.6400865,74.8508541 84.6738162,78.8080432 C84.6794378,79.4982054 84.2837622,79.4683676 83.8405189,79.4307459 C83.4336,79.3961514 82.8294919,79.6755027 82.8666811,78.8512865 C82.8921946,78.2791784 82.8714378,77.705773 82.8714378,76.7782054 C81.1468973,78.9152865 79.2195459,79.9215568 76.790573,79.8705297 C72.3347892,79.7771243 69.8124108,75.3524757 72.0256,71.4575568 C73.0591135,69.6396108 74.8770595,69.2495568 76.748627,69.1492324 C78.5068973,69.0553946 80.2742486,69.0843676 82.0364108,69.1232865 C82.7023568,69.1375568 82.9717622,68.9416649 82.8753297,68.2774486 C82.8498162,68.1010162 82.8740324,67.9180973 82.8710054,67.7382054 C82.8018162,63.6508541 80.2379243,61.6236108 76.2249514,62.4876108 C75.3064649,62.6852324 74.4454919,63.0355027 73.6026811,63.4510703 C73.3644108,63.5686919 72.9600865,64.1343135 72.7724108,63.4912865 C72.6188973,62.9663135 71.7864649,62.3016649 72.6539243,61.8233946 C75.238573,60.3993946 77.9879784,59.7939892 80.8403027,60.9105297 Z M82.3140324,70.9996108 C81.3419243,71.0216649 80.3689514,71.0060973 79.1823568,71.0060973 C78.1397622,71.0528 76.8714378,70.8919351 75.6277622,71.1803676 C73.9598703,71.5673946 73.3051676,72.4050162 73.2675459,74.1689081 C73.2268973,76.1139892 74.0057081,77.3122595 75.5840865,77.7299892 C79.5910054,78.7907459 83.2338162,75.7529081 82.9393297,71.6205838 C82.9064649,71.1531243 82.7750054,70.9892324 82.3140324,70.9996108 Z M48.931373,64.1501838 C46.4232649,67.0846703 46.3445622,72.9493189 48.7726703,75.9555892 C50.7199135,78.3655351 53.7006703,78.5670486 55.9449946,76.4178595 C57.6652108,74.7715892 58.2598054,72.6682378 58.3242378,70.7421838 C58.3372108,67.6472649 57.3339676,65.1672649 55.6176432,63.6710486 C53.4840216,61.8107243 50.7648865,62.0057514 48.931373,64.1501838 Z M29.7907892,68.4919351 C29.7951135,69.0147459 29.9352216,69.1669622 30.4493838,69.1578811 C32.0325189,69.129773 33.6160865,69.1479351 35.1996541,69.1500973 L38.7624649,69.1500973 C40.918573,69.1500973 40.9337081,69.1475027 40.5631135,66.9658811 C40.2128432,64.8988541 39.3981405,63.1786378 37.1296,62.6073946 C32.9319784,61.5505297 29.7561946,64.1070703 29.7907892,68.4919351 Z M66.1178811,57.4210162 C66.9810162,57.4300973 67.3827459,57.9576649 67.4636108,58.7187459 C67.3736649,59.6246919 66.9135568,60.1090162 66.0698811,60.0960432 C65.2218811,60.0826378 64.7302054,59.5749622 64.7462054,58.7338811 C64.7626378,57.8953946 65.2664216,57.4119351 66.1178811,57.4210162 Z M63.8487351,0.000821621622 C65.1157622,0.0189837838 65.8742486,0.660713514 65.8873886,1.72492973 C65.8997622,2.75109189 65.2057081,3.3392 63.9300324,3.38287568 C59.1209514,3.54763243 55.7462486,7.04817297 55.7410595,11.8780108 C55.7401946,12.9945514 55.7860324,14.1132541 55.7254919,15.2259027 C55.6857081,15.9549838 55.8543568,16.2546595 56.6513297,16.1984432 C57.6904649,16.1244973 58.7395459,16.1629838 59.7834378,16.1854703 C60.8381405,16.2075243 61.5620324,16.9050378 61.5382486,17.8282811 C61.5157622,18.7164973 60.8204108,19.3634162 59.8106811,19.3846054 C58.7667892,19.4057946 57.7190054,19.4347676 56.6790054,19.3690378 C55.9291676,19.3214703 55.7155459,19.5398486 55.7220324,20.3087135 C55.7605189,24.9171459 55.7410595,29.5264432 55.7410595,34.1353081 C55.7410595,38.2762811 55.6679784,42.4185514 55.7626811,46.5573622 C55.8478703,50.2767135 54.5112216,53.2816865 51.7233297,55.6946595 C50.8502486,56.4501189 49.8617081,56.4708757 49.1373838,55.6959568 C48.4727351,54.9854703 48.4710054,54.0769297 49.334573,53.3188757 C51.5780324,51.3491459 52.2604108,48.862227 52.2374919,45.9675243 C52.1713297,37.470227 52.1990054,28.9720649 52.236627,20.4747676 C52.2400865,19.5593081 51.9836541,19.2436324 51.1001946,19.3772541 C50.7836541,19.4248216 50.4463568,19.4226595 50.1302486,19.3699027 C49.2299243,19.2194162 48.6867892,18.6568216 48.6976,17.7526054 C48.7084108,16.8457946 49.2692757,16.2987676 50.1765189,16.1815784 C50.8117622,16.0994162 51.676627,16.4726054 52.0441946,16.0453622 C52.5142486,15.4987676 52.1778162,14.5988757 52.2080865,13.8529297 C52.2630054,12.5227676 52.1639784,11.1757405 52.3360865,9.86287568 C53.0630054,4.33811892 58.2630054,-0.0796108108 63.8487351,0.000821621622 Z M74.7434811,16.2089514 C81.3808865,16.8212757 86.2695351,22.9510054 85.2048865,29.3276541 C84.8282378,31.5814919 83.6658595,32.678573 81.3372108,32.7663568 C79.2515892,32.8454919 77.1603459,32.7832216 75.0716973,32.7832216 L75.0716973,32.8147892 C73.0907243,32.8147892 71.1097514,32.8178162 69.1287784,32.8134919 C67.9811027,32.8108973 67.2779676,32.2521946 67.2550486,31.3410595 C67.2312649,30.3918703 67.9599135,29.7873297 69.1707243,29.7847351 C72.3045622,29.7778162 75.4379676,29.7838703 78.571373,29.7821405 C81.8215351,29.7799784 82.3849946,29.0668973 81.6680216,25.8712216 C80.843373,22.1977081 77.5482378,19.4612757 73.873427,19.398573 C69.9326703,19.3311135 66.5289946,21.8374919 65.5798054,25.5062486 C65.3886703,26.2435459 65.3380757,26.9959784 65.3385081,27.7540324 C65.3385081,30.0588973 65.4025081,32.3659243 65.3259676,34.6681946 C65.1348324,40.4208432 69.2662919,43.020627 73.2009946,43.5793297 C76.2617514,44.0134919 79.1491027,43.5832216 81.713427,41.6796541 C82.6440216,40.9890595 83.3497514,41.0889514 83.9932108,41.8431135 C84.6647784,42.630573 84.6319135,43.4297081 83.825427,44.2387892 C82.8922378,45.1750054 81.7376432,45.7877622 80.4965622,46.1795459 C76.5501838,47.4258162 72.593427,47.4297081 68.7798054,45.7691676 C64.2176432,43.7821405 61.8211027,40.2409514 61.7921297,35.2031135 C61.7769946,32.5384649 61.7536432,29.8729514 61.7977514,27.2087351 C61.9032649,20.7879784 68.0394811,15.590573 74.7434811,16.2089514 Z M18.8759351,17.5347892 C19.5353946,17.9110054 20.175827,18.3244108 20.6294486,18.9488432 C21.1820973,19.708627 21.2136649,20.4852757 20.5624216,21.212627 C19.8865297,21.9680865 19.1492324,21.9451676 18.3648,21.3587892 C15.7745297,19.4223568 12.8711784,18.9696 9.75896216,19.6005189 C6.54166486,20.252627 4.31204324,22.4052757 3.85496216,25.6805189 C3.33690811,29.3959784 3.39485405,33.1724108 3.78404324,36.8852757 C4.20869189,40.9293838 6.81669189,43.1823568 10.8945297,43.5827892 C13.7126919,43.8595459 16.335827,43.3497081 18.6692324,41.6420324 C19.6283676,40.9397622 20.3496649,40.9877622 20.9624216,41.6921946 C21.5842595,42.406573 21.5872865,43.3652757 20.8906378,44.140627 C19.8199351,45.3324108 18.4002595,45.9702486 16.9014486,46.396627 C14.0032865,47.2208432 11.0618811,47.2640865 8.14469189,46.5397622 C3.20069189,45.3125189 0.232908108,41.3008432 0.0300972973,35.6416 C-0.0204972973,34.2392216 0.0223135135,32.8329514 0.0223135135,31.4284108 C0.0256288288,31.0747532 0.0234186186,30.7207712 0.0193245245,30.3666631 L0.00503223223,29.3041586 C-0.0118486486,27.8875099 -0.000605405405,26.4720144 0.271827027,25.0703568 C1.35161081,19.5136 5.19420541,16.300627 11.1500973,15.9914378 C13.8480432,15.8513297 16.4729081,16.1639784 18.8759351,17.5347892 Z M38.0656865,16.2550054 C42.3623351,17.1544649 45.1644973,20.2813838 46.0086054,25.0169514 C46.1928216,26.0491676 46.2857946,27.0870054 46.2870919,28.1308973 C46.2953081,33.6392216 46.296173,39.1475459 46.2901189,44.6558703 C46.2883892,45.8467892 45.7379027,46.5209514 44.744173,46.6234378 C43.6773622,46.7337081 42.8367135,46.030573 42.7934703,44.9555459 C42.7649297,44.2528432 42.7882811,43.5484108 42.7882811,42.6991135 C42.0116324,43.3637622 41.3945514,43.9501405 40.7199568,44.4599784 C37.4243892,46.9481946 33.7820108,47.7066811 29.8239568,46.4314378 C26.3147676,45.3010595 24.4756324,42.5356541 24.4501189,38.5767351 C24.4254703,34.7652757 26.0574703,32.3765189 29.6185514,31.1060324 C32.7117405,30.0028973 35.9372541,29.7672216 39.1900108,29.7572757 C40.1621189,29.7546811 41.134227,29.7421405 42.1059027,29.7633297 C42.5547676,29.7732757 42.7424432,29.6422486 42.7467676,29.1557622 C42.7688216,26.9641946 42.4717405,24.8504649 41.3811459,22.9053838 C39.694227,19.8969514 36.6529297,18.6982486 32.7186595,19.4736 C31.4360649,19.7261405 30.2576865,20.2597622 29.0594162,20.7466811 C27.9562811,21.1951135 27.374227,21.0256 26.8929297,20.1274378 C26.3839568,19.1756541 26.5513081,18.4370595 27.5009297,17.8130595 C28.7536865,16.9892757 30.1781189,16.6078703 31.6310919,16.3125189 C33.7733622,15.8770595 35.9255784,15.8070054 38.0656865,16.2550054 Z M31.512173,33.6772757 C29.2038486,34.3994378 28.0635243,35.9285189 28.0521892,38.2982486 C28.040173,40.9607351 29.2254703,42.5875459 31.5017946,43.4329514 C35.9852541,45.0978162 43.9407135,40.7233297 42.7368216,35.3014919 L42.7324653,34.0053157 C42.73317,33.7893718 42.7356685,33.5734919 42.7415784,33.3577081 C42.7519568,32.9780324 42.6741189,32.7479784 42.222227,32.750573 C38.6265514,32.7708973 35.0135784,32.5814919 31.512173,33.6772757 Z" id="Combined-Shape" fill="#121214"></path>
        </g>
    </g>
</svg>