<?xml version="1.0" encoding="UTF-8"?>
<svg width="260px" height="100px" viewBox="0 0 260 100" version="1.1" xmlns="http://www.w3.org/2000/svg" xmlns:xlink="http://www.w3.org/1999/xlink">
    <title>duckduckgo</title>
    <g id="duckduckgo" stroke="none" stroke-width="1" fill="none" fill-rule="evenodd">
        <rect fill="#FFFFFF" x="0" y="0" width="260" height="100"></rect>
        <g id="DuckDuckGo-Logo--Horizontal" transform="translate(17.000000, 20.000000)">
            <g id="Group">
                <g>
                    <circle id="Oval" fill="#DE5833" fill-rule="nonzero" cx="30.9" cy="30.4" r="30.3"></circle>
                    <path d="M56.6,19.5 C55.2,16.2 53.2,13.2 50.6,10.6 C48,8 45.1,6 41.7,4.6 C38.3,3.1 34.6,2.4 30.9,2.4 C27.1,2.4 23.5,3.1 20.1,4.6 C16.8,6 13.8,8 11.2,10.6 C8.6,13.2 6.6,16.1 5.2,19.5 C3.7,22.9 3,26.6 3,30.3 C3,34 3.7,37.7 5.2,41.1 C6.6,44.4 8.6,47.4 11.2,50 C13.8,52.6 16.7,54.6 20.1,56 C23.5,57.5 27.2,58.2 30.9,58.2 C34.7,58.2 38.3,57.5 41.7,56 C45,54.6 48,52.6 50.6,50 C53.2,47.4 55.2,44.5 56.6,41.1 C58.1,37.7 58.8,34 58.8,30.3 C58.8,26.6 58.1,23 56.6,19.5 Z M37,55.4 C35.4,52.7 31.2,45 31.2,39.4 C31.2,26.4 40,37.5 40,27.1 C40,24.6 38.8,15.9 31.2,14.1 C29.3,11.6 24.9,9.2 18,10.2 C18,10.2 19.2,10.5 20.5,11.2 C20.5,11.2 18,11.5 17.9,13.3 C17.9,13.3 22.9,13 25.8,14 C19.3,14.8 15.9,18.2 16.5,24.5 C17.4,33.3 21.1,49.1 22.4,54.6 C12.5,51 5.4,41.5 5.4,30.4 C5.4,16.2 16.9,4.7 31.1,4.7 C45.3,4.7 56.8,16.2 56.8,30.4 C56.7,42.5 48.3,52.7 37,55.4 Z" id="Shape" fill="#FFFFFF" fill-rule="nonzero"></path>
                    <path d="M29.6,34.6 C29.6,31.3 34.2,30.2 35.9,30.2 C40.6,30.2 47.1,27.2 48.7,27.3 C50.3,27.4 51.4,28 51.4,28.8 C51.4,29.9 42.1,34.1 38.5,33.7 C35.1,33.4 34.3,33.8 34.3,35.2 C34.3,36.4 36.8,37.5 39.5,37.5 C43.6,37.5 47.6,35.7 48.8,36.6 C49.8,37.4 46,40.1 41.6,40.1 C37.2,40.1 29.6,37.9 29.6,34.6 Z" id="Beak_2_" fill="#FED30A"></path>
                    <g transform="translate(19.000000, 19.000000)" fill="#2D4F8D" fill-rule="nonzero">
                        <path d="M18.6,1.4 C17.4,-0.2 15.2,-0.2 14.5,1.6 C15.6,0.7 17.1,0.5 18.6,1.4 Z" id="Path"></path>
                        <path d="M5.1,1.5 C3.4,0.5 0.6,0.4 0.8,3.5 C1.7,1.6 2.7,1.2 5.1,1.5 Z" id="Path"></path>
                        <path d="M17.6,4.4 C16.7,4.4 15.9,5.1 15.9,6.1 C15.9,7 16.6,7.8 17.6,7.8 C18.6,7.8 19.3,7.1 19.3,6.1 C19.3,5.1 18.5,4.4 17.6,4.4 Z M18.2,5.9 C17.9,5.9 17.7,5.7 17.7,5.4 C17.7,5.1 17.9,4.9 18.2,4.9 C18.5,4.9 18.7,5.1 18.7,5.4 C18.7,5.7 18.5,5.9 18.2,5.9 Z" id="Shape"></path>
                        <path d="M4.7,5.3 C3.6,5.3 2.8,6.2 2.8,7.2 C2.8,8.3 3.7,9.1 4.7,9.1 C5.8,9.1 6.6,8.2 6.6,7.2 C6.6,6.2 5.7,5.3 4.7,5.3 Z M5.4,7.1 C5.1,7.1 4.8,6.8 4.8,6.5 C4.8,6.2 5.1,5.9 5.4,5.9 C5.7,5.9 6,6.2 6,6.5 C5.9,6.8 5.7,7.1 5.4,7.1 Z" id="Shape"></path>
                    </g>
                    <g transform="translate(16.000000, 10.000000)" fill="#D5D7D8" fill-rule="nonzero" id="Path">
                        <path d="M3.5,6.1 C1.1,7.9 -0.1,10.6 0.3,14.4 C1.2,23.2 4.9,39 6.2,44.5 C6.7,44.7 7.1,44.8 7.6,44.9 C6.8,41.5 2.9,25.3 1.2,12.8 C0.7,9.6 2,7.7 3.5,6.1 Z"></path>
                        <path d="M9.5,4 C9.7,4 9.8,4 9.8,4 C7.1,2.7 3,2.7 1.9,2.7 C1.8,2.9 1.7,3.1 1.7,3.4 C1.7,3.3 6.6,3.1 9.5,4 Z"></path>
                        <path d="M4.8,1.3 C4,0.8 3.3,0.4 2.9,0.2 C2.6,0.2 2.2,0.3 1.9,0.3 C1.9,0.3 3.1,0.6 4.4,1.3 C4.4,1.3 4.4,1.3 4.3,1.3 C4.6,1.2 4.8,1.3 4.8,1.3 Z"></path>
                    </g>
                    <g transform="translate(25.000000, 44.000000)" fill-rule="nonzero" id="Path">
                        <path d="M16.1,0.8 C15.2,0.6 11.9,3 10.7,3.9 C10.6,3.7 10.6,3.5 10.5,3.4 C10.3,2.9 7.1,3.2 6.3,4 C4.3,3 0.3,1.2 0.2,2.3 C0.1,3.8 0.2,10.1 1,10.6 C1.6,10.9 5,9.1 6.8,8.1 C6.8,8.1 6.8,8.1 6.8,8.1 C7.9,8.4 9.9,8.1 10.6,7.7 C10.7,7.6 10.7,7.6 10.8,7.4 C12.4,8 15.7,9.2 16.5,9 C17.4,8.7 17.2,1.1 16.1,0.8 Z" fill="#67BD47"></path>
                        <path d="M6.9,8.1 C5.8,7.9 6.2,6.8 6.2,4.3 C6.2,4.3 6.2,4.3 6.2,4.3 C5.9,4.5 5.8,4.7 5.8,4.9 C5.8,7.4 5.4,8.5 6.5,8.7 C7.6,9 9.6,8.7 10.3,8.3 C10.4,8.2 10.5,8 10.6,7.8 C9.7,8.1 7.9,8.4 6.9,8.1 Z" fill="#43A347"></path>
                    </g>
                </g>
                <g transform="translate(72.000000, 20.000000)" fill="#4C4C4C" fill-rule="nonzero">
                    <path d="M0.6,18.5 L0.6,0.5 L7.1,0.5 C13.3,0.5 16.1,5 16.1,9.3 C16.1,13.9 13.3,18.5 7.1,18.5 L0.6,18.5 L0.6,18.5 Z M2.7,16.4 L7.2,16.4 C12,16.4 14.1,12.8 14.1,9.3 C14.1,6 11.9,2.5 7.2,2.5 L2.7,2.5 L2.7,16.4 L2.7,16.4 Z" id="Shape"></path>
                    <path d="M24.3,18.7 C20.9,18.7 18.8,16.4 18.8,12.9 L18.8,5.9 L20.8,5.9 L20.8,12.8 C20.8,15.4 22.3,16.9 24.7,16.9 C27,16.9 28.7,15.1 28.7,12.7 L28.7,5.9 L30.7,5.9 L30.7,18.5 L29,18.5 L28.9,16.3 L28.6,16.7 C27.5,18 26.1,18.6 24.3,18.7 Z" id="Path"></path>
                    <path d="M40.2,18.7 C36.9,18.7 33.6,16.7 33.6,12.2 C33.6,8.3 36.2,5.7 40.2,5.7 C42,5.7 43.4,6.3 44.7,7.5 L43.5,8.7 C42.6,7.9 41.5,7.5 40.3,7.5 C37.5,7.5 35.6,9.4 35.6,12.2 C35.6,15.4 37.9,16.9 40.3,16.9 C41.6,16.9 42.8,16.5 43.7,15.6 L44.9,16.8 C43.5,18 41.9,18.7 40.2,18.7 Z" id="Path"></path>
                    <polygon id="Path" points="55.4 18.5 49.2 12.3 49.2 18.5 47.3 18.5 47.3 0.5 49.2 0.5 49.2 11.4 54.6 5.9 57.2 5.9 51.2 11.8 57.9 18.4 57.9 18.5"></polygon>
                    <path d="M60.2,18.5 L60.2,0.5 L66.7,0.5 C72.9,0.5 75.7,5 75.7,9.3 C75.7,13.9 72.9,18.5 66.7,18.5 L60.2,18.5 L60.2,18.5 Z M62.4,16.4 L66.9,16.4 C71.7,16.4 73.8,12.8 73.8,9.3 C73.8,6 71.6,2.5 66.9,2.5 L62.4,2.5 L62.4,16.4 Z" id="Shape"></path>
                    <path d="M83.9,18.7 C80.5,18.7 78.4,16.4 78.4,12.9 L78.4,5.9 L80.4,5.9 L80.4,12.8 C80.4,15.4 81.9,16.9 84.3,16.9 C86.6,16.9 88.3,15.1 88.3,12.7 L88.3,5.9 L90.3,5.9 L90.3,18.5 L88.5,18.5 L88.4,16.3 L88.1,16.7 C87.2,18 85.7,18.6 83.9,18.7 Z" id="Path"></path>
                    <path d="M99.8,18.7 C96.5,18.7 93.2,16.7 93.2,12.2 C93.2,8.3 95.8,5.7 99.8,5.7 C101.6,5.7 103,6.3 104.3,7.5 L103.1,8.7 C102.2,7.9 101.1,7.5 99.9,7.5 C97.1,7.5 95.2,9.4 95.2,12.2 C95.2,15.4 97.5,16.9 99.9,16.9 C101.2,16.9 102.4,16.5 103.3,15.6 L104.5,16.8 L104.4,16.9 L104.4,16.9 C103.1,18.1 101.6,18.7 99.8,18.7 Z" id="Path"></path>
                    <polygon id="Path" points="115 18.5 108.9 12.3 108.9 18.5 107 18.5 107 0.5 108.9 0.5 108.9 11.4 114.3 5.9 116.8 5.9 110.9 11.8 117.5 18.4 117.5 18.5"></polygon>
                    <path d="M127.6,18.8 C120.7,18.8 118.3,13.8 118.3,9.7 C118.3,6.9 119.2,4.5 120.9,2.8 C122.6,1.1 124.9,0.2 127.6,0.2 C130.1,0.2 132.3,1.1 134.1,2.8 L132.9,4.2 C131.5,2.9 129.5,2.1 127.6,2.1 C122.6,2.1 120.3,6 120.3,9.7 C120.3,13.3 122.6,16.9 127.7,16.9 C129.5,16.9 131.3,16.2 132.7,15.1 L132.8,15 L132.8,10.5 L127.2,10.5 L127.2,8.7 L134.7,8.7 L134.7,15.7 C132.7,17.8 130.4,18.8 127.6,18.8 Z" id="Path"></path>
                    <path d="M143.6,18.7 C139.8,18.7 137.1,16 137.1,12.2 C137.1,8.4 139.9,5.6 143.6,5.6 C147.5,5.6 150.2,8.3 150.2,12.2 C150,15.9 147.3,18.7 143.6,18.7 Z M143.6,7.3 C140.9,7.3 139,9.3 139,12.1 C139,14.8 140.9,16.8 143.6,16.8 C146.3,16.8 148.2,14.9 148.3,12.1 C148.1,9.4 146.3,7.3 143.6,7.3 Z" id="Shape"></path>
                </g>
            </g>
            <g id="Group" transform="translate(221.000000, 38.000000)" fill="#4C4C4C" fill-rule="nonzero">
                <path d="M3,1.8 L3,1.8 C3.2,1.7 3.3,1.6 3.3,1.4 C3.3,1.2 3.2,1.1 3.1,1 C3,0.9 2.8,0.9 2.5,0.9 C2.2,0.9 2,0.9 1.9,1 L1.9,2.6 L2.3,2.6 L2.3,2 L2.5,2 C2.7,2 2.8,2.1 2.8,2.3 C2.9,2.5 2.9,2.6 2.9,2.7 L3.3,2.7 C3.3,2.6 3.2,2.5 3.2,2.3 C3.3,2 3.2,1.9 3,1.8 Z M2.6,1.7 L2.4,1.7 L2.4,1.2 C2.4,1.2 2.5,1.2 2.6,1.2 C2.8,1.2 2.9,1.3 2.9,1.4 C3,1.7 2.8,1.7 2.6,1.7 Z" id="Shape"></path>
                <path d="M2.6,0.2 C1.7,0.2 0.9,0.9 0.9,1.8 C0.9,2.7 1.6,3.5 2.6,3.5 C3.5,3.5 4.3,2.8 4.3,1.8 C4.3,0.9 3.6,0.2 2.6,0.2 Z M2.7,3.1 C2,3.1 1.4,2.5 1.4,1.8 C1.4,1.1 1.9,0.5 2.7,0.5 C3.4,0.5 4,1.1 4,1.8 C3.9,2.5 3.4,3.1 2.7,3.1 Z" id="Shape"></path>
            </g>
        </g>
    </g>
</svg>