<svg height="100" viewBox="0 0 260 100" width="260" xmlns="http://www.w3.org/2000/svg" xmlns:xlink="http://www.w3.org/1999/xlink"><mask id="a" fill="#fff"><path d="m.02181804.08369218h25.09720046v25.44410802h-25.09720046z" fill="#fff" fill-rule="evenodd"/></mask><g fill="none" fill-rule="evenodd"><path d="m0 0h260v100h-260z" fill="#fff"/><g transform="translate(20 25)"><path d="m25.1793457 5.04147462c.7785979-.7651249 1.5603868-1.52705883 2.3349073-2.29626108 1.325141-1.31592265 2.8511362-2.21382756 4.723884-2.56589847.7814343-.14696213 1.5595004-.23524577 2.305834-.11682514 1.691394.26857373 3.2774859.82823529 4.6155681 1.99311845 1.529718 1.33152297 2.3919903 3.01564867 2.8341176 4.94902498.0709106.31076551.0335053.64634972.0452055.97041096.0131185.36589847.1678807.53998388.5678163.56285254 3.0823046.17532635 5.3833521 1.65522964 6.8864786 4.31597094 1.4178566 2.5100565 1.3928606 5.1211604.2047543 7.7069138-.364303.7924255-.8878002 1.5206769-1.5284771 2.1452216-.8982594.8752136-1.7819822 1.765141-2.6713779 2.6488638-.0643513.0026592-.1290572.0053183-.1937631.0078002.0039001-.0948429-.037228-.1698308-.1024657-.2347139-.7500564-.7482837-1.4866398-1.5112813-2.2581467-2.2368735-.2588235-.2435778-.5266882-.4623369-.6779049-.79083.0044319-.1554714.1368574-.2182272.2278001-.3095246.7489928-.7528928 1.4868171-1.5174859 2.2522966-2.2531829 1.0629492-1.0214666 1.325141-2.2776471 1.0049798-3.6440935-.3082836-1.3155681-1.2131023-2.1994681-2.4839967-2.5660757-1.3412732-.3869944-2.621386-.1794037-3.6673167.8732635-.8668816.8723771-1.7507816 1.727913-2.6275907 2.5905399-.2022723-.0496374-.3095245-.2210637-.4446092-.3526028-.9721837-.9452377-1.8906527-1.9450765-2.9009508-2.851668.0062047-.0148912.0143594-.0283642.024996-.040419.9260918-.8252216 1.7780822-1.7257857 2.6458501-2.609863 1.1242869-1.14520549 1.3848831-2.71445609.692087-4.14738115-.8693634-1.7982917-3.250008-2.6520548-5.0376632-1.54478647-1.3410959.83053989-2.3100886 2.08406124-3.380838 3.21614827-.0599194.01099114-.1198388.02198227-.1797583.03279613.0186141-.11203868-.0234004-.20333602-.1015793-.27885576-1.0494763-1.01207091-2.0104916-2.11473005-3.1312329-3.05376309.0070911-.03970991.0140048-.07941983.0210959-.11930701" fill="#469bd4"/><path d="m45.3042047 25.362809c.0647059-.0026591.1294117-.0053183.1939403-.0078001.6711685.8264625 1.4577438 1.5439 2.221805 2.2781789 1.1148913 1.0716357 1.9872684 2.2900564 2.4540371 3.7665914.3263658 1.0328123.426527 2.1060435.3396616 3.1872522-.1579533 1.9626269-.9269783 3.6573892-2.2863336 5.0812732-1.3010315 1.3627236-2.8745367 2.2145367-4.7435617 2.5013699-.2756648.0421917-.5559387.0953747-.8323126.085979-.4426592-.0148912-.6202901.1971314-.6137309.6073489.0081547.503465-.0634649.9883159-.1946495 1.4793715-.5325382 1.9924093-1.595842 3.6128928-3.263481 4.8350363-1.0046253.7364061-2.1349396 1.1343916-3.3469783 1.394456-.5796938.1244481-1.1473328.2313457-1.729863.193054-2.0331829-.1338436-3.8788074-.7615793-5.3856567-2.1851088-.8257534-.7800161-1.6153425-1.5981466-2.4164545-2.4042224-.1778082-.1788718-.3634166-.3430298-.5835939-.4662369.0007091-.0804834.0014182-.161676.0019501-.2426913.1614988.0147139.2772603-.0624013.3873489-.1728445.8745044-.8791136 1.7513134-1.7557454 2.6300725-2.6306044.1076068-.1070749.1797583-.2318775.2363094-.3692667.0641741-.0028364.1281709-.0058501.1923449-.0088638.035278.1889766.184722.2964061.3075746.420145.7167284.7215149 1.4268976 1.4499436 2.1565672 2.1583401 1.1297825 1.0966317 2.4256729 1.4538437 3.9534408.9129734 2.2897019-.8105077 3.1741338-3.6573892 1.6236745-5.5969702-.8016439-1.002498-1.8153103-1.8016599-2.6738598-2.7500886-.1017567-.112216-.236664-.1730218-.3898308-.1877357-.0039001-.0616922-.0078002-.1233844-.0117002-.1852539.2017405-.0017727.3432071-.0909427.4883964-.2402095.8970185-.9220145 1.8085737-1.8302014 2.7185335-2.7396293.0588557-.0588558.1455439-.0900564.2192909-.1341982.8835455.8730862 1.7821595 1.731813 2.6469137 2.6229814 1.0269622 1.0583401 2.2950202 1.2817083 3.615552.8964867 2.8956326-.8445447 3.4088477-4.2868976 1.6048832-6.124722-.8553586-.8713134-1.7589364-1.6954713-2.5660758-2.6139403.0443191-.1845447.1944722-.2894924.3171475-.4125222.7975665-.8007574 1.5974375-1.5993876 2.3980177-2.3973086.1570669-.1565351.3150202-.3102337.3306205-.5506205" fill="#83bc5a"/><path d="m25.1190185 20.206867c-.0005318.0811926-.0012409.1622079-.00195.2426914-1.3309911 1.3327639-2.5426753 2.7954714-4.1454311 3.8343111-.7617567.4937147-1.6032877.7938436-2.4875423.9716519-.5979533.1201933-1.1785335.3038517-1.8112329.2676873-2.8103626-.1613215-5.1185012-1.2324255-6.81149073-3.5515552-.99239323-1.3595326-1.42530217-2.8858823-1.56038678-4.5237389-.02570508-.3128928-.12444803-.4385818-.4497502-.4462047-2.0814021-.0485737-3.86870266-.8610314-5.37572925-2.2457373-1.05000806-.9645608-1.78304593-2.1551491-2.2285415-3.5423368-.19695407-.6131991-.2035133-1.2005157-.21574537-1.80875103-.01187752-.59033038.01560032-1.18172442-.00602739-1.77152297-.05690573-1.53946817.61302175-2.8096535 1.49639-3.98340048.87060435-1.157083 1.97574537-2.09930701 2.99455278-3.12006446.1336664-.13384368.23808219-.29676068.35650282-.44620468.32352942.13029815.4295407.4685415.65946817.6908461.76991137.74420628 1.52067688 1.50809025 2.2758743 2.26718775.12232071.12285254.27690572.22496374.312361.41411764-.86475423.86688155-1.73624497 1.72738115-2.59107172 2.6040129-.49016922.50275584-.86670427 1.11223207-.98335213 1.79013698-.24162772 1.40225625.13455278 2.62564065 1.21168412 3.63239325 1.00125705.935842 2.73253828 1.085286 3.92950846.5876712.61639002-.2561644 1.02838032-.7209831 1.47493952-1.1616922.7530702-.7431426 1.5385818-1.4556164 2.2086866-2.27941979.0432554-.00780016.0865109-.01560032.1299436-.02340048.0203868.19571313.1774537.29622885.298888.418195.8156486.8191942 1.6350201 1.63466557 2.4510233 2.45315067.1324255.13278.294988.2485415.3112974.4609186-.8608542.8766318-1.6979533 1.7782595-2.5884126 2.6236906-1.1797744 1.1202095-1.2228525 3.1104915-.5784528 4.3381305 1.1700241 2.2292506 4.2009186 2.5065109 5.8666075.8500403.8668816-.8620951 1.7326995-1.7250765 2.5990492-2.5877034.0537147.0033682.1076068.0065592.1613215.0097502.0294279.0503465.0501692.1093795.0898791.1492667.9126189.917228 1.8273651 1.8319742 2.7412248 2.747784.0746334.0748107.1542305.1363256.2659146.1380983" fill="#e89442" mask="url(#a)" transform="translate(0 25.259758)"/><path d="m24.7471636 4.99247542c-.0308461-.03120064-.0606285-.06417405-.0907655-.0960838.030137.03190975.0599194.06488316.0907655.0960838.0280096.02818695.0572603.05460113.0884609.07817889-.0312006-.02357776-.0604513-.04999194-.0884609-.07817889m-3.450685-3.63434327c-1.006398-.73410153-2.1604673-1.13368251-3.3599194-1.28188557-.9893795-.12196616-1.9968412-.10565673-3.016535.1088477-1.1824335.24889605-2.2324416.68393231-3.1931024 1.38860596-2.17004025 1.59194198-3.32410955 3.73663175-3.47958095 6.41545528-.01879129.32494762-.1508622.45081386-.4437228.47049154-.33806608.02269138-.67932313.0225141-1.0136664.0698469-1.51004029.21273166-2.81674456.91350523-3.98393231 1.83658344-.97165189.7683158-1.73464948 1.7523771-2.24165995 2.8981144-.25137792.5678163-.52686543 1.140419-.51676068 1.7894279.08243352 1.4939081-.28470588 3.0115713.24747784 4.4831426.255278.7059146.52278808 1.4050927.9753747 2.0108461 1.05124899 1.4063336 2.42319097 2.5100564 3.60278807 3.795842.32282031.1302982.42883159.4685415.65893634.6908461.76991137.7442063 1.5204996 1.5080903 2.2758743 2.2671878.12214343.1228525.27672844.2249637.31253828.4144722.19961321-.0203868.31714746.1005157.4467365.2308138 1.53237716 1.5385818 3.06900886 3.0730863 4.60865426 4.604577.0998067.0992748.1517486.2123771.1948268.337357.0432554-.0078002.0865109-.0156004.1299436-.0234005.1338437-.2832877.3637711-.4875101.5805802-.7020145.8457856-.8365673 1.6922804-1.6724255 2.5384206-2.5084609-.0037228-.0677196-.0074456-.1352619-.0109911-.2029815-1.5203224-1.5164222-3.0409992-3.0326672-4.5604352-4.5499758-.1453666-.1451894-.2816922-.2992426-.4222723-.4490411-.6137309-.6071717-1.2272845-1.2145206-1.84119262-1.8213377-.56373892-.5571796-1.12765511-1.1141821-1.69157131-1.6711845-.78604351-.7936664-1.56818694-1.5914101-2.3591942-2.3801128-.84791297-.8454311-1.27390814-1.8300242-1.19803384-3.0564222.10104754-1.6344884 1.62721998-3.1962933 3.27216761-3.2868816 1.25334407-.0689605 2.28863816.3173248 3.17519746 1.2402256.742788.7734569 1.4586301 1.5821918 2.3001611 2.2581467.0441418-.0118775.0882837-.023755.1324255-.0354553 1.0168574-.8863819 1.9027075-1.9057212 2.8787913-2.8334085.1093795-.1040613.1747945-.2855923.3754714-.2652055.0081547-.0292506.0163094-.0586785.0242868-.0881064-.3247703-.1639806-.5378565-.4541821-.7878162-.7018372-.649718-.6438678-1.298195-1.2891539-1.9406447-1.9402901-1.6360838-1.65859789-1.1076229-4.93679289 1.303336-5.84267525 1.4970992-.56267526 2.8233038-.26910556 3.9585818.79242547.8817728.82451249 1.7621273 1.65824335 2.5433844 2.58522159.0547784.00850927.1095568.01701854.1641579.02535053.8225625-.95676068 1.773473-1.78800967 2.6398228-2.70186946.1671716-.17621274.4095084-.29853344.4552457-.5729573.0427236.00141821.0854472.00265915.1279936.00425464.0067365-.03970991.0136503-.0795971.0207413-.11930701-1.264867-1.25866237-2.4285093-2.62244964-3.8828848-3.68327156" fill="#da3952"/><path d="m16.6945786 13.5131587c.2267365-.1373892.4210314-.3121837.6078807-.5000967 1.3473006-1.3526188 2.697083-2.7027558 4.0507655-4.04916998.1685899-.16770346.3128928-.34692989.4180177-.55842063.0549557.00886382.1095569.01737309.164158.02570508.6585818.7943755 1.4284931 1.48114424 2.1558582 2.20833203.3616438.3616438.6736502.7791297 1.1166639 1.0555036-.0076228.0430781-.0152457.085979-.0226913.1288799-.4664142.364303-.8282353.8346173-1.2536987 1.2398711-.9812248.9349557-1.93639 1.8952619-2.8756003 2.8722321-.3095246.3217566-.6116035.6591136-.9886704.9108461-.2052861-.0047865-.2978243-.1753264-.419436-.2951652-.9946978-.9812249-1.9854955-1.9663498-2.9775342-2.9502337.0081547-.0294279.0163094-.0588558.0242869-.0882837" fill="#469bd4"/><path d="m8.0933054 21.9602901c.24960516-.0522965.44567284-.1785173.62897663-.3635939 1.39020147-1.4033199 2.78926677-2.7979533 4.18992747-4.1911684.1691217-.1682353.3159065-.3474617.4224496-.5601934.1749718.1960677.291797.4321998.4850282.6204674.8243353.8037711 1.6330702 1.6234972 2.4460597 2.4389685.1487349.149444.3073972.2767285.5236744.3086382.0209186.0514102.0420145.1028203.0629332.1542305-.2187591.0008864-.3795488.1045931-.5321838.2579371-1.4414343 1.4478163-2.8862369 2.8926189-4.3368896 4.3315714-.1499758.1487349-.2412731.3279613-.3566801.4956647-.6142627-.6071716-1.2278162-1.2143432-1.84172439-1.8213376-.56373892-.5571797-1.12765511-1.1141821-1.69157131-1.6711845" fill="#e89442"/><path d="m16.6087236 30.4518114c.2329412-.0960838.4274134-.2391458.6073489-.4203223 1.3997744-1.4086382 2.8078808-2.8091217 4.2126189-4.2127961.1547623-.1547623.3318614-.2962289.3478163-.5408703-.0003546 0 .0381144-.0044319.0381144-.0044319s.0381144.0070911.0379371.0069138c.0037228.230282.1599033.3735213.3049154.518888.8551813.8569541 1.7121354 1.7117808 2.5696213 2.5660757.114166.1138115.2182272.2442869.3894762.2793876-.0023046.0439646-.0046092.0877518-.0069138.1315391-.8624496.8604996-1.7351813 1.7110717-2.5845124 2.5841579-.8087349.8314263-1.6944078 1.588751-2.4191137 2.5010154-.0671877.0042546-.1341982.0083319-.2013859.0124093-.0485738-.08917-.0795971-.1957131-.1483804-.2648509-.9253827-.9328284-1.8567929-1.8596294-2.7841257-2.7905077-.1003384-.1008702-.2173408-.1469621-.3524255-.1636261-.0035455-.0677196-.0072683-.1352619-.0109911-.2029815" fill="#e89442"/><path d="m16.7894569 20.2134085c-.2164545-.0319097-.3749396-.1591942-.5238517-.3086382-.8128123-.8154713-1.6215472-1.6351974-2.4458824-2.4389685-.1932313-.1882676-.3100564-.4243997-.4850282-.6204674-.0195004-.0212732-.0276551-.0464464-.0246414-.0753425.035278-.0235777.070556-.0468009.105834-.0702014 1.0170346-.886382 1.9028848-1.9057212 2.8787913-2.8334085.1095568-.1040613.1749718-.2855923.3756487-.2652055.9920386.9842385 1.9828364 1.9693634 2.9775342 2.9504109.1216116.1200161.2141499.2903788.4192587.2951652-.001241.04361-.0024819.08722-.0037228.13083-.0285415.0505238-.0478647.1106205-.0873973.1501531-.9853022.9879613-1.9718453 1.9746817-2.9617566 2.9580338-.0590331.0585012-.1490895.0858018-.2247865.127639" fill="#6a6250"/><path d="m25.2080113 11.6949589c-.443191-.2763739-.7551974-.6938598-1.1168413-1.0555036-.727365-.72718777-1.4970991-1.41395651-2.1556809-2.20815474.8227397-.95676067 1.773473-1.78818694 2.64-2.70204673.1669944-.17621273.4095085-.29835617.4550685-.57278002.0429009.00141821.0854472.00265915.1279936.00425463 1.120564.93903304 2.0814021 2.04186946 3.1308783 3.0537631.0783562.07551974.1203707.16699436.1017566.27903304-1.0009025 1.12712328-2.0822884 2.17394032-3.1831748 3.20143432" fill="#6a6250"/><path d="m16.6197147 30.6547929c.1350847.016664.2520871.0627559.3524255.1636261.9273328.9308783 1.858743 1.8576793 2.7841257 2.7905077.0687833.0691378.0998066.1756809.1482031.2646736-.0303143.1735536-.164158.273892-.2774376.3875262-.5401611.5419339-1.0815632 1.0828042-1.6229653 1.6236745-.431668.4311361-.8640451.8615632-1.2958904 1.2923449-.048751.0067365-.097502.0136502-.1462531.020564-.0163094-.2125544-.1788718-.3281386-.3112973-.4609186-.8161805-.8186624-1.6353747-1.6341338-2.4510234-2.4531507-.1214343-.1219661-.2785012-.2226591-.298888-.4183723.134021-.2832876.3637712-.48751.5807575-.7020145.8456084-.8365673 1.6921031-1.6724254 2.5382433-2.5084609" fill="#6a6250"/><path d="m13.4159226 16.6997196c-.035278.0234005-.070556.0466237-.105834.0702014-.0170185-.0058501-.025705-.0179049-.0264141-.035278.0441418-.0113457.0881063-.0230459.1322481-.0349234" fill="#e89442"/><path d="m28.5708912 8.46062208c.5403385.56125705 1.0744722 1.1285415 1.6222563 1.68253022.8899274.8995004 1.7977598 1.781805 2.6781144 2.6905238.2473005.255278.502224.4946011.7803707.7124738-.0108139.0124093-.0191459.0258823-.0246415.040419-.8583722.635004-1.5350362 1.4607574-2.2905882 2.2033682-.3465753.3409025-.7777115.6139082-.9783884 1.0884771-.0368735-.0026592-.0735697-.0049638-.1104432-.0074456-.5107333-.5293473-1.0087026-1.0719904-1.5350362-1.5855601-1.1790653-1.1503465-2.2866882-2.3737308-3.5274457-3.4613215.0076229-.0430781.0152458-.085979.0228687-.1290572 1.1008864-1.0274939 2.1822724-2.0744883 3.1831749-3.20143431.0599194-.01099114.1198388-.02198227.1797582-.03297341" fill="#da3952"/><path d="m30.3581918 16.8786446c.2004996-.4747461.6316358-.747929.9782111-1.0886543.755552-.7426108 1.432216-1.5685415 2.2905882-2.2035455 1.0095891.906946 1.9282353 1.9067849 2.9002418 2.8521998.1352619.1315391.2425141.3027881.4446092.3524255.0046091.048751.0088638.0969702.0125866.1451894-.0405963.0152457-.0941338.0189685-.1194843.04751-.9112006 1.0219984-1.9269944 1.9411765-2.8777276 2.9238195-.1015794.1049477-.1987269.2210637-.3588075.2403868-1.1280096-1.0519581-2.2177276-2.1420306-3.2702175-3.2693312" fill="#6a6250"/><path d="m42.0581853 22.0889927c.0694924.0039001.1389847.0079775.2081225.011523.1506849.3281386.4185496.547075.6773731.7904754.7715069.7257696 1.5080903 1.4885899 2.2581467 2.2370508.0652377.0648832.1063658.1398711.102643.2347139-.0157776.2405641-.1737309.3940855-.330975.5507978-.8004029.7977437-1.600274 1.5965512-2.3978405 2.3971313-.1226752.1232071-.2728283.2279775-.3167929.4119904-.0663014-.0060274-.1331346-.0117003-.1997905-.017905-.0078001-.1125705-.0804835-.1861402-.1540532-.2597099-.9182917-.9170507-1.8364061-1.834456-2.7545205-2.7515068-.0836745-.0834972-.1652216-.1708945-.2939243-.1811765.0019501-.0549557.0039001-.1097341.0058502-.1645125.3777759-.3898308.7532473-.7819661 1.1336825-1.1691378.685705-.6981144 1.3746011-1.3933924 2.0620789-2.0897341" fill="#6a6250"/><path d="m33.5426785 37.2417099c-1.489299 1.5009992-2.9789525 3.0014666-4.4671878 4.5033521-.1742627.1760355-.3405479.3596938-.5103787.5399839-.064174.0030137-.1283481.0060274-.1921676.0088639-.0292506-.0503465-.0494601-.1093796-.08917-.1492668-.937083-.9413376-1.8764706-1.8803706-2.8147945-2.8201128-.0744561-.0744561-.152635-.1398711-.2641419-.1466076-.0008863-.0758743-.00195-.1519258-.0028364-.2278001.5359065-.3529573.8899275-.8908139 1.3458824-1.3249638 1.1912973-1.1343916 2.3435938-2.3076067 3.4882675-3.4884448.0698469-.0719742.1591942-.1251571.2395004-.1870266l.2086543.0173731c.61444.7890572 1.3955197 1.4134247 2.1017889 2.1113618.3228203.3190975.5577115.7224013.9448831.9782112.0039001.0616921.0078002.1233843.0117003.1850765" fill="#e89442"/><path d="m33.5309073 37.0565624c-.3871716-.2558098-.6220628-.6589363-.9448831-.9780338-.7060919-.6981144-1.4871717-1.3223046-2.1014344-2.1115391.2804513-.6289766.7649477-1.0895407 1.2762128-1.5224496.6695729-.5667526 1.204593-1.2602579 1.810701-1.8858662.070556.0042546.1409348.0079774.2114908.0117002.0053183.1657534.1283481.2568735.2306365.3595165.8706044.8720226 1.741386 1.7440451 2.6144722 2.6137631.1012249.1008703.1831266.2359549.3504755.244996-.0072684.0514101-.0145367.1028203-.0216278.1540532-.0735697.0439645-.1602578.0749879-.2191136.1340209-.9099597.9094279-1.8215149 1.8174376-2.7185334 2.7396293-.1450121.1490895-.2866559.2382595-.4883965.2402095" fill="#6a6250"/><path d="m25.2049799 39.1778163c.1113295.0069138.1895084.0721515.2639645.1466076.9385012.9399194 1.8777115 1.8789524 2.8147945 2.8201128.0397099.0398872.0600967.0990975.08917.149444-.0567284.1373892-.1288799.2621917-.2364867.3692667-.878759.874859-1.7555681 1.7514907-2.6300725 2.6306043-.1100886.1104432-.2258501.1875585-.3873489.1728445-.1116841-.0017728-.1911039-.0632877-.2659146-.1382756-.9138598-.9156325-1.8286059-1.830556-2.7412248-2.7476067-.0397099-.0400645-.0604512-.0990975-.0900564-.1490895.0260596-.201386.1439484-.3474617.2827558-.4859146.8472039-.8441901 1.6917486-1.6908622 2.5378888-2.5362933.1035294-.1033521.1960677-.2258501.3625303-.2317002" fill="#6a6250"/><path d="m21.8606962 42.4217615c-.0265914-.2026269-.1510395-.3433844-.2894923-.48166-1.4838034-1.4799033-2.9640613-2.9633521-4.4491056-4.4416599-.1230298-.122498-.2754875-.2153908-.4141176-.3217567.4320225-.430427.8643996-.8608541 1.2960676-1.2919903.5414021-.540693 1.0828042-1.0815633 1.6229654-1.6236745.1132796-.1134568.2471233-.2137953.2774375-.3873489.0673651-.0040773.1343756-.0081547.2017406-.012232.0884609.1171797.1641579.2467687.2668009.349589 1.4894763 1.4951491 2.9816117 2.9874617 4.4765834 4.4767607.1026431.1022885.2343594.1755036.3524255.262369.0008864.0758743.0019501.1517486.0028364.2278002-.1662852.0056728-.2590008.1281708-.3623529.231523-.8461402.8454311-1.6906849 1.6921031-2.5378888 2.5362933-.1388074.1384528-.2566962.2845286-.2827558.4860918-.0537148-.0035455-.1074295-.0067365-.1611443-.0101047" fill="#83bc5a"/><g fill="#6a6250"><path d="m90.4510056 28.5030653c.4203224.0092183.5210154-.1318937.5194384-.5339565-.0142006-3.5590008-.0205826-7.1181789-.0023231-10.6770024.0072683-1.4022563-.0483965-2.7832394-.4616277-4.1418856-.2832877-.9317647-.6919098-1.7763094-1.3262047-2.5107655-1.2279936-1.42157939-2.7642708-2.20868657-4.6402095-2.47779213-1.4451572-.20741337-2.7860758.01081386-4.1055439.52580178-1.2432394.48520548-2.1890089 1.36662365-3.0027075 2.39766315-.228332.2887833-.3625303.3079291-.5839485-.0283642-.347639-.5273973-.7456245-1.023062-1.2317163-1.43966156-1.007639-.86404513-2.1907817-1.25174859-3.4923449-1.45278002-1.6757937-.25900081-3.2175665.070556-4.7070427.79012087-.6678002.32246575-1.2430621.78249799-1.7793231 1.29429491-.1074295.102643-.226382.2893151-.3979855.2203546-.180822-.0725061-.1145206-.2825786-.1187752-.4376954-.0079775-.30987917.0024818-.62011285-.0037228-.93016926-.0102821-.49867848-.1322482-.61887188-.641386-.62046736-1.137228-.00319098-2.2744561-.00248187-3.4118614-.00035456-.6034488.00124094-.6468816.04573731-.6472361.66248187-.0010637 3.13070101-.0005318 6.26140211-.0005318 9.39228041 0 3.1307011.0106365 6.2615794-.0113919 9.3921032-.0033221.4727961.1774998.5762145.5903766.571539 1.1813698-.0138275 2.3630942-.0024818 3.5446414-.0058501.5275745-.0015955.5786301-.0576148.5786301-.5850121.0003546-3.4852538-.0023046-6.9703304.00195-10.4554069.0010637-.8386946.0187913-1.6747301.332216-2.4765512.2887832-.7392425.683755-1.3972925 1.3173409-1.8892345.8440129-.6552135 1.8128283-.8844319 2.8633682-.7972119 1.1257051.0934247 2.0757293.5584206 2.7470749 1.4696213.7087511.9613699 1.0184529 2.0916841 1.027494 3.2675584.0285415 3.6621757.0150685 7.3247059.0042546 10.9870588-.0010636.3609348.0946656.4946012.473328.4876874 1.1664786-.0210959 2.3336664-.0070911 3.5004996-.0076229.5901531-.0001773.5908622-.0008864.5910395-.5903304.0015955-3.7068493-.0092184-7.4135213.0127639-11.1200161.0047864-.8409992.2542143-1.650975.6429814-2.3978404.7819662-1.5022402 2.0548107-2.1601129 3.7279453-2.1012571 2.2457373.0790653 3.4552941 1.7002579 3.7892828 3.4774537.159726.8493312.1669943 1.7284448.1623852 2.6022401-.0168413 3.1895568.0010636 6.3794682-.0157776 9.5693795-.0023046.4385818.1567123.5700099.5658662.5653344 1.1960838-.013473 2.393054-.0219822 3.5887832.0042547"/><path d="m219.9237 15.1717566c-.000886-.712651.002659-1.4086381-.228686-2.1205801-.568526-1.7502498-1.578115-3.11279616-3.178389-4.02151494-.951797-.54069299-1.998614-.76494762-3.078404-.88478646-1.78411-.19784045-3.458663.09413376-5.00274 1.03866237-.494424.30243352-.91191.69580983-1.329218 1.09149073-.094843.0900564-.211136.2024496-.343562.1441257-.12303-.0540693-.070911-.2090089-.073924-.3208703-.006737-.25084605-.002128-.50204669-.002128-.75307006 0-2.62865431.001241-5.25730862-.000886-7.88614021-.000532-.55257051-.061515-.61000806-.607526-.61036261-1.181725-.00106366-2.363449.0097502-3.544819-.00611599-.310588-.00398877-.43025.13269133-.452941.40640608-.012232.14678485-.009041.29498791-.009041.44248187-.000532 4.34185334-.000355 8.68352942-.000355 13.02538272 0 4.4156004.004432 8.8312007-.007632 13.2466237-.001231.405963.119494.5454795.530066.5376793 1.151765-.021805 2.304061-.0067365 3.45618-.0074456.6366-.0003545.636777-.0012409.636954-.6406769.001419-3.647639-.018082-7.2954552.015601-10.9427397.010991-1.2132796.352957-2.3549396 1.196793-3.2868815.977147-1.0792587 2.224464-1.4440935 3.634343-1.331523 1.150524.0920064 2.124835.5577115 2.851313 1.4740532.773812.9766156 1.061886 2.1042707 1.057454 3.3391781-.012941 3.5886059-.002836 7.1772119-.001773 10.7658178.000355.5770347.037583.6194038.630927.6218856 1.1078.0044319 2.216309-.0187913 3.323223.011523.420323.0113457.543884-.0914746.54213-.5288155-.017569-4.2679291-.008351-8.5358582-.01296-12.8037873"/><path d="m135.557281 16.6291813c.189509-.5961805.333812-1.2037067.604513-1.7748912.805544-1.6999033 2.087252-2.7493795 4.000773-2.895278 2.557744-.1951813 4.159968 1.081386 5.061418 3.3886382.141999.3632393.210605.7353424.27017 1.110282.078179.4935375.000709.5679936-.502402.5688799-1.490894.0019501-2.982143.0007092-4.473215.0007092-1.446575.0001772-2.893328.0005318-4.34008-.0003546-.132603-.0001773-.266447.0012409-.397631-.0148912-.235955-.0292506-.326012-.0609831-.223546-.3830943m14.38527-.6724093c.108493-.3166157-.105125-.5312974-.243755-.7699114-.007445-.0678969-.014714-.135971-.021982-.2040451-.098034-.4334408-.11133-.9115552-.311475-1.2912813-.457196-.8670588-.915987-1.7403223-1.5673-2.4928605-1.109396-1.2820629-2.398373-2.29626113-4.072394-2.71108788-1.473698-.36518937-2.945269-.61284448-4.492715-.33008864-1.341628.24535052-2.589122.60805802-3.765882 1.33223207-1.617825.99540695-2.709316 2.40510875-3.608284 4.02506045-.67826 1.2223207-.793666 2.5751168-1.003739 3.9101853-.195713 1.2444803.040951 2.4652055.221773 3.6852216.079065.5327156.22195 1.0622401.393376 1.5738598.301724.9009186.83834 1.677921 1.383288 2.4471233.877341 1.2386301 2.058179 2.1149073 3.37481 2.824722.542643.292506 1.151233.416245 1.726318.6225947.524029.1877357 1.069154.3834488 1.592296.4052538 1.663562.0696696 3.325883.1785173 4.961789-.4339726.887623-.332216 1.78996-.6011442 2.564303-1.1542466.740306-.5286382 1.457389-1.0941499 2.059243-1.7842868.217341-.2490734.30137-.4894602-.02996-.7686705-.706624-.5961805-1.379742-1.2320709-2.065093-1.8532474-.284528-.2575825-.535906-.2878968-.827348.021805-.952507 1.0118937-2.168445 1.6506205-3.489154 1.8938437-1.086882.2001451-2.240419.2488961-3.35602-.1320709-.775407-.2648509-1.474407-.6140854-2.081579-1.1689605-.792957-.7247059-1.199275-1.6738437-1.571023-2.6389363-.211137-.5486705-.035101-.7624658.533424-.7626431 1.654166-.0005318 3.308332-.0001773 4.962321-.0001773 2.806108 0 5.612216.0007092 8.418324-.0007091.536615-.0003545.618872-.072506.625254-.5609025.007445-.5610797-.005319-1.1223368.005141-1.6832393.010991-.5890894-.017905-1.1678968-.294988-1.7057534-.006382-.0980338-.012587-.1964222-.018969-.2948106"/><path d="m194.142448 12.4044013c1.092909-.0028364 2.185818.0017728 3.278727-.0024819.552039-.00195.658936-.1079613.660354-.638195.002305-.841531.00266-1.6832393 0-2.52494761-.002127-.55629331-.124979-.68127316-.675954-.68269138-1.092909-.00319097-2.185818.00106366-3.278727-.00248186-.601145-.00177277-.622772-.02446415-.623304-.63092668-.001596-2.11153908 0-4.22325544-.001418-6.33497179-.000355-.54352942-.061515-.60256245-.617454-.60362611-1.063304-.00195004-2.126785-.00159549-3.190089.00017728-.666382.00106365-.678791.01400483-.678968.6667365-.000532 3.33722804-.000177 6.67445608-.000177 10.01168415h.002836c0 3.2929089-.015955 6.5859951.008509 9.8787268.00851 1.1742788.078888 2.3528123.58909 3.4503304.452054.9721837 1.023594 1.8502337 1.960145 2.4233682.857131.5245609 1.789782.8532313 2.765689 1.1069138 1.055326.2742466 2.13228.2281547 3.195229.3612893.33133.0414827.543884-.1067204.543707-.472087-.000177-.9893796-.000532-1.9785818-.001595-2.9679613-.000355-.2873651-.137035-.4256407-.433796-.4343272-.367671-.0109911-.738533-.0264142-1.101418-.0822562-.887091-.1361483-1.699017-.3898308-2.295197-1.1604513-.633941-.8191942-.728961-1.7582272-.736938-2.7155197-.022514-2.6724416-.008864-5.345415-.008332-8.0180339.000177-.5702981.056551-.6268493.639081-.6282675"/><path d="m65.4995133 39.567523c-.0810153 1.2962449-.8014666 2.0801611-2.1030298 2.1370668-1.608606.0703788-1.3586463.1244481-1.3808058-1.243062-.0054956-.3237067-.0008864-.6477679-.0008864-.9716519.0012409-.5741982.0005318-1.1483964.0015955-1.7225947.0003545-.317502.1281708-.4926511.4791781-.4710233.4981466.030846 1.0088799-.0687833 1.4946172.0719742 1.0134891.2935697 1.5758098 1.134037 1.5093312 2.1992909m-1.2040612-3.6979855c-1.0785496-.2566962-2.1737631-.120548-3.2615311-.1469622-.5461885-.0132957-.6500725.1015794-.6520225.6397905-.0037228 1.0475262-.0010637 2.0950524-.001241 3.1425786-.0001772 1.0475262.0106366 2.0952297-.0054955 3.1425786-.0062047.3926672.1219661.5639162.5353747.5497341.6779049-.0232233 1.3574053.0001772 2.0361966-.0076229.7216922-.0081547 1.4276067-.0588558 2.11473-.3499436 1.4439162-.6116036 2.1058663-1.9016439 2.244851-3.2611765.0657695-.6426269-.2001451-1.2200161-.4735053-1.7935052-.5174698-1.0863498-1.4097018-1.6472523-2.5373569-1.9154714"/><path d="m130.880216 40.121423c-.308106.0046092-.616567-.0010636-.924674.0001773-.269637.0010637-.369089-.1021112-.286124-.3827397.193586-.6552135.463755-1.2762127.771153-1.9220306.357743.5899758.581466 1.1560193.816357 1.7160354.193054.4600323.109734.5812893-.376712.5885576m2.582385.7527156c-.569412-1.4082836-1.209202-2.7878485-1.787832-4.1924093-.467655-1.1358099-.329912-.9576471-1.497099-.9895569-.366785-.0101047-.569235.1756809-.651137.476519-.204399.7509428-.599903 1.4190975-.904464 2.1241257-.637308 1.4733441-1.188815 2.9846253-1.917244 4.4189686-.126398.2487187-.014182.4249315.271588.475278 1.080854.1912812 1.429202-.0189686 1.749008-1.0590492.008687-.0280097.015778-.0567284.021628-.0858018.072506-.3572119.283642-.5204834.654859-.5141015.678969.0117002 1.358646.0120548 2.037615 0 .383981-.0069138.611958.112216.75112.5139243.395858 1.1429008.432554 1.1498146 1.302627 1.1473328.147494 0 .295697.0067365.442836-.001241.355085-.0191458.477228-.2107816.322289-.5254472-.288783-.5858985-.550266-1.1817244-.795794-1.7885415"/><path d="m93.8374279 40.5587284c0-.3396615-.0196777-.680564.0047864-1.0184528.0319098-.4353908-.1868493-.5835939-.5786301-.5825302-.649718.0017727-1.2994359-.0003546-1.9493312.0005318-.6034488.0008864-.6034488.0017728-.604867.6259629-.001241.7138921-.001241.7138921.6938598.7146012.118066.0001772.2363094-.003191.3543755.0010636.2125544.0074456.5061241-.0680741.52917.2439323.0251732.3403707.1861402.7422563-.2558098.9815794-1.4068655.7617566-3.2586946.0721515-3.4834811-1.6334247-.1274617-.9677518.1363255-1.8099919.9530379-2.3698307.7707977-.5282837 1.6172925-.4712007 2.4332957-.0572603.6864142.3481708.6803868.3596938 1.1691378-.2753102.0359871-.0466237.0764061-.0902337.1180661-.1318937.2299275-.2292184.205286-.4231587-.0546012-.6204673-.3706849-.2811604-.7773569-.4653506-1.2333118-.5545206-1.1592103-.2269138-2.2983884-.2274456-3.3230459.4437228-1.2570669.8234488-1.7873006 2.0202418-1.6899759 3.5132635.109025 1.665689 1.0633038 2.6892828 2.404577 3.1799839 1.1462691.4196132 2.3184206.2946334 3.4315391-.243755.7270105-.3517164 1.2719581-.8051894 1.0856406-1.7307494-.0313779-.1561805-.0044319-.323884-.0044319-.4864465"/><path d="m163.705439 24.8955616c-2.520693.2641419-4.848509-1.2182433-5.765028-3.5710556-.365189-.937083-.580403-1.8723932-.489992-2.8454633-.137744-1.6302337.348171-3.0718453 1.31805-4.3053344 1.328155-1.6887349 3.141515-2.3753263 5.253054-2.0411604 1.965641.3111201 3.370911 1.4752942 4.252151 3.2453989.506302 1.0175665.657164 2.121112.648832 3.2524899-.008155 1.1216278-.219645 2.1996455-.757679 3.1824658-.965625 1.7639001-2.417873 2.8686865-4.459388 3.0826591m9.157035-24.12164379c-1.048767-.00053183-2.097534-.01045931-3.146124.0030137-.911024.01170024-.901096-.22425464-.901096.89737308-.000532 2.74689767.000354 5.49379533-.002837 8.24087027-.000177.14199834.070911.33771154-.057969.41518134-.15423.0927155-.237728-.1152297-.353135-.1907494-.572957-.37547143-1.133682-.77115233-1.720999-1.12286869-1.055149-.63199033-2.262578-.74810636-3.437389-.97998388-1.192538-.23542305-2.346785.03013699-3.497663.24499597-1.02643.19181306-1.941708.67896858-2.804158 1.26858985-1.46448 1.00143435-2.511297 2.34501205-3.268799 3.92915395-.30527.6385495-.4361 1.3299274-.612136 2.0117324-.216986.8409992-.355971 1.692635-.414117 2.5462208-.083675 1.2331346.224077 2.4309912.451523 3.6416116.306865 1.6334247 1.09149 2.9879936 2.134762 4.2090734.90925 1.0638356 1.989395 1.9156486 3.344496 2.4056406.755907.2733602 1.513941.6130217 2.293779.6787913 1.086705.0912973 2.196987.1930539 3.289187-.1599033.351007-.1134569.725946-.1955359 1.089186-.3004835.616035-.1778082 1.212216-.3846898 1.773827-.7064464.48751-.2797422.914037-.6293312 1.339855-.9860113.102821-.0859791.215214-.1960677.348703-.1482031.159371.0572603.097502.2279775.100516.3517164.008154.3394843.0234.6809186-.002305 1.0186301-.027478.3600484.087752.4912329.466769.4841418 1.181192-.0221595 2.363271-.0079774 3.544996-.0081547.633763 0 .634117-.0001773.634117-.6142627.000311-4.4008864 0-8.80195 0-13.2028364v-3.9874778c0-3.11634169.001241-6.23250608-.001241-9.34849318-.000531-.5857212-.011523-.59068493-.591748-.59086221"/><path d="m99.2349976 16.1774102c.2660918-1.3556326.9548104-2.5081064 2.0743114-3.3854473 1.172683-.919178 2.508283-1.0572764 3.899548-.8464947 1.560742.2364867 2.590895 1.2125705 3.333151 2.5566801.340193.6160354.536793 1.2735536.648832 1.9532312.086688.5273973-.027301.620822-.566398.6220629-1.490895.0033682-2.981612.0012409-4.472684.0012409-1.387542 0-2.775084-.0063819-4.1626267.0019501-1.1156003.0067365-.9142143-.0881064-.7541337-.9032232m.564448 4.0801933c4.4163094-.0053182 8.8326184-.0040773 13.2491054-.0046091.177099 0 .354376-.0062047.531475-.0085093.151571-.00195.260596-.0572603.270346-.2253183.029783-.4999194.145367-1.0143755.066302-1.4967446-.138099-.846672.068428-1.7062852-.258292-2.5643029-.155471-.407913-.211845-.9415149-.37228-1.3641419-.293925-.7745205-.515343-1.5868009-1.000371-2.2953747-.505061-.7380016-1.012957-1.486817-1.690862-2.0494923-1.219307-1.01171636-2.55544-1.84012893-4.200564-2.00535053-.877341-.08810636-1.741564-.28328767-2.635037-.23471394-.36058.01967768-.686768.16858985-1.042739.18064464-.896842.03031426-1.755923.24836422-2.541435.66620468-.4189038.22283642-.957115.30509266-1.1923607.80997582-.0448509.04520548-.0900564.09058824-.1352619.13614827-.2691056-.00567285-.4362772.13348912-.5321837.37440776-.0847381.0164867-.1455439.0611603-.171249.1466075-.1148751-.035278-.1694763.0109912-.1728445.1272845.0001773-.0001773-.0214504.0212732-.0214504.0212732-.1524577.0058501-.2279775.0957292-.2575826.2361321 0-.0001773-.0168413.0164867-.0168413.0164867-.1370346.0264142-.2182272.1107978-.2529734.2435778-.0939565.0957292-.187913.1914585-.2818695.2871877.0069138.026946.0099275.0514102.0090411.0732152.0008864-.021805-.0023046-.0462692-.0090411-.0732152-.1012248.0212732-.1439484.0813699-.1237389.1840129-.0195004-.0008864-.028896.008332-.0276551.0280097-.5726027.415004-.8622724 1.0258985-1.1407736 1.6449476-.1070749.2024497-.2141499.404722-.3214021.6073489-.1292345.1618534-.3047381.3031427-.2490733.5492023-.0069138.0514101-.0138276.1029976-.0207413.1547623-.3261886.2295729-.3268977.6133763-.3917809.9392103-.1141659.5715391-.4119903 1.1297824-.2075906 1.7412087.032087-.0361644.0577921-.0735697.0783562-.112216-.0205641.0386463-.0462692.0760516-.0783562.112216-.0042546.084029-.0081547.1684126-.0124094.2527961.0008864.4057857.0017728.8115713.0026592 1.217357-.0008864-.4057857-.0017728-.8115713-.0026592-1.217357-.3566801.6289767-.2121998 1.3049315-.1655761 1.9661725.0108139.1529895-.0382917.3699758.1710717.4685415.0019501.085979.0044319.1723126.0069138.2584689-.0097502.0109912-.0278324.021805-.028187.0331507-.0498146 1.284722.4098631 2.4292184.9817567 3.5416277.0147139.0288961.0767607.0335053.1170024.0498147.0397099.0936019.0795971.1875584.1196616.2815149.0900564.2437551.1274617.5000967.2774375.7300242.9709428 1.490008 2.2978566 2.5639484 3.874021 3.3492828.4919416.244996 1.0239486.3813215 1.5435456.5539887.590685.196245 1.199097.4352136 1.795101.4290089 1.297308-.0136503 2.600822.1643352 3.900257-.213618.722756-.2104271 1.478131-.3717486 2.153731-.6743594 1.233667-.5525705 2.308671-1.3747784 3.215617-2.393054.438759-.4928284.446204-.6665592-.065238-1.0705721-.667446-.52722-1.294118-1.0941499-1.891539-1.6974215-.225673-.2281547-.478824-.2722965-.736938-.0345689-.12888.1187752-.262546.2324094-.390717.3522482-.907478.8495085-2.00801 1.4487027-3.190621 1.6215472-1.567655.2292183-3.176615.2536825-4.621241-.7094602-.8917-.5942304-1.560032-1.3214182-1.9837223-2.3068976-.1267526-.2946334-.1473167-.6358904-.3423207-.8856729-.1623852-.2082997-.1677035-.4224496-.0951975-.6199355.0847382-.2313457.3329251-.1285254.5093151-.1287027"/><path d="m118.969459 35.712967c-.840468.0177276-1.681644.0058501-2.522644.0058501-.678791 0-1.357405.0054956-2.036019-.0014182-1.14166-.011523-1.124996-.0859791-1.109573 1.2008702.004078.3350524.185963.4821918.497792.4891056.368735.0081547.737647.0010637 1.106382.003191.539984.0030137.583594.04361.584303.5770346.002128 1.4160838.000709 2.8321676.000709 4.2480742.000178 1.0209347.000178 1.0209347 1.04079 1.0120709.029428-.0001773.059033.0007091.088461-.0001773.497438-.0150685.66195-.17639.662482-.663191.001773-1.3866559-.003723-2.7731346.002304-4.1596132.004964-1.1278324-.143416-1.0092345 1.015794-1.0136664 1.222853-.0044319 1.238098-.0221595 1.139355-1.2645125-.024109-.305979-.143593-.4405318-.470136-.433618"/><path d="m183.047446.84041418c-1.224448.0225141-2.44996.01985496-3.674763.00070911-.366253-.00585012-.462691.15369863-.458614.47474617.0078.61958098.002128 1.23951652.002128 1.85927478h.001772c0 .60504432.006914 1.21026591-.002659 1.81513296-.005673.36022562.113634.5398066.513747.53377921 1.195198-.01772764 2.391104-.01985496 3.586302.0007091.383271.00655923.49726-.17071716.497614-.49956487.001419-1.23951651.001419-2.47921031.001596-3.71872683.000177-.31094279-.099629-.47279613-.467123-.46605963"/><path d="m147.771695 41.6503433c-.811394-.0047865-1.622965.0037228-2.434359-.0033683-.56693-.0049637-.641741-.0845608-.642095-.6364222-.001241-1.3868332-.005141-2.7734891.000886-4.1603223.005141-1.1691378.058502-1.1460919-1.133328-1.131378-.532892.0065593-.65415.1164706-.656454.6431588-.004787 1.032635-.001418 2.0652699-.001773 3.0979049-.000354 1.032635-.001241 2.0652699.000177 3.0979049.00071.5357293.14714.6874779.675601.6887188 1.25423.0028364 2.508283.0012409 3.762337.0012409 1.012602.0001773 1.012602 0 1.009589-1.0216438-.001241-.5318292-.037051-.5724255-.580581-.5757937"/><path d="m128.860063 13.0494569c.358275-.0015955.579871-.1948268.584835-.5263336.0195-1.343755.019677-2.68804191-.000355-4.03179695-.005141-.34817083-.211136-.58217567-.608944-.51551974-.391072.06559226-.778775.20227236-1.16967.20847703-.841176.01311846-1.631475.2102498-2.37054.58253022-.886559.44655923-1.744045.95250604-2.348557 1.77347304-.145544.1973086-.299952.3747623-.587494.6390814 0-.7871072.002127-1.46270754-.000709-2.13813059-.002305-.52615632-.188977-.7117647-.71602-.71247381-1.152296-.00177276-2.304416-.00106366-3.456712-.00035455-.649186.00053183-.670814.01808219-.670991.67755036-.001596 6.35074939.002304 12.70149879-.009753 19.05224819-.000707.3868171.137569.4692506.486094.4651495 1.240758-.0153993 2.481693-.0038763 3.72245-.0063582.602208-.0010637.645286-.0491056.645995-.66195.003014-3.0720226.007269-6.1440452.008509-9.2158905.00071-1.6468976.587672-3.0773408 1.746527-4.2147461.802176-.7872845 1.860871-1.1877518 2.974876-1.3407414.580757-.0795971 1.179597-.0319097 1.770459-.0342143"/><path d="m104.153726 35.7162466c-.220532.0140048-.443014.0106366-.6639.0010636-.413054-.0177276-.583594.1687672-.578098.5846576.013827 1.0477034.004609 2.0955842.004077 3.1434649-.000709.8854956-.000709 1.7709912-.000709 2.6564867 0 1.1725061.022869 1.1941338 1.214875 1.1459146.014714-.0007091.029428.0005318.044142-.0003545.33257-.0187913.523852-.1895085.524383-.52722.003014-2.1547946.005496-4.3094118-.004254-6.464029-.001596-.327075-.148203-.5648026-.540516-.5399839"/><path d="m76.6736519 35.7163352c-.3894762.0005318-.5536342.1574214-.5472522.559307.016664 1.0613538.0054955 2.1230621.0054955 3.1847704h-.0014182c0 .8995004.0047865 1.7990008-.0012409 2.6983239-.0069103 1.007639-.1384529 1.1140048 1.1411281 1.0879452.4940693-.0101047.6087671-.1343755.6091217-.6445769.0012409-1.9019984.003191-3.8041741-.0001773-5.7063498-.0023046-1.231539.1611443-1.1815471-1.2056567-1.1794198"/><path d="m183.17278 8.50268977c-1.295004-.00218277-2.590008-.00319098-3.885012-.00088639-.169122.00035456-.337534.02286866-.302079.26591459-.012587.19021757-.036519.38061241-.036696.57100725-.002128 4.22112808-.001596 8.44207898-.001596 12.66320708 0 1.9629815.009041 3.9259629-.006914 5.8889444-.003545.4148268.129412.5834166.55328.5780509 1.16577-.0146665 2.332071-.0063345 3.498018-.0004844.333634.0017728.493537-.0925383.492651-.4814827-.01365-6.3757454-.012055-12.7514907-.01365-19.12741336-.559662-.07037873-1.119855-.09342466-1.680758-.09750202.560903.00407736 1.121096.02712329 1.680758.09750202.059564-.2515552-.062579-.35650282-.298002-.35685737"/></g><path d="m16.7894569 20.2134085c.075697-.0418372.1657534-.0691378.2247865-.127639.9899113-.9833521 1.9764544-1.9700725 2.9617566-2.9580338.0395326-.0395326.0588558-.0996293.0873973-.1503304.588203.586253 1.1721515 1.1771152 1.7658501 1.7578727 1.0820951 1.05834 2.1051571 2.1765995 3.2363578 3.1835294.0108138.0501692.0221595.1014021.0333279.152635-.3019017.2983561-.6039806.596535-.9058823.8948912-.7801934.7713296-1.5602095 1.5426591-2.3404029 2.314166l-.0379372-.0072683s-.038469.0046092-.0382917.0046092c-1.0414988-1.0324577-2.0849476-2.06332-3.1244964-3.0984368-.6030942-.6004351-1.1996293-1.2074295-1.7993553-1.8115874-.0212732-.0515875-.0421918-.1029976-.0631104-.1544078" fill="#da3952"/><path d="m30.2757051 33.9496342c-.2508461-.4749235-.6488316-.8257535-1.0189847-1.1982112-1.1150685-1.1216277-2.2359871-2.2374053-3.3540693-3.3560193-.2389686-.2391458-.4790008-.4763417-.7929573-.6190491.0023046-.0439646.0046092-.0877519.0069138-.1317164.5988396-.1152297.8791136-.6429815 1.2737308-1.01083.7307333-.6812731 1.4221112-1.4043835 2.1297986-2.1099436 1.6837711 1.6780983 3.3677196 3.3561966 5.051668 5.0342949-.6064625.625963-1.1414827 1.3196455-1.8110556 1.8863981-.5110878.432909-.9955842.893473-1.2760355 1.5224497-.0700241-.0058502-.1395165-.011523-.2090088-.0173731" fill="#83bc5a"/><path d="m28.5202434 25.5238114c-.7076874.7055601-1.3992426 1.4288477-2.1297986 2.1099436-.3947945.3680258-.6750685.8956004-1.2739081 1.01083-.171249-.0349234-.275133-.1655761-.389299-.2792103-.8574859-.8544722-1.7146172-1.709299-2.5697985-2.5660757-.1450121-.145544-.3011926-.288606-.3049154-.5190653.7803706-.7711523 1.5603868-1.5426592 2.3405801-2.3139887.3017245-.2983562.6039807-.5965351.9051733-.8950685.193054-.0088638.2747784.156535.3845125.2634327.4837873.4708461.9431104.9673972 1.4377115 1.4260113.5341338.4953102.9624335 1.1062046 1.605415 1.4832715-.00195.0934247-.0037228.1866721-.0056728.2799194" fill="#6a6250"/><path d="m42.0581853 22.0889927c-.6874778.6963417-1.3763739 1.3916197-2.0620789 2.0897341-.3804352.3871717-.7559066.779307-1.133328 1.1687833-1.2382756-1.2427075-2.46361-2.4987107-3.7220951-3.7208542-.4869782-.4727961-.8759226-1.063481-1.5212087-1.3621918.0030137-.0388235.0060274-.077647.0088638-.1164705.1602579-.0195004.2572281-.1354392.3589847-.2403868.9507333-.9826431 1.9663497-1.9018211 2.8775504-2.9238195.0255278-.0285415.078888-.0322643.1196616-.0475101.6959871.88 1.553473 1.6038195 2.329589 2.4061724.8995004.929992 1.8280741 1.8321515 2.7440612 2.7465431" fill="#83bc5a"/><path d="m33.6283739 20.1479581c-.0030137.0388235-.0058501.0776471-.0090411.1162933-.1088477.0749879-.2320548.135971-.3244158.2281547-.9149234.9129734-1.8225786 1.8333924-2.7371475 2.7467204-.673473.6722321-1.3542143 1.3368413-2.0319419 2.0048187-.6429815-.3770669-1.071104-.9881386-1.605415-1.4834488-.4946012-.4584368-.9539243-.9551652-1.4375343-1.425834-.1097341-.1068977-.1916358-.2724738-.3846897-.2634327-.0104593-.0508784-.021805-.1022885-.0326189-.1524577.7684932-.4270589 1.2797583-1.1374054 1.8926027-1.7339404.9730701-.947365 1.9142305-1.9275262 2.8899598-2.8722321.1455439-.1409347.1645124-.390008.3990491-.44195.037228.0026591.0739243.005141.1107977.0078001 1.0526673 1.1274779 2.1423852 2.2175504 3.2703949 3.2695085" fill="#469bd4"/><path d="m33.7829766 30.5703916c1.0347623-1.0466398 2.0619017-2.1009025 3.1067688-3.137083.6507816-.6451088 1.2579532-1.3359549 1.9672361-1.9209669.1283481.010282.2098952.0976793.2933924.1811764.9182917.9172281 1.8364061 1.8344561 2.7545205 2.7516842.0735697.0733924.1464303.1469621.1542305.2597099-1.6936986 1.6947623-3.3875745 3.38917-5.0809186 5.083755-.1669944-.0090411-.2488961-.1441257-.3501209-.2451732-.8730862-.8695407-1.7438678-1.7415633-2.6144722-2.6135859-.1022885-.102643-.2253183-.1937631-.2306366-.3595165" fill="#469bd4"/></g></g></svg>