<svg fill="none" height="400" viewBox="0 0 1440 400" width="1440" xmlns="http://www.w3.org/2000/svg" xmlns:xlink="http://www.w3.org/1999/xlink"><radialGradient id="a" cx="0" cy="0" gradientTransform="matrix(-871.50168309 325.49443556 -585.88872444 -1568.6996571 1146 437)" gradientUnits="userSpaceOnUse" r="1"><stop offset="0" stop-color="#1a926b"/><stop offset="1" stop-color="#0a7753"/></radialGradient><linearGradient id="b"><stop offset="0" stop-color="#fff" stop-opacity=".4"/><stop offset="1" stop-color="#fff"/></linearGradient><linearGradient id="c" gradientUnits="userSpaceOnUse" x1="1526.72" x2="890.81" xlink:href="#b" y1="-450.997" y2="301.483"/><linearGradient id="d" gradientUnits="userSpaceOnUse" x1="-15.033" x2="394.773" xlink:href="#b" y1="676.693" y2="149.624"/><mask id="e" height="400" maskUnits="userSpaceOnUse" width="1440" x="0" y="0"><path d="m0 0h1440v400h-1440z" fill="#fff"/></mask><g mask="url(#e)"><path d="m0-10h1440v800h-1440z" fill="url(#a)"/><path d="m738.438 83.8457c10.44 136.0613 85.605 223.4743 225.756 262.2403 140.146 38.766 251.336 10.895 334.066-83.613s175.38-181.9211 277.95-262.24008c102.57-80.31902 118.23-175.58692 46.98-286.31092-71.25-110.723-163.9-165.958-277.95-165.958s-245.85-17.23-395.401-51.942c-149.546-34.712-224.972 20.777-225.755 165.959s3.915 286.0573 14.354 421.8647z" fill="url(#c)" fill-opacity=".35"/><path d="m489.298 238.424c-79.348-80.449-157.807-110.147-235.599-88.65-77.793 21.498-160.4746 37.233-247.82429 47.65-87.34961 10.416-127.35671 62.498-120.02271 156.244 7.335 93.747 42.8972 182.84 106.68689 267.057 63.78971 84.217 152.25111 113.693 265.60511 88.65 113.355-25.044 200.037-89.758 260.049-193.921 60.011-104.163 50.454-196.58-28.895-277.03z" fill="url(#d)" fill-opacity=".3"/><path d="m0-10h1440v811h-1440z" fill="#000" fill-opacity=".15"/></g></svg>