<svg fill="none" height="30" viewBox="0 0 95 30" width="95" xmlns="http://www.w3.org/2000/svg"><path clip-rule="evenodd" d="m86.4 3.7c1-1 2.3-2.3 4.2-3.1 1.6-.6 3.4.6 3.4 2.4 0 1-.6 1.9-1.5 2.2-.9.4-1.5 1-2.5 2-.0378.0378-.0759.07593-.1143.11436-1.586 1.58835-3.6802 3.68564-7.5857 3.68564s-5.9997-2.09729-7.5858-3.68565c-.0383-.03843-.0764-.07656-.1142-.11435-.0454-.04235-.0901-.08415-.1342-.12539-1.4151-1.32228-2.2202-2.07461-3.9658-2.07461-1.8 0-2.7.8-4 2.2-.0378.0378-.0759.07593-.1142.11435-1.5861 1.58836-3.6803 3.68565-7.5858 3.68565s-5.9997-2.09729-7.5858-3.68565c-.0383-.03842-.0764-.07655-.1142-.11435-.0454-.04235-.0901-.08414-.1342-.12539-1.4151-1.32227-2.2202-2.07461-3.9658-2.07461-1.8 0-2.7.8-4 2.2-.0378.0378-.0759.07593-.1142.11435-1.5861 1.58836-3.6803 3.68565-7.5858 3.68565-4 0-6.2-2.2-7.7-3.8-.0454-.04234-.0901-.08414-.1342-.12538-1.4151-1.32228-2.2202-2.07462-3.9658-2.07462s-2.5507.75234-3.9658 2.07462c-.0441.04124-.0888.08304-.1342.12538-.0378.0378-.0759.07593-.1142.11436-1.5861 1.58836-3.6803 3.68564-7.5858 3.68564-3.9 0-6.1-2.2-7.6-3.7-.9-1-1.6-1.7-2.5-2-1-.4-1.6-1.3-1.6-2.3 0-1.8 1.8-3 3.5-2.3 1.76727.6511 3.01544 1.90781 3.98592 2.88494.0729.07339.14422.1452.21408.21506 1.4 1.4 2.2 2.2 4 2.2s2.7-.8 4.1-2.2c.0378-.0378.0759-.07593.1142-.11436 1.5861-1.58835 3.6803-3.68564 7.5858-3.68564 4 0 6.1 2.2 7.6 3.8.0454.04234.0901.08414.1342.12538 1.4151 1.32228 2.2202 2.07462 3.9658 2.07462 1.8 0 2.7-.8 4.1-2.2.0378-.0378.0759-.07593.1142-.11436 1.5861-1.58835 3.6803-3.68564 7.5858-3.68564 4 0 6.1 2.2 7.6 3.8.0454.04234.0901.08414.1342.12538 1.4151 1.32228 2.2202 2.07462 3.9658 2.07462 1.8 0 2.7-.8 4.1-2.2.0378-.0378.0759-.07593.1143-.11437 1.586-1.58835 3.6802-3.68563 7.5857-3.68563 4 0 6.1 2.2 7.6 3.8.0454.04235.0901.08415.1342.12539 1.4151 1.32228 2.2202 2.07461 3.9658 2.07461 1.8 0 2.7-.8 4.2-2.3zm0 18c1-1 2.3-2.3 4.2-3.1 1.6-.6 3.4.6 3.8 2.4 0 1-.6 1.9-1.6 2.3-.9.4-1.5 1-2.5 2-.0378.0378-.0759.0759-.1142.1144-1.5861 1.5883-3.6803 3.6856-7.5858 3.6856s-5.9997-2.0973-7.5857-3.6856c-.0384-.0385-.0765-.0766-.1143-.1144-.0454-.0423-.0901-.0841-.1342-.1254-1.4151-1.3223-2.2202-2.0746-3.9658-2.0746-1.8 0-2.7.7-4.1 2.2-.0378.0378-.0759.0759-.1143.1144-1.586 1.5883-3.6802 3.6856-7.5857 3.6856s-5.9997-2.0973-7.5858-3.6856c-.0383-.0385-.0764-.0766-.1142-.1144-.0454-.0423-.0901-.0841-.1342-.1254-1.4151-1.3223-2.2202-2.0746-3.9658-2.0746-1.8 0-2.7.7-4.1 2.2-.0378.0378-.0759.0759-.1143.1144-1.586 1.5883-3.6802 3.6856-7.5857 3.6856-4 0-6.2-2.2-7.7-3.8-.0454-.0423-.0901-.0841-.1342-.1254-1.4151-1.3223-2.2202-2.0746-3.9658-2.0746-1.8 0-2.7.7-4.1 2.2-.0378.0378-.0759.0759-.1142.1144-1.5861 1.5883-3.6803 3.6856-7.5858 3.6856-4 0-6.2-2.2-7.7-3.8-.9-1-1.6-1.7-2.5-2-1-.4-1.6-1.3-1.6-2.3 0-1.8 1.8-3 3.3-2.3 1.76727.6511 3.01544 1.9078 3.98593 2.8849.07289.0734.14421.1452.21407.2151.04537.0423.0901.0841.13424.1254 1.41507 1.3223 2.22021 2.0746 3.96576 2.0746 1.8 0 2.7-.7 4.1-2.2.0378-.0378.0759-.0759.1142-.1144 1.5861-1.5883 3.6803-3.6856 7.5858-3.6856 4 0 6.2 2.2 7.7 3.8.0454.0423.0901.0841.1342.1254 1.4151 1.3223 2.2202 2.0746 3.9658 2.0746 1.8 0 2.7-.8 4.1-2.2.0378-.0378.0759-.0759.1142-.1144 1.5861-1.5883 3.6803-3.6856 7.5858-3.6856 4 0 6.1 2.2 7.5 3.8.0454.0423.0901.0841.1342.1254 1.4151 1.3223 2.2202 2.0746 3.9658 2.0746 1.8 0 2.7-.7 4.1-2.2.0378-.0378.0759-.0759.1143-.1144 1.586-1.5883 3.6802-3.6856 7.5857-3.6856s5.9997 2.0973 7.5857 3.6856c.0384.0385.0765.0766.1143.1144.0454.0423.0901.0841.1342.1254 1.4151 1.3223 2.2202 2.0746 3.9658 2.0746 1.8 0 2.7-.8 4.2-2.3z" fill="#08e897" fill-rule="evenodd"/></svg>