<svg fill="none" height="50" viewBox="0 0 120 50" width="120" xmlns="http://www.w3.org/2000/svg"><path clip-rule="evenodd" d="m25.1305.777051 16.8419 9.589449c1.8151 1.0361 2.8512 2.8434 2.8589 4.9155v19.4282c0 2.0721-1.036 3.8872-2.8511 4.9233l-16.8419 9.5894c-1.8151 1.0361-3.8872 1.0361-5.7023 0l-16.58487-9.5894c-1.81506-1.0361-2.85113-2.8512-2.85113-4.9233v-19.4282c0-2.0721 1.03607-3.8872 2.85113-4.9155l16.57707-9.589449c1.8151-1.036068 3.8872-1.036068 5.7023 0zm13.4689 35.756049c1.3009-.779 1.815-1.8151 1.815-3.1082v-16.842c0-1.2931-.5219-2.3292-1.815-3.1082l-14.505-8.29631c-1.0361-.779-2.3292-.779-3.3653 0l-14.51269 8.29631c-1.30093.779-1.81507 1.8151-1.81507 3.1082v16.842c0 1.2931.52193 2.3292 1.81507 3.1082l14.51269 8.2885c1.0361.5141 2.3292.5141 3.3653 0zm20.2207-19.2105c3.5289 0 5.1025-1.8618 5.3439-5.7334h-4.7441l-.3349 2.0721h1.667c-.1636.7089-.6699 1.262-1.8072 1.262-1.2932 0-1.8774-.779-1.8774-2.0722 0-1.7371.7945-3.32629 2.3214-3.32629 1.0127 0 1.4567.44403 1.5268 1.26199h3.1316c-.1246-2.69534-2.1423-3.7392-4.5338-3.7392-3.3497-.01558-5.7178 2.46163-5.7178 5.8269.0078 2.929 2.0098 4.4481 5.0245 4.4481zm31.7213-.2431c-.0155.0117-.0292.0214-.0428.0311-.0136.0098-.0273.0195-.0429.0312h2.9524l.7089-1.6515h3.1316l.1947 1.6515h3.2717l-1.5501-9.94779h-4.0585l-3.1394 6.62929c.0078.0856.0078.1712.0078.2568v.0003c0 1.1996-.5064 2.2668-1.4334 2.9991zm6.0684-7.33817.4051 3.59897h-1.9631zm-7.3529 2.26887c.9815.2103 1.7215.8725 1.7215 2.0721 0 1.8385-1.5112 3.0615-3.8716 3.0615h-4.9388l1.5735-9.94002h4.2378c2.3526 0 3.225 1.06722 3.225 2.44605 0 1.30097-.8335 2.11107-1.9474 2.36037zm-1.9086-2.74987h-.8725l-.296 1.82287h.9893c.7946 0 1.1685-.3584 1.1685-1.0127 0-.57647-.3349-.81017-.9893-.81017zm-1.4567 3.70027-.335 2.1111v.0077h1.0595c.8413 0 1.3242-.4907 1.3242-1.184 0-.6154-.3661-.9348-1.184-.9348zm16.0714 10.821c-.078-.927-.483-1.4567-1.402-1.4567-1.4879 0-2.2124 1.5269-2.2279 3.2952-.0156 1.1295.4284 2.0332 1.6514 2.0332.8805 0 1.5195-.4908 1.7835-1.5035h3.132c-.389 2.6642-2.462 3.9885-4.9388 3.9885-2.0488 0-3.6146-.7011-4.3858-2.0877l-.4908-3.155c.3194-2.9758 2.337-5.0323 5.5544-5.0323 2.703 0 4.401 1.2931 4.495 3.9183zm-10.5538 4.5265h-3.1316l-.7088 1.6514h-3.0148l4.713-9.94h4.0586l1.5502 9.94h-3.2718zm-.2337-2.1501-.4051-3.5989-1.558 3.5989zm13.5155-6.1392.156.374c.755.7945 1.191 1.8696 1.277 3.1471l.88 2.1578-.654 4.2534h3.171l.638-4.0898 4.004-5.858h-3.139l-1.986 3.077-1.068-3.077h-3.279zm-24.1346.0007.7868 6.6605 2.9057-6.6605h3.0771l-4.7987 9.94h-3.56l-1.4022-8.1716.2493-1.6126.0234-.1558zm-8.4986 2.8758c0-1.7683-1.223-2.8823-3.7703-2.8823h-3.934l-1.5736 9.94h3.1394l.5297-3.4042h.5142l1.4723 3.4042h3.1861l-1.7839-4.0508c1.3009-.3505 2.2201-1.3788 2.2201-3.0069zm-4.4247 1.6281h-.8647l.3506-2.1422h.74c.7478 0 1.1296.3038 1.1296.9348-.0078.8491-.5064 1.2074-1.3555 1.2074zm4.898 5.0389-.2883-.6622 1.4022-8.8806h3.1861l-1.5657 9.94h-2.5552zm-15.0567-2.8434h1.1841c2.6019 0 4.2378-1.3321 4.2378-3.8093-.0156-1.7683-1.3243-2.8901-3.7938-2.8901h-3.7236l-1.5736 9.94h3.155zm.67-4.378h.6154c.779 0 1.1529.335 1.1529.9348 0 .8725-.4986 1.3321-1.3944 1.3321h-.7245zm49.9746-5.1991h-6.396l-.023-.1558-.164-1.0438 1.379-8.74819h3.163l-1.184 7.50959h3.614zm-35.5563-3.426h-1.1685v.0077h-.2882c-.039-.2414-.0546-.4907-.0546-.7478 0-3.4977 2.3448-5.92817 5.7412-5.92817 2.7265 0 4.9623 1.48788 4.9623 4.39357 0 3.4899-2.337 5.8814-5.8581 5.8814-1.4567 0-2.7966-.4674-3.6924-1.371l.1713-1.0828zm5.9126-2.1657c0-1.1217-.5219-2.00978-1.7839-2.04094-1.5892-.01558-2.3838 1.63594-2.376 3.34974 0 1.1529.5687 1.9864 1.8073 1.9864 1.6125 0 2.3526-1.6437 2.3526-3.2952zm-7.0793 3.1535h-3.6146l1.1841-7.50959h-3.1549l-.6154 3.88719-.0312.5687c-.0623 1.075-.2337 2.0098-.4986 2.8122l-.4206 2.6719h6.7695zm26.7971 18.1219c2.5469 0 3.7699 1.114 3.7699 2.8823 0 1.6281-.919 2.6564-2.2197 3.0069l1.7837 4.0508h-3.1859l-1.4723-3.4042h-.5142l-.5297 3.4042h-3.1394l1.5736-9.94zm-1.5191 4.5104h.8647c.8491 0 1.3477-.3583 1.3555-1.2074 0-.631-.3817-.9348-1.1296-.9348h-.74zm-3.4263-4.5039h-6.9643l-.0234.1558-.3583 2.2669h1.8852l-1.1841 7.5173h3.1705l1.1841-7.5173h1.9085zm-32.5268 3.7621c-.0779-.927-.483-1.4567-1.4022-1.4567-1.4879 0-2.2046 1.5346-2.228 3.2952-.0155 1.1295.4285 2.0332 1.6515 2.0332.8803 0 1.5191-.4908 1.7839-1.5035h3.1316c-.3895 2.6642-2.4616 3.9885-4.9389 3.9885-2.9757 0-4.9232-1.4723-4.9232-4.378 0-3.4354 2.0799-5.897 5.601-5.897 2.7031 0 4.4013 1.2931 4.4948 3.9183zm20.9416 1.4105-1.9631-5.1726h-3.5445l-.5375 3.4043c.039.2726.0546.553.0546.8413 0 1.1996-.2415 2.298-.7089 3.264l-.3895 2.4382h2.8122l.9192-5.8814 2.3759 5.8814h3.0147l1.5736-9.94h-2.7966zm21.2875-2.4154c.935-1.7995 2.758-2.9134 5.048-2.9134 2.727 0 4.963 1.4879 4.963 4.4013 0 3.4899-2.337 5.8815-5.858 5.8815-2.626 0-4.854-1.5191-4.854-4.3546 0-.1636.008-.3272.016-.483.452-.67.685-1.4879.685-2.3915zm2.571 2.9057c0 1.1529.569 1.9864 1.807 1.9864 1.613 0 2.353-1.6436 2.353-3.2951 0-1.1218-.522-2.0098-1.784-2.041-1.581-.0156-2.376 1.6359-2.376 3.3497zm10.79 1.8467 1.184-7.5096h-3.154l-.491 3.1004c.07.3662.109.7479.109 1.1452 0 1.3165-.288 2.5161-.849 3.5366l-.343 2.1656h6.769l.39-2.4304h-3.615zm-51.5368-4.9471c.9581-1.6827 2.7264-2.7187 4.9388-2.7187 2.7265 0 4.97 1.4879 4.97 4.4013 0 3.4899-2.337 5.8815-5.8581 5.8815-1.9864 0-3.7391-.8647-4.4792-2.5162.3973-.9504.6232-2.0488.6232-3.2173 0-.6387-.0701-1.2542-.1947-1.8306zm2.4694 3.1004c0 1.1529.5686 1.9864 1.8073 1.9864 1.6125 0 2.3447-1.6436 2.3525-3.2951 0-1.1218-.5219-2.0098-1.7839-2.041-1.5813-.0156-2.3759 1.6359-2.3759 3.3497zm-43.1944-9.0365c-.2415-.1246-.4596-.2649-.6544-.4285l-4.5493 3.0615c.1324.5998.0701 1.2386-.2259 1.8307-.0857.1635-.1792.3193-.296.4596l3.4665 5.227c.1247-.0389.2415-.0701.3739-.0934l2.0176-9.9946c-.0348-.0116-.0652-.0275-.0978-.0445-.0112-.0059-.0227-.0118-.0346-.0178zm-2.7418-19.74444.109 2.04874c-.592.1948-1.1139.5843-1.4723 1.1374l-4.2377-1.2542 4.7051-2.68757c.2181.31939.522.58425.8959.75563zm6.7667 10.11684-4.0508-2.9135c-.0078.0078-.0233.0156-.0389.0234l1.6047 5.9126c.4285-.0078.8569.0701 1.2776.2259l1.5424-2.2357c-.1948-.3038-.3116-.6544-.335-1.0127zm-10.6482 10.4471c-.7556-.3817-1.5969-.3817-2.3136-.0701l-1.449-1.7839c.3038-.8258.0078-1.7528-.7011-2.2591l.779-4.6195c.2415-.0545.4752-.1636.6856-.3116l7.8367 4.1755c-.2104.7556-.1558 1.5346.1246 2.2357l-4.4325 2.9835c-.1558-.1324-.335-.2492-.5297-.3505zm2.9136-13.6568-5.0713 2.9212c0 .0624 0 .1325-.0078.1948l7.8523 4.1832c.2415-.2493.5219-.4674.8258-.631l-1.5892-5.858c-.4362 0-.8881-.1013-1.3009-.3194-.2727-.1325-.5064-.2961-.7089-.4908zm15.3227 12.8386c.4674-.9348.2805-2.041-.405-2.7577l1.9552-3.7625h.1792v9.1688.1558l-1.8306-2.6175c.0155-.0311.0331-.0623.0506-.0934v-.0001c.0175-.0311.0351-.0623.0506-.0934zm-11.9805-17.5429c1.3477.6855 1.9397 2.2747 1.4022 3.6535l3.5912 2.5863c.2804-.296.6388-.4986 1.0283-.6076l.3038-2.3994c-1.0984-.6465-1.5113-2.0487-.927-3.2016.0467-.0857.0934-.1714.148-.2571l-5.0479-2.88231c-.2649.45961-.6778.79458-1.153.96596l.1013 1.91635c.187.0623.3739.1324.5531.2259zm-11.6528 6.0994-2.04873-1.0906c.06233-.6232-.14801-1.2386-.55309-1.6982l4.22222-2.4149 5.8035 1.7138c0 .2025.0234.3973.0623.592l-5.0167 2.8979c-.1013-.0701-.2104-.1402-.3272-.2025-.7167-.3662-1.5502-.2571-2.1423.2025zm20.3147 1.0061 2.4694.2025c.0312-.0857.0701-.1714.1091-.2493.4752-.9426 1.4256-1.4879 2.4149-1.4956-.1402-.7946-.5921-1.4568-1.4567-1.9709l-2.4305-1.3944-.0234.0467c-.3583.7089-1.0127 1.1607-1.7372 1.2932l-.296 2.3447c.4674.2883.7946.7323.9504 1.2231zm-3.2263 7.3845c.0156-.8569-.2882-1.6904-.8491-2.3448l1.5424-2.2435c.9193.1869 1.8852-.2337 2.3526-1.0828l2.5629.2103c.1402.5297.4441 1.0127.8803 1.371l-1.893 3.6458c-.8647-.0779-1.7293.3193-2.2279 1.0672zm3.7738 4.2937-1.6281 2.3058c.1091.2882.148.5998.1091.9192l2.7421 1.7761 1.7683-1.0127c.2882-.1714.5219-.3583.7244-.5609l-2.4071-3.4509c-.4206.1246-.8724.1402-1.3087.0234zm-8.158 10.3559 4.4948-5.5153c.4129.0545.8179-.0234 1.1685-.2026l2.041 1.3165zm-11.2019-8.8765c.0467-.2415.1246-.483.2415-.7089.0156-.0389.0389-.0779.0623-.1168l-1.4256-1.745c-.4674.148-.9971.1169-1.4645-.1168-.7011-.3584-1.09057-1.0751-1.0672-1.8151l-2.44606-1.2776v4.5961c.41287-.0233.83353.0623 1.23082.2649.50635.2571.88027.6621 1.10618 1.1295zm-1.4723-10.9692-.7946 4.6818c-.2025.0623-.3973.1558-.5764.2805l-3.25626-1.6983v-5.5542c.63099.0935 1.26198-.0935 1.73717-.483l2.08769 1.114c-.0156.6387.2727 1.2619.8024 1.6592zm2.9135 13.9036c-.5531-.2805-.966-.7167-1.2153-1.2308l-3.83262.2181c-.04674.1558-.10128.3116-.17917.4674-.0779.1558-.17138.296-.27265.4206l10.84364 6.1931c.039-.148.0935-.296.1714-.4441v-.0077l-3.5912-5.4219c-.631.1714-1.3087.1169-1.9241-.1947zm16.5238-5.4107-1.5112 2.15c-.1714-.0467-.3506-.0623-.5298-.0623l-1.519-2.82c.2882-.257.5453-.5609.74-.9114l2.4383.6388c.0467.3583.1792.7011.3817 1.0049zm-3.7572 3.302c.0546-.148.1247-.2805.2104-.4051l-1.5347-2.8512c-.1791.039-.3661.0702-.5531.0857l-1.9163 9.4882 3.8872-4.7752c-.2415-.4596-.2882-1.0127-.0935-1.5424z" fill="#fff" fill-rule="evenodd"/></svg>