<svg height="100" viewBox="0 0 260 100" width="260" xmlns="http://www.w3.org/2000/svg"><g fill="none" fill-rule="evenodd"><path d="m0 0h260v100h-260z" fill="#fff"/><path d="m202.498329 28.7013415c2.006179-.5426706 4.183007-.7941521 6.361253-.6703022 2.322895.131886 4.447252.8390595 6.630225 1.5202341 2.327622.7260819 4.147081 2.2680607 6.239767 3.3576563.602232.3134065.910438.9529826 1.394966 1.4105655 1.849712 1.7476074 3.635609 3.5292499 4.494995 6.0747911.286935.8518228 1.013017 1.5797955 1.314606 2.539396.851823 2.7067353 1.191228 5.4616868 1.024834 8.2757271-.039235.6646297-.064288 1.3306776-.10305 1.99578-.101633 1.7480801-.542198 3.3968912-1.148685 5.0537384-1.412456 3.8606193-3.933889 6.887379-6.955922 9.5076083-1.571759 1.3632945-3.380819 2.4065646-5.32791 3.3151125-3.618119 1.6899368-7.378524 1.7145177-11.135147 1.4776902-3.089157-.1947564-6.026575-1.1491571-8.678003-3.0045423-2.411292-1.6871005-4.426453-3.7386602-6.267657-5.9533047-1.038543-1.2484261-1.847349-2.6821543-2.430673-4.321984-.509581-1.4323101-.920838-2.9123639-1.436091-4.3484556-.55638-1.5519057-.167812-3.1992987-.280317-4.5285581 0-.6646297.031199-1.061233-.004727-1.4512185-.272754-2.9454535.657066-5.6796059 1.939527-8.1835487 1.791097-3.4994692 4.214206-6.5314286 7.58888-8.7985439 2.133811-1.4332555 4.391-2.6221202 6.779129-3.2678415zm9.367213 1.7953511c-3.44038-.5426706-7.086389-.5473977-10.4379.6944104-2.524742.935965-5.004104 2.161701-6.941741 4.1626808-1.082505 1.1179582-2.072832 2.2945324-3.013051 3.5609215-2.506306 3.3751466-3.229079 7.2248936-3.716443 11.2008541-.154103 1.0167984.355478 1.9267644.443402 2.8972372.30537 3.3524565 1.527797 6.3102005 3.443689 9.0883149 2.099303 3.0447225 4.784294 5.3104197 8.044099 6.9535583 1.007581.5075956 2.078396.8132118 3.162344 1.091797l.931146.236248.465795.1208099c1.432782.3795858 2.868402.3899854 4.262895.3729679 1.914946-.0231628 3.783568-.6164133 5.659752-1.1373393 2.446745-.678811 4.607973-1.8880022 6.392452-3.4630706 3.304713-2.917091 6.12868-6.27522 7.04101-10.8567215.151645-.7603061.272053-1.5231838.382463-2.2866061l.322471-2.2898734.17856-1.1423613c.147485-.8764036-.514781-1.5235431-.509581-2.3782021.008509-1.328314-.274644-2.6864087-.813533-3.8648737-1.492345-3.2626417-3.233807-6.2936557-6.251585-8.5792067-2.775751-2.1026123-5.718368-3.8563649-9.046244-4.3815453zm-110.435127 7.9669059c3.305658-.0023636 6.613207-.0694883 9.916029.0250536 1.93811.0557797 3.713607.6726658 5.191297 2.0818131.908075.8655313 1.237554 1.8360041 1.234245 3.0267596-.013708 4.4056536-.02269 8.8117798.001971 13.2174333.01221 2.2732605-1.393155 3.6502636-3.00604 4.8863992-.899094.6892106-1.969781.7695713-3.093885.7322272-2.083231-.0694883-4.170717-.0212719-6.256311-.0193811-1.790152.0018909-1.790152.0037817-1.792043 1.7386259-.001418 1.3372955.014654 2.6750637-.00709 4.0123592-.021745 1.3278413-1.482418 2.4103463-2.762515 2.0638501-1.0196348-.2755897-1.4228561-.9567642-1.4177059-2.0047614.022267-4.6812432.0095038-9.3620138.0095038-14.043257 0-4.5635385-.0023635-9.1266044.0014182-13.6896702.0014181-1.6795372.3446053-2.0265061 1.9811259-2.0274515zm62.465502-.0210829c3.738187.0482164 7.478739-.0449074 11.215508.0387622 3.886618.0869786 5.978831 2.1787186 5.988758 6.0856635.013236 5.1922423.006618 10.3854301.000945 15.5781451-.00189 2.0161065-1.428528 3.0291231-3.254605 2.1791913-.845678-.3937671-1.085341-1.357622-1.084869-2.3035139.002364-4.8778905.000946-9.7562536-.000472-14.634144-.000946-1.7017546-.611687-2.3153317-2.336604-2.3224223-2.006652-.0080361-4.015195.0401803-6.02043-.0189084-.975672-.029308-1.287188.2940254-1.279152 1.2772613.020799 2.5765038.025645 5.1531256.025349 7.7298066l-.005495 7.7301611c0 .5105264-.004727 1.0130167-.157412 1.515507-.300644.9912721-1.014908 1.1501025-1.927237 1.126467-.182124-.0047153-.34971-.006745-.503917-.0075792l-.548212-.000493c-1.125458-.0027564-1.21979-.0744452-1.22373-1.4265719l.000197-.3097815c.000149-.0550438.000327-.1118313.000493-.1704175l.00049-.3735441c-.002364-3.2257703-.000473-6.4515407 0-9.6773111 0-3.6190647.020799-7.2386022-.015127-10.8571942-.008508-.8508773.216029-1.170429 1.125522-1.159084zm-20.213299.0206575c3.149664-.0028363 6.300273-.061925 9.447101.0264717 1.560415.043962 3.097666.4571102 4.34562 1.4824173 1.470599 1.2082458 1.870984 2.9019643 1.887529 4.7048787.008036.8918455.011398 1.783796.012308 2.675799l-.006163 5.3522283c0 2.7147713.008509 5.4300152-.003309 8.1457319-.006145 1.3656581-.215555 1.5608871-1.577432 1.5618326-3.582666.0028362-7.16675-.0694884-10.745634.0392349-1.244172.0378167-2.437764-.201847-3.287696-.8740401-1.390239-1.0995226-3.010687-2.1640646-2.741715-4.4604879.199956-1.7078998.102105-3.4611797.024108-5.1889333-.110142-2.4278365.814006-4.2487139 2.97807-5.3543817 1.103305-.5634699 2.373948-.4419835 3.566122-.5067447 1.962217-.1077778 3.935307-.0581433 5.902724-.0165448.874513.0184356 1.35715-.3668227 1.463037-1.1779924.109668-.8348052-.205629-1.4412916-1.10425-1.6814281-.430638-.1148684-.852295-.1271588-1.282934-.1271588-3.188426-.003309-6.377325.0028362-9.565751-.0037817-1.342023-.0028363-1.918729-.5871054-1.941419-1.9296006-.037817-2.2444252.372495-2.6651368 2.629684-2.6675003zm-79.8894364-.0085561c2.4443814-.0444347 4.4240892.7818617 5.7580757 2.899128.4055849.6443032.5048539 1.3798394.5043812 2.1305022-.0014182 2.3985286-.0004727 4.7965844-.0004727 7.1951129 0 2.1229389-.1333041 4.2567501.0345078 6.3669257.1697815 2.1409806-1.0480366 3.2439697-2.4216191 4.2546601l-.3320198.2412777c-.1668745.120237-.334573.2402343-.5009668.3616262-.7223003.5270712-1.5958676.5327437-2.4727439.5204532-2.2420617-.0321442-4.4926321-.1361403-6.7238215.0193811-3.1293376.2179192-6.0350835-2.9931972-5.930142-5.9221059.1394494-3.8875638-.014654-7.7845818.0486891-11.6759273.0590887-3.6956437 1.1638111-4.9620327 4.5020863-6.2733292.2092528-.0819363.4481287-.1006346.687775-.1044163l1.9791197-.0005252c1.6226495.0045203 3.2451662.0170175 4.867151-.0127632zm21.3786229.8583934c1.5500148-.9822906 3.2772957-1.2767887 5.0249031-1.0314524 2.4656533.3469689 4.6817159 1.2441717 5.7254587 3.79444.1281043.3129338.1257408.6925196.1262135 1.041852.011345 5.8620718.0189084 11.7241437.0118177 17.5866882-.0014181 1.2214816-.5100536 1.7130996-1.6956093 1.7447712-2.2680607.0605068-2.9000735-.5511794-2.9014916-2.829167-.0028362-4.7611312-.0099269-9.5217896.0075634-14.2824481l-.0006224-.2794673c-.0086912-.705846-.0939752-1.4409176-.7750941-1.6515514-.9463646-.29308-2.0577049-.3521687-2.998397.081306-.5880508.2713353-.6400488.9964719-.6376853 1.6667741.0198538 5.1936605.0127632 10.3868482.0099269 15.5805086-.0009454 1.6956094-.0241082 1.7135724-1.714045 1.7145178l-.5621186-.0005967c-2.2039318-.0107827-2.3137592-.1778353-2.3192322-2.4618721l.000363-7.5195036-.0011227-7.1409877c-.0009454-1.6369934-.3895127-2.0520324-1.9877439-2.0387965-2.8130949.0231627-2.3938014-.3474416-2.4056192 2.33424-.0222173 4.9970133-.0028362 9.9940265-.0094542 14.990567-.0023635 1.7854242-.0647612 1.8364769-1.8530216 1.8369496l-.5537699-.0007641c-2.0490534-.0115682-2.1568695-.1758031-2.16217-2.3115865l-.0002495-8.9910815c0-3.265478.0023635-6.530956-.0028363-9.7969066-.0004727-.3914036-.0075633-.7884797-.0718518-1.1727926-.1933383-1.1430118.3758041-1.9050197 1.5311064-1.9187283 2.0463599-.0236354 4.0983923-.0931237 6.1376615.0302535 1.0139621.0619249 2.0586503.3488597 2.9766524.8693129.3687135.2094104.7345907.3876219 1.100468.1555215zm-44.1107315-1.0870903 3.3086608.0197225 1.6541992.0029676c.9307652-.0018909 1.8861113.3715497 2.1725733 1.1089767.3644591.9383286.4467106 2.1347566-.099269 3.0853756-.5384162.9373832-1.6445567.8248783-2.5549954.8395323-3.0707216.0496345-6.1438068.0529434-9.2145284.0028362-1.0985771-.0174902-1.743353.319079-1.8208774 1.4734359-.0236355.3502778-.1238499.6977193-.1247953 1.046579-.0099269 3.1099565-.0189084 6.219913-.0004727 9.3298695.0118177 2.0222517.4798002 2.4656533 2.4817254 2.4656533 3.4257265 0 6.8523985.0269445 10.278125-.0170175.9440011-.0122905 1.2148637.3360965 1.2280995 1.2389719.0493225 3.4099191.0735839 3.6140965-2.9351163 3.6263221l-10.0653433.0007787c-2.8603658-.0004727-5.3411458-2.4982703-5.3420912-5.3780172 0-2.0473053 0-4.0941379.0014181-6.1409705.0014181-2.2047176-.0808333-4.4132169.0283626-6.612262.0831969-1.6771737.2618811-3.4498347 1.8246591-4.5134313 1.2540985-.8537135 2.7157166-1.4611454 4.2203513-1.5169251 1.6516474-.0602705 3.3051856-.0684247 4.9593147-.0623977zm91.599611 1.1172964c.658957-.6613207 1.337296-1.1935917 2.261443-.7790254.951092.4268568 1.524488 1.2153364 1.524961 2.3205315l.000473 10.1552204c0 3.306131-.025526 6.6127347.015127 9.918393.013235 1.0508335-.329479 1.5731776-1.43042 1.4597273-.311515-.0316716-.629176-.0047271-.944473-.0047271-2.109231 0-2.191955-.0685429-2.194318-2.1531923-.006618-6.2189676-.000946-12.4379352-.004256-18.6569027-.000472-.8447321.115342-1.6005948.771463-2.2600247zm-8.921354-8.8409932c1.193592-.275117 2.34464.3904581 2.749752 1.4904534.205156.5577973.250064 1.141121.249595 1.7386259-.008986 8.8519601-.005204 17.7039202-.007095 26.5558803 0 2.117739-.013236 2.1394837-2.078031 2.1229388-2.159527-.0174429-2.280139.314697-2.28301-1.5615853l.000282-.3336007c.000238-.1183087.000509-.2438722.000486-.377129l.000472-13.3370289c0-4.7209508.019382-9.4419017-.014654-14.1623798-.007563-1.0749416.290244-1.8846932 1.382203-2.1361747zm90.380109 26.5395963 2.519998.0071607c1.948036.0122904 2.427836.5020176 2.429771 2.3938014.002792 2.77386-.122003 2.8958191-2.95117 2.8958191h-5.551502c-2.087013-.0004727-4.173553.0094542-6.260093-.0089815-.39944-.003309-.925565.1975926-1.131667-.356423-.177266-.4764913.294026-.6542301.52329-.9544007.884912-1.1605021 2.108757-1.9801806 3.044722-3.1052294.515727-.6197223 1.440347-.8735674 2.337077-.8707311 2.519542.0070906 5.039557-.0099269 7.559572.0061452zm1.065187-17.8518083c.747826-.7534991 1.629902-1.3595128 2.598957-.9808724 1.098104.4287476 2.002398 1.3585674 2.144683 2.6084116.104469.9184748-.536052 1.662047-1.185555 2.3106046-5.234786 5.2276955-10.466736 10.4591727-15.699159 15.6897045-.88633.8858578-1.77597 1.7674612-2.656155 2.6594643-.519981.5265985-1.014435.5072174-1.52827-.0085088-1.582632-1.5897224-3.167155-3.177554-4.760186-4.7568768-.333733-.3308967-.501072-.6986648-.449547-1.1917009.321443-1.0456336.441038-2.2099174 1.673865-2.741243 1.188392-.5124172 2.143265-.1063597 3.007378.6911014 1.344386 1.2399173 1.338714 1.2465353 2.668446-.0827241 4.73135-4.7294596 9.472155-9.4494651 14.185543-14.1973604zm-61.166171 11.4939856-.1324.0001376c-1.218646.029308-2.438237.0080361-3.657355.0080361-1.258353 0-2.517178.0184357-3.775531-.0080361-.571506-.0122904-.877349.1621394-1.173265.7133188-.657014 1.2224796-.618859 2.5018652-.506735 3.7618691l.05077.5385926c.017226.1789871.03415.3573562.048962.5348849.079415.9562915.841895 1.7617887 2.039269 1.7594251 2.359293-.0047271 4.719533-.0127631 7.078826.0070907.714737.0061452.9856-.3143519.9804-.9974173-.013236-1.7688793-.019854-3.5382314.004254-5.3071107.010873-.7832799-.36115-1.0281434-1.089595-1.0106532zm-49.279545-7.5627907c-1.077778-.0302534-1.342968.4008578-1.313188 1.3911844.059089 1.9626903.017491 3.9286896.017963 5.892798 0 2.0435236.009927 4.0865745-.004727 6.1291527-.006618.887276.390931 1.2886064 1.283879 1.2825307 2.397111-.0166143 4.795639.0178935 7.19275-.0166143 1.001199-.014654 1.661101-.6357945 1.67481-1.6048492.052943-3.7320423.047744-7.4650301.007563-11.1970724-.014181-1.3264232-.623031-1.8568033-1.902656-1.860585-2.31864-.0061452-4.639172.0482164-6.956394-.0165449zm-40.8251874-.209883c-2.0033434-.0770517-4.0133046-.069961-6.0175933-.0009454-1.2890791.0444347-1.7513891.6466667-1.7542254 1.9707263-.0033089 1.8090597-.0004727 3.6176466-.0009454 5.4267063l-.0004727 2.7133531.0009454 2.7133532c.0014181 1.6284846.4344201 2.0633774 2.1059213 2.0751951 1.691355.0118178 3.3831827.0028363 5.0745376.0028363 2.2817693 0 2.949708-.5833236 2.9908337-2.8674565.055307-3.0659945.043962-6.1343525.0009454-9.2012925-.0217446-1.5859407-1.0163256-2.7790597-2.3999466-2.8324759zm148.0997304-4.7783378c.302534.0009454.671721-.0865059.833387.2755897.161194.3616228-.137086.5814328-.352641.7984065-1.246535 1.2545713-2.506306 2.4963795-3.746224 3.757096-.33326.3389328-.712373.4386745-1.167593.4353655-1.690409-.0122904-3.380346.0004727-5.070755-.0070906-1.093378-.0047271-2.099777-.3639864-2.528051-1.3892936-.406531-.9737817-.398967-2.0359602.208937-3.035741.410785-.6755021.978036-.8414231 1.681428-.840005 1.69041.0037817 3.380819.0014181 5.070756.0018908 1.69041 0 3.380819-.0037817 5.070756.0037817z" fill="#63b9f0"/></g></svg>