<svg fill="none" height="20" viewBox="0 0 89 20" width="89" xmlns="http://www.w3.org/2000/svg"><path d="m31.4205 10.9497-.5305 1.5032h-.0443c-.0884-.339-.2505-.8548-.5158-1.4738l-2.8443-7.14767h-2.7854v11.39207h1.8422v-7.02976c0-.44213 0-.9432-.0148-1.56218-.0147-.30949-.0442-.54529-.0589-.72214h.0442c.0884.44213.1916.76635.2653.97268l3.4191 8.312h1.2969l3.3896-8.38569c.0737-.19159.1474-.57476.2211-.89899h.0442c-.0442.84004-.0737 1.59166-.0884 2.04852v7.22136h1.9601v-11.37735h-2.6823zm7.4572-3.93496h1.9159v8.16456h-1.9159zm.9727-3.44859c-.3242 0-.5895.1179-.8106.32423-.221.20632-.3389.4716-.3389.79583 0 .30948.1179.57476.3389.78108.2211.20633.4864.30949.8106.30949s.6042-.1179.8105-.30949c.2211-.20632.339-.4716.339-.78108 0-.30949-.1179-.57477-.339-.79583-.1915-.20633-.4716-.32423-.8105-.32423zm7.7372 3.3749c-.3537-.07369-.7222-.1179-1.0759-.1179-.8695 0-1.6653.19159-2.3285.57476-.6632.38318-1.1937.91373-1.5327 1.57692-.3537.67793-.5305 1.45897-.5305 2.35797 0 .7811.1768 1.4738.5158 2.1075.3389.619.8105 1.1201 1.4443 1.459.6042.339 1.3116.5158 2.1074.5158.9137 0 1.6948-.1916 2.3138-.5453l.0148-.0147v-1.7685l-.0737.059c-.28.2063-.6043.3831-.9285.4863-.339.1179-.6485.1768-.9137.1768-.7664 0-1.3706-.221-1.798-.7074-.4421-.4716-.6632-1.12-.6632-1.9306 0-.84.2211-1.50321.6779-1.98955.4569-.48633 1.0611-.73687 1.798-.73687.619 0 1.2527.20632 1.8275.61897l.0737.05895v-1.87166l-.0148-.01474c-.2505-.10316-.5305-.22106-.9137-.29475zm6.3224-.05895c-.4716 0-.9137.14737-1.2969.45686-.3242.26528-.5453.64845-.7369 1.10532h-.0147v-1.42954h-1.9159v8.16456h1.9159v-4.1707c0-.7074.1474-1.29689.4716-1.72428.3242-.44213.7369-.66319 1.2379-.66319.1769 0 .3537.04421.5748.07369.2063.05895.3537.1179.4569.19158l.0736.05895v-1.91588l-.0442-.01473c-.1326-.08843-.3979-.13264-.7221-.13264zm5.2171-.04421c-1.3411 0-2.417.39791-3.1686 1.179-.7663.78109-1.1348 1.85693-1.1348 3.21281 0 1.2674.3832 2.299 1.1201 3.0506.7368.7369 1.739 1.1201 2.9917 1.1201 1.3116 0 2.358-.3979 3.1096-1.1937.7664-.7959 1.1348-1.857 1.1348-3.1686 0-1.29692-.3537-2.32855-1.0758-3.08016-.6927-.75162-1.7096-1.12005-2.977-1.12005zm1.5327 6.27821c-.3537.4568-.9137.6779-1.6064.6779s-1.2527-.2211-1.6506-.7074c-.3979-.4569-.5895-1.1201-.5895-1.9601 0-.8695.2063-1.53269.5895-2.0043.3979-.4716.9432-.7074 1.6359-.7074.6779 0 1.2084.22107 1.5916.67793s.5895 1.12007.5895 1.98957c-.0295.8842-.1916 1.5769-.56 2.0338zm6.794-2.7117c-.6043-.2506-.9874-.44216-1.1643-.60427-.1474-.14737-.221-.3537-.221-.61898 0-.22106.0884-.44212.3094-.5895.2211-.14737.4716-.22106.8401-.22106.3242 0 .6632.05895.9874.14737.3242.08843.619.22107.8548.39792l.0737.05895v-1.79798l-.0443-.01474c-.221-.08842-.5158-.17685-.8695-.25054-.3537-.05895-.6779-.08842-.9432-.08842-.9137 0-1.6653.22106-2.2548.7074-.5895.45686-.8695 1.07584-.8695 1.79798 0 .38318.0589.72217.1916 1.00217.1326.28.3242.5453.5895.7663.2652.2064.6484.4422 1.179.6632.4421.1916.7811.339.9874.4569s.3389.2505.4421.3537c.0737.1179.1179.2653.1179.4569 0 .5452-.4126.8105-1.2527.8105-.3242 0-.6632-.0589-1.0611-.1916-.3979-.1326-.7663-.3242-1.0758-.5453l-.0737-.0589v1.8717l.0442.0147c.28.1326.619.2211 1.0316.3242.4127.0737.7811.1327 1.1053.1327.9875 0 1.798-.2211 2.3728-.7074.5895-.4716.899-1.0759.899-1.857 0-.5453-.1474-1.0316-.4716-1.4-.4274-.3537-.958-.7222-1.7243-1.0169zm7.2509-3.56651c-1.3412 0-2.417.39791-3.1686 1.179s-1.1348 1.85693-1.1348 3.21281c0 1.2674.3832 2.299 1.12 3.0506.7369.7369 1.7391 1.1201 2.9918 1.1201 1.3116 0 2.358-.3979 3.1096-1.1937.7663-.7959 1.1348-1.857 1.1348-3.1686 0-1.29692-.3537-2.32855-1.0759-3.08016-.6926-.75162-1.7095-1.12005-2.9769-1.12005zm1.5179 6.27821c-.3537.4568-.9137.6779-1.6064.6779-.7074 0-1.2527-.2211-1.6506-.7074-.3979-.4569-.5895-1.1201-.5895-1.9601 0-.8695.2064-1.53269.5895-2.0043.3979-.4716.9432-.7074 1.6359-.7074.6632 0 1.2085.22107 1.5916.67793.3832.45686.5895 1.12007.5895 1.98957 0 .8842-.1915 1.5769-.56 2.0338zm12.7775-4.52445v-1.57691h-1.9307v-2.41696l-.0589.01474-1.8275.54529-.0442.01473v1.8422h-2.8885v-1.03163c0-.4716.1179-.84004.3242-1.07584s.5158-.3537.899-.3537c.2653 0 .5453.05895.8548.19159l.0737.04421v-1.66534l-.0443-.01474c-.2652-.08843-.6189-.14738-1.0758-.14738-.5748 0-1.0758.13264-1.5327.3537-.4569.25054-.7958.58951-1.0464 1.04637-.2505.44213-.3831.9432-.3831 1.51797v1.13479h-1.3412v1.56218h1.3412v6.60238h1.9306v-6.58765h2.8885v4.20025c0 1.7242.8106 2.5938 2.4317 2.5938.2653 0 .5453-.0443.8106-.0885.28-.0589.4863-.1326.6042-.1916l.0148-.0147v-1.5769l-.0737.0589c-.1179.0737-.2211.1327-.3979.1769-.1474.0442-.2801.0589-.3832.0589-.3832 0-.6485-.0884-.84-.3094-.1769-.2064-.2653-.5453-.2653-1.0464v-3.86125z" fill="#737373"/><path d="m0 0h9.03411v9.03411h-9.03411z" fill="#f25022"/><path d="m9.97754 0h9.03406v9.03411h-9.03406z" fill="#7fba00"/><path d="m0 9.97754h9.03411v9.03406h-9.03411z" fill="#00a4ef"/><path d="m9.97754 9.97754h9.03406v9.03406h-9.03406z" fill="#ffb900"/></svg>