<?xml version="1.0" encoding="UTF-8"?>
<svg width="260px" height="100px" viewBox="0 0 260 100" version="1.1" xmlns="http://www.w3.org/2000/svg" xmlns:xlink="http://www.w3.org/1999/xlink">
    <title>onetrust</title>
    <defs>
        <polygon id="path-1" points="0 0.244594328 5.46331443 0.244594328 5.46331443 8.15286806 0 8.15286806"></polygon>
        <polygon id="path-3" points="0 57.038693 209.843083 57.038693 209.843083 0 0 0"></polygon>
    </defs>
    <g id="onetrust" stroke="none" stroke-width="1" fill="none" fill-rule="evenodd">
        <rect fill="#FFFFFF" x="0" y="0" width="260" height="100"></rect>
        <g id="Group-40" transform="translate(25.000000, 21.000000)">
            <g id="Group-3" transform="translate(0.000000, 47.457928)">
                <mask id="mask-2" fill="white">
                    <use xlink:href="#path-1"></use>
                </mask>
                <g id="Clip-2"></g>
                <path d="M5.46331443,2.71099383 C5.46331443,3.56212824 5.19712454,4.21310234 4.66552158,4.66391615 C4.13340074,5.11447102 3.37703822,5.3400074 2.39617509,5.3400074 L1.67684094,5.3400074 L1.67684094,8.15286806 L-5.17879162e-05,8.15286806 L-5.17879162e-05,0.244594328 L2.52616276,0.244594328 C3.48527497,0.244594328 4.21444883,0.450969174 4.71394328,0.863718866 C5.21343773,1.2767275 5.46331443,1.89274476 5.46331443,2.71099383 L5.46331443,2.71099383 Z M1.67684094,3.96607398 L2.22864118,3.96607398 C2.74418989,3.96607398 3.13000986,3.86405179 3.38610111,3.66052528 C3.64219236,3.45673983 3.77036745,3.15999507 3.77036745,2.77054994 C3.77036745,2.37773859 3.66290752,2.08720838 3.44850555,1.89973613 C3.2335857,1.71226387 2.89748212,1.6182688 2.439418,1.6182688 L1.67684094,1.6182688 L1.67684094,3.96607398 Z" id="Fill-1" fill="#717592" mask="url(#mask-2)"></path>
            </g>
            <path d="M9.18694328,52.5762577 L9.18694328,55.6107707 L7.51005055,55.6107707 L7.51005055,47.7024969 L9.81435388,47.7024969 C10.8889531,47.7024969 11.6841566,47.8982552 12.1997053,48.289254 C12.7155129,48.6805117 12.9734168,49.2747781 12.9734168,50.0715351 C12.9734168,50.5368496 12.8455006,50.950635 12.5891504,51.3131504 C12.3333181,51.6754069 11.9708027,51.9594636 11.5021221,52.1650617 C12.6922084,53.9426819 13.4674735,55.0913379 13.8279174,55.6107707 L11.9671776,55.6107707 L10.079508,52.5762577 L9.18694328,52.5762577 Z M9.18694328,51.2129408 L9.72786806,51.2129408 C10.2579174,51.2129408 10.6491751,51.1249014 10.9016412,50.9480456 C11.1538483,50.7711899 11.2804698,50.4936067 11.2804698,50.1147781 C11.2804698,49.7398335 11.1515179,49.4731258 10.8933551,49.3143958 C10.6354513,49.1556658 10.2361665,49.0761714 9.69550062,49.0761714 L9.18694328,49.0761714 L9.18694328,51.2129408 Z" id="Fill-4" fill="#717592"></path>
            <mask id="mask-4" fill="white">
                <use xlink:href="#path-3"></use>
            </mask>
            <g id="Clip-7"></g>
            <polygon id="Fill-6" fill="#717592" mask="url(#mask-4)" points="15.3773859 55.6106412 17.0540197 55.6106412 17.0540197 47.7023674 15.3773859 47.7023674"></polygon>
            <path d="M24.1098644,47.7024192 L25.8030703,47.7024192 L23.1145006,55.610693 L21.2861282,55.610693 L18.6032552,47.7024192 L20.2962022,47.7024192 L21.7838101,52.4083872 C21.8666708,52.6862293 21.9523798,53.0096449 22.0406782,53.3794106 C22.1289766,53.7491763 22.1841307,54.0060444 22.2058816,54.1500148 C22.2452404,53.8183132 22.3806658,53.2380296 22.611381,52.4083872 L24.1098644,47.7024192" id="Fill-8" fill="#717592" mask="url(#mask-4)"></path>
            <path d="M32.1933884,55.6107189 L31.6200962,53.7282281 L28.7370629,53.7282281 L28.1637707,55.6107189 L26.3568903,55.6107189 L29.1482589,47.6700777 L31.1982836,47.6700777 L34.0002688,55.6107189 L32.1933884,55.6107189 Z M31.2197756,52.3219273 C30.6897263,50.6162922 30.3911689,49.6514834 30.3243625,49.4280185 C30.257815,49.2045536 30.2101702,49.0276979 30.1814279,48.8977102 C30.0623157,49.3593995 29.7212922,50.5010641 29.1591344,52.3219273 L31.2197756,52.3219273 Z" id="Fill-9" fill="#717592" mask="url(#mask-4)"></path>
            <path d="M38.9084945,48.9844809 C38.2771998,48.9844809 37.7888397,49.2216695 37.4426375,49.695529 C37.0964353,50.1699063 36.9232047,50.8307201 36.9232047,51.6782293 C36.9232047,53.4416079 37.5850543,54.3232972 38.9084945,54.3232972 C39.4636609,54.3232972 40.1363859,54.1845055 40.9261517,53.9069223 L40.9261517,55.3129642 C40.2769901,55.5835561 39.5522182,55.7189815 38.7515771,55.7189815 C37.6011085,55.7189815 36.7214908,55.3699309 36.111947,54.6723477 C35.5024032,53.9745055 35.1978903,52.9726683 35.1978903,51.6673539 C35.1978903,50.8452207 35.3472984,50.1248508 35.6466326,49.5065031 C35.9459667,48.8878964 36.3760654,48.4137781 36.9369285,48.0836301 C37.4975327,47.7534821 38.1547213,47.5887965 38.9084945,47.5887965 C39.6767682,47.5887965 40.4481492,47.7744562 41.2234143,48.1460345 L40.6824895,49.5090925 C40.3870395,49.3684883 40.0892589,49.2460099 39.7901837,49.1411393 C39.4908496,49.0367867 39.1969531,48.9844809 38.9084945,48.9844809" id="Fill-10" fill="#717592" mask="url(#mask-4)"></path>
            <polygon id="Fill-11" fill="#717592" mask="url(#mask-4)" points="45.6236005 50.9588952 47.2735635 47.702471 49.080185 47.702471 46.4566091 52.53273 46.4566091 55.6107448 44.7908508 55.6107448 44.7908508 52.5868483 42.167275 47.702471 43.9845129 47.702471"></polygon>
            <path d="M52.1170543,54.4477435 C51.9293231,55.1761406 51.6118631,56.0394451 51.1649334,57.038693 L49.9748471,57.038693 C50.2089285,56.0795808 50.3914809,55.1745869 50.5212096,54.3234525 L52.0357472,54.3234525 L52.1170543,54.4477435" id="Fill-12" fill="#717592" mask="url(#mask-4)"></path>
            <path d="M62.4961295,53.4145228 C62.4961295,54.1286782 62.2390025,54.6913539 61.7250074,55.102291 C61.2112713,55.5132281 60.4963391,55.7188261 59.5804698,55.7188261 C58.7365857,55.7188261 57.9900629,55.5600962 57.3409014,55.2428952 L57.3409014,53.6851147 C57.8745758,53.9230801 58.3261665,54.0906141 58.6959322,54.1879753 C59.0656979,54.2853366 59.4036141,54.3342762 59.7101985,54.3342762 C60.0781517,54.3342762 60.3601369,54.2638446 60.556672,54.1229815 C60.7532072,53.9823773 60.8516042,53.7734131 60.8516042,53.4955709 C60.8516042,53.340725 60.8083613,53.2029692 60.7216165,53.0820444 C60.6351307,52.9611196 60.5079914,52.8448557 60.3401985,52.7329938 C60.1726646,52.6213909 59.8311233,52.4427226 59.3153157,52.1975068 C58.8318755,51.9704168 58.469619,51.7521307 58.2280284,51.5429075 C57.9864377,51.3339433 57.7935277,51.0902811 57.6492984,50.8126979 C57.5050691,50.5351147 57.4328249,50.2106634 57.4328249,49.8390851 C57.4328249,49.1394303 57.6700136,48.5894427 58.1441319,48.1891221 C58.6182503,47.7888015 59.2736264,47.5889001 60.1105191,47.5889001 C60.5217152,47.5889001 60.9137497,47.6373218 61.2871406,47.7346831 C61.6602725,47.8320444 62.0504945,47.9698002 62.4580654,48.1458792 L61.9171406,49.449381 C61.4950691,49.2766683 61.1465364,49.1557435 60.8705068,49.0871245 C60.5947361,49.0185055 60.3231085,48.9845845 60.0564007,48.9845845 C59.7389408,48.9845845 59.4957965,49.0583822 59.3259322,49.2062367 C59.1565857,49.3540912 59.0719125,49.5467423 59.0719125,49.7849667 C59.0719125,49.9333391 59.1060925,50.0617731 59.1744525,50.1718224 C59.2430715,50.2816128 59.352344,50.388037 59.5020111,50.490836 C59.6514192,50.593635 60.0056486,50.7785179 60.5649581,51.0454846 C61.3039716,51.3989371 61.8107164,51.7531665 62.0849334,52.1081726 C62.3586326,52.4634377 62.4961295,52.8989741 62.4961295,53.4145228" id="Fill-13" fill="#717592" mask="url(#mask-4)"></path>
            <polygon id="Fill-14" fill="#717592" mask="url(#mask-4)" points="69.0376424 55.6107189 64.4831541 55.6107189 64.4831541 47.7024451 69.0376424 47.7024451 69.0376424 49.0763785 66.1600469 49.0763785 66.1600469 50.8128274 68.8377411 50.8128274 68.8377411 52.1865018 66.1600469 52.1865018 66.1600469 54.22591 69.0376424 54.22591"></polygon>
            <path d="M74.6008039,48.9844809 C73.9695092,48.9844809 73.4808903,49.2216695 73.134947,49.695529 C72.7887448,50.1699063 72.6155142,50.8307201 72.6155142,51.6782293 C72.6155142,53.4416079 73.2771048,54.3232972 74.6008039,54.3232972 C75.1559704,54.3232972 75.8286954,54.1845055 76.6184612,53.9069223 L76.6184612,55.3129642 C75.9692996,55.5835561 75.2445277,55.7189815 74.4438866,55.7189815 C73.293418,55.7189815 72.4135413,55.3699309 71.8042565,54.6723477 C71.1944538,53.9745055 70.8901998,52.9726683 70.8901998,51.6673539 C70.8901998,50.8452207 71.0396079,50.1248508 71.338942,49.5065031 C71.6382762,48.8878964 72.0681159,48.4137781 72.628979,48.0836301 C73.1895832,47.7534821 73.8470308,47.5887965 74.6008039,47.5887965 C75.3690777,47.5887965 76.1404587,47.7744562 76.9157238,48.1460345 L76.374799,49.5090925 C76.079349,49.3684883 75.7815684,49.2460099 75.4824932,49.1411393 C75.1831591,49.0367867 74.8892626,48.9844809 74.6008039,48.9844809" id="Fill-15" fill="#717592" mask="url(#mask-4)"></path>
            <path d="M85.2917978,47.7024192 L85.2917978,52.8195832 C85.2917978,53.4037509 85.1610333,53.9159334 84.8995043,54.3556128 C84.6379753,54.7958101 84.2601825,55.1329494 83.7661258,55.3672898 C83.2720691,55.601889 82.6879014,55.7189297 82.0136227,55.7189297 C80.996767,55.7189297 80.2070012,55.4584365 79.6443255,54.9371911 C79.0816498,54.4162047 78.8004414,53.7030851 78.8004414,52.7980912 L78.8004414,47.7024192 L80.4721554,47.7024192 L80.4721554,52.5435536 C80.4721554,53.1530974 80.5946338,53.6002861 80.8398496,53.8851196 C81.0850654,54.1702121 81.4908237,54.3123699 82.0571245,54.3123699 C82.6050407,54.3123699 83.0025129,54.1691763 83.2495413,53.8822713 C83.4965697,53.5958841 83.6203428,53.1458471 83.6203428,52.5326782 L83.6203428,47.7024192 L85.2917978,47.7024192" id="Fill-16" fill="#717592" mask="url(#mask-4)"></path>
            <path d="M89.4589901,52.5762577 L89.4589901,55.6107707 L87.7820974,55.6107707 L87.7820974,47.7024969 L90.0864007,47.7024969 C91.161,47.7024969 91.9562035,47.8982552 92.4717522,48.289254 C92.9875598,48.6805117 93.2454636,49.2747781 93.2454636,50.0715351 C93.2454636,50.5368496 93.1172885,50.950635 92.8611973,51.3131504 C92.605365,51.6754069 92.2428496,51.9594636 91.7741689,52.1650617 C92.9642552,53.9426819 93.7395203,55.0913379 94.0999642,55.6107707 L92.2392244,55.6107707 L90.3515549,52.5762577 L89.4589901,52.5762577 Z M89.4589901,51.2129408 L89.999656,51.2129408 C90.5299642,51.2129408 90.9212219,51.1249014 91.173688,50.9480456 C91.4258952,50.7711899 91.5525166,50.4936067 91.5525166,50.1147781 C91.5525166,49.7398335 91.4233058,49.4731258 91.165402,49.3143958 C90.9074982,49.1556658 90.5082133,49.0761714 89.9672885,49.0761714 L89.4589901,49.0761714 L89.4589901,51.2129408 Z" id="Fill-17" fill="#717592" mask="url(#mask-4)"></path>
            <polygon id="Fill-18" fill="#717592" mask="url(#mask-4)" points="95.6491739 55.6106412 97.3258076 55.6106412 97.3258076 47.7023674 95.6491739 47.7023674"></polygon>
            <polygon id="Fill-19" fill="#717592" mask="url(#mask-4)" points="102.92144 55.6107189 101.244289 55.6107189 101.244289 49.0981295 99.0969026 49.0981295 99.0969026 47.7024451 105.068826 47.7024451 105.068826 49.0981295 102.92144 49.0981295"></polygon>
            <polygon id="Fill-20" fill="#717592" mask="url(#mask-4)" points="109.300857 50.9588952 110.950561 47.702471 112.757441 47.702471 110.133866 52.53273 110.133866 55.6107448 108.467848 55.6107448 108.467848 52.5868483 105.844273 47.702471 107.661769 47.702471"></polygon>
            <path d="M125.051401,55.6107189 L123.011993,55.6107189 L122.39002,54.9996215 C121.70124,55.4791776 120.92235,55.7189556 120.05309,55.7189556 C119.173472,55.7189556 118.475371,55.5169827 117.959822,55.113037 C117.444274,54.7093502 117.18637,54.1627287 117.18637,53.4739494 C117.18637,52.9801517 117.295642,52.5591159 117.51367,52.2111011 C117.731697,51.8630863 118.106123,51.5375993 118.636173,51.23464 C118.365581,50.9244303 118.169046,50.6279445 118.046308,50.3449236 C117.92383,50.0616436 117.862461,49.7524698 117.862461,49.417143 C117.862461,48.8689679 118.072461,48.427217 118.49272,48.0918903 C118.91272,47.7565635 119.474619,47.5890296 120.17764,47.5890296 C120.848552,47.5890296 121.384557,47.7449112 121.786949,48.0566745 C122.188824,48.3684377 122.39002,48.7863662 122.39002,49.3089063 C122.39002,49.7379692 122.26547,50.1302626 122.016629,50.4855277 C121.767788,50.8407928 121.365914,51.1789679 120.810488,51.4997941 L122.346777,52.9980185 C122.602868,52.5762059 122.82452,52.0334686 123.011993,51.3698064 L124.732387,51.3698064 C124.6024,51.8566128 124.42399,52.3320259 124.196641,52.7952688 C123.969551,53.2585117 123.711647,53.6689309 123.423189,54.0257497 L125.051401,55.6107189 Z M118.922819,53.317291 C118.922819,53.6275006 119.039083,53.87427 119.27161,54.0583761 C119.504138,54.2422232 119.802436,54.3341467 120.167023,54.3341467 C120.621462,54.3341467 121.030587,54.2243564 121.394656,54.0042577 L119.59891,52.2191282 C119.389687,52.3778582 119.224742,52.5435795 119.103818,52.7168101 C118.982893,52.8897818 118.922819,53.090201 118.922819,53.317291 L118.922819,53.317291 Z M120.864607,49.4821369 C120.864607,49.2910395 120.799613,49.1405956 120.669884,49.0305462 C120.540155,48.9204969 120.372621,48.8653428 120.167023,48.8653428 C119.925174,48.8653428 119.735112,48.9230863 119.596321,49.0385734 C119.45727,49.1538015 119.387874,49.3182281 119.387874,49.5308175 C119.387874,49.8480185 119.559033,50.1981048 119.90161,50.5800407 C120.212079,50.4070691 120.449785,50.2366868 120.615766,50.0691529 C120.781746,49.90136 120.864607,49.7056017 120.864607,49.4821369 L120.864607,49.4821369 Z" id="Fill-21" fill="#717592" mask="url(#mask-4)"></path>
            <path d="M133.034275,51.1698015 L136.171587,51.1698015 L136.171587,55.2698508 C135.66303,55.4358311 135.18425,55.5520949 134.735508,55.6189014 C134.286507,55.6854488 133.827407,55.718852 133.358985,55.718852 C132.165274,55.718852 131.253806,55.3682478 130.624324,54.6667805 C129.99536,53.9655721 129.680748,52.9582972 129.680748,51.6457324 C129.680748,50.3691603 130.045594,49.3737965 130.775804,48.6599001 C131.506273,47.9460037 132.518985,47.588926 133.813165,47.588926 C134.624682,47.588926 135.407197,47.7512811 136.160711,48.0757324 L135.603732,49.4170395 C135.026556,49.1285808 134.426334,48.9846104 133.802549,48.9846104 C133.077518,48.9846104 132.496975,49.2277546 132.060662,49.71482 C131.624349,50.2016264 131.406063,50.8559667 131.406063,51.6783588 C131.406063,52.5364846 131.582142,53.1921196 131.933523,53.6444871 C132.284904,54.0971134 132.796309,54.3234266 133.466963,54.3234266 C133.81679,54.3234266 134.172055,54.2871751 134.532758,54.2151899 L134.532758,52.5654858 L133.034275,52.5654858 L133.034275,51.1698015" id="Fill-22" fill="#717592" mask="url(#mask-4)"></path>
            <path d="M145.786039,51.6457065 C145.786039,52.9549051 145.461588,53.9608853 144.812427,54.6641652 C144.163265,55.3671862 143.233154,55.7188261 142.021317,55.7188261 C140.80948,55.7188261 139.87911,55.3671862 139.230207,54.6641652 C138.581046,53.9608853 138.256594,52.9512799 138.256594,51.6348311 C138.256594,50.3186412 138.581822,49.3134377 139.232797,48.6192207 C139.883771,47.9252626 140.816989,47.5780247 142.032192,47.5780247 C143.247137,47.5780247 144.17673,47.927852 144.820454,48.6275068 C145.464178,49.3271615 145.786039,50.3331418 145.786039,51.6457065 M140.014535,51.6457065 C140.014535,52.5292084 140.182069,53.1944242 140.517396,53.6418718 C140.852723,54.0890604 141.35403,54.3125253 142.021317,54.3125253 C143.359258,54.3125253 144.028099,53.4235857 144.028099,51.6457065 C144.028099,49.8642022 143.362883,48.973709 142.032192,48.973709 C141.364905,48.973709 140.861785,49.1982096 140.522834,49.6469519 C140.183882,50.0962121 140.014535,50.7622047 140.014535,51.6457065" id="Fill-23" fill="#717592" mask="url(#mask-4)"></path>
            <path d="M152.490166,47.7024192 L154.183372,47.7024192 L151.494803,55.610693 L149.666689,55.610693 L146.983557,47.7024192 L148.676504,47.7024192 L150.164371,52.4083872 C150.247232,52.6862293 150.332941,53.0096449 150.421239,53.3794106 C150.509538,53.7491763 150.564433,54.0060444 150.586184,54.1500148 C150.625801,53.8183132 150.760968,53.2380296 150.991942,52.4083872 L152.490166,47.7024192" id="Fill-24" fill="#717592" mask="url(#mask-4)"></path>
            <polygon id="Fill-25" fill="#717592" mask="url(#mask-4)" points="160.287174 55.6107189 155.732686 55.6107189 155.732686 47.7024451 160.287174 47.7024451 160.287174 49.0763785 157.409578 49.0763785 157.409578 50.8128274 160.087273 50.8128274 160.087273 52.1865018 157.409578 52.1865018 157.409578 54.22591 160.287174 54.22591"></polygon>
            <path d="M164.16772,52.5762577 L164.16772,55.6107707 L162.491086,55.6107707 L162.491086,47.7024969 L164.79539,47.7024969 C165.86973,47.7024969 166.665192,47.8982552 167.180741,48.289254 C167.69629,48.6805117 167.954194,49.2747781 167.954194,50.0715351 C167.954194,50.5368496 167.826277,50.950635 167.570186,51.3131504 C167.313836,51.6754069 166.95158,51.9594636 166.482899,52.1650617 C167.672985,53.9426819 168.44825,55.0913379 168.808953,55.6107707 L166.947954,55.6107707 L165.060285,52.5762577 L164.16772,52.5762577 Z M164.16772,51.2129408 L164.708645,51.2129408 C165.238953,51.2129408 165.629952,51.1249014 165.882418,50.9480456 C166.134884,50.7711899 166.261247,50.4936067 166.261247,50.1147781 C166.261247,49.7398335 166.132295,49.4731258 165.874391,49.3143958 C165.616487,49.1556658 165.217202,49.0761714 164.676277,49.0761714 L164.16772,49.0761714 L164.16772,51.2129408 Z" id="Fill-26" fill="#717592" mask="url(#mask-4)"></path>
            <path d="M177.373639,55.6107189 L175.242566,55.6107189 L171.802295,49.6281788 L171.753614,49.6281788 C171.822233,50.6849112 171.856413,51.4384254 171.856413,51.8892392 L171.856413,55.6107189 L170.35793,55.6107189 L170.35793,47.7024451 L172.472948,47.7024451 L175.907782,53.6254291 L175.945328,53.6254291 C175.89121,52.5976979 175.864539,51.8713724 175.864539,51.4456757 L175.864539,47.7024451 L177.373639,47.7024451 L177.373639,55.6107189" id="Fill-27" fill="#717592" mask="url(#mask-4)"></path>
            <path d="M184.759502,55.6107189 L184.18621,53.7282281 L181.302917,53.7282281 L180.729625,55.6107189 L178.923263,55.6107189 L181.714113,47.6700777 L183.764138,47.6700777 L186.566382,55.6107189 L184.759502,55.6107189 Z M183.785889,52.3219273 C183.255581,50.6162922 182.957282,49.6514834 182.890476,49.4280185 C182.82367,49.2045536 182.776284,49.0276979 182.747282,48.8977102 C182.628429,49.3593995 182.287406,50.5010641 181.724989,52.3219273 L183.785889,52.3219273 Z" id="Fill-28" fill="#717592" mask="url(#mask-4)"></path>
            <path d="M195.13099,55.6107189 L192.999917,55.6107189 L189.559387,49.6281788 L189.510965,49.6281788 C189.579584,50.6849112 189.613506,51.4384254 189.613506,51.8892392 L189.613506,55.6107189 L188.11554,55.6107189 L188.11554,47.7024451 L190.230041,47.7024451 L193.665133,53.6254291 L193.702938,53.6254291 C193.64882,52.5976979 193.62189,51.8713724 193.62189,51.4456757 L193.62189,47.7024451 L195.13099,47.7024451 L195.13099,55.6107189" id="Fill-29" fill="#717592" mask="url(#mask-4)"></path>
            <path d="M201.034761,48.9844809 C200.403466,48.9844809 199.915106,49.2216695 199.568904,49.695529 C199.222702,50.1699063 199.049471,50.8307201 199.049471,51.6782293 C199.049471,53.4416079 199.711321,54.3232972 201.034761,54.3232972 C201.590186,54.3232972 202.262652,54.1845055 203.052418,53.9069223 L203.052418,55.3129642 C202.403256,55.5835561 201.678485,55.7189815 200.878102,55.7189815 C199.727375,55.7189815 198.847757,55.3699309 198.238213,54.6723477 C197.62867,53.9745055 197.324157,52.9726683 197.324157,51.6673539 C197.324157,50.8452207 197.473565,50.1248508 197.772899,49.5065031 C198.072492,48.8878964 198.502332,48.4137781 199.063195,48.0836301 C199.623799,47.7534821 200.280988,47.5887965 201.034761,47.5887965 C201.803035,47.5887965 202.574416,47.7744562 203.34994,48.1460345 L202.809015,49.5090925 C202.513306,49.3684883 202.215784,49.2460099 201.91645,49.1411393 C201.617116,49.0367867 201.323219,48.9844809 201.034761,48.9844809" id="Fill-30" fill="#717592" mask="url(#mask-4)"></path>
            <polygon id="Fill-31" fill="#717592" mask="url(#mask-4)" points="209.843005 55.6107189 205.288517 55.6107189 205.288517 47.7024451 209.843005 47.7024451 209.843005 49.0763785 206.965409 49.0763785 206.965409 50.8128274 209.643104 50.8128274 209.643104 52.1865018 206.965409 52.1865018 206.965409 54.22591 209.843005 54.22591"></polygon>
            <path d="M16.5363736,2.58939581e-05 C11.2892219,2.58939581e-05 7.17622565,1.62150555 4.311836,4.81992725 C1.45806289,8.00540197 0.0113674476,12.5378804 0.0113674476,18.2912589 C0.0113674476,24.0912466 1.45391985,28.6553157 4.29888903,31.8565857 C7.15525154,35.0715795 11.2568545,36.7018631 16.4887287,36.7018631 C21.6100358,36.7018631 25.6712441,35.0430962 28.560233,31.7721714 C31.436275,28.5152293 32.8946227,23.9956979 32.8946227,18.3389038 C32.8946227,12.6663144 31.440418,8.14678298 28.5718853,4.90511837 C25.6911825,1.65024784 21.6418853,2.58939581e-05 16.5363736,2.58939581e-05 M16.4887287,32.3630715 C12.7941788,32.3630715 9.94480764,31.1784229 8.0198508,28.8420111 C6.07573243,26.4835894 5.08994945,22.949582 5.08994945,18.3389038 C5.08994945,13.7916658 6.07573243,10.2900259 8.0198508,7.93108631 C9.94532552,5.59467448 12.8107509,4.41002589 16.5363736,4.41002589 C20.2449063,4.41002589 23.0774464,5.58587053 24.9557941,7.90467448 C26.8538212,10.2488545 27.8160407,13.7592984 27.8160407,18.3389038 C27.8160407,22.9658952 26.8496782,26.5045635 24.9441418,28.8565117 C23.057767,31.1833428 20.2133157,32.3630715 16.4887287,32.3630715" id="Fill-32" fill="#6ABF4B" mask="url(#mask-4)"></path>
            <path d="M52.0499112,8.80674229 C50.2016005,8.80674229 48.498037,9.17702589 46.9871245,9.90775339 C45.6872478,10.5364587 44.6211936,11.3971739 43.8101948,12.4720321 L43.2361258,9.28396794 L39.2958422,9.28396794 L39.2958422,36.2243009 L44.0401332,36.2243009 L44.0401332,22.1097633 C44.0401332,18.8165697 44.6507127,16.4374328 45.8550407,15.0378644 C47.0440912,13.6553859 48.9677534,12.9544365 51.5726856,12.9544365 C53.5178397,12.9544365 54.9549544,13.4420197 55.843894,14.4039803 C56.7411196,15.3747448 57.1958175,16.8913539 57.1958175,18.9116005 L57.1958175,36.2243009 L61.9401085,36.2243009 L61.9401085,18.7684069 C61.9401085,15.3320197 61.0964834,12.7837953 59.4325376,11.1941652 C57.7732528,9.60997287 55.2895043,8.80674229 52.0499112,8.80674229" id="Fill-33" fill="#6ABF4B" mask="url(#mask-4)"></path>
            <path d="M79.7117016,8.80674229 C76.1062269,8.80674229 73.1908261,10.10636 71.0462885,12.6701208 C68.9190999,15.2129075 67.8403576,18.6777781 67.8403576,22.9689248 C67.8403576,27.2380617 69.0048089,30.6288755 71.301344,33.0473711 C73.6025401,35.4720814 76.7776572,36.7017855 80.7378792,36.7017855 C82.5230086,36.7017855 84.0717263,36.566619 85.3410481,36.2993933 C86.6108878,36.0324266 87.97291,35.5870506 89.3895684,34.9751763 L89.6257213,34.8734131 L89.6257213,30.4906017 L89.0806535,30.7239063 C86.3902713,31.8748927 83.631529,32.4585425 80.8810727,32.4585425 C78.3338841,32.4585425 76.3387546,31.6977781 74.9510974,30.1974821 C73.6162639,28.7549297 72.874143,26.6246338 72.7426017,23.8612306 L90.7474476,23.8612306 L90.7474476,20.9642145 C90.7474476,17.3501948 89.7507891,14.392328 87.7851788,12.172439 C85.8071393,9.93908508 83.0908631,8.80674229 79.7117016,8.80674229 M79.6637978,12.9065327 C81.6286313,12.9065327 83.0918989,13.5127102 84.137238,14.7595043 C85.1274229,15.9407867 85.6564365,17.6544488 85.7118496,19.8569889 L72.8674106,19.8569889 C73.1255734,17.7378274 73.8182367,16.0485055 74.9288286,14.8317485 C76.1114057,13.5362737 77.6601233,12.9065327 79.6637978,12.9065327" id="Fill-34" fill="#6ABF4B" mask="url(#mask-4)"></path>
            <polygon id="Fill-35" fill="#6ABF4B" mask="url(#mask-4)" points="92.9482269 4.93518126 103.998473 4.93518126 103.998473 36.2244044 108.838313 36.2244044 108.838313 4.93518126 119.88856 4.93518126 119.88856 0.54874476 92.9482269 0.54874476"></polygon>
            <path d="M136.08492,8.80674229 C134.374624,8.80674229 132.783181,9.2948434 131.355129,10.2578397 C130.150801,11.0703921 129.085265,12.1856449 128.179753,13.5800345 L127.777361,9.28396794 L123.760173,9.28396794 L123.760173,36.2243009 L128.504723,36.2243009 L128.504723,21.7995536 C128.504723,19.3471369 129.230789,17.2740666 130.663502,15.6370506 C132.10217,13.9925253 133.781911,13.1929199 135.798274,13.1929199 C136.593218,13.1929199 137.528767,13.3104784 138.57799,13.5417115 L138.987374,13.6323403 L139.653107,9.17624908 L139.290592,9.1011566 C138.345462,8.90565721 137.266979,8.80674229 136.08492,8.80674229" id="Fill-36" fill="#6ABF4B" mask="url(#mask-4)"></path>
            <path d="M161.35025,23.4226646 C161.35025,26.7008397 160.742778,29.0810123 159.544924,30.496894 C158.364159,31.8933551 156.444899,32.6018138 153.84152,32.6018138 C151.896366,32.6018138 150.458993,32.1139716 149.570312,31.15227 C148.673345,30.1820234 148.218647,28.6654143 148.218647,26.6446498 L148.218647,9.28404562 L143.425935,9.28404562 L143.425935,26.7875845 C143.425935,30.2089531 144.265935,32.7450074 145.922112,34.3260925 C147.572593,35.9025166 150.068512,36.7018631 153.340213,36.7018631 C155.235133,36.7018631 156.949831,36.3437497 158.436662,35.6376215 C159.722297,35.0270419 160.780324,34.1733181 161.590287,33.0950937 L162.100657,36.2243785 L166.094282,36.2243785 L166.094282,9.28404562 L161.35025,9.28404562 L161.35025,23.4226646" id="Fill-37" fill="#6ABF4B" mask="url(#mask-4)"></path>
            <path d="M183.190924,20.5976079 C180.960936,19.765635 179.437594,19.1234649 178.662847,18.6894821 C177.921503,18.2746609 177.381614,17.8386067 177.058199,17.3929716 C176.747212,16.9644266 176.595732,16.4543157 176.595732,15.8328607 C176.595732,14.935894 177.003303,14.2486683 177.842009,13.731566 C178.729912,13.1841677 180.090122,12.9065845 181.884832,12.9065845 C183.955313,12.9065845 186.305967,13.4428483 188.872058,14.5000986 L189.226287,14.6461406 L190.945905,10.7112947 L190.582613,10.5564488 C187.857274,9.39536375 185.027323,8.80679408 182.171478,8.80679408 C179.07974,8.80679408 176.602465,9.45336621 174.808531,10.7286436 C172.972909,12.0336991 172.042539,13.8392848 172.042539,16.0954254 C172.042539,17.3530949 172.313131,18.4554007 172.847323,19.37127 C173.377372,20.2791122 174.189148,21.0978792 175.261417,21.8040074 C176.307015,22.4933046 178.079974,23.305598 180.527212,24.2173243 C183.038149,25.1844636 184.740418,26.0267941 185.586633,26.7202343 C186.381577,27.3722441 186.768174,28.1280888 186.768174,29.0310111 C186.768174,30.2462145 186.284475,31.1237608 185.28937,31.7136252 C184.242218,32.3348212 182.703081,32.6496917 180.715461,32.6496917 C179.416879,32.6496917 178.048125,32.4689519 176.647002,32.1123921 C175.241478,31.7553144 173.907163,31.2597041 172.68212,30.6390259 L172.114006,30.351603 L172.114006,34.8921085 L172.312872,35.0042293 C174.304117,36.1306165 177.098852,36.7018372 180.619912,36.7018372 C183.967224,36.7018372 186.614364,36.0099507 188.487533,34.645857 C190.399543,33.2535388 191.369271,31.2521948 191.369271,28.696979 C191.369271,26.867312 190.783032,25.3229963 189.626867,24.107275 C188.484166,22.9065721 186.377952,21.7581751 183.190924,20.5976079" id="Fill-38" fill="#6ABF4B" mask="url(#mask-4)"></path>
            <path d="M209.341309,32.1877953 C208.975687,32.2944784 208.469978,32.39909 207.837906,32.4990407 C207.210496,32.5989914 206.548905,32.6497435 205.871001,32.6497435 C204.672111,32.6497435 203.760903,32.279201 203.084811,31.516106 C202.405872,30.7509396 202.061482,29.61782 202.061482,28.1480789 L202.061482,13.1453785 L209.65126,13.1453785 L209.65126,9.28407152 L202.061482,9.28407152 L202.061482,3.22203699 L199.087561,3.22203699 L197.385292,8.91275216 L193.570076,10.5893859 L193.570076,13.1453785 L197.316932,13.1453785 L197.316932,28.3153539 C197.316932,33.8802244 200.002395,36.701889 205.297968,36.701889 C205.981309,36.701889 206.761236,36.6319753 207.615995,36.4939605 C208.498461,36.350767 209.153837,36.1718397 209.620705,35.9470801 L209.842099,35.8401381 L209.842099,32.0420123 L209.341309,32.1877953" id="Fill-39" fill="#6ABF4B" mask="url(#mask-4)"></path>
        </g>
    </g>
</svg>