<svg fill="none" height="56" viewBox="0 0 56 56" width="56" xmlns="http://www.w3.org/2000/svg"><path d="m28 56c15.464 0 28-12.536 28-28s-12.536-28-28-28-28 12.536-28 28 12.536 28 28 28z" fill="#c7eafb"/><g fill="#383737"><path d="m46.4755 12.2474c-2.6332 2.6332-5.1787 5.2665-7.8558 7.768-.7022.6583-1.8433 1.1411-2.8088 1.185-5.1348.1316-10.3134.1316-15.4482 0-.9656 0-2.1066-.4828-2.8088-1.1411-2.6333-2.5016-5.1348-5.1348-8.03137-8.1191 0 7.4608-.26332 14.3511.08777 21.1975.21944 4.5204 2.5016 8.3385 6.0564 11.3667 3.5988-2.6771 7.0659-5.1786 10.4013-7.8558 1.536-1.2288 2.5454-1.1849 4.0376.0439 3.3354 2.721 6.8903 5.2226 10.3574 7.8119 3.3793-3.0721 5.7053-6.583 5.9247-10.8401.3511-7.0219.0878-14.1316.0878-21.4169zm-25.5862 23.6552c-1.5799 0-2.8527-1.2728-2.8527-2.8527s1.2728-2.8527 2.8527-2.8527 2.8527 1.2728 2.8527 2.8527-1.2728 2.8527-2.8527 2.8527zm14.2194 0c-1.5799 0-2.8526-1.2728-2.8526-2.8527s1.2727-2.8527 2.8526-2.8527c1.58 0 2.8527 1.2728 2.8527 2.8527s-1.2727 2.8527-2.8527 2.8527z"/><path d="m27.9975 42.749 2.5894-2.5893h-5.1787z"/></g></svg>