<svg fill="none" height="14" viewBox="0 0 89 14" width="89" xmlns="http://www.w3.org/2000/svg"><path clip-rule="evenodd" d="m84.8383 5.8829v1.77555h.8878v1.88653c0 .94322-.7768.94322-.7768.94322-.9987 0-.9433-.88773-.9433-.88773v-6.60285c0-.66583.8878-.72132.8878-.72132.8323 0 .8323.83229.8323.83229v.99875h3.1627c.111-1.94201-.2774-2.44139-.2774-2.44139-.7768-1.775552-3.7731-1.66457997-3.7731-1.66457997-4.6053 0-4.1059 3.55110997-4.1059 3.55110997v6.3809c.1068 3.20472 4.2755 3.01602 4.6859 2.99742l.0217-.0009.0087-.0003c1.9975-.2219 2.6078-.8877 2.6078-.8877.5549-.4439.7214-.9988.7214-.9988.1664-.3329.2219-1.38715.2219-1.38715v-3.77305zm-36.0659.16673s-.8878-.55486-1.3871-.72132c0 0-1.6646-.7768-1.9975-1.10972 0 0-.6659-.61035-.2775-1.33167 0 0 .1665-.44389.8323-.44389 0 0 .8878.05549.8878.77681v1.05423h3.1627v-1.49812s.222-2.496876-3.773-2.607848c0 0-3.1627-.2219445-4.0505 1.498128 0 0-.3329.3884-.3329 1.66458v.94326s-.0555 1.10973.4993 1.77556c0 0 .3329.44389 1.1098.99875 0 0 1.6091.83229 2.5523 1.33167 0 0 .9433.55486.8323 1.44264 0 0-.0555.88781-.9987.83231 0 0-.8323-.0555-.8323-.8878v-1.05424h-3.3847v1.49814s-.111 2.8853 4.2724 2.8853c0 0 4.1615.1109 4.3834-2.9408v-1.27618c-.0088 0-.012-.04786-.0177-.13214-.0298-.44489-.1276-1.90463-1.4804-2.69765zm-16.3129-5.60463-1.0543 6.65833h-.2774l-.9987-6.602844h-5.3267l-.2219 12.096014h3.1072l.0555-9.09976h.2219l1.6646 9.09976h3.3292l1.6645-9.09976h.222l.0555 9.09976h3.1627l-.3329-12.1515zm-20.8072 12.1516 2.1085-12.095975h5.3266l2.1085 12.095975h-3.3847l-1.2761-9.37716h-.2775l-1.2207 9.37716zm62.4779-4.77195h.111l-.222-7.37965h3.1628v12.1515h-3.7176l-3.3847-7.37969h-.1109l.1664 7.37969h-3.1627v-12.1515h3.884zm-14.8157 1.77556s.0554.99879-.8878.99879c0 0-.9988.0554-.9988-.99879v-9.15521h-3.4401v9.04424s-.3329 3.44016 4.4944 3.44016c0 0 4.2169.0555 4.2169-3.27371v-9.21069h-3.3846zm-53.54369-4.27255c.49938.16646 1.38716.72132 1.38716.72132 1.3528.79302 1.45062 2.25276 1.48043 2.69765.00565.08428.00885.13214.01769.13214v1.22073c-.22194 3.0517-4.3834 2.9407-4.3834 2.9407-4.383405 0-4.27243226-2.8852-4.27243226-2.8852v-1.49817h3.44014226v1.05424c0 .83233.83229.88773.83229.88773.94326.0555.99875-.83225.99875-.83225.11097-.88778-.83229-1.44264-.83229-1.44264-.99875-.49937-2.55236-1.33166-2.55236-1.33166-.77681-.55486-1.109727-.99875-1.109727-.99875-.554861-.66584-.499375-1.77556-.499375-1.77556v-.94326c0-1.27618.332917-1.66459.332917-1.66459.832295-1.331663 3.273685-1.442636 3.273685-1.442636h.72131c3.995.110973 3.77306 2.607846 3.77306 2.607846v1.49813h-3.16271v-1.05424c0-.72132-.88778-.77681-.88778-.77681-.66583 0-.83229.44389-.83229.44389-.3884.72132.27743 1.33167.27743 1.33167.33292.33292 1.9975 1.10972 1.9975 1.10972z" fill="#000" fill-rule="evenodd"/></svg>