<svg height="100" viewBox="0 0 260 100" width="260" xmlns="http://www.w3.org/2000/svg" xmlns:xlink="http://www.w3.org/1999/xlink"><linearGradient id="a" x1="63.462878%" x2="45.28367%" y1="103.726548%" y2="-2.591127%"><stop offset="0" stop-color="#793adf"/><stop offset="1" stop-color="#9095ff"/></linearGradient><mask id="b" fill="#fff"><path d="m.50453515.30068027h19.97222225v25.20952383h-19.97222225z" fill="#fff" fill-rule="evenodd"/></mask><mask id="c" fill="#fff"><path d="m0 36.8480726h249.671202v-36.57029482h-249.671202z" fill="#fff" fill-rule="evenodd"/></mask><mask id="d" fill="#fff"><path d="m.30668934 6.30952381 5.98072563 5.97505669v-11.95578231z" fill="#fff" fill-rule="evenodd"/></mask><mask id="e" fill="#fff"><path d="m0 .27777778v11.95578232l5.97562358-5.9750567z" fill="#fff" fill-rule="evenodd"/></mask><mask id="f" fill="#fff"><path d="m0 .07414966h11.953458v11.95351474h-11.953458z" fill="#fff" fill-rule="evenodd"/></mask><mask id="g" fill="#fff"><path d="m0 6.04875283 5.97562358 5.98072567v-11.95578235z" fill="#fff" fill-rule="evenodd"/></mask><mask id="h" fill="#fff"><path d="m0 12.3356009 5.97562358-5.97505668-5.97562358-5.98072563z" fill="#fff" fill-rule="evenodd"/></mask><mask id="i" fill="#fff"><path d="m.3968254 12.2845805 5.97505669-5.97505669-5.97505669-5.98072562z" fill="#fff" fill-rule="evenodd"/></mask><mask id="j" fill="#fff"><path d="m.3968254 5.99773243 5.97505669 5.98072557 5.98129251-5.98072557-5.98129251-5.97505669z" fill="#fff" fill-rule="evenodd"/></mask><mask id="k" fill="#fff"><path d="m.13605442 11.978458 5.98129252-5.98072557-5.98129252-5.97505669z" fill="#fff" fill-rule="evenodd"/></mask><mask id="l" fill="#fff"><path d="m6.11734694.27777778-5.98129252 5.98072562 5.98129252 5.9750567z" fill="#fff" fill-rule="evenodd"/></mask><mask id="m" fill="#fff"><path d="m.13605442 6.36054422 5.98129252 5.97505668v-11.95578231z" fill="#fff" fill-rule="evenodd"/></mask><g fill="none" fill-rule="evenodd"><path d="m0 0h260v100h-260z" fill="#fff"/><g transform="translate(5 31)"><g transform="translate(0 .289116)"><g fill="#1d1d1b"><path d="m47.8913832 22.9989796h5.2777778c0 2.3412698 1.9331066 3.4693877 4.0759637 3.4693877 1.9727891 0 3.9002268-1.0436507 3.9002268-2.8458049 0-1.8764173-2.2052154-2.3922903-4.829932-3.0045352-3.6507936-.9013605-8.0839002-1.9614512-8.0839002-7.1768707 0-4.64285718 3.4183673-7.2619048 8.7811791-7.2619048 5.5668934 0 8.7301587 2.97052154 8.7301587 7.7947846h-5.1757369c0-2.0861678-1.7176871-3.0612245-3.6791383-3.0612245-1.6950114 0-3.4183674.7199546-3.4183674 2.3072562 0 1.7063492 2.1031746 2.2222222 4.6655329 2.8344671 3.6904762.9353742 8.3276644 2.0861678 8.3276644 7.505669 0 5.2267574-4.1666667 7.765873-9.1780045 7.765873-5.5668935 0-9.3934241-3.1230159-9.3934241-8.3270975"/><path d="m83.220068 21.5081633c0-3.0221089-2.063492-5.1190477-4.9773242-5.1190477s-4.9773243 2.0918368-4.9773243 5.1190477c0 3.0272108 2.0634921 5.1184807 4.9773243 5.1184807s4.9773242-2.0969388 4.9773242-5.1184807m-15.0736961 0c0-5.6632653 4.30839-9.8639456 10.0963719-9.8639456 5.7539682 0 10.0963718 4.2063492 10.0963718 9.8639456 0 5.6292517-4.3367346 9.8633787-10.0963718 9.8633787-5.782313 0-10.0963719-4.234127-10.0963719-9.8633787"/><path d="m90.3912132 22.959127v-10.7879819h5.0510204v10.2154195c0 2.6587302 1.4058957 4.2403628 3.7358276 4.2403628 2.3412698 0 3.7074828-1.6213152 3.7074828-4.2403628v-10.2154195h5.051021v10.7879819c0 5.0453515-3.475057 8.4126984-8.7585038 8.4126984-5.2721088 0-8.786848-3.3673469-8.786848-8.4126984"/><path d="m122.018197 12.0636054v4.7619048h-2.193877c-2.845805 0-3.968254 1.2585034-3.968254 4.314059v9.835034h-5.051021v-18.803288h3.236962l.895691 2.2902494c1.3322-1.6496598 3.015873-2.3922902 5.413833-2.3922902h1.666666z"/><path d="m132.506009 31.3717687c-5.617914 0-9.914966-4.3253968-9.914966-9.9206349s4.268708-9.8072562 9.943311-9.8072562c4.835601 0 8.587868 3.0668934 9.495465 7.6649659h-5.017574c-.81576-1.8373015-2.499433-2.9143991-4.512472-2.9143991-2.738095 0-4.795918 2.1995465-4.795918 5.0912699 0 2.8905896 2.092404 5.1473923 4.795918 5.1473923 2.041383 0 3.651361-1.1337869 4.506803-3.1298186h5.085034c-.878685 4.6825397-4.69898 7.8684807-9.585601 7.8684807"/><path d="m149.421995 19.4725057h9.04762c-.714286-2.2840136-2.352608-3.5198413-4.620182-3.5198413-2.244898 0-3.837868 1.3095238-4.427438 3.5198413m14.002268 3.446712h-14.132653c.436508 2.5510204 2.114512 3.951814 4.562925 3.951814 1.752268 0 3.192177-.8276644 3.963152-2.1660997h5.306123c-1.360545 4.0702948-4.931973 6.6666666-9.269275 6.6666666-5.515306 0-9.687642-4.2681406-9.687642-9.8633786 0-5.6241497 4.143991-9.8645125 9.687642-9.8645125 5.736962 0 9.6661 4.4217687 9.6661 9.8015873 0 .4880952-.034014.9812925-.096372 1.4739229"/><path d="m15.3628118 10.1702948c0-2.93083902-2.1485261-5.11904763-5.085034-5.11904763-2.93083902 0-5.09070297 2.19387755-5.09070297 5.11904763 0 2.9246032 2.1547619 5.1184807 5.09070297 5.1184807 2.9365079-.005102 5.085034-2.1876417 5.085034-5.1184807m-4.6706349-9.86961453c5.6235827 0 9.7845805 4.20634921 9.7845805 9.86337873 0 5.6524943-4.1609978 9.8922902-9.7845805 9.8922902-1.93310661 0-3.69104311-.5719955-5.13662134-1.5697279v7.0238095h-5.05102041v-24.68253964h3.33956916l.86111111 1.69501133c1.58730159-1.40022675 3.65646258-2.22222222 5.98696148-2.22222222" mask="url(#b)" transform="translate(164.965986 11.337868)"/><path d="m202.398299 21.5081633c0-3.0221089-2.064059-5.1190477-4.977324-5.1190477-2.908163 0-4.977891 2.0918368-4.977891 5.1190477 0 3.0272108 2.064059 5.1184807 4.977891 5.1184807 2.908163 0 4.977324-2.0969388 4.977324-5.1184807m-15.074263 0c0-5.6632653 4.308957-9.8639456 10.096939-9.8639456 5.753401 0 10.095805 4.2063492 10.095805 9.8639456 0 5.6292517-4.336168 9.8633787-10.095805 9.8633787-5.787982 0-10.096939-4.234127-10.096939-9.8633787"/><path d="m209.654195 9.36507937h5.028345v-4.24036282h-5.028345zm-.011338 21.60941043h5.051021v-18.803288h-5.051021z" mask="url(#c)"/><path d="m235.379989 19.5240363v11.4506803h-5.051021v-10.6292517c0-2.8225624-1.071428-4.1831066-3.259637-4.1831066-2.602041 0-4.189342 1.8650793-4.189342 4.8690476v9.9495465h-5.051021v-18.8038549h3.463152l.986962 2.3072562c1.411564-1.6836734 3.645124-2.7494643 6.184807-2.7494643 4.263038-.0113066 6.9161 3.0612557 6.9161 7.7891469" mask="url(#c)"/><path d="m244.796315 6.79132653v5.37981857h4.773243v4.0589569h-4.688776v7.4092971c0 1.8027211 1.037415 2.840136 2.874717 2.840136h1.9161v4.4954649h-3.209184c-4.109977 0-6.632653-2.5226757-6.632653-6.6666667v-8.0782313h-3.877551l.498866-.5498866" mask="url(#c)"/></g><path d="m11.9545351 12.2329932 5.9767574 5.9767574-5.9767574 5.9767573-5.97675732-5.9767573z" fill="#7660ea" mask="url(#c)"/></g><path d="m.30668934 6.30952381 5.98072563 5.97505669v-11.95578231z" mask="url(#d)" transform="translate(5.668934 12.193878)"/><g transform="translate(0 6.524943)"><path d="m5.97698413.02318594 5.97675737 5.97675737-5.97675737 5.97675739-5.97675737-5.97675739z" fill="#9096ed"/><path d="m5.97528345 11.9783447-5.97505669-5.98072565 5.97505669-5.97505669" fill="#836af0"/></g><path d="m0 .27777778v11.95578232l5.97562358-5.9750567z" mask="url(#e)" transform="translate(0 .289116)"/><path d="m5.97670068.07414966 5.97675732 5.97675737-5.97675732 5.97675737-5.97675737-5.97675737z" fill="#9096ed" mask="url(#f)" transform="translate(0 18.429705)"/><path d="m0 6.04875283 5.97562358 5.98072567v-11.95578235z" fill="url(#a)" mask="url(#g)" transform="translate(0 18.429705)"/><path d="m0 12.3356009 5.97562358-5.97505668-5.97562358-5.98072563z" mask="url(#h)" transform="translate(0 24.098639)"/><path d="m32.453458 18.5022109-5.9767573 5.9767574-5.9761905-5.9767574 5.9761905-5.9767574z" fill="#67d4c3"/><path d="m.3968254 12.2845805 5.97505669-5.97505669-5.97505669-5.98072562z" mask="url(#i)" transform="translate(26.077098 12.193878)"/><path d="m.3968254 5.99773243 5.97505669 5.98072557 5.98129251-5.98072557-5.98129251-5.97505669z" mask="url(#j)" transform="translate(26.077098 6.524943)"/><path d="m.13605442 11.978458 5.98129252-5.98072557-5.98129252-5.97505669z" mask="url(#k)" transform="translate(32.312925 6.524943)"/><path d="m6.11734694.27777778-5.98129252 5.98072562 5.98129252 5.9750567z" mask="url(#l)" transform="translate(32.312925 .289116)"/><g transform="translate(26.077098 18.429705)"><path d="m12.3497732 6.05034014-5.97675733 5.97675736-5.97619047-5.97675736 5.97619047-5.97675737z" fill="#64ffdc"/><path d="m6.37193878 12.0293084 5.98072562-5.98072563-5.98072562-5.97505669" fill="#44bb54"/></g><path d="m.13605442 6.36054422 5.98129252 5.97505668v-11.95578231z" mask="url(#m)" transform="translate(32.312925 24.098639)"/></g></g></svg>