<svg height="117.13881" viewBox="0 0 400 117.1388102" width="400" xmlns="http://www.w3.org/2000/svg"><g fill-rule="evenodd"><path d="m120.792 64.374c-3.178.805-3.361 1.045-1.695 2.22l.93.656-.016 9.224c-.019 10.448.056 9.966-1.594 10.226-.271.043-.343.203-.384.843l-.051.79h4.351 4.352l-.051-.787c-.05-.778-.059-.789-.738-.922-1.409-.277-1.313.599-1.313-11.892v-11.065l-.583.02c-.321.012-1.765.321-3.208.687m141.767-.025c-1.962.568-2.283 3.684-.488 4.736 2.339 1.371 4.855-.533 4.193-3.172-.317-1.264-2.118-2.024-3.705-1.564m77.858.059c-2.049.752-2.274 3.603-.377 4.76.781.475 2.231.455 2.962-.043 2.8-1.906.616-5.891-2.585-4.717m-288.75 1.057v.799l.744.199c1.006.269.713-.345 5.343 11.202 4.905 12.231 4.222 10.835 5.305 10.835h.88l.854-2.208c.47-1.215 1.388-3.559 2.039-5.209.652-1.65 1.496-3.813 1.876-4.806.797-2.084.796-2.084 1.608.118.275.745.734 1.955 1.02 2.688 1.204 3.089 1.703 4.381 1.996 5.167.171.458.597 1.583.948 2.5l.638 1.667.929.049.928.049.433-1.133c.238-.622 1.034-2.745 1.768-4.715.734-1.971 1.726-4.634 2.204-5.917s.976-2.633 1.106-3c2.291-6.446 2.643-7.128 3.798-7.344.571-.108.583-.125.583-.925v-.814h-3.834-3.833v.833c0 .829.003.833.542.834 1.53.003 2.427.692 2.225 1.71-.079.399-3.899 11.369-4.546 13.055-.163.425-.301.248-.695-.891-.214-.618-.903-2.512-1.531-4.208-2.563-6.92-2.828-7.694-2.828-8.252 0-.781.454-1.199 1.446-1.33.442-.058.916-.121 1.054-.138.174-.023.265-.273.3-.823l.051-.79h-5.092-5.093l.001.791.001.792.791.25c.88.278 1.085.585 2.079 3.117.627 1.599.629 1.832.027 3.33-.265.659-1.12 2.852-1.899 4.875-.779 2.022-1.456 3.677-1.504 3.678-.048 0-.473-1.031-.944-2.292-4.388-11.746-4.293-11.446-3.883-12.212.186-.346 1.113-.66 1.956-.662.539-.001.542-.005.542-.834v-.833h-5.167-5.166zm159.532-.007.051.792.958.119c2.177.27 2.125.069 2.125 8.266 0 7.318.109 8.3 1.109 10.006 2.634 4.496 11.797 5.334 15.867 1.452 2.205-2.103 2.352-2.809 2.355-11.307.003-8.153.008-8.173 2.24-8.403l.929-.096v-.81-.81h-4.416-4.417v.81.81l.898.092c2.289.237 2.269.165 2.269 7.956 0 6.527-.081 7.54-.702 8.783-1.955 3.913-8.905 3.798-10.742-.178l-.473-1.023-.05-7.009c-.06-8.459-.097-8.305 2.037-8.525l.93-.096v-.81-.81h-5.509-5.51zm140.927 3.548c-.938 1.045-2.474 2.287-3.695 2.986-.882.504-.931.567-.931 1.187v.654h1.167 1.166l.008 5.709c.009 6.95.15 7.516 2.113 8.483 2.547 1.254 8.228-.449 7.463-2.238-.256-.598-.249-.597-1.72-.208-1.306.347-2.169.227-2.749-.382-.739-.775-.781-1.117-.781-6.375v-4.989h2.341 2.342l-.05-.958-.05-.958-2.292-.047-2.291-.046v-1.829-1.828h-.645c-.563 0-.739.105-1.396.839m-166.043 3.279c-3.414.978-3.576 1.179-1.916 2.382l1 .724v5.221c0 5.783.009 5.733-1.121 5.981-.86.189-.879.21-.879.988v.758l4.291-.045 4.292-.044v-.745c0-.742-.002-.745-.703-.884-1.373-.271-1.38-.303-1.38-5.858v-4.858l.458-.268c1.535-.899 4.079-1.213 5.197-.643.964.492 1.011.775 1.011 6.083 0 5.193-.016 5.272-1.129 5.52-1.073.238-1.058.224-1.005.959l.051.694 4.384.044 4.384.045-.05-.79c-.051-.781-.059-.792-.739-.925-1.331-.262-1.301-.128-1.401-6.266-.082-5.064-.112-5.494-.437-6.197-1.457-3.16-6.237-3.384-9.753-.457l-1.01.841.12-1.523.121-1.522-.56.011c-.307.006-1.759.354-3.226.774m55.25-.359c-4.317 1.226-4.079 1.133-4.134 1.603-.043.368.107.548.958 1.145l1.01.708v5.196 5.197l-.413.388c-.228.214-.696.434-1.042.49-.618.101-.629.115-.629.85v.747l4.292.044 4.292.045v-.836c0-.785-.026-.836-.425-.836-1.534 0-1.575-.154-1.575-5.927v-4.9l.625-.315c1.804-.912 4.092-1.128 5.056-.478.964.649.98.749.983 5.98l.002 4.777-.512.431c-.282.237-.651.432-.82.432-.671 0-.834.183-.834.937v.735l4.375-.045 4.375-.044v-.732-.731l-.802-.204c-1.254-.318-1.189-.013-1.282-6.049-.081-5.301-.094-5.475-.482-6.333-1.448-3.205-6.159-3.455-9.694-.513l-.99.824v-1.506-1.506l-.459.012c-.252.007-1.096.193-1.875.414m20.876.382-2.707.775.008.5c.007.416.173.618.989 1.2l.982.699.014 4.683c.018 5.915-.047 6.182-1.578 6.495-.461.094-.504.164-.551.888l-.051.785h4.352 4.351l-.051-.787c-.05-.781-.056-.788-.753-.925-1.464-.288-1.422-.035-1.355-8.079l.058-7.042-.5.016c-.275.009-1.719.365-3.208.792m47.458-.216c-1.055.317-2.273.657-2.709.756-1.19.27-1.139.966.14 1.902l.911.667.004 5.119c.005 5.93.01 5.911-1.596 6.164-.271.043-.343.203-.385.846l-.05.793 4.634-.045 4.634-.044.051-.71c.057-.787.053-.79-1.197-.958-1.582-.212-1.604-.278-1.604-4.81v-3.909l.524-.441c1.258-1.059 2.984-1.589 5.173-1.589h1.136v-1.91c0-2.193-.041-2.257-1.447-2.255-1.807.002-3.172.978-4.386 3.137-1.054 1.873-1.033 1.892-.933-.847l.09-2.458-.537.008c-.295.005-1.399.267-2.453.584m32.083-.257c-.55.163-1.75.515-2.667.782-2.182.636-2.308.978-.76 2.07l1.01.712v5.111c0 5.841.001 5.839-1.38 6.111-.697.137-.703.144-.754.925l-.051.787h4.352 4.352l-.051-.785c-.047-.724-.091-.794-.551-.888-1.641-.335-1.642-.342-1.551-8.437l.075-6.723-.512.019c-.282.01-.962.152-1.512.316m-250.876-.003c-4.958 1.054-7.866 7.636-5.545 12.549 2.768 5.86 12.577 5.416 14.406-.651.234-.774-.791-.869-1.589-.147-3.584 3.237-8.934 1.355-9.412-3.311l-.113-1.105h5.629 5.63l-.089-1.375c-.292-4.492-4.039-6.996-8.917-5.96m15.852-.003c-2.405.515-3.885 2.173-4.022 4.504-.186 3.155 1.176 4.629 5.203 5.632 3.554.886 4.305 1.438 4.019 2.962-.579 3.084-6.152 2.307-7.196-1.004l-.291-.923h-.994-.994l.108 1.275c.059.701.108 1.606.108 2.011v.736l1.221.564c2.484 1.147 6.614 1.255 8.649.226 1.958-.991 2.713-2.284 2.713-4.645 0-3.256-1.137-4.331-5.833-5.517-2.587-.653-3.25-1.12-3.25-2.287 0-2.837 5.163-2.554 6.027.331l.192.639h.974.973v-1.662c0-1.91.008-1.898-1.77-2.528-1.103-.391-4.602-.579-5.837-.314m28.502.001c-5.001 1.062-7.921 7.595-5.607 12.542 2.569 5.489 11.469 5.608 14.057.188.594-1.245.595-1.142-.011-1.393-.466-.193-.541-.169-1.138.37-3.625 3.275-9.036 1.421-9.472-3.245l-.105-1.125h5.631 5.631l-.096-1.292c-.34-4.583-4.014-7.081-8.89-6.045m34.105.007c-3.037.53-5.02 3.178-3.835 5.121.378.62.595.65 2.55.359l1.228-.182-.074-1.293c-.107-1.832.388-2.425 2.022-2.425 1.928 0 2.848 1.152 2.855 3.578l.004 1.413-3.5 1.104c-5.613 1.771-6.252 2.267-6.248 4.858.007 4.215 5.001 5.56 8.889 2.394.534-.435.993-.766 1.02-.736.026.03.204.365.395.743.44.872 1.204 1.518 1.966 1.661 2.191.411 5.043-.85 4.699-2.077l-.157-.562-.825.109c-1.585.211-1.604.153-1.691-5.334-.081-5.078-.178-5.641-1.208-6.991-1.204-1.579-4.703-2.331-8.09-1.74m124.851.083c-7.954 2.228-8.111 14.92-.203 16.411 4.01.756 7.541-.721 8.959-3.748.695-1.484-.1-2.146-1.226-1.019-3.437 3.437-8.772 1.406-9.474-3.606l-.111-.791h5.625 5.625l-.083-1.575c-.23-4.397-4.398-6.992-9.112-5.672m31.334-.073c-3.371.662-5.074 4.645-3.241 7.578.831 1.33 1.852 1.854 5.39 2.765 3.017.777 4.006 2.031 2.804 3.558-1.931 2.456-5.972 1.002-7.063-2.54-.041-.133-.394-.208-.986-.208h-.922v2.01 2.011l1.113.505c5.453 2.472 11.322.506 11.677-3.912.267-3.33-1.637-5.092-6.623-6.131-2.539-.528-3.431-2.131-1.924-3.454 1.623-1.425 4.708-.449 5.422 1.717.19.576.212.587 1.098.587h.904v-1.727-1.727l-.959-.427c-1.658-.738-4.641-1.007-6.69-.605m-180.351.784c0 .785.016.81.743 1.164.686.333.808.497 1.608 2.158.476.988 2.02 4.197 3.43 7.129l2.564 5.333-.532 1.167c-1.091 2.396-1.592 2.728-4.331 2.872l-1.816.096.006 1.183c.007 1.644 1.056 2.298 3.246 2.024 2.38-.297 2.767-.912 7.671-12.174.758-1.741 1.843-4.216 2.41-5.5.567-1.283 1.181-2.681 1.364-3.106.263-.613.504-.867 1.16-1.224.807-.439.826-.467.777-1.143l-.05-.693h-3.167-3.167v.731.732l.783.198c1.689.429 1.693.363-.387 5.547-1.823 4.545-1.8 4.508-2.196 3.583-3.952-9.217-3.831-8.66-1.982-9.13l.782-.198v-.732-.731l-4.458-.045-4.458-.044zm123.833.023c0 .79.021.827.585 1.013.836.276 1.05.624 4.253 6.916 4.488 8.816 3.959 7.917 4.656 7.917.686 0 .234.829 4.225-7.75 3.065-6.59 3.077-6.61 3.906-6.996.689-.32.708-.351.708-1.125v-.796h-3.166-3.167v.812.812l.688.11c1.899.304 1.906.259-1.137 7.183-.443 1.008-.879 1.861-.969 1.894-.208.077-3.749-7.557-3.749-8.081 0-.487.603-.897 1.494-1.017l.673-.09v-.811-.812h-4.5-4.5zm91.34-.029c.007.781.018.797.81 1.168.747.35.85.477 1.481 1.833.373.802 1.442 3.032 2.376 4.957 4.226 8.716 3.86 7.649 3.151 9.212-.952 2.101-1.665 2.537-4.366 2.666l-1.792.086v1.141 1.141l.696.46c.609.403.855.461 1.958.457 2.438-.007 3.513-1.049 5.298-5.13.409-.935 1.104-2.524 1.545-3.533 1.123-2.565 3.454-7.909 4.617-10.583.951-2.187 1.001-2.262 1.765-2.667.769-.407.787-.434.787-1.208l.001-.792h-3.167-3.167v.834c0 .682.053.833.292.834 2.193.007 2.207.393.202 5.441-1.974 4.967-1.857 4.758-2.209 3.939-4.044-9.412-3.957-9.018-2.047-9.305l.762-.114v-.814-.815h-4.5-4.5zm-266.988 1.131c1.277.451 1.846 1.266 2.233 3.202l.108.542h-3.498-3.498l.213-.918c.538-2.312 2.45-3.528 4.442-2.826m44.772.191c.962.457 1.709 1.765 1.709 2.995v.558h-3.412-3.413l.093-.542c.457-2.666 2.795-4.068 5.023-3.011m159.355.061c.757.426 1.284 1.18 1.508 2.159.331 1.446.605 1.333-3.237 1.333-3.813 0-3.576.096-3.167-1.282.671-2.256 2.968-3.293 4.896-2.21m-123.349 8.343-.047 2.351-.975.508c-2.293 1.196-4.274.381-4.274-1.757-.001-1.537.273-1.757 3.749-3.007 1.723-.62 1.599-.773 1.547 1.905" fill="#14171f"/><path d="m47.906 21.551c-.047.121-.063 1.041-.037 2.043l.048 1.823 7 .083 7 .083.083 10.084.083 10.083h2.084 2.083v-12.167-12.166l-9.13-.043c-7.448-.036-9.145-.003-9.214.177m-26.573 22.671v8.555l5.246 5.236c2.885 2.88 5.341 5.258 5.458 5.283s.844-.589 1.616-1.365l1.402-1.41-4.777-4.751-4.778-4.75v-7.677-7.676h-2.083-2.084z" fill="#da2324"/></g></svg>