<svg width="120" height="50" viewBox="0 0 120 50" fill="none" xmlns="http://www.w3.org/2000/svg">
<path fill-rule="evenodd" clip-rule="evenodd" d="M25.1305 0.777051L41.9724 10.3665C43.7875 11.4026 44.8236 13.2099 44.8313 15.282V34.7102C44.8313 36.7823 43.7953 38.5974 41.9802 39.6335L25.1383 49.2229C23.3232 50.259 21.2511 50.259 19.436 49.2229L2.85113 39.6335C1.03607 38.5974 0 36.7823 0 34.7102V15.282C0 13.2099 1.03607 11.3948 2.85113 10.3665L19.4282 0.777051C21.2433 -0.259017 23.3154 -0.259017 25.1305 0.777051ZM38.5994 36.5331C39.9003 35.7541 40.4144 34.718 40.4144 33.4249V16.5829C40.4144 15.2898 39.8925 14.2537 38.5994 13.4747L24.0944 5.17839C23.0583 4.39939 21.7652 4.39939 20.7291 5.17839L6.21641 13.4747C4.91548 14.2537 4.40134 15.2898 4.40134 16.5829V33.4249C4.40134 34.718 4.92327 35.7541 6.21641 36.5331L20.7291 44.8216C21.7652 45.3357 23.0583 45.3357 24.0944 44.8216L38.5994 36.5331ZM58.8201 17.3226C62.349 17.3226 63.9226 15.4608 64.164 11.5892H59.4199L59.085 13.6613H60.752C60.5884 14.3702 60.0821 14.9233 58.9448 14.9233C57.6516 14.9233 57.0674 14.1443 57.0674 12.8511C57.0674 11.114 57.8619 9.52481 59.3888 9.52481C60.4015 9.52481 60.8455 9.96884 60.9156 10.7868H64.0472C63.9226 8.09146 61.9049 7.0476 59.5134 7.0476C56.1637 7.03202 53.7956 9.50923 53.7956 12.8745C53.8034 15.8035 55.8054 17.3226 58.8201 17.3226ZM90.5414 17.0795C90.5259 17.0912 90.5122 17.1009 90.4986 17.1106C90.485 17.1204 90.4713 17.1301 90.4557 17.1418H93.4081L94.117 15.4903H97.2486L97.4433 17.1418H100.715L99.1649 7.19401H95.1064L91.967 13.8233C91.9748 13.9089 91.9748 13.9945 91.9748 14.0801V14.0804C91.9748 15.28 91.4684 16.3472 90.5414 17.0795ZM96.6098 9.74133L97.0149 13.3403H95.0518L96.6098 9.74133ZM89.2569 12.0102C90.2384 12.2205 90.9784 12.8827 90.9784 14.0823C90.9784 15.9208 89.4672 17.1438 87.1068 17.1438H82.168L83.7415 7.20378H87.9793C90.3319 7.20378 91.2043 8.271 91.2043 9.64983C91.2043 10.9508 90.3708 11.7609 89.2569 12.0102ZM87.3483 9.26033H86.4758L86.1798 11.0832H87.1691C87.9637 11.0832 88.3376 10.7248 88.3376 10.0705C88.3376 9.49403 88.0027 9.26033 87.3483 9.26033ZM85.8916 12.9606L85.5566 15.0717V15.0794H86.6161C87.4574 15.0794 87.9403 14.5887 87.9403 13.8954C87.9403 13.28 87.5742 12.9606 86.7563 12.9606H85.8916ZM101.963 23.7816C101.885 22.8546 101.48 22.3249 100.561 22.3249C99.0731 22.3249 98.3486 23.8518 98.3331 25.6201C98.3175 26.7496 98.7615 27.6533 99.9845 27.6533C100.865 27.6533 101.504 27.1625 101.768 26.1498H104.9C104.511 28.814 102.438 30.1383 99.9612 30.1383C97.9124 30.1383 96.3466 29.4372 95.5754 28.0506L95.0846 24.8956C95.404 21.9198 97.4216 19.8633 100.639 19.8633C103.342 19.8633 105.04 21.1564 105.134 23.7816H101.963ZM91.4092 28.3081H88.2776L87.5688 29.9595H84.554L89.267 20.0195H93.3256L94.8758 29.9595H91.604L91.4092 28.3081ZM91.1755 26.158L90.7704 22.5591L89.2124 26.158H91.1755ZM104.691 20.0188L104.847 20.3928C105.602 21.1873 106.038 22.2624 106.124 23.5399L107.004 25.6977L106.35 29.9511H109.521L110.159 25.8613L114.163 20.0033H111.024L109.038 23.0803L107.97 20.0033H104.691V20.0188ZM80.5564 20.0195L81.3432 26.68L84.2489 20.0195H87.326L82.5273 29.9595H78.9673L77.5651 21.7879L77.8144 20.1753L77.8378 20.0195H80.5564ZM72.0578 22.8953C72.0578 21.127 70.8348 20.013 68.2875 20.013H64.3535L62.7799 29.953H65.9193L66.449 26.5488H66.9632L68.4355 29.953H71.6216L69.8377 25.9022C71.1386 25.5517 72.0578 24.5234 72.0578 22.8953ZM67.6331 24.5234H66.7684L67.119 22.3812H67.859C68.6068 22.3812 68.9886 22.685 68.9886 23.316C68.9808 24.1651 68.4822 24.5234 67.6331 24.5234ZM72.5311 29.5623L72.2428 28.9001L73.645 20.0195H76.8311L75.2654 29.9595H72.7102L72.5311 29.5623ZM57.4744 26.7189H58.6585C61.2604 26.7189 62.8963 25.3868 62.8963 22.9096C62.8807 21.1413 61.572 20.0195 59.1025 20.0195H55.3789L53.8053 29.9595H56.9603L57.4744 26.7189ZM58.1444 22.3409H58.7598C59.5388 22.3409 59.9127 22.6759 59.9127 23.2757C59.9127 24.1482 59.4141 24.6078 58.5183 24.6078H57.7938L58.1444 22.3409ZM108.119 17.1418H101.723L101.7 16.986L101.536 15.9422L102.915 7.19401H106.078L104.894 14.7036H108.508L108.119 17.1418ZM72.5627 13.7158H71.3942V13.7235H71.106C71.067 13.4821 71.0514 13.2328 71.0514 12.9757C71.0514 9.478 73.3962 7.04753 76.7926 7.04753C79.5191 7.04753 81.7549 8.53541 81.7549 11.4411C81.7549 14.931 79.4179 17.3225 75.8968 17.3225C74.4401 17.3225 73.1002 16.8551 72.2044 15.9515L72.3757 14.8687L72.5627 13.7158ZM78.4753 11.5501C78.4753 10.4284 77.9534 9.54032 76.6914 9.50916C75.1022 9.49358 74.3076 11.1451 74.3154 12.8589C74.3154 14.0118 74.8841 14.8453 76.1227 14.8453C77.7352 14.8453 78.4753 13.2016 78.4753 11.5501ZM71.396 14.7036H67.7814L68.9655 7.19401H65.8106L65.1952 11.0812L65.164 11.6499C65.1017 12.7249 64.9303 13.6597 64.6654 14.4621L64.2448 17.134H71.0143L71.396 14.7036ZM98.1931 32.8255C100.74 32.8255 101.963 33.9395 101.963 35.7078C101.963 37.3359 101.044 38.3642 99.7433 38.7147L101.527 42.7655H98.3411L96.8688 39.3613H96.3546L95.8249 42.7655H92.6855L94.2591 32.8255H98.1931ZM96.674 37.3359H97.5387C98.3878 37.3359 98.8864 36.9776 98.8942 36.1285C98.8942 35.4975 98.5125 35.1937 97.7646 35.1937H97.0246L96.674 37.3359ZM93.2477 32.832H86.2834L86.26 32.9878L85.9017 35.2547H87.7869L86.6028 42.772H89.7733L90.9574 35.2547H92.8659L93.2477 32.832ZM60.7209 36.5941C60.643 35.6671 60.2379 35.1374 59.3187 35.1374C57.8308 35.1374 57.1141 36.672 57.0907 38.4326C57.0752 39.5621 57.5192 40.4658 58.7422 40.4658C59.6225 40.4658 60.2613 39.975 60.5261 38.9623H63.6577C63.2682 41.6265 61.1961 42.9508 58.7188 42.9508C55.7431 42.9508 53.7956 41.4785 53.7956 38.5728C53.7956 35.1374 55.8755 32.6758 59.3966 32.6758C62.0997 32.6758 63.7979 33.9689 63.8914 36.5941H60.7209ZM81.6625 38.0046L79.6994 32.832H76.1549L75.6174 36.2363C75.6564 36.5089 75.672 36.7893 75.672 37.0776C75.672 38.2772 75.4305 39.3756 74.9631 40.3416L74.5736 42.7798H77.3858L78.305 36.8984L80.6809 42.7798H83.6956L85.2692 32.8398H82.4726L81.6625 38.0046ZM102.95 35.5892C103.885 33.7897 105.708 32.6758 107.998 32.6758C110.725 32.6758 112.961 34.1637 112.961 37.0771C112.961 40.567 110.624 42.9586 107.103 42.9586C104.477 42.9586 102.249 41.4395 102.249 38.604C102.249 38.4404 102.257 38.2768 102.265 38.121C102.717 37.451 102.95 36.6331 102.95 35.7295V35.5892ZM105.521 38.4949C105.521 39.6478 106.09 40.4813 107.328 40.4813C108.941 40.4813 109.681 38.8377 109.681 37.1862C109.681 36.0644 109.159 35.1764 107.897 35.1452C106.316 35.1296 105.521 36.7811 105.521 38.4949ZM116.311 40.3416L117.495 32.832H114.341L113.85 35.9324C113.92 36.2986 113.959 36.6803 113.959 37.0776C113.959 38.3941 113.671 39.5937 113.11 40.6142L112.767 42.7798H119.536L119.926 40.3494H116.311V40.3416ZM64.7742 35.3945C65.7323 33.7118 67.5006 32.6758 69.713 32.6758C72.4395 32.6758 74.683 34.1637 74.683 37.0771C74.683 40.567 72.346 42.9586 68.8249 42.9586C66.8385 42.9586 65.0858 42.0939 64.3457 40.4424C64.743 39.492 64.9689 38.3936 64.9689 37.2251C64.9689 36.5864 64.8988 35.9709 64.7742 35.3945ZM67.2436 38.4949C67.2436 39.6478 67.8122 40.4813 69.0509 40.4813C70.6634 40.4813 71.3956 38.8377 71.4034 37.1862C71.4034 36.0644 70.8815 35.1764 69.6195 35.1452C68.0382 35.1296 67.2436 36.7811 67.2436 38.4949ZM24.0492 29.4584C23.8077 29.3338 23.5896 29.1935 23.3948 29.0299L18.8455 32.0914C18.9779 32.6912 18.9156 33.33 18.6196 33.9221C18.5339 34.0856 18.4404 34.2414 18.3236 34.3817L21.7901 39.6087C21.9148 39.5698 22.0316 39.5386 22.164 39.5153L24.1816 29.5207C24.1468 29.5091 24.1164 29.4932 24.0838 29.4762L24.0838 29.4762C24.0726 29.4703 24.0611 29.4644 24.0492 29.4584ZM21.3074 9.71396L21.4164 11.7627C20.8244 11.9575 20.3025 12.347 19.9441 12.9001L15.7064 11.6459L20.4115 8.95833C20.6296 9.27772 20.9335 9.54258 21.3074 9.71396ZM28.0741 19.8308L24.0233 16.9173C24.0155 16.9251 24 16.9329 23.9844 16.9407L25.5891 22.8533C26.0176 22.8455 26.446 22.9234 26.8667 23.0792L28.4091 20.8435C28.2143 20.5397 28.0975 20.1891 28.0741 19.8308ZM17.4259 30.2779C16.6703 29.8962 15.829 29.8962 15.1123 30.2078L13.6633 28.4239C13.9671 27.5981 13.6711 26.6711 12.9622 26.1648L13.7412 21.5453C13.9827 21.4908 14.2164 21.3817 14.4268 21.2337L22.2635 25.4092C22.0531 26.1648 22.1077 26.9438 22.3881 27.6449L17.9556 30.6284C17.7998 30.496 17.6206 30.3792 17.4259 30.2779ZM20.3395 16.6211L15.2682 19.5423C15.2682 19.6047 15.2682 19.6748 15.2604 19.7371L23.1127 23.9203C23.3542 23.671 23.6346 23.4529 23.9385 23.2893L22.3493 17.4313C21.9131 17.4313 21.4612 17.33 21.0484 17.1119C20.7757 16.9794 20.542 16.8158 20.3395 16.6211ZM35.6622 29.4597C36.1296 28.5249 35.9427 27.4187 35.2572 26.702L37.2124 22.9395H37.3916V32.1083V32.2641L35.561 29.6466C35.5765 29.6155 35.5941 29.5843 35.6116 29.5532L35.6116 29.5531C35.6291 29.522 35.6467 29.4908 35.6622 29.4597ZM23.6817 11.9168C25.0294 12.6023 25.6214 14.1915 25.0839 15.5703L28.6751 18.1566C28.9555 17.8606 29.3139 17.658 29.7034 17.549L30.0072 15.1496C28.9088 14.5031 28.4959 13.1009 29.0802 11.948C29.1269 11.8623 29.1736 11.7766 29.2282 11.6909L24.1803 8.80859C23.9154 9.2682 23.5025 9.60317 23.0273 9.77455L23.1286 11.6909C23.3156 11.7532 23.5025 11.8233 23.6817 11.9168ZM12.0289 18.0162L9.98017 16.9256C10.0425 16.3024 9.83216 15.687 9.42708 15.2274L13.6493 12.8125L19.4528 14.5263C19.4528 14.7288 19.4762 14.9236 19.5151 15.1183L14.4984 18.0162C14.3971 17.9461 14.288 17.876 14.1712 17.8137C13.4545 17.4475 12.621 17.5566 12.0289 18.0162ZM32.3436 19.0223L34.813 19.2248C34.8442 19.1391 34.8831 19.0534 34.9221 18.9755C35.3973 18.0329 36.3477 17.4876 37.337 17.4799C37.1968 16.6853 36.7449 16.0231 35.8803 15.509L33.4498 14.1146L33.4264 14.1613C33.0681 14.8702 32.4137 15.322 31.6892 15.4545L31.3932 17.7992C31.8606 18.0875 32.1878 18.5315 32.3436 19.0223ZM29.1173 26.4068C29.1329 25.5499 28.8291 24.7164 28.2682 24.062L29.8106 21.8185C30.7299 22.0054 31.6958 21.5848 32.1632 20.7357L34.7261 20.946C34.8663 21.4757 35.1702 21.9587 35.6064 22.317L33.7134 25.9628C32.8487 25.8849 31.9841 26.2821 31.4855 27.03L29.1173 26.4068ZM32.8911 30.7005L31.263 33.0063C31.3721 33.2945 31.411 33.6061 31.3721 33.9255L34.1142 35.7016L35.8825 34.6889C36.1707 34.5175 36.4044 34.3306 36.6069 34.128L34.1998 30.6771C33.7792 30.8017 33.3274 30.8173 32.8911 30.7005ZM24.7331 41.0564L29.2279 35.5411C29.6408 35.5956 30.0458 35.5177 30.3964 35.3385L32.4374 36.655L24.7331 41.0564ZM13.5312 32.1799C13.5779 31.9384 13.6558 31.6969 13.7727 31.471C13.7883 31.4321 13.8116 31.3931 13.835 31.3542L12.4094 29.6092C11.942 29.7572 11.4123 29.7261 10.9449 29.4924C10.2438 29.134 9.85433 28.4173 9.8777 27.6773L7.43164 26.3997V30.9958C7.84451 30.9725 8.26517 31.0581 8.66246 31.2607C9.16881 31.5178 9.54273 31.9228 9.76864 32.3902L13.5312 32.1799ZM12.0589 21.2107L11.2643 25.8925C11.0618 25.9548 10.867 26.0483 10.6879 26.173L7.43164 24.4747V18.9205C8.06263 19.014 8.69362 18.827 9.16881 18.4375L11.2565 19.5515C11.2409 20.1902 11.5292 20.8134 12.0589 21.2107ZM14.9724 35.1143C14.4193 34.8338 14.0064 34.3976 13.7571 33.8835L9.92448 34.1016C9.87774 34.2574 9.8232 34.4132 9.74531 34.569C9.66741 34.7248 9.57393 34.865 9.47266 34.9896L20.3163 41.1827C20.3553 41.0347 20.4098 40.8867 20.4877 40.7386V40.7309L16.8965 35.309C16.2655 35.4804 15.5878 35.4259 14.9724 35.1143ZM31.4962 29.7036L29.985 31.8536C29.8136 31.8069 29.6344 31.7913 29.4552 31.7913L27.9362 28.9713C28.2244 28.7143 28.4815 28.4104 28.6762 28.0599L31.1145 28.6987C31.1612 29.057 31.2937 29.3998 31.4962 29.7036ZM27.739 33.0056C27.7936 32.8576 27.8637 32.7251 27.9494 32.6005L26.4147 29.7493C26.2356 29.7883 26.0486 29.8195 25.8616 29.835L23.9453 39.3232L27.8325 34.548C27.591 34.0884 27.5443 33.5353 27.739 33.0056Z" fill="white"/>
</svg>
