<svg width="120" height="24" viewBox="0 0 120 24" fill="none" xmlns="http://www.w3.org/2000/svg">
<path d="M101.154 3.75V20.2885H109.327C111.635 20.2885 112.981 19.9038 113.942 19.1346C115.096 18.0769 115.769 16.1538 115.769 12.0192C115.769 7.88461 115.192 6.05769 113.942 4.90385C112.981 4.03846 111.635 3.75 109.327 3.75H101.154ZM112.404 12.0192C112.404 15.6731 112.212 16.4423 111.442 16.9231C110.962 17.3077 110.385 17.4038 109.135 17.4038H104.519V6.53846H109.135C110.288 6.53846 110.962 6.53846 111.442 7.01923C112.115 7.59615 112.404 8.46154 112.404 12.0192ZM120 23.9423H95.9615V0H119.904V23.9423H120ZM76.3462 6.53846V3.75H90.5769V9.03846H87.5962V6.53846H81.8269V10.4808H86.4423V13.1731H81.8269V17.5962H87.6923V14.7115H90.6731V20.3846H76.3462V17.5962H78.6538V6.53846H76.3462ZM63.5577 15.9615C63.5577 17.7885 63.6538 19.0385 63.9423 20.1923H67.2115C67.1154 19.3269 67.0192 17.7885 67.0192 15.7692C66.9231 13.3654 66.1538 12.9808 64.5192 12.6923C66.4423 12.3077 67.3077 11.5385 67.3077 8.46154C67.3077 6.05769 66.9231 5.09615 66.25 4.51923C65.7692 4.03846 64.9038 3.75 63.5577 3.75H53.2692V20.2885H56.6346V13.75H61.3462C62.3077 13.75 62.6923 13.8462 63.0769 14.1346C63.4615 14.4231 63.5577 14.8077 63.5577 15.9615ZM56.6346 11.1538V6.63462H62.0192C62.7885 6.63462 62.9808 6.73077 63.0769 6.82692C63.2692 7.01923 63.5577 7.40385 63.5577 8.84615C63.5577 10.2885 63.3654 10.7692 63.0769 10.9615C62.9808 11.0577 62.6923 11.1538 62.0192 11.1538H56.6346ZM71.9231 23.9423H47.8846V0H71.8269L71.9231 23.9423ZM41.6346 17.5V20.2885H30.1923V17.5H34.2308V6.53846H30.1923V3.75H41.6346V6.53846H37.5961V17.5962H41.6346V17.5ZM22.3077 3.75H19.2308L16.9231 16.8269L14.3269 4.71154C14.2308 3.84615 13.8462 3.75 13.1731 3.75H11.4423C10.6731 3.75 10.3846 3.94231 10.2885 4.71154L7.59615 16.8269L5.28846 3.75H1.92308L5.19231 19.5192C5.28846 20.2885 5.57692 20.3846 6.34615 20.3846H8.65385C9.42308 20.3846 9.61538 20.2885 9.80769 19.5192L12.3077 8.07692L14.8077 19.5192C14.9038 20.2885 15.1923 20.3846 15.9615 20.3846H18.2692C19.0385 20.3846 19.3269 20.2885 19.4231 19.5192L22.3077 3.75ZM24.0385 23.9423H0V0H23.9423L24.0385 23.9423Z" fill="white"/>
</svg>
