<?xml version="1.0" encoding="UTF-8"?>
<svg width="150px" height="100px" viewBox="0 0 150 100" version="1.1" xmlns="http://www.w3.org/2000/svg" xmlns:xlink="http://www.w3.org/1999/xlink">
    <title>DDG</title>
    <g id="DDG" stroke="none" stroke-width="1" fill="none" fill-rule="evenodd">
        <rect fill="#FFFFFF" x="0" y="0" width="150" height="100"></rect>
        <g id="duckduckgo-vertical" transform="translate(18.000000, 5.000000)">
            <circle id="Oval" fill="#DE5833" fill-rule="nonzero" cx="56.5243902" cy="32.9268293" r="32.9268293"></circle>
            <path d="M84.402439,21.1280488 C82.8658537,17.5060976 80.6707317,14.2682927 77.9268293,11.5243902 C75.1280488,8.72560976 71.8902439,6.58536585 68.3231707,5.04878049 C64.5914634,3.45731707 60.6402439,2.68902439 56.5243902,2.68902439 C52.4634146,2.68902439 48.4573171,3.51219512 44.7256098,5.04878049 C41.1036585,6.5304878 37.8658537,8.72560976 35.1219512,11.5243902 C32.3231707,14.3231707 30.1829268,17.5609756 28.6463415,21.1280488 C27.054878,24.8597561 26.2865854,28.8109756 26.2865854,32.9268293 C26.2865854,37.0426829 27.1097561,40.9939024 28.6463415,44.7256098 C30.1829268,48.347561 32.3780488,51.5853659 35.1219512,54.3292683 C37.9207317,57.1280488 41.1585366,59.2682927 44.7256098,60.804878 C48.4573171,62.3963415 52.4085366,63.1646341 56.5243902,63.1646341 C60.5853659,63.1646341 64.5914634,62.3414634 68.3231707,60.804878 C71.8902439,59.2682927 75.1280488,57.0731707 77.9268293,54.3292683 C80.7256098,51.5304878 82.8658537,48.2926829 84.402439,44.7256098 C85.9939024,40.9939024 86.7621951,37.0426829 86.7621951,32.9268293 C86.7621951,28.8109756 85.9939024,24.8597561 84.402439,21.1280488 Z M63.1097561,60.0914634 C61.3536585,57.1280488 56.7439024,48.8414634 56.7439024,42.695122 C56.7439024,28.5365854 66.2378049,40.6646341 66.2378049,29.3597561 C66.2378049,26.6707317 64.9207317,17.2317073 56.6890244,15.2560976 C54.6585366,12.5670732 49.8841463,9.98780488 42.3109756,11.0304878 C42.3109756,11.0304878 43.5731707,11.4146341 45,12.1280488 C45,12.1280488 42.2560976,12.5121951 42.1463415,14.3780488 C42.1463415,14.3780488 47.5792683,14.1036585 50.652439,15.0914634 C43.5731707,16.0243902 39.9512195,19.7560976 40.6097561,26.5060976 C41.5426829,36.1097561 45.6036585,53.2317073 47.0304878,59.2134146 C36.2743902,55.3719512 28.5365854,45.054878 28.5365854,32.9268293 C28.5365854,17.5060976 41.0487805,4.93902439 56.5243902,4.93902439 C72,4.93902439 84.5121951,17.4512195 84.5121951,32.9268293 C84.4573171,46.097561 75.347561,57.1280488 63.1097561,60.0914634 Z" id="Shape" fill="#FFFFFF" fill-rule="nonzero"></path>
            <path d="M54.9878049,37.4817073 C54.9878049,33.8597561 59.9268293,32.7073171 61.7926829,32.7073171 C66.8414634,32.7073171 73.9756098,29.4695122 75.7317073,29.5243902 C77.5426829,29.5792683 78.695122,30.2926829 78.695122,31.1158537 C78.695122,32.3231707 68.597561,36.8780488 64.7012195,36.4939024 C60.9695122,36.1646341 60.0914634,36.5487805 60.0914634,38.0853659 C60.0914634,39.402439 62.7804878,40.6097561 65.7439024,40.6097561 C70.1890244,40.6097561 74.5243902,38.6341463 75.8414634,39.5670732 C76.9939024,40.3902439 72.8231707,43.3536585 68.0487805,43.3536585 C63.2743902,43.3536585 54.9878049,41.1036585 54.9878049,37.4817073 L54.9878049,37.4817073 Z" id="Path" fill="#FED30A"></path>
            <path d="M63.7682927,22.1158537 C62.4512195,20.4146341 60.0914634,20.3597561 59.2682927,22.3353659 C60.5304878,21.347561 62.0670732,21.1280488 63.7682927,22.1158537 Z" id="Path" fill="#2D4F8D" fill-rule="nonzero"></path>
            <path d="M49.1158537,22.1707317 C47.304878,21.0731707 44.2865854,20.9634146 44.4512195,24.4207317 C45.3292683,22.2804878 46.5365854,21.8963415 49.1158537,22.1707317 Z" id="Path" fill="#2D4F8D" fill-rule="nonzero"></path>
            <path d="M62.6707317,25.3536585 C61.6829268,25.3536585 60.8597561,26.1768293 60.8597561,27.1646341 C60.8597561,28.152439 61.6829268,28.9756098 62.6707317,28.9756098 C63.6585366,28.9756098 64.4817073,28.152439 64.4817073,27.1646341 C64.4817073,26.1768293 63.6585366,25.3536585 62.6707317,25.3536585 Z M63.3292683,27.054878 C63.054878,27.054878 62.7804878,26.8353659 62.7804878,26.5060976 C62.7804878,26.2317073 63,25.9573171 63.3292683,25.9573171 C63.6585366,25.9573171 63.8780488,26.1768293 63.8780488,26.5060976 C63.8231707,26.7804878 63.6036585,27.054878 63.3292683,27.054878 Z" id="Shape" fill="#2D4F8D" fill-rule="nonzero"></path>
            <path d="M48.6219512,26.3414634 C47.4695122,26.3414634 46.5365854,27.2743902 46.5365854,28.4268293 C46.5365854,29.5792683 47.4695122,30.5121951 48.6219512,30.5121951 C49.7743902,30.5121951 50.7073171,29.5792683 50.7073171,28.4268293 C50.7073171,27.2743902 49.7743902,26.3414634 48.6219512,26.3414634 Z M49.3902439,28.2621951 C49.0609756,28.2621951 48.7865854,27.9878049 48.7865854,27.6585366 C48.7865854,27.3292683 49.0609756,27.054878 49.3902439,27.054878 C49.7195122,27.054878 49.9939024,27.3292683 49.9939024,27.6585366 C49.9939024,27.9878049 49.7195122,28.2621951 49.3902439,28.2621951 Z" id="Shape" fill="#2D4F8D" fill-rule="nonzero"></path>
            <path d="M44.0670732,17.4512195 C41.4329268,19.3719512 40.2256098,22.3353659 40.6097561,26.5060976 C41.5426829,36.1097561 45.6036585,53.2865854 47.0304878,59.2682927 C47.5243902,59.4329268 48.0182927,59.597561 48.5121951,59.7621951 C47.6341463,56.1402439 43.4085366,38.4695122 41.5426829,24.9146341 C41.0487805,21.2926829 42.4756098,19.152439 44.0670732,17.4512195 Z" id="Path" fill="#D5D7D8" fill-rule="nonzero"></path>
            <path d="M50.597561,15.0914634 C50.8170732,15.0914634 50.9817073,15.0365854 50.9817073,15.0365854 C48.1280488,13.6646341 43.6280488,13.6097561 42.4207317,13.6097561 C42.3109756,13.8292683 42.2012195,14.1036585 42.2012195,14.3780488 C42.1463415,14.4329268 47.4695122,14.1036585 50.597561,15.0914634 L50.597561,15.0914634 Z" id="Path" fill="#D5D7D8" fill-rule="nonzero"></path>
            <path d="M45.4390244,12.1280488 C44.5609756,11.5243902 43.847561,11.1402439 43.4085366,10.9207317 C43.0243902,10.9756098 42.695122,10.9756098 42.3109756,11.0304878 C42.3109756,11.0304878 43.5731707,11.4146341 45,12.1280488 C45,12.1280488 44.945122,12.1280488 44.8902439,12.1280488 L45.4390244,12.1280488 Z" id="Path" fill="#D5D7D8" fill-rule="nonzero"></path>
            <path d="M67.554878,48.6219512 C66.6219512,48.402439 63,50.9817073 61.6280488,51.9695122 C61.5731707,51.695122 61.5182927,51.4756098 61.4634146,51.3658537 C61.2987805,50.8170732 57.7865854,51.1463415 56.9634146,52.0243902 C54.7682927,50.9817073 50.3780488,48.9512195 50.3231707,50.2134146 C50.1585366,51.8597561 50.3231707,58.7195122 51.2012195,59.2134146 C51.8597561,59.597561 55.5914634,57.5670732 57.4573171,56.5243902 L57.5121951,56.5243902 C58.6646341,56.7987805 60.804878,56.5243902 61.5731707,56.0304878 C61.6829268,55.9756098 61.7378049,55.8658537 61.7926829,55.7560976 C63.4939024,56.4146341 67.1707317,57.7317073 67.9390244,57.4573171 C68.9268293,57.1829268 68.7073171,48.8963415 67.554878,48.6219512 L67.554878,48.6219512 Z" id="Path" fill="#67BD47" fill-rule="nonzero"></path>
            <path d="M57.5121951,56.5243902 C56.3597561,56.304878 56.7439024,55.152439 56.7439024,52.4634146 C56.4695122,52.6280488 56.25,52.847561 56.25,53.0670732 C56.25,55.7560976 55.8109756,56.9634146 57.0182927,57.1280488 C58.1707317,57.402439 60.3109756,57.1280488 61.1890244,56.6341463 C61.3536585,56.5243902 61.4085366,56.3597561 61.4634146,56.0853659 C60.6402439,56.5792683 58.6097561,56.7987805 57.5121951,56.5243902 L57.5121951,56.5243902 Z" id="Path" fill="#43A347" fill-rule="nonzero"></path>
            <g id="Group" transform="translate(0.000000, 74.634146)" fill="#4C4C4C" fill-rule="nonzero">
                <path d="M0.274390244,14.0487805 L0.274390244,0.548780488 L5.15853659,0.548780488 C9.82317073,0.548780488 11.9634146,3.95121951 11.9634146,7.13414634 C11.9634146,10.5914634 9.87804878,14.0487805 5.15853659,14.0487805 L0.274390244,14.0487805 Z M1.81097561,12.4573171 L5.15853659,12.4573171 C8.7804878,12.4573171 10.3719512,9.76829268 10.3719512,7.07926829 C10.3719512,4.6097561 8.72560976,1.97560976 5.15853659,1.97560976 L1.81097561,1.97560976 L1.81097561,12.4573171 Z" id="Shape"></path>
                <path d="M18.1097561,14.2134146 C15.5853659,14.2134146 13.9939024,12.5121951 13.9939024,9.82317073 L13.9939024,4.55487805 L15.4756098,4.55487805 L15.4756098,9.76829268 C15.4756098,11.6890244 16.5731707,12.8414634 18.4390244,12.8414634 C20.195122,12.8414634 21.4573171,11.4695122 21.4573171,9.65853659 L21.4573171,4.55487805 L22.9390244,4.55487805 L22.9390244,14.0487805 L21.6219512,14.0487805 L21.5121951,12.402439 L21.2926829,12.6768293 C20.4695122,13.6646341 19.4268293,14.1585366 18.1097561,14.2134146 Z" id="Path"></path>
                <path d="M30.0182927,14.2134146 C27.5487805,14.2134146 25.0792683,12.6768293 25.0792683,9.32926829 C25.0792683,6.36585366 27.054878,4.44512195 30.0182927,4.44512195 C31.3353659,4.44512195 32.4329268,4.88414634 33.4207317,5.81707317 L32.4878049,6.75 C31.8292683,6.14634146 30.9512195,5.81707317 30.0731707,5.81707317 C27.9878049,5.81707317 26.5609756,7.24390244 26.5609756,9.32926829 C26.5609756,11.7439024 28.3170732,12.8414634 30.0731707,12.8414634 C31.0609756,12.8414634 31.9390244,12.5121951 32.597561,11.8536585 L33.5304878,12.7865854 C32.5426829,13.7195122 31.3353659,14.2134146 30.0182927,14.2134146 L30.0182927,14.2134146 Z" id="Path"></path>
                <polygon id="Path" points="41.4878049 14.0487805 36.8231707 9.38414634 36.8231707 14.0487805 35.3963415 14.0487805 35.3963415 0.548780488 36.8231707 0.548780488 36.8231707 8.72560976 40.8841463 4.55487805 42.804878 4.55487805 38.304878 9 43.3536585 13.9939024 43.3536585 14.0487805"></polygon>
                <path d="M45.1097561,14.0487805 L45.1097561,0.548780488 L49.9939024,0.548780488 C54.6585366,0.548780488 56.7987805,3.95121951 56.7987805,7.13414634 C56.7987805,10.5914634 54.7134146,14.0487805 49.9939024,14.0487805 L45.1097561,14.0487805 Z M46.7012195,12.4573171 L50.0487805,12.4573171 C53.6707317,12.4573171 55.2621951,9.76829268 55.2621951,7.07926829 C55.2621951,4.6097561 53.6158537,1.97560976 50.0487805,1.97560976 L46.7012195,1.97560976 L46.7012195,12.4573171 Z" id="Shape"></path>
                <path d="M62.945122,14.2134146 C60.4207317,14.2134146 58.8292683,12.5121951 58.8292683,9.82317073 L58.8292683,4.55487805 L60.3109756,4.55487805 L60.3109756,9.76829268 C60.3109756,11.6890244 61.4085366,12.8414634 63.2743902,12.8414634 C65.0304878,12.8414634 66.2926829,11.4695122 66.2926829,9.65853659 L66.2926829,4.55487805 L67.7743902,4.55487805 L67.7743902,14.0487805 L66.4573171,14.0487805 L66.402439,12.402439 L66.1829268,12.6768293 C65.3597561,13.6646341 64.2621951,14.1585366 62.945122,14.2134146 L62.945122,14.2134146 Z" id="Path"></path>
                <path d="M74.8536585,14.2134146 C72.3841463,14.2134146 69.9146341,12.6768293 69.9146341,9.32926829 C69.9146341,6.36585366 71.8902439,4.44512195 74.8536585,4.44512195 C76.1707317,4.44512195 77.2682927,4.88414634 78.2560976,5.81707317 L77.3231707,6.75 C76.6646341,6.14634146 75.7865854,5.81707317 74.9085366,5.81707317 C72.8231707,5.81707317 71.3963415,7.24390244 71.3963415,9.32926829 C71.3963415,11.7439024 73.152439,12.8414634 74.9085366,12.8414634 C75.8963415,12.8414634 76.7743902,12.5121951 77.4329268,11.8536585 L78.3658537,12.7865854 L78.3109756,12.8414634 C77.3780488,13.7743902 76.2256098,14.2134146 74.8536585,14.2134146 L74.8536585,14.2134146 Z" id="Path"></path>
                <polygon id="Path" points="86.3231707 14.0487805 81.7134146 9.38414634 81.7134146 14.0487805 80.2865854 14.0487805 80.2865854 0.548780488 81.7134146 0.548780488 81.7134146 8.72560976 85.7743902 4.55487805 87.6402439 4.55487805 83.195122 9 88.1890244 13.9939024 88.1890244 14.0487805"></polygon>
                <path d="M95.8170732,14.2682927 C90.6036585,14.2682927 88.7926829,10.5365854 88.7926829,7.40853659 C88.7926829,5.32317073 89.5060976,3.51219512 90.7682927,2.19512195 C92.0304878,0.932926829 93.7865854,0.274390244 95.8170732,0.274390244 C97.6829268,0.274390244 99.3841463,0.987804878 100.70122,2.25 L99.8231707,3.29268293 C98.7804878,2.30487805 97.2439024,1.70121951 95.8170732,1.70121951 C92.0304878,1.70121951 90.3292683,4.66463415 90.3292683,7.40853659 C90.3292683,10.097561 92.0304878,12.8414634 95.8719512,12.8414634 C97.2439024,12.8414634 98.5609756,12.347561 99.6036585,11.4695122 L99.6585366,11.4146341 L99.6585366,8.06707317 L95.4329268,8.06707317 L95.4329268,6.69512195 L101.085366,6.69512195 L101.085366,11.9634146 C99.6036585,13.554878 97.902439,14.2682927 95.8170732,14.2682927 Z" id="Path"></path>
                <path d="M107.780488,14.2134146 C104.926829,14.2134146 102.896341,12.1829268 102.896341,9.32926829 C102.896341,6.47560976 104.981707,4.33536585 107.780488,4.33536585 C110.689024,4.33536585 112.719512,6.36585366 112.719512,9.32926829 C112.664634,12.1280488 110.634146,14.2134146 107.780488,14.2134146 Z M107.780488,5.65243902 C105.75,5.65243902 104.323171,7.13414634 104.323171,9.27439024 C104.323171,11.304878 105.75,12.7865854 107.780488,12.7865854 C109.810976,12.7865854 111.237805,11.3597561 111.292683,9.27439024 C111.237805,7.18902439 109.810976,5.65243902 107.780488,5.65243902 Z" id="Shape"></path>
                <path d="M113.724739,14.4135581 C113.867596,14.3547346 113.939024,14.295911 113.939024,14.178264 C113.939024,14.0606169 113.867596,14.0017934 113.796167,13.9429699 C113.724739,13.8841463 113.581882,13.8841463 113.367596,13.8841463 C113.15331,13.8841463 113.010453,13.8841463 112.939024,13.9429699 L112.939024,14.8841463 L113.224739,14.8841463 L113.224739,14.4723816 L113.367596,14.4723816 C113.510453,14.4723816 113.581882,14.5312052 113.581882,14.6488522 C113.65331,14.7664993 113.65331,14.8253228 113.65331,14.8841463 L113.939024,14.8841463 C113.939024,14.8253228 113.867596,14.7664993 113.867596,14.6488522 C113.867596,14.5312052 113.796167,14.4723816 113.724739,14.4135581 L113.724739,14.4135581 Z M113.367596,14.3547346 L113.224739,14.3547346 L113.224739,14.0606169 L113.367596,14.0606169 C113.510453,14.0606169 113.581882,14.1194405 113.581882,14.178264 C113.65331,14.295911 113.581882,14.3547346 113.367596,14.3547346 Z" id="Shape"></path>
                <path d="M113.323171,13.445122 C112.829268,13.445122 112.390244,13.8292683 112.390244,14.3231707 C112.390244,14.8170732 112.77439,15.2560976 113.323171,15.2560976 C113.817073,15.2560976 114.256098,14.8719512 114.256098,14.3231707 C114.256098,13.8292683 113.871951,13.445122 113.323171,13.445122 Z M113.323171,15.0914634 C112.939024,15.0914634 112.609756,14.7621951 112.609756,14.3780488 C112.609756,13.9939024 112.884146,13.6646341 113.323171,13.6646341 C113.707317,13.6646341 114.036585,13.9939024 114.036585,14.3780488 C114.036585,14.7621951 113.707317,15.0914634 113.323171,15.0914634 Z" id="Shape"></path>
            </g>
        </g>
    </g>
</svg>