<svg fill="none" height="900" viewBox="0 0 1440 900" width="1440" xmlns="http://www.w3.org/2000/svg" xmlns:xlink="http://www.w3.org/1999/xlink"><radialGradient id="a" cx="0" cy="0" gradientTransform="matrix(-999.00217279 507.37093961 -983.21175898 -1935.9222353 1146 502.875)" gradientUnits="userSpaceOnUse" r="1"><stop offset="0" stop-color="#2fd8a0"/><stop offset="1" stop-color="#099869"/></radialGradient><linearGradient id="b"><stop offset="0" stop-color="#fff" stop-opacity=".4"/><stop offset="1" stop-color="#fff"/></linearGradient><linearGradient id="c" gradientUnits="userSpaceOnUse" x1="913.008" x2="1253.78" xlink:href="#b" y1="912.661" y2="474.883"/><linearGradient id="d" gradientUnits="userSpaceOnUse" x1="144" x2="633.417" xlink:href="#b" y1="39.4914" y2="618.786"/><mask id="e" height="900" maskUnits="userSpaceOnUse" width="1440" x="0" y="0"><path d="m0 0h1440v900h-1440z" fill="#c4c4c4"/></mask><g mask="url(#e)"><path d="m0 0h1440v900h-1440z" fill="url(#a)"/><path d="m1331.78 548.326c-65.88-66.878-131.03-91.565-195.63-73.694-64.59 17.871-133.25 30.951-205.781 39.611-72.531 8.659-105.752 51.954-99.661 129.887 6.09 77.932 35.619 151.995 88.588 222.005 52.968 70.01 126.424 94.514 220.544 73.695 94.13-20.819 166.11-74.616 215.94-161.207 49.83-86.592 41.89-163.419-24-230.297z" fill="url(#c)" fill-opacity=".25"/><path d="m750.884 451.144c-8.037 104.721-65.905 172.001-173.805 201.838s-193.497 8.385-257.192-64.354c-63.695-72.74-135.026-140.02-213.991-201.839-78.9664-61.819-91.0223-135.144-36.1681-220.364 54.8541-85.2207 126.1851-127.7335 213.9921-127.7335 87.806 0 189.277-13.2609 304.41-39.97763 115.134-26.71677 173.203 15.99103 173.805 127.73313.603 111.743-3.013 220.17-11.051 324.697z" fill="url(#d)" fill-opacity=".25"/><path d="m0 0h1440v911h-1440z" fill="#000" fill-opacity=".3"/></g></svg>