<svg fill="none" height="28" viewBox="0 0 90 28" width="90" xmlns="http://www.w3.org/2000/svg" xmlns:xlink="http://www.w3.org/1999/xlink"><linearGradient id="a" gradientUnits="userSpaceOnUse" x1="-.004656" x2="23.2616" y1="13.9865" y2="13.9865"><stop offset="0" stop-color="#f50"/><stop offset=".4099" stop-color="#f50"/><stop offset=".582" stop-color="#ff2000"/><stop offset="1" stop-color="#ff2000"/></linearGradient><linearGradient id="b" gradientUnits="userSpaceOnUse" x1="2.39828" x2="21.2941" y1="2.59034" y2="2.59034"><stop offset="0" stop-color="#ff452a"/><stop offset="1" stop-color="#ff2000"/></linearGradient><g clip-rule="evenodd" fill-rule="evenodd"><g fill="#3b3e4f"><path d="m29.5928 15.153v-9.53581h.9059c.7152 0 1.335.61982 1.335 1.33501v4.2434c1.4304-1.28731 2.67-1.81177 4.2911-1.85945 3.1468-.04768 5.8645 2.28855 6.1029 5.48305.2861 3.8143-2.3839 6.6274-5.9599 6.6274-3.862 0-6.675-2.4316-6.675-6.2936zm2.1932.7628c.2384 1.9549 2.0502 3.6236 4.0527 3.6236 2.527.0477 4.2911-1.6687 4.2911-4.148s-1.7164-4.1481-4.1957-4.1481c-2.67 0-4.4342 1.9548-4.1481 4.6725z"/><path d="m45.9468 9.57416v1.71644c1.3827-1.5734 2.2409-2.00251 3.862-2.00251.4768 0 .9536.04767 1.4304.09535v2.24096c-.5245-.1431-1.0013-.1908-1.5258-.1908-1.1919 0-2.1932.3815-2.9084 1.1443-.6198.6675-.8105 1.1443-.8105 2.1933v6.2936h-2.3363v-11.49064z"/><path d="m51.7641 13.3885c.0953-1.0966.3337-1.7165.8105-2.2886.9536-1.19199 2.67-1.81181 5.1017-1.81181 1.9071 0 3.3375.28607 4.2911.95361.8105.5244 1.1443 1.335 1.1443 2.7177v5.1016c0 1.0966.286 1.5257 1.0489 1.4781.1907 0 .3338 0 .5245-.0477v1.5257c-.3815.143-.8106.1907-1.192.1907-1.4304 0-2.0979-.4291-2.5747-1.7164-1.4303 1.335-2.9084 1.9071-5.0063 1.9071-2.813 0-4.5771-1.2873-4.5771-3.4328 0-1.192.6675-2.2886 1.7641-2.8131.8582-.3814 1.3827-.4768 3.8143-.7629 2.0979-.1907 2.4316-.2384 3.0515-.4291.6198-.1907.9059-.5721.9059-1.1443 0-1.2396-1.0013-1.8118-3.1469-1.8118-2.0025 0-3.0514.4291-3.4805 1.4304-.1907.5245-.7152.8582-1.2874.9059zm9.1543 1.9548c-1.478.4291-2.9561.7152-4.4818.8582-2.0502.1908-2.7177.6199-2.7177 1.6688 0 1.1443.9536 1.7641 2.8131 1.7641 1.5257 0 2.7177-.3814 3.5282-1.1443.6675-.6198.8106-1.0489.8106-2.1932v-.9536z"/><path d="m70.2644 21.0648h-.5722c-.5244 0-1.0012-.286-1.2396-.7628l-5.0063-10.72778h1.3827c.8105 0 1.5257.47678 1.8595 1.23968l3.3375 7.6763 3.4329-7.724c.3337-.7152 1.0489-1.19198 1.8595-1.19198h1.2396l-5.054 10.72778c-.2384.4768-.7151.7628-1.2396.7628z"/><path d="m78.1307 16.0108c.2384 2.1933 1.9549 3.5759 4.4819 3.5759 1.4303 0 2.5269-.4291 3.1944-1.2873.3815-.4768 1.0013-.8105 1.6211-.8105h1.335c-1.1443 2.6223-3.2421 3.9096-6.3413 3.9096-3.862 0-6.4843-2.3839-6.4843-6.0075s2.67-6.10291 6.532-6.10291c2.8131 0 5.054 1.28731 5.9599 3.43291.3814 1.0012.5721 1.8595.5721 3.2898zm8.4869-1.8118c-.5245-2.0502-2.0502-3.1468-4.1958-3.1468-2.1455 0-3.6712 1.1443-4.2434 3.1468z"/></g><path d="m22.4568 6.76375.6198-1.62109s-.8105-.9059-1.8118-1.90715c-1.0012-1.00126-3.0991-.42911-3.0991-.42911l-2.384-2.7653844h-4.1957-4.14808l-2.38395 2.7653844s-2.09787-.57215-3.09913.42911c-1.001261 1.00125-1.811803 1.90715-1.811803 1.90715l.667505 1.62109-.810542 2.38395s2.38395 9.2497 2.67002 10.394c.57215 2.2409.95358 3.0991 2.47931 4.1958 1.52572 1.0966 4.43414 3.0991 4.86327 3.3852.4768.286 1.0489.8105 1.5734.8105s1.0966-.5245 1.5734-.8105c.4768-.2861 3.3375-2.2409 4.8632-3.3852 1.5258-1.1443 1.9549-2.0026 2.4794-4.1958.286-1.1443 2.67-10.394 2.67-10.394z" fill="url(#a)"/><path d="m11.6336 17.3961c.143 0 1.1919.3814 2.0025.8105.8105.4291 1.4304.7152 1.6211.8582.1907.1431.0953.3338-.0954.4768-.1907.1431-2.4793 1.9549-2.7177 2.1456s-.5721.5244-.7629.5244c-.1907 0-.5721-.3337-.7628-.5244-.2384-.1907-2.527-2.0502-2.71772-2.1456-.19071-.143-.28607-.3337-.09536-.4768.19072-.143.76287-.4291 1.62109-.8582.71519-.4768 1.76409-.8105 1.90719-.8105zm0-13.06407c.0953 0 .5244.04768 1.1443.2384.7151.23839 1.4303.52446 1.8118.52446.3814 0 2.9561-.52446 2.9561-.52446s3.0514 3.76663 3.0514 4.57718c0 .81054-.3814 1.00129-.7629 1.43039-.3814.4291-2.0978 2.2409-2.2885 2.4793-.2384.2384-.6675.5721-.3815 1.2396.2861.6199.6675 1.4781.2384 2.2886-.4291.8106-1.192 1.3827-1.6687 1.2874-.4768-.0954-1.6211-.7152-2.0026-.9536-.4291-.2861-1.7164-1.3827-1.7164-1.8118s1.335-1.192 1.6211-1.335c.2384-.1908 1.3827-.8583 1.4304-1.0967 0-.2383 0-.3337-.3338-1.0012s-.9536-1.5257-.8582-2.09788c.0953-.57215 1.0966-.85822 1.7641-1.1443.7152-.28607 2.0502-.76286 2.1932-.85822.1907-.09536.1431-.14304-.3814-.19072-.5245-.04767-1.9548-.23839-2.6223-.04767-.6675.19071-1.7642.47679-1.8595.61982-.0954.14304-.1907.14304-.0954.66751.0954.52447.5722 3.00376.6198 3.43286.0477.4291.1431.7152-.3337.8582-.4768.0954-1.2397.2861-1.5257.2861-.2861 0-1.049-.1907-1.5258-.2861-.47675-.0953-.38139-.3814-.33371-.8582.04768-.4291.52451-2.90839.61981-3.43286.0954-.52447 0-.52447-.0953-.66751-.0954-.14303-1.19202-.42911-1.85952-.61982-.66751-.19072-2.09788 0-2.62235.04767-.52447.04768-.57214.14304-.38143.19072.19072.09536 1.52573.57215 2.19323.85822.71519.28608 1.66877.57215 1.76413 1.1443.09535.57218-.52447 1.43038-.85823 2.09788-.33375.6675-.33375.7152-.33375 1.0012 0 .2384 1.1443.9059 1.43037 1.0967.23839.1907 1.62105.9535 1.62105 1.335 0 .4291-1.33498 1.5257-1.71641 1.8118-.42911.286-1.52572.8582-2.00251.9536-.47679.0953-1.23966-.4768-1.66877-1.2874-.42911-.8105-.04768-1.6687.2384-2.2886.28607-.6198-.19072-1.0012-.38144-1.2396-.23839-.2384-1.90715-2.0502-2.28858-2.4793-.38144-.4291-.76287-.61985-.76287-1.43039 0-.81055 3.05145-4.57718 3.05145-4.57718s2.57467.52446 2.9561.52446 1.09662-.28607 1.81183-.52446c.6198-.2384 1.0489-.2384 1.1443-.2384z" fill="#fff"/><path d="m18.2136 2.85425-2.3839-2.7653828h-4.1958-4.19574l-2.38395 2.7653828s-2.09787-.57215-3.09913.42911c0 0 2.81306-.2384 3.76664 1.33501 0 0 2.57466.52447 2.95609.52447s1.09662-.28608 1.81179-.52447c.7152-.2384 1.1443-.2384 1.1443-.2384s.4768 0 1.1443.2384c.7152.23839 1.4304.52447 1.8118.52447s2.9561-.52447 2.9561-.52447c.9536-1.57341 3.7666-1.33501 3.7666-1.33501-1.0012-1.04894-3.0991-.42911-3.0991-.42911z" fill="url(#b)"/></g></svg>