<svg fill="none" height="23" viewBox="0 0 89 23" width="89" xmlns="http://www.w3.org/2000/svg"><path d="m17.3067 20.1408h5.104v-6.3243h1.509l3.687 6.3243h5.9044l-4.4874-7.2953c2.1257-1.1022 3.6083-3.31962 3.6083-5.90447 0-3.68701-3.0047-6.665488-6.6655-6.665488h-8.6598v2.584848c-1.8764-1.75822-4.3431-2.86039-7.0985-2.86039-5.61584 0-10.2082 4.53988-10.2082 10.2082 0 5.6683 4.59236 10.2213 10.2213 10.2213 2.7554 0 5.2222-1.1022 7.0985-2.8604v2.5717zm-3.464-6.3243c-.9316.9315-2.2175 1.5089-3.6345 1.5089-2.80793 0-5.10412-2.2962-5.10412-5.1041 0-2.80791 2.29619-5.10409 5.10412-5.10409 1.417 0 2.6898.5642 3.6345 1.50892l3.464-3.46396v14.11823zm8.568-4.4612v-4.6186h2.7817c1.2727 0 2.3224 1.04968 2.3224 2.32242s-1.0497 2.29618-2.3224 2.29618z" fill="#00ae4d"/><g fill="#000"><path d="m71.2604 18.8285-.3805.5248c.5773.5117 1.3515.8529 2.3487.8529 1.1677 0 2.0993-.6298 2.0993-1.7451 0-.8791-.433-1.2596-1.8107-1.732l-.5248-.1837c-.7742-.2624-1.194-.5117-1.194-1.089 0-.7086.656-.9841 1.2727-.9841.5773 0 1.2071.3149 1.6533.7085l.4067-.5511c-.5773-.4723-1.2203-.7479-2.06-.7479-1.0628 0-1.9288.5642-1.9288 1.6139 0 .8004.4855 1.3121 1.6533 1.7189l.5904.2099c.8791.3149 1.2859.4855 1.2859 1.0366 0 .8004-.6954 1.1546-1.4433 1.1546-.7742 0-1.4696-.328-1.9682-.7872z"/><path d="m70.4744 19.7992-.1837-.538c-.3674.2231-.7217.328-1.1547.328-.6035 0-.8922-.3673-.8922-1.0234v-4.0019h2.1781v-.6298h-2.1781v-2.1519h-.6823v6.7836c0 1.0234.5117 1.6401 1.5352 1.6401.5117 0 .9578-.1443 1.3777-.4067z"/><path d="m64.3977 20.1405v-3.6607c.1443-1.3777 1.299-2.0469 2.4667-1.8895v-.6954c-1.0365-.1574-1.9944.3674-2.4667 1.2728l-.0131-1.2334h-.6561v6.2194h.6692z"/><path d="m59.7803 13.8691c-1.7451 0-3.1621 1.4302-3.1621 3.1753s1.417 3.1753 3.1621 3.1753 3.1753-1.4302 3.1753-3.1753c0-1.7582-1.417-3.1753-3.1753-3.1753zm0 5.6683c-1.3777 0-2.493-1.1284-2.493-2.5061s1.1153-2.5061 2.493-2.5061c1.3909 0 2.5062 1.1284 2.5062 2.5061s-1.1153 2.5061-2.5062 2.5061z"/><path d="m52.8644 13.8691c-1.0365 0-1.9419.5642-2.4667 1.4434v-1.3778h-.6692v8.7387h.6692v-3.9101c.5248.8791 1.4564 1.4564 2.5061 1.4564 1.6926 0 3.0966-1.4302 3.0966-3.1753 0-1.7582-1.4171-3.1753-3.136-3.1753zm0 5.6683c-1.3645 0-2.4667-1.1284-2.4667-2.5061s1.1022-2.5061 2.4667-2.5061c1.3646 0 2.4668 1.1284 2.4668 2.5061s-1.1022 2.5061-2.4668 2.5061z"/><path d="m48.9683 16.7689c0-1.732-1.2727-2.8998-2.8472-2.8998-1.6139 0-2.9785 1.2859-2.9785 3.1491 0 1.8369 1.4302 3.2015 3.0965 3.2015.9972 0 1.8501-.4199 2.4537-1.1809l-.4855-.4067c-.4592.6167-1.1415.9447-1.9682.9447-1.2858 0-2.3224-.9972-2.4142-2.3749h5.1434zm-5.1303-.1837c.1837-1.2596 1.1284-2.0994 2.2699-2.0994 1.1416 0 2.0863.8398 2.165 2.0994z"/><path d="m40.5963 16.3747c1.522-.2362 2.4274-1.3384 2.4274-2.6242 0-1.5352-1.0497-2.6636-2.9654-2.6636h-3.031v9.0667h.7086v-3.7264h2.0206l2.5586 3.7264h.866zm-2.8604-.6298v-3.9888h2.3093c1.4302 0 2.2568.8004 2.2568 1.9944 0 1.0628-.7217 1.9944-2.2831 1.9944z"/><path d="m86.5334 9.35538v-3.66077c.1444-1.37771 1.299-2.04688 2.4668-1.88943v-.69542c-1.0366-.15745-1.9944.36739-2.4668 1.27275l-.0131-1.23338h-.656v6.21937h.6691z"/><path d="m85.0904 5.98373c0-1.73197-1.2727-2.89975-2.8473-2.89975-1.6139 0-2.9785 1.28587-2.9785 3.14905 0 1.83695 1.4302 3.20154 3.0966 3.20154.9972 0 1.8501-.41988 2.4536-1.1809l-.4854-.40675c-.4593.61669-1.1416.94472-1.9682.94472-1.2859 0-2.3224-.9972-2.4143-2.37491h5.1435zm-5.1303-.18369c.1837-1.25962 1.1284-2.09937 2.2699-2.09937s2.0862.83975 2.165 2.09937z"/><path d="m69.923 6.20624c.0262-1.64013.8528-2.50612 2.0075-2.50612.9709 0 1.6139.61669 1.6007 1.73198v3.92319h.6692v-3.14905c.0263-1.64013.8529-2.50612 2.0075-2.50612.971 0 1.6139.61669 1.6008 1.73198v3.92319h.6692v-3.94943c.0131-1.45644-.8004-2.33555-2.2044-2.33555-.9972 0-1.8369.59045-2.2043 1.48268-.2755-.91847-1.0234-1.48268-2.0862-1.48268-.9185 0-1.7189.52484-2.0863 1.31211v-1.2465h-.6692v6.21937h.6692v-3.14905z"/><path d="m67.5742 9.35567h.6692v-6.20626h-.6692v3.16217c-.0263 1.64013-.9316 2.50612-2.1912 2.50612-.9972 0-1.6533-.61669-1.6533-1.73197v-3.93632h-.6692v3.94944c0 1.45643.8267 2.33554 2.2569 2.33554 1.0234 0 1.8894-.55108 2.2699-1.37771v1.29899z"/><path d="m58.2194 8.04331-.3805.52484c.5773.51172 1.3514.85287 2.3486.85287 1.1678 0 2.0994-.62981 2.0994-1.7451 0-.87911-.433-1.25962-1.8107-1.73197l-.5248-.1837c-.7742-.26242-1.1941-.51172-1.1941-1.08905 0-.70853.6561-.98407 1.2728-.98407.5773 0 1.2071.3149 1.6532.70853l.4068-.55108c-.5773-.47236-1.2203-.7479-2.06-.7479-1.0628 0-1.9288.5642-1.9288 1.61389 0 .80038.4855 1.3121 1.6532 1.71885l.5905.20994c.8791.31491 1.2858.48548 1.2858 1.03656 0 .80039-.6954 1.15465-1.4433 1.15465-.7741 0-1.4695-.32802-1.9681-.78726z"/><path d="m52.6296 6.20624c.0262-1.64013.9316-2.50612 2.1912-2.50612.9972 0 1.6532.61669 1.6532 1.73198v3.92319h.6692v-3.94943c0-1.45644-.8266-2.33555-2.2568-2.33555-1.0235 0-1.8895.55109-2.27 1.37771v-1.3121h-.6691v6.21937h.6691v-3.14905z"/><path d="m48.0235 3.08398c-1.7451 0-3.1622 1.4302-3.1622 3.1753 0 1.74509 1.4171 3.17529 3.1622 3.17529s3.1753-1.4302 3.1753-3.17529c0-1.7451-1.4302-3.1753-3.1753-3.1753zm0 5.66829c-1.3777 0-2.493-1.12841-2.493-2.50611 0-1.37771 1.1153-2.50612 2.493-2.50612 1.3908 0 2.5061 1.12841 2.5061 2.50612 0 1.3777-1.1153 2.50611-2.5061 2.50611z"/><path d="m43.8379 7.20317c-.7085.91848-1.8238 1.4958-3.0703 1.4958-2.1256 0-3.8707-1.73198-3.8707-3.8707 0-2.12561 1.7451-3.857589 3.8707-3.857589 1.2596 0 2.3618.564209 3.0703 1.508919l.538-.52484c-.8529-1.036564-2.165-1.705737-3.6083-1.705737-2.5324 0-4.6055 2.073127-4.6055 4.592367 0 2.53236 2.0731 4.60548 4.6055 4.60548 1.4564 0 2.7423-.66917 3.582-1.71885z"/><path d="m75.0915 12.2286h-.3806v-.0919h.8529v.0919h-.3805v1.1153h-.0918z"/><path d="m76.9423 12.1367v1.2072h-.0918v-1.0235l-.4461.761h-.0657l-.4461-.761v1.0235h-.0918v-1.2072h.0918l.4855.8398.4855-.8398z"/></g></svg>