<svg fill="none" height="55" viewBox="0 0 70 55" width="70" xmlns="http://www.w3.org/2000/svg"><g fill="#000"><path d="m44.7242 21.5724c.2236-.1632.417-.3626.6225-.5439-.0242-.0302-.0484-.0665-.0665-.0967-.3566.1269-.556.5016-.8945.6648-.5923-.5258-1.1785-1.0456-1.7708-1.5654-.8099.6467-1.6016 1.2813-2.3933 1.9159-.0242-.0181-.0484-.0302-.0726-.0483 0-.5742 0-1.1483 0-1.7285-.0604.012-.0967.012-.0967.0181-.0302 4.5147-.0544 9.0234-.0846 13.5381-.4654-.0907-.9186-.1814-1.3901-.278 0-.1209 0-.2418 0-.3566 0-3.6082 0-7.2163 0-10.8184 0-.7011-.1813-1.3417-.7917-1.7708-1.1967-.8462-2.9494-.3083-3.4812 1.0878-.0967.2478-.1269.5259-.1813.7918.0302.006.0544.0181.0846.0242.0121-.0423.0242-.0847.0423-.127.2176-.5983.5439-.8642.9851-.8038.4171.0544.7374.4473.7495 1.0335.0241 1.1181 0 2.2362 0 3.3543 0 .0181-.0182.0302-.0242.0423-.2841.0604-.5621.0967-.828.1813-1.1786.3626-1.6741 1.6621-1.0214 2.6593.2599.3989.7071.6285 1.0637.5379-.2418-.1753-.4412-.3626-.3385-.7011.1088-.3505.3929-.4231.7011-.4654.0423-.006.0786-.0121.1209-.0121.2478-.012.3505.0726.3505.3506-.0121 1.6318-.0121 3.2636 0 4.8954 0 .1874-.0544.272-.2296.3566-.6407.3083-1.1846.7313-1.4143 1.4445-.4835 1.5109.6709 3.0823 2.2906 3.1367.9429.0302 1.8555-.1571 2.7741-.3324.8945-.1692 1.795-.3505 2.7016-.4412.7192-.0725 1.0697.5923.695 1.2209-.1027.1752-.2599.3263-.4291.5318.6286-.133 1.1483-.3566 1.5654-.7736.973-.967.7736-2.4659-.3989-3.173-.5923-.3566-1.233-.423-1.8917-.3263-1.2209.1813-2.4357.417-3.6565.5922-.5923.0847-1.2027.1209-1.795.0847-.5138-.0363-.828-.5984-.7192-1.1.1087-.5077.5197-.8401 1.1543-.9428.9187-.1511 1.8252-.0182 2.7258.1631.8642.1753 1.7104.4412 2.5807.5802.8219.127 1.6257-.0181 2.1636-.7494.3506-.4774.3627-1.0576.3627-1.6197.006-3.2939.006-6.5877 0-9.8816-.0121-.2418.0362-.411.2357-.55zm-2.8346 10.9332c-.006.9187-.8159 1.5231-1.7224 1.2753 0-1.6077 0-3.1972 0-4.7867 0-.1088 0-.2236 0-.3324 0-.4654.1631-.6709.6346-.7918.3565-.0967.9005.0846 1.0516.3627.0362.0664.0423.1511.0423.2296 0 1.3478.006 2.6956-.0061 4.0433zm-1.6983-4.6416c0-.4291 0-.9066 0-1.4384.5621.417 1.1242.417 1.6983-.0061v1.4324c-.284-.0846-.562-.2297-.8401-.2297-.2901.0061-.5681.1511-.8582.2418zm1.7104-4.3455c-.0423.7313-.0121 1.4687-.0121 2.206 0 .4956-.3747.8461-.8824.8159-.5439-.0302-.8461-.3566-.8461-.8945 0-.9851.0181-1.9763-.0121-2.9614-.0121-.3566.0786-.5984.3868-.7615.0605-.0303.1088-.0847.1813-.1451.2237.1994.4171.417.6528.5681.4533.2841.562.6709.5318 1.1725z"/><path d="m23.9997 3.93073c-.1693.03626-.2962.05439-.417.0967-2.4478.828-4.6235 3.29386-4.1763 6.52727.3808 2.7258 2.629 4.8592 5.379 4.9257 2.4054.0604 4.7625-1.3296 5.3306-4.285.0665-.3566.0604-.7253.0906-1.094-.0302 0-.0544-.006-.0846-.006-.4653 1.0274-1.1483 1.8615-2.1334 2.5384 0-1.1967-.0061-2.3208.006-3.45102 0-.08462.0967-.19341.1692-.25384.3566-.30219.7253-.59229 1.1-.90053-.3808-.30823-.7434-.5802-1.0818-.88239-.1028-.09066-.1874-.25988-.1934-.39889-.0182-.70712-.0121-1.4082-.0061-2.11532 0-.08462.0121-.17527.0182-.25384 1.251-.13296 2.0246-.68899 2.2845-1.63787.2538-.90656.0423-1.70434-.5439-2.175758-.5017-.386802-1.5956-.743386-2.1154-.4653715.266.0725255.5682.1269195.8462.2357075.3203.126919.5439.49559.4956.761512-.0665.33846-.2841.58021-.6226.61043-.3203.03022-.6708.03626-.979-.04835-1.0758-.29011-2.1335-.6346-3.2032-.942834-.689-.199444-1.378-.374714-2.1033-.217576-1.3598.284058-2.2483 1.33568-2.1999 2.62905.0302.81591.5318 1.51699 1.1664 1.66808-.0846-.21153-.2357-.4412-.2599-.6769-.0664-.73735.5682-1.28129 1.3599-1.09997 1.8977.43515 3.7774.93074 5.6932 1.4082 0 .73734-.006 1.49886.0061 2.26642.006.21757-.0665.35658-.2297.4835-.3566.27197-.7011.56207-1.0637.85822.3808.31427.7253.60437 1.0819.87634.151.11484.2175.23571.2115.42911-.0121 1.04559-.0121 2.09719 0 3.14279 0 .1873-.0544.2961-.2236.3807-1.6198.8039-3.5115.5258-4.8351-.9911 1.0154-.5077 2.0005-1.0094 2.9917-1.4929.1874-.0906.2659-.1873.2659-.40489-.012-1.71039-.006-3.42682-.006-5.13721 0-.08462-.0121-.16319-.0242-.27802-1.3357.59834-2.6411 1.17854-3.9466 1.75874-.0302-.03022-.0544-.05439-.0846-.08461.278-.42306.5198-.88239.8522-1.25711.3264-.38075.7555-.6769 1.1846-1.04557zm-2.0307 2.61696c.4895-.22967.9791-.44724 1.523-.68899v.66481c0 1.48073-.006 2.95541.006 4.43609 0 .2599-.0604.411-.3082.5017-.1874.0665-.3626.1692-.5621.2599-.4774-.6044-.7675-1.2813-.9549-2.00053-.2659-.99118-.1753-1.97027.1269-2.94332.0303-.08461.0907-.1934.1693-.22966z"/><path d="m22.3755 51.5744c0-.1451 0-.2358 0-.3204 0-.9791.006-1.9521-.0061-2.9312-.006-.2418.0786-.3868.266-.5258.3505-.2599.6829-.55 1.0334-.8341-.3989-.3263-.7675-.6164-1.1302-.9247-.0664-.0604-.151-.151-.1571-.2296-.0121-.822-.006-1.65-.006-2.484 1.0576-.1088 1.9038-.4775 2.2724-1.517.278-.7857.272-1.5774-.3807-2.1818-.6346-.5923-1.4203-.7917-2.3208-.6225.3445.0967.6587.1571.9488.278.3264.139.4956.4533.4654.7434-.0302.2961-.2538.5379-.6165.6164-.1994.0424-.4291.0665-.6225.0182-.9307-.2418-1.8554-.5137-2.7801-.7797-.8099-.2357-1.6016-.562-2.4659-.5016-1.3477.0907-2.7197 1.0577-2.6048 2.7741.0483.7676.5681 1.4686 1.106 1.5653-.0665-.2599-.2237-.562-.2055-.8582.0423-.6648.6346-1.0697 1.3659-.9126.9791.2115 1.9461.4896 2.9191.7373.9126.2297 1.8252.4412 2.756.6709 0 .8099.006 1.6258-.0061 2.4417 0 .0907-.0846.1994-.1571.2599-.3626.3022-.7313.5983-1.1241.9126.3807.3143.7554.6044 1.106.9186.0967.0847.1752.2418.1752.3687.0121 1.0577 0 2.1153.0121 3.173 0 .1874-.0604.2961-.2236.3747-.9126.4412-1.8675.5742-2.8466.3022-.7736-.2176-1.4384-.6527-1.9945-1.2873.1209-.0605.2055-.1088.2962-.1511.9066-.4533 1.8131-.9187 2.7257-1.3599.1813-.0906.2418-.1873.2418-.3868-.0061-1.6801-.0061-3.3664-.0061-5.0465 0-.1149 0-.2297 0-.3868-1.3598.6043-2.6653 1.1846-3.9707 1.7648-.0302-.0303-.0544-.0544-.0846-.0847.284-.423.5197-.8824.8582-1.2571.3384-.3807.7675-.6769 1.1966-1.0455-.1631.0362-.2961.0544-.417.0967-2.6411.9065-4.7081 3.5477-4.146 6.763.6648 3.7894 4.974 6.0256 8.4613 3.8196 1.3538-.8521 2.0126-2.1516 2.2483-3.6927.0423-.272.0362-.55.0483-.822-.0242-.006-.0483-.0121-.0725-.0121-.4835 1.0275-1.1604 1.8857-2.1576 2.5566zm-6.3218-3.0219c-.2357-.955-.1511-1.8978.1632-2.8225.0423-.1209.1631-.2478.278-.3082.4472-.2236.9065-.417 1.4203-.6407v4.7323c0 .8099-.0424.8643-.8885 1.1121-.4956-.6104-.7857-1.3176-.973-2.073z"/><path d="m9.88248 22.8418c.82192-.1329 1.52302-.4049 1.98232-1.1181.4775-.7433.5802-1.6983.2116-2.212-.2478.7434-.6346 1.1121-1.245 1.1181-.6346.0121-1.14836-.2901-1.60164-.7192-.76152.8703-1.50491 1.7104-2.24829 2.5626-.04231.0483-.04231.139-.06044.2115.02418.0121.0544.0181.07857.0302.21758-.2417.4412-.4895.66482-.7434.50767.4533 1.0637.7857 1.74665.822.24779.0121.29615.0967.29615.3264-.00605 1.8252-.00605 3.6444 0 5.4696v.6648c-.07857-.1088-.10879-.1511-.13297-.1874-1.08183-1.9642-2.15763-3.9284-3.23947-5.8926-.4291-.7857-.84008-1.5835-1.31754-2.339-.55603-.8763-1.49281-1.2511-2.35708-1.0033-1.2148.3445-1.776868 1.4808-1.57742 2.8829 0 .0121.03022.0182.03022.0182.10274-.2176.18735-.4412.30219-.6467.15109-.266.39889-.3566.69503-.3022.36867.0665.96096.6467.97305 1.0214.02417.7615.00604 1.523.00604 2.2845-1.72247.2901-2.405422.8401-2.338941 1.8978.042307.7434.525811 1.656 1.438421 1.6862-.08461-.1088-.18131-.2115-.24175-.3324-.12692-.2357-.12692-.5198.0967-.6527.25384-.1511.57416-.1934.8703-.2539.04231-.006.16923.1572.16923.2418.01813.4533.00604.9065.00604 1.3598v1.8192c-.20549.0181-.3868.0363-.56207.0544-1.45051.1209-2.4839932 1.1544-2.52629965 2.5142-.04230645 1.4082 1.41424965 2.5867 2.70156965 2.2181-.22966-.0967-.49559-.1753-.72525-.3083-.48351-.278-.67086-.7736-.50164-1.2268.1934-.5017.70108-.816 1.23293-.6951.29615.0665.58625.1995.85218.3506.19944.1148.36263.3021.56207.4714.79174-.8764 1.57743-1.7406 2.35708-2.6109-.02418-.0242-.04835-.0544-.07253-.0786-.30823.1148-.42911.4593-.70108.6346-.65877-.7011-1.47468-1.1242-2.41751-1.2934 0-2.5988 0-5.1795 0-7.8267.08461.1451.13296.2297.18131.3143 1.9461 3.5417 3.8922 7.0773 5.83225 10.6189.10275.1934.24175.3264.4412.2478.07857-.0302.12692-.2417.12692-.3747.00604-3.0823.00604-6.1647.00604-9.247.00605-.5923.00604-1.1846.00604-1.7769z"/><path d="m18.5911 26.3295c.5379.417.7675.9549.7615 1.6258-.0061 1.3115-.0182 2.6169.006 3.9284.0061.3989-.0906.6648-.4412.8522-.1632.0846-.2961.2236-.4412.3385.0302.0423.0605.0785.0907.1208.2901-.2055.5802-.4109.8642-.6104.6588.5439 1.2934 1.0698 1.9401 1.6137.7132-.5621 1.4082-1.1121 2.1153-1.6741.7132.562 1.4203 1.1181 2.1214 1.6741.0483-.0181.0846-.0302.1148-.0544 1.3115-.8038 2.617-1.6137 3.9224-2.4296.0907-.0544.1572-.2236.1572-.3385.0121-1.4384 0-2.8828.0181-4.3213 0-.145.0846-.3263.1934-.4291.4593-.4351.9428-.84 1.4143-1.2571-.0303-.0483-.0484-.0725-.0665-.0906-.2599.1873-.5198.3686-.7857.562-.5984-.4895-1.1906-.979-1.789-1.4686-.6648.6104-1.2994 1.1906-1.9521 1.789.1934.1873.3686.3686.562.5318.1572.1269.1995.278.1995.4714-.0061 1.7829-.0061 3.5659 0 5.3488 0 .2296-.0544.3868-.3022.4412-.4714-.3868-.9368-.7857-1.4203-1.1665-.1632-.1269-.2115-.2599-.2115-.4593.006-1.2692.0302-2.5384-.0061-3.8076-.0181-.5621.0665-1.0274.5319-1.378.0604-.0423.0967-.1208.1511-.1934-.5983-.5318-1.1846-1.0455-1.7769-1.5714-.6588.5803-1.2994 1.1484-1.94 1.7165.1692.1753.3082.3445.4774.4835.1995.1692.272.3566.272.6225-.0121 1.6197-.0181 3.2455 0 4.8652.006.3143-.1088.4835-.3808.5984-.3928-.3143-.7796-.6346-1.1846-.9429-.145-.1087-.1934-.2236-.1934-.4049.0061-1.6137 0-3.2213.0061-4.835 0-.4412-.1511-.8099-.4714-1.1-.1934-.1753-.411-.3203-.6225-.4774-.2478-.1874-.5198-.3506-.7434-.5621-.5379-.4896-.5319-1.0879 0-1.5956.0544-.0483.1329-.0665.1994-.1027-.0241-.0363-.0544-.0665-.0785-.1028-.1632.0303-.3325.0484-.4956.0907-.9852.278-1.6923 1.2208-1.6681 2.212.006.6527.3626 1.1121.8522 1.4868z"/><path d="m42.2765 52.3107c-.2599-.2841-.5258-.5681-.7796-.8703-.0544-.0665-.0786-.1813-.0786-.272-.006-1.4928-.006-2.9796.0061-4.4724 0-.1148.0846-.2599.1752-.3384.2116-.1934.4473-.3566.6709-.5379-.0182-.0363-.0423-.0665-.0605-.1028-.3445.1149-.5741.4352-.9126.6044-.5439-.6044-1.0879-1.2087-1.6378-1.8252-.7918.6285-1.5593 1.2329-2.339 1.8554-.5681-.6164-1.112-1.2027-1.656-1.7889-.7675.5983-1.5109 1.1785-2.2604 1.7648-.5681-.5984-1.112-1.1725-1.668-1.7588-.7857.683-1.5472 1.3478-2.3088 2.0186-.0423.0363-.0362.127-.0544.1874.0182.006.0424.0181.0605.0242.2417-.2055.4895-.411.7373-.6165.3143.3505.6225.6709.8945 1.0154.1088.1329.1934.3324.1934.5016.0181 1.1-.0121 2.1939.0181 3.2939.0182.4955-.0423.9065-.5016 1.1845-.0121.0061-.0181.0303-.0423.0605.5742.6467 1.1483 1.2994 1.7406 1.9642.6044-.6225 1.1725-1.2087 1.7527-1.8071-.133-.145-.2659-.3143-.4291-.4472-.2236-.1813-.2901-.3929-.2901-.683.0121-1.4384.0181-2.8829-.006-4.3213-.0061-.3807.0846-.6406.4714-.8038.3445.3989.695.7857 1.0214 1.1906.1027.1269.1752.3203.1752.4835.0121 1.1181-.0121 2.2362.0121 3.3543.0121.4412-.0423.8159-.4291 1.0758-.0121.0061-.0121.0363-.0302.0786.5319.5983 1.0697 1.2027 1.6076 1.801.5923-.5923 1.1665-1.1664 1.7588-1.7587-.1451-.1571-.3143-.3022-.4412-.4775-.0846-.1208-.1753-.2719-.1753-.417-.0242-1.5109-.006-3.0219-.0483-4.5328-.0121-.405.139-.6407.5016-.8099.3566.3929.7313.7917 1.0758 1.2027.0907.1088.1632.278.1692.4231.0121 1.1302-.006 2.2543.0121 3.3845.0061.411-.0302.7736-.3989 1.0275-.0121.006-.006.0362-.0181.0664.5923.6407 1.1906 1.2874 1.795 1.9461.828-.7675 1.6258-1.5049 2.4235-2.2422-.0181-.0242-.0362-.0484-.0483-.0725-.2901-.0061-.3868.3626-.6588.4472z"/><path d="m32.697 15.1478c.6407-.3687 2.5203-1.9521 2.5263-2.1757-.2296.1692-.4351.3203-.6829.5016-.1451-.1632-.2962-.3143-.417-.4835-.0726-.1028-.1511-.2418-.1511-.3687-.0121-1.5835-.0061-3.16088 0-4.74435 0-.10879.0362-.2478.1027-.32032.1874-.1934.4049-.35658.6225-.54394.3203.40493.6407.77965.9308 1.17249.0967.13296.1631.32032.1631.4835.0121 1.49882.0182 3.00372 0 4.50262-.006.5923-.0423 1.1906-.1208 1.7769-.139 1.0939-.7253 1.8494-1.789 2.212-.0483.0181-.0906.0423-.1692.0786 1.6499.4533 3.5235-.5802 4.1037-2.206.2841-.7978.2478-1.6258.2599-2.4477.0242-1.5835.006-3.16094.0242-4.74441 0-.12692.0846-.27802.1752-.36867.1814-.17527.3989-.32032.6105-.48351-.0363-.04835-.0665-.09065-.0726-.09065-.2719.16922-.5439.33845-.8219.51372-.5863-.65273-1.1725-1.29942-1.7648-1.95819-.7494.64064-1.4807 1.2692-2.2785 1.95214 0-2.25433 0-4.43009 0-6.672332-.9972.767562-1.9219 1.486772-2.9071 2.248292.5138.17526.5863.53789.5802.96096-.006 2.61091 0 5.21578-.006 7.82665 0 .4231.1148.9066-.0544 1.2511-.1632.3324-.6225.5137-.9489.7615-.0544.0423-.1148.0846-.1632.133-.0181.0242-.0181.0665-.0483.1994.278-.1752.4835-.3082.689-.4412.55.5077 1.0818.9912 1.6076 1.4747z"/><path d="m46.3318 31.2848c.0121.5259-.0967.9187-.556 1.1846-.0484.0242-.0725.0846-.1088.1269.0181.0303.0423.0605.0604.0907.278-.0665.4171-.3687.6951-.4956.7857.6588 1.5653 1.3176 2.3208 1.9522 1.3477-.7495 2.6653-1.4808 3.9768-2.2242.0786-.0483.133-.2115.133-.3203.006-1.3719.0302-2.7378-.0061-4.1097-.0121-.5379.0484-.9852.5439-1.2874.0605-.0362.0786-.1329.1209-.1994-.0242-.0181-.0544-.0423-.0785-.0605-.2358.2055-.4715.411-.7072.6226-.7917-.689-1.5774-1.3539-2.3389-2.0368-.1572-.139-.2539-.1148-.411-.0242-1.1362.6225-2.2785 1.239-3.4208 1.8434-.1752.0906-.2417.1813-.2357.3807 0 1.511-.0242 3.034.0121 4.557zm2.2785-5.6569c.0544.0181.0967.0181.1209.0423.5741.5318 1.1544 1.0637 1.7225 1.6076.0725.0665.139.1813.139.278.006 1.7527 0 3.5054 0 5.2581 0 .0061-.0061.0182-.0363.0726-.6346-.5742-1.2511-1.1363-1.8675-1.6984-.0423-.0423-.0725-.1208-.0725-.1873-.0061-1.7829-.0061-3.5658-.0061-5.3729z"/><path d="m57.0168 48.5764c-.4291-.3687-.8824-.7193-1.3296-1.0879.1088-.133.1934-.2418.284-.3506.4654-.5983.8945-1.2148 1.0698-1.9702.0846-.3748.0906-.7495-.1149-1.1423-.0906 1.1967-1.2933 1.3175-1.9158.7736-.1511-.1269-.2962-.2599-.405-.3566-1.1664.6769-2.3027 1.3357-3.4328 2.0065-.0786.0484-.139.1874-.139.2901-.0121.6951-.0182 1.3901 0 2.0852.006.1269.0906.284.1873.3747.3929.3868.8099.7494 1.2511 1.1543-.1693.1511-.3324.272-.4654.4231-.3687.4351-.7736.8522-1.0758 1.3357-.4351.695-.3747 1.4203.1088 2.0911.3203.4473.8764.7192 1.2994.6527-.0967-.0543-.1813-.1027-.2659-.1571-.3445-.2176-.5137-.556-.411-.828.1209-.3143.5621-.5681.9247-.4291.3989.1571.7615.417 1.1362.6286-.006.0302-.006.0604-.012.0906.0362-.0181.0664-.0363.1027-.0604 1.0758-.6709 2.1516-1.3357 3.2213-2.0186.0846-.0544.1632-.1995.1632-.3022.0121-.955.0121-1.9159 0-2.8708-.0121-.1028-.0906-.2539-.1813-.3324zm-3.868-2.9494c1.3659 1.4324 1.9219 1.5412 3.173.6527-.0726.4412-1.5472 1.9824-2.3208 2.5505-.2599-.2236-.5138-.4352-.7555-.6588-.0484-.0423-.0907-.1148-.0907-.1752-.006-.7857-.006-1.5654-.006-2.3692zm1.934 7.2525c-.4231-.7977-.9308-1.384-1.7708-1.5593-.8764-.1873-1.5472.1753-2.1154.8039.3022-.7374 1.9099-2.2 2.9857-3.167.2719.2297.5439.4593.8159.7011.0483.0483.0846.139.0846.2055.006.9791 0 1.9521 0 3.0158z"/><path d="m64.4878 32.3661c-.1692-.1813-.3022-.3627-.4714-.5017-.2659-.2115-.3143-.4714-.3143-.7977.0121-3.7834.0061-7.5729.0061-11.3563 0-.0846-.0121-.1692-.0181-.3022-1.0214.7192-2.0066 1.4142-3.0401 2.1395.405.0786.6044.2901.6769.5923.0786.3203.127.6527.127.9791.012 2.7801-.0061 5.5603.0181 8.3344.006.417-.0967.7071-.4412.9368-.2055.139-.3868.3203-.5681.4955-.0544.0544-.0846.139-.1209.2055.0242.0182.0483.0423.0786.0605.2236-.1874.4472-.3747.6829-.5682.556.5198 1.0939 1.0275 1.65 1.5533.8038-.7011 1.6016-1.3901 2.3933-2.0851.0302-.0302.0242-.1027.0302-.1571-.0241-.0121-.0423-.0242-.0665-.0363-.2175.1692-.417.3324-.6225.5077z"/><path d="m47.9896 52.6497c-.5863-.5439-1.1544-1.0697-1.7104-1.6016-.1632-.1571-.1028-.6709.0846-.8099.6406-.4714 1.2813-.9367 1.9219-1.4082.5137-.3807 1.0275-.7554 1.5472-1.1422-.6225-1.0819-1.2269-2.1335-1.8494-3.2093-.1632.0967-.3082.1813-.4533.2659-1.106.6346-2.212 1.2753-3.3301 1.8917-.2055.1149-.284.2237-.284.4594.012 1.5532 0 3.1004.006 4.6537 0 .1873-.0423.3203-.2055.4291-.1934.1269-.3626.2901-.5379.4412.0302.0363.0544.0786.0846.1148.2478-.1813.4956-.3626.7736-.5621.7011.6346 1.3961 1.2572 2.0851 1.8918.1209.1148.2116.151.3566.0362 1.233-.9851 2.4719-1.9642 3.7049-2.9494.0423-.0302.0544-.0966.0785-.145-.0241-.0242-.0483-.0484-.0725-.0725-.7313.5741-1.4626 1.1422-2.1999 1.7164zm-1.7648-6.8778c.6104 1.0335 1.1846 2.0126 1.7889 3.034-.5923.4351-1.1725.8582-1.7889 1.3115 0-1.4566 0-2.8708 0-4.3455z"/><path d="m18.1374 30.995c-.0604-.0544-.0846-.0846-.0846-.0846-.7373.5439-1.4746 1.0879-2.2422 1.656-.5681-.5379-1.1302-1.0577-1.6802-1.5835-.1692-.1632-.1209-.6648.0665-.8098.4895-.3687.9851-.7253 1.4807-1.0879.6648-.4896 1.3236-.9731 1.9945-1.4687-.6225-1.0818-1.233-2.1395-1.8252-3.179-1.3055.7313-2.5747 1.4505-3.8499 2.1516-.1813.0967-.2357.2055-.2357.3989.006 1.378-.0242 2.762.012 4.14.0121.556-.0483 1.0093-.5862 1.2752-.0363.0181-.0786.0423-.0907.0786-.0181.0483-.012.1088-.0241.2296.3022-.2417.5439-.4291.7917-.6225.7676.6951 1.517 1.372 2.2846 2.061 1.3417-1.0517 2.6653-2.1033 3.9888-3.1549zm-4.0795-5.3064c.6165 1.0455 1.1906 2.0307 1.789 3.046-.5863.4291-1.1725.8643-1.789 1.3176 0-1.4566 0-2.8648 0-4.3636z"/><path d="m40.1256 13.2435c.7676.689 1.517 1.372 2.2725 2.0489 1.3417-1.0637 2.6653-2.1153 3.9889-3.1609-.0302-.0363-.0605-.0786-.0846-.1148-.7676.5137-1.4506 1.1422-2.2242 1.6922-.5741-.5379-1.1422-1.0577-1.6983-1.5955-.1994-.1874-.1269-.6528.0967-.822.683-.5016 1.3599-1.0033 2.0428-1.49886.4654-.3445.9308-.68899 1.4022-1.03953-.6225-1.08184-1.2269-2.13346-1.8434-3.20321-.1087.06044-.1934.10879-.278.15714-1.1785.67086-2.351 1.35381-3.5356 2.01258-.1753.0967-.2357.1934-.2357.38681.0061 1.55929 0 3.12467.0121 4.68397 0 .2054-.0604.3384-.2176.4532-.1873.133-.3626.2841-.55.4291.0303.0424.0605.0847.0846.1209.2539-.1752.5077-.3626.7676-.55zm2.1697-6.3278c.0182-.00604.0363-.01813.0544-.02418.5802.98514 1.1604 1.97028 1.7527 2.97959-.5923.43519-1.1725.85819-1.8071 1.32359 0-1.46864 0-2.8708 0-4.279z"/><path d="m60.794 24.5037c-.8824.5742-1.0275.5742-1.8978.0061-.5016.4895-1.0093.9851-1.523 1.4868-.4291-.5198-.8703-1.0456-1.3176-1.5835-.7977.7132-1.5593 1.4021-2.3208 2.0911-.0423.0423-.0544.1209-.0786.1813.0242.0121.0484.0303.0726.0424.2236-.1874.4472-.3808.695-.5802.2538.3384.4956.6466.7192.9609.0484.0665.0605.1692.0605.2539.006 1.4686.006 2.9372 0 4.4119 0 .1028-.0665.2297-.139.3022-.2358.2357-.4956.4412-.7313.6769-.0544.0544-.0665.1511-.1028.2297.0725-.0302.1571-.0423.2115-.0907.1814-.1571.3506-.3203.5259-.4835.6466.5863 1.2691 1.1544 1.9037 1.7285.8522-.7071 1.6802-1.4021 2.5143-2.1032-.0424-.0423-.0786-.0846-.0786-.0846-.278.1873-.55.3807-.8461.5862-.2418-.2115-.4654-.423-.7132-.6164-.1571-.127-.2115-.266-.2115-.4654.006-1.6197 0-3.2395 0-4.8653 0-.0846.012-.1692.0241-.2719 1.0517.7736 1.511.8703 2.1879.4653.7071-.423 1.1725-1.4323 1.0456-2.2785z"/><path d="m69.9158 31.6484c-.2478.2116-.5017.4291-.7495.6407-.0302-.0242-.0483-.0302-.0604-.0484-1.245-1.8796-2.484-3.7532-3.729-5.6328-.1209-.1813-.0182-.2599.0906-.3686.7978.5137 1.6198.8884 2.5142.3505.828-.4956 1.0819-1.3478 1.2572-2.3027-.4352.3626-.8341.6527-1.3599.6407-.5198-.0121-.9247-.2841-1.3055-.6286-.0725.0967-.1329.1813-.1873.2599-.8099 1.1785-1.6077 2.3571-2.4296 3.5235-.1572.2236-.139.3687-.0061.5802.828 1.3055 1.644 2.623 2.4659 3.9345.3143.5016.6286.9972.9489 1.5049.8582-.7494 1.6922-1.4747 2.5202-2.206.0544-.0483.0786-.1329.1149-.2055-.0303-.006-.0605-.0241-.0846-.0423z"/><path d="m29.3739 52.5535c-.2599-.2962-.5197-.5742-.7494-.8764-.0967-.1208-.1692-.2961-.1692-.4472-.0121-1.2511.0241-2.4961-.0242-3.7471-.0181-.5742.0786-1.0214.5923-1.3176.0604-.0363.1209-.0846.1511-.145.0242-.0423.006-.1088.006-.2176-.3082.2538-.556.4593-.8159.6708-.5681-.6587-1.112-1.2933-1.6741-1.9461-.7434.6528-1.4687 1.2874-2.1939 1.928-.0363.0302-.0242.1209-.0484.2659.272-.2357.4715-.4049.689-.5862.2901.3384.5681.6406.8159.973.0967.133.1693.3204.1693.4835.0121 1.4203 0 2.8406.0121 4.2609 0 .2538-.0544.4412-.266.5863-.1632.1087-.3022.2598-.4472.3928.0302.0363.0604.0786.0906.1148.2539-.1994.5017-.3989.7555-.5983.5379.6225 1.0577 1.2208 1.5895 1.8313.7857-.7011 1.5533-1.3901 2.3209-2.0731-.0242-.0362-.0484-.0725-.0726-.1087-.2961.1027-.4653.4049-.7313.556z"/><path d="m26.4719 44.0366c.5923-.5379 1.1725-1.0637 1.7647-1.6016-.4835-.5318-.9488-1.0516-1.4323-1.5834-.5923.5499-1.1665 1.0758-1.7467 1.6076.4896.5439.9428 1.0516 1.4143 1.5774z"/></g></svg>